<svg xmlns="http://www.w3.org/2000/svg" width="119" height="119" viewBox="0 0 119 119">
  <g id="Group_2930" data-name="Group 2930" transform="translate(314 1454)">
    <circle id="Ellipse_1091" data-name="Ellipse 1091" cx="59.5" cy="59.5" r="59.5" transform="translate(-314 -1454)" fill="#ff8200"/>
    <path id="Path_11383" data-name="Path 11383" d="M-.649.708C8.5.708,14.219-4.071,14.219-10.8c0-6.077-5.369-9.145-9.145-9.558,4.012-.649,8.5-3.717,8.5-9.027,0-6.549-5.664-10.561-14.16-10.561-6.549,0-11.328,2.6-14.4,6.195l3.54,4.307A13.651,13.651,0,0,1-1.239-33.807c4.366,0,7.965,1.888,7.965,5.487s-3.481,5.192-8.142,5.192c-1.534,0-3.835,0-4.484-.059v6.254c.59-.059,2.832-.118,4.484-.118,5.664,0,8.732,1.711,8.732,5.605,0,3.6-3.009,6.018-8.2,6.018a14.56,14.56,0,0,1-10.856-4.779l-3.776,4.543C-12.8-2.124-7.611.708-.649.708Z" transform="translate(-253.483 -1375.057)" fill="#fff"/>
  </g>
</svg>
