<svg xmlns="http://www.w3.org/2000/svg" width="119" height="119" viewBox="0 0 119 119">
  <g id="Group_2932" data-name="Group 2932" transform="translate(628 1253)">
    <circle id="Ellipse_1093" data-name="Ellipse 1093" cx="59.5" cy="59.5" r="59.5" transform="translate(-628 -1253)" fill="#78c4c1"/>
    <path id="Path_11378" data-name="Path 11378" d="M.236.708c8.791,0,15.045-5.192,15.045-13.334,0-8.083-5.959-12.685-12.626-12.685a13.182,13.182,0,0,0-8.909,3.363V-33.276h18.88v-6.077H-13.157V-17.4l4.9,1.416A11.969,11.969,0,0,1,.354-19.352c4.838,0,7.906,2.773,7.906,6.962C8.26-8.5,5.192-5.428.177-5.428a13.314,13.314,0,0,1-10.561-4.72l-3.953,4.779C-11.151-1.652-6.49.708.236.708Z" transform="translate(-568.663 -1174.647)" fill="#fff"/>
  </g>
</svg>
