<svg xmlns="http://www.w3.org/2000/svg" width="119" height="119" viewBox="0 0 119 119">
  <g id="Group_2933" data-name="Group 2933" transform="translate(471 1253)">
    <circle id="Ellipse_1094" data-name="Ellipse 1094" cx="59.5" cy="59.5" r="59.5" transform="translate(-471 -1253)" fill="#ff8200"/>
    <path id="Path_11379" data-name="Path 11379" d="M.974.708c8.791,0,14.514-5.959,14.514-13.216,0-8.378-6.136-12.744-13.216-12.744A13.644,13.644,0,0,0-8.29-19.706v-1.121c0-6.9,3.776-12.98,10.384-12.98a10.334,10.334,0,0,1,8.083,3.422l3.186-5.192A15.465,15.465,0,0,0,2.094-39.943c-11.387,0-17.346,8.968-17.346,20.3C-15.252-8.673-10.59.708.974.708ZM.561-5.428c-6.018,0-8.378-5.015-8.732-9.263a10.638,10.638,0,0,1,8.614-4.6c4.248,0,8.024,2.183,8.024,7.021C8.467-9.145,5.753-5.428.561-5.428Z" transform="translate(-411.749 -1174.057)" fill="#fff"/>
  </g>
</svg>
