<svg xmlns="http://www.w3.org/2000/svg" width="119" height="119" viewBox="0 0 119 119">
  <g id="Group_2935" data-name="Group 2935" transform="translate(157 1253)">
    <circle id="Ellipse_1096" data-name="Ellipse 1096" cx="59.5" cy="59.5" r="59.5" transform="translate(-157 -1253)" fill="#ff8200"/>
    <path id="Path_11381" data-name="Path 11381" d="M0,.708c8.024,0,15.1-3.776,15.1-10.856,0-4.956-4.071-8.555-8.85-10.148,4.425-1.416,8.2-4.366,8.2-9.322,0-7.316-7.493-10.325-14.455-10.325s-14.455,3.009-14.455,10.325c0,4.956,3.776,7.906,8.2,9.322C-11.033-18.7-15.1-15.1-15.1-10.148-15.1-3.068-8.083.708,0,.708ZM0-23.069c-2.36-.413-7.434-1.829-7.434-5.487,0-3.363,3.186-5.251,7.434-5.251s7.434,1.888,7.434,5.251C7.434-24.9,2.419-23.482,0-23.069ZM0-5.428c-4.484,0-8.083-2.124-8.083-5.605,0-4.071,5.605-5.841,8.083-6.2,2.419.354,8.083,2.124,8.083,6.2C8.083-7.552,4.366-5.428,0-5.428Z" transform="translate(-97.896 -1174.057)" fill="#fff"/>
  </g>
</svg>
