<svg xmlns="http://www.w3.org/2000/svg" viewBox="0 0 586.17 278.12"><title>Artboard 1</title><path d="M81,162H11.32v-1.71h69l8.08-8.09h24.95l26.54-26.54H268l32.36-32.36,1.21,1.21-32.86,32.86H140.57L114,153.9h-25Z" fill="#fff"/><path d="M298.57,91.73a3.21,3.21,0,1,1,0,4.55h0a3.21,3.21,0,0,1,0-4.55" fill="#56b6b2"/><path d="M11.48,157.92a3.22,3.22,0,1,0,3.22,3.22h0a3.22,3.22,0,0,0-3.21-3.22h0" fill="#f58320"/><path d="M394.37,226.2H130.1L73.92,170H31.11L17.26,183.88l-1.21-1.21L30.4,168.32H74.63l56.18,56.17H393.66l51.86-51.86h85.76v1.71h-85Z" fill="#fff"/><path d="M531.12,170.27a3.22,3.22,0,1,1-3.21,3.22h0a3.22,3.22,0,0,1,3.21-3.22" fill="#56b6b2"/><path d="M14.49,180.88a3.22,3.22,0,1,0,4.55,0h0a3.23,3.23,0,0,0-4.55,0h0" fill="#f58320"/><path d="M184.75,226l-1.21-1.21L214.29,194H357.06l37.22-37.21h112.6v1.71H395L357.77,195.7H215Z" fill="#fff"/><path d="M506.72,160.84a3.22,3.22,0,1,0-3.22-3.22h0a3.22,3.22,0,0,0,3.22,3.22h0" fill="#56b6b2"/><path d="M173.51,194.48H98.73v-1.72h74.08l33.55-33.55H333.87l48.51-48.5H564.23v1.71H383.08l-48.5,48.5H207.07Z" fill="#fff"/><path d="M564.07,114.78a3.22,3.22,0,1,0-3.22-3.22h0a3.22,3.22,0,0,0,3.22,3.22h0" fill="#56b6b2"/><path d="M163.14,179.83H84.08v-1.71h78.35L192,148.53H306.77v1.71h-114Z" fill="#fff"/><path d="M306.6,152.6a3.22,3.22,0,1,0-3.21-3.21h0a3.21,3.21,0,0,0,3.21,3.21" fill="#56b6b2"/><path d="M179,127.4l-1.21-1.21L214,90h63.14l21.81-21.81H478.21v1.71H299.65L277.84,91.67H214.7Z" fill="#fff"/><path d="M478.05,72.22A3.22,3.22,0,1,0,474.83,69h0A3.21,3.21,0,0,0,478,72.22h0" fill="#56b6b2"/><path d="M217.16,127,216,125.83l15.12-15.12h23.84v1.7H231.78Z" fill="#fff"/><path d="M254.75,114.78a3.22,3.22,0,1,0-3.22-3.22h0a3.22,3.22,0,0,0,3.22,3.22h0" fill="#56b6b2"/><path d="M356.91,138.35H321.06l-14.87-14.87,1.21-1.21,14.37,14.37h35.14Z" fill="#fff"/><path d="M309.19,120.71a3.22,3.22,0,1,0,0,4.55h0a3.23,3.23,0,0,0,0-4.55" fill="#56b6b2"/><path d="M352.88,175H278.35l-14-14,1.21-1.22,13.53,13.54h73.11l46.37-46.37H466v1.72H399.25Z" fill="#fff"/><path d="M465.84,131a3.22,3.22,0,1,0-3.21-3.22h0a3.22,3.22,0,0,0,3.21,3.22h0" fill="#56b6b2"/><path d="M385.83,214H260.66l-18.54-18.54,1.21-1.21,18,18H385.12l32.06-32.06,1.21,1.21Z" fill="#fff"/><path d="M419.94,183.22a3.21,3.21,0,1,0-4.54,0h0a3.2,3.2,0,0,0,4.54,0h0" fill="#56b6b2"/><path d="M436.72,89.54H341.19L321.42,69.76l1.21-1.2L341.9,87.83h94.82Z" fill="#fff"/><path d="M436.56,91.9a3.22,3.22,0,1,0-3.22-3.22h0a3.22,3.22,0,0,0,3.22,3.22h0" fill="#56b6b2"/><path d="M447.09,111.86l-1.21-1.21L459.56,97h73.56v1.71H460.26Z" fill="#fff"/><path d="M533,101.05a3.22,3.22,0,1,0-3.21-3.22h0a3.22,3.22,0,0,0,3.21,3.22h0" fill="#56b6b2"/><path d="M176.41,214.92H119.32V213.2H175.7l41-40.95H248V174H217.36Z" fill="#fff"/><path d="M247.88,176.32a3.22,3.22,0,1,0-3.21-3.22,3.22,3.22,0,0,0,3.21,3.22h0" fill="#56b6b2"/><path d="M556.44,161.71l-16.35-16.35H432.4l-17-17,1.21-1.2,16.53,16.52H540.79l16.85,16.85Z" fill="#fff"/><path d="M554.65,163.27a3.22,3.22,0,1,0,0-4.55h0a3.23,3.23,0,0,0,0,4.55" fill="#56b6b2"/><path d="M50.58,153.91H20.91L5.66,138.66l1.21-1.21L21.62,152.2H49.87l57.65-57.66h42.1L194.47,49.7h59.22v1.71H195.17L150.33,96.25h-42.1Z" fill="#fff"/><path d="M253.53,47.34a3.22,3.22,0,1,1-3.22,3.21,3.21,3.21,0,0,1,3.22-3.21h0" fill="#56b6b2"/><path d="M8.66,135.9a3.22,3.22,0,1,0,0,4.55h0a3.23,3.23,0,0,0,0-4.55" fill="#f58320"/><path d="M94.2,138.65H65.47v-1.71h28l25.32-25.32h25.06v1.71H119.51Z" fill="#fff"/><path d="M143.7,115.69a3.22,3.22,0,1,0-3.21-3.21h0a3.21,3.21,0,0,0,3.21,3.21" fill="#56b6b2"/><path d="M231.78,78.56H167.66V76.85h63.41l13.27-13.27h36.45l5.91-5.91,1.2,1.22-6.4,6.4H245.05Z" fill="#fff"/><path d="M289.46,60.67a3.22,3.22,0,1,0-4.55,0,3.21,3.21,0,0,0,4.55,0h0" fill="#56b6b2"/><path d="M195.12,110.89H174.33l-9.68-9.68,1.21-1.21,9.18,9.18h20.08Z" fill="#fff"/><path d="M167.64,98.44a3.22,3.22,0,1,0,0,4.55h0a3.21,3.21,0,0,0,0-4.55" fill="#56b6b2"/><path d="M501.91,64.94,491.28,54.31H373.38L357.06,38H287.3l-26.9,26.9-1.21-1.21,27.4-27.41h71.18l16.32,16.32H492l11.13,11.13Z" fill="#fff"/><path d="M500.13,66.49a3.21,3.21,0,1,0,0-4.55h0a3.21,3.21,0,0,0,0,4.55" fill="#56b6b2"/><path d="M352.51,114.89l-6.44-6.44H287.25v-1.71h59.54l6.93,6.94Z" fill="#fff"/><path d="M350.73,116.45a3.22,3.22,0,1,0,0-4.55h0a3.21,3.21,0,0,0,0,4.54h0" fill="#56b6b2"/><path d="M157.16,165.76H107.54L95.49,153.7l1.21-1.21,11.55,11.56h48.2l25.39-25.39h69v1.71H182.55Z" fill="#fff"/><path d="M250.66,142.73a3.22,3.22,0,1,0-3.22-3.22h0a3.22,3.22,0,0,0,3.22,3.22" fill="#56b6b2"/><rect x="124.58" y="141.37" width="30.3" height="1.71" fill="#fff"/><path d="M154.72,145.45a3.22,3.22,0,1,0-3.22-3.22h0a3.23,3.23,0,0,0,3.21,3.22h0" fill="#56b6b2"/><path d="M348,184.81H299.5l-10.32-10.32,1.21-1.21,9.82,9.82H348Z" fill="#fff"/><path d="M347.85,187.17a3.22,3.22,0,1,0-3.21-3.21,3.22,3.22,0,0,0,3.21,3.21h0" fill="#56b6b2"/><path d="M355.51,53.89h-34l-16.1-16.11,1.21-1.21,15.6,15.6h33.32Z" fill="#fff"/><path d="M355.35,56.25A3.22,3.22,0,1,0,352.14,53h0a3.2,3.2,0,0,0,3.21,3.22h0" fill="#56b6b2"/><path d="M387.9,185.56h-20v-1.71h19.25l17-17h29.53v1.71H404.89Z" fill="#fff"/><path d="M433.56,170.93a3.22,3.22,0,1,0-3.22-3.22,3.22,3.22,0,0,0,3.22,3.22h0" fill="#56b6b2"/><path d="M424.35,100H381.7L371.23,89.52l1.22-1.21,10,10h41.94Z" fill="#fff"/><path d="M424.19,102.34A3.22,3.22,0,1,0,421,99.13h0a3.22,3.22,0,0,0,3.22,3.21" fill="#56b6b2"/><path d="M423.38,274H208.3l-47.73-47.73,1.21-1.2L209,272.3H422.67l33.23-33.23H568.3l12.2,12.2-1.2,1.21-11.71-11.7h-111Z" fill="#fff"/><path d="M577.52,254a3.22,3.22,0,1,0,0-4.55h0a3.21,3.21,0,0,0,0,4.55" fill="#56b6b2"/><path d="M431.88,244.28H332.23L314.05,226.1l1.21-1.21,17.68,17.67h98.23l36.19-36.19,1.21,1.21Z" fill="#fff"/><path d="M470.13,209.37a3.22,3.22,0,1,0-4.55,0,3.23,3.23,0,0,0,4.55,0h0" fill="#56b6b2"/><path d="M444.25,210.17H410.16v-1.71h33.38l18.55-18.55h36.46v1.71H462.8Z" fill="#fff"/><path d="M498.39,194a3.22,3.22,0,1,0-3.21-3.22h0a3.22,3.22,0,0,0,3.21,3.22" fill="#56b6b2"/><path d="M489.85,240.65l-1.21-1.21,22.17-22.17h22.6V219H511.52Z" fill="#fff"/><path d="M533.25,221.34a3.22,3.22,0,1,0-3.22-3.22h0a3.22,3.22,0,0,0,3.21,3.22h0" fill="#56b6b2"/><path d="M283.1,260.36,270.76,248H183.17v-1.71h88.3l12.83,12.83Z" fill="#fff"/><path d="M281.31,261.91a3.22,3.22,0,1,0,0-4.55h0a3.21,3.21,0,0,0,0,4.55" fill="#56b6b2"/><path d="M379.37,257.77H311.24L279.5,226l1.21-1.21,31.23,31.23h67.43Z" fill="#fff"/><path d="M379.21,260.13a3.22,3.22,0,1,0-3.22-3.22,3.22,3.22,0,0,0,3.22,3.22h0" fill="#56b6b2"/><path d="M401.12,53.92l-1.21-1.21,26.26-26.27H536.61L556.44,6.61l1.21,1.21L537.32,28.15H426.88Z" fill="#fff"/><path d="M559.2,9.61a3.22,3.22,0,1,0-4.55,0,3.21,3.21,0,0,0,4.55,0" fill="#56b6b2"/></svg>