<svg xmlns="http://www.w3.org/2000/svg" viewBox="0 0 588.58 277.49"><title>Artboard 1</title><path d="M81.22,159.59H11.55v-1.71h69l8.08-8.08h25l26.54-26.54H268.2l32.37-32.37,1.21,1.21L268.91,125H140.79l-26.54,26.54h-25Z" fill="#061937"/><path d="M298.79,89.34a3.22,3.22,0,1,1,0,4.55h0a3.21,3.21,0,0,1,0-4.55" fill="#56b6b2"/><path d="M11.71,155.52a3.22,3.22,0,1,0,3.22,3.22h0a3.22,3.22,0,0,0-3.22-3.22h0" fill="#f58320"/><path d="M394.6,223.81H130.32L74.15,167.63H31.33L17.48,181.48l-1.21-1.21,14.35-14.35H74.85L131,222.09H393.89l51.86-51.85h85.76V172H446.46Z" fill="#061937"/><path d="M531.35,167.88a3.22,3.22,0,1,1-3.22,3.21h0a3.22,3.22,0,0,1,3.22-3.21" fill="#56b6b2"/><path d="M14.72,178.49a3.22,3.22,0,1,0,4.55,0h0a3.22,3.22,0,0,0-4.55,0h0" fill="#f58320"/><path d="M185,223.55l-1.21-1.2,30.76-30.76H357.28l37.22-37.22H507.11v1.71H395.21L358,193.3H215.22Z" fill="#061937"/><path d="M506.94,158.44a3.22,3.22,0,1,0-3.21-3.21h0a3.21,3.21,0,0,0,3.21,3.21h0" fill="#56b6b2"/><path d="M173.74,192.08H99v-1.71H173l33.55-33.56H334.1l48.5-48.5H564.46V110H383.31l-48.51,48.5H207.29Z" fill="#061937"/><path d="M564.29,112.38a3.22,3.22,0,1,0-3.21-3.22h0a3.22,3.22,0,0,0,3.21,3.22h0" fill="#56b6b2"/><path d="M163.37,177.44H84.31v-1.72h78.35l29.59-29.59H307v1.72H193Z" fill="#061937"/><path d="M306.83,150.21a3.22,3.22,0,1,0-3.22-3.22h0a3.22,3.22,0,0,0,3.22,3.22" fill="#56b6b2"/><path d="M179.19,125,178,123.79l36.23-36.23h63.15l21.81-21.8H478.43v1.71H299.88l-21.81,21.8H214.92Z" fill="#061937"/><path d="M478.27,69.83a3.22,3.22,0,1,0-3.21-3.22h0a3.2,3.2,0,0,0,3.21,3.22h0" fill="#56b6b2"/><path d="M217.38,124.64l-1.21-1.21,15.13-15.12h23.83V110H232Z" fill="#061937"/><path d="M255,112.38a3.22,3.22,0,1,0-3.21-3.22h0a3.21,3.21,0,0,0,3.21,3.22h0" fill="#56b6b2"/><path d="M357.14,136H321.28l-14.86-14.87,1.21-1.21L322,134.24h35.15Z" fill="#061937"/><path d="M309.41,118.32a3.21,3.21,0,1,0,0,4.54h0a3.2,3.2,0,0,0,0-4.54" fill="#56b6b2"/><path d="M353.11,172.56H278.58l-14-14,1.21-1.21,13.54,13.53H352.4l46.37-46.36h67.46v1.71H399.47Z" fill="#061937"/><path d="M466.07,128.55a3.22,3.22,0,1,0-3.22-3.22h0a3.22,3.22,0,0,0,3.22,3.22h0" fill="#56b6b2"/><path d="M386.06,211.6H260.89l-18.54-18.53,1.21-1.21,18,18H385.35l32.06-32.06,1.21,1.21Z" fill="#061937"/><path d="M420.17,180.82a3.22,3.22,0,1,0-4.55,0h0a3.22,3.22,0,0,0,4.55,0h0" fill="#56b6b2"/><path d="M436.94,87.14H341.42L321.64,67.37l1.21-1.21,19.28,19.27h94.81Z" fill="#061937"/><path d="M436.78,89.5a3.22,3.22,0,1,0-3.21-3.21h0a3.21,3.21,0,0,0,3.21,3.21h0" fill="#56b6b2"/><path d="M447.32,109.47l-1.21-1.22,13.67-13.67h73.56v1.71H460.48Z" fill="#061937"/><path d="M533.18,98.65A3.22,3.22,0,1,0,530,95.44h0a3.22,3.22,0,0,0,3.22,3.21h0" fill="#56b6b2"/><path d="M176.64,212.52h-57.1v-1.71h56.39l40.95-41h31.39v1.71H217.59Z" fill="#061937"/><path d="M248.11,173.93a3.22,3.22,0,1,0-3.22-3.22,3.22,3.22,0,0,0,3.22,3.22h0" fill="#56b6b2"/><path d="M556.66,159.31,540.31,143H432.63l-17-17,1.21-1.21,16.52,16.52H541l16.85,16.85Z" fill="#061937"/><path d="M554.88,160.87a3.22,3.22,0,1,0,0-4.55h0a3.21,3.21,0,0,0,0,4.55" fill="#56b6b2"/><path d="M50.8,151.51H21.13L5.89,136.27l1.21-1.21L21.84,149.8H50.09l57.66-57.66h42.1L194.69,47.3h59.22V49H195.4L150.55,93.86H108.46Z" fill="#061937"/><path d="M253.75,44.94a3.22,3.22,0,1,1-3.21,3.22,3.22,3.22,0,0,1,3.21-3.22h0" fill="#56b6b2"/><path d="M8.88,133.5a3.22,3.22,0,1,0,0,4.55h0a3.21,3.21,0,0,0,0-4.55" fill="#f58320"/><path d="M94.42,136.26H65.7v-1.72h28L119,109.22h25.06v1.71H119.74Z" fill="#061937"/><path d="M143.93,113.3a3.22,3.22,0,1,0-3.22-3.22h0a3.22,3.22,0,0,0,3.22,3.22" fill="#56b6b2"/><path d="M232,76.16H167.89V74.45h63.4l13.28-13.27H281l5.9-5.9,1.21,1.21-6.4,6.4H245.27Z" fill="#061937"/><path d="M289.69,58.27a3.22,3.22,0,1,0-4.55,0,3.22,3.22,0,0,0,4.55,0h0" fill="#56b6b2"/><path d="M195.35,108.49h-20.8l-9.68-9.68,1.21-1.21,9.18,9.18h20.09Z" fill="#061937"/><path d="M167.87,96.05a3.22,3.22,0,1,0,0,4.55h0a3.23,3.23,0,0,0,0-4.55" fill="#56b6b2"/><path d="M502.13,62.54,491.5,51.91H373.6L357.28,35.59H287.52l-26.9,26.9-1.21-1.21,27.41-27.4H358L374.31,50.2h117.9l11.14,11.13Z" fill="#061937"/><path d="M500.35,64.09a3.21,3.21,0,1,0,0-4.54h0a3.22,3.22,0,0,0,0,4.54" fill="#56b6b2"/><path d="M352.74,112.49l-6.44-6.44H287.47v-1.71H347l6.94,6.94Z" fill="#061937"/><path d="M351,114.05a3.22,3.22,0,1,0,0-4.55h0a3.23,3.23,0,0,0,0,4.55h0" fill="#56b6b2"/><path d="M157.39,163.36H107.77L95.71,151.31l1.21-1.21,11.56,11.55h48.2l25.39-25.39h69V138H182.78Z" fill="#061937"/><path d="M250.88,140.33a3.22,3.22,0,1,0-3.21-3.22h0a3.21,3.21,0,0,0,3.21,3.21" fill="#56b6b2"/><rect x="124.8" y="138.98" width="30.3" height="1.71" fill="#061937"/><path d="M154.94,143.05a3.22,3.22,0,1,0-3.22-3.22h0a3.22,3.22,0,0,0,3.22,3.22h0" fill="#56b6b2"/><path d="M348.24,182.41H299.73L289.4,172.09l1.21-1.21,9.82,9.82h47.81Z" fill="#061937"/><path d="M348.08,184.77a3.22,3.22,0,1,0-3.22-3.21,3.22,3.22,0,0,0,3.22,3.21h0" fill="#56b6b2"/><path d="M355.74,51.49h-34l-16.1-16.11,1.21-1.2,15.6,15.6h33.32Z" fill="#061937"/><path d="M355.58,53.85a3.22,3.22,0,1,0-3.22-3.22h0a3.22,3.22,0,0,0,3.21,3.22h0" fill="#56b6b2"/><path d="M388.13,183.16h-20v-1.71h19.26l17-17h29.53v1.71H405.12Z" fill="#061937"/><path d="M433.78,168.53a3.22,3.22,0,1,0-3.22-3.21,3.22,3.22,0,0,0,3.22,3.21h0" fill="#56b6b2"/><path d="M424.57,97.59H381.92L371.46,87.12l1.21-1.21,10,10h41.94Z" fill="#061937"/><path d="M424.41,100a3.22,3.22,0,1,0-3.21-3.22h0a3.22,3.22,0,0,0,3.21,3.22" fill="#56b6b2"/><path d="M423.61,271.61H208.52L160.8,223.89l1.2-1.21,47.23,47.22H422.9l33.23-33.23h112.4l12.2,12.21-1.21,1.21-11.7-11.7h-111Z" fill="#061937"/><path d="M577.74,251.64a3.21,3.21,0,1,0,0-4.55h0a3.22,3.22,0,0,0,0,4.54" fill="#56b6b2"/><path d="M432.1,241.88H332.45L314.28,223.7l1.21-1.21,17.67,17.68h98.23L467.59,204l1.21,1.21Z" fill="#061937"/><path d="M470.35,207a3.22,3.22,0,1,0-4.55,0,3.21,3.21,0,0,0,4.55,0h0" fill="#56b6b2"/><path d="M444.47,207.77H410.39v-1.71h33.37l18.55-18.55h36.47v1.71H463Z" fill="#061937"/><path d="M498.62,191.58a3.22,3.22,0,1,0-3.22-3.21h0a3.22,3.22,0,0,0,3.22,3.21" fill="#56b6b2"/><path d="M490.07,238.26l-1.21-1.21L511,214.87h22.6v1.71H511.75Z" fill="#061937"/><path d="M533.47,218.94a3.22,3.22,0,1,0-3.21-3.21h0a3.2,3.2,0,0,0,3.21,3.21h0" fill="#56b6b2"/><path d="M283.32,258,271,245.63h-87.6v-1.71H271.7l12.83,12.83Z" fill="#061937"/><path d="M281.53,259.51a3.21,3.21,0,1,0,0-4.55h0a3.22,3.22,0,0,0,0,4.54" fill="#56b6b2"/><path d="M379.6,255.37H311.46l-31.73-31.73,1.21-1.21,31.23,31.23H379.6Z" fill="#061937"/><path d="M379.44,257.73a3.22,3.22,0,1,0-3.22-3.21,3.21,3.21,0,0,0,3.22,3.21h0" fill="#56b6b2"/><path d="M401.34,51.52l-1.21-1.21L426.4,24H536.84L556.66,4.22l1.21,1.21L537.54,25.75H427.11Z" fill="#061937"/><path d="M559.43,7.21a3.22,3.22,0,1,0-4.55,0,3.21,3.21,0,0,0,4.55,0" fill="#56b6b2"/></svg>