<svg xmlns="http://www.w3.org/2000/svg" viewBox="0 0 271.74 280.68"><title>Artboard 1</title><path d="M77.79,146a4.16,4.16,0,0,0-3.05-1.23,4,4,0,0,0-3,1.24,4.26,4.26,0,0,0-1.18,3,4.05,4.05,0,0,0,4.19,4.18,4.25,4.25,0,0,0,3-1.17A4,4,0,0,0,79,149,4.19,4.19,0,0,0,77.79,146Z" fill="#5cb8b2"/><path d="M146.57,130.1a4.12,4.12,0,0,0-3-1.23,4,4,0,0,0-3,1.24,4.26,4.26,0,0,0-1.18,3,4.07,4.07,0,0,0,4.19,4.19,4.26,4.26,0,0,0,3-1.18,4,4,0,0,0,1.24-3A4.17,4.17,0,0,0,146.57,130.1Z" fill="#5cb8b2"/><path d="M154.15,123.65a4.18,4.18,0,0,0-3-1.23,4,4,0,0,0-3,1.24,4.22,4.22,0,0,0-1.18,3,4.07,4.07,0,0,0,4.19,4.19,4.24,4.24,0,0,0,3-1.18,4,4,0,0,0,1.25-3A4.17,4.17,0,0,0,154.15,123.65Z" fill="#5cb8b2"/><path d="M44.29,35.23a4.2,4.2,0,0,0-3-1.23,4,4,0,0,0-3,1.24,4.26,4.26,0,0,0-1.18,3,4.07,4.07,0,0,0,4.19,4.19,4.26,4.26,0,0,0,3-1.18,4,4,0,0,0,1.24-3A4.2,4.2,0,0,0,44.29,35.23Z" fill="#5cb8b2"/><path d="M152.74,88.5a4.12,4.12,0,0,0-3-1.23,4,4,0,0,0-3,1.24,4.22,4.22,0,0,0-1.18,3,4.05,4.05,0,0,0,4.19,4.18,4.2,4.2,0,0,0,3-1.18,4,4,0,0,0,1.25-3A4.16,4.16,0,0,0,152.74,88.5Z" fill="#5cb8b2"/><path d="M245.75,88.5a4.15,4.15,0,0,0-3.05-1.23,4,4,0,0,0-3,1.24,4.22,4.22,0,0,0-1.18,3,4,4,0,0,0,4.18,4.18,4.2,4.2,0,0,0,3-1.18,4,4,0,0,0,1.24-3A4.15,4.15,0,0,0,245.75,88.5Z" fill="#5cb8b2"/><path d="M198.59,98.47a4.16,4.16,0,0,0-3.05-1.23,4,4,0,0,0-3,1.24,4.26,4.26,0,0,0-1.18,3,4.07,4.07,0,0,0,4.19,4.19,4.26,4.26,0,0,0,3-1.18,4,4,0,0,0,1.24-3A4.2,4.2,0,0,0,198.59,98.47Z" fill="#5cb8b2"/><path d="M134.87,51.13a4.15,4.15,0,0,0-3.05-1.23,4,4,0,0,0-3,1.24,4.22,4.22,0,0,0-1.18,3,4,4,0,0,0,4.18,4.18,4.2,4.2,0,0,0,3-1.18,4,4,0,0,0,1.24-3A4.15,4.15,0,0,0,134.87,51.13Z" fill="#5cb8b2"/><path d="M73.72,72.67a4.19,4.19,0,0,0-3-1.23,4,4,0,0,0-3,1.24,4.25,4.25,0,0,0-1.17,3,4.05,4.05,0,0,0,4.18,4.19,4.26,4.26,0,0,0,3-1.18,4,4,0,0,0,1.24-3A4.16,4.16,0,0,0,73.72,72.67Z" fill="#5cb8b2"/><path d="M194.35,165.7a4.12,4.12,0,0,0-3-1.23,4,4,0,0,0-3,1.24,4.26,4.26,0,0,0-1.18,3,4.07,4.07,0,0,0,4.19,4.19,4.22,4.22,0,0,0,3-1.18,4,4,0,0,0,1.25-3A4.16,4.16,0,0,0,194.35,165.7Z" fill="#5cb8b2"/><path d="M46.4,84.27a4.16,4.16,0,0,0-3-1.24,4,4,0,0,0-3,1.24,4.25,4.25,0,0,0-1.17,3,4.05,4.05,0,0,0,4.18,4.19,4.26,4.26,0,0,0,3-1.18,4,4,0,0,0,1.24-3A4.12,4.12,0,0,0,46.4,84.27Z" fill="#5cb8b2"/><path d="M51.85,120.56a4.16,4.16,0,0,0-3-1.23,4,4,0,0,0-3,1.24,4.22,4.22,0,0,0-1.18,3,4.07,4.07,0,0,0,4.19,4.19,4.24,4.24,0,0,0,3-1.18,4,4,0,0,0,1.25-3A4.17,4.17,0,0,0,51.85,120.56Z" fill="#5cb8b2"/><path d="M40.05,163.34a4.15,4.15,0,0,0-3-1.23,4,4,0,0,0-3,1.24,4.22,4.22,0,0,0-1.18,3A4.05,4.05,0,0,0,37,170.57a4.2,4.2,0,0,0,3-1.18,4,4,0,0,0,1.24-3A4.15,4.15,0,0,0,40.05,163.34Z" fill="#5cb8b2"/><path d="M127.84,219.75a4.13,4.13,0,0,0-3-1.24,4,4,0,0,0-3,1.25,4.24,4.24,0,0,0-1.18,3A4.07,4.07,0,0,0,124.8,227a4.22,4.22,0,0,0,3-1.18,4,4,0,0,0,1.25-3A4.15,4.15,0,0,0,127.84,219.75Z" fill="#5cb8b2"/><path d="M167.2,221.85a4.16,4.16,0,0,0-3-1.23,4,4,0,0,0-3,1.24,4.26,4.26,0,0,0-1.18,3,4.07,4.07,0,0,0,4.19,4.19,4.26,4.26,0,0,0,3-1.18,4,4,0,0,0,1.24-3A4.16,4.16,0,0,0,167.2,221.85Z" fill="#5cb8b2"/><path d="M139.11,174.17a4.16,4.16,0,0,0-3.05-1.23,4,4,0,0,0-3,1.24,4.24,4.24,0,0,0-1.18,3,4.07,4.07,0,0,0,4.19,4.18,4.22,4.22,0,0,0,3-1.18,4,4,0,0,0,1.24-3A4.19,4.19,0,0,0,139.11,174.17Z" fill="#5cb8b2"/><path d="M165,161.47a4.17,4.17,0,0,0-3.05-1.24,4,4,0,0,0-3,1.25,4.24,4.24,0,0,0-1.18,3,4.07,4.07,0,0,0,4.19,4.19,4.26,4.26,0,0,0,3-1.18,4,4,0,0,0,1.24-3A4.18,4.18,0,0,0,165,161.47Z" fill="#5cb8b2"/><path d="M102.37,170.66a4.15,4.15,0,0,0-3.05-1.23,4,4,0,0,0-3,1.24,4.26,4.26,0,0,0-1.18,3,4.05,4.05,0,0,0,4.19,4.18,4.22,4.22,0,0,0,3-1.18,4,4,0,0,0,1.24-3A4.15,4.15,0,0,0,102.37,170.66Z" fill="#5cb8b2"/><path d="M195.52,66.41a4.17,4.17,0,0,0-3.05-1.24,4,4,0,0,0-3,1.25,4.24,4.24,0,0,0-1.18,3,4.07,4.07,0,0,0,4.19,4.19,4.26,4.26,0,0,0,3-1.18,4,4,0,0,0,1.24-3A4.18,4.18,0,0,0,195.52,66.41Z" fill="#5cb8b2"/><path d="M230,68.44a4.15,4.15,0,0,0-3.05-1.23,4,4,0,0,0-3,1.24,4.25,4.25,0,0,0-1.17,3,4,4,0,0,0,4.18,4.18,4.25,4.25,0,0,0,3-1.17,4,4,0,0,0,1.24-3A4.15,4.15,0,0,0,230,68.44Z" fill="#5cb8b2"/><path d="M62.13,211.71a4.17,4.17,0,0,0-3.05-1.24,4,4,0,0,0-3,1.24,4.26,4.26,0,0,0-1.18,3,4.07,4.07,0,0,0,4.19,4.19,4.26,4.26,0,0,0,3-1.18,4,4,0,0,0,1.24-3A4.16,4.16,0,0,0,62.13,211.71Z" fill="#5cb8b2"/><path d="M105.34,202.24a4.15,4.15,0,0,0-3-1.23,4,4,0,0,0-3,1.24,4.26,4.26,0,0,0-1.18,3,4.05,4.05,0,0,0,4.19,4.18,4.25,4.25,0,0,0,3-1.17,4,4,0,0,0,1.24-3A4.15,4.15,0,0,0,105.34,202.24Z" fill="#5cb8b2"/><path d="M198.33,120.56a4.19,4.19,0,0,0-3.05-1.23,4,4,0,0,0-3,1.24,4.22,4.22,0,0,0-1.18,3,4.05,4.05,0,0,0,4.18,4.19,4.24,4.24,0,0,0,3-1.18,4,4,0,0,0,1.24-3A4.16,4.16,0,0,0,198.33,120.56Z" fill="#5cb8b2"/><path d="M104.19,104.7a4.19,4.19,0,0,0-3-1.23,4,4,0,0,0-3,1.24,4.22,4.22,0,0,0-1.18,3,4.05,4.05,0,0,0,4.18,4.19,4.24,4.24,0,0,0,3-1.18,4,4,0,0,0,1.25-3A4.17,4.17,0,0,0,104.19,104.7Z" fill="#5cb8b2"/><path d="M78,128.64a4.12,4.12,0,0,0-3-1.23,4,4,0,0,0-3,1.24,4.26,4.26,0,0,0-1.18,3,4.07,4.07,0,0,0,4.19,4.19,4.22,4.22,0,0,0,3-1.18,4,4,0,0,0,1.25-3A4.17,4.17,0,0,0,78,128.64Z" fill="#5cb8b2"/><path d="M235.74,190.93a4.2,4.2,0,0,0-3.05-1.23,4,4,0,0,0-3,1.24,4.26,4.26,0,0,0-1.18,3,4.07,4.07,0,0,0,4.19,4.19,4.26,4.26,0,0,0,3-1.18,4,4,0,0,0,1.24-3A4.2,4.2,0,0,0,235.74,190.93Z" fill="#5cb8b2"/><path d="M191.91,202.51a4.16,4.16,0,0,0-3-1.23,4,4,0,0,0-3,1.24,4.26,4.26,0,0,0-1.18,3,4.07,4.07,0,0,0,4.19,4.19,4.26,4.26,0,0,0,3-1.18,4,4,0,0,0,1.24-3A4.2,4.2,0,0,0,191.91,202.51Z" fill="#5cb8b2"/><path d="M159.44,186.17a4.12,4.12,0,0,0-1.23,3,4,4,0,0,0,1.24,3,4.26,4.26,0,0,0,3,1.18,4.05,4.05,0,0,0,4.18-4.19,4.21,4.21,0,0,0-1.17-3,4,4,0,0,0-3-1.25A4.16,4.16,0,0,0,159.44,186.17Z" fill="#5cb8b2"/><path d="M47.05,228.9a4.17,4.17,0,0,0-1.24,3,4,4,0,0,0,1.24,3,4.26,4.26,0,0,0,3,1.18A4.07,4.07,0,0,0,54.28,232a4.26,4.26,0,0,0-1.18-3,4,4,0,0,0-3-1.24A4.16,4.16,0,0,0,47.05,228.9Z" fill="#5cb8b2"/><path d="M115.28,135.48a4.12,4.12,0,0,0-1.23,3,4,4,0,0,0,1.24,3,4.22,4.22,0,0,0,3,1.18,4.05,4.05,0,0,0,4.18-4.19,4.2,4.2,0,0,0-1.18-3,4,4,0,0,0-3-1.25A4.16,4.16,0,0,0,115.28,135.48Z" fill="#5cb8b2"/><path d="M126.85,132.27a4.12,4.12,0,0,0-1.23,3,4,4,0,0,0,1.24,3,4.26,4.26,0,0,0,3,1.18,4.07,4.07,0,0,0,4.19-4.19,4.22,4.22,0,0,0-1.18-3,4,4,0,0,0-3-1.25A4.17,4.17,0,0,0,126.85,132.27Z" fill="#5cb8b2"/><path d="M110.28,123.92a4.19,4.19,0,0,0-1.23,3,4,4,0,0,0,1.24,3,4.26,4.26,0,0,0,3,1.18,4.07,4.07,0,0,0,4.19-4.19,4.26,4.26,0,0,0-1.18-3,4,4,0,0,0-3-1.24A4.16,4.16,0,0,0,110.28,123.92Z" fill="#5cb8b2"/><path d="M95.1,128.64a4.2,4.2,0,0,0-1.23,3.05,4,4,0,0,0,1.24,3,4.26,4.26,0,0,0,3,1.18,4.07,4.07,0,0,0,4.19-4.19,4.26,4.26,0,0,0-1.18-3,4,4,0,0,0-3-1.24A4.2,4.2,0,0,0,95.1,128.64Z" fill="#5cb8b2"/><path d="M89,116.55a4.17,4.17,0,0,0-1.24,3,4,4,0,0,0,1.25,3,4.24,4.24,0,0,0,3,1.18,4.07,4.07,0,0,0,4.19-4.19,4.26,4.26,0,0,0-1.18-3,4,4,0,0,0-3-1.24A4.14,4.14,0,0,0,89,116.55Z" fill="#5cb8b2"/><path d="M100.6,140.73a4.16,4.16,0,0,0-1.23,3.05,4,4,0,0,0,1.24,3,4.26,4.26,0,0,0,3,1.18,4.07,4.07,0,0,0,4.19-4.19,4.26,4.26,0,0,0-1.18-3,4,4,0,0,0-3-1.24A4.19,4.19,0,0,0,100.6,140.73Z" fill="#5cb8b2"/><path d="M89,151.43a4.17,4.17,0,0,0-1.24,3,4,4,0,0,0,1.25,3,4.24,4.24,0,0,0,3,1.18,4.07,4.07,0,0,0,4.19-4.19,4.26,4.26,0,0,0-1.18-3,4,4,0,0,0-3-1.24A4.18,4.18,0,0,0,89,151.43Z" fill="#5cb8b2"/><path d="M85.26,138.32a4.15,4.15,0,0,0-1.24,3,4,4,0,0,0,1.24,3,4.22,4.22,0,0,0,3,1.18,4.07,4.07,0,0,0,4.19-4.19,4.24,4.24,0,0,0-1.18-3,4,4,0,0,0-3-1.25A4.13,4.13,0,0,0,85.26,138.32Z" fill="#5cb8b2"/><path d="M98.76,158.72a4.16,4.16,0,0,0-1.23,3.05,4,4,0,0,0,1.24,3,4.26,4.26,0,0,0,3,1.18,4.07,4.07,0,0,0,4.19-4.19,4.26,4.26,0,0,0-1.18-3,4,4,0,0,0-3-1.24A4.16,4.16,0,0,0,98.76,158.72Z" fill="#5cb8b2"/><path d="M109.07,108.22a4.16,4.16,0,0,0-1.23,3,4,4,0,0,0,1.24,3,4.24,4.24,0,0,0,3,1.18,4.07,4.07,0,0,0,4.18-4.19,4.22,4.22,0,0,0-1.18-3,4,4,0,0,0-3-1.24A4.19,4.19,0,0,0,109.07,108.22Z" fill="#5cb8b2"/><path d="M132.14,120.56a4.16,4.16,0,0,0-1.23,3,4,4,0,0,0,1.24,3,4.26,4.26,0,0,0,3,1.18,4.07,4.07,0,0,0,4.19-4.19,4.26,4.26,0,0,0-1.18-3,4,4,0,0,0-3-1.24A4.2,4.2,0,0,0,132.14,120.56Z" fill="#5cb8b2"/><path d="M122.62,115a4.15,4.15,0,0,0-1.23,3,4,4,0,0,0,1.24,3,4.26,4.26,0,0,0,3,1.18,4.07,4.07,0,0,0,4.18-4.19,4.22,4.22,0,0,0-1.18-3,4,4,0,0,0-3-1.24A4.15,4.15,0,0,0,122.62,115Z" fill="#5cb8b2"/><path d="M100.31,27.44a4.12,4.12,0,0,0-1.23,3,4,4,0,0,0,1.24,3,4.22,4.22,0,0,0,3,1.18,4.05,4.05,0,0,0,4.18-4.19,4.23,4.23,0,0,0-1.17-3,4,4,0,0,0-3-1.25A4.16,4.16,0,0,0,100.31,27.44Z" fill="#5cb8b2"/><path d="M261.82,125.87a4.15,4.15,0,0,0-1.23,3,4,4,0,0,0,1.24,3,4.25,4.25,0,0,0,3,1.17,4.05,4.05,0,0,0,4.19-4.18,4.26,4.26,0,0,0-1.18-3,4,4,0,0,0-3-1.24A4.16,4.16,0,0,0,261.82,125.87Z" fill="#5cb8b2"/><path d="M14.48,138.32a4.15,4.15,0,0,0-1.24,3,4,4,0,0,0,1.25,3,4.2,4.2,0,0,0,3,1.18,4.07,4.07,0,0,0,4.19-4.19,4.24,4.24,0,0,0-1.18-3,4,4,0,0,0-3-1.25A4.15,4.15,0,0,0,14.48,138.32Z" fill="#5cb8b2"/><path d="M84.49,199.47a4.16,4.16,0,0,0-1.24,3.05,4,4,0,0,0,1.24,3,4.25,4.25,0,0,0,3,1.17,4.05,4.05,0,0,0,4.19-4.18,4.26,4.26,0,0,0-1.18-3,4,4,0,0,0-3-1.24A4.12,4.12,0,0,0,84.49,199.47Z" fill="#5cb8b2"/><path d="M150.91,4.43a4.17,4.17,0,0,0-1.24,3.05,4,4,0,0,0,1.24,3,4.26,4.26,0,0,0,3,1.18,4.07,4.07,0,0,0,4.19-4.19,4.26,4.26,0,0,0-1.18-3,4,4,0,0,0-3-1.24A4.16,4.16,0,0,0,150.91,4.43Z" fill="#5cb8b2"/><path d="M96.08,226.79a4.16,4.16,0,0,0-1.24,3.05,4,4,0,0,0,1.25,3,4.2,4.2,0,0,0,3,1.18,4.05,4.05,0,0,0,4.19-4.18,4.24,4.24,0,0,0-1.18-3,4,4,0,0,0-3-1.24A4.14,4.14,0,0,0,96.08,226.79Z" fill="#5cb8b2"/><path d="M139.5,260.24a4.15,4.15,0,0,0-1.23,3.05,4,4,0,0,0,1.24,3,4.22,4.22,0,0,0,3,1.18,4,4,0,0,0,4.18-4.18,4.2,4.2,0,0,0-1.18-3,4,4,0,0,0-3-1.24A4.15,4.15,0,0,0,139.5,260.24Z" fill="#5cb8b2"/><path d="M175.15,233.14a4.12,4.12,0,0,0-1.23,3,4,4,0,0,0,1.24,3,4.22,4.22,0,0,0,3,1.18,4.05,4.05,0,0,0,4.18-4.19,4.2,4.2,0,0,0-1.18-3,4,4,0,0,0-3-1.25A4.16,4.16,0,0,0,175.15,233.14Z" fill="#5cb8b2"/><path d="M231.56,145.35a4.12,4.12,0,0,0-1.23,3,4,4,0,0,0,1.24,3,4.26,4.26,0,0,0,3,1.18,4.07,4.07,0,0,0,4.18-4.19,4.22,4.22,0,0,0-1.18-3,4,4,0,0,0-3-1.24A4.16,4.16,0,0,0,231.56,145.35Z" fill="#5cb8b2"/><path d="M233.66,106a4.19,4.19,0,0,0-1.23,3.05,4,4,0,0,0,1.24,3,4.26,4.26,0,0,0,3,1.18A4.07,4.07,0,0,0,240.9,109a4.26,4.26,0,0,0-1.18-3,4,4,0,0,0-3-1.24A4.16,4.16,0,0,0,233.66,106Z" fill="#5cb8b2"/><path d="M163.67,128.64a4.2,4.2,0,0,0-1.23,3.05,4,4,0,0,0,1.24,3,4.26,4.26,0,0,0,3,1.18,4.07,4.07,0,0,0,4.19-4.19,4.26,4.26,0,0,0-1.18-3,4,4,0,0,0-3-1.24A4.2,4.2,0,0,0,163.67,128.64Z" fill="#5cb8b2"/><path d="M151,110.81a4.13,4.13,0,0,0-1.24,3,4,4,0,0,0,1.24,3,4.22,4.22,0,0,0,3,1.18,4.07,4.07,0,0,0,4.19-4.19,4.24,4.24,0,0,0-1.18-3,4,4,0,0,0-3-1.25A4.13,4.13,0,0,0,151,110.81Z" fill="#5cb8b2"/><path d="M140.57,106a4.19,4.19,0,0,0-1.23,3.05,4,4,0,0,0,1.24,3,4.26,4.26,0,0,0,3,1.18,4.07,4.07,0,0,0,4.19-4.19,4.26,4.26,0,0,0-1.18-3,4,4,0,0,0-3-1.24A4.16,4.16,0,0,0,140.57,106Z" fill="#5cb8b2"/><path d="M144.81,37.76a4.16,4.16,0,0,0-1.24,3.05,4,4,0,0,0,1.25,3,4.2,4.2,0,0,0,3,1.18A4.05,4.05,0,0,0,152,40.81a4.24,4.24,0,0,0-1.18-3,4,4,0,0,0-3-1.24A4.14,4.14,0,0,0,144.81,37.76Z" fill="#5cb8b2"/><path d="M91.84,256a4.12,4.12,0,0,0-1.23,3,4,4,0,0,0,1.24,3,4.26,4.26,0,0,0,3,1.18,4.07,4.07,0,0,0,4.19-4.19,4.26,4.26,0,0,0-1.18-3,4,4,0,0,0-3-1.24A4.17,4.17,0,0,0,91.84,256Z" fill="#5cb8b2"/><path d="M98.76,51.13a4.15,4.15,0,0,0-1.23,3,4,4,0,0,0,1.24,3,4.22,4.22,0,0,0,3,1.18A4.05,4.05,0,0,0,106,54.18a4.24,4.24,0,0,0-1.18-3,4,4,0,0,0-3-1.24A4.16,4.16,0,0,0,98.76,51.13Z" fill="#5cb8b2"/><path d="M120.76,97.52a4.16,4.16,0,0,0-1.23,3,4,4,0,0,0,1.24,3,4.26,4.26,0,0,0,3,1.18,4.05,4.05,0,0,0,4.18-4.19,4.22,4.22,0,0,0-1.18-3,4,4,0,0,0-3-1.24A4.19,4.19,0,0,0,120.76,97.52Z" fill="#5cb8b2"/><path d="M80.25,43.23A4.15,4.15,0,0,0,79,46.28a4,4,0,0,0,1.24,3,4.25,4.25,0,0,0,3,1.17,4.05,4.05,0,0,0,4.19-4.18,4.26,4.26,0,0,0-1.18-3,4,4,0,0,0-3-1.24A4.16,4.16,0,0,0,80.25,43.23Z" fill="#5cb8b2"/><path d="M261.43,174.89a4.2,4.2,0,0,0-1.23,3.05,4,4,0,0,0,1.24,3,4.26,4.26,0,0,0,3,1.18,4.07,4.07,0,0,0,4.19-4.19,4.26,4.26,0,0,0-1.18-3,4,4,0,0,0-3-1.24A4.2,4.2,0,0,0,261.43,174.89Z" fill="#5cb8b2"/><path d="M223.52,211.06a4.17,4.17,0,0,0-1.24,3.05,4,4,0,0,0,1.25,3,4.24,4.24,0,0,0,3,1.18,4.07,4.07,0,0,0,4.19-4.19,4.26,4.26,0,0,0-1.18-3,4,4,0,0,0-3-1.24A4.18,4.18,0,0,0,223.52,211.06Z" fill="#5cb8b2"/><path d="M214.05,167.85a4.15,4.15,0,0,0-1.23,3.05,4,4,0,0,0,1.24,3,4.26,4.26,0,0,0,3,1.18,4.07,4.07,0,0,0,4.19-4.19,4.26,4.26,0,0,0-1.18-3,4,4,0,0,0-3-1.24A4.16,4.16,0,0,0,214.05,167.85Z" fill="#5cb8b2"/><path d="M132.38,74.86a4.15,4.15,0,0,0-1.24,3,4,4,0,0,0,1.25,3,4.18,4.18,0,0,0,3,1.18,4.07,4.07,0,0,0,4.19-4.19,4.24,4.24,0,0,0-1.18-3,4,4,0,0,0-3-1.25A4.13,4.13,0,0,0,132.38,74.86Z" fill="#5cb8b2"/><path d="M175.66,40.15a4.12,4.12,0,0,0-3-1.23,4,4,0,0,0-3,1.24,4.26,4.26,0,0,0-1.18,3,4.05,4.05,0,0,0,4.19,4.18,4.22,4.22,0,0,0,3-1.18,4,4,0,0,0,1.24-3A4.16,4.16,0,0,0,175.66,40.15Z" fill="#ff8200"/><path d="M251,221.85a4.15,4.15,0,0,0-3-1.23,4,4,0,0,0-3,1.24,4.25,4.25,0,0,0-1.17,3,4.05,4.05,0,0,0,4.18,4.19,4.26,4.26,0,0,0,3-1.18,4,4,0,0,0,1.24-3A4.16,4.16,0,0,0,251,221.85Z" fill="#ff8200"/><path d="M200.37,139.09a4.16,4.16,0,0,0-3-1.23,4,4,0,0,0-3,1.24,4.22,4.22,0,0,0-1.18,3,4.07,4.07,0,0,0,4.19,4.19,4.24,4.24,0,0,0,3-1.18,4,4,0,0,0,1.25-3A4.17,4.17,0,0,0,200.37,139.09Z" fill="#ff8200"/><path d="M226.43,33.53a4.16,4.16,0,0,0-3.05-1.24,4,4,0,0,0-3,1.24,4.25,4.25,0,0,0-1.17,3,4.05,4.05,0,0,0,4.18,4.19,4.26,4.26,0,0,0,3-1.18,4,4,0,0,0,1.24-3A4.12,4.12,0,0,0,226.43,33.53Z" fill="#ff8200"/><path d="M85.49,180.85a4.13,4.13,0,0,0-3-1.24,4,4,0,0,0-3,1.25,4.2,4.2,0,0,0-1.18,3,4.07,4.07,0,0,0,4.19,4.19,4.24,4.24,0,0,0,3-1.18,4,4,0,0,0,1.25-3A4.15,4.15,0,0,0,85.49,180.85Z" fill="#ff8200"/><path d="M116.29,149.58a4.16,4.16,0,0,0-3.05-1.23,4,4,0,0,0-3,1.24,4.26,4.26,0,0,0-1.18,3,4.05,4.05,0,0,0,4.19,4.18,4.22,4.22,0,0,0,3-1.18,4,4,0,0,0,1.24-3A4.19,4.19,0,0,0,116.29,149.58Z" fill="#ff8200"/><path d="M29,194.23A4.16,4.16,0,0,0,25.9,193a4,4,0,0,0-3,1.24,4.26,4.26,0,0,0-1.18,3,4.07,4.07,0,0,0,4.19,4.19,4.26,4.26,0,0,0,3-1.18,4,4,0,0,0,1.24-3A4.19,4.19,0,0,0,29,194.23Z" fill="#ff8200"/><path d="M52,97.52a4.16,4.16,0,0,0-1.23,3,4,4,0,0,0,1.24,3,4.26,4.26,0,0,0,3,1.18,4.07,4.07,0,0,0,4.19-4.19,4.26,4.26,0,0,0-1.18-3,4,4,0,0,0-3-1.24A4.2,4.2,0,0,0,52,97.52Z" fill="#ff8200"/><path d="M233.66,22.24a4.19,4.19,0,0,0-1.23,3.05,4,4,0,0,0,1.24,3,4.25,4.25,0,0,0,3,1.17,4.05,4.05,0,0,0,4.19-4.18,4.26,4.26,0,0,0-1.18-3,4,4,0,0,0-3-1.24A4.16,4.16,0,0,0,233.66,22.24Z" fill="#ff8200"/><path d="M163.2,62.17a4.16,4.16,0,0,0-1.23,3,4,4,0,0,0,1.24,3,4.24,4.24,0,0,0,3,1.18,4.07,4.07,0,0,0,4.18-4.19,4.22,4.22,0,0,0-1.18-3,4,4,0,0,0-3-1.24A4.19,4.19,0,0,0,163.2,62.17Z" fill="#ff8200"/><path d="M45.34,46.76a4.16,4.16,0,0,0-1.24,3.05,4,4,0,0,0,1.25,3,4.23,4.23,0,0,0,3,1.17,4.05,4.05,0,0,0,4.19-4.18,4.26,4.26,0,0,0-1.18-3,4,4,0,0,0-3-1.24A4.14,4.14,0,0,0,45.34,46.76Z" fill="#ff8200"/><path d="M192.66,187.7a4.12,4.12,0,0,0-1.23,3,4,4,0,0,0,1.24,3,4.26,4.26,0,0,0,3,1.18,4.05,4.05,0,0,0,4.18-4.19,4.18,4.18,0,0,0-1.18-3,4,4,0,0,0-3-1.25A4.16,4.16,0,0,0,192.66,187.7Z" fill="#ff8200"/><path d="M60.36,270.24a4.15,4.15,0,0,0-1.23,3.05,4,4,0,0,0,1.24,3,4.26,4.26,0,0,0,3,1.18,4.07,4.07,0,0,0,4.18-4.19,4.22,4.22,0,0,0-1.18-3,4,4,0,0,0-3-1.24A4.15,4.15,0,0,0,60.36,270.24Z" fill="#ff8200"/><path d="M122.62,164.19a4.15,4.15,0,0,0-1.23,3.05,4,4,0,0,0,1.24,3,4.26,4.26,0,0,0,3,1.18,4.07,4.07,0,0,0,4.18-4.19,4.22,4.22,0,0,0-1.18-3,4,4,0,0,0-3-1.24A4.15,4.15,0,0,0,122.62,164.19Z" fill="#5cb8b2"/><path d="M116.53,180.85a4.15,4.15,0,0,0-1.24,3,4,4,0,0,0,1.25,3,4.18,4.18,0,0,0,3,1.18,4.05,4.05,0,0,0,4.19-4.19,4.24,4.24,0,0,0-1.18-3,4,4,0,0,0-3-1.25A4.15,4.15,0,0,0,116.53,180.85Z" fill="#5cb8b2"/><path d="M131.84,155.67a4.14,4.14,0,0,0-1.23,3,4,4,0,0,0,1.24,3,4.22,4.22,0,0,0,3,1.18,4.05,4.05,0,0,0,4.19-4.19,4.24,4.24,0,0,0-1.18-3,4,4,0,0,0-3-1.25A4.17,4.17,0,0,0,131.84,155.67Z" fill="#5cb8b2"/><path d="M122.62,149.58a4.15,4.15,0,0,0-1.23,3,4,4,0,0,0,1.24,3,4.25,4.25,0,0,0,3,1.17,4.05,4.05,0,0,0,4.18-4.18,4.22,4.22,0,0,0-1.18-3,4,4,0,0,0-3-1.24A4.15,4.15,0,0,0,122.62,149.58Z" fill="#5cb8b2"/><path d="M110.28,165.7a4.19,4.19,0,0,0-1.23,3.05,4,4,0,0,0,1.24,3,4.26,4.26,0,0,0,3,1.18,4.07,4.07,0,0,0,4.19-4.19,4.26,4.26,0,0,0-1.18-3,4,4,0,0,0-3-1.24A4.16,4.16,0,0,0,110.28,165.7Z" fill="#5cb8b2"/><path d="M137.34,143.4a4.13,4.13,0,0,0-1.24,3,4,4,0,0,0,1.25,3,4.24,4.24,0,0,0,3,1.18,4.07,4.07,0,0,0,4.19-4.19,4.26,4.26,0,0,0-1.18-3,4,4,0,0,0-3-1.24A4.15,4.15,0,0,0,137.34,143.4Z" fill="#5cb8b2"/><path d="M150.91,148.8a4.16,4.16,0,0,0-1.24,3,4,4,0,0,0,1.24,3,4.22,4.22,0,0,0,3,1.18,4.05,4.05,0,0,0,4.19-4.18,4.24,4.24,0,0,0-1.18-3,4,4,0,0,0-3-1.24A4.12,4.12,0,0,0,150.91,148.8Z" fill="#5cb8b2"/><path d="M152.12,136.5a4.19,4.19,0,0,0-1.23,3.05,4,4,0,0,0,1.24,3,4.25,4.25,0,0,0,3,1.17,4.05,4.05,0,0,0,4.19-4.18,4.26,4.26,0,0,0-1.18-3,4,4,0,0,0-3-1.24A4.16,4.16,0,0,0,152.12,136.5Z" fill="#5cb8b2"/><path d="M143.92,159.1a4.17,4.17,0,0,0-1.24,3.05,4,4,0,0,0,1.25,3,4.24,4.24,0,0,0,3,1.18,4.07,4.07,0,0,0,4.19-4.19,4.26,4.26,0,0,0-1.18-3,4,4,0,0,0-3-1.24A4.18,4.18,0,0,0,143.92,159.1Z" fill="#5cb8b2"/><path d="M72.55,159.9a4.19,4.19,0,0,0-1.23,3,4,4,0,0,0,1.24,3,4.26,4.26,0,0,0,3,1.18A4.07,4.07,0,0,0,79.79,163a4.26,4.26,0,0,0-1.18-3,4,4,0,0,0-3-1.24A4.16,4.16,0,0,0,72.55,159.9Z" fill="#5cb8b2"/><path d="M3.92,180.85a4.14,4.14,0,0,0-1.23,3,4,4,0,0,0,1.24,3,4.22,4.22,0,0,0,3,1.18,4.05,4.05,0,0,0,4.19-4.19,4.24,4.24,0,0,0-1.18-3,4,4,0,0,0-3-1.25A4.17,4.17,0,0,0,3.92,180.85Z" fill="#5cb8b2"/><path d="M202.75,37.45a4.17,4.17,0,0,0-1.24,3,4,4,0,0,0,1.24,3,4.26,4.26,0,0,0,3,1.18A4.07,4.07,0,0,0,210,40.5a4.26,4.26,0,0,0-1.18-3,4,4,0,0,0-3-1.24A4.16,4.16,0,0,0,202.75,37.45Z" fill="#5cb8b2"/><path d="M214.32,81.28a4.2,4.2,0,0,0-1.23,3,4,4,0,0,0,1.24,3,4.26,4.26,0,0,0,3,1.18,4.07,4.07,0,0,0,4.19-4.19,4.26,4.26,0,0,0-1.18-3,4,4,0,0,0-3-1.24A4.2,4.2,0,0,0,214.32,81.28Z" fill="#5cb8b2"/></svg>