<svg id="fea38733-3530-402f-8834-53fb4f25986a" data-name="Layer 1" xmlns="http://www.w3.org/2000/svg" viewBox="0 0 556 298"><g id="b59486df-83af-4a4c-aefc-dbbf8f6ce359" data-name="Group 689"><path id="bf351fa7-bc82-4629-8156-f4c4178df887" data-name="Path 3915" d="M108.1,54.47a9.48,9.48,0,0,0-6.93-2.81,9.12,9.12,0,0,0-6.85,2.83,9.65,9.65,0,0,0-2.68,6.91,9.24,9.24,0,0,0,9,9.53h.58a9.65,9.65,0,0,0,6.91-2.68,9.12,9.12,0,0,0,2.83-6.85,9.48,9.48,0,0,0-2.81-6.93" fill="#ff8300"/><path id="a2111d23-4d0a-4710-b40e-cd2f3e0f7b37" data-name="Path 3924" d="M460.43,268.76a9.41,9.41,0,0,0-6.93-2.8,9.11,9.11,0,0,0-6.85,2.82A9.72,9.72,0,0,0,444,275.7a9.24,9.24,0,0,0,8.95,9.52h.58a9.64,9.64,0,0,0,6.91-2.68,9.11,9.11,0,0,0,2.83-6.84,9.53,9.53,0,0,0-2.8-6.94" fill="#57b6b2"/><path id="b808b947-b813-4887-8bcb-b97a7b86614a" data-name="Path 3925" d="M486.21,223.16a9.41,9.41,0,0,0-6.93-2.8,9.11,9.11,0,0,0-6.85,2.82,9.71,9.71,0,0,0-2.68,6.91,9.24,9.24,0,0,0,9,9.53h.57a9.64,9.64,0,0,0,6.91-2.68,9.12,9.12,0,0,0,2.83-6.85,9.52,9.52,0,0,0-2.8-6.93" fill="#57b6b2"/><path id="a35d8532-157a-44b7-b99c-2dfa6b276238" data-name="Path 3926" d="M290.74,233a9.48,9.48,0,0,0-6.93-2.81A9.12,9.12,0,0,0,277,233a9.65,9.65,0,0,0-2.68,6.91,9.25,9.25,0,0,0,9,9.53h.58a9.66,9.66,0,0,0,6.91-2.69,9.08,9.08,0,0,0,2.83-6.84,9.48,9.48,0,0,0-2.81-6.93" fill="#57b6b2"/><path id="a1735ebf-3f5f-40b1-9a0d-c5570e474c7c" data-name="Path 3927" d="M281.56,114.47a9.5,9.5,0,0,0-6.94-2.81,9.11,9.11,0,0,0-6.84,2.83,9.65,9.65,0,0,0-2.68,6.91,9.24,9.24,0,0,0,8.95,9.53h.57a9.68,9.68,0,0,0,6.92-2.68,9.11,9.11,0,0,0,2.82-6.85,9.43,9.43,0,0,0-2.8-6.93" fill="#57b6b2"/><path id="b1193633-f498-42dc-922f-c7fb9c850ea7" data-name="Path 3928" d="M320.74,39.08a9.48,9.48,0,0,0-6.93-2.81A9.16,9.16,0,0,0,307,39.1,9.67,9.67,0,0,0,304.28,46a9.24,9.24,0,0,0,9,9.53h.58a9.65,9.65,0,0,0,6.91-2.68A9.12,9.12,0,0,0,323.55,46a9.49,9.49,0,0,0-2.81-6.93" fill="#57b6b2"/><path id="ba96a02f-9a5e-4809-8607-61a5a1c520e3" data-name="Path 3929" d="M174.25,137.16a9.46,9.46,0,0,0-6.93-2.81,9.16,9.16,0,0,0-6.85,2.83,9.71,9.71,0,0,0-2.68,6.91,9.24,9.24,0,0,0,9,9.53h.58a9.64,9.64,0,0,0,6.91-2.68,9.12,9.12,0,0,0,2.83-6.85,9.49,9.49,0,0,0-2.81-6.93" fill="#57b6b2"/><path id="a948ee69-a016-434f-a18e-c53dd6f0d9da" data-name="Path 3932" d="M28.16,78.47a9.42,9.42,0,0,0-6.93-2.81,9.12,9.12,0,0,0-6.85,2.83A9.68,9.68,0,0,0,11.7,85.4a9.24,9.24,0,0,0,9,9.52,5.61,5.61,0,0,0,.58,0,9.64,9.64,0,0,0,6.91-2.68A9.1,9.1,0,0,0,31,85.4a9.46,9.46,0,0,0-2.81-6.93" fill="#57b6b2"/><path id="a47d976f-bc83-442f-8b80-66ebee7581b3" data-name="Path 3933" d="M204.62,259.11a9.43,9.43,0,0,0-6.93-2.8,9.12,9.12,0,0,0-6.85,2.83,9.64,9.64,0,0,0-2.68,6.91,9.24,9.24,0,0,0,9,9.52h.58a9.65,9.65,0,0,0,6.91-2.68,9.1,9.1,0,0,0,2.82-6.84,9.45,9.45,0,0,0-2.8-6.94" fill="#57b6b2"/><path id="bac3ac6e-7c1f-4f92-99d2-47bd9198947b" data-name="Path 3941" d="M127.34,239.4a9.42,9.42,0,0,0-6.93-2.81,9.12,9.12,0,0,0-6.85,2.83,9.68,9.68,0,0,0-2.68,6.91,9.26,9.26,0,0,0,9,9.53h.57a9.65,9.65,0,0,0,6.91-2.69,9.1,9.1,0,0,0,2.83-6.84,9.47,9.47,0,0,0-2.8-6.93" fill="#57b6b2"/><path id="bc06397b-e1b4-49a1-886d-3a652abb6411" data-name="Path 3946" d="M167.27,64.21a9.46,9.46,0,0,0-6.94-2.81,9.1,9.1,0,0,0-6.84,2.83,9.65,9.65,0,0,0-2.68,6.91,9.25,9.25,0,0,0,8.95,9.53h.57A9.69,9.69,0,0,0,167.25,78a9.11,9.11,0,0,0,2.82-6.84,9.47,9.47,0,0,0-2.8-6.93" fill="#57b6b2"/><path id="b69adc64-e6aa-4fdf-84a7-0efcb32c84b0" data-name="Path 3947" d="M245.63,68.83A9.48,9.48,0,0,0,238.7,66a9.12,9.12,0,0,0-6.85,2.83,9.64,9.64,0,0,0-2.68,6.91,9.24,9.24,0,0,0,9,9.52h.58a9.61,9.61,0,0,0,6.91-2.68,9.1,9.1,0,0,0,2.82-6.84,9.45,9.45,0,0,0-2.8-6.94" fill="#57b6b2"/><path id="a80a5186-680e-480b-b5c8-9b4009b3f4d3" data-name="Path 3948" d="M245.6,16.4a9.45,9.45,0,0,0-6.93-2.81,9.12,9.12,0,0,0-6.85,2.83,9.64,9.64,0,0,0-2.68,6.91,9.25,9.25,0,0,0,9,9.53h.58a9.66,9.66,0,0,0,6.91-2.69,9.09,9.09,0,0,0,2.82-6.84,9.43,9.43,0,0,0-2.8-6.93" fill="#ff8300"/><path id="b37afd18-9d05-42a5-bcfb-df866b1c6d95" data-name="Path 3949" d="M415.26,16.89a9.45,9.45,0,0,0-6.94-2.8,9.09,9.09,0,0,0-6.84,2.82,9.68,9.68,0,0,0-2.68,6.92,9.23,9.23,0,0,0,8.94,9.52h.58a9.64,9.64,0,0,0,6.91-2.68,9.11,9.11,0,0,0,2.83-6.84,9.45,9.45,0,0,0-2.8-6.94" fill="#57b6b2"/><path id="a8a51be0-39bc-43fc-a890-b421e449eb06" data-name="Path 3950" d="M523.47,16.77A9.44,9.44,0,0,0,516.54,14a9.12,9.12,0,0,0-6.85,2.83A9.64,9.64,0,0,0,507,23.7a9.23,9.23,0,0,0,9,9.52h.58a9.61,9.61,0,0,0,6.91-2.68,9.1,9.1,0,0,0,2.83-6.84,9.49,9.49,0,0,0-2.8-6.93" fill="#ff8300"/><path id="f0ad5e6d-5897-4a8d-87c0-836658194da9" data-name="Path 3951" d="M59,248.58A9.49,9.49,0,0,0,52,245.77a9.12,9.12,0,0,0-6.85,2.83,9.65,9.65,0,0,0-2.68,6.91A9.25,9.25,0,0,0,51.44,265H52a9.71,9.71,0,0,0,6.91-2.68,9.11,9.11,0,0,0,2.82-6.85,9.44,9.44,0,0,0-2.8-6.93" fill="#ff8300"/><path id="babb9a2b-4403-4d17-854a-5ae8161e3662" data-name="Path 3955" d="M173.67,187.42a9.43,9.43,0,0,0-6.93-2.8,9.11,9.11,0,0,0-6.85,2.82,9.68,9.68,0,0,0-2.68,6.92,9.24,9.24,0,0,0,8.95,9.52h.58a9.64,9.64,0,0,0,6.91-2.68,9.11,9.11,0,0,0,2.83-6.84,9.53,9.53,0,0,0-2.8-6.94" fill="#57b6b2"/><path id="bb1d38db-e53c-487b-9e40-ab5959d5b8ed" data-name="Path 3956" d="M381.61,121.3l76.66-83.14,77.23,102.4" fill="none" stroke="#001738" stroke-miterlimit="10" stroke-width="3.77"/><path id="fcfc6124-7478-4da8-adb6-fc6ecd087e14" data-name="Path 3957" d="M388.44,114.47a9.46,9.46,0,0,0-6.93-2.81,9.12,9.12,0,0,0-6.85,2.83A9.7,9.7,0,0,0,372,121.4a9.25,9.25,0,0,0,9,9.53h.57a9.64,9.64,0,0,0,6.91-2.68,9.12,9.12,0,0,0,2.83-6.85,9.48,9.48,0,0,0-2.81-6.93" fill="#57b6b2"/><path id="a1e2e4c4-c9db-460c-961b-b4e652aec651" data-name="Path 3958" d="M542.33,133.73a9.45,9.45,0,0,0-6.93-2.8,9.12,9.12,0,0,0-6.85,2.83,9.68,9.68,0,0,0-2.68,6.91,9.24,9.24,0,0,0,9,9.52h.57a9.64,9.64,0,0,0,6.91-2.68,9.1,9.1,0,0,0,2.83-6.84,9.46,9.46,0,0,0-2.81-6.94" fill="#57b6b2"/><path id="baad5d50-2e12-49e1-9d29-5fc4b314272d" data-name="Path 3959" d="M465.1,31.33a9.41,9.41,0,0,0-6.93-2.8,9.11,9.11,0,0,0-6.85,2.82,9.71,9.71,0,0,0-2.68,6.91,9.24,9.24,0,0,0,9,9.53h.57a9.64,9.64,0,0,0,6.91-2.68,9.12,9.12,0,0,0,2.83-6.85,9.49,9.49,0,0,0-2.81-6.93" fill="#57b6b2"/><path id="e4577528-65b0-47f6-88e8-4586dca2616e" data-name="Path 3960" d="M21.34,158.19,31,212.63l70.63-40.58Z" fill="none" stroke="#001738" stroke-miterlimit="10" stroke-width="3.77"/><path id="a996ed80-4a60-4690-ba6a-3561ba1e900e" data-name="Path 3961" d="M28.16,151.36a9.41,9.41,0,0,0-6.93-2.8,9.11,9.11,0,0,0-6.85,2.82,9.72,9.72,0,0,0-2.68,6.92,9.25,9.25,0,0,0,9,9.52,5.42,5.42,0,0,0,.57,0,9.64,9.64,0,0,0,6.91-2.68A9.11,9.11,0,0,0,31,158.3a9.5,9.5,0,0,0-2.81-6.94" fill="#ff8300"/><path id="fe1e07d2-ed40-4703-a272-dd26a722231a" data-name="Path 3962" d="M108.43,165.23a9.46,9.46,0,0,0-6.94-2.81,9.08,9.08,0,0,0-6.84,2.83A9.65,9.65,0,0,0,92,172.16a9.25,9.25,0,0,0,9,9.52h.57A9.6,9.6,0,0,0,108.4,179a9.1,9.1,0,0,0,2.83-6.84,9.45,9.45,0,0,0-2.8-6.93" fill="#57b6b2"/><path id="a9059c21-e9b1-4668-a142-d3da94922433" data-name="Path 3963" d="M37.8,205.8a9.45,9.45,0,0,0-6.94-2.8A9.07,9.07,0,0,0,24,205.82a9.64,9.64,0,0,0-2.68,6.92,9.23,9.23,0,0,0,9,9.52,5.42,5.42,0,0,0,.57,0,9.64,9.64,0,0,0,6.91-2.68,9.11,9.11,0,0,0,2.83-6.84,9.49,9.49,0,0,0-2.8-6.94" fill="#57b6b2"/><g id="b593633b-165f-44fd-98bf-b15988379513" data-name="Group 688"><path id="a8bc613d-71b0-43af-a031-6cc4ba7b448f" data-name="Path 3964" d="M232.22,204.69l99.72-26.34s60,58.34,134.39,3.53" fill="none" stroke="#001738" stroke-miterlimit="10" stroke-width="3.77"/><path id="b10c3752-579f-453e-9e42-90ae1e5b24fa" data-name="Path 3965" d="M338.77,171.52a9.44,9.44,0,0,0-6.93-2.8,9.11,9.11,0,0,0-6.85,2.82,9.68,9.68,0,0,0-2.68,6.92,9.24,9.24,0,0,0,8.95,9.52,5.61,5.61,0,0,0,.58,0,9.65,9.65,0,0,0,6.91-2.68,9.1,9.1,0,0,0,2.82-6.84,9.45,9.45,0,0,0-2.8-6.94" fill="#57b6b2"/><path id="aa6547cc-559a-4f9a-9772-b7226e683800" data-name="Path 3966" d="M473.16,175.05a9.45,9.45,0,0,0-6.94-2.8,9.09,9.09,0,0,0-6.84,2.82A9.68,9.68,0,0,0,456.7,182a9.24,9.24,0,0,0,8.95,9.52,5.42,5.42,0,0,0,.57,0,9.64,9.64,0,0,0,6.91-2.68A9.11,9.11,0,0,0,476,182a9.49,9.49,0,0,0-2.8-6.94" fill="#57b6b2"/></g><path id="aeb8963b-3c5b-45fc-9a58-efec2dd0c5f7" data-name="Path 3930" d="M239.31,197.58a9.46,9.46,0,0,0-6.93-2.81,9.16,9.16,0,0,0-6.85,2.83,9.71,9.71,0,0,0-2.68,6.91,9.24,9.24,0,0,0,9,9.53,5.42,5.42,0,0,0,.57,0,9.64,9.64,0,0,0,6.91-2.68,9.12,9.12,0,0,0,2.83-6.85,9.49,9.49,0,0,0-2.81-6.93" fill="#ff8300"/></g></svg>