<svg id="b6bf31d6-9081-4c2b-8988-1b7afd301d82" data-name="Layer 1" xmlns="http://www.w3.org/2000/svg" viewBox="0 0 312 228"><g id="b7a558d0-bcb2-468e-bc8d-af0f567fd865" data-name="Group 847"><g id="b71dbb0b-e70a-4a28-b702-0ee3f291d18b" data-name="Group 843"><path id="bae24f01-017c-4b00-9d44-5d575ceca88f" data-name="Path 6510" d="M11.87,12.16S26.43,34.33,70.16,34.33s54.71-22.17,54.71-22.17" fill="none" stroke="#001738" stroke-width="3.77"/><path id="fed81b29-3af4-4c67-b4e9-7d6f6ce9620e" data-name="Path 6470" d="M18.83,5.78A9.5,9.5,0,0,0,11.89,3,9.15,9.15,0,0,0,5.05,5.8a9.65,9.65,0,0,0-2.68,6.91,9.24,9.24,0,0,0,9,9.53,5.23,5.23,0,0,0,.56,0,9.68,9.68,0,0,0,6.92-2.68,9.11,9.11,0,0,0,2.82-6.85,9.44,9.44,0,0,0-2.8-6.93" fill="#57b6b2"/><path id="b43147fc-8c5b-4352-b674-019c532cd6a4" data-name="Path 3938" d="M131.83,5.57a9.45,9.45,0,0,0-6.93-2.81,9.12,9.12,0,0,0-6.85,2.83,9.64,9.64,0,0,0-2.68,6.91A9.23,9.23,0,0,0,124.32,22a5.61,5.61,0,0,0,.58,0,9.63,9.63,0,0,0,6.91-2.68,9.13,9.13,0,0,0,2.82-6.84,9.45,9.45,0,0,0-2.8-6.93" fill="#ff8300"/></g><g id="e5817638-609c-4c2e-81f9-ef97fe738907" data-name="Group 845"><line id="fbe82bf6-5f27-484a-9366-66cf2f8057ce" data-name="Line 74" x1="141.87" y1="215.16" x2="299.87" y2="215.16" fill="none" stroke="#001738" stroke-width="3.77"/><line id="a134b36c-fbf6-4514-8a77-1b0e49ce3098" data-name="Line 98" x1="102.87" y1="149.16" x2="260.87" y2="149.16" fill="none" stroke="#001738" stroke-width="3.77"/><line id="aa7398f0-5bcf-4fd1-82de-0e58c076e603" data-name="Line 99" x1="141.87" y1="82.16" x2="220.87" y2="215.16" fill="none" stroke="#001738" stroke-width="3.77"/><line id="b7a2c58d-341c-4131-a3a5-0e7430ea701d" data-name="Line 100" x1="220.87" y1="82.16" x2="299.87" y2="215.16" fill="none" stroke="#001738" stroke-width="3.77"/><line id="b61ef871-3e30-4afd-8da0-efc1abe8b574" data-name="Line 101" x1="221.87" y1="82.16" x2="142.87" y2="215.16" fill="none" stroke="#001738" stroke-width="3.77"/><line id="a584a14c-b1a4-4595-9b82-eb02d7fe3d89" data-name="Line 102" x1="142.87" y1="82.16" x2="102.87" y2="149.16" fill="none" stroke="#001738" stroke-width="3.77"/><line id="bf002549-b56b-4da3-8f32-24862f1c24a8" data-name="Line 103" x1="260.87" y1="149.16" x2="220.87" y2="216.16" fill="none" stroke="#001738" stroke-width="3.77"/><path id="a0885445-afed-46ff-9ca8-8ff6076d7240" data-name="Path 3937" d="M109.83,142.47a9.5,9.5,0,0,0-6.94-2.81,9.11,9.11,0,0,0-6.84,2.83,9.65,9.65,0,0,0-2.68,6.91,9.24,9.24,0,0,0,9,9.53h.56a9.68,9.68,0,0,0,6.92-2.68,9.11,9.11,0,0,0,2.82-6.85,9.44,9.44,0,0,0-2.8-6.93" fill="#57b6b2"/><path id="eb2ed046-14b3-48d0-9e73-aec4ad12d376" data-name="Path 6506" d="M188.83,142.47a9.5,9.5,0,0,0-6.94-2.81,9.11,9.11,0,0,0-6.84,2.83,9.65,9.65,0,0,0-2.68,6.91,9.24,9.24,0,0,0,9,9.53h.56a9.68,9.68,0,0,0,6.92-2.68,9.11,9.11,0,0,0,2.82-6.85,9.44,9.44,0,0,0-2.8-6.93" fill="#57b6b2"/><path id="be2743a2-b8f5-4935-bc6d-dbd17ea5b2e2" data-name="Path 6523" d="M149.83,208.47a9.5,9.5,0,0,0-6.94-2.81,9.11,9.11,0,0,0-6.84,2.83,9.65,9.65,0,0,0-2.68,6.91,9.24,9.24,0,0,0,9,9.53h.56a9.68,9.68,0,0,0,6.92-2.68,9.11,9.11,0,0,0,2.82-6.85,9.44,9.44,0,0,0-2.8-6.93" fill="#57b6b2"/><path id="ecb5a3a4-be80-40a4-9fef-307f8fdedea2" data-name="Path 6524" d="M227.83,208.47a9.5,9.5,0,0,0-6.94-2.81,9.11,9.11,0,0,0-6.84,2.83,9.65,9.65,0,0,0-2.68,6.91,9.24,9.24,0,0,0,9,9.53h.56a9.68,9.68,0,0,0,6.92-2.68,9.11,9.11,0,0,0,2.82-6.85,9.44,9.44,0,0,0-2.8-6.93" fill="#57b6b2"/><path id="a46e34d3-35aa-4955-b7f3-6d793cf11ede" data-name="Path 6507" d="M267.83,142.47a9.5,9.5,0,0,0-6.94-2.81,9.11,9.11,0,0,0-6.84,2.83,9.65,9.65,0,0,0-2.68,6.91,9.24,9.24,0,0,0,9,9.53h.56a9.68,9.68,0,0,0,6.92-2.68,9.11,9.11,0,0,0,2.82-6.85,9.44,9.44,0,0,0-2.8-6.93" fill="#57b6b2"/><path id="be3e6c3d-6b02-4a28-b5a2-faa81640bb7e" data-name="Path 6508" d="M148.83,75.47a9.5,9.5,0,0,0-6.94-2.81,9.11,9.11,0,0,0-6.84,2.83,9.65,9.65,0,0,0-2.68,6.91,9.24,9.24,0,0,0,9,9.53h.56a9.68,9.68,0,0,0,6.92-2.68,9.11,9.11,0,0,0,2.82-6.85,9.44,9.44,0,0,0-2.8-6.93" fill="#57b6b2"/><path id="a7a21218-a94b-4994-8dfa-3a0744cef3e2" data-name="Path 6509" d="M227.83,75.78A9.5,9.5,0,0,0,220.89,73a9.15,9.15,0,0,0-6.84,2.83,9.65,9.65,0,0,0-2.68,6.91,9.24,9.24,0,0,0,9,9.53,5.23,5.23,0,0,0,.56,0,9.68,9.68,0,0,0,6.92-2.68,9.11,9.11,0,0,0,2.82-6.85,9.44,9.44,0,0,0-2.8-6.93" fill="#57b6b2"/><path id="bcf1ad08-0574-4af1-8a2b-92320ab4de46" data-name="Path 6505" d="M306.83,208.78a9.5,9.5,0,0,0-6.94-2.81,9.15,9.15,0,0,0-6.84,2.83,9.65,9.65,0,0,0-2.68,6.91,9.24,9.24,0,0,0,9,9.53h.56a9.68,9.68,0,0,0,6.92-2.68,9.11,9.11,0,0,0,2.82-6.85,9.44,9.44,0,0,0-2.8-6.93" fill="#57b6b2"/></g></g></svg>