<?xml version="1.0" encoding="UTF-8"?>
<svg id="Layer_1" data-name="Layer 1" xmlns="http://www.w3.org/2000/svg" viewBox="0 0 90.71 90.71">
  <defs>
    <style>
      .cls-1 {
        fill: #00263e;
      }

      .cls-2 {
        fill: #ff8200;
      }
    </style>
  </defs>
  <circle class="cls-2" cx="48.34" cy="45.35" r="42.37"/>
  <g>
    <path class="cls-1" d="M61.85,10.59H16.98c-6.8,0-12.33,5.53-12.33,12.33v44.87c0,6.8,5.53,12.33,12.33,12.33H61.85c6.8,0,12.33-5.53,12.33-12.33V22.92c0-6.8-5.53-12.33-12.33-12.33Zm-44.87,3.95H61.85c4.62,0,8.38,3.77,8.38,8.38v44.92c0,4.62-3.76,8.38-8.38,8.38H16.98c-4.62,0-8.38-3.76-8.38-8.38V22.92c0-4.62,3.76-8.38,8.38-8.38Z"/>
    <path class="cls-1" d="M31.01,57.16c-.1,0-.2,0-.3,0l-5.73,.03v-4.94c.04-.53-.13-1.04-.47-1.44-.34-.4-.82-.64-1.35-.68-.52-.04-1.04,.13-1.44,.47-.4,.34-.64,.82-.69,1.35,0,.1,0,.2,0,.28v4.93h-5.77c-.53,.04-1.01,.28-1.35,.69-.34,.4-.51,.91-.47,1.44,.08,.98,.84,1.75,1.84,1.83h5.75v5.77c.08,1.04,.95,1.83,1.97,1.83,.05,0,.1,0,.15,0,.98-.08,1.75-.84,1.82-1.84v-5.75h5.73c1.09,.09,2.04-.74,2.12-1.82,.04-.53-.13-1.04-.47-1.44s-.82-.64-1.35-.68Z"/>
    <path class="cls-1" d="M15.25,32.66h15.51c.05,0,.1,0,.15,0,.47,0,.92-.17,1.29-.48,.4-.34,.64-.82,.68-1.35,.08-1.09-.73-2.04-1.82-2.12-.1,0-.2,0-.29,0H15.23c-1.09,.08-1.91,1.04-1.82,2.12,.08,.98,.84,1.75,1.84,1.83Z"/>
    <path class="cls-1" d="M61.85,62.36h-15.53c-.53,0-1.02,.21-1.4,.58-.37,.37-.58,.87-.58,1.4,0,.53,.21,1.03,.58,1.4,.37,.37,.87,.58,1.4,.58h15.53c.53,0,1.03-.21,1.4-.58,.37-.38,.58-.87,.58-1.4,0-1.09-.89-1.98-1.98-1.98Z"/>
    <path class="cls-1" d="M46.04,58.55c.05,0,.1,0,.15,0s.09,0,.13,0h15.55c.53-.04,1.01-.28,1.35-.69,.34-.4,.51-.91,.47-1.44-.08-.98-.84-1.75-1.82-1.82h0s-15.52,0-15.52,0c-.52-.04-1.04,.13-1.44,.47-.4,.34-.64,.83-.69,1.35-.08,1.09,.74,2.04,1.82,2.12Z"/>
    <path class="cls-1" d="M47.2,37.18h0c.07,.09,.16,.15,.26,.2,.34,.34,.78,.54,1.27,.57,.03,0,.06,0,.09,0,.45,0,.87-.16,1.2-.43l.1-.09s.05-.05,.09-.09l4.22-4.22,4.22,4.21c.7,.77,1.89,.82,2.66,.12,.04-.04,.09-.08,.1-.1,.37-.34,.59-.8,.62-1.3,.03-.5-.15-.98-.51-1.38l-4.32-4.32,4.2-4.2c.94-.52,1.3-1.7,.8-2.65-.51-.97-1.71-1.34-2.67-.84-.2,.1-.38,.24-.5,.38-.15,.11-.27,.25-.36,.37l-4.22,4.22-4.25-4.24c-.85-.67-2.09-.53-2.77,.33-.56,.72-.57,1.72,.02,2.46l4.22,4.22-4.21,4.21c-.76,.65-.87,1.8-.24,2.58Z"/>
  </g>
</svg>