<?xml version="1.0" encoding="UTF-8"?>
<svg id="Layer_1" data-name="Layer 1" xmlns="http://www.w3.org/2000/svg" viewBox="0 0 230.91 88.74">
  <defs>
    <style>
      .cls-1 {
        fill: #00263e;
      }
    </style>
  </defs>
  <g>
    <path class="cls-1" d="m9.88,82.11H3.56l-.98,2.56H.02l5.24-13.34h2.92l5.24,13.34h-2.56l-.98-2.56Zm-5.66-2.06h5l-2.5-6.74-2.5,6.74Z"/>
    <path class="cls-1" d="m19.22,74.77c1.88,0,3.02.8,3.7,1.72l-1.38,1.28c-.54-.76-1.28-1.14-2.22-1.14-1.76,0-2.92,1.32-2.92,3.2s1.16,3.22,2.92,3.22c.94,0,1.68-.4,2.22-1.14l1.38,1.28c-.68.92-1.82,1.72-3.7,1.72-2.94,0-5-2.14-5-5.08s2.06-5.06,5-5.06Z"/>
    <path class="cls-1" d="m25.18,82.44v-5.58h-1.6v-1.84h1.6v-2.64h2.1v2.64h1.96v1.84h-1.96v5.06c0,.66.32,1.14.92,1.14.4,0,.78-.16.94-.34l.5,1.58c-.38.36-1,.62-1.98.62-1.62,0-2.48-.88-2.48-2.48Z"/>
    <path class="cls-1" d="m30.88,72.11c0-.72.6-1.3,1.3-1.3s1.3.58,1.3,1.3-.58,1.3-1.3,1.3-1.3-.58-1.3-1.3Zm.26,2.9h2.1v9.66h-2.1v-9.66Z"/>
    <path class="cls-1" d="m34.56,75.01h2.24l2.82,7.24,2.82-7.24h2.26l-3.94,9.66h-2.26l-3.94-9.66Z"/>
    <path class="cls-1" d="m50.32,74.77c2.9,0,4.76,2.22,4.76,5.26v.5h-7.46c.16,1.46,1.26,2.66,3.08,2.66.94,0,2.06-.38,2.74-1.06l.96,1.38c-.96.92-2.38,1.4-3.92,1.4-2.9,0-5.06-2.02-5.06-5.08,0-2.8,2.04-5.06,4.9-5.06Zm-2.72,4.28h5.44c-.04-1.14-.82-2.56-2.72-2.56-1.8,0-2.62,1.38-2.72,2.56Z"/>
    <path class="cls-1" d="m66.7,74.77c1.88,0,3.02.8,3.7,1.72l-1.38,1.28c-.54-.76-1.28-1.14-2.22-1.14-1.76,0-2.92,1.32-2.92,3.2s1.16,3.22,2.92,3.22c.94,0,1.68-.4,2.22-1.14l1.38,1.28c-.68.92-1.82,1.72-3.7,1.72-2.94,0-5-2.14-5-5.08s2.06-5.06,5-5.06Z"/>
    <path class="cls-1" d="m72.24,71.33h2.1v13.34h-2.1v-13.34Z"/>
    <path class="cls-1" d="m76.8,72.11c0-.72.6-1.3,1.3-1.3s1.3.58,1.3,1.3-.58,1.3-1.3,1.3-1.3-.58-1.3-1.3Zm.26,2.9h2.1v9.66h-2.1v-9.66Z"/>
    <path class="cls-1" d="m86.18,74.77c2.9,0,4.76,2.22,4.76,5.26v.5h-7.46c.16,1.46,1.26,2.66,3.08,2.66.94,0,2.06-.38,2.74-1.06l.96,1.38c-.96.92-2.38,1.4-3.92,1.4-2.9,0-5.06-2.02-5.06-5.08,0-2.8,2.04-5.06,4.9-5.06Zm-2.72,4.28h5.44c-.04-1.14-.82-2.56-2.72-2.56-1.8,0-2.62,1.38-2.72,2.56Z"/>
    <path class="cls-1" d="m99.54,78.63c0-1.5-.76-2-1.94-2-1.08,0-2,.64-2.48,1.3v6.74h-2.1v-9.66h2.1v1.32c.64-.76,1.88-1.56,3.4-1.56,2.08,0,3.12,1.12,3.12,3.1v6.8h-2.1v-6.04Z"/>
    <path class="cls-1" d="m104.78,82.44v-5.58h-1.6v-1.84h1.6v-2.64h2.1v2.64h1.96v1.84h-1.96v5.06c0,.66.32,1.14.92,1.14.4,0,.78-.16.94-.34l.5,1.58c-.38.36-1,.62-1.98.62-1.62,0-2.48-.88-2.48-2.48Z"/>
    <path class="cls-1" d="m110.86,81.9c.68.7,2.02,1.36,3.28,1.36s1.9-.46,1.9-1.18c0-.84-1.02-1.14-2.2-1.4-1.66-.36-3.64-.8-3.64-2.96,0-1.58,1.36-2.94,3.8-2.94,1.64,0,2.88.58,3.76,1.36l-.88,1.48c-.58-.66-1.66-1.16-2.86-1.16-1.1,0-1.8.4-1.8,1.08,0,.74.96,1,2.1,1.26,1.68.36,3.74.84,3.74,3.12,0,1.7-1.42,3-4.02,3-1.64,0-3.14-.52-4.14-1.5l.96-1.52Z"/>
  </g>
  <g>
    <path class="cls-1" d="m12.99,48.06v-30.97l-7.1,7.23L.7,18.88,14.14,5.38h7.94v42.68h-9.09Z"/>
    <path class="cls-1" d="m27.58,41.98l4.8-6.08c2.88,3.07,7.55,4.86,11.71,4.86,5.18,0,8.06-2.24,8.06-5.44,0-3.39-2.62-4.93-8.58-4.93-1.79,0-4.67.06-5.31.13v-8.19c.77.06,3.71.06,5.31.06,4.74,0,7.94-1.41,7.94-4.54,0-3.39-3.52-5.06-7.94-5.06-4.16,0-7.87,1.54-10.88,4.42l-4.54-5.7c3.46-3.9,8.83-6.78,16.32-6.78,9.98,0,16.13,4.48,16.13,11.58,0,5.38-4.61,8.9-9.34,9.73,4.35.45,9.98,3.84,9.98,10.24,0,7.36-6.59,12.54-16.83,12.54-7.81,0-13.7-3.01-16.83-6.85Z"/>
    <path class="cls-1" d="m71.04,56.83l-3.52-2.88c2.05-1.09,4.42-3.78,4.93-6.02-.19.06-.7.19-1.22.19-2.43,0-4.35-1.92-4.35-4.61s2.3-5.12,5.06-5.12c3.01,0,5.7,2.37,5.7,6.53,0,4.8-2.62,9.09-6.59,11.9Z"/>
    <path class="cls-1" d="m81.02,26.75c0-11.01,5.44-22.01,17.66-22.01s17.66,11.01,17.66,22.01-5.44,22.08-17.66,22.08-17.66-11.07-17.66-22.08Zm26.05,0c0-7.87-2.24-13.95-8.38-13.95s-8.38,6.08-8.38,13.95,2.3,14.01,8.38,14.01,8.38-6.14,8.38-14.01Z"/>
    <path class="cls-1" d="m120.7,26.75c0-11.01,5.44-22.01,17.66-22.01s17.66,11.01,17.66,22.01-5.44,22.08-17.66,22.08-17.66-11.07-17.66-22.08Zm26.05,0c0-7.87-2.24-13.95-8.38-13.95s-8.38,6.08-8.38,13.95,2.3,14.01,8.38,14.01,8.38-6.14,8.38-14.01Z"/>
    <path class="cls-1" d="m160.38,26.75c0-11.01,5.44-22.01,17.66-22.01s17.66,11.01,17.66,22.01-5.44,22.08-17.66,22.08-17.66-11.07-17.66-22.08Zm26.05,0c0-7.87-2.24-13.95-8.38-13.95s-8.38,6.08-8.38,13.95,2.3,14.01,8.38,14.01,8.38-6.14,8.38-14.01Z"/>
    <path class="cls-1" d="m216.83,28.99v12.99h-5.57v-12.99h-11.52v-5.06h11.52v-12.54h5.57v12.54h11.46v5.06h-11.46Z"/>
  </g>
</svg>