<svg id="bc2b04be-8e5a-4f8d-b031-ef6ee511cdb7" data-name="Layer 1" xmlns="http://www.w3.org/2000/svg" viewBox="0 0 90.71 73.7"><title>Infinity copy 16</title><path d="M68.93,20.18A24.26,24.26,0,0,0,45.38,2.27h-.05A24.26,24.26,0,0,0,21.78,20.18,26.69,26.69,0,0,0,21,27.34c0,8.18,4.44,15.25,9.4,22.12s10.55,13.62,13.53,21a1.58,1.58,0,0,0,2.91,0c3-7.39,8.57-14.15,13.53-21s9.36-13.94,9.4-22.12A26.69,26.69,0,0,0,68.93,20.18ZM57.78,47.61c-4.25,5.88-9.08,11.93-12.42,18.7C42,59.54,37.18,53.49,32.93,47.61c-4.87-6.74-8.77-13.22-8.81-20.27A24.27,24.27,0,0,1,24.83,21,21.05,21.05,0,0,1,45.33,5.42h.05A21.05,21.05,0,0,1,65.88,21a24.27,24.27,0,0,1,.71,6.35C66.55,34.39,62.65,40.87,57.78,47.61Z" fill="#f58020"/><path d="M45.31,16.34A10.09,10.09,0,1,0,55.42,26.45,10.12,10.12,0,0,0,45.31,16.34Zm0,17a6.94,6.94,0,1,1,7-6.92A7,7,0,0,1,45.31,33.37Z" fill="#5cb8b2"/></svg>