<svg id="Layer_1" data-name="Layer 1" xmlns="http://www.w3.org/2000/svg" viewBox="0 0 90.71 90.71"><defs><style>.cls-1{fill:#ff8200;}.cls-2{fill:#00263e;}</style></defs><circle class="cls-1" cx="46.98" cy="45.35" r="42.37"/><path class="cls-2" d="M74.69,5.37A1.33,1.33,0,0,0,72.84,5a1.37,1.37,0,0,0-.36.36L62.94,21.52a1.3,1.3,0,0,0,.48,1.76,1.28,1.28,0,0,0,.64.17h6a1.22,1.22,0,0,1,1.23,1.22h0v3.52A12.79,12.79,0,0,1,58.52,41H28.4A17.37,17.37,0,0,0,11,58.31v2a1.22,1.22,0,0,1-.91,1.22,12.32,12.32,0,1,0,6.4,0,1.23,1.23,0,0,1-.92-1.22v-2A12.81,12.81,0,0,1,28.4,45.54H58.52A17.36,17.36,0,0,0,75.86,28.19V24.63a1.22,1.22,0,0,1,1.22-1.22h6a1.23,1.23,0,0,0,1.1-1.93Zm-53.6,68a7.76,7.76,0,1,1-7.76-7.76,7.76,7.76,0,0,1,7.76,7.76Z"/><path class="cls-2" d="M15.1,29.38a.45.45,0,0,0,.25.18,1.94,1.94,0,0,0,2.73.11l.11-.11,5.2-5.2,5.2,5.2a1.94,1.94,0,0,0,2.73.11l.11-.11a1.94,1.94,0,0,0,.13-2.74l-.13-.12-5.18-5.2,5.22-5.18A2.05,2.05,0,0,0,29.05,13l-.06.05a2.21,2.21,0,0,0-.4.41l-5.2,5.19-5.2-5.19a2,2,0,0,0-2.85,2.85l5.19,5.19-5.19,5.2a1.88,1.88,0,0,0-.28,2.64Z"/><path class="cls-2" d="M54.87,73a.37.37,0,0,0,.24.16,1.93,1.93,0,0,0,2.72.14h0l.11-.13L63.15,68l5.19,5.19a2,2,0,0,0,2.74.13l.11-.13a1.93,1.93,0,0,0,.15-2.72h0l-.12-.13L66,65.12l5.19-5.2a2,2,0,0,0-2.49-3.25h0a2,2,0,0,0-.41.41l-5.18,5.19-5.2-5.19a2,2,0,0,0-2.84,2.84l5.18,5.2-5.18,5.19A1.89,1.89,0,0,0,54.84,73l0,0Z"/></svg>