<svg xmlns="http://www.w3.org/2000/svg" xmlns:xlink="http://www.w3.org/1999/xlink" width="636" height="441" viewBox="0 0 636 441">
  <defs>
    <filter id="Rectangle_1090" x="26.508" y="8.781" width="598.64" height="421.038" filterUnits="userSpaceOnUse">
      <feOffset dy="10" input="SourceAlpha"/>
      <feGaussianBlur stdDeviation="15" result="blur"/>
      <feFlood flood-opacity="0.161"/>
      <feComposite operator="in" in2="blur"/>
      <feComposite in="SourceGraphic"/>
    </filter>
    <filter id="Rectangle_1079" x="231.513" y="279.157" width="250" height="175" filterUnits="userSpaceOnUse">
      <feOffset dy="10" input="SourceAlpha"/>
      <feGaussianBlur stdDeviation="15" result="blur-2"/>
      <feFlood flood-opacity="0.102"/>
      <feComposite operator="in" in2="blur-2"/>
      <feComposite in="SourceGraphic"/>
    </filter>
    <clipPath id="clip-path">
      <rect id="Rectangle_1084" data-name="Rectangle 1084" width="104.589" height="46.848" fill="#00263e"/>
    </clipPath>
    <clipPath id="clip-Artboard_1">
      <rect width="636" height="441"/>
    </clipPath>
  </defs>
  <g id="Artboard_1" data-name="Artboard – 1" clip-path="url(#clip-Artboard_1)">
    <rect width="636" height="441" fill="#fff"/>
    <g id="Group_1683" data-name="Group 1683" transform="translate(-5 -4)">
      <g id="Group_1672" data-name="Group 1672" transform="translate(-27 -14.326)">
        <path id="bady-qb-583088-unsplash" d="M462.021,172.387c16.519,16.491,24.9,37.188,24.9,61.509,0,24.385-8.449,44.824-25.088,60.742-16.491,15.789-37.133,23.785-61.325,23.785-24.275,0-44.639-8.061-60.538-23.96-15.919-15.909-23.988-36.292-23.988-60.566,0-24.2,8.024-44.842,23.812-61.324,15.918-16.639,36.338-25.079,60.714-25.079,24.293,0,44.981,8.384,61.51,24.894" transform="translate(177.076 127.205)" fill="#ff8200" stroke="#ff8200" stroke-width="2"/>
        <g id="Group_1669" data-name="Group 1669" transform="translate(-841.296 -12.318)">
          <path id="Path_3521" data-name="Path 3521" d="M884.156,298.891a3.049,3.049,0,0,0-2.237-.906,2.944,2.944,0,0,0-2.21.913,3.122,3.122,0,0,0-.866,2.231,2.984,2.984,0,0,0,3.076,3.076,3.118,3.118,0,0,0,2.231-.866,2.941,2.941,0,0,0,.912-2.21,3.053,3.053,0,0,0-.906-2.237" transform="translate(-1.322 -1.072)" fill="#f7f7f7"/>
          <path id="Path_3522" data-name="Path 3522" d="M933.031,298.39a3.423,3.423,0,0,0-2.515-1.018,3.3,3.3,0,0,0-2.484,1.024,3.512,3.512,0,0,0-.972,2.509,3.353,3.353,0,0,0,3.456,3.456,3.5,3.5,0,0,0,2.507-.974,3.3,3.3,0,0,0,1.027-2.482,3.433,3.433,0,0,0-1.019-2.515" transform="translate(-19.293 -0.843)" fill="#f7f7f7"/>
          <path id="Path_3523" data-name="Path 3523" d="M981.815,298.918a3.032,3.032,0,0,0-2.224-.9,2.926,2.926,0,0,0-2.2.906,3.1,3.1,0,0,0-.859,2.217,2.963,2.963,0,0,0,3.055,3.056,3.1,3.1,0,0,0,2.218-.861,2.918,2.918,0,0,0,.906-2.195,3.035,3.035,0,0,0-.9-2.224" transform="translate(-37.732 -1.084)" fill="#f7f7f7"/>
          <path id="Path_3524" data-name="Path 3524" d="M1030.773,297.463a4.124,4.124,0,0,0-3.027-1.225,3.975,3.975,0,0,0-2.989,1.234,4.214,4.214,0,0,0-1.171,3.019,4.034,4.034,0,0,0,4.16,4.16,4.213,4.213,0,0,0,3.019-1.172A3.974,3.974,0,0,0,1032,300.49a4.129,4.129,0,0,0-1.226-3.027" transform="translate(-55.268 -0.42)" fill="#f7f7f7"/>
          <path id="Path_3525" data-name="Path 3525" d="M1079.514,298.493a3.353,3.353,0,0,0-2.459-.995,3.234,3.234,0,0,0-2.428,1,3.428,3.428,0,0,0-.95,2.451,3.276,3.276,0,0,0,3.378,3.378,3.421,3.421,0,0,0,2.452-.952,3.223,3.223,0,0,0,1-2.426,3.354,3.354,0,0,0-.994-2.458" transform="translate(-73.937 -0.89)" fill="#f7f7f7"/>
          <path id="Path_3526" data-name="Path 3526" d="M1128.262,299.426a2.645,2.645,0,0,0-1.942-.787,2.554,2.554,0,0,0-1.919.792,2.71,2.71,0,0,0-.751,1.937,2.589,2.589,0,0,0,2.67,2.67,2.7,2.7,0,0,0,1.937-.752,2.551,2.551,0,0,0,.792-1.918,2.654,2.654,0,0,0-.787-1.942" transform="translate(-92.562 -1.315)" fill="#f7f7f7"/>
          <path id="Path_3527" data-name="Path 3527" d="M1177.347,296.541a4.82,4.82,0,0,0-3.537-1.431,4.645,4.645,0,0,0-3.493,1.441,4.929,4.929,0,0,0-1.368,3.527,4.715,4.715,0,0,0,4.861,4.86,4.925,4.925,0,0,0,3.525-1.369,4.644,4.644,0,0,0,1.441-3.492,4.829,4.829,0,0,0-1.43-3.537" transform="translate(-109.445 0)" fill="#f7f7f7"/>
          <path id="Path_3528" data-name="Path 3528" d="M1225.973,298.851a3.081,3.081,0,0,0-2.26-.915,2.976,2.976,0,0,0-2.233.921,3.152,3.152,0,0,0-.875,2.253,3.014,3.014,0,0,0,3.108,3.106,3.146,3.146,0,0,0,2.252-.874,2.968,2.968,0,0,0,.923-2.232,3.081,3.081,0,0,0-.915-2.26" transform="translate(-128.697 -1.053)" fill="#f7f7f7"/>
          <path id="Path_3529" data-name="Path 3529" d="M1274.894,297.84a3.844,3.844,0,0,0-2.819-1.141,3.7,3.7,0,0,0-2.783,1.149,3.928,3.928,0,0,0-1.09,2.81,3.759,3.759,0,0,0,3.874,3.874,3.928,3.928,0,0,0,2.81-1.091,3.7,3.7,0,0,0,1.149-2.783,3.846,3.846,0,0,0-1.14-2.818" transform="translate(-146.436 -0.592)" fill="#f7f7f7"/>
          <path id="Path_3530" data-name="Path 3530" d="M1323.771,297.3a4.239,4.239,0,0,0-3.114-1.261,4.089,4.089,0,0,0-3.075,1.27,4.338,4.338,0,0,0-1.205,3.105,4.151,4.151,0,0,0,4.28,4.279,4.336,4.336,0,0,0,3.105-1.205,4.088,4.088,0,0,0,1.27-3.074,4.249,4.249,0,0,0-1.261-3.114" transform="translate(-164.392 -0.348)" fill="#f7f7f7"/>
          <path id="Path_3531" data-name="Path 3531" d="M884.349,339.908a4.7,4.7,0,0,0-3.445-1.395,4.532,4.532,0,0,0-3.4,1.4,4.8,4.8,0,0,0-1.332,3.435,4.591,4.591,0,0,0,4.735,4.734,4.8,4.8,0,0,0,3.434-1.333,4.524,4.524,0,0,0,1.405-3.4,4.7,4.7,0,0,0-1.394-3.445" transform="translate(-0.325 -16.176)" fill="#f7f7f7"/>
          <path id="Path_3532" data-name="Path 3532" d="M933.159,340.145a4.517,4.517,0,0,0-3.315-1.342,4.357,4.357,0,0,0-3.274,1.351,4.616,4.616,0,0,0-1.281,3.306,4.417,4.417,0,0,0,4.555,4.555,4.613,4.613,0,0,0,3.3-1.283,4.357,4.357,0,0,0,1.352-3.271,4.526,4.526,0,0,0-1.342-3.315" transform="translate(-18.633 -16.284)" fill="#f7f7f7"/>
          <path id="Path_3533" data-name="Path 3533" d="M981.9,341.121A3.788,3.788,0,0,0,979.127,340a3.653,3.653,0,0,0-2.741,1.131,3.871,3.871,0,0,0-1.073,2.768,3.7,3.7,0,0,0,3.814,3.814,3.863,3.863,0,0,0,2.767-1.075,3.645,3.645,0,0,0,1.132-2.739,3.79,3.79,0,0,0-1.124-2.776" transform="translate(-37.276 -16.729)" fill="#f7f7f7"/>
          <path id="Path_3534" data-name="Path 3534" d="M1030.837,339.945a4.669,4.669,0,0,0-3.425-1.386,4.5,4.5,0,0,0-3.382,1.4,4.768,4.768,0,0,0-1.324,3.414,4.564,4.564,0,0,0,4.706,4.707,4.774,4.774,0,0,0,3.415-1.325,4.5,4.5,0,0,0,1.4-3.382,4.67,4.67,0,0,0-1.386-3.424" transform="translate(-54.94 -16.194)" fill="#f7f7f7"/>
          <path id="Path_3535" data-name="Path 3535" d="M1079.524,341.572a3.44,3.44,0,0,0-2.525-1.023,3.319,3.319,0,0,0-2.495,1.031,3.52,3.52,0,0,0-.977,2.518A3.37,3.37,0,0,0,1077,347.57a3.516,3.516,0,0,0,2.518-.979,3.316,3.316,0,0,0,1.031-2.493,3.447,3.447,0,0,0-1.023-2.526" transform="translate(-73.881 -16.935)" fill="#f7f7f7"/>
          <path id="Path_3536" data-name="Path 3536" d="M1128.393,341.148a3.765,3.765,0,0,0-2.76-1.117,3.624,3.624,0,0,0-2.725,1.125,3.84,3.84,0,0,0-1.068,2.751,3.677,3.677,0,0,0,3.793,3.794,3.837,3.837,0,0,0,2.751-1.069,3.624,3.624,0,0,0,1.126-2.725,3.765,3.765,0,0,0-1.117-2.759" transform="translate(-91.887 -16.742)" fill="#f7f7f7"/>
          <path id="Path_3537" data-name="Path 3537" d="M1177.292,340.373a4.348,4.348,0,0,0-3.189-1.291,4.193,4.193,0,0,0-3.15,1.3,4.441,4.441,0,0,0-1.233,3.179,4.255,4.255,0,0,0,4.383,4.384,4.437,4.437,0,0,0,3.178-1.236,4.186,4.186,0,0,0,1.3-3.148,4.349,4.349,0,0,0-1.291-3.187" transform="translate(-109.732 -16.388)" fill="#f7f7f7"/>
          <path id="Path_3538" data-name="Path 3538" d="M1226.239,339.034a5.356,5.356,0,0,0-3.928-1.59,5.164,5.164,0,0,0-3.879,1.6,5.476,5.476,0,0,0-1.519,3.917,5.237,5.237,0,0,0,5.4,5.4,5.472,5.472,0,0,0,3.917-1.521,5.161,5.161,0,0,0,1.6-3.877,5.364,5.364,0,0,0-1.589-3.928" transform="translate(-127.321 -15.778)" fill="#f7f7f7"/>
          <path id="Path_3539" data-name="Path 3539" d="M1275,339.861a4.731,4.731,0,0,0-3.471-1.4,4.56,4.56,0,0,0-3.429,1.415,4.836,4.836,0,0,0-1.342,3.461,4.626,4.626,0,0,0,4.771,4.769,4.832,4.832,0,0,0,3.459-1.343,4.559,4.559,0,0,0,1.416-3.426,4.745,4.745,0,0,0-1.4-3.471" transform="translate(-145.898 -16.155)" fill="#f7f7f7"/>
          <path id="Path_3540" data-name="Path 3540" d="M1323.652,341.854a3.23,3.23,0,0,0-2.37-.96,3.116,3.116,0,0,0-2.341.966,3.3,3.3,0,0,0-.918,2.364,3.16,3.16,0,0,0,3.259,3.258,3.3,3.3,0,0,0,2.362-.918,3.111,3.111,0,0,0,.967-2.34,3.233,3.233,0,0,0-.96-2.37" transform="translate(-165.005 -17.064)" fill="#f7f7f7"/>
          <path id="Path_3541" data-name="Path 3541" d="M884.234,384.422a3.711,3.711,0,0,0-2.721-1.1,3.575,3.575,0,0,0-2.686,1.11,3.789,3.789,0,0,0-1.051,2.712,3.626,3.626,0,0,0,3.737,3.739,3.785,3.785,0,0,0,2.712-1.054,3.572,3.572,0,0,0,1.11-2.685,3.716,3.716,0,0,0-1.1-2.72" transform="translate(-0.924 -32.876)" fill="#f7f7f7"/>
          <path id="Path_3542" data-name="Path 3542" d="M933.167,383.254a4.593,4.593,0,0,0-3.365-1.362,4.426,4.426,0,0,0-3.325,1.373,4.691,4.691,0,0,0-1.3,3.355,4.487,4.487,0,0,0,4.626,4.624,4.684,4.684,0,0,0,3.354-1.3,4.42,4.42,0,0,0,1.373-3.322,4.6,4.6,0,0,0-1.363-3.365" transform="translate(-18.59 -32.344)" fill="#f7f7f7"/>
          <path id="Path_3543" data-name="Path 3543" d="M982.154,381.463A5.933,5.933,0,0,0,977.8,379.7a5.728,5.728,0,0,0-4.3,1.775,6.075,6.075,0,0,0-1.682,4.343A5.8,5.8,0,0,0,977.8,391.8a6.067,6.067,0,0,0,4.343-1.685,5.722,5.722,0,0,0,1.777-4.3,5.943,5.943,0,0,0-1.764-4.355" transform="translate(-35.972 -31.527)" fill="#f7f7f7"/>
          <path id="Path_3544" data-name="Path 3544" d="M1030.658,385.177a3.14,3.14,0,0,0-2.3-.933,3.029,3.029,0,0,0-2.276.939,3.217,3.217,0,0,0-.891,2.3,3.073,3.073,0,0,0,3.167,3.166,3.212,3.212,0,0,0,2.3-.891,3.028,3.028,0,0,0,.938-2.275,3.152,3.152,0,0,0-.932-2.3" transform="translate(-55.865 -33.22)" fill="#f7f7f7"/>
          <path id="Path_3545" data-name="Path 3545" d="M1079.428,385.87a2.617,2.617,0,0,0-1.92-.778,2.525,2.525,0,0,0-1.9.783,2.678,2.678,0,0,0-.742,1.915,2.559,2.559,0,0,0,2.64,2.638,2.664,2.664,0,0,0,1.914-.743,2.52,2.52,0,0,0,.783-1.9,2.618,2.618,0,0,0-.777-1.92" transform="translate(-74.381 -33.536)" fill="#f7f7f7"/>
          <path id="Path_3546" data-name="Path 3546" d="M1128.525,382.839a4.9,4.9,0,0,0-3.594-1.457,4.724,4.724,0,0,0-3.551,1.467,5.006,5.006,0,0,0-1.39,3.584,4.793,4.793,0,0,0,4.941,4.941,5.005,5.005,0,0,0,3.583-1.391,4.719,4.719,0,0,0,1.467-3.55,4.9,4.9,0,0,0-1.456-3.594" transform="translate(-91.198 -32.154)" fill="#f7f7f7"/>
          <path id="Path_3547" data-name="Path 3547" d="M1177.368,382.685a5.011,5.011,0,0,0-3.679-1.489,4.834,4.834,0,0,0-3.633,1.5,5.125,5.125,0,0,0-1.424,3.668,4.906,4.906,0,0,0,5.057,5.057,5.115,5.115,0,0,0,3.668-1.425,4.829,4.829,0,0,0,1.5-3.632,5.024,5.024,0,0,0-1.489-3.679" transform="translate(-109.327 -32.084)" fill="#f7f7f7"/>
          <path id="Path_3548" data-name="Path 3548" d="M1226.349,380.993a6.3,6.3,0,0,0-4.614-1.868,6.067,6.067,0,0,0-4.557,1.882,6.428,6.428,0,0,0-1.783,4.6,6.151,6.151,0,0,0,6.341,6.342,6.423,6.423,0,0,0,4.6-1.786,6.059,6.059,0,0,0,1.88-4.556,6.3,6.3,0,0,0-1.867-4.613" transform="translate(-126.755 -31.313)" fill="#f7f7f7"/>
          <path id="Path_3549" data-name="Path 3549" d="M1275.041,382.565a5.1,5.1,0,0,0-3.747-1.516,4.919,4.919,0,0,0-3.7,1.526,5.22,5.22,0,0,0-1.449,3.737,4.993,4.993,0,0,0,5.148,5.148,5.213,5.213,0,0,0,3.736-1.45,4.917,4.917,0,0,0,1.528-3.7,5.111,5.111,0,0,0-1.516-3.747" transform="translate(-145.67 -32.03)" fill="#f7f7f7"/>
          <path id="Path_3550" data-name="Path 3550" d="M1323.772,383.7a4.251,4.251,0,0,0-3.118-1.263,4.1,4.1,0,0,0-3.081,1.272,4.351,4.351,0,0,0-1.2,3.11,4.158,4.158,0,0,0,4.285,4.285,4.343,4.343,0,0,0,3.109-1.207,4.1,4.1,0,0,0,1.271-3.078,4.253,4.253,0,0,0-1.262-3.119" transform="translate(-164.388 -32.547)" fill="#f7f7f7"/>
          <path id="Path_3551" data-name="Path 3551" d="M884.2,427.984a3.437,3.437,0,0,0-2.522-1.021,3.311,3.311,0,0,0-2.49,1.028,3.511,3.511,0,0,0-.975,2.514,3.36,3.36,0,0,0,3.465,3.465,3.5,3.5,0,0,0,2.514-.976,3.309,3.309,0,0,0,1.029-2.489,3.442,3.442,0,0,0-1.022-2.522" transform="translate(-1.088 -49.142)" fill="#f7f7f7"/>
          <path id="Path_3552" data-name="Path 3552" d="M933.1,427.217a4.011,4.011,0,0,0-2.944-1.192,3.87,3.87,0,0,0-2.909,1.2,4.1,4.1,0,0,0-1.14,2.936,3.926,3.926,0,0,0,4.049,4.048,4.1,4.1,0,0,0,2.936-1.14,3.868,3.868,0,0,0,1.2-2.908,4.019,4.019,0,0,0-1.191-2.945" transform="translate(-18.937 -48.792)" fill="#f7f7f7"/>
          <path id="Path_3553" data-name="Path 3553" d="M981.806,428.621a2.955,2.955,0,0,0-2.169-.878,2.854,2.854,0,0,0-2.144.884,3.027,3.027,0,0,0-.839,2.163,2.89,2.89,0,0,0,2.983,2.982,3.022,3.022,0,0,0,2.163-.839,2.849,2.849,0,0,0,.885-2.143,2.956,2.956,0,0,0-.878-2.169" transform="translate(-37.776 -49.433)" fill="#f7f7f7"/>
          <path id="Path_3554" data-name="Path 3554" d="M1030.609,428.935a2.719,2.719,0,0,0-2-.809,2.625,2.625,0,0,0-1.972.815,2.784,2.784,0,0,0-.772,1.99,2.66,2.66,0,0,0,2.744,2.743,2.781,2.781,0,0,0,1.989-.772,2.621,2.621,0,0,0,.814-1.971,2.725,2.725,0,0,0-.808-2" transform="translate(-56.119 -49.575)" fill="#f7f7f7"/>
          <path id="Path_3555" data-name="Path 3555" d="M1079.619,426.917a4.237,4.237,0,0,0-3.111-1.26,4.089,4.089,0,0,0-3.073,1.268,4.335,4.335,0,0,0-1.2,3.1,4.145,4.145,0,0,0,4.275,4.275,4.334,4.334,0,0,0,3.1-1.2,4.089,4.089,0,0,0,1.268-3.071,4.248,4.248,0,0,0-1.26-3.111" transform="translate(-73.398 -48.655)" fill="#f7f7f7"/>
          <path id="Path_3556" data-name="Path 3556" d="M1128.331,428.251a3.236,3.236,0,0,0-2.374-.961,3.12,3.12,0,0,0-2.344.967,3.309,3.309,0,0,0-.919,2.367,3.164,3.164,0,0,0,3.263,3.263,3.306,3.306,0,0,0,2.367-.919,3.114,3.114,0,0,0,.969-2.344,3.242,3.242,0,0,0-.961-2.374" transform="translate(-92.205 -49.264)" fill="#f7f7f7"/>
          <path id="Path_3557" data-name="Path 3557" d="M1177.415,425.363a5.411,5.411,0,0,0-3.969-1.608,5.219,5.219,0,0,0-3.921,1.619,5.533,5.533,0,0,0-1.534,3.958,5.293,5.293,0,0,0,5.455,5.456,5.524,5.524,0,0,0,3.958-1.537,5.216,5.216,0,0,0,1.619-3.919,5.417,5.417,0,0,0-1.608-3.969" transform="translate(-109.088 -47.946)" fill="#f7f7f7"/>
          <path id="Path_3558" data-name="Path 3558" d="M1225.884,429.48a2.312,2.312,0,0,0-1.694-.686,2.225,2.225,0,0,0-1.674.692,2.36,2.36,0,0,0-.656,1.689,2.258,2.258,0,0,0,2.329,2.329,2.359,2.359,0,0,0,1.689-.655,2.227,2.227,0,0,0,.691-1.674,2.315,2.315,0,0,0-.686-1.695" transform="translate(-129.165 -49.824)" fill="#f7f7f7"/>
          <path id="Path_3559" data-name="Path 3559" d="M1274.841,428.038a3.4,3.4,0,0,0-2.491-1.008,3.273,3.273,0,0,0-2.46,1.016,3.47,3.47,0,0,0-.964,2.484,3.321,3.321,0,0,0,3.424,3.425,3.467,3.467,0,0,0,2.483-.965,3.276,3.276,0,0,0,1.017-2.46,3.4,3.4,0,0,0-1.009-2.491" transform="translate(-146.706 -49.167)" fill="#f7f7f7"/>
          <path id="Path_3560" data-name="Path 3560" d="M1323.7,427.773a3.6,3.6,0,0,0-2.638-1.068,3.473,3.473,0,0,0-2.607,1.075,3.682,3.682,0,0,0-1.021,2.631,3.516,3.516,0,0,0,3.627,3.626,3.673,3.673,0,0,0,2.63-1.022,3.463,3.463,0,0,0,1.077-2.6,3.6,3.6,0,0,0-1.068-2.638" transform="translate(-164.784 -49.046)" fill="#f7f7f7"/>
          <path id="Path_3561" data-name="Path 3561" d="M884.084,472.506a2.442,2.442,0,0,0-1.792-.726,2.357,2.357,0,0,0-1.77.731,2.5,2.5,0,0,0-.694,1.787,2.39,2.39,0,0,0,2.464,2.464,2.5,2.5,0,0,0,1.787-.694,2.352,2.352,0,0,0,.731-1.77,2.446,2.446,0,0,0-.726-1.792" transform="translate(-1.689 -65.845)" fill="#f7f7f7"/>
          <path id="Path_3562" data-name="Path 3562" d="M933.024,471.289a3.361,3.361,0,0,0-2.464-1,3.234,3.234,0,0,0-2.435,1,3.43,3.43,0,0,0-.953,2.458,3.283,3.283,0,0,0,3.389,3.387,3.43,3.43,0,0,0,2.457-.953,3.236,3.236,0,0,0,1-2.434,3.36,3.36,0,0,0-1-2.464" transform="translate(-19.334 -65.29)" fill="#f7f7f7"/>
          <path id="Path_3563" data-name="Path 3563" d="M982.125,468.191a5.689,5.689,0,0,0-4.176-1.691,5.482,5.482,0,0,0-4.124,1.7,5.823,5.823,0,0,0-1.615,4.163,5.569,5.569,0,0,0,5.74,5.74,5.815,5.815,0,0,0,4.163-1.617,5.481,5.481,0,0,0,1.7-4.123,5.7,5.7,0,0,0-1.691-4.176" transform="translate(-36.12 -63.877)" fill="#f7f7f7"/>
          <path id="Path_3564" data-name="Path 3564" d="M1030.824,469.705a4.551,4.551,0,0,0-3.341-1.352,4.388,4.388,0,0,0-3.3,1.361,4.656,4.656,0,0,0-1.291,3.33,4.454,4.454,0,0,0,4.589,4.591,4.652,4.652,0,0,0,3.33-1.292,4.387,4.387,0,0,0,1.363-3.3,4.56,4.56,0,0,0-1.351-3.339" transform="translate(-55.01 -64.568)" fill="#f7f7f7"/>
          <path id="Path_3565" data-name="Path 3565" d="M1079.418,472.387a2.531,2.531,0,0,0-1.859-.752,2.443,2.443,0,0,0-1.836.757,2.592,2.592,0,0,0-.719,1.853,2.482,2.482,0,0,0,2.554,2.554,2.586,2.586,0,0,0,1.853-.719,2.436,2.436,0,0,0,.758-1.835,2.535,2.535,0,0,0-.752-1.858" transform="translate(-74.431 -65.791)" fill="#f7f7f7"/>
          <path id="Path_3566" data-name="Path 3566" d="M1128.507,469.45a4.742,4.742,0,0,0-3.481-1.41,4.575,4.575,0,0,0-3.438,1.42,4.843,4.843,0,0,0-1.346,3.47,4.638,4.638,0,0,0,4.784,4.785,4.841,4.841,0,0,0,3.471-1.349,4.57,4.57,0,0,0,1.418-3.436,4.749,4.749,0,0,0-1.408-3.48" transform="translate(-91.292 -64.451)" fill="#f7f7f7"/>
          <path id="Path_3567" data-name="Path 3567" d="M1177.17,471.357a3.306,3.306,0,0,0-2.428-.982,3.188,3.188,0,0,0-2.4.989,3.385,3.385,0,0,0-.939,2.42,3.236,3.236,0,0,0,3.336,3.336,3.384,3.384,0,0,0,2.42-.939,3.188,3.188,0,0,0,.989-2.4,3.309,3.309,0,0,0-.981-2.426" transform="translate(-110.361 -65.322)" fill="#f7f7f7"/>
          <path id="Path_3568" data-name="Path 3568" d="M1226.11,470.117a4.241,4.241,0,0,0-3.113-1.26,4.09,4.09,0,0,0-3.073,1.268,4.333,4.333,0,0,0-1.2,3.1,4.149,4.149,0,0,0,4.276,4.276,4.327,4.327,0,0,0,3.1-1.205,4.085,4.085,0,0,0,1.27-3.071,4.249,4.249,0,0,0-1.26-3.113" transform="translate(-127.995 -64.756)" fill="#f7f7f7"/>
          <path id="Path_3569" data-name="Path 3569" d="M1274.8,471.744a3.018,3.018,0,0,0-2.214-.9,2.908,2.908,0,0,0-2.187.9,3.092,3.092,0,0,0-.855,2.207,2.952,2.952,0,0,0,3.042,3.042,3.083,3.083,0,0,0,2.208-.856,2.91,2.91,0,0,0,.9-2.186,3.02,3.02,0,0,0-.9-2.214" transform="translate(-146.936 -65.498)" fill="#f7f7f7"/>
          <path id="Path_3570" data-name="Path 3570" d="M1323.857,469.132a4.988,4.988,0,0,0-3.657-1.479,4.8,4.8,0,0,0-3.61,1.49,5.091,5.091,0,0,0-1.415,3.645,4.874,4.874,0,0,0,5.025,5.025,5.092,5.092,0,0,0,3.646-1.415,4.8,4.8,0,0,0,1.491-3.61,5,5,0,0,0-1.48-3.657" transform="translate(-163.943 -64.307)" fill="#f7f7f7"/>
          <path id="Path_3571" data-name="Path 3571" d="M884.241,513.941a3.774,3.774,0,0,0-2.769-1.121,3.638,3.638,0,0,0-2.733,1.129,3.856,3.856,0,0,0-1.07,2.761,3.692,3.692,0,0,0,3.8,3.8,3.855,3.855,0,0,0,2.761-1.071,3.636,3.636,0,0,0,1.13-2.733,3.78,3.78,0,0,0-1.121-2.769" transform="translate(-0.884 -81.141)" fill="#f7f7f7"/>
          <path id="Path_3572" data-name="Path 3572" d="M933.1,513.65a3.993,3.993,0,0,0-2.929-1.186,3.852,3.852,0,0,0-2.892,1.194,4.078,4.078,0,0,0-1.134,2.921,3.907,3.907,0,0,0,4.026,4.026,4.078,4.078,0,0,0,2.921-1.134,3.85,3.85,0,0,0,1.2-2.892,4,4,0,0,0-1.187-2.929" transform="translate(-18.95 -81.008)" fill="#f7f7f7"/>
          <path id="Path_3573" data-name="Path 3573" d="M981.917,513.779a3.9,3.9,0,0,0-2.858-1.158,3.752,3.752,0,0,0-2.824,1.166,3.981,3.981,0,0,0-1.1,2.849,3.81,3.81,0,0,0,3.929,3.929,3.98,3.98,0,0,0,2.849-1.106,3.751,3.751,0,0,0,1.166-2.823,3.9,3.9,0,0,0-1.157-2.857" transform="translate(-37.208 -81.067)" fill="#f7f7f7"/>
          <path id="Path_3574" data-name="Path 3574" d="M1030.885,512.21a5.08,5.08,0,0,0-3.725-1.507,4.894,4.894,0,0,0-3.678,1.519,5.187,5.187,0,0,0-1.44,3.714,4.966,4.966,0,0,0,5.118,5.118,5.188,5.188,0,0,0,3.714-1.442,4.893,4.893,0,0,0,1.519-3.677,5.09,5.09,0,0,0-1.507-3.725" transform="translate(-54.693 -80.352)" fill="#f7f7f7"/>
          <path id="Path_3575" data-name="Path 3575" d="M1079.768,511.6a5.54,5.54,0,0,0-4.063-1.646,5.341,5.341,0,0,0-4.012,1.657,5.659,5.659,0,0,0-1.572,4.05,5.415,5.415,0,0,0,5.584,5.584,5.653,5.653,0,0,0,4.051-1.572,5.339,5.339,0,0,0,1.657-4.012,5.546,5.546,0,0,0-1.645-4.062" transform="translate(-72.612 -80.072)" fill="#f7f7f7"/>
          <path id="Path_3576" data-name="Path 3576" d="M1128.28,515.226a2.8,2.8,0,0,0-2.057-.832,2.7,2.7,0,0,0-2.034.839,2.865,2.865,0,0,0-.8,2.053,2.746,2.746,0,0,0,2.83,2.829,2.863,2.863,0,0,0,2.051-.8,2.7,2.7,0,0,0,.84-2.032,2.806,2.806,0,0,0-.834-2.059" transform="translate(-92.466 -81.727)" fill="#f7f7f7"/>
          <path id="Path_3577" data-name="Path 3577" d="M1177.18,514.437a3.4,3.4,0,0,0-2.495-1.011,3.275,3.275,0,0,0-2.463,1.018,3.473,3.473,0,0,0-.965,2.487,3.321,3.321,0,0,0,3.428,3.428,3.472,3.472,0,0,0,2.487-.966,3.272,3.272,0,0,0,1.018-2.462,3.4,3.4,0,0,0-1.011-2.495" transform="translate(-110.305 -81.367)" fill="#f7f7f7"/>
          <path id="Path_3578" data-name="Path 3578" d="M1225.909,515.605a2.522,2.522,0,0,0-1.849-.748,2.428,2.428,0,0,0-1.826.755,2.57,2.57,0,0,0-.714,1.843A2.463,2.463,0,0,0,1224.06,520a2.575,2.575,0,0,0,1.843-.714,2.431,2.431,0,0,0,.755-1.826,2.526,2.526,0,0,0-.748-1.849" transform="translate(-129.038 -81.9)" fill="#f7f7f7"/>
          <path id="Path_3579" data-name="Path 3579" d="M1274.727,515.738a2.422,2.422,0,0,0-1.776-.718,2.337,2.337,0,0,0-1.754.724,2.478,2.478,0,0,0-.686,1.77,2.368,2.368,0,0,0,2.44,2.44,2.474,2.474,0,0,0,1.771-.686,2.334,2.334,0,0,0,.723-1.754,2.43,2.43,0,0,0-.718-1.776" transform="translate(-147.297 -81.961)" fill="#f7f7f7"/>
          <path id="Path_3580" data-name="Path 3580" d="M1323.694,514.186a3.588,3.588,0,0,0-2.632-1.065,3.458,3.458,0,0,0-2.6,1.074,3.664,3.664,0,0,0-1.019,2.625,3.512,3.512,0,0,0,3.62,3.618,3.666,3.666,0,0,0,2.625-1.019,3.456,3.456,0,0,0,1.074-2.6,3.594,3.594,0,0,0-1.067-2.633" transform="translate(-164.789 -81.253)" fill="#f7f7f7"/>
          <path id="Path_3581" data-name="Path 3581" d="M884.411,555.2a5.229,5.229,0,0,0-3.839-1.554,5.043,5.043,0,0,0-3.791,1.566,5.349,5.349,0,0,0-1.484,3.828,5.119,5.119,0,0,0,5.276,5.277,5.348,5.348,0,0,0,3.828-1.487,5.039,5.039,0,0,0,1.566-3.79,5.237,5.237,0,0,0-1.554-3.839" transform="translate(0 -96.358)" fill="#f7f7f7"/>
          <path id="Path_3582" data-name="Path 3582" d="M933.047,557.414a3.569,3.569,0,0,0-2.62-1.061,3.438,3.438,0,0,0-2.586,1.069,3.647,3.647,0,0,0-1.013,2.61,3.492,3.492,0,0,0,3.6,3.6,3.644,3.644,0,0,0,2.611-1.014,3.437,3.437,0,0,0,1.069-2.585,3.574,3.574,0,0,0-1.06-2.618" transform="translate(-19.206 -97.366)" fill="#f7f7f7"/>
          <path id="Path_3583" data-name="Path 3583" d="M981.949,556.612a4.175,4.175,0,0,0-3.062-1.24,4.02,4.02,0,0,0-3.023,1.249,4.269,4.269,0,0,0-1.185,3.053,4.084,4.084,0,0,0,4.208,4.208,4.262,4.262,0,0,0,3.053-1.186,4.018,4.018,0,0,0,1.249-3.022,4.184,4.184,0,0,0-1.24-3.062" transform="translate(-37.04 -97)" fill="#f7f7f7"/>
          <path id="Path_3584" data-name="Path 3584" d="M1030.832,556.013a4.628,4.628,0,0,0-3.393-1.373,4.458,4.458,0,0,0-3.352,1.383,4.729,4.729,0,0,0-1.312,3.383,4.523,4.523,0,0,0,4.663,4.663,4.723,4.723,0,0,0,3.382-1.313,4.456,4.456,0,0,0,1.384-3.35,4.629,4.629,0,0,0-1.373-3.393" transform="translate(-54.966 -96.727)" fill="#f7f7f7"/>
          <path id="Path_3585" data-name="Path 3585" d="M1079.737,555.166a5.263,5.263,0,0,0-3.861-1.562,5.075,5.075,0,0,0-3.814,1.573,5.383,5.383,0,0,0-1.493,3.85,5.147,5.147,0,0,0,5.307,5.306,5.371,5.371,0,0,0,3.848-1.494,5.071,5.071,0,0,0,1.575-3.811,5.272,5.272,0,0,0-1.562-3.861" transform="translate(-72.779 -96.341)" fill="#f7f7f7"/>
          <path id="Path_3586" data-name="Path 3586" d="M1128.395,557.141a3.776,3.776,0,0,0-2.771-1.122,3.641,3.641,0,0,0-2.734,1.13,3.855,3.855,0,0,0-1.071,2.762,3.694,3.694,0,0,0,3.806,3.806,3.851,3.851,0,0,0,2.762-1.073,3.631,3.631,0,0,0,1.13-2.733,3.778,3.778,0,0,0-1.121-2.77" transform="translate(-91.879 -97.241)" fill="#f7f7f7"/>
          <path id="Path_3587" data-name="Path 3587" d="M1177.206,557.354a3.614,3.614,0,0,0-2.652-1.074,3.483,3.483,0,0,0-2.618,1.083,3.69,3.69,0,0,0-1.026,2.643,3.531,3.531,0,0,0,3.644,3.644,3.682,3.682,0,0,0,2.644-1.027,3.481,3.481,0,0,0,1.083-2.617,3.625,3.625,0,0,0-1.074-2.652" transform="translate(-110.176 -97.338)" fill="#f7f7f7"/>
          <path id="Path_3588" data-name="Path 3588" d="M1226.108,556.546a4.225,4.225,0,0,0-3.1-1.255,4.077,4.077,0,0,0-3.061,1.263,4.314,4.314,0,0,0-1.2,3.089,4.126,4.126,0,0,0,4.257,4.258,4.316,4.316,0,0,0,3.09-1.2,4.074,4.074,0,0,0,1.262-3.059,4.233,4.233,0,0,0-1.253-3.1" transform="translate(-128.007 -96.97)" fill="#f7f7f7"/>
          <path id="Path_3589" data-name="Path 3589" d="M1274.767,558.485a2.763,2.763,0,0,0-2.028-.821,2.661,2.661,0,0,0-2,.826,2.83,2.83,0,0,0-.784,2.022,2.7,2.7,0,0,0,2.786,2.786,2.825,2.825,0,0,0,2.022-.784,2.66,2.66,0,0,0,.828-2,2.765,2.765,0,0,0-.821-2.027" transform="translate(-147.089 -97.854)" fill="#f7f7f7"/>
          <path id="Path_3590" data-name="Path 3590" d="M1323.811,556.067a4.582,4.582,0,0,0-3.363-1.361,4.42,4.42,0,0,0-3.321,1.371,4.691,4.691,0,0,0-1.3,3.353,4.482,4.482,0,0,0,4.621,4.621,4.681,4.681,0,0,0,3.352-1.3,4.418,4.418,0,0,0,1.372-3.32,4.588,4.588,0,0,0-1.361-3.363" transform="translate(-164.186 -96.752)" fill="#f7f7f7"/>
        </g>
        <path id="bady-qb-583088-unsplash-2" data-name="bady-qb-583088-unsplash" d="M422.178,165.6c12.012,11.992,18.109,27.042,18.109,44.728,0,17.732-6.144,32.595-18.243,44.17-11.992,11.481-27,17.3-44.593,17.3-17.652,0-32.46-5.861-44.022-17.423s-17.443-26.39-17.443-44.042c0-17.6,5.835-32.608,17.316-44.593,11.575-12.1,26.424-18.237,44.15-18.237,17.665,0,32.709,6.1,44.728,18.1" transform="translate(-254.929 -128.167)" fill="#5cb8b2"/>
        <g transform="matrix(1, 0, 0, 1, 32, 18.33)" filter="url(#Rectangle_1090)">
          <rect id="Rectangle_1090-2" data-name="Rectangle 1090" width="508.64" height="331.038" rx="10" transform="translate(71.51 43.78)" fill="#fff"/>
        </g>
        <path id="Rectangle_1108" data-name="Rectangle 1108" d="M0,0H508.64a0,0,0,0,1,0,0V4.367a10,10,0,0,1-10,10H10a10,10,0,0,1-10-10V0A0,0,0,0,1,0,0Z" transform="translate(103.508 378.778)" fill="#5cb8b2"/>
        <rect id="Rectangle_1091" data-name="Rectangle 1091" width="401.432" height="268.344" transform="translate(210.716 110.434)" fill="#f7f7f7"/>
        <rect id="Rectangle_1099" data-name="Rectangle 1099" width="181.014" height="102.525" rx="5" transform="translate(224.007 264.326)" fill="#fff"/>
        <rect id="Rectangle_1106" data-name="Rectangle 1106" width="185.144" height="102.525" rx="5" transform="translate(413.711 264.326)" fill="#fff"/>
        <path id="Path_10743" data-name="Path 10743" d="M3.957-4.2H3.168L2-2.319.837-4.2H.027L1.659-1.716V0h.678V-1.7Zm2.448-.078A2.112,2.112,0,0,0,4.206-2.1,2.112,2.112,0,0,0,6.405.078,2.112,2.112,0,0,0,8.6-2.1,2.112,2.112,0,0,0,6.405-4.278Zm0,.651A1.449,1.449,0,0,1,7.893-2.1,1.449,1.449,0,0,1,6.405-.573,1.449,1.449,0,0,1,4.917-2.1,1.449,1.449,0,0,1,6.405-3.627ZM13.143-4.2h-.678v2.493a1,1,0,0,1-1.1,1.131,1,1,0,0,1-1.1-1.131V-4.2H9.579v2.544A1.631,1.631,0,0,0,11.361.075a1.631,1.631,0,0,0,1.782-1.731Zm1.2,0V0h.678V-1.767h.342L16.7,0h.84L16.161-1.767c.855-.03,1.4-.5,1.4-1.218,0-.783-.522-1.215-1.488-1.215Zm1.71.636c.531,0,.8.18.8.579s-.255.6-.8.6H15.024V-3.564ZM20.322-4.2V0H21.99a2.017,2.017,0,0,0,2.181-2.1A2.017,2.017,0,0,0,21.99-4.2Zm1.668.642A1.341,1.341,0,0,1,23.46-2.1,1.345,1.345,0,0,1,21.99-.642H21V-3.558Zm5.184-.72a2.112,2.112,0,0,0-2.2,2.178,2.112,2.112,0,0,0,2.2,2.178,2.112,2.112,0,0,0,2.2-2.178A2.112,2.112,0,0,0,27.174-4.278Zm0,.651A1.449,1.449,0,0,1,28.662-2.1,1.449,1.449,0,0,1,27.174-.573,1.449,1.449,0,0,1,25.686-2.1,1.449,1.449,0,0,1,27.174-3.627Zm5.2-.651a2.112,2.112,0,0,0-2.2,2.178,2.112,2.112,0,0,0,2.2,2.178A2.042,2.042,0,0,0,34.1-.771l-.552-.405a1.382,1.382,0,0,1-1.17.6A1.449,1.449,0,0,1,30.888-2.1a1.449,1.449,0,0,1,1.488-1.527,1.393,1.393,0,0,1,1.173.606l.567-.378A2,2,0,0,0,32.376-4.278Zm6.252.078H37.95v2.493a1,1,0,0,1-1.1,1.131,1,1,0,0,1-1.1-1.131V-4.2h-.678v2.544A1.631,1.631,0,0,0,36.846.075a1.631,1.631,0,0,0,1.782-1.731Zm5.727,0H43.314l-1.221,3-1.221-3H39.831V0h.678V-3.423L41.736-.411h.714l1.227-3.045V0h.678ZM48.678-.636H46.293V-1.8h2.265v-.636H46.293V-3.564h2.346V-4.2H45.615V0h3.063ZM53.46-4.2h-.678v3.039L50.436-4.2h-.612V0H50.5l0-3.039L52.848,0h.612Zm4.2,0h-3.4v.642h1.359V0H56.3V-3.558H57.66Zm3.87.381a2.635,2.635,0,0,0-1.518-.453c-.909,0-1.656.468-1.656,1.311,0,.78.621,1.074,1.245,1.161l.327.045c.615.084.945.237.945.567,0,.387-.432.621-.981.621a2.117,2.117,0,0,1-1.317-.462l-.369.54A2.727,2.727,0,0,0,59.9.075c.909,0,1.683-.468,1.683-1.323,0-.78-.672-1.062-1.353-1.155l-.291-.039c-.546-.078-.873-.213-.873-.561,0-.384.384-.627.945-.627a2.171,2.171,0,0,1,1.179.36Z" transform="translate(117.042 122.867)" fill="#00263e"/>
        <path id="Path_10746" data-name="Path 10746" d="M6.5.9H8.2L10.343-6.62h-1.8L7.229-1.183,5.808-6.62H4.556L3.123-1.183,1.8-6.62H.01L2.165.9h1.7L5.176-4.262Zm3.768-2.73a2.759,2.759,0,0,0,2.91,2.865A3.358,3.358,0,0,0,15.419.283l-.632-.925A2.228,2.228,0,0,1,13.332-.1a1.468,1.468,0,0,1-1.568-1.263h4.05v-.316a2.732,2.732,0,0,0-2.73-3A2.773,2.773,0,0,0,10.264-1.826Zm2.82-1.715a1.262,1.262,0,0,1,1.342,1.207H11.742A1.309,1.309,0,0,1,13.084-3.541ZM16.851.9h1.433V-6.62H16.851Zm2.5-2.73a2.766,2.766,0,0,0,2.888,2.865A2.511,2.511,0,0,0,24.4.047l-.936-.869a1.375,1.375,0,0,1-1.151.587,1.465,1.465,0,0,1-1.478-1.591,1.456,1.456,0,0,1,1.478-1.579,1.347,1.347,0,0,1,1.151.587l.936-.869a2.511,2.511,0,0,0-2.155-.993A2.764,2.764,0,0,0,19.356-1.826Zm8.505,2.865a2.765,2.765,0,0,0,2.888-2.865A2.762,2.762,0,0,0,27.861-4.68a2.759,2.759,0,0,0-2.876,2.854A2.762,2.762,0,0,0,27.861,1.039Zm0-1.275a1.433,1.433,0,0,1-1.387-1.591,1.43,1.43,0,0,1,1.387-1.579,1.438,1.438,0,0,1,1.4,1.579A1.442,1.442,0,0,1,27.861-.235ZM38.566.9H40.01V-3.033a1.454,1.454,0,0,0-1.6-1.647,2.312,2.312,0,0,0-1.873.993,1.442,1.442,0,0,0-1.512-.993,2.383,2.383,0,0,0-1.782.846v-.711H31.809V.9h1.433V-2.762a1.462,1.462,0,0,1,1.128-.643c.587,0,.812.361.812.869V.9h1.444V-2.773a1.446,1.446,0,0,1,1.128-.632c.587,0,.812.361.812.869Zm2.5-2.73a2.759,2.759,0,0,0,2.91,2.865A3.358,3.358,0,0,0,46.225.283l-.632-.925A2.228,2.228,0,0,1,44.139-.1a1.468,1.468,0,0,1-1.568-1.263h4.05v-.316a2.732,2.732,0,0,0-2.73-3A2.773,2.773,0,0,0,41.07-1.826Zm2.82-1.715a1.262,1.262,0,0,1,1.342,1.207H42.548A1.309,1.309,0,0,1,43.89-3.541Zm8.483,4.58a1.769,1.769,0,0,0,1.2-.35l-.3-1.083a.783.783,0,0,1-.5.158c-.316,0-.5-.259-.5-.6V-3.292h1.105V-4.544H52.272V-6.033H50.828v1.489h-.9v1.252h.9V-.45A1.362,1.362,0,0,0,52.373,1.039Zm4.512,0a2.765,2.765,0,0,0,2.888-2.865A2.762,2.762,0,0,0,56.885-4.68a2.759,2.759,0,0,0-2.876,2.854A2.762,2.762,0,0,0,56.885,1.039Zm0-1.275A1.433,1.433,0,0,1,55.5-1.826a1.43,1.43,0,0,1,1.387-1.579,1.438,1.438,0,0,1,1.4,1.579A1.442,1.442,0,0,1,56.885-.235ZM63.744,1.75l-.214,1.286a3.916,3.916,0,0,0,.711.079A1.98,1.98,0,0,0,66.3,1.8l2.561-6.34H67.32L65.9-.754l-1.421-3.79H62.943L65.154.983l-.2.462a.723.723,0,0,1-.756.395A1.238,1.238,0,0,1,63.744,1.75Zm8.291-.711a2.765,2.765,0,0,0,2.888-2.865A2.762,2.762,0,0,0,72.035-4.68a2.759,2.759,0,0,0-2.876,2.854A2.762,2.762,0,0,0,72.035,1.039Zm0-1.275a1.433,1.433,0,0,1-1.387-1.591,1.43,1.43,0,0,1,1.387-1.579,1.438,1.438,0,0,1,1.4,1.579A1.442,1.442,0,0,1,72.035-.235ZM79.66.9h1.433V-4.544H79.66V-.856a1.6,1.6,0,0,1-1.241.62.876.876,0,0,1-1-1V-4.544H75.983V-.675a1.56,1.56,0,0,0,1.76,1.715A2.55,2.55,0,0,0,79.66.216Zm2.854,0h1.433v-3.6A1.816,1.816,0,0,1,85.289-3.3a1.9,1.9,0,0,1,.395.034v-1.4a2.331,2.331,0,0,0-1.737.869v-.744H82.514Zm12.25,0h1.748l-2.9-7.524H91.606L88.7.9h1.76l.474-1.3h3.362ZM92.61-5.233l1.241,3.452H91.358ZM97.066,2.3a3.283,3.283,0,0,0,2.346.812c1.342,0,2.944-.508,2.944-2.583V-4.544h-1.444v.7a2.1,2.1,0,0,0-1.681-.835c-1.376,0-2.4.993-2.4,2.775,0,1.816,1.038,2.775,2.4,2.775a2.122,2.122,0,0,0,1.681-.857V.565a1.332,1.332,0,0,1-1.5,1.376,2.165,2.165,0,0,1-1.7-.677Zm3.847-3.328a1.587,1.587,0,0,1-1.23.62,1.351,1.351,0,0,1-1.376-1.5,1.351,1.351,0,0,1,1.376-1.5,1.553,1.553,0,0,1,1.23.62Zm3.576-4.32a.857.857,0,0,0,.857-.857.857.857,0,0,0-.857-.857.864.864,0,0,0-.857.857A.864.864,0,0,0,104.488-5.345ZM103.777.9h1.433V-4.544h-1.433Zm2.854,0h1.433V-6.62h-1.433ZM110.2-5.345a.857.857,0,0,0,.857-.857.857.857,0,0,0-.857-.857.864.864,0,0,0-.857.857A.864.864,0,0,0,110.2-5.345ZM109.485.9h1.433V-4.544h-1.433Zm4.681.135a1.769,1.769,0,0,0,1.2-.35l-.3-1.083a.783.783,0,0,1-.5.158c-.316,0-.5-.259-.5-.6V-3.292h1.105V-4.544h-1.105V-6.033h-1.444v1.489h-.9v1.252h.9V-.45A1.362,1.362,0,0,0,114.167,1.039Zm2.008.711-.214,1.286a3.916,3.916,0,0,0,.711.079,1.98,1.98,0,0,0,2.064-1.32l2.561-6.34H119.75l-1.421,3.79-1.421-3.79h-1.534L117.585.983l-.2.462a.723.723,0,0,1-.756.395A1.238,1.238,0,0,1,116.175,1.75ZM128.572.9h1.444V-6.62h-1.444v2.775a2.1,2.1,0,0,0-1.681-.835c-1.387,0-2.414,1.083-2.414,2.865,0,1.816,1.038,2.854,2.414,2.854a2.137,2.137,0,0,0,1.681-.823Zm0-1.76a1.576,1.576,0,0,1-1.241.62,1.419,1.419,0,0,1-1.376-1.579,1.423,1.423,0,0,1,1.376-1.591,1.576,1.576,0,0,1,1.241.62ZM134.708.9h1.433V-2.616c0-1.568-1.139-2.064-2.38-2.064a3.574,3.574,0,0,0-2.38.857l.541.959a2.292,2.292,0,0,1,1.591-.643c.722,0,1.2.361,1.2.914v.756a2.2,2.2,0,0,0-1.726-.666,1.725,1.725,0,0,0-1.9,1.737,1.815,1.815,0,0,0,1.9,1.8,2.255,2.255,0,0,0,1.726-.7Zm0-1.309a1.433,1.433,0,0,1-1.151.474c-.564,0-1.027-.293-1.027-.8s.462-.823,1.027-.823a1.433,1.433,0,0,1,1.151.474Zm2.38.6a3.668,3.668,0,0,0,2.437.846c1.512,0,2.358-.744,2.358-1.748,0-1.354-1.252-1.6-2.188-1.782-.609-.124-1.038-.248-1.038-.587,0-.316.338-.508.857-.508a2.3,2.3,0,0,1,1.613.632l.564-.981A3.423,3.423,0,0,0,139.5-4.68c-1.433,0-2.234.8-2.234,1.715,0,1.3,1.207,1.523,2.143,1.7.62.124,1.094.259,1.094.643,0,.338-.293.553-.914.553a3.118,3.118,0,0,1-1.884-.744ZM146.631.9h1.433V-2.965a1.569,1.569,0,0,0-1.771-1.715,2.521,2.521,0,0,0-1.918.846V-6.62h-1.433V.9h1.433V-2.762a1.587,1.587,0,0,1,1.241-.643c.62,0,1.015.237,1.015.993Zm2.854,0h1.433V.216a2.137,2.137,0,0,0,1.681.823c1.376,0,2.414-1.038,2.414-2.854,0-1.782-1.027-2.865-2.414-2.865a2.1,2.1,0,0,0-1.681.835V-6.62h-1.433Zm1.433-1.748V-2.773a1.581,1.581,0,0,1,1.23-.632,1.418,1.418,0,0,1,1.387,1.591,1.408,1.408,0,0,1-1.387,1.579A1.6,1.6,0,0,1,150.918-.845Zm7.7,1.884a2.765,2.765,0,0,0,2.888-2.865,2.762,2.762,0,0,0-2.888-2.854,2.759,2.759,0,0,0-2.876,2.854A2.762,2.762,0,0,0,158.622,1.039Zm0-1.275a1.434,1.434,0,0,1-1.387-1.591,1.43,1.43,0,0,1,1.387-1.579,1.438,1.438,0,0,1,1.4,1.579A1.442,1.442,0,0,1,158.622-.235ZM165.842.9h1.433V-2.616c0-1.568-1.139-2.064-2.38-2.064a3.574,3.574,0,0,0-2.38.857l.541.959a2.292,2.292,0,0,1,1.591-.643c.722,0,1.2.361,1.2.914v.756a2.2,2.2,0,0,0-1.726-.666,1.725,1.725,0,0,0-1.9,1.737,1.815,1.815,0,0,0,1.9,1.8,2.255,2.255,0,0,0,1.726-.7Zm0-1.309a1.433,1.433,0,0,1-1.151.474c-.564,0-1.027-.293-1.027-.8s.462-.823,1.027-.823a1.433,1.433,0,0,1,1.151.474ZM168.7.9h1.433v-3.6a1.816,1.816,0,0,1,1.342-.609,1.9,1.9,0,0,1,.395.034v-1.4a2.331,2.331,0,0,0-1.737.869v-.744H168.7ZM176.5.9h1.444V-6.62H176.5v2.775a2.1,2.1,0,0,0-1.681-.835c-1.387,0-2.414,1.083-2.414,2.865,0,1.816,1.038,2.854,2.414,2.854A2.137,2.137,0,0,0,176.5.216Zm0-1.76a1.576,1.576,0,0,1-1.241.62,1.419,1.419,0,0,1-1.376-1.579,1.423,1.423,0,0,1,1.376-1.591,1.576,1.576,0,0,1,1.241.62Zm2.685.97a.914.914,0,1,0,1.827,0,.914.914,0,1,0-1.827,0Z" transform="translate(224.008 133.791)" fill="#00263e"/>
        <path id="Path_10744" data-name="Path 10744" d="M4.077-4.2H3.4v2.493A1,1,0,0,1,2.3-.576a1,1,0,0,1-1.1-1.131V-4.2H.513v2.544A1.631,1.631,0,0,0,2.3.075,1.631,1.631,0,0,0,4.077-1.656ZM6.909-1.65c.969,0,1.488-.489,1.488-1.275S7.878-4.2,6.909-4.2H5.28V0h.678V-1.65ZM6.891-3.561c.549,0,.8.2.8.636s-.252.636-.8.636H5.958V-3.561ZM12.375-.642H10.05V-4.2H9.372V0h3ZM14.97-4.278a2.112,2.112,0,0,0-2.2,2.178A2.112,2.112,0,0,0,14.97.078a2.112,2.112,0,0,0,2.2-2.178A2.112,2.112,0,0,0,14.97-4.278Zm0,.651A1.449,1.449,0,0,1,16.458-2.1,1.449,1.449,0,0,1,14.97-.573,1.449,1.449,0,0,1,13.482-2.1,1.449,1.449,0,0,1,14.97-3.627ZM20.106-4.2H19.26L17.6,0h.7l.414-1.071h1.9L21.036,0h.729Zm-.435.675.7,1.812h-1.4ZM22.545-4.2V0h1.668a2.017,2.017,0,0,0,2.181-2.1,2.017,2.017,0,0,0-2.181-2.1Zm1.668.642A1.341,1.341,0,0,1,25.683-2.1a1.345,1.345,0,0,1-1.47,1.458h-.99V-3.558ZM29.166-4.2V0h1.668a2.017,2.017,0,0,0,2.181-2.1,2.017,2.017,0,0,0-2.181-2.1Zm1.668.642A1.341,1.341,0,0,1,32.3-2.1a1.345,1.345,0,0,1-1.47,1.458h-.99V-3.558Zm5.184-.72a2.112,2.112,0,0,0-2.2,2.178,2.112,2.112,0,0,0,2.2,2.178,2.112,2.112,0,0,0,2.2-2.178A2.112,2.112,0,0,0,36.018-4.278Zm0,.651A1.449,1.449,0,0,1,37.506-2.1,1.449,1.449,0,0,1,36.018-.573,1.449,1.449,0,0,1,34.53-2.1,1.449,1.449,0,0,1,36.018-3.627Zm5.2-.651a2.112,2.112,0,0,0-2.2,2.178A2.112,2.112,0,0,0,41.22.078a2.042,2.042,0,0,0,1.722-.849l-.552-.405a1.382,1.382,0,0,1-1.17.6A1.449,1.449,0,0,1,39.732-2.1,1.449,1.449,0,0,1,41.22-3.627a1.393,1.393,0,0,1,1.173.606L42.96-3.4A2,2,0,0,0,41.22-4.278Zm6.252.078h-.678v2.493a1,1,0,0,1-1.1,1.131,1,1,0,0,1-1.1-1.131V-4.2h-.678v2.544A1.631,1.631,0,0,0,45.69.075a1.631,1.631,0,0,0,1.782-1.731Zm5.727,0H52.158l-1.221,3-1.221-3H48.675V0h.678V-3.423L50.58-.411h.714l1.227-3.045V0H53.2ZM57.522-.636H55.137V-1.8H57.4v-.636H55.137V-3.564h2.346V-4.2H54.459V0h3.063ZM62.3-4.2h-.678v3.039L59.28-4.2h-.612V0h.678l0-3.039L61.692,0H62.3Zm4.2,0h-3.4v.642h1.359V0h.678V-3.558H66.5Zm3.87.381a2.635,2.635,0,0,0-1.518-.453c-.909,0-1.656.468-1.656,1.311,0,.78.621,1.074,1.245,1.161l.327.045c.615.084.945.237.945.567,0,.387-.432.621-.981.621a2.117,2.117,0,0,1-1.317-.462l-.369.54a2.727,2.727,0,0,0,1.689.564c.909,0,1.683-.468,1.683-1.323,0-.78-.672-1.062-1.353-1.155l-.291-.039C68.232-2.52,67.9-2.655,67.9-3c0-.384.384-.627.945-.627a2.171,2.171,0,0,1,1.179.36Z" transform="translate(117.042 141.455)" fill="#00263e"/>
        <path id="Path_10745" data-name="Path 10745" d="M2.541-4.278A2.112,2.112,0,0,0,.342-2.1,2.112,2.112,0,0,0,2.541.078,2.042,2.042,0,0,0,4.263-.771l-.552-.405a1.382,1.382,0,0,1-1.17.6A1.449,1.449,0,0,1,1.053-2.1,1.449,1.449,0,0,1,2.541-3.627a1.393,1.393,0,0,1,1.173.606L4.281-3.4A2,2,0,0,0,2.541-4.278Zm4.656,0A2.112,2.112,0,0,0,5-2.1,2.112,2.112,0,0,0,7.2.078,2.112,2.112,0,0,0,9.4-2.1,2.112,2.112,0,0,0,7.2-4.278Zm0,.651A1.449,1.449,0,0,1,8.685-2.1,1.449,1.449,0,0,1,7.2-.573,1.449,1.449,0,0,1,5.709-2.1,1.449,1.449,0,0,1,7.2-3.627ZM14.064-4.2h-.678v3.039L11.04-4.2h-.612V0h.678l0-3.039L13.452,0h.612Zm4.2,0h-3.4v.642h1.359V0h.678V-3.558h1.359Zm2.529,0h-.846L18.288,0h.7l.414-1.071h1.9L21.723,0h.729Zm-.435.675.7,1.812h-1.4Zm4.725-.753a2.112,2.112,0,0,0-2.2,2.178,2.112,2.112,0,0,0,2.2,2.178,2.042,2.042,0,0,0,1.722-.849l-.552-.405a1.382,1.382,0,0,1-1.17.6A1.449,1.449,0,0,1,23.595-2.1a1.449,1.449,0,0,1,1.488-1.527,1.393,1.393,0,0,1,1.173.606l.567-.378A2,2,0,0,0,25.083-4.278Zm5.745.078h-3.4v.642h1.359V0h.678V-3.558h1.359Z" transform="translate(117.042 159.354)" fill="#00263e"/>
        <path id="Path_10747" data-name="Path 10747" d="M4.077-4.2H3.4v2.493A1,1,0,0,1,2.3-.576a1,1,0,0,1-1.1-1.131V-4.2H.513v2.544A1.631,1.631,0,0,0,2.3.075,1.631,1.631,0,0,0,4.077-1.656Zm4.3.381a2.635,2.635,0,0,0-1.518-.453C5.949-4.272,5.2-3.8,5.2-2.961c0,.78.621,1.074,1.245,1.161l.327.045c.615.084.945.237.945.567,0,.387-.432.621-.981.621a2.117,2.117,0,0,1-1.317-.462l-.369.54A2.727,2.727,0,0,0,6.741.075c.909,0,1.683-.468,1.683-1.323,0-.78-.672-1.062-1.353-1.155L6.78-2.442C6.234-2.52,5.907-2.655,5.907-3c0-.384.384-.627.945-.627a2.171,2.171,0,0,1,1.179.36ZM12.519-.636H10.134V-1.8H12.4v-.636H10.134V-3.564H12.48V-4.2H9.456V0h3.063ZM13.665-4.2V0h.678V-1.767h.342L16.023,0h.84L15.48-1.767c.855-.03,1.4-.5,1.4-1.218,0-.783-.522-1.215-1.488-1.215Zm1.71.636c.531,0,.8.18.8.579s-.255.6-.8.6H14.343V-3.564Zm6.2-.636H20.73L19.071,0h.7l.414-1.071h1.9L22.506,0h.729Zm-.435.675.7,1.812h-1.4Zm4.725-.753a2.112,2.112,0,0,0-2.2,2.178,2.112,2.112,0,0,0,2.2,2.178,2.042,2.042,0,0,0,1.722-.849l-.552-.405a1.382,1.382,0,0,1-1.17.6A1.449,1.449,0,0,1,24.378-2.1a1.449,1.449,0,0,1,1.488-1.527,1.393,1.393,0,0,1,1.173.606l.567-.378A2,2,0,0,0,25.866-4.278Zm4.656,0a2.112,2.112,0,0,0-2.2,2.178,2.112,2.112,0,0,0,2.2,2.178,2.042,2.042,0,0,0,1.722-.849l-.552-.405a1.382,1.382,0,0,1-1.17.6A1.449,1.449,0,0,1,29.034-2.1a1.449,1.449,0,0,1,1.488-1.527,1.393,1.393,0,0,1,1.173.606l.567-.378A2,2,0,0,0,30.522-4.278ZM36.33-.636H33.945V-1.8H36.21v-.636H33.945V-3.564h2.346V-4.2H33.267V0H36.33Zm4.242-3.183a2.635,2.635,0,0,0-1.518-.453c-.909,0-1.656.468-1.656,1.311,0,.78.621,1.074,1.245,1.161l.327.045c.615.084.945.237.945.567,0,.387-.432.621-.981.621a2.117,2.117,0,0,1-1.317-.462l-.369.54a2.727,2.727,0,0,0,1.689.564c.909,0,1.683-.468,1.683-1.323,0-.78-.672-1.062-1.353-1.155l-.291-.039C38.43-2.52,38.1-2.655,38.1-3c0-.384.384-.627.945-.627a2.171,2.171,0,0,1,1.179.36Zm4.176,0a2.635,2.635,0,0,0-1.518-.453c-.909,0-1.656.468-1.656,1.311,0,.78.621,1.074,1.245,1.161l.327.045c.615.084.945.237.945.567,0,.387-.432.621-.981.621a2.117,2.117,0,0,1-1.317-.462l-.369.54a2.727,2.727,0,0,0,1.689.564c.909,0,1.683-.468,1.683-1.323,0-.78-.672-1.062-1.353-1.155l-.291-.039c-.546-.078-.873-.213-.873-.561,0-.384.384-.627.945-.627a2.171,2.171,0,0,1,1.179.36Z" transform="translate(117.042 177.941)" fill="#00263e"/>
        <path id="Path_10748" data-name="Path 10748" d="M1.248-4.2H.57V0h.678Zm4.9,0H5.466v3.039L3.12-4.2H2.508V0h.678l0-3.039L5.532,0h.612Zm4.83,0h-.7L8.955-.687,7.647-4.2H6.924L8.526,0h.846Zm2.661-.078a2.112,2.112,0,0,0-2.2,2.178,2.112,2.112,0,0,0,2.2,2.178,2.112,2.112,0,0,0,2.2-2.178A2.112,2.112,0,0,0,13.635-4.278Zm0,.651A1.449,1.449,0,0,1,15.123-2.1,1.449,1.449,0,0,1,13.635-.573,1.449,1.449,0,0,1,12.147-2.1,1.449,1.449,0,0,1,13.635-3.627ZM17.544-4.2h-.678V0h.678Zm3.231-.078a2.112,2.112,0,0,0-2.2,2.178,2.112,2.112,0,0,0,2.2,2.178A2.042,2.042,0,0,0,22.5-.771l-.552-.405a1.382,1.382,0,0,1-1.17.6A1.449,1.449,0,0,1,19.287-2.1a1.449,1.449,0,0,1,1.488-1.527,1.393,1.393,0,0,1,1.173.606l.567-.378A2,2,0,0,0,20.775-4.278ZM26.583-.636H24.2V-1.8h2.265v-.636H24.2V-3.564h2.346V-4.2H23.52V0h3.063Zm4.242-3.183a2.635,2.635,0,0,0-1.518-.453c-.909,0-1.656.468-1.656,1.311,0,.78.621,1.074,1.245,1.161l.327.045c.615.084.945.237.945.567,0,.387-.432.621-.981.621a2.117,2.117,0,0,1-1.317-.462l-.369.54A2.727,2.727,0,0,0,29.19.075c.909,0,1.683-.468,1.683-1.323,0-.78-.672-1.062-1.353-1.155l-.291-.039c-.546-.078-.873-.213-.873-.561,0-.384.384-.627.945-.627a2.171,2.171,0,0,1,1.179.36Z" transform="translate(117.042 196.528)" fill="#00263e"/>
        <circle id="Ellipse_1081" data-name="Ellipse 1081" cx="8.949" cy="8.949" r="8.949" transform="translate(580.957 78.578)" fill="#e6e6e6"/>
        <circle id="Ellipse_1074" data-name="Ellipse 1074" cx="8.949" cy="8.949" r="8.949" transform="translate(232 287.326)" fill="#e6e6e6"/>
        <circle id="Ellipse_1075" data-name="Ellipse 1075" cx="8.949" cy="8.949" r="8.949" transform="translate(231.888 311.326)" fill="#e6e6e6"/>
        <circle id="Ellipse_1077" data-name="Ellipse 1077" cx="8.949" cy="8.949" r="8.949" transform="translate(422 287.326)" fill="#ddf0ef"/>
        <circle id="Ellipse_1078" data-name="Ellipse 1078" cx="8.949" cy="8.949" r="8.949" transform="translate(422.436 335.587)" fill="#fde6d2"/>
        <circle id="Ellipse_1079" data-name="Ellipse 1079" cx="8.949" cy="8.949" r="8.949" transform="translate(422.436 311.326)" fill="#fde6d2"/>
        <circle id="Ellipse_1076" data-name="Ellipse 1076" cx="8.949" cy="8.949" r="8.949" transform="translate(231.888 335.924)" fill="#e6e6e6"/>
        <rect id="Rectangle_1115" data-name="Rectangle 1115" width="38.551" height="4.13" rx="2.065" transform="translate(538.275 82.122)" fill="#e6e6e6"/>
        <rect id="Rectangle_1100" data-name="Rectangle 1100" width="112.9" height="4.13" rx="2.065" transform="translate(254.807 290.711)" fill="#e6e6e6"/>
        <rect id="Rectangle_1109" data-name="Rectangle 1109" width="112.9" height="4.13" rx="2.065" transform="translate(445.833 290.21)" fill="#e6e6e6"/>
        <rect id="Rectangle_1110" data-name="Rectangle 1110" width="112.9" height="4.13" rx="2.065" transform="translate(445.833 314.71)" fill="#e6e6e6"/>
        <rect id="Rectangle_1111" data-name="Rectangle 1111" width="112.9" height="4.13" rx="2.065" transform="translate(445.833 337.711)" fill="#e6e6e6"/>
        <rect id="Rectangle_1102" data-name="Rectangle 1102" width="112.9" height="4.13" rx="2.065" transform="translate(254.807 314.711)" fill="#e6e6e6"/>
        <rect id="Rectangle_1104" data-name="Rectangle 1104" width="112.9" height="4.13" rx="2.065" transform="translate(254.807 339.308)" fill="#e6e6e6"/>
        <rect id="Rectangle_1101" data-name="Rectangle 1101" width="85.363" height="4.13" rx="2.065" transform="translate(254.807 297.711)" fill="#e6e6e6"/>
        <rect id="Rectangle_1112" data-name="Rectangle 1112" width="85.363" height="4.13" rx="2.065" transform="translate(445.833 297.21)" fill="#e6e6e6"/>
        <rect id="Rectangle_1113" data-name="Rectangle 1113" width="85.363" height="4.13" rx="2.065" transform="translate(445.833 321.71)" fill="#e6e6e6"/>
        <rect id="Rectangle_1114" data-name="Rectangle 1114" width="85.363" height="4.13" rx="2.065" transform="translate(445.833 344.711)" fill="#e6e6e6"/>
        <rect id="Rectangle_1103" data-name="Rectangle 1103" width="85.363" height="4.13" rx="2.065" transform="translate(254.807 321.711)" fill="#e6e6e6"/>
        <rect id="Rectangle_1105" data-name="Rectangle 1105" width="85.363" height="4.13" rx="2.065" transform="translate(254.807 346.308)" fill="#e6e6e6"/>
        <rect id="Rectangle_1116" data-name="Rectangle 1116" width="26.848" height="4.13" rx="2.065" transform="translate(549.978 88.802)" fill="#e6e6e6"/>
        <g id="Group_1444" data-name="Group 1444" transform="translate(117.042 75.68)">
          <g id="Group_1406" data-name="Group 1406" transform="translate(0 0)">
            <path id="Path_10307" data-name="Path 10307" d="M24.463,171.17A1.458,1.458,0,1,1,23,172.628h0a1.458,1.458,0,0,1,1.458-1.458" transform="translate(-23 -154.441)" fill="#ff8200"/>
            <path id="Path_10308" data-name="Path 10308" d="M167.227,171.17a1.458,1.458,0,1,1-1.457,1.458h0a1.457,1.457,0,0,1,1.457-1.458" transform="translate(-149.184 -154.441)" fill="#ff8200"/>
            <path id="Path_10309" data-name="Path 10309" d="M131.451,100.17A1.458,1.458,0,1,1,130,101.628h0a1.458,1.458,0,0,1,1.457-1.458" transform="translate(-117.57 -91.689)" fill="#ff8200"/>
            <path id="Path_10310" data-name="Path 10310" d="M58.317,100.17a1.458,1.458,0,1,1-1.457,1.458h0a1.458,1.458,0,0,1,1.457-1.458" transform="translate(-52.926 -91.689)" fill="#ff8200"/>
            <path id="Path_10311" data-name="Path 10311" d="M91.038,27.17a1.458,1.458,0,1,1-1.458,1.458h0a1.459,1.459,0,0,1,1.458-1.458" transform="translate(-81.845 -27.17)" fill="#ff8200"/>
            <rect id="Rectangle_988" data-name="Rectangle 988" width="9.397" height="1.162" transform="translate(4.724 9.744) rotate(-65.2)" fill="#ff8200"/>
            <rect id="Rectangle_989" data-name="Rectangle 989" width="1.162" height="9.238" transform="translate(13.362 10.199) rotate(-26.77)" fill="#ff8200"/>
            <rect id="Rectangle_990" data-name="Rectangle 990" width="8.632" height="1.162" transform="matrix(1, -0.006, 0.006, 1, 5.249, 9.406)" fill="#ff8200"/>
          </g>
          <g id="Group_1433" data-name="Group 1433" transform="translate(52.946 20.679)">
            <ellipse id="Ellipse_991" data-name="Ellipse 991" cx="0.523" cy="0.523" rx="0.523" ry="0.523" transform="translate(30.239 3.204)" fill="#ff8200"/>
            <path id="Path_10312" data-name="Path 10312" d="M480.328,206.143c.868,0,1.522.3,1.522,1.106a.889.889,0,0,1-.627.865.984.984,0,0,1,.72.929c0,.813-.6,1.162-1.522,1.162H478.75V206.14Zm-.921.616v1.094h.9c.457,0,.854-.07.854-.554s-.4-.54-.86-.54Zm0,1.708v1.127h.985c.517,0,.862-.1.862-.569s-.348-.558-.862-.558Z" transform="translate(-478.75 -206.027)" fill="#00263e"/>
            <path id="Path_10313" data-name="Path 10313" d="M510.392,221.2h-.674l1-1.751-1.234-2.207h.682l.894,1.6.862-1.6h.668Z" transform="translate(-505.91 -215.838)" fill="#00263e"/>
            <path id="Path_10314" data-name="Path 10314" d="M553.033,210.226h-.705l-.4-1.036h-1.841l-.4,1.036H549l1.606-4.066h.813Zm-2.706-1.658h1.359l-.679-1.754Z" transform="translate(-540.839 -206.045)" fill="#00263e"/>
            <path id="Path_10315" data-name="Path 10315" d="M589.1,217.037l-.389.416a.929.929,0,0,0-.668-.287.894.894,0,0,0,0,1.782,1.013,1.013,0,0,0,.683-.29l.374.418a1.344,1.344,0,0,1-1.04.445,1.464,1.464,0,0,1,0-2.928,1.33,1.33,0,0,1,1.04.444" transform="translate(-574.071 -215.266)" fill="#00263e"/>
            <path id="Path_10316" data-name="Path 10316" d="M614.257,217.036l-.387.416a.929.929,0,0,0-.668-.287.894.894,0,0,0,0,1.782,1.01,1.01,0,0,0,.682-.29l.375.418a1.342,1.342,0,0,1-1.046.445,1.464,1.464,0,0,1,0-2.928,1.331,1.331,0,0,1,1.046.444" transform="translate(-596.299 -215.264)" fill="#00263e"/>
            <rect id="Rectangle_991" data-name="Rectangle 991" width="0.61" height="4.181" transform="translate(18.638 0)" fill="#00263e"/>
            <path id="Path_10317" data-name="Path 10317" d="M652.433,205.73a.421.421,0,0,1-.417.423H652a.415.415,0,0,1-.424-.407v-.016a.419.419,0,0,1,.41-.43H652a.424.424,0,0,1,.43.419v.01m-.116,3.742h-.61v-2.787h.61Z" transform="translate(-631.501 -205.285)" fill="#00263e"/>
            <path id="Path_10318" data-name="Path 10318" d="M670.644,217.688v1.743h-.61v-1.543c0-.465-.241-.728-.647-.728a.688.688,0,0,0-.721.655.588.588,0,0,0,0,.079v1.542h-.609v-1.547c0-.465-.242-.728-.648-.728a.688.688,0,0,0-.72.655v1.621h-.609v-2.781h.6v.339a.989.989,0,0,1,.854-.412,1.1,1.1,0,0,1,.961.5,1.129,1.129,0,0,1,1.017-.5,1.072,1.072,0,0,1,1.129,1.107" transform="translate(-644.317 -215.254)" fill="#00263e"/>
            <path id="Path_10319" data-name="Path 10319" d="M714.3,218.094c0,.079-.006.157-.012.232h-2.056a.787.787,0,0,0,.828.709,1.326,1.326,0,0,0,.8-.293l.3.432a1.672,1.672,0,0,1-1.144.393A1.373,1.373,0,0,1,711.6,218.1a1.352,1.352,0,0,1,1.386-1.464,1.327,1.327,0,0,1,1.315,1.46m-2.064-.232h1.443a.7.7,0,0,0-.705-.685.718.718,0,0,0-.738.685" transform="translate(-684.549 -215.308)" fill="#00263e"/>
          </g>
          <g id="Group_1405" data-name="Group 1405" transform="translate(20.167 4.765)">
            <path id="Path_10320" data-name="Path 10320" d="M410.662,69.824a.862.862,0,0,0-1.219-.017l-.017.017a.853.853,0,0,0-.253.6v8.132a.869.869,0,1,0,1.737.021h0V70.426a.852.852,0,0,0-.247-.6" transform="translate(-384.476 -69.403)" fill="#00263e"/>
            <path id="Path_10321" data-name="Path 10321" d="M465.417,77.958a.843.843,0,0,0-.616-.252h-4.98V70.433a.865.865,0,0,0-1.457-.63l-.021.021a.836.836,0,0,0-.254.609v8.132a.832.832,0,0,0,.261.618.842.842,0,0,0,.606.25H464.8a.871.871,0,0,0,.616-1.484" transform="translate(-427.711 -69.409)" fill="#00263e"/>
            <path id="Path_10322" data-name="Path 10322" d="M548.175,69.823a.862.862,0,0,0-1.218-.019h0l-.019.017a.846.846,0,0,0-.25.6v8.132a.868.868,0,1,0,1.736.02V70.426a.852.852,0,0,0-.25-.608" transform="translate(-506.018 -69.403)" fill="#00263e"/>
            <path id="Path_10323" data-name="Path 10323" d="M594.187,69.818a.84.84,0,0,0-.61-.259h-6.622a.834.834,0,0,0-.618.261.865.865,0,0,0,.618,1.475h2.44v7.268a.868.868,0,1,0,1.736,0V71.3h2.44a.866.866,0,0,0,.638-1.453l-.021-.02" transform="translate(-540.838 -69.4)" fill="#00263e"/>
            <path id="Path_10324" data-name="Path 10324" d="M682.021,70.321a.819.819,0,0,0-.349-.568.869.869,0,0,0-.646-.155.813.813,0,0,0-.566.349c-.45.615-.869,1.194-1.248,1.723-.173.232-.349.473-.517.713s-.338.471-.5.69-.315.43-.455.625l-.206.283-.2-.28c-.142-.2-.293-.4-.455-.625l-.509-.7q-.265-.359-.509-.711c-.392-.534-.813-1.113-1.245-1.719a.819.819,0,0,0-.568-.349.864.864,0,0,0-.648.151.812.812,0,0,0-.348.568.868.868,0,0,0,.157.648l3.462,4.763v2.854a.868.868,0,0,0,1.736.021h0V75.733l3.464-4.763a.868.868,0,0,0,.155-.645" transform="translate(-617.689 -69.425)" fill="#00263e"/>
            <path id="Path_10325" data-name="Path 10325" d="M309.439,72.93h-2.091a.855.855,0,0,0,0,1.71h1.209V75.9a3.162,3.162,0,0,1-.94.546,3.4,3.4,0,0,1-3.561-.768,3.551,3.551,0,0,1-.734-1.1,3.384,3.384,0,0,1,1.83-4.4,3.442,3.442,0,0,1,2.58,0,3.208,3.208,0,0,1,1.089.742.9.9,0,0,0,1.223,0l.009-.009a.9.9,0,0,0,0-1.227,5.3,5.3,0,0,0-1.626-1.1,5.216,5.216,0,0,0-3.966,0h0a5.56,5.56,0,0,0-1.626,1.1,5.005,5.005,0,0,0-1.1,1.625,5.1,5.1,0,0,0-.408,1.987,5.165,5.165,0,0,0,1.493,3.6,4.943,4.943,0,0,0,1.632,1.1,5.008,5.008,0,0,0,1.987.395,5.227,5.227,0,0,0,1.987-.395,4.96,4.96,0,0,0,1.62-1.1.825.825,0,0,0,.245-.609V73.775a.854.854,0,0,0-.855-.848" transform="translate(-289.163 -68.189)" fill="#00263e"/>
            <path id="Path_10326" data-name="Path 10326" d="M206.706,78.161l-4.234-8.141a.977.977,0,0,0-.311-.328.842.842,0,0,0-.9,0,.955.955,0,0,0-.325.338L196.7,78.162a.805.805,0,0,0-.063.666.825.825,0,0,0,.425.5.857.857,0,0,0,1.162-.339.226.226,0,0,0,.015-.029l.191-.38c.116-.232.268-.526.459-.884H204.5c.081.167.161.321.238.458.088.158.164.3.227.426l.192.383a.839.839,0,0,0,.512.432.825.825,0,0,0,.254.04.867.867,0,0,0,.409-.1.831.831,0,0,0,.428-.5.813.813,0,0,0-.06-.665m-3.1-2.2h-3.8c.152-.3.314-.6.481-.921l.624-1.187.549-1.046.254-.484c.077.148.161.31.257.487.172.322.357.674.547,1.046s.4.775.611,1.186c.161.314.323.624.482.929" transform="translate(-196.596 -69.402)" fill="#00263e"/>
          </g>
        </g>
        <rect id="Rectangle_1092" data-name="Rectangle 1092" width="181.014" height="109.458" rx="5" transform="translate(224.007 147.326)" fill="#fff"/>
        <rect id="Rectangle_1107" data-name="Rectangle 1107" width="185.144" height="109.458" rx="5" transform="translate(413.711 147.326)" fill="#00263e"/>
        <path id="Path_10749" data-name="Path 10749" d="M.462,0H3.43V-.875H1.456V-4.669H.462ZM6.083,0h.889V-2.184c0-.973-.707-1.281-1.477-1.281a2.218,2.218,0,0,0-1.477.532l.336.6a1.423,1.423,0,0,1,.987-.4c.448,0,.742.224.742.567V-1.7a1.366,1.366,0,0,0-1.071-.413A1.071,1.071,0,0,0,3.836-1.036,1.126,1.126,0,0,0,5.012.084,1.4,1.4,0,0,0,6.083-.35Zm0-.812a.889.889,0,0,1-.714.294c-.35,0-.637-.182-.637-.5s.287-.511.637-.511a.889.889,0,0,1,.714.294Zm2.9.9A1.1,1.1,0,0,0,9.73-.133L9.541-.805a.486.486,0,0,1-.308.1c-.2,0-.308-.161-.308-.371V-2.6h.686v-.777H8.925v-.924h-.9v.924h-.56V-2.6h.56V-.84A.845.845,0,0,0,8.988.084ZM10-1.694A1.712,1.712,0,0,0,11.809.084,2.084,2.084,0,0,0,13.2-.385L12.81-.959a1.383,1.383,0,0,1-.9.336.911.911,0,0,1-.973-.784h2.513v-.2a1.7,1.7,0,0,0-1.694-1.862A1.721,1.721,0,0,0,10-1.694Zm1.75-1.064a.783.783,0,0,1,.833.749H10.92A.813.813,0,0,1,11.753-2.758ZM13.8-.441a2.276,2.276,0,0,0,1.512.525c.938,0,1.463-.462,1.463-1.085,0-.84-.777-.994-1.358-1.106-.378-.077-.644-.154-.644-.364s.21-.315.532-.315a1.426,1.426,0,0,1,1,.392L16.653-3A2.124,2.124,0,0,0,15.3-3.465c-.889,0-1.386.5-1.386,1.064,0,.805.749.945,1.33,1.057.385.077.679.161.679.4,0,.21-.182.343-.567.343a1.935,1.935,0,0,1-1.169-.462Zm4.767.525a1.1,1.1,0,0,0,.742-.217l-.189-.672a.486.486,0,0,1-.308.1c-.2,0-.308-.161-.308-.371V-2.6h.686v-.777H18.5v-.924h-.9v.924h-.56V-2.6h.56V-.84A.845.845,0,0,0,18.564.084ZM23.912,0h.9V-4.669h-.9v1.722a1.3,1.3,0,0,0-1.043-.518c-.861,0-1.5.672-1.5,1.778,0,1.127.644,1.771,1.5,1.771a1.326,1.326,0,0,0,1.043-.511Zm0-1.092a.978.978,0,0,1-.77.385.88.88,0,0,1-.854-.98.883.883,0,0,1,.854-.987.978.978,0,0,1,.77.385ZM27.258.084A1.716,1.716,0,0,0,29.05-1.694a1.714,1.714,0,0,0-1.792-1.771,1.712,1.712,0,0,0-1.785,1.771A1.714,1.714,0,0,0,27.258.084Zm0-.791a.89.89,0,0,1-.861-.987.887.887,0,0,1,.861-.98.892.892,0,0,1,.868.98A.9.9,0,0,1,27.258-.707Zm2.233-.987A1.717,1.717,0,0,0,31.283.084,1.558,1.558,0,0,0,32.62-.532l-.581-.539a.853.853,0,0,1-.714.364.909.909,0,0,1-.917-.987.9.9,0,0,1,.917-.98.836.836,0,0,1,.714.364l.581-.539a1.558,1.558,0,0,0-1.337-.616A1.715,1.715,0,0,0,29.491-1.694ZM35.483,0h.889V-3.381h-.889v2.289a1,1,0,0,1-.77.385.544.544,0,0,1-.623-.623V-3.381H33.2v2.4A.968.968,0,0,0,34.293.084a1.582,1.582,0,0,0,1.19-.511Zm5.964,0h.9V-2.443a.9.9,0,0,0-.994-1.022,1.435,1.435,0,0,0-1.162.616.9.9,0,0,0-.938-.616,1.479,1.479,0,0,0-1.106.525v-.441h-.889V0h.889V-2.275a.907.907,0,0,1,.7-.4c.364,0,.5.224.5.539V0h.9V-2.282a.9.9,0,0,1,.7-.392c.364,0,.5.224.5.539ZM43-1.694A1.712,1.712,0,0,0,44.807.084,2.084,2.084,0,0,0,46.2-.385l-.392-.574a1.383,1.383,0,0,1-.9.336.911.911,0,0,1-.973-.784h2.513v-.2a1.7,1.7,0,0,0-1.694-1.862A1.721,1.721,0,0,0,43-1.694Zm1.75-1.064a.783.783,0,0,1,.833.749H43.918A.813.813,0,0,1,44.751-2.758ZM49.371,0h.889V-2.387a.983.983,0,0,0-1.1-1.078,1.548,1.548,0,0,0-1.183.525v-.441h-.889V0h.889V-2.275a.963.963,0,0,1,.77-.4.549.549,0,0,1,.623.63Zm2.905.084a1.1,1.1,0,0,0,.742-.217l-.189-.672a.486.486,0,0,1-.308.1c-.2,0-.308-.161-.308-.371V-2.6H52.9v-.777h-.686v-.924h-.9v.924h-.56V-2.6h.56V-.84A.845.845,0,0,0,52.276.084Zm.938-.525a2.276,2.276,0,0,0,1.512.525c.938,0,1.463-.462,1.463-1.085,0-.84-.777-.994-1.358-1.106-.378-.077-.644-.154-.644-.364s.21-.315.532-.315a1.426,1.426,0,0,1,1,.392L56.07-3a2.124,2.124,0,0,0-1.358-.462c-.889,0-1.386.5-1.386,1.064,0,.805.749.945,1.33,1.057.385.077.679.161.679.4,0,.21-.182.343-.567.343A1.935,1.935,0,0,1,53.6-1.064Z" transform="translate(231.888 160.183)" fill="#00263e"/>
        <path id="Path_10751" data-name="Path 10751" d="M1.764,0h.994V-1.911L4.543-4.669H3.409L2.261-2.793,1.1-4.669H-.035l1.8,2.758ZM5.656.084A1.716,1.716,0,0,0,7.448-1.694,1.714,1.714,0,0,0,5.656-3.465,1.712,1.712,0,0,0,3.871-1.694,1.714,1.714,0,0,0,5.656.084Zm0-.791A.89.89,0,0,1,4.8-1.694a.887.887,0,0,1,.861-.98.892.892,0,0,1,.868.98A.9.9,0,0,1,5.656-.707ZM10.388,0h.889V-3.381h-.889v2.289a1,1,0,0,1-.77.385.544.544,0,0,1-.623-.623V-3.381H8.106v2.4A.968.968,0,0,0,9.2.084a1.582,1.582,0,0,0,1.19-.511Zm1.771,0h.889V-2.233a1.127,1.127,0,0,1,.833-.378,1.181,1.181,0,0,1,.245.021v-.868a1.446,1.446,0,0,0-1.078.539v-.462h-.889Zm7.6,0h1.085l-1.8-4.669H17.8L16,0h1.092l.294-.805h2.086ZM18.424-3.808l.77,2.142H17.647Zm2.618,2.114A1.717,1.717,0,0,0,22.834.084a1.558,1.558,0,0,0,1.337-.616l-.581-.539a.853.853,0,0,1-.714.364.909.909,0,0,1-.917-.987.9.9,0,0,1,.917-.98.836.836,0,0,1,.714.364l.581-.539a1.558,1.558,0,0,0-1.337-.616A1.715,1.715,0,0,0,21.042-1.694Zm3.493,0A1.717,1.717,0,0,0,26.327.084a1.558,1.558,0,0,0,1.337-.616l-.581-.539a.853.853,0,0,1-.714.364.909.909,0,0,1-.917-.987.9.9,0,0,1,.917-.98.836.836,0,0,1,.714.364l.581-.539a1.558,1.558,0,0,0-1.337-.616A1.715,1.715,0,0,0,24.535-1.694ZM28.245,0h.889V-4.669h-.889Zm2.212-3.878a.532.532,0,0,0,.532-.532.532.532,0,0,0-.532-.532.536.536,0,0,0-.532.532A.536.536,0,0,0,30.457-3.878ZM30.016,0h.889V-3.381h-.889ZM35.98,0h.9V-2.443a.9.9,0,0,0-.994-1.022,1.435,1.435,0,0,0-1.162.616.9.9,0,0,0-.938-.616,1.479,1.479,0,0,0-1.106.525v-.441h-.889V0h.889V-2.275a.907.907,0,0,1,.7-.4c.364,0,.5.224.5.539V0h.9V-2.282a.9.9,0,0,1,.7-.392c.364,0,.5.224.5.539Zm1.554-1.694A1.712,1.712,0,0,0,39.34.084a2.084,2.084,0,0,0,1.393-.469l-.392-.574a1.383,1.383,0,0,1-.9.336.911.911,0,0,1-.973-.784h2.513v-.2a1.7,1.7,0,0,0-1.694-1.862A1.721,1.721,0,0,0,37.534-1.694Zm1.75-1.064a.783.783,0,0,1,.833.749H38.451A.813.813,0,0,1,39.284-2.758ZM43.2-1.694A1.717,1.717,0,0,0,44.989.084a1.558,1.558,0,0,0,1.337-.616l-.581-.539a.853.853,0,0,1-.714.364.909.909,0,0,1-.917-.987.9.9,0,0,1,.917-.98.836.836,0,0,1,.714.364l.581-.539a1.558,1.558,0,0,0-1.337-.616A1.715,1.715,0,0,0,43.2-1.694ZM46.907,0H47.8V-4.669h-.889Zm2.212-3.878a.532.532,0,0,0,.532-.532.532.532,0,0,0-.532-.532.536.536,0,0,0-.532.532A.536.536,0,0,0,49.119-3.878ZM48.678,0h.889V-3.381h-.889Zm1.554-1.694A1.712,1.712,0,0,0,52.038.084a2.084,2.084,0,0,0,1.393-.469l-.392-.574a1.383,1.383,0,0,1-.9.336.911.911,0,0,1-.973-.784h2.513v-.2a1.7,1.7,0,0,0-1.694-1.862A1.721,1.721,0,0,0,50.232-1.694Zm1.75-1.064a.783.783,0,0,1,.833.749H51.149A.813.813,0,0,1,51.982-2.758ZM56.6,0h.889V-2.387a.983.983,0,0,0-1.1-1.078,1.548,1.548,0,0,0-1.183.525v-.441H54.32V0h.889V-2.275a.963.963,0,0,1,.77-.4.549.549,0,0,1,.623.63Zm2.9.084a1.1,1.1,0,0,0,.742-.217L60.06-.805a.486.486,0,0,1-.308.1c-.2,0-.308-.161-.308-.371V-2.6h.686v-.777h-.686v-.924h-.9v.924h-.56V-2.6h.56V-.84A.845.845,0,0,0,59.507.084ZM66.724,0h.9V-2.443a.9.9,0,0,0-.994-1.022,1.435,1.435,0,0,0-1.162.616.9.9,0,0,0-.938-.616,1.479,1.479,0,0,0-1.106.525v-.441h-.889V0h.889V-2.275a.907.907,0,0,1,.7-.4c.364,0,.5.224.5.539V0h.9V-2.282a.9.9,0,0,1,.7-.392c.364,0,.5.224.5.539Zm3.8,0h.889V-2.184c0-.973-.707-1.281-1.477-1.281a2.218,2.218,0,0,0-1.477.532l.336.6a1.423,1.423,0,0,1,.987-.4c.448,0,.742.224.742.567V-1.7a1.366,1.366,0,0,0-1.071-.413,1.071,1.071,0,0,0-1.176,1.078A1.126,1.126,0,0,0,69.454.084,1.4,1.4,0,0,0,70.525-.35Zm0-.812a.889.889,0,0,1-.714.294c-.35,0-.637-.182-.637-.5s.287-.511.637-.511a.889.889,0,0,1,.714.294ZM74.578,0h.889V-2.387a.983.983,0,0,0-1.1-1.078,1.548,1.548,0,0,0-1.183.525v-.441H72.3V0h.889V-2.275a.963.963,0,0,1,.77-.4.549.549,0,0,1,.623.63Zm3.8,0h.889V-2.184c0-.973-.707-1.281-1.477-1.281a2.218,2.218,0,0,0-1.477.532l.336.6a1.423,1.423,0,0,1,.987-.4c.448,0,.742.224.742.567V-1.7a1.366,1.366,0,0,0-1.071-.413,1.071,1.071,0,0,0-1.176,1.078A1.126,1.126,0,0,0,77.308.084,1.4,1.4,0,0,0,78.379-.35Zm0-.812a.889.889,0,0,1-.714.294c-.35,0-.637-.182-.637-.5s.287-.511.637-.511a.889.889,0,0,1,.714.294Zm1.7,1.68a2.038,2.038,0,0,0,1.456.5c.833,0,1.827-.315,1.827-1.6v-3.15h-.9v.434a1.3,1.3,0,0,0-1.043-.518,1.513,1.513,0,0,0-1.491,1.722c0,1.127.644,1.722,1.491,1.722a1.317,1.317,0,0,0,1.043-.532V-.21a.826.826,0,0,1-.931.854,1.344,1.344,0,0,1-1.057-.42ZM82.467-1.2a.985.985,0,0,1-.763.385.838.838,0,0,1-.854-.931.838.838,0,0,1,.854-.931.964.964,0,0,1,.763.385Zm1.561-.5A1.712,1.712,0,0,0,85.834.084a2.084,2.084,0,0,0,1.393-.469l-.392-.574a1.383,1.383,0,0,1-.9.336.911.911,0,0,1-.973-.784h2.513v-.2a1.7,1.7,0,0,0-1.694-1.862A1.721,1.721,0,0,0,84.028-1.694Zm1.75-1.064a.783.783,0,0,1,.833.749H84.945A.813.813,0,0,1,85.778-2.758ZM88.116,0h.889V-2.233a1.127,1.127,0,0,1,.833-.378,1.181,1.181,0,0,1,.245.021v-.868a1.446,1.446,0,0,0-1.078.539v-.462h-.889Z" transform="translate(422.436 160.183)" fill="#fff"/>
        <path id="Line_203" data-name="Line 203" d="M162.592.2H0V-.5H162.592Z" transform="translate(231.888 167.607)" fill="#5cb8b2"/>
        <path id="Line_204" data-name="Line 204" d="M162.592.2H0V-.5H162.592Z" transform="translate(231.888 196.52)" fill="#5cb8b2"/>
        <path id="Line_205" data-name="Line 205" d="M162.592.2H0V-.5H162.592Z" transform="translate(231.888 224.745)" fill="#5cb8b2"/>
        <circle id="Ellipse_1080" data-name="Ellipse 1080" cx="28.913" cy="28.913" r="28.913" transform="translate(422.401 179.326)" fill="#335265"/>
        <g id="Group_1671" data-name="Group 1671" transform="translate(-3 -33.704)">
          <rect id="Rectangle_1062" data-name="Rectangle 1062" width="73.66" height="4.13" rx="2.065" transform="translate(488.956 225.031)" fill="#667d8b"/>
          <rect id="Rectangle_1064" data-name="Rectangle 1064" width="70.907" height="4.13" rx="2.065" transform="translate(488.956 240.176)" fill="#667d8b"/>
          <rect id="Rectangle_1066" data-name="Rectangle 1066" width="70.907" height="4.13" rx="2.065" transform="translate(488.956 255.321)" fill="#667d8b"/>
          <rect id="Rectangle_1065" data-name="Rectangle 1065" width="47.501" height="4.13" rx="2.065" transform="translate(488.956 247.749)" fill="#667d8b"/>
          <rect id="Rectangle_1063" data-name="Rectangle 1063" width="85.363" height="4.13" rx="2.065" transform="translate(488.956 232.603)" fill="#667d8b"/>
        </g>
        <g id="Group_1666" data-name="Group 1666" transform="translate(233.677 174.147)">
          <path id="Path_10592" data-name="Path 10592" d="M146.226,21.832V12.523l-3.78-3.8V8.71h-.018l-.3-.305h-6.346A1.34,1.34,0,0,0,134.391,9.8V21.832a1.34,1.34,0,0,0,1.387,1.392h9.06a1.34,1.34,0,0,0,1.387-1.392" transform="translate(-134.391 -8.404)" fill="#fde6d2"/>
          <path id="Path_10591" data-name="Path 10591" d="M143.9,18.073a1.829,1.829,0,0,1-.73.018,3.481,3.481,0,0,1-.922-.275,2.738,2.738,0,0,1,1.33.073,1.453,1.453,0,0,1,.322.183m-3.043-.5-.066.018c-.147.04-.29.079-.427.114l-.186.047c-.373.094-.755.191-1.132.306.143-.345.276-.695.407-1.036.1-.253.2-.511.3-.766q.077.128.162.256a5,5,0,0,0,.945,1.061m-.949-3.9a3.218,3.218,0,0,1-.2,1.23,1.969,1.969,0,0,1-.036-1.457.838.838,0,0,1,.125-.2.944.944,0,0,1,.113.429m-1.948,5.4c-.093.167-.189.323-.286.471-.236.355-.621.736-.819.736a.1.1,0,0,1-.078-.04.074.074,0,0,1-.025-.063,1.167,1.167,0,0,1,.43-.579,4.238,4.238,0,0,1,.777-.525m6.571-.985c-.03-.435-.763-.714-.77-.717a2.774,2.774,0,0,0-.94-.149,5.632,5.632,0,0,0-1.3.175,4.509,4.509,0,0,1-1.157-1.189c-.131-.2-.249-.4-.352-.595a4.409,4.409,0,0,0,.437-1.971c-.033-.58-.295-.97-.651-.97-.244,0-.454.181-.625.538a2.8,2.8,0,0,0,.238,2.422c-.167.392-.322.8-.471,1.19-.186.489-.379.993-.6,1.472a5.258,5.258,0,0,0-1.522.89,1.572,1.572,0,0,0-.62.965.617.617,0,0,0,.174.466.642.642,0,0,0,.474.21c.594,0,1.166-.816,1.274-.98a8.863,8.863,0,0,0,.623-1.119c.5-.182,1.041-.318,1.562-.45l.187-.047c.14-.036.286-.075.435-.116s.321-.087.486-.129a4.3,4.3,0,0,0,1.671.643,2.007,2.007,0,0,0,1.176-.119.432.432,0,0,0,.264-.42m1.15,3.741a.8.8,0,0,1-.844.847h-9.059a.8.8,0,0,1-.843-.847V9.8a.8.8,0,0,1,.843-.847h6.12l0,0V11.34a1.337,1.337,0,0,0,1.387,1.387h2.373l.02.02Zm-.563-9.649h-1.83a.8.8,0,0,1-.843-.842V9.5Zm1.107,9.649V12.523l-3.78-3.8V8.71h-.018l-.3-.305h-6.346A1.34,1.34,0,0,0,134.391,9.8V21.832a1.34,1.34,0,0,0,1.387,1.392h9.06a1.34,1.34,0,0,0,1.387-1.392" transform="translate(-134.391 -8.404)" fill="#ff8200"/>
        </g>
        <g id="Group_1667" data-name="Group 1667" transform="translate(233.677 203.06)">
          <path id="Path_10592-2" data-name="Path 10592" d="M146.226,21.832V12.523l-3.78-3.8V8.71h-.018l-.3-.305h-6.346A1.34,1.34,0,0,0,134.391,9.8V21.832a1.34,1.34,0,0,0,1.387,1.392h9.06a1.34,1.34,0,0,0,1.387-1.392" transform="translate(-134.391 -8.404)" fill="#fde6d2"/>
          <path id="Path_10591-2" data-name="Path 10591" d="M143.9,18.073a1.829,1.829,0,0,1-.73.018,3.481,3.481,0,0,1-.922-.275,2.738,2.738,0,0,1,1.33.073,1.453,1.453,0,0,1,.322.183m-3.043-.5-.066.018c-.147.04-.29.079-.427.114l-.186.047c-.373.094-.755.191-1.132.306.143-.345.276-.695.407-1.036.1-.253.2-.511.3-.766q.077.128.162.256a5,5,0,0,0,.945,1.061m-.949-3.9a3.218,3.218,0,0,1-.2,1.23,1.969,1.969,0,0,1-.036-1.457.838.838,0,0,1,.125-.2.944.944,0,0,1,.113.429m-1.948,5.4c-.093.167-.189.323-.286.471-.236.355-.621.736-.819.736a.1.1,0,0,1-.078-.04.074.074,0,0,1-.025-.063,1.167,1.167,0,0,1,.43-.579,4.238,4.238,0,0,1,.777-.525m6.571-.985c-.03-.435-.763-.714-.77-.717a2.774,2.774,0,0,0-.94-.149,5.632,5.632,0,0,0-1.3.175,4.509,4.509,0,0,1-1.157-1.189c-.131-.2-.249-.4-.352-.595a4.409,4.409,0,0,0,.437-1.971c-.033-.58-.295-.97-.651-.97-.244,0-.454.181-.625.538a2.8,2.8,0,0,0,.238,2.422c-.167.392-.322.8-.471,1.19-.186.489-.379.993-.6,1.472a5.258,5.258,0,0,0-1.522.89,1.572,1.572,0,0,0-.62.965.617.617,0,0,0,.174.466.642.642,0,0,0,.474.21c.594,0,1.166-.816,1.274-.98a8.863,8.863,0,0,0,.623-1.119c.5-.182,1.041-.318,1.562-.45l.187-.047c.14-.036.286-.075.435-.116s.321-.087.486-.129a4.3,4.3,0,0,0,1.671.643,2.007,2.007,0,0,0,1.176-.119.432.432,0,0,0,.264-.42m1.15,3.741a.8.8,0,0,1-.844.847h-9.059a.8.8,0,0,1-.843-.847V9.8a.8.8,0,0,1,.843-.847h6.12l0,0V11.34a1.337,1.337,0,0,0,1.387,1.387h2.373l.02.02Zm-.563-9.649h-1.83a.8.8,0,0,1-.843-.842V9.5Zm1.107,9.649V12.523l-3.78-3.8V8.71h-.018l-.3-.305h-6.346A1.34,1.34,0,0,0,134.391,9.8V21.832a1.34,1.34,0,0,0,1.387,1.392h9.06a1.34,1.34,0,0,0,1.387-1.392" transform="translate(-134.391 -8.404)" fill="#ff8200"/>
        </g>
        <g id="Group_1668" data-name="Group 1668" transform="translate(233.677 231.285)">
          <path id="Path_10592-3" data-name="Path 10592" d="M146.226,21.832V12.523l-3.78-3.8V8.71h-.018l-.3-.305h-6.346A1.34,1.34,0,0,0,134.391,9.8V21.832a1.34,1.34,0,0,0,1.387,1.392h9.06a1.34,1.34,0,0,0,1.387-1.392" transform="translate(-134.391 -8.404)" fill="#fde6d2"/>
          <path id="Path_10591-3" data-name="Path 10591" d="M143.9,18.073a1.829,1.829,0,0,1-.73.018,3.481,3.481,0,0,1-.922-.275,2.738,2.738,0,0,1,1.33.073,1.453,1.453,0,0,1,.322.183m-3.043-.5-.066.018c-.147.04-.29.079-.427.114l-.186.047c-.373.094-.755.191-1.132.306.143-.345.276-.695.407-1.036.1-.253.2-.511.3-.766q.077.128.162.256a5,5,0,0,0,.945,1.061m-.949-3.9a3.218,3.218,0,0,1-.2,1.23,1.969,1.969,0,0,1-.036-1.457.838.838,0,0,1,.125-.2.944.944,0,0,1,.113.429m-1.948,5.4c-.093.167-.189.323-.286.471-.236.355-.621.736-.819.736a.1.1,0,0,1-.078-.04.074.074,0,0,1-.025-.063,1.167,1.167,0,0,1,.43-.579,4.238,4.238,0,0,1,.777-.525m6.571-.985c-.03-.435-.763-.714-.77-.717a2.774,2.774,0,0,0-.94-.149,5.632,5.632,0,0,0-1.3.175,4.509,4.509,0,0,1-1.157-1.189c-.131-.2-.249-.4-.352-.595a4.409,4.409,0,0,0,.437-1.971c-.033-.58-.295-.97-.651-.97-.244,0-.454.181-.625.538a2.8,2.8,0,0,0,.238,2.422c-.167.392-.322.8-.471,1.19-.186.489-.379.993-.6,1.472a5.258,5.258,0,0,0-1.522.89,1.572,1.572,0,0,0-.62.965.617.617,0,0,0,.174.466.642.642,0,0,0,.474.21c.594,0,1.166-.816,1.274-.98a8.863,8.863,0,0,0,.623-1.119c.5-.182,1.041-.318,1.562-.45l.187-.047c.14-.036.286-.075.435-.116s.321-.087.486-.129a4.3,4.3,0,0,0,1.671.643,2.007,2.007,0,0,0,1.176-.119.432.432,0,0,0,.264-.42m1.15,3.741a.8.8,0,0,1-.844.847h-9.059a.8.8,0,0,1-.843-.847V9.8a.8.8,0,0,1,.843-.847h6.12l0,0V11.34a1.337,1.337,0,0,0,1.387,1.387h2.373l.02.02Zm-.563-9.649h-1.83a.8.8,0,0,1-.843-.842V9.5Zm1.107,9.649V12.523l-3.78-3.8V8.71h-.018l-.3-.305h-6.346A1.34,1.34,0,0,0,134.391,9.8V21.832a1.34,1.34,0,0,0,1.387,1.392h9.06a1.34,1.34,0,0,0,1.387-1.392" transform="translate(-134.391 -8.404)" fill="#ff8200"/>
        </g>
        <rect id="Rectangle_1093" data-name="Rectangle 1093" width="112.9" height="4.13" rx="2.065" transform="translate(252.197 176.212)" fill="#e6e6e6"/>
        <rect id="Rectangle_1094" data-name="Rectangle 1094" width="112.9" height="4.13" rx="2.065" transform="translate(252.197 205.125)" fill="#e6e6e6"/>
        <rect id="Rectangle_1095" data-name="Rectangle 1095" width="112.9" height="4.13" rx="2.065" transform="translate(252.197 233.351)" fill="#e6e6e6"/>
        <rect id="Rectangle_1096" data-name="Rectangle 1096" width="85.363" height="4.13" rx="2.065" transform="translate(252.197 183.784)" fill="#e6e6e6"/>
        <rect id="Rectangle_1097" data-name="Rectangle 1097" width="85.363" height="4.13" rx="2.065" transform="translate(252.197 212.698)" fill="#e6e6e6"/>
        <rect id="Rectangle_1098" data-name="Rectangle 1098" width="85.363" height="4.13" rx="2.065" transform="translate(252.197 240.923)" fill="#e6e6e6"/>
        <path id="Path_10750" data-name="Path 10750" d="M.4.667H3.364V-.208H1.39V-4H.4Zm5.621,0h.889V-1.517C6.906-2.49,6.2-2.8,5.429-2.8a2.218,2.218,0,0,0-1.477.532l.336.595a1.423,1.423,0,0,1,.987-.4c.448,0,.742.224.742.567v.469a1.366,1.366,0,0,0-1.071-.413A1.071,1.071,0,0,0,3.77-.369,1.126,1.126,0,0,0,4.946.751,1.4,1.4,0,0,0,6.017.317Zm0-.812A.889.889,0,0,1,5.3.149c-.35,0-.637-.182-.637-.5s.287-.511.637-.511a.889.889,0,0,1,.714.294Zm2.9.9A1.1,1.1,0,0,0,9.664.534L9.475-.138a.486.486,0,0,1-.308.1c-.2,0-.308-.161-.308-.371V-1.937h.686v-.777H8.859v-.924h-.9v.924H7.4v.777h.56V-.173A.845.845,0,0,0,8.922.751ZM9.937-1.027A1.712,1.712,0,0,0,11.743.751,2.084,2.084,0,0,0,13.136.282l-.392-.574a1.383,1.383,0,0,1-.9.336.911.911,0,0,1-.973-.784h2.513v-.2A1.7,1.7,0,0,0,11.687-2.8,1.721,1.721,0,0,0,9.937-1.027Zm1.75-1.064a.783.783,0,0,1,.833.749H10.854A.812.812,0,0,1,11.687-2.091ZM13.731.226a2.276,2.276,0,0,0,1.512.525c.938,0,1.463-.462,1.463-1.085,0-.84-.777-.994-1.358-1.106-.378-.077-.644-.154-.644-.364s.21-.315.532-.315a1.426,1.426,0,0,1,1,.392l.35-.609A2.124,2.124,0,0,0,15.229-2.8c-.889,0-1.386.5-1.386,1.064,0,.8.749.945,1.33,1.057.385.077.679.161.679.4,0,.21-.182.343-.567.343A1.935,1.935,0,0,1,14.116-.4ZM18.5.751A1.1,1.1,0,0,0,19.24.534l-.189-.672a.486.486,0,0,1-.308.1c-.2,0-.308-.161-.308-.371V-1.937h.686v-.777h-.686v-.924h-.9v.924h-.56v.777h.56V-.173A.845.845,0,0,0,18.5.751ZM23.8.667h.889V-1.72a.983.983,0,0,0-1.1-1.078,1.548,1.548,0,0,0-1.183.525v-.441h-.889V.667h.889V-1.608a.963.963,0,0,1,.77-.4.549.549,0,0,1,.623.63Zm1.554-1.694A1.712,1.712,0,0,0,27.163.751,2.084,2.084,0,0,0,28.556.282l-.392-.574a1.383,1.383,0,0,1-.9.336.911.911,0,0,1-.973-.784H28.8v-.2A1.7,1.7,0,0,0,27.107-2.8,1.721,1.721,0,0,0,25.358-1.027Zm1.75-1.064a.783.783,0,0,1,.833.749H26.275A.812.812,0,0,1,27.107-2.091ZM32.413.667h.945l1.029-3.381h-.924l-.63,2.275-.742-2.275H31.3L30.558-.439l-.63-2.275H29L30.033.667h.952l.714-2.3ZM34.534.226a2.276,2.276,0,0,0,1.512.525c.938,0,1.463-.462,1.463-1.085,0-.84-.777-.994-1.358-1.106-.378-.077-.644-.154-.644-.364s.21-.315.532-.315a1.426,1.426,0,0,1,1,.392l.35-.609A2.124,2.124,0,0,0,36.032-2.8c-.889,0-1.386.5-1.386,1.064,0,.8.749.945,1.33,1.057.385.077.679.161.679.4,0,.21-.182.343-.567.343A1.935,1.935,0,0,1,34.919-.4Z" transform="translate(231.604 278.328)" fill="#00263e"/>
        <path id="Path_10752" data-name="Path 10752" d="M.4-1.156A1.837,1.837,0,0,0,2.489.79,1.831,1.831,0,0,0,4.568-1.163v-2.8H3.56v2.772a.994.994,0,0,1-1.071,1.1A1,1,0,0,1,1.4-1.191V-3.963H.4ZM6.36,1.994V.272A1.292,1.292,0,0,0,7.4.79C8.271.79,8.9.139,8.9-.988s-.63-1.771-1.5-1.771a1.306,1.306,0,0,0-1.043.511v-.427H5.471V1.994ZM7.977-.988A.879.879,0,0,1,7.123,0,1.018,1.018,0,0,1,6.36-.386v-1.2a1,1,0,0,1,.763-.385A.876.876,0,0,1,7.977-.988Zm1.372,0A1.717,1.717,0,0,0,11.141.79,1.558,1.558,0,0,0,12.478.174L11.9-.365A.853.853,0,0,1,11.183,0a.909.909,0,0,1-.917-.987.9.9,0,0,1,.917-.98A.836.836,0,0,1,11.9-1.6l.581-.539a1.558,1.558,0,0,0-1.337-.616A1.715,1.715,0,0,0,9.349-.988ZM14.627.79A1.716,1.716,0,0,0,16.419-.988a1.714,1.714,0,0,0-1.792-1.771A1.712,1.712,0,0,0,12.842-.988,1.714,1.714,0,0,0,14.627.79Zm0-.791a.89.89,0,0,1-.861-.987.887.887,0,0,1,.861-.98.892.892,0,0,1,.868.98A.9.9,0,0,1,14.627,0ZM21.27.706h.9V-1.737a.9.9,0,0,0-.994-1.022,1.435,1.435,0,0,0-1.162.616.9.9,0,0,0-.938-.616,1.479,1.479,0,0,0-1.106.525v-.441h-.889V.706h.889V-1.569a.907.907,0,0,1,.7-.4c.364,0,.5.224.5.539V.706h.9V-1.576a.9.9,0,0,1,.7-.392c.364,0,.5.224.5.539Zm2.212-3.878a.532.532,0,0,0,.532-.532.532.532,0,0,0-.532-.532.536.536,0,0,0-.532.532A.536.536,0,0,0,23.482-3.172ZM23.041.706h.889V-2.675h-.889Zm4.053,0h.889V-1.681a.983.983,0,0,0-1.1-1.078,1.548,1.548,0,0,0-1.183.525v-.441h-.889V.706H25.7V-1.569a.963.963,0,0,1,.77-.4.549.549,0,0,1,.623.63Zm1.7.868a2.038,2.038,0,0,0,1.456.5c.833,0,1.827-.315,1.827-1.6v-3.15h-.9v.434a1.3,1.3,0,0,0-1.043-.518,1.513,1.513,0,0,0-1.491,1.722c0,1.127.644,1.722,1.491,1.722A1.317,1.317,0,0,0,31.182.153V.5a.826.826,0,0,1-.931.854A1.344,1.344,0,0,1,29.194.93ZM31.182-.491a.985.985,0,0,1-.763.385.838.838,0,0,1-.854-.931.838.838,0,0,1,.854-.931.964.964,0,0,1,.763.385Zm5.894,1.2h.9V-3.963h-.9v1.722a1.3,1.3,0,0,0-1.043-.518c-.861,0-1.5.672-1.5,1.778,0,1.127.644,1.771,1.5,1.771A1.326,1.326,0,0,0,37.076.279Zm0-1.092a.978.978,0,0,1-.77.385.88.88,0,0,1-.854-.98.883.883,0,0,1,.854-.987.978.978,0,0,1,.77.385Zm1.561-.6A1.712,1.712,0,0,0,40.443.79,2.084,2.084,0,0,0,41.836.321l-.392-.574a1.383,1.383,0,0,1-.9.336A.911.911,0,0,1,39.568-.7h2.513V-.9a1.7,1.7,0,0,0-1.694-1.862A1.721,1.721,0,0,0,38.637-.988Zm1.75-1.064a.783.783,0,0,1,.833.749H39.554A.813.813,0,0,1,40.387-2.052ZM44.755.706h.889V-1.478c0-.973-.707-1.281-1.477-1.281a2.218,2.218,0,0,0-1.477.532l.336.595a1.423,1.423,0,0,1,.987-.4c.448,0,.742.224.742.567V-1a1.366,1.366,0,0,0-1.071-.413A1.071,1.071,0,0,0,42.508-.33,1.126,1.126,0,0,0,43.684.79,1.4,1.4,0,0,0,44.755.356Zm0-.812a.889.889,0,0,1-.714.294c-.35,0-.637-.182-.637-.5s.287-.511.637-.511a.889.889,0,0,1,.714.294ZM48.85.706h.9V-3.963h-.9v1.722a1.3,1.3,0,0,0-1.043-.518c-.861,0-1.5.672-1.5,1.778,0,1.127.644,1.771,1.5,1.771A1.326,1.326,0,0,0,48.85.279Zm0-1.092A.978.978,0,0,1,48.08,0a.88.88,0,0,1-.854-.98.883.883,0,0,1,.854-.987.978.978,0,0,1,.77.385ZM50.628.706h.889V-3.963h-.889Zm2.212-3.878a.532.532,0,0,0,.532-.532.532.532,0,0,0-.532-.532.536.536,0,0,0-.532.532A.536.536,0,0,0,52.839-3.172ZM52.4.706h.889V-2.675H52.4Zm4.053,0h.889V-1.681a.983.983,0,0,0-1.1-1.078,1.548,1.548,0,0,0-1.183.525v-.441h-.889V.706h.889V-1.569a.963.963,0,0,1,.77-.4.549.549,0,0,1,.623.63ZM58.005-.988A1.712,1.712,0,0,0,59.811.79,2.084,2.084,0,0,0,61.2.321l-.392-.574a1.383,1.383,0,0,1-.9.336A.911.911,0,0,1,58.936-.7h2.513V-.9a1.7,1.7,0,0,0-1.694-1.862A1.721,1.721,0,0,0,58.005-.988Zm1.75-1.064a.783.783,0,0,1,.833.749H58.922A.813.813,0,0,1,59.755-2.052ZM61.8.265A2.276,2.276,0,0,0,63.311.79c.938,0,1.463-.462,1.463-1.085,0-.84-.777-.994-1.358-1.106-.378-.077-.644-.154-.644-.364s.21-.315.532-.315a1.426,1.426,0,0,1,1,.392l.35-.609A2.124,2.124,0,0,0,63.3-2.759c-.889,0-1.386.5-1.386,1.064,0,.8.749.945,1.33,1.057.385.077.679.161.679.4,0,.21-.182.343-.567.343a1.935,1.935,0,0,1-1.169-.462Zm8.547-.5A6.161,6.161,0,0,0,71-1.359l-.714-.329a3.731,3.731,0,0,1-.427.9c-.133-.154-.266-.308-.4-.476-.119-.14-.259-.315-.4-.5.574-.266,1.148-.567,1.148-1.281,0-.623-.567-.987-1.232-.987a1.205,1.205,0,0,0-1.33,1.12,2.23,2.23,0,0,0,.308,1A1.5,1.5,0,0,0,66.944-.561,1.361,1.361,0,0,0,68.491.79,2.037,2.037,0,0,0,69.758.356c.133.133.252.259.35.35h1.134C70.92.377,70.626.069,70.346-.232Zm-1.813-2.66a.48.48,0,0,1,.49-.5A.378.378,0,0,1,69.429-3c0,.343-.3.546-.693.728A1.382,1.382,0,0,1,68.533-2.892ZM68.61.09a.706.706,0,0,1-.721-.735.857.857,0,0,1,.406-.714c.154.217.315.427.469.616.112.14.308.357.518.588A1.1,1.1,0,0,1,68.61.09Zm6.062.7a1.1,1.1,0,0,0,.742-.217L75.225-.1a.486.486,0,0,1-.308.1c-.2,0-.308-.161-.308-.371V-1.9H75.3v-.777h-.686V-3.6h-.9v.924h-.56V-1.9h.56V-.134A.845.845,0,0,0,74.672.79ZM77.934.706h.889V-1.478c0-.973-.707-1.281-1.477-1.281a2.218,2.218,0,0,0-1.477.532l.336.595a1.423,1.423,0,0,1,.987-.4c.448,0,.742.224.742.567V-1a1.366,1.366,0,0,0-1.071-.413A1.071,1.071,0,0,0,75.687-.33,1.126,1.126,0,0,0,76.863.79,1.4,1.4,0,0,0,77.934.356Zm0-.812a.889.889,0,0,1-.714.294c-.35,0-.637-.182-.637-.5s.287-.511.637-.511a.889.889,0,0,1,.714.294Zm1.477.371A2.276,2.276,0,0,0,80.923.79c.938,0,1.463-.462,1.463-1.085,0-.84-.777-.994-1.358-1.106-.378-.077-.644-.154-.644-.364s.21-.315.532-.315a1.426,1.426,0,0,1,1,.392l.35-.609a2.124,2.124,0,0,0-1.358-.462c-.889,0-1.386.5-1.386,1.064,0,.8.749.945,1.33,1.057.385.077.679.161.679.4,0,.21-.182.343-.567.343A1.935,1.935,0,0,1,79.8-.358Zm5.824.441h1.113L84.969-1.142l1.337-1.533H85.214l-1.281,1.5V-3.963h-.889V.706h.889V-.162L84.339-.6ZM86.446.265A2.276,2.276,0,0,0,87.958.79C88.9.79,89.421.328,89.421-.3c0-.84-.777-.994-1.358-1.106-.378-.077-.644-.154-.644-.364s.21-.315.532-.315a1.426,1.426,0,0,1,1,.392L89.3-2.3a2.124,2.124,0,0,0-1.358-.462c-.889,0-1.386.5-1.386,1.064,0,.8.749.945,1.33,1.057.385.077.679.161.679.4,0,.21-.182.343-.567.343a1.935,1.935,0,0,1-1.169-.462Z" transform="translate(421.604 278.062)" fill="#00263e"/>
        <g id="Group_1670" data-name="Group 1670" transform="translate(-1844.208 3604.491)">
          <g id="director" transform="translate(2266.116 -3415.108)">
            <path id="Path_10728" data-name="Path 10728" d="M18.478,31.924a.66.66,0,0,0,.648-.648,10.28,10.28,0,1,1,20.559,0,.648.648,0,1,0,1.3,0A11.386,11.386,0,0,0,33.7,20.471l-.757-.3.686-.421a7.537,7.537,0,0,0,3.449-6.4,7.668,7.668,0,1,0-15.331,0,7.529,7.529,0,0,0,3.449,6.4l.686.421-.757.3A11.567,11.567,0,0,0,17.83,31.277a.66.66,0,0,0,.648.648Zm4.648-18.6a6.284,6.284,0,1,1,6.28,6.263A6.284,6.284,0,0,1,23.125,13.329Z" fill="#667d8b" stroke="#667d8b" stroke-width="0.5"/>
            <path id="Path_10729" data-name="Path 10729" d="M37.431,39.07h5.931a.631.631,0,0,1,.6.817l-1.14,3.693a.631.631,0,0,1-.6.445H38.6a.631.631,0,0,1-.6-.44L36.83,39.892a.631.631,0,0,1,.6-.822Zm5.076,1.262H38.293l.773,2.431h2.69Z" transform="translate(-10.991 -19.448)" fill="#667d8b" stroke="#667d8b" stroke-linecap="round" stroke-width="0.5"/>
            <path id="Path_10730" data-name="Path 10730" d="M43.191,56.746a.631.631,0,0,1-.61-.472l-1.867-7.162H38.077l-1.794,7.157a.631.631,0,1,1-1.224-.307l1.914-7.634a.631.631,0,0,1,.612-.477H41.2a.631.631,0,0,1,.611.472L43.8,55.956a.631.631,0,0,1-.611.79Z" transform="translate(-9.971 -24.535)" fill="#667d8b" stroke="#667d8b" stroke-linecap="round" stroke-width="0.5"/>
          </g>
        </g>
      </g>
      <g id="Group_1679" data-name="Group 1679" transform="translate(5.513 -20.843)">
        <g transform="matrix(1, 0, 0, 1, -0.51, 24.84)" filter="url(#Rectangle_1079)">
          <rect id="Rectangle_1079-2" data-name="Rectangle 1079" width="160" height="85" rx="10" transform="translate(276.51 314.16)" fill="#fff"/>
        </g>
        <line id="Line_207" data-name="Line 207" x2="134.131" transform="translate(288.869 394.242)" fill="none" stroke="#ddf0ef" stroke-linecap="round" stroke-width="2"/>
        <path id="Path_10722" data-name="Path 10722" d="M7.432-5.33H5.313L3.853-3.217,2.387-5.33H.212L2.647-1.982.149,1.47H2.268l1.5-2.161L5.3,1.47H7.474L5-1.989Z" transform="translate(293.234 387.58)" fill="#ddf0ef"/>
        <g id="Group_1642" data-name="Group 1642" transform="translate(304 351)">
          <g id="Group_1641" data-name="Group 1641" clip-path="url(#clip-path)">
            <path id="Path_10725" data-name="Path 10725" d="M104.43,19.572l-1.04-.578a.309.309,0,0,0-.239-.025.314.314,0,0,0-.186.154,55.746,55.746,0,0,1-9.852,11.994c-5.872,5.49-15.643,12.309-28.851,13.612a50.546,50.546,0,0,1-17.285-.945c-4.148-1.07-7.462-2.814-9.382-4.931,1.2-.848,2.35-1.777,3.46-2.678.51-.414.992-.8,1.466-1.177.551-.414,1.134-.864,1.7-1.3a34.79,34.79,0,0,1,3.6-2.584,6.983,6.983,0,0,1-.774,2.391l-.132.3c-.7,1.4-1.337,2.876-.822,4.292a4.739,4.739,0,0,0,2.951,2.491,1.626,1.626,0,0,0,.6.112c2.733,0,7.591-6.341,18.755-24.245h1.55C60.519,37.87,60.9,40.31,62.283,41.141c1.367.82,3.168-.358,10.8-9.779,3.547-4.386,7.128-10.4,4.044-14.144a7.356,7.356,0,0,0-4.639-2.352c.1-.231.2-.46.293-.684.14-.336.285-.684.46-1.034,2.392-5.425,3.5-8.1,3.956-9.537.45-1.422.291-1.781-.269-2.066a.786.786,0,0,0-.618-.147c-.76.166-1.732,1.574-7.418,10.752-.422.591-.783,1.182-1.166,1.807-.122.2-.247.4-.378.615-6.661.4-15.49,3.294-23.663,7.772A22.953,22.953,0,0,0,35.6,29.1a8.54,8.54,0,0,0-1.428,7.351,7.245,7.245,0,0,0,.805,1.917c-2.885,2.1-5.38,3.254-7.228,3.351A4.7,4.7,0,0,1,23.189,39c-1.948-3.6-1.448-9.243,1.334-15.1a152.1,152.1,0,0,1,30.8-8.483.31.31,0,0,0,.254-.366l-.231-1.156A.31.31,0,0,0,55,13.642,155.387,155.387,0,0,0,25.727,21.59a40.419,40.419,0,0,1,2.524-3.875C33.324,10.873,40.194,4.5,43.513,5.576c1.648.515,2.672,3.679,2.672,8.257a.31.31,0,0,0,.31.31H47.65a.31.31,0,0,0,.31-.31c0-5.775-1.279-9.009-3.91-9.886-5.38-1.794-13.764,8.2-17.118,12.573l-.1.136a40.927,40.927,0,0,0-3.576,5.907l-.026.01c1.361-6.487,1.737-12.1,0-22.316a.31.31,0,0,0-.366-.252L21.7.238a.309.309,0,0,0-.244.355c1.784,10.588,1.3,16.031-.306,22.838C9.366,28.358,1.777,33.623.32,37.883a4.417,4.417,0,0,0,.87,4.7,9.2,9.2,0,0,0,6.82,3.34,7.416,7.416,0,0,0,2.149-.238C14.584,44.664,18.236,40.4,20.3,33.9a12.621,12.621,0,0,0,1.306,5.971,6.5,6.5,0,0,0,6.18,3.627c2.8-.134,5.989-1.988,8.253-3.59,3.751,4.352,11.986,6.941,22.127,6.941a60.523,60.523,0,0,0,6.271-.348c26.6-2.567,40-26.282,40.119-26.52a.31.31,0,0,0-.127-.409M49.575,30.678c0-.008,0-.015,0-.023a1.563,1.563,0,0,0-.824-1.248.993.993,0,0,0-.637-.166c-1.357,0-3.122,1.411-6.663,4.342-.483.379-.966.771-1.477,1.186-1.1.895-2.242,1.818-3.431,2.655a13.325,13.325,0,0,1-.619-1.39c-1.214-3.892,1.976-8.262,8.757-11.992,7.423-4.088,15.28-6.812,21.679-7.527C62.55,22.7,59.3,27.691,56.7,31.365c-5.218,7.37-6.572,7.594-6.865,7.487a3.3,3.3,0,0,1-2.012-1.436c-.3-.8.131-1.774.68-2.874a7.4,7.4,0,0,0,1.071-3.865M63.219,39c.029-.826.693-4.989,8.538-22.744,2.018.382,3.315.974,3.963,1.806l0,0c1.8,2.25.364,6.462-4.044,11.862-5.952,7.359-7.88,8.8-8.46,9.072m7.9-25.191c-.139.3-.282.612-.425.937a7,7,0,0,0-1.021-.07l.037-.055a11.118,11.118,0,0,0,.745-1.22c.938-1.524,1.938-3.13,2.867-4.605l-.372.854c-.39.9-.826,1.9-1.316,3.016-.171.4-.346.778-.515,1.144M20.529,25.444a57.267,57.267,0,0,1-1.949,6.778c0,.007,0,.014-.007.022-1.688,6.3-5.187,10.781-9.128,11.681a7.084,7.084,0,0,1-6.983-2.559,2.686,2.686,0,0,1-.518-2.932c1.269-3.7,8.2-8.541,18.584-12.99" transform="translate(0 0)" fill="#00263e"/>
          </g>
        </g>
      </g>
      <g id="Group_1682" data-name="Group 1682" transform="translate(-2102.646 3786.481)">
        <text id="AcclimeSign." transform="translate(2442.705 -3393.5)" fill="#00263e" font-size="10" font-family="MarkPro, Mark Pro"><tspan x="0" y="0">Acclime</tspan><tspan y="0" font-family="MarkPro-Medium, Mark Pro" font-weight="500">Sign</tspan><tspan y="0" fill="#ff8200" font-family="MarkPro-Medium, Mark Pro" font-weight="500">.</tspan></text>
        <path id="Path_10759" data-name="Path 10759" d="M20.88,7.151a3.977,3.977,0,0,1-2.187-.662c-.179-.125-.5-.339-.835-.529a3.277,3.277,0,0,0-.915-.41h-.018c-.1,0-.154.012-.537.256l-.006,0-.005,0A5.082,5.082,0,0,1,14.1,6.88h0a3.027,3.027,0,0,1-.746.1,1.628,1.628,0,0,1-.785-.18,1.194,1.194,0,0,1-.429-.389v0a2.115,2.115,0,0,1-.222-1.721l.058-.268-.228.152c-.727.484-1.4.885-1.659,1.016l-.007,0-.007,0a3.485,3.485,0,0,1-1.724.762.959.959,0,0,1-.694-.274l0,0c-.374-.343-.434-.815-.207-1.628l.086-.308-.258.189a10.988,10.988,0,0,1-2.41,1.371,6.047,6.047,0,0,1-2.209.454c-.073,0-.148,0-.221,0h0A4.094,4.094,0,0,1,.341,5.5l0,0,0,0A.626.626,0,0,1,0,4.982a.731.731,0,0,1,.279-.634l.006,0A.739.739,0,0,1,.719,4.2a.7.7,0,0,1,.387.119A2.384,2.384,0,0,0,1.7,4.6a3.307,3.307,0,0,0,.825.146h.093a5.634,5.634,0,0,0,2.743-.861A17.877,17.877,0,0,0,9.572.242.718.718,0,0,1,10.111,0a.787.787,0,0,1,.5.184.726.726,0,0,1,.117.943l0,.006A26.813,26.813,0,0,0,9.046,4.32l.136.091v.028h0a.148.148,0,0,0,.035,0l.009.006.012-.012a.154.154,0,0,0,.039-.023h0l.026-.015A20.413,20.413,0,0,0,13.226,1.6h0a.761.761,0,0,1,.6-.3.7.7,0,0,1,.2.029.733.733,0,0,1,.473.442.706.706,0,0,1-.058.622h0a11.44,11.44,0,0,0-.827,1.714A3.969,3.969,0,0,0,13.3,5.394l.007.1h.1a.927.927,0,0,0,.376-.074,5.135,5.135,0,0,0,1.764-.808h0l.036-.024.005,0A2.065,2.065,0,0,1,16.9,4.078a2.218,2.218,0,0,1,.285.019h0a5.911,5.911,0,0,1,2.357,1.165v.008l.044.033a2.292,2.292,0,0,0,1.3.407,2.47,2.47,0,0,0,1.418-.472.782.782,0,0,1,.434-.133.685.685,0,0,1,.6.336l0,0a.68.68,0,0,1,.08.532.842.842,0,0,1-.323.477A3.868,3.868,0,0,1,21.966,7,3.911,3.911,0,0,1,20.88,7.151Z" transform="translate(2417.429 -3399.925)" fill="#ff8100"/>
      </g>
    </g>
  </g>
</svg>
