<svg xmlns="http://www.w3.org/2000/svg" width="87.771" height="88.414" viewBox="0 0 87.771 88.414"><path d="M29.583,171.17A6.562,6.562,0,1,1,23,177.732h0a6.562,6.562,0,0,1,6.562-6.562" transform="translate(-23 -95.879)" fill="#fff"/><path d="M172.327,171.17a6.562,6.562,0,1,1-6.557,6.562h0a6.557,6.557,0,0,1,6.557-6.562" transform="translate(-91.122 -95.879)" fill="#fff"/><path d="M136.53,100.17a6.562,6.562,0,1,1-6.53,6.562h0a6.562,6.562,0,0,1,6.557-6.562" transform="translate(-74.055 -62.002)" fill="#fff"/><path d="M63.417,100.17a6.562,6.562,0,1,1-6.557,6.562h0a6.562,6.562,0,0,1,6.557-6.562" transform="translate(-39.156 -62.002)" fill="#fff"/><path d="M96.142,27.17a6.562,6.562,0,1,1-6.562,6.562h0a6.567,6.567,0,0,1,6.562-6.562" transform="translate(-54.769 -27.17)" fill="#fff"/><rect width="42.293" height="5.229" transform="translate(21.259 43.854) rotate(-65.2)" fill="#fff"/><rect width="5.229" height="41.577" transform="translate(60.139 45.903) rotate(-26.77)" fill="#fff"/><rect width="38.848" height="5.229" transform="matrix(1, -0.006, 0.006, 1, 23.623, 42.333)" fill="#fff"/></svg>