<?xml version="1.0" encoding="utf-8"?>
<!-- Generator: Adobe Illustrator 24.2.3, SVG Export Plug-In . SVG Version: 6.00 Build 0)  -->
<svg version="1.1" id="Layer_2_1_" xmlns="http://www.w3.org/2000/svg" xmlns:xlink="http://www.w3.org/1999/xlink" x="0px" y="0px"
	 viewBox="0 0 512 512" style="enable-background:new 0 0 512 512;" xml:space="preserve">
<style type="text/css">
	.st0{fill:#23A8FE;}
	.st1{fill:#00253D;}
	.st2{fill:#5CB8B2;}
</style>
<circle class="st0" cx="256" cy="256" r="249"/>
<circle class="st1" cx="256" cy="256" r="249"/>
<g>
	<path class="st2" d="M256,7C125,7,16.4,108.6,7.6,239.3l14.3,25.3h8.6l15.1-20.1v-14.8l8.8-8.8v-31l14-14.1h18l48.5-48.8h20
		l5.5-5.5h9.2v17.5l14.9,15v38.4h16.9l15.1-15.2l11.6,11.7v21.5l6.8,23.4v37l54.7,55.1h16.3l-6.5-32.5l-20.2-14l-16.3-18.9v-40.6
		h10.2l13.6,25.9l16.8,5.7l13.9,4.5l25.1-25.3l-2.6-34.3l-37.3-37.6l21.4-21.5H344l14.7-14.8h26.9l44.2-44.6v-0.1
		C383.4,32.3,321,6.9,256,7L256,7z"/>
	<path class="st2" d="M188.7,303.4h10.6l22,7.4l5.7,12.9l17.4,13.4l16.6,8.5l26.9,33.4l11.1,8.8l-3,26h-10.9l-48.7-22.9l-16.8-36.2
		l-29-24.7L188.7,303.4z"/>
	<path class="st2" d="M319,424.7l12.7-10.9h58.9l12,12.5l-4,14.6h-56.9l-7.4-5.8L319,424.7z"/>
	<path class="st2" d="M343.2,321.6l-5.7,14v9.6l9.8,9.9v14.2h36.7l10.1,10.1h13.9v-18.4l15.4-15.5v-20.4h12.1v-11.4l-12.2-12.3
		l17.9-18V271l-21.2-8.2l-19,24.6h-11.6l-13.1,13.2h-10.9l-6,22.7L343.2,321.6z"/>
</g>
</svg>
