<svg id="Layer_1" data-name="Layer 1" xmlns="http://www.w3.org/2000/svg" viewBox="0 0 90.71 73.7"><defs><style>.cls-1{fill:#ff8200;stroke:#ff8200;stroke-miterlimit:10;stroke-width:0.2px;}</style></defs><path class="cls-1" d="M45.35,3.8A33.05,33.05,0,1,0,78.41,36.85,33.09,33.09,0,0,0,45.35,3.8ZM38.5,7.45l.19,0a29.61,29.61,0,0,1,13.44,0l.19,0V22L52,21.82a16.36,16.36,0,0,0-13.12,0L38.5,22ZM16.92,26.82A30.16,30.16,0,0,1,35.28,8.39h.4V23.7l-.1.07a15.93,15.93,0,0,0-3.28,3.28l-.08.1H16.8Zm-1,16.79a30.39,30.39,0,0,1-.78-6.72v0a31.08,31.08,0,0,1,.78-6.66l0-.2H30.5l-.16.35a16.36,16.36,0,0,0,0,13.12l.16.35H16Zm19.69,6.8v15l-.33-.12A30.18,30.18,0,0,1,16.91,46.91l-.12-.33H32.21l.08.1A15.93,15.93,0,0,0,35.57,50l.6.45ZM52.27,66.24l-.2.05a29.67,29.67,0,0,1-13.43,0l-.2-.05V51.71l.35.15a16.31,16.31,0,0,0,13.13,0l.35-.15Zm-6.9-15.83A13.58,13.58,0,0,1,31.79,36.85h0A13.58,13.58,0,1,1,45.37,50.41ZM73.86,47A30.21,30.21,0,0,1,55.43,65.38l-.33.12V50.08l.1-.08a16.71,16.71,0,0,0,3.28-3.28l.07-.1H74Zm.94-16.84a30.39,30.39,0,0,1,.78,6.72h0a30.39,30.39,0,0,1-.78,6.72l0,.19H60.23l.15-.35a16.36,16.36,0,0,0,0-13.12l-.15-.35H74.76Zm-.78-3H58.55l-.07-.1a16.44,16.44,0,0,0-3.28-3.28l-.1-.08V8.23l.33.12A30.16,30.16,0,0,1,73.9,26.76Z"/></svg>