<svg xmlns="http://www.w3.org/2000/svg" viewBox="0 0 780.17 578.65"><g id="Australia"><circle cx="498.09" cy="55.32" r="6.5" fill="#5bb7b1"/><circle cx="354.08" cy="91.6" r="6.5" fill="#5bb7b1"/><circle cx="372.08" cy="91.6" r="6.5" fill="#5bb7b1"/><circle cx="390.09" cy="91.6" r="6.5" fill="#5bb7b1"/><circle cx="408.09" cy="91.6" r="6.5" fill="#5bb7b1"/><circle cx="426.09" cy="91.6" r="6.5" fill="#5bb7b1"/><circle cx="498.09" cy="91.04" r="6.5" fill="#5bb7b1"/><circle cx="516.09" cy="91.04" r="6.5" fill="#5bb7b1"/><circle cx="372.08" cy="73.32" r="6.5" fill="#5bb7b1"/><circle cx="390.09" cy="73.32" r="6.5" fill="#5bb7b1"/><circle cx="408.09" cy="73.32" r="6.5" fill="#5bb7b1"/><circle cx="426.09" cy="73.32" r="6.5" fill="#5bb7b1"/><circle cx="498.09" cy="73.32" r="6.5" fill="#5bb7b1"/><circle cx="516.09" cy="73.32" r="6.5" fill="#5bb7b1"/><circle cx="300.08" cy="109.21" r="6.5" fill="#5bb7b1"/><circle cx="318.08" cy="109.21" r="6.5" fill="#5bb7b1"/><circle cx="336.08" cy="109.21" r="6.5" fill="#5bb7b1"/><circle cx="354.08" cy="109.34" r="6.5" fill="#5bb7b1"/><circle cx="372.08" cy="109.34" r="6.5" fill="#5bb7b1"/><circle cx="390.09" cy="109.34" r="6.5" fill="#5bb7b1"/><circle cx="408.09" cy="109.34" r="6.5" fill="#5bb7b1"/><circle cx="498.09" cy="109.43" r="6.5" fill="#5bb7b1"/><circle cx="516.09" cy="109.43" r="6.5" fill="#5bb7b1"/><circle cx="534.09" cy="109.43" r="6.5" fill="#5bb7b1"/><circle cx="246.08" cy="162.88" r="6.5" fill="#5bb7b1"/><circle cx="264.08" cy="162.88" r="6.5" fill="#5bb7b1"/><circle cx="282.08" cy="162.88" r="6.5" fill="#5bb7b1"/><circle cx="300.08" cy="162.81" r="6.5" fill="#5bb7b1"/><circle cx="318.08" cy="162.81" r="6.5" fill="#5bb7b1"/><circle cx="336.08" cy="162.81" r="6.5" fill="#5bb7b1"/><circle cx="354.08" cy="163.59" r="6.5" fill="#5bb7b1"/><circle cx="372.08" cy="163.59" r="6.5" fill="#5bb7b1"/><circle cx="390.09" cy="163.59" r="6.5" fill="#5bb7b1"/><circle cx="408.09" cy="163.59" r="6.5" fill="#5bb7b1"/><circle cx="426.09" cy="163.59" r="6.5" fill="#5bb7b1"/><circle cx="444.09" cy="163.83" r="6.5" fill="#5bb7b1"/><circle cx="462.09" cy="163.01" r="6.5" fill="#5bb7b1"/><circle cx="480.09" cy="163.01" r="6.5" fill="#5bb7b1"/><circle cx="498.09" cy="163.01" r="6.5" fill="#5bb7b1"/><circle cx="516.09" cy="163.01" r="6.5" fill="#5bb7b1"/><circle cx="534.09" cy="163.01" r="6.5" fill="#5bb7b1"/><circle cx="552.09" cy="163.01" r="6.5" fill="#5bb7b1"/><circle cx="264.08" cy="145.2" r="6.5" fill="#5bb7b1"/><circle cx="282.08" cy="145.2" r="6.5" fill="#5bb7b1"/><circle cx="300.08" cy="145.13" r="6.5" fill="#5bb7b1"/><circle cx="318.08" cy="145.13" r="6.5" fill="#5bb7b1"/><circle cx="336.08" cy="145.13" r="6.5" fill="#5bb7b1"/><circle cx="354.08" cy="145.26" r="6.5" fill="#5bb7b1"/><circle cx="372.08" cy="145.26" r="6.5" fill="#5bb7b1"/><circle cx="390.09" cy="145.26" r="6.5" fill="#5bb7b1"/><circle cx="408.09" cy="145.26" r="6.5" fill="#5bb7b1"/><circle cx="426.09" cy="145.26" r="6.5" fill="#5bb7b1"/><circle cx="444.09" cy="145.51" r="6.5" fill="#5bb7b1"/><circle cx="462.09" cy="145.33" r="6.5" fill="#5bb7b1"/><circle cx="480.09" cy="145.33" r="6.5" fill="#5bb7b1"/><circle cx="498.09" cy="145.33" r="6.5" fill="#5bb7b1"/><circle cx="516.09" cy="145.33" r="6.5" fill="#5bb7b1"/><circle cx="534.09" cy="145.33" r="6.5" fill="#5bb7b1"/><circle cx="552.09" cy="145.33" r="6.5" fill="#5bb7b1"/><circle cx="498.09" cy="451.26" r="6.5" fill="#5bb7b1"/><circle cx="516.09" cy="451.26" r="6.5" fill="#5bb7b1"/><circle cx="552.09" cy="451.39" r="6.5" fill="#5bb7b1"/><circle cx="282.08" cy="127.2" r="6.5" fill="#5bb7b1"/><circle cx="300.08" cy="127.13" r="6.5" fill="#5bb7b1"/><circle cx="318.08" cy="127.13" r="6.5" fill="#5bb7b1"/><circle cx="336.08" cy="127.13" r="6.5" fill="#5bb7b1"/><circle cx="354.08" cy="127.26" r="6.5" fill="#5bb7b1"/><circle cx="372.08" cy="127.26" r="6.5" fill="#5bb7b1"/><circle cx="390.09" cy="127.26" r="6.5" fill="#5bb7b1"/><circle cx="408.09" cy="127.26" r="6.5" fill="#5bb7b1"/><circle cx="426.09" cy="127.26" r="6.5" fill="#5bb7b1"/><circle cx="444.09" cy="127.51" r="6.5" fill="#5bb7b1"/><circle cx="498.09" cy="127.33" r="6.5" fill="#5bb7b1"/><circle cx="516.09" cy="127.33" r="6.5" fill="#5bb7b1"/><circle cx="534.09" cy="127.33" r="6.5" fill="#5bb7b1"/><circle cx="552.09" cy="127.33" r="6.5" fill="#5bb7b1"/><circle cx="552.09" cy="523.33" r="6.5" fill="#5bb7b1"/><circle cx="570.09" cy="523.33" r="6.5" fill="#5bb7b1"/><circle cx="210.08" cy="180.86" r="6.5" fill="#5bb7b1"/><circle cx="228.08" cy="180.86" r="6.5" fill="#5bb7b1"/><circle cx="246.08" cy="180.86" r="6.5" fill="#5bb7b1"/><circle cx="264.08" cy="180.86" r="6.5" fill="#5bb7b1"/><circle cx="282.08" cy="180.86" r="6.5" fill="#5bb7b1"/><circle cx="300.08" cy="181.44" r="6.5" fill="#5bb7b1"/><circle cx="318.08" cy="181.44" r="6.5" fill="#5bb7b1"/><circle cx="336.08" cy="181.44" r="6.5" fill="#5bb7b1"/><circle cx="354.08" cy="181.54" r="6.5" fill="#5bb7b1"/><circle cx="372.08" cy="181.54" r="6.5" fill="#5bb7b1"/><circle cx="390.09" cy="181.54" r="6.5" fill="#5bb7b1"/><circle cx="408.09" cy="181.54" r="6.5" fill="#5bb7b1"/><circle cx="426.09" cy="181.54" r="6.5" fill="#5bb7b1"/><circle cx="444.09" cy="181.78" r="6.5" fill="#5bb7b1"/><circle cx="462.09" cy="181.64" r="6.5" fill="#5bb7b1"/><circle cx="480.09" cy="181.64" r="6.5" fill="#5bb7b1"/><circle cx="498.09" cy="181.64" r="6.5" fill="#5bb7b1"/><circle cx="516.09" cy="181.64" r="6.5" fill="#5bb7b1"/><circle cx="534.09" cy="181.64" r="6.5" fill="#5bb7b1"/><circle cx="552.09" cy="181.64" r="6.5" fill="#5bb7b1"/><circle cx="570.09" cy="181.64" r="6.5" fill="#5bb7b1"/><circle cx="534.09" cy="487.33" r="6.5" fill="#5bb7b1"/><circle cx="552.09" cy="487.33" r="6.5" fill="#5bb7b1"/><circle cx="570.09" cy="487.33" r="6.5" fill="#5bb7b1"/><circle cx="587.97" cy="487.33" r="6.5" fill="#5bb7b1"/><circle cx="534.09" cy="505.33" r="6.5" fill="#5bb7b1"/><circle cx="552.09" cy="505.33" r="6.5" fill="#5bb7b1"/><circle cx="570.09" cy="505.33" r="6.5" fill="#5bb7b1"/><circle cx="587.97" cy="505.33" r="6.5" fill="#5bb7b1"/><circle cx="192.08" cy="397.39" r="6.5" fill="#5bb7b1"/><circle cx="210.08" cy="397.39" r="6.5" fill="#5bb7b1"/><circle cx="444.09" cy="397.35" r="6.5" fill="#5bb7b1"/><circle cx="462.09" cy="397.26" r="6.5" fill="#5bb7b1"/><circle cx="480.09" cy="397.26" r="6.5" fill="#5bb7b1"/><circle cx="498.09" cy="397.26" r="6.5" fill="#5bb7b1"/><circle cx="516.09" cy="397.26" r="6.5" fill="#5bb7b1"/><circle cx="534.09" cy="397.26" r="6.5" fill="#5bb7b1"/><circle cx="552.09" cy="397.26" r="6.5" fill="#5bb7b1"/><circle cx="570.09" cy="397.26" r="6.5" fill="#5bb7b1"/><circle cx="588.21" cy="397.26" r="6.5" fill="#5bb7b1"/><circle cx="462.09" cy="415.33" r="6.5" fill="#5bb7b1"/><circle cx="480.09" cy="415.33" r="6.5" fill="#5bb7b1"/><circle cx="498.09" cy="415.33" r="6.5" fill="#5bb7b1"/><circle cx="516.09" cy="415.33" r="6.5" fill="#5bb7b1"/><circle cx="534.09" cy="415.33" r="6.5" fill="#5bb7b1"/><circle cx="552.09" cy="415.33" r="6.5" fill="#5bb7b1"/><circle cx="570.09" cy="415.33" r="6.5" fill="#5bb7b1"/><circle cx="588.21" cy="415.33" r="6.5" fill="#5bb7b1"/><circle cx="480.09" cy="433.33" r="6.5" fill="#5bb7b1"/><circle cx="498.09" cy="433.33" r="6.5" fill="#5bb7b1"/><circle cx="516.09" cy="433.33" r="6.5" fill="#5bb7b1"/><circle cx="534.09" cy="433.33" r="6.5" fill="#5bb7b1"/><circle cx="552.09" cy="433.33" r="6.5" fill="#5bb7b1"/><circle cx="570.09" cy="433.33" r="6.5" fill="#5bb7b1"/><circle cx="588.21" cy="433.33" r="6.5" fill="#5bb7b1"/><circle cx="156.08" cy="199.3" r="6.5" fill="#5bb7b1"/><circle cx="174.08" cy="199.3" r="6.5" fill="#5bb7b1"/><circle cx="192.08" cy="199.3" r="6.5" fill="#5bb7b1"/><circle cx="210.08" cy="199.3" r="6.5" fill="#5bb7b1"/><circle cx="228.08" cy="199.3" r="6.5" fill="#5bb7b1"/><circle cx="246.08" cy="199.3" r="6.5" fill="#5bb7b1"/><circle cx="264.08" cy="199.3" r="6.5" fill="#5bb7b1"/><circle cx="282.08" cy="199.3" r="6.5" fill="#5bb7b1"/><circle cx="300.08" cy="199.2" r="6.5" fill="#5bb7b1"/><circle cx="318.08" cy="199.2" r="6.5" fill="#5bb7b1"/><circle cx="336.08" cy="199.2" r="6.5" fill="#5bb7b1"/><circle cx="354.08" cy="199.2" r="6.5" fill="#5bb7b1"/><circle cx="372.08" cy="199.2" r="6.5" fill="#5bb7b1"/><circle cx="390.09" cy="199.2" r="6.5" fill="#5bb7b1"/><circle cx="408.09" cy="199.2" r="6.5" fill="#5bb7b1"/><circle cx="426.09" cy="199.2" r="6.5" fill="#5bb7b1"/><circle cx="444.09" cy="199.44" r="6.5" fill="#5bb7b1"/><circle cx="462.09" cy="199.39" r="6.5" fill="#5bb7b1"/><circle cx="480.09" cy="199.39" r="6.5" fill="#5bb7b1"/><circle cx="498.09" cy="199.39" r="6.5" fill="#5bb7b1"/><circle cx="516.09" cy="199.39" r="6.5" fill="#5bb7b1"/><circle cx="534.09" cy="199.39" r="6.5" fill="#5bb7b1"/><circle cx="552.09" cy="199.39" r="6.5" fill="#5bb7b1"/><circle cx="570.09" cy="199.39" r="6.5" fill="#5bb7b1"/><circle cx="588.21" cy="199.39" r="6.5" fill="#5bb7b1"/><circle cx="156.08" cy="217.4" r="6.5" fill="#5bb7b1"/><circle cx="174.08" cy="217.4" r="6.5" fill="#5bb7b1"/><circle cx="192.08" cy="217.4" r="6.5" fill="#5bb7b1"/><circle cx="210.08" cy="217.4" r="6.5" fill="#5bb7b1"/><circle cx="228.08" cy="217.4" r="6.5" fill="#5bb7b1"/><circle cx="246.08" cy="217.4" r="6.5" fill="#5bb7b1"/><circle cx="264.08" cy="217.4" r="6.5" fill="#5bb7b1"/><circle cx="282.08" cy="217.4" r="6.5" fill="#5bb7b1"/><circle cx="300.08" cy="217.2" r="6.5" fill="#5bb7b1"/><circle cx="318.08" cy="217.2" r="6.5" fill="#5bb7b1"/><circle cx="336.08" cy="217.2" r="6.5" fill="#5bb7b1"/><circle cx="354.08" cy="217.2" r="6.5" fill="#5bb7b1"/><circle cx="372.08" cy="217.2" r="6.5" fill="#5bb7b1"/><circle cx="390.09" cy="217.2" r="6.5" fill="#5bb7b1"/><circle cx="408.09" cy="217.2" r="6.5" fill="#5bb7b1"/><circle cx="426.09" cy="217.2" r="6.5" fill="#5bb7b1"/><circle cx="444.09" cy="217.44" r="6.5" fill="#5bb7b1"/><circle cx="462.09" cy="217.4" r="6.5" fill="#5bb7b1"/><circle cx="480.09" cy="217.4" r="6.5" fill="#5bb7b1"/><circle cx="498.09" cy="217.4" r="6.5" fill="#5bb7b1"/><circle cx="516.09" cy="217.4" r="6.5" fill="#5bb7b1"/><circle cx="534.09" cy="217.4" r="6.5" fill="#5bb7b1"/><circle cx="552.09" cy="217.4" r="6.5" fill="#5bb7b1"/><circle cx="570.09" cy="217.4" r="6.5" fill="#5bb7b1"/><circle cx="588.21" cy="217.4" r="6.5" fill="#5bb7b1"/><circle cx="606.09" cy="217.4" r="6.5" fill="#5bb7b1"/><circle cx="174.08" cy="361.31" r="6.5" fill="#5bb7b1"/><circle cx="192.08" cy="361.31" r="6.5" fill="#5bb7b1"/><circle cx="210.08" cy="361.31" r="6.5" fill="#5bb7b1"/><circle cx="228.08" cy="361.31" r="6.5" fill="#5bb7b1"/><circle cx="246.08" cy="361.31" r="6.5" fill="#5bb7b1"/><circle cx="264.08" cy="361.31" r="6.5" fill="#5bb7b1"/><circle cx="282.08" cy="361.31" r="6.5" fill="#5bb7b1"/><circle cx="300.08" cy="361.25" r="6.5" fill="#5bb7b1"/><circle cx="318.08" cy="361.25" r="6.5" fill="#5bb7b1"/><circle cx="390.09" cy="361.2" r="6.5" fill="#5bb7b1"/><circle cx="408.09" cy="361.2" r="6.5" fill="#5bb7b1"/><circle cx="426.09" cy="361.2" r="6.5" fill="#5bb7b1"/><circle cx="444.09" cy="361.45" r="6.5" fill="#5bb7b1"/><circle cx="462.09" cy="361.35" r="6.5" fill="#5bb7b1"/><circle cx="480.09" cy="361.35" r="6.5" fill="#5bb7b1"/><circle cx="498.09" cy="361.35" r="6.5" fill="#5bb7b1"/><circle cx="516.09" cy="361.35" r="6.5" fill="#5bb7b1"/><circle cx="534.09" cy="361.35" r="6.5" fill="#5bb7b1"/><circle cx="552.09" cy="361.35" r="6.5" fill="#5bb7b1"/><circle cx="570.09" cy="361.35" r="6.5" fill="#5bb7b1"/><circle cx="588.21" cy="361.35" r="6.5" fill="#5bb7b1"/><circle cx="606.09" cy="361.35" r="6.5" fill="#5bb7b1"/><circle cx="174.08" cy="379.4" r="6.5" fill="#5bb7b1"/><circle cx="192.08" cy="379.4" r="6.5" fill="#5bb7b1"/><circle cx="210.08" cy="379.4" r="6.5" fill="#5bb7b1"/><circle cx="228.08" cy="379.4" r="6.5" fill="#5bb7b1"/><circle cx="246.08" cy="379.4" r="6.5" fill="#5bb7b1"/><circle cx="264.08" cy="379.4" r="6.5" fill="#5bb7b1"/><circle cx="282.08" cy="379.4" r="6.5" fill="#5bb7b1"/><circle cx="408.09" cy="379.2" r="6.5" fill="#5bb7b1"/><circle cx="426.09" cy="379.2" r="6.5" fill="#5bb7b1"/><circle cx="444.09" cy="379.45" r="6.5" fill="#5bb7b1"/><circle cx="462.09" cy="379.36" r="6.5" fill="#5bb7b1"/><circle cx="480.09" cy="379.36" r="6.5" fill="#5bb7b1"/><circle cx="498.09" cy="379.36" r="6.5" fill="#5bb7b1"/><circle cx="516.09" cy="379.36" r="6.5" fill="#5bb7b1"/><circle cx="534.09" cy="379.36" r="6.5" fill="#5bb7b1"/><circle cx="552.09" cy="379.36" r="6.5" fill="#5bb7b1"/><circle cx="570.09" cy="379.36" r="6.5" fill="#5bb7b1"/><circle cx="588.21" cy="379.36" r="6.5" fill="#ff8200"/><circle cx="606.09" cy="379.36" r="6.5" fill="#5bb7b1"/><circle cx="138.08" cy="235.4" r="6.5" fill="#5bb7b1"/><circle cx="156.08" cy="235.4" r="6.5" fill="#5bb7b1"/><circle cx="174.08" cy="235.4" r="6.5" fill="#5bb7b1"/><circle cx="192.08" cy="235.4" r="6.5" fill="#5bb7b1"/><circle cx="210.08" cy="235.4" r="6.5" fill="#5bb7b1"/><circle cx="228.08" cy="235.4" r="6.5" fill="#5bb7b1"/><circle cx="246.08" cy="235.4" r="6.5" fill="#5bb7b1"/><circle cx="264.08" cy="235.4" r="6.5" fill="#5bb7b1"/><circle cx="282.08" cy="235.4" r="6.5" fill="#5bb7b1"/><circle cx="300.08" cy="235.2" r="6.5" fill="#5bb7b1"/><circle cx="318.08" cy="235.2" r="6.5" fill="#5bb7b1"/><circle cx="336.08" cy="235.2" r="6.5" fill="#5bb7b1"/><circle cx="354.08" cy="235.2" r="6.5" fill="#5bb7b1"/><circle cx="372.08" cy="235.2" r="6.5" fill="#5bb7b1"/><circle cx="390.09" cy="235.2" r="6.5" fill="#5bb7b1"/><circle cx="408.09" cy="235.2" r="6.5" fill="#5bb7b1"/><circle cx="426.09" cy="235.2" r="6.5" fill="#5bb7b1"/><circle cx="444.09" cy="235.44" r="6.5" fill="#5bb7b1"/><circle cx="462.09" cy="235.4" r="6.5" fill="#5bb7b1"/><circle cx="480.09" cy="235.4" r="6.5" fill="#5bb7b1"/><circle cx="498.09" cy="235.4" r="6.5" fill="#5bb7b1"/><circle cx="516.09" cy="235.4" r="6.5" fill="#5bb7b1"/><circle cx="534.09" cy="235.4" r="6.5" fill="#5bb7b1"/><circle cx="552.09" cy="235.4" r="6.5" fill="#5bb7b1"/><circle cx="570.09" cy="235.4" r="6.5" fill="#5bb7b1"/><circle cx="588.21" cy="235.4" r="6.5" fill="#5bb7b1"/><circle cx="606.09" cy="235.4" r="6.5" fill="#5bb7b1"/><circle cx="624.09" cy="235.4" r="6.5" fill="#5bb7b1"/><circle cx="174.08" cy="325.38" r="6.5" fill="#5bb7b1"/><circle cx="192.08" cy="325.38" r="6.5" fill="#5bb7b1"/><circle cx="210.08" cy="325.38" r="6.5" fill="#5bb7b1"/><circle cx="228.08" cy="325.38" r="6.5" fill="#5bb7b1"/><circle cx="246.08" cy="325.38" r="6.5" fill="#5bb7b1"/><circle cx="264.08" cy="325.38" r="6.5" fill="#5bb7b1"/><circle cx="282.08" cy="325.38" r="6.5" fill="#5bb7b1"/><circle cx="300.08" cy="325.18" r="6.5" fill="#5bb7b1"/><circle cx="318.08" cy="325.18" r="6.5" fill="#5bb7b1"/><circle cx="336.08" cy="325.18" r="6.5" fill="#5bb7b1"/><circle cx="354.08" cy="325.22" r="6.5" fill="#5bb7b1"/><circle cx="372.08" cy="325.22" r="6.5" fill="#5bb7b1"/><circle cx="354.08" cy="343.18" r="6.5" fill="#5bb7b1"/><circle cx="372.08" cy="343.18" r="6.5" fill="#5bb7b1"/><circle cx="390.09" cy="325.22" r="6.5" fill="#5bb7b1"/><circle cx="408.09" cy="325.22" r="6.5" fill="#5bb7b1"/><circle cx="426.09" cy="325.22" r="6.5" fill="#5bb7b1"/><circle cx="444.09" cy="325.47" r="6.5" fill="#5bb7b1"/><circle cx="462.09" cy="325.38" r="6.5" fill="#5bb7b1"/><circle cx="480.09" cy="325.38" r="6.5" fill="#5bb7b1"/><circle cx="498.09" cy="325.38" r="6.5" fill="#5bb7b1"/><circle cx="516.09" cy="325.38" r="6.5" fill="#5bb7b1"/><circle cx="534.09" cy="325.38" r="6.5" fill="#5bb7b1"/><circle cx="552.09" cy="325.38" r="6.5" fill="#5bb7b1"/><circle cx="570.09" cy="325.38" r="6.5" fill="#5bb7b1"/><circle cx="588.21" cy="325.38" r="6.5" fill="#5bb7b1"/><circle cx="606.09" cy="325.38" r="6.5" fill="#5bb7b1"/><circle cx="624.09" cy="325.38" r="6.5" fill="#5bb7b1"/><circle cx="174.08" cy="343.33" r="6.5" fill="#5bb7b1"/><circle cx="192.08" cy="343.33" r="6.5" fill="#5bb7b1"/><circle cx="210.08" cy="343.33" r="6.5" fill="#5bb7b1"/><circle cx="228.08" cy="343.33" r="6.5" fill="#5bb7b1"/><circle cx="246.08" cy="343.33" r="6.5" fill="#5bb7b1"/><circle cx="264.08" cy="343.33" r="6.5" fill="#5bb7b1"/><circle cx="282.08" cy="343.33" r="6.5" fill="#5bb7b1"/><circle cx="300.08" cy="343.18" r="6.5" fill="#5bb7b1"/><circle cx="318.08" cy="343.18" r="6.5" fill="#5bb7b1"/><circle cx="336.08" cy="343.18" r="6.5" fill="#5bb7b1"/><circle cx="390.09" cy="343.22" r="6.5" fill="#5bb7b1"/><circle cx="408.09" cy="343.22" r="6.5" fill="#5bb7b1"/><circle cx="426.09" cy="343.22" r="6.5" fill="#5bb7b1"/><circle cx="444.09" cy="343.47" r="6.5" fill="#5bb7b1"/><circle cx="462.09" cy="343.38" r="6.5" fill="#5bb7b1"/><circle cx="480.09" cy="343.38" r="6.5" fill="#5bb7b1"/><circle cx="498.09" cy="343.38" r="6.5" fill="#5bb7b1"/><circle cx="516.09" cy="343.38" r="6.5" fill="#5bb7b1"/><circle cx="534.09" cy="343.38" r="6.5" fill="#5bb7b1"/><circle cx="552.09" cy="343.38" r="6.5" fill="#5bb7b1"/><circle cx="570.09" cy="343.38" r="6.5" fill="#5bb7b1"/><circle cx="588.21" cy="343.38" r="6.5" fill="#5bb7b1"/><circle cx="606.09" cy="343.38" r="6.5" fill="#5bb7b1"/><circle cx="624.09" cy="343.38" r="6.5" fill="#5bb7b1"/><circle cx="138.08" cy="253.38" r="6.5" fill="#5bb7b1"/><circle cx="156.08" cy="253.38" r="6.5" fill="#5bb7b1"/><circle cx="174.08" cy="253.38" r="6.5" fill="#5bb7b1"/><circle cx="192.08" cy="253.38" r="6.5" fill="#5bb7b1"/><circle cx="210.08" cy="253.38" r="6.5" fill="#5bb7b1"/><circle cx="228.08" cy="253.38" r="6.5" fill="#5bb7b1"/><circle cx="246.08" cy="253.38" r="6.5" fill="#5bb7b1"/><circle cx="264.08" cy="253.38" r="6.5" fill="#5bb7b1"/><circle cx="282.08" cy="253.38" r="6.5" fill="#5bb7b1"/><circle cx="300.08" cy="253.18" r="6.5" fill="#5bb7b1"/><circle cx="318.08" cy="253.18" r="6.5" fill="#5bb7b1"/><circle cx="336.08" cy="253.18" r="6.5" fill="#5bb7b1"/><circle cx="354.08" cy="253.22" r="6.5" fill="#5bb7b1"/><circle cx="372.08" cy="253.22" r="6.5" fill="#5bb7b1"/><circle cx="390.09" cy="253.22" r="6.5" fill="#5bb7b1"/><circle cx="408.09" cy="253.22" r="6.5" fill="#5bb7b1"/><circle cx="426.09" cy="253.22" r="6.5" fill="#5bb7b1"/><circle cx="444.09" cy="253.46" r="6.5" fill="#5bb7b1"/><circle cx="462.09" cy="253.38" r="6.5" fill="#5bb7b1"/><circle cx="480.09" cy="253.38" r="6.5" fill="#5bb7b1"/><circle cx="498.09" cy="253.38" r="6.5" fill="#5bb7b1"/><circle cx="516.09" cy="253.38" r="6.5" fill="#5bb7b1"/><circle cx="534.09" cy="253.38" r="6.5" fill="#5bb7b1"/><circle cx="552.09" cy="253.38" r="6.5" fill="#5bb7b1"/><circle cx="570.09" cy="253.38" r="6.5" fill="#5bb7b1"/><circle cx="588.21" cy="253.38" r="6.5" fill="#5bb7b1"/><circle cx="606.09" cy="253.38" r="6.5" fill="#5bb7b1"/><circle cx="624.09" cy="253.38" r="6.5" fill="#5bb7b1"/><circle cx="642.09" cy="253.38" r="6.5" fill="#5bb7b1"/><circle cx="138.08" cy="271.3" r="6.5" fill="#5bb7b1"/><circle cx="156.08" cy="271.3" r="6.5" fill="#5bb7b1"/><circle cx="174.08" cy="271.3" r="6.5" fill="#5bb7b1"/><circle cx="192.08" cy="271.3" r="6.5" fill="#5bb7b1"/><circle cx="210.08" cy="271.3" r="6.5" fill="#5bb7b1"/><circle cx="228.08" cy="271.3" r="6.5" fill="#5bb7b1"/><circle cx="246.08" cy="271.3" r="6.5" fill="#5bb7b1"/><circle cx="264.08" cy="271.3" r="6.5" fill="#5bb7b1"/><circle cx="282.08" cy="271.3" r="6.5" fill="#5bb7b1"/><circle cx="300.08" cy="271.14" r="6.5" fill="#5bb7b1"/><circle cx="318.08" cy="271.14" r="6.5" fill="#5bb7b1"/><circle cx="336.08" cy="271.14" r="6.5" fill="#5bb7b1"/><circle cx="354.08" cy="271.27" r="6.5" fill="#5bb7b1"/><circle cx="372.08" cy="271.27" r="6.5" fill="#5bb7b1"/><circle cx="390.09" cy="271.27" r="6.5" fill="#5bb7b1"/><circle cx="408.09" cy="271.27" r="6.5" fill="#5bb7b1"/><circle cx="426.09" cy="271.27" r="6.5" fill="#5bb7b1"/><circle cx="444.09" cy="271.51" r="6.5" fill="#5bb7b1"/><circle cx="462.09" cy="271.33" r="6.5" fill="#5bb7b1"/><circle cx="480.09" cy="271.33" r="6.5" fill="#5bb7b1"/><circle cx="498.09" cy="271.33" r="6.5" fill="#5bb7b1"/><circle cx="516.09" cy="271.33" r="6.5" fill="#5bb7b1"/><circle cx="534.09" cy="271.33" r="6.5" fill="#5bb7b1"/><circle cx="552.09" cy="271.33" r="6.5" fill="#5bb7b1"/><circle cx="570.09" cy="271.33" r="6.5" fill="#5bb7b1"/><circle cx="588.21" cy="271.33" r="6.5" fill="#5bb7b1"/><circle cx="606.09" cy="271.33" r="6.5" fill="#5bb7b1"/><circle cx="624.09" cy="271.33" r="6.5" fill="#5bb7b1"/><circle cx="642.09" cy="271.33" r="6.5" fill="#5bb7b1"/><circle cx="156.08" cy="307.31" r="6.5" fill="#5bb7b1"/><circle cx="174.08" cy="307.31" r="6.5" fill="#5bb7b1"/><circle cx="192.08" cy="307.31" r="6.5" fill="#5bb7b1"/><circle cx="210.08" cy="307.31" r="6.5" fill="#5bb7b1"/><circle cx="228.08" cy="307.31" r="6.5" fill="#5bb7b1"/><circle cx="246.08" cy="307.31" r="6.5" fill="#5bb7b1"/><circle cx="264.08" cy="307.31" r="6.5" fill="#5bb7b1"/><circle cx="282.08" cy="307.31" r="6.5" fill="#5bb7b1"/><circle cx="300.08" cy="307.2" r="6.5" fill="#5bb7b1"/><circle cx="318.08" cy="307.2" r="6.5" fill="#5bb7b1"/><circle cx="336.08" cy="307.2" r="6.5" fill="#5bb7b1"/><circle cx="354.08" cy="307.2" r="6.5" fill="#5bb7b1"/><circle cx="372.08" cy="307.2" r="6.5" fill="#5bb7b1"/><circle cx="390.09" cy="307.2" r="6.5" fill="#5bb7b1"/><circle cx="408.09" cy="307.2" r="6.5" fill="#5bb7b1"/><circle cx="426.09" cy="307.2" r="6.5" fill="#5bb7b1"/><circle cx="444.09" cy="307.45" r="6.5" fill="#5bb7b1"/><circle cx="462.09" cy="307.4" r="6.5" fill="#5bb7b1"/><circle cx="480.09" cy="307.4" r="6.5" fill="#5bb7b1"/><circle cx="498.09" cy="307.4" r="6.5" fill="#5bb7b1"/><circle cx="516.09" cy="307.4" r="6.5" fill="#5bb7b1"/><circle cx="534.09" cy="307.4" r="6.5" fill="#5bb7b1"/><circle cx="552.09" cy="307.4" r="6.5" fill="#5bb7b1"/><circle cx="570.09" cy="307.4" r="6.5" fill="#5bb7b1"/><circle cx="588.21" cy="307.4" r="6.5" fill="#5bb7b1"/><circle cx="606.09" cy="307.4" r="6.5" fill="#5bb7b1"/><circle cx="624.09" cy="307.4" r="6.5" fill="#5bb7b1"/><circle cx="642.09" cy="307.4" r="6.5" fill="#5bb7b1"/><circle cx="138.08" cy="289.22" r="6.5" fill="#5bb7b1"/><circle cx="156.08" cy="289.22" r="6.5" fill="#5bb7b1"/><circle cx="174.08" cy="289.22" r="6.5" fill="#5bb7b1"/><circle cx="192.08" cy="289.22" r="6.5" fill="#5bb7b1"/><circle cx="210.08" cy="289.22" r="6.5" fill="#5bb7b1"/><circle cx="228.08" cy="289.22" r="6.5" fill="#5bb7b1"/><circle cx="246.08" cy="289.22" r="6.5" fill="#5bb7b1"/><circle cx="264.08" cy="289.22" r="6.5" fill="#5bb7b1"/><circle cx="282.08" cy="289.22" r="6.5" fill="#5bb7b1"/><circle cx="300.08" cy="289.16" r="6.5" fill="#5bb7b1"/><circle cx="318.08" cy="289.16" r="6.5" fill="#5bb7b1"/><circle cx="336.08" cy="289.16" r="6.5" fill="#5bb7b1"/><circle cx="354.08" cy="289.24" r="6.5" fill="#5bb7b1"/><circle cx="372.08" cy="289.24" r="6.5" fill="#5bb7b1"/><circle cx="390.09" cy="289.24" r="6.5" fill="#5bb7b1"/><circle cx="408.09" cy="289.24" r="6.5" fill="#5bb7b1"/><circle cx="426.09" cy="289.24" r="6.5" fill="#5bb7b1"/><circle cx="444.09" cy="289.49" r="6.5" fill="#5bb7b1"/><circle cx="462.09" cy="289.35" r="6.5" fill="#5bb7b1"/><circle cx="480.09" cy="289.35" r="6.5" fill="#5bb7b1"/><circle cx="498.09" cy="289.35" r="6.5" fill="#5bb7b1"/><circle cx="516.09" cy="289.35" r="6.5" fill="#5bb7b1"/><circle cx="534.09" cy="289.35" r="6.5" fill="#5bb7b1"/><circle cx="552.09" cy="289.35" r="6.5" fill="#5bb7b1"/><circle cx="570.09" cy="289.35" r="6.5" fill="#5bb7b1"/><circle cx="588.21" cy="289.35" r="6.5" fill="#5bb7b1"/><circle cx="606.09" cy="289.35" r="6.5" fill="#5bb7b1"/><circle cx="624.09" cy="289.35" r="6.5" fill="#5bb7b1"/><circle cx="642.09" cy="289.35" r="6.5" fill="#5bb7b1"/></g></svg>