<?xml version="1.0" encoding="UTF-8"?>
<svg id="Layer_1" data-name="Layer 1" xmlns="http://www.w3.org/2000/svg" viewBox="0 0 90.71 84.28">
  <defs>
    <style>
      .cls-1 {
        fill: #5cb8b2;
      }

      .cls-1, .cls-2 {
        fill-rule: evenodd;
      }

      .cls-2 {
        fill: #ff8200;
      }
    </style>
  </defs>
  <path class="cls-2" d="M45.81,19.43c-7.8,0-14.14,6.37-14.14,14.2s6.34,14.18,14.14,14.18,14.14-6.36,14.14-14.18-6.34-14.2-14.14-14.2Zm0,23.68c-5.21,0-9.44-4.25-9.44-9.48s4.24-9.5,9.44-9.5,9.44,4.26,9.44,9.5-4.23,9.48-9.44,9.48Z"/>
  <path class="cls-1" d="M18.03,34.13c-5.91,0-10.73,4.82-10.73,10.75s4.81,10.74,10.73,10.74,10.73-4.82,10.73-10.74-4.81-10.75-10.73-10.75Zm0,16.79c-3.38,0-6.03-2.65-6.03-6.04s2.65-6.05,6.03-6.05,6.02,2.66,6.02,6.05-2.65,6.04-6.02,6.04Z"/>
  <path class="cls-1" d="M73.35,34.15h-.09s-.18,0-.18,0c-5.76,.15-10.45,4.96-10.45,10.73s4.81,10.74,10.73,10.74,10.73-4.82,10.73-10.74-4.81-10.73-10.73-10.73Zm0,16.77c-3.38,0-6.03-2.65-6.03-6.04s2.65-6.05,6.03-6.05,6.03,2.66,6.03,6.05-2.65,6.04-6.03,6.04Z"/>
  <path class="cls-2" d="M86.95,79.89c1.28,0,2.33-1.06,2.34-2.34v-3.64c0-8.99-7.3-16.31-16.27-16.31-3.23,0-6.35,.94-9.02,2.7l-.21,.14-.14-.21c-4.09-6.17-10.93-9.85-18.31-9.85h0c-7.37,0-14.21,3.68-18.3,9.84l-.14,.21-.21-.14c-2.67-1.77-5.78-2.7-9-2.7-8.98,0-16.29,7.32-16.29,16.31v3.65c0,.63,.25,1.22,.69,1.66,.44,.44,1.03,.68,1.65,.68h.01c1.29,0,2.33-1.05,2.34-2.34v-3.64c0-6.51,5.09-11.61,11.59-11.61,2.54,0,4.93,.78,6.93,2.27l.15,.11-.06,.17c-.88,2.42-1.33,4.96-1.33,7.55v5.14c0,.63,.25,1.22,.69,1.66,.44,.44,1.03,.68,1.65,.68h.01c1.29,0,2.33-1.05,2.34-2.34v-5.14c0-2.5,.51-4.91,1.5-7.15,.1-.17,.16-.3,.21-.44,2.9-6.02,8.86-9.74,15.56-9.74s12.75,3.78,15.61,9.86c.03,.08,.07,.15,.1,.22,1.03,2.28,1.55,4.71,1.55,7.25v5.14c0,.63,.25,1.22,.7,1.66,.44,.44,1.03,.68,1.66,.68h0c1.29,0,2.33-1.06,2.34-2.34v-5.14c0-2.6-.44-5.14-1.32-7.55l-.06-.17,.15-.11c2-1.49,4.4-2.28,6.94-2.28,6.5,0,11.59,5.1,11.59,11.61v3.64c0,1.28,1.05,2.33,2.34,2.34Z"/>
</svg>