<svg id="Layer_1" data-name="Layer 1" xmlns="http://www.w3.org/2000/svg" viewBox="0 0 90.71 73.7"><path d="M24.77,4.16A1.81,1.81,0,0,0,23,6V8.28H17.57a4.91,4.91,0,0,0-4.91,4.9V64.64a4.91,4.91,0,0,0,4.91,4.9H73.14a4.91,4.91,0,0,0,4.91-4.9V13.18a4.91,4.91,0,0,0-4.91-4.9H67.75V6a1.81,1.81,0,1,0-3.61,0V8.28H26.57V6A1.81,1.81,0,0,0,24.77,4.16ZM74.43,64.64a1.28,1.28,0,0,1-1.29,1.28H17.57a1.28,1.28,0,0,1-1.29-1.28V24.25H74.43ZM64.14,11.89V14.2a1.81,1.81,0,1,0,3.61,0V11.89h5.39a1.29,1.29,0,0,1,1.29,1.29v7.45H16.28V13.18a1.29,1.29,0,0,1,1.29-1.29H23V14.2a1.81,1.81,0,1,0,3.61,0V11.89Z" fill="#f58020"/><path d="M24.77,39A1.94,1.94,0,1,0,26.7,41,1.94,1.94,0,0,0,24.77,39Z" fill="#5cb8b2"/><path d="M24.77,47.27A1.94,1.94,0,1,0,26.7,49.2,1.94,1.94,0,0,0,24.77,47.27Z" fill="#5cb8b2"/><path d="M24.77,55.51a1.93,1.93,0,1,0,1.93,1.93A1.93,1.93,0,0,0,24.77,55.51Z" fill="#5cb8b2"/><path d="M57.71,30.8a1.94,1.94,0,1,0,1.93,1.93A1.94,1.94,0,0,0,57.71,30.8Z" fill="#5cb8b2"/><path d="M57.71,39A1.94,1.94,0,1,0,59.64,41,1.94,1.94,0,0,0,57.71,39Z" fill="#5cb8b2"/><path d="M57.71,47.27a1.94,1.94,0,1,0,1.93,1.93A1.94,1.94,0,0,0,57.71,47.27Z" fill="#5cb8b2"/><path d="M57.71,55.51a1.93,1.93,0,1,0,1.93,1.93A1.93,1.93,0,0,0,57.71,55.51Z" fill="#5cb8b2"/><path d="M65.94,30.8a1.94,1.94,0,1,0,1.94,1.93A1.94,1.94,0,0,0,65.94,30.8Z" fill="#5cb8b2"/><path d="M65.94,39A1.94,1.94,0,1,0,67.88,41,1.94,1.94,0,0,0,65.94,39Z" fill="#5cb8b2"/><path d="M65.94,47.27a1.94,1.94,0,1,0,1.94,1.93A1.94,1.94,0,0,0,65.94,47.27Z" fill="#5cb8b2"/><path d="M41.24,30.8a1.94,1.94,0,1,0,1.93,1.93A1.94,1.94,0,0,0,41.24,30.8Z" fill="#5cb8b2"/><path d="M41.24,39A1.94,1.94,0,1,0,43.17,41,1.94,1.94,0,0,0,41.24,39Z" fill="#5cb8b2"/><path d="M41.24,47.27a1.94,1.94,0,1,0,1.93,1.93A1.94,1.94,0,0,0,41.24,47.27Z" fill="#5cb8b2"/><path d="M41.24,55.51a1.93,1.93,0,1,0,1.93,1.93A1.93,1.93,0,0,0,41.24,55.51Z" fill="#5cb8b2"/><path d="M33,30.8a1.94,1.94,0,1,0,1.94,1.93A1.94,1.94,0,0,0,33,30.8Z" fill="#5cb8b2"/><path d="M33,39A1.94,1.94,0,1,0,34.94,41,1.94,1.94,0,0,0,33,39Z" fill="#5cb8b2"/><path d="M33,47.27a1.94,1.94,0,1,0,1.94,1.93A1.94,1.94,0,0,0,33,47.27Z" fill="#5cb8b2"/><circle cx="33" cy="57.44" r="1.93" fill="#5cb8b2"/><path d="M49.47,30.8a1.94,1.94,0,1,0,1.94,1.93A1.94,1.94,0,0,0,49.47,30.8Z" fill="#5cb8b2"/><path d="M49.47,39A1.94,1.94,0,1,0,51.41,41,1.94,1.94,0,0,0,49.47,39Z" fill="#5cb8b2"/><path d="M49.47,47.27a1.94,1.94,0,1,0,1.94,1.93A1.94,1.94,0,0,0,49.47,47.27Z" fill="#5cb8b2"/><path d="M49.47,55.51a1.93,1.93,0,1,0,1.94,1.93A1.93,1.93,0,0,0,49.47,55.51Z" fill="#5cb8b2"/></svg>