<svg xmlns="http://www.w3.org/2000/svg" viewBox="0 0 725.55 580.59"><g id="Australia"><circle cx="236.77" cy="524.3" r="6.5" fill="#5bb7b1"/><circle cx="254.77" cy="524.3" r="6.5" fill="#5bb7b1"/><circle cx="290.77" cy="524.3" r="6.5" fill="#5bb7b1"/><circle cx="308.77" cy="524.3" r="6.5" fill="#5bb7b1"/><circle cx="344.77" cy="524.3" r="6.5" fill="#5bb7b1"/><circle cx="326.77" cy="524.3" r="6.5" fill="#5bb7b1"/><circle cx="56.77" cy="200.29" r="6.5" fill="#5bb7b1"/><circle cx="74.77" cy="200.29" r="6.5" fill="#5bb7b1"/><circle cx="92.77" cy="200.29" r="6.5" fill="#5bb7b1"/><circle cx="110.77" cy="200.29" r="6.5" fill="#5bb7b1"/><circle cx="128.77" cy="200.29" r="6.5" fill="#5bb7b1"/><circle cx="146.77" cy="200.29" r="6.5" fill="#5bb7b1"/><circle cx="164.77" cy="200.29" r="6.5" fill="#5bb7b1"/><circle cx="182.77" cy="200.29" r="6.5" fill="#5bb7b1"/><circle cx="200.77" cy="200.29" r="6.5" fill="#5bb7b1"/><circle cx="218.77" cy="200.29" r="6.5" fill="#5bb7b1"/><circle cx="236.77" cy="200.29" r="6.5" fill="#5bb7b1"/><circle cx="254.77" cy="200.29" r="6.5" fill="#5bb7b1"/><circle cx="290.77" cy="200.29" r="6.5" fill="#5bb7b1"/><circle cx="308.77" cy="200.29" r="6.5" fill="#5bb7b1"/><circle cx="344.77" cy="200.29" r="6.5" fill="#5bb7b1"/><circle cx="362.78" cy="200.29" r="6.5" fill="#5bb7b1"/><circle cx="380.78" cy="200.29" r="6.5" fill="#5bb7b1"/><circle cx="398.78" cy="200.29" r="6.5" fill="#5bb7b1"/><circle cx="416.78" cy="200.29" r="6.5" fill="#5bb7b1"/><circle cx="434.78" cy="200.29" r="6.5" fill="#5bb7b1"/><circle cx="470.78" cy="200.29" r="6.5" fill="#5bb7b1"/><circle cx="488.78" cy="200.29" r="6.5" fill="#5bb7b1"/><circle cx="506.78" cy="200.29" r="6.5" fill="#5bb7b1"/><circle cx="524.78" cy="200.29" r="6.5" fill="#5bb7b1"/><circle cx="542.78" cy="200.29" r="6.5" fill="#5bb7b1"/><circle cx="560.78" cy="200.29" r="6.5" fill="#5bb7b1"/><circle cx="578.78" cy="200.29" r="6.5" fill="#5bb7b1"/><circle cx="596.78" cy="200.29" r="6.5" fill="#5bb7b1"/><circle cx="614.78" cy="200.29" r="6.5" fill="#5bb7b1"/><circle cx="632.78" cy="200.29" r="6.5" fill="#5bb7b1"/><circle cx="650.78" cy="200.29" r="6.5" fill="#5bb7b1"/><circle cx="452.78" cy="200.29" r="6.5" fill="#5bb7b1"/><circle cx="326.77" cy="200.29" r="6.5" fill="#5bb7b1"/><circle cx="272.77" cy="200.29" r="6.5" fill="#5bb7b1"/><circle cx="56.77" cy="218.3" r="6.5" fill="#5bb7b1"/><circle cx="74.77" cy="218.3" r="6.5" fill="#5bb7b1"/><circle cx="92.77" cy="218.3" r="6.5" fill="#5bb7b1"/><circle cx="110.77" cy="218.3" r="6.5" fill="#5bb7b1"/><circle cx="128.77" cy="218.3" r="6.5" fill="#5bb7b1"/><circle cx="146.77" cy="218.3" r="6.5" fill="#5bb7b1"/><circle cx="164.77" cy="218.3" r="6.5" fill="#5bb7b1"/><circle cx="182.77" cy="218.3" r="6.5" fill="#5bb7b1"/><circle cx="200.77" cy="218.3" r="6.5" fill="#5bb7b1"/><circle cx="218.77" cy="218.3" r="6.5" fill="#5bb7b1"/><circle cx="236.77" cy="218.3" r="6.5" fill="#5bb7b1"/><circle cx="254.77" cy="218.3" r="6.5" fill="#5bb7b1"/><circle cx="290.77" cy="218.3" r="6.5" fill="#5bb7b1"/><circle cx="308.77" cy="218.3" r="6.5" fill="#5bb7b1"/><circle cx="344.77" cy="218.3" r="6.5" fill="#5bb7b1"/><circle cx="362.78" cy="218.3" r="6.5" fill="#5bb7b1"/><circle cx="380.78" cy="218.3" r="6.5" fill="#5bb7b1"/><circle cx="398.78" cy="218.3" r="6.5" fill="#5bb7b1"/><circle cx="416.78" cy="218.3" r="6.5" fill="#5bb7b1"/><circle cx="434.78" cy="218.3" r="6.5" fill="#5bb7b1"/><circle cx="470.78" cy="218.3" r="6.5" fill="#5bb7b1"/><circle cx="488.78" cy="218.3" r="6.5" fill="#5bb7b1"/><circle cx="506.78" cy="218.3" r="6.5" fill="#5bb7b1"/><circle cx="524.78" cy="218.3" r="6.5" fill="#5bb7b1"/><circle cx="542.78" cy="218.3" r="6.5" fill="#5bb7b1"/><circle cx="560.78" cy="218.3" r="6.5" fill="#5bb7b1"/><circle cx="578.78" cy="218.3" r="6.5" fill="#5bb7b1"/><circle cx="596.78" cy="218.3" r="6.5" fill="#5bb7b1"/><circle cx="614.78" cy="218.3" r="6.5" fill="#5bb7b1"/><circle cx="632.78" cy="218.3" r="6.5" fill="#5bb7b1"/><circle cx="650.78" cy="218.3" r="6.5" fill="#5bb7b1"/><circle cx="452.78" cy="218.3" r="6.5" fill="#5bb7b1"/><circle cx="326.77" cy="218.3" r="6.5" fill="#5bb7b1"/><circle cx="272.77" cy="218.3" r="6.5" fill="#5bb7b1"/><circle cx="56.77" cy="236.3" r="6.5" fill="#5bb7b1"/><circle cx="74.77" cy="236.3" r="6.5" fill="#5bb7b1"/><circle cx="92.77" cy="236.3" r="6.5" fill="#5bb7b1"/><circle cx="110.77" cy="236.3" r="6.5" fill="#5bb7b1"/><circle cx="128.77" cy="236.3" r="6.5" fill="#5bb7b1"/><circle cx="146.77" cy="236.3" r="6.5" fill="#5bb7b1"/><circle cx="164.77" cy="236.3" r="6.5" fill="#5bb7b1"/><circle cx="182.77" cy="236.3" r="6.5" fill="#5bb7b1"/><circle cx="200.77" cy="236.3" r="6.5" fill="#5bb7b1"/><circle cx="218.77" cy="236.3" r="6.5" fill="#5bb7b1"/><circle cx="236.77" cy="236.3" r="6.5" fill="#5bb7b1"/><circle cx="254.77" cy="236.3" r="6.5" fill="#5bb7b1"/><circle cx="290.77" cy="236.3" r="6.5" fill="#5bb7b1"/><circle cx="308.77" cy="236.3" r="6.5" fill="#5bb7b1"/><circle cx="344.77" cy="236.3" r="6.5" fill="#5bb7b1"/><circle cx="362.78" cy="236.3" r="6.5" fill="#5bb7b1"/><circle cx="380.78" cy="236.3" r="6.5" fill="#5bb7b1"/><circle cx="398.78" cy="236.3" r="6.5" fill="#5bb7b1"/><circle cx="416.78" cy="236.3" r="6.5" fill="#5bb7b1"/><circle cx="434.78" cy="236.3" r="6.5" fill="#5bb7b1"/><circle cx="470.78" cy="236.3" r="6.5" fill="#5bb7b1"/><circle cx="488.78" cy="236.3" r="6.5" fill="#5bb7b1"/><circle cx="506.78" cy="236.3" r="6.5" fill="#5bb7b1"/><circle cx="524.78" cy="236.3" r="6.5" fill="#5bb7b1"/><circle cx="542.78" cy="236.3" r="6.5" fill="#5bb7b1"/><circle cx="560.78" cy="236.3" r="6.5" fill="#5bb7b1"/><circle cx="578.78" cy="236.3" r="6.5" fill="#5bb7b1"/><circle cx="596.78" cy="236.3" r="6.5" fill="#5bb7b1"/><circle cx="614.78" cy="236.3" r="6.5" fill="#5bb7b1"/><circle cx="632.78" cy="236.3" r="6.5" fill="#5bb7b1"/><circle cx="668.78" cy="236.3" r="6.5" fill="#5bb7b1"/><circle cx="650.78" cy="236.3" r="6.5" fill="#5bb7b1"/><circle cx="452.78" cy="236.3" r="6.5" fill="#5bb7b1"/><circle cx="326.77" cy="236.3" r="6.5" fill="#5bb7b1"/><circle cx="272.77" cy="236.3" r="6.5" fill="#5bb7b1"/><circle cx="56.77" cy="254.3" r="6.5" fill="#5bb7b1"/><circle cx="74.77" cy="254.3" r="6.5" fill="#5bb7b1"/><circle cx="92.77" cy="254.3" r="6.5" fill="#5bb7b1"/><circle cx="110.77" cy="254.3" r="6.5" fill="#5bb7b1"/><circle cx="128.77" cy="254.3" r="6.5" fill="#5bb7b1"/><circle cx="146.77" cy="254.3" r="6.5" fill="#5bb7b1"/><circle cx="164.77" cy="254.3" r="6.5" fill="#5bb7b1"/><circle cx="182.77" cy="254.3" r="6.5" fill="#5bb7b1"/><circle cx="200.77" cy="254.3" r="6.5" fill="#5bb7b1"/><circle cx="218.77" cy="254.3" r="6.5" fill="#5bb7b1"/><circle cx="236.77" cy="254.3" r="6.5" fill="#5bb7b1"/><circle cx="254.77" cy="254.3" r="6.5" fill="#5bb7b1"/><circle cx="290.77" cy="254.3" r="6.5" fill="#5bb7b1"/><circle cx="308.77" cy="254.3" r="6.5" fill="#5bb7b1"/><circle cx="344.77" cy="254.3" r="6.5" fill="#5bb7b1"/><circle cx="362.78" cy="254.3" r="6.5" fill="#5bb7b1"/><circle cx="380.78" cy="254.3" r="6.5" fill="#5bb7b1"/><circle cx="398.78" cy="254.3" r="6.5" fill="#5bb7b1"/><circle cx="416.78" cy="254.3" r="6.5" fill="#5bb7b1"/><circle cx="434.78" cy="254.3" r="6.5" fill="#5bb7b1"/><circle cx="470.78" cy="254.3" r="6.5" fill="#5bb7b1"/><circle cx="488.78" cy="254.3" r="6.5" fill="#5bb7b1"/><circle cx="506.78" cy="254.3" r="6.5" fill="#5bb7b1"/><circle cx="524.78" cy="254.3" r="6.5" fill="#5bb7b1"/><circle cx="542.78" cy="254.3" r="6.5" fill="#5bb7b1"/><circle cx="560.78" cy="254.3" r="6.5" fill="#5bb7b1"/><circle cx="578.78" cy="254.3" r="6.5" fill="#5bb7b1"/><circle cx="596.78" cy="254.3" r="6.5" fill="#5bb7b1"/><circle cx="614.78" cy="254.3" r="6.5" fill="#5bb7b1"/><circle cx="632.78" cy="254.3" r="6.5" fill="#5bb7b1"/><circle cx="650.78" cy="254.3" r="6.5" fill="#5bb7b1"/><circle cx="452.78" cy="254.3" r="6.5" fill="#5bb7b1"/><circle cx="326.77" cy="254.3" r="6.5" fill="#5bb7b1"/><circle cx="272.77" cy="254.3" r="6.5" fill="#5bb7b1"/><circle cx="56.77" cy="272.3" r="6.5" fill="#5bb7b1"/><circle cx="74.77" cy="272.3" r="6.5" fill="#5bb7b1"/><circle cx="92.77" cy="272.3" r="6.5" fill="#5bb7b1"/><circle cx="110.77" cy="272.3" r="6.5" fill="#5bb7b1"/><circle cx="128.77" cy="272.3" r="6.5" fill="#5bb7b1"/><circle cx="146.77" cy="272.3" r="6.5" fill="#5bb7b1"/><circle cx="164.77" cy="272.3" r="6.5" fill="#5bb7b1"/><circle cx="182.77" cy="272.3" r="6.5" fill="#5bb7b1"/><circle cx="200.77" cy="272.3" r="6.5" fill="#5bb7b1"/><circle cx="218.77" cy="272.3" r="6.5" fill="#5bb7b1"/><circle cx="236.77" cy="272.3" r="6.5" fill="#5bb7b1"/><circle cx="254.77" cy="272.3" r="6.5" fill="#5bb7b1"/><circle cx="290.77" cy="272.3" r="6.5" fill="#5bb7b1"/><circle cx="308.77" cy="272.3" r="6.5" fill="#5bb7b1"/><circle cx="344.77" cy="272.3" r="6.5" fill="#5bb7b1"/><circle cx="362.78" cy="272.3" r="6.5" fill="#5bb7b1"/><circle cx="380.78" cy="272.3" r="6.5" fill="#5bb7b1"/><circle cx="398.78" cy="272.3" r="6.5" fill="#5bb7b1"/><circle cx="416.78" cy="272.3" r="6.5" fill="#5bb7b1"/><circle cx="434.78" cy="272.3" r="6.5" fill="#5bb7b1"/><circle cx="470.78" cy="272.3" r="6.5" fill="#5bb7b1"/><circle cx="488.78" cy="272.3" r="6.5" fill="#5bb7b1"/><circle cx="506.78" cy="272.3" r="6.5" fill="#5bb7b1"/><circle cx="524.78" cy="272.3" r="6.5" fill="#5bb7b1"/><circle cx="542.78" cy="272.3" r="6.5" fill="#5bb7b1"/><circle cx="560.78" cy="272.3" r="6.5" fill="#5bb7b1"/><circle cx="578.78" cy="272.3" r="6.5" fill="#5bb7b1"/><circle cx="596.78" cy="272.3" r="6.5" fill="#5bb7b1"/><circle cx="614.78" cy="272.3" r="6.5" fill="#5bb7b1"/><circle cx="632.78" cy="272.3" r="6.5" fill="#5bb7b1"/><circle cx="650.78" cy="272.3" r="6.5" fill="#5bb7b1"/><circle cx="452.78" cy="272.3" r="6.5" fill="#5bb7b1"/><circle cx="326.77" cy="272.3" r="6.5" fill="#5bb7b1"/><circle cx="272.77" cy="272.3" r="6.5" fill="#5bb7b1"/><circle cx="110.77" cy="290.3" r="6.5" fill="#5bb7b1"/><circle cx="128.77" cy="290.3" r="6.5" fill="#5bb7b1"/><circle cx="146.77" cy="290.3" r="6.5" fill="#5bb7b1"/><circle cx="164.77" cy="290.3" r="6.5" fill="#5bb7b1"/><circle cx="182.77" cy="290.3" r="6.5" fill="#5bb7b1"/><circle cx="200.77" cy="290.3" r="6.5" fill="#5bb7b1"/><circle cx="218.77" cy="290.3" r="6.5" fill="#5bb7b1"/><circle cx="236.77" cy="290.3" r="6.5" fill="#5bb7b1"/><circle cx="254.77" cy="290.3" r="6.5" fill="#5bb7b1"/><circle cx="290.77" cy="290.3" r="6.5" fill="#5bb7b1"/><circle cx="308.77" cy="290.3" r="6.5" fill="#5bb7b1"/><circle cx="344.77" cy="290.3" r="6.5" fill="#5bb7b1"/><circle cx="362.78" cy="290.3" r="6.5" fill="#5bb7b1"/><circle cx="380.78" cy="290.3" r="6.5" fill="#5bb7b1"/><circle cx="398.78" cy="290.3" r="6.5" fill="#5bb7b1"/><circle cx="416.78" cy="290.3" r="6.5" fill="#5bb7b1"/><circle cx="434.78" cy="290.3" r="6.5" fill="#5bb7b1"/><circle cx="470.78" cy="290.3" r="6.5" fill="#5bb7b1"/><circle cx="488.78" cy="290.3" r="6.5" fill="#5bb7b1"/><circle cx="506.78" cy="290.3" r="6.5" fill="#5bb7b1"/><circle cx="524.78" cy="290.3" r="6.5" fill="#5bb7b1"/><circle cx="542.78" cy="290.3" r="6.5" fill="#5bb7b1"/><circle cx="560.78" cy="290.3" r="6.5" fill="#5bb7b1"/><circle cx="578.78" cy="290.3" r="6.5" fill="#5bb7b1"/><circle cx="596.78" cy="290.3" r="6.5" fill="#5bb7b1"/><circle cx="614.78" cy="290.3" r="6.5" fill="#5bb7b1"/><circle cx="632.78" cy="290.3" r="6.5" fill="#5bb7b1"/><circle cx="650.78" cy="290.3" r="6.5" fill="#5bb7b1"/><circle cx="452.78" cy="290.3" r="6.5" fill="#5bb7b1"/><circle cx="326.77" cy="290.3" r="6.5" fill="#5bb7b1"/><circle cx="272.77" cy="290.3" r="6.5" fill="#5bb7b1"/><circle cx="110.77" cy="308.3" r="6.5" fill="#5bb7b1"/><circle cx="128.77" cy="308.3" r="6.5" fill="#5bb7b1"/><circle cx="146.77" cy="308.3" r="6.5" fill="#5bb7b1"/><circle cx="164.77" cy="308.3" r="6.5" fill="#5bb7b1"/><circle cx="182.77" cy="308.3" r="6.5" fill="#5bb7b1"/><circle cx="200.77" cy="308.3" r="6.5" fill="#5bb7b1"/><circle cx="218.77" cy="308.3" r="6.5" fill="#5bb7b1"/><circle cx="236.77" cy="308.3" r="6.5" fill="#5bb7b1"/><circle cx="254.77" cy="308.3" r="6.5" fill="#5bb7b1"/><circle cx="290.77" cy="308.3" r="6.5" fill="#5bb7b1"/><circle cx="308.77" cy="308.3" r="6.5" fill="#5bb7b1"/><circle cx="344.77" cy="308.3" r="6.5" fill="#5bb7b1"/><circle cx="362.78" cy="308.3" r="6.5" fill="#5bb7b1"/><circle cx="380.78" cy="308.3" r="6.5" fill="#5bb7b1"/><circle cx="398.78" cy="308.3" r="6.5" fill="#5bb7b1"/><circle cx="416.78" cy="308.3" r="6.5" fill="#5bb7b1"/><circle cx="434.78" cy="308.3" r="6.5" fill="#5bb7b1"/><circle cx="470.78" cy="308.3" r="6.5" fill="#5bb7b1"/><circle cx="488.78" cy="308.3" r="6.5" fill="#5bb7b1"/><circle cx="506.78" cy="308.3" r="6.5" fill="#5bb7b1"/><circle cx="524.78" cy="308.3" r="6.5" fill="#5bb7b1"/><circle cx="542.78" cy="308.3" r="6.5" fill="#5bb7b1"/><circle cx="560.78" cy="308.3" r="6.5" fill="#5bb7b1"/><circle cx="578.78" cy="308.3" r="6.5" fill="#5bb7b1"/><circle cx="596.78" cy="308.3" r="6.5" fill="#5bb7b1"/><circle cx="614.78" cy="308.3" r="6.5" fill="#5bb7b1"/><circle cx="632.78" cy="308.3" r="6.5" fill="#5bb7b1"/><circle cx="650.78" cy="308.3" r="6.5" fill="#5bb7b1"/><circle cx="452.78" cy="308.3" r="6.5" fill="#5bb7b1"/><circle cx="326.77" cy="308.3" r="6.5" fill="#5bb7b1"/><circle cx="272.77" cy="308.3" r="6.5" fill="#5bb7b1"/><circle cx="92.77" cy="326.3" r="6.5" fill="#5bb7b1"/><circle cx="110.77" cy="326.3" r="6.5" fill="#5bb7b1"/><circle cx="128.77" cy="326.3" r="6.5" fill="#5bb7b1"/><circle cx="146.77" cy="326.3" r="6.5" fill="#5bb7b1"/><circle cx="164.77" cy="326.3" r="6.5" fill="#5bb7b1"/><circle cx="182.77" cy="326.3" r="6.5" fill="#5bb7b1"/><circle cx="200.77" cy="326.3" r="6.5" fill="#5bb7b1"/><circle cx="218.77" cy="326.3" r="6.5" fill="#5bb7b1"/><circle cx="236.77" cy="326.3" r="6.5" fill="#5bb7b1"/><circle cx="254.77" cy="326.3" r="6.5" fill="#5bb7b1"/><circle cx="290.77" cy="326.3" r="6.5" fill="#5bb7b1"/><circle cx="308.77" cy="326.3" r="6.5" fill="#5bb7b1"/><circle cx="344.77" cy="326.3" r="6.5" fill="#5bb7b1"/><circle cx="362.78" cy="326.3" r="6.5" fill="#5bb7b1"/><circle cx="380.78" cy="326.3" r="6.5" fill="#5bb7b1"/><circle cx="398.78" cy="326.3" r="6.5" fill="#5bb7b1"/><circle cx="416.78" cy="326.3" r="6.5" fill="#5bb7b1"/><circle cx="434.78" cy="326.3" r="6.5" fill="#5bb7b1"/><circle cx="470.78" cy="326.3" r="6.5" fill="#5bb7b1"/><circle cx="488.78" cy="326.3" r="6.5" fill="#5bb7b1"/><circle cx="506.78" cy="326.3" r="6.5" fill="#5bb7b1"/><circle cx="524.78" cy="326.3" r="6.5" fill="#5bb7b1"/><circle cx="542.78" cy="326.3" r="6.5" fill="#5bb7b1"/><circle cx="560.78" cy="326.3" r="6.5" fill="#5bb7b1"/><circle cx="578.78" cy="326.3" r="6.5" fill="#5bb7b1"/><circle cx="596.78" cy="326.3" r="6.5" fill="#5bb7b1"/><circle cx="614.78" cy="326.3" r="6.5" fill="#5bb7b1"/><circle cx="632.78" cy="326.3" r="6.5" fill="#5bb7b1"/><circle cx="452.78" cy="326.3" r="6.5" fill="#5bb7b1"/><circle cx="326.77" cy="326.3" r="6.5" fill="#5bb7b1"/><circle cx="272.77" cy="326.3" r="6.5" fill="#5bb7b1"/><circle cx="92.77" cy="344.3" r="6.5" fill="#5bb7b1"/><circle cx="110.77" cy="344.3" r="6.5" fill="#5bb7b1"/><circle cx="128.77" cy="344.3" r="6.5" fill="#5bb7b1"/><circle cx="146.77" cy="344.3" r="6.5" fill="#5bb7b1"/><circle cx="164.77" cy="344.3" r="6.5" fill="#5bb7b1"/><circle cx="182.77" cy="344.3" r="6.5" fill="#5bb7b1"/><circle cx="200.77" cy="344.3" r="6.5" fill="#5bb7b1"/><circle cx="218.77" cy="344.3" r="6.5" fill="#5bb7b1"/><circle cx="236.77" cy="344.3" r="6.5" fill="#5bb7b1"/><circle cx="254.77" cy="344.3" r="6.5" fill="#5bb7b1"/><circle cx="290.77" cy="344.3" r="6.5" fill="#5bb7b1"/><circle cx="308.77" cy="344.3" r="6.5" fill="#5bb7b1"/><circle cx="344.77" cy="344.3" r="6.5" fill="#5bb7b1"/><circle cx="362.78" cy="344.3" r="6.5" fill="#5bb7b1"/><circle cx="380.78" cy="344.3" r="6.5" fill="#5bb7b1"/><circle cx="398.78" cy="344.3" r="6.5" fill="#5bb7b1"/><circle cx="416.78" cy="344.3" r="6.5" fill="#5bb7b1"/><circle cx="434.78" cy="344.3" r="6.5" fill="#5bb7b1"/><circle cx="470.78" cy="344.3" r="6.5" fill="#5bb7b1"/><circle cx="488.78" cy="344.3" r="6.5" fill="#5bb7b1"/><circle cx="506.78" cy="344.3" r="6.5" fill="#5bb7b1"/><circle cx="524.78" cy="344.3" r="6.5" fill="#5bb7b1"/><circle cx="542.78" cy="344.3" r="6.5" fill="#5bb7b1"/><circle cx="560.78" cy="344.3" r="6.5" fill="#5bb7b1"/><circle cx="578.78" cy="344.3" r="6.5" fill="#5bb7b1"/><circle cx="596.78" cy="344.3" r="6.5" fill="#5bb7b1"/><circle cx="614.78" cy="344.3" r="6.5" fill="#5bb7b1"/><circle cx="452.78" cy="344.3" r="6.5" fill="#5bb7b1"/><circle cx="326.77" cy="344.3" r="6.5" fill="#5bb7b1"/><circle cx="272.77" cy="344.3" r="6.5" fill="#5bb7b1"/><circle cx="110.77" cy="362.3" r="6.5" fill="#5bb7b1"/><circle cx="128.77" cy="362.3" r="6.5" fill="#5bb7b1"/><circle cx="146.77" cy="362.3" r="6.5" fill="#5bb7b1"/><circle cx="164.77" cy="362.3" r="6.5" fill="#5bb7b1"/><circle cx="182.77" cy="362.3" r="6.5" fill="#5bb7b1"/><circle cx="200.77" cy="362.3" r="6.5" fill="#5bb7b1"/><circle cx="218.77" cy="362.3" r="6.5" fill="#5bb7b1"/><circle cx="236.77" cy="362.3" r="6.5" fill="#5bb7b1"/><circle cx="254.77" cy="362.3" r="6.5" fill="#5bb7b1"/><circle cx="290.77" cy="362.3" r="6.5" fill="#5bb7b1"/><circle cx="308.77" cy="362.3" r="6.5" fill="#5bb7b1"/><circle cx="344.77" cy="362.3" r="6.5" fill="#5bb7b1"/><circle cx="362.78" cy="362.3" r="6.5" fill="#5bb7b1"/><circle cx="380.78" cy="362.3" r="6.5" fill="#5bb7b1"/><circle cx="398.78" cy="362.3" r="6.5" fill="#5bb7b1"/><circle cx="416.78" cy="362.3" r="6.5" fill="#5bb7b1"/><circle cx="434.78" cy="362.3" r="6.5" fill="#5bb7b1"/><circle cx="470.78" cy="362.3" r="6.5" fill="#5bb7b1"/><circle cx="488.78" cy="362.3" r="6.5" fill="#5bb7b1"/><circle cx="506.78" cy="362.3" r="6.5" fill="#5bb7b1"/><circle cx="524.78" cy="362.3" r="6.5" fill="#5bb7b1"/><circle cx="542.78" cy="362.3" r="6.5" fill="#5bb7b1"/><circle cx="560.78" cy="362.3" r="6.5" fill="#5bb7b1"/><circle cx="452.78" cy="362.3" r="6.5" fill="#5bb7b1"/><circle cx="326.77" cy="362.3" r="6.5" fill="#5bb7b1"/><circle cx="272.77" cy="362.3" r="6.5" fill="#5bb7b1"/><circle cx="110.77" cy="380.3" r="6.5" fill="#5bb7b1"/><circle cx="128.77" cy="380.3" r="6.5" fill="#5bb7b1"/><circle cx="146.77" cy="380.3" r="6.5" fill="#5bb7b1"/><circle cx="164.77" cy="380.3" r="6.5" fill="#5bb7b1"/><circle cx="182.77" cy="380.3" r="6.5" fill="#5bb7b1"/><circle cx="200.77" cy="380.3" r="6.5" fill="#5bb7b1"/><circle cx="218.77" cy="380.3" r="6.5" fill="#5bb7b1"/><circle cx="236.77" cy="380.3" r="6.5" fill="#5bb7b1"/><circle cx="254.77" cy="380.3" r="6.5" fill="#5bb7b1"/><circle cx="290.77" cy="380.3" r="6.5" fill="#5bb7b1"/><circle cx="308.77" cy="380.3" r="6.5" fill="#5bb7b1"/><circle cx="344.77" cy="380.3" r="6.5" fill="#5bb7b1"/><circle cx="362.78" cy="380.3" r="6.5" fill="#5bb7b1"/><circle cx="380.78" cy="380.3" r="6.5" fill="#5bb7b1"/><circle cx="398.78" cy="380.3" r="6.5" fill="#5bb7b1"/><circle cx="416.78" cy="380.3" r="6.5" fill="#5bb7b1"/><circle cx="434.78" cy="380.3" r="6.5" fill="#5bb7b1"/><circle cx="470.78" cy="380.3" r="6.5" fill="#5bb7b1"/><circle cx="488.78" cy="380.3" r="6.5" fill="#5bb7b1"/><circle cx="506.78" cy="380.3" r="6.5" fill="#5bb7b1"/><circle cx="524.78" cy="380.3" r="6.5" fill="#5bb7b1"/><circle cx="542.78" cy="380.3" r="6.5" fill="#5bb7b1"/><circle cx="452.78" cy="380.3" r="6.5" fill="#5bb7b1"/><circle cx="326.77" cy="380.3" r="6.5" fill="#5bb7b1"/><circle cx="272.77" cy="380.3" r="6.5" fill="#5bb7b1"/><circle cx="128.77" cy="398.3" r="6.5" fill="#5bb7b1"/><circle cx="146.77" cy="398.3" r="6.5" fill="#5bb7b1"/><circle cx="164.77" cy="398.3" r="6.5" fill="#5bb7b1"/><circle cx="182.77" cy="398.3" r="6.5" fill="#5bb7b1"/><circle cx="200.77" cy="398.3" r="6.5" fill="#5bb7b1"/><circle cx="218.77" cy="398.3" r="6.5" fill="#5bb7b1"/><circle cx="236.77" cy="398.3" r="6.5" fill="#5bb7b1"/><circle cx="254.77" cy="398.3" r="6.5" fill="#5bb7b1"/><circle cx="290.77" cy="398.3" r="6.5" fill="#5bb7b1"/><circle cx="308.77" cy="398.3" r="6.5" fill="#5bb7b1"/><circle cx="344.77" cy="398.3" r="6.5" fill="#5bb7b1"/><circle cx="362.78" cy="398.3" r="6.5" fill="#5bb7b1"/><circle cx="380.78" cy="398.3" r="6.5" fill="#5bb7b1"/><circle cx="398.78" cy="398.3" r="6.5" fill="#5bb7b1"/><circle cx="416.78" cy="398.3" r="6.5" fill="#5bb7b1"/><circle cx="434.78" cy="398.3" r="6.5" fill="#5bb7b1"/><circle cx="470.78" cy="398.3" r="6.5" fill="#5bb7b1"/><circle cx="488.78" cy="398.3" r="6.5" fill="#5bb7b1"/><circle cx="452.78" cy="398.3" r="6.5" fill="#5bb7b1"/><circle cx="326.77" cy="398.3" r="6.5" fill="#5bb7b1"/><circle cx="272.77" cy="398.3" r="6.5" fill="#5bb7b1"/><circle cx="128.77" cy="416.3" r="6.5" fill="#5bb7b1"/><circle cx="146.77" cy="416.3" r="6.5" fill="#5bb7b1"/><circle cx="164.77" cy="416.3" r="6.5" fill="#5bb7b1"/><circle cx="182.77" cy="416.3" r="6.5" fill="#5bb7b1"/><circle cx="200.77" cy="416.3" r="6.5" fill="#5bb7b1"/><circle cx="218.77" cy="416.3" r="6.5" fill="#5bb7b1"/><circle cx="236.77" cy="416.3" r="6.5" fill="#5bb7b1"/><circle cx="254.77" cy="416.3" r="6.5" fill="#5bb7b1"/><circle cx="290.77" cy="416.3" r="6.5" fill="#5bb7b1"/><circle cx="308.77" cy="416.3" r="6.5" fill="#5bb7b1"/><circle cx="344.77" cy="416.3" r="6.5" fill="#5bb7b1"/><circle cx="362.78" cy="416.3" r="6.5" fill="#5bb7b1"/><circle cx="380.78" cy="416.3" r="6.5" fill="#ff8200"/><circle cx="398.78" cy="416.3" r="6.5" fill="#5bb7b1"/><circle cx="416.78" cy="416.3" r="6.5" fill="#5bb7b1"/><circle cx="434.78" cy="416.3" r="6.5" fill="#5bb7b1"/><circle cx="470.78" cy="416.3" r="6.5" fill="#5bb7b1"/><circle cx="488.78" cy="416.3" r="6.5" fill="#5bb7b1"/><circle cx="452.78" cy="416.3" r="6.5" fill="#5bb7b1"/><circle cx="326.77" cy="416.3" r="6.5" fill="#5bb7b1"/><circle cx="272.77" cy="416.3" r="6.5" fill="#5bb7b1"/><circle cx="146.77" cy="434.3" r="6.5" fill="#5bb7b1"/><circle cx="164.77" cy="434.3" r="6.5" fill="#5bb7b1"/><circle cx="182.77" cy="434.3" r="6.5" fill="#5bb7b1"/><circle cx="200.77" cy="434.3" r="6.5" fill="#5bb7b1"/><circle cx="218.77" cy="434.3" r="6.5" fill="#5bb7b1"/><circle cx="236.77" cy="434.3" r="6.5" fill="#5bb7b1"/><circle cx="254.77" cy="434.3" r="6.5" fill="#5bb7b1"/><circle cx="290.77" cy="434.3" r="6.5" fill="#5bb7b1"/><circle cx="308.77" cy="434.3" r="6.5" fill="#5bb7b1"/><circle cx="344.77" cy="434.3" r="6.5" fill="#5bb7b1"/><circle cx="362.78" cy="434.3" r="6.5" fill="#5bb7b1"/><circle cx="380.78" cy="434.3" r="6.5" fill="#5bb7b1"/><circle cx="398.78" cy="434.3" r="6.5" fill="#5bb7b1"/><circle cx="416.78" cy="434.3" r="6.5" fill="#5bb7b1"/><circle cx="434.78" cy="434.3" r="6.5" fill="#5bb7b1"/><circle cx="470.78" cy="434.3" r="6.5" fill="#5bb7b1"/><circle cx="488.78" cy="434.3" r="6.5" fill="#5bb7b1"/><circle cx="506.78" cy="434.3" r="6.5" fill="#5bb7b1"/><circle cx="524.78" cy="434.3" r="6.5" fill="#5bb7b1"/><circle cx="452.78" cy="434.3" r="6.5" fill="#5bb7b1"/><circle cx="326.77" cy="434.3" r="6.5" fill="#5bb7b1"/><circle cx="272.77" cy="434.3" r="6.5" fill="#5bb7b1"/><circle cx="164.77" cy="452.3" r="6.5" fill="#5bb7b1"/><circle cx="182.77" cy="452.3" r="6.5" fill="#5bb7b1"/><circle cx="200.77" cy="452.3" r="6.5" fill="#5bb7b1"/><circle cx="218.77" cy="452.3" r="6.5" fill="#5bb7b1"/><circle cx="236.77" cy="452.3" r="6.5" fill="#5bb7b1"/><circle cx="254.77" cy="452.3" r="6.5" fill="#5bb7b1"/><circle cx="290.77" cy="452.3" r="6.5" fill="#5bb7b1"/><circle cx="308.77" cy="452.3" r="6.5" fill="#5bb7b1"/><circle cx="344.77" cy="452.3" r="6.5" fill="#5bb7b1"/><circle cx="362.78" cy="452.3" r="6.5" fill="#5bb7b1"/><circle cx="380.78" cy="452.3" r="6.5" fill="#5bb7b1"/><circle cx="398.78" cy="452.3" r="6.5" fill="#5bb7b1"/><circle cx="416.78" cy="452.3" r="6.5" fill="#5bb7b1"/><circle cx="434.78" cy="452.3" r="6.5" fill="#5bb7b1"/><circle cx="470.78" cy="452.3" r="6.5" fill="#5bb7b1"/><circle cx="488.78" cy="452.3" r="6.5" fill="#5bb7b1"/><circle cx="506.78" cy="452.3" r="6.5" fill="#5bb7b1"/><circle cx="524.78" cy="452.3" r="6.5" fill="#5bb7b1"/><circle cx="452.78" cy="452.3" r="6.5" fill="#5bb7b1"/><circle cx="326.77" cy="452.3" r="6.5" fill="#5bb7b1"/><circle cx="272.77" cy="452.3" r="6.5" fill="#5bb7b1"/><circle cx="164.77" cy="470.3" r="6.5" fill="#5bb7b1"/><circle cx="182.77" cy="470.3" r="6.5" fill="#5bb7b1"/><circle cx="200.77" cy="470.3" r="6.5" fill="#5bb7b1"/><circle cx="218.77" cy="470.3" r="6.5" fill="#5bb7b1"/><circle cx="236.77" cy="470.3" r="6.5" fill="#5bb7b1"/><circle cx="254.77" cy="470.3" r="6.5" fill="#5bb7b1"/><circle cx="290.77" cy="470.3" r="6.5" fill="#5bb7b1"/><circle cx="308.77" cy="470.3" r="6.5" fill="#5bb7b1"/><circle cx="344.77" cy="470.3" r="6.5" fill="#5bb7b1"/><circle cx="362.78" cy="470.3" r="6.5" fill="#5bb7b1"/><circle cx="380.78" cy="470.3" r="6.5" fill="#5bb7b1"/><circle cx="398.78" cy="470.3" r="6.5" fill="#5bb7b1"/><circle cx="416.78" cy="470.3" r="6.5" fill="#5bb7b1"/><circle cx="434.78" cy="470.3" r="6.5" fill="#5bb7b1"/><circle cx="470.78" cy="470.3" r="6.5" fill="#5bb7b1"/><circle cx="488.78" cy="470.3" r="6.5" fill="#5bb7b1"/><circle cx="506.78" cy="470.3" r="6.5" fill="#5bb7b1"/><circle cx="524.78" cy="470.3" r="6.5" fill="#5bb7b1"/><circle cx="452.78" cy="470.3" r="6.5" fill="#5bb7b1"/><circle cx="326.77" cy="470.3" r="6.5" fill="#5bb7b1"/><circle cx="272.77" cy="470.3" r="6.5" fill="#5bb7b1"/><circle cx="218.77" cy="506.3" r="6.5" fill="#5bb7b1"/><circle cx="236.77" cy="506.3" r="6.5" fill="#5bb7b1"/><circle cx="254.77" cy="506.3" r="6.5" fill="#5bb7b1"/><circle cx="290.77" cy="506.3" r="6.5" fill="#5bb7b1"/><circle cx="308.77" cy="506.3" r="6.5" fill="#5bb7b1"/><circle cx="344.77" cy="506.3" r="6.5" fill="#5bb7b1"/><circle cx="362.78" cy="506.3" r="6.5" fill="#5bb7b1"/><circle cx="380.78" cy="506.3" r="6.5" fill="#5bb7b1"/><circle cx="326.77" cy="506.3" r="6.5" fill="#5bb7b1"/><circle cx="272.77" cy="506.3" r="6.5" fill="#5bb7b1"/><circle cx="182.77" cy="488.3" r="6.5" fill="#5bb7b1"/><circle cx="200.77" cy="488.3" r="6.5" fill="#5bb7b1"/><circle cx="236.77" cy="488.3" r="6.5" fill="#5bb7b1"/><circle cx="254.77" cy="488.3" r="6.5" fill="#5bb7b1"/><circle cx="290.77" cy="488.3" r="6.5" fill="#5bb7b1"/><circle cx="308.77" cy="488.3" r="6.5" fill="#5bb7b1"/><circle cx="344.77" cy="488.3" r="6.5" fill="#5bb7b1"/><circle cx="362.78" cy="488.3" r="6.5" fill="#5bb7b1"/><circle cx="380.78" cy="488.3" r="6.5" fill="#5bb7b1"/><circle cx="488.78" cy="488.3" r="6.5" fill="#5bb7b1"/><circle cx="506.78" cy="488.3" r="6.5" fill="#5bb7b1"/><circle cx="524.78" cy="488.3" r="6.5" fill="#5bb7b1"/><circle cx="542.78" cy="488.3" r="6.5" fill="#5bb7b1"/><circle cx="326.77" cy="488.3" r="6.5" fill="#5bb7b1"/><circle cx="272.77" cy="488.3" r="6.5" fill="#5bb7b1"/><circle cx="56.77" cy="164.29" r="6.5" fill="#5bb7b1"/><circle cx="74.77" cy="164.29" r="6.5" fill="#5bb7b1"/><circle cx="92.77" cy="164.29" r="6.5" fill="#5bb7b1"/><circle cx="110.77" cy="164.29" r="6.5" fill="#5bb7b1"/><circle cx="128.77" cy="164.29" r="6.5" fill="#5bb7b1"/><circle cx="146.77" cy="164.29" r="6.5" fill="#5bb7b1"/><circle cx="164.77" cy="164.29" r="6.5" fill="#5bb7b1"/><circle cx="182.77" cy="164.29" r="6.5" fill="#5bb7b1"/><circle cx="200.77" cy="164.29" r="6.5" fill="#5bb7b1"/><circle cx="218.77" cy="164.29" r="6.5" fill="#5bb7b1"/><circle cx="236.77" cy="164.29" r="6.5" fill="#5bb7b1"/><circle cx="254.77" cy="164.29" r="6.5" fill="#5bb7b1"/><circle cx="290.77" cy="164.29" r="6.5" fill="#5bb7b1"/><circle cx="308.77" cy="164.29" r="6.5" fill="#5bb7b1"/><circle cx="344.77" cy="164.29" r="6.5" fill="#5bb7b1"/><circle cx="362.78" cy="164.29" r="6.5" fill="#5bb7b1"/><circle cx="380.78" cy="164.29" r="6.5" fill="#5bb7b1"/><circle cx="398.78" cy="164.29" r="6.5" fill="#5bb7b1"/><circle cx="416.78" cy="164.29" r="6.5" fill="#5bb7b1"/><circle cx="434.78" cy="164.29" r="6.5" fill="#5bb7b1"/><circle cx="470.78" cy="164.29" r="6.5" fill="#5bb7b1"/><circle cx="488.78" cy="164.29" r="6.5" fill="#5bb7b1"/><circle cx="506.78" cy="164.29" r="6.5" fill="#5bb7b1"/><circle cx="524.78" cy="164.29" r="6.5" fill="#5bb7b1"/><circle cx="542.78" cy="164.29" r="6.5" fill="#5bb7b1"/><circle cx="560.78" cy="164.29" r="6.5" fill="#5bb7b1"/><circle cx="578.78" cy="164.29" r="6.5" fill="#5bb7b1"/><circle cx="596.78" cy="164.29" r="6.5" fill="#5bb7b1"/><circle cx="614.78" cy="164.29" r="6.5" fill="#5bb7b1"/><circle cx="632.78" cy="164.29" r="6.5" fill="#5bb7b1"/><circle cx="650.78" cy="164.29" r="6.5" fill="#5bb7b1"/><circle cx="452.78" cy="164.29" r="6.5" fill="#5bb7b1"/><circle cx="326.77" cy="164.29" r="6.5" fill="#5bb7b1"/><circle cx="272.77" cy="164.29" r="6.5" fill="#5bb7b1"/><circle cx="56.77" cy="182.29" r="6.5" fill="#5bb7b1"/><circle cx="74.77" cy="182.29" r="6.5" fill="#5bb7b1"/><circle cx="92.77" cy="182.29" r="6.5" fill="#5bb7b1"/><circle cx="110.77" cy="182.29" r="6.5" fill="#5bb7b1"/><circle cx="128.77" cy="182.29" r="6.5" fill="#5bb7b1"/><circle cx="146.77" cy="182.29" r="6.5" fill="#5bb7b1"/><circle cx="164.77" cy="182.29" r="6.5" fill="#5bb7b1"/><circle cx="182.77" cy="182.29" r="6.5" fill="#5bb7b1"/><circle cx="200.77" cy="182.29" r="6.5" fill="#5bb7b1"/><circle cx="218.77" cy="182.29" r="6.5" fill="#5bb7b1"/><circle cx="236.77" cy="182.29" r="6.5" fill="#5bb7b1"/><circle cx="254.77" cy="182.29" r="6.5" fill="#5bb7b1"/><circle cx="290.77" cy="182.29" r="6.5" fill="#5bb7b1"/><circle cx="308.77" cy="182.29" r="6.5" fill="#5bb7b1"/><circle cx="344.77" cy="182.29" r="6.5" fill="#5bb7b1"/><circle cx="362.78" cy="182.29" r="6.5" fill="#5bb7b1"/><circle cx="380.78" cy="182.29" r="6.5" fill="#5bb7b1"/><circle cx="398.78" cy="182.29" r="6.5" fill="#5bb7b1"/><circle cx="416.78" cy="182.29" r="6.5" fill="#5bb7b1"/><circle cx="434.78" cy="182.29" r="6.5" fill="#5bb7b1"/><circle cx="470.78" cy="182.29" r="6.5" fill="#5bb7b1"/><circle cx="488.78" cy="182.29" r="6.5" fill="#5bb7b1"/><circle cx="506.78" cy="182.29" r="6.5" fill="#5bb7b1"/><circle cx="524.78" cy="182.29" r="6.5" fill="#5bb7b1"/><circle cx="542.78" cy="182.29" r="6.5" fill="#5bb7b1"/><circle cx="560.78" cy="182.29" r="6.5" fill="#5bb7b1"/><circle cx="578.78" cy="182.29" r="6.5" fill="#5bb7b1"/><circle cx="596.78" cy="182.29" r="6.5" fill="#5bb7b1"/><circle cx="614.78" cy="182.29" r="6.5" fill="#5bb7b1"/><circle cx="632.78" cy="182.29" r="6.5" fill="#5bb7b1"/><circle cx="650.78" cy="182.29" r="6.5" fill="#5bb7b1"/><circle cx="452.78" cy="182.29" r="6.5" fill="#5bb7b1"/><circle cx="326.77" cy="182.29" r="6.5" fill="#5bb7b1"/><circle cx="272.77" cy="182.29" r="6.5" fill="#5bb7b1"/><circle cx="92.77" cy="146.29" r="6.5" fill="#5bb7b1"/><circle cx="110.77" cy="146.29" r="6.5" fill="#5bb7b1"/><circle cx="128.77" cy="146.29" r="6.5" fill="#5bb7b1"/><circle cx="146.77" cy="146.29" r="6.5" fill="#5bb7b1"/><circle cx="164.77" cy="146.29" r="6.5" fill="#5bb7b1"/><circle cx="182.77" cy="146.29" r="6.5" fill="#5bb7b1"/><circle cx="200.77" cy="146.29" r="6.5" fill="#5bb7b1"/><circle cx="218.77" cy="146.29" r="6.5" fill="#5bb7b1"/><circle cx="236.77" cy="146.29" r="6.5" fill="#5bb7b1"/><circle cx="254.77" cy="146.29" r="6.5" fill="#5bb7b1"/><circle cx="290.77" cy="146.29" r="6.5" fill="#5bb7b1"/><circle cx="308.77" cy="146.29" r="6.5" fill="#5bb7b1"/><circle cx="344.77" cy="146.29" r="6.5" fill="#5bb7b1"/><circle cx="362.78" cy="146.29" r="6.5" fill="#5bb7b1"/><circle cx="380.78" cy="146.29" r="6.5" fill="#5bb7b1"/><circle cx="398.78" cy="146.29" r="6.5" fill="#5bb7b1"/><circle cx="416.78" cy="146.29" r="6.5" fill="#5bb7b1"/><circle cx="434.78" cy="146.29" r="6.5" fill="#5bb7b1"/><circle cx="470.78" cy="146.29" r="6.5" fill="#5bb7b1"/><circle cx="488.78" cy="146.29" r="6.5" fill="#5bb7b1"/><circle cx="506.78" cy="146.29" r="6.5" fill="#5bb7b1"/><circle cx="524.78" cy="146.29" r="6.5" fill="#5bb7b1"/><circle cx="542.78" cy="146.29" r="6.5" fill="#5bb7b1"/><circle cx="560.78" cy="146.29" r="6.5" fill="#5bb7b1"/><circle cx="578.78" cy="146.29" r="6.5" fill="#5bb7b1"/><circle cx="596.78" cy="146.29" r="6.5" fill="#5bb7b1"/><circle cx="614.78" cy="146.29" r="6.5" fill="#5bb7b1"/><circle cx="632.78" cy="146.29" r="6.5" fill="#5bb7b1"/><circle cx="650.78" cy="146.29" r="6.5" fill="#5bb7b1"/><circle cx="452.78" cy="146.29" r="6.5" fill="#5bb7b1"/><circle cx="326.77" cy="146.29" r="6.5" fill="#5bb7b1"/><circle cx="272.77" cy="146.29" r="6.5" fill="#5bb7b1"/><circle cx="92.77" cy="110.29" r="6.5" fill="#5bb7b1"/><circle cx="110.77" cy="110.29" r="6.5" fill="#5bb7b1"/><circle cx="128.77" cy="110.29" r="6.5" fill="#5bb7b1"/><circle cx="146.77" cy="110.29" r="6.5" fill="#5bb7b1"/><circle cx="164.77" cy="110.29" r="6.5" fill="#5bb7b1"/><circle cx="182.77" cy="110.29" r="6.5" fill="#5bb7b1"/><circle cx="200.77" cy="110.29" r="6.5" fill="#5bb7b1"/><circle cx="218.77" cy="110.29" r="6.5" fill="#5bb7b1"/><circle cx="236.77" cy="110.29" r="6.5" fill="#5bb7b1"/><circle cx="254.77" cy="110.29" r="6.5" fill="#5bb7b1"/><circle cx="290.77" cy="110.29" r="6.5" fill="#5bb7b1"/><circle cx="308.77" cy="110.29" r="6.5" fill="#5bb7b1"/><circle cx="344.77" cy="110.29" r="6.5" fill="#5bb7b1"/><circle cx="362.78" cy="110.29" r="6.5" fill="#5bb7b1"/><circle cx="380.78" cy="110.29" r="6.5" fill="#5bb7b1"/><circle cx="398.78" cy="110.29" r="6.5" fill="#5bb7b1"/><circle cx="416.78" cy="110.29" r="6.5" fill="#5bb7b1"/><circle cx="488.78" cy="110.29" r="6.5" fill="#5bb7b1"/><circle cx="506.78" cy="110.29" r="6.5" fill="#5bb7b1"/><circle cx="524.78" cy="110.29" r="6.5" fill="#5bb7b1"/><circle cx="542.78" cy="110.29" r="6.5" fill="#5bb7b1"/><circle cx="560.78" cy="110.29" r="6.5" fill="#5bb7b1"/><circle cx="578.78" cy="110.29" r="6.5" fill="#5bb7b1"/><circle cx="596.78" cy="110.29" r="6.5" fill="#5bb7b1"/><circle cx="614.78" cy="110.29" r="6.5" fill="#5bb7b1"/><circle cx="326.77" cy="110.29" r="6.5" fill="#5bb7b1"/><circle cx="272.77" cy="110.29" r="6.5" fill="#5bb7b1"/><circle cx="110.77" cy="92.29" r="6.5" fill="#5bb7b1"/><circle cx="128.77" cy="92.29" r="6.5" fill="#5bb7b1"/><circle cx="146.77" cy="92.29" r="6.5" fill="#5bb7b1"/><circle cx="164.77" cy="92.29" r="6.5" fill="#5bb7b1"/><circle cx="182.77" cy="92.29" r="6.5" fill="#5bb7b1"/><circle cx="200.77" cy="92.29" r="6.5" fill="#5bb7b1"/><circle cx="218.77" cy="92.29" r="6.5" fill="#5bb7b1"/><circle cx="236.77" cy="92.29" r="6.5" fill="#5bb7b1"/><circle cx="254.77" cy="92.29" r="6.5" fill="#5bb7b1"/><circle cx="290.77" cy="92.29" r="6.5" fill="#5bb7b1"/><circle cx="308.77" cy="92.29" r="6.5" fill="#5bb7b1"/><circle cx="344.77" cy="92.29" r="6.5" fill="#5bb7b1"/><circle cx="362.78" cy="92.29" r="6.5" fill="#5bb7b1"/><circle cx="380.78" cy="92.29" r="6.5" fill="#5bb7b1"/><circle cx="398.78" cy="92.29" r="6.5" fill="#5bb7b1"/><circle cx="470.78" cy="92.29" r="6.5" fill="#5bb7b1"/><circle cx="488.78" cy="92.29" r="6.5" fill="#5bb7b1"/><circle cx="506.78" cy="92.29" r="6.5" fill="#5bb7b1"/><circle cx="524.78" cy="92.29" r="6.5" fill="#5bb7b1"/><circle cx="542.78" cy="92.29" r="6.5" fill="#5bb7b1"/><circle cx="560.78" cy="92.29" r="6.5" fill="#5bb7b1"/><circle cx="578.78" cy="92.29" r="6.5" fill="#5bb7b1"/><circle cx="596.78" cy="92.29" r="6.5" fill="#5bb7b1"/><circle cx="614.78" cy="92.29" r="6.5" fill="#5bb7b1"/><circle cx="326.77" cy="92.29" r="6.5" fill="#5bb7b1"/><circle cx="272.77" cy="92.29" r="6.5" fill="#5bb7b1"/><circle cx="182.77" cy="74.29" r="6.5" fill="#5bb7b1"/><circle cx="200.77" cy="74.29" r="6.5" fill="#5bb7b1"/><circle cx="218.77" cy="74.29" r="6.5" fill="#5bb7b1"/><circle cx="236.77" cy="74.29" r="6.5" fill="#5bb7b1"/><circle cx="254.77" cy="74.29" r="6.5" fill="#5bb7b1"/><circle cx="290.77" cy="74.29" r="6.5" fill="#5bb7b1"/><circle cx="308.77" cy="74.29" r="6.5" fill="#5bb7b1"/><circle cx="344.77" cy="74.29" r="6.5" fill="#5bb7b1"/><circle cx="488.78" cy="74.29" r="6.5" fill="#5bb7b1"/><circle cx="506.78" cy="74.29" r="6.5" fill="#5bb7b1"/><circle cx="524.78" cy="74.29" r="6.5" fill="#5bb7b1"/><circle cx="542.78" cy="74.29" r="6.5" fill="#5bb7b1"/><circle cx="560.78" cy="74.29" r="6.5" fill="#5bb7b1"/><circle cx="326.77" cy="74.29" r="6.5" fill="#5bb7b1"/><circle cx="272.77" cy="74.29" r="6.5" fill="#5bb7b1"/><circle cx="182.77" cy="56.29" r="6.5" fill="#5bb7b1"/><circle cx="200.77" cy="56.29" r="6.5" fill="#5bb7b1"/><circle cx="218.77" cy="56.29" r="6.5" fill="#5bb7b1"/><circle cx="236.77" cy="56.29" r="6.5" fill="#5bb7b1"/><circle cx="254.77" cy="56.29" r="6.5" fill="#5bb7b1"/><circle cx="290.77" cy="56.29" r="6.5" fill="#5bb7b1"/><circle cx="308.77" cy="56.29" r="6.5" fill="#5bb7b1"/><circle cx="344.77" cy="56.29" r="6.5" fill="#5bb7b1"/><circle cx="488.78" cy="56.29" r="6.5" fill="#5bb7b1"/><circle cx="506.78" cy="56.29" r="6.5" fill="#5bb7b1"/><circle cx="524.78" cy="56.29" r="6.5" fill="#5bb7b1"/><circle cx="542.78" cy="56.29" r="6.5" fill="#5bb7b1"/><circle cx="560.78" cy="56.29" r="6.5" fill="#5bb7b1"/><circle cx="272.77" cy="56.29" r="6.5" fill="#5bb7b1"/><circle cx="92.77" cy="128.29" r="6.5" fill="#5bb7b1"/><circle cx="110.77" cy="128.29" r="6.5" fill="#5bb7b1"/><circle cx="128.77" cy="128.29" r="6.5" fill="#5bb7b1"/><circle cx="146.77" cy="128.29" r="6.5" fill="#5bb7b1"/><circle cx="164.77" cy="128.29" r="6.5" fill="#5bb7b1"/><circle cx="182.77" cy="128.29" r="6.5" fill="#5bb7b1"/><circle cx="200.77" cy="128.29" r="6.5" fill="#5bb7b1"/><circle cx="218.77" cy="128.29" r="6.5" fill="#5bb7b1"/><circle cx="236.77" cy="128.29" r="6.5" fill="#5bb7b1"/><circle cx="254.77" cy="128.29" r="6.5" fill="#5bb7b1"/><circle cx="290.77" cy="128.29" r="6.5" fill="#5bb7b1"/><circle cx="308.77" cy="128.29" r="6.5" fill="#5bb7b1"/><circle cx="344.77" cy="128.29" r="6.5" fill="#5bb7b1"/><circle cx="362.78" cy="128.29" r="6.5" fill="#5bb7b1"/><circle cx="380.78" cy="128.29" r="6.5" fill="#5bb7b1"/><circle cx="398.78" cy="128.29" r="6.5" fill="#5bb7b1"/><circle cx="416.78" cy="128.29" r="6.5" fill="#5bb7b1"/><circle cx="434.78" cy="128.29" r="6.5" fill="#5bb7b1"/><circle cx="506.78" cy="128.29" r="6.5" fill="#5bb7b1"/><circle cx="524.78" cy="128.29" r="6.5" fill="#5bb7b1"/><circle cx="542.78" cy="128.29" r="6.5" fill="#5bb7b1"/><circle cx="560.78" cy="128.29" r="6.5" fill="#5bb7b1"/><circle cx="578.78" cy="128.29" r="6.5" fill="#5bb7b1"/><circle cx="596.78" cy="128.29" r="6.5" fill="#5bb7b1"/><circle cx="614.78" cy="128.29" r="6.5" fill="#5bb7b1"/><circle cx="632.78" cy="128.29" r="6.5" fill="#5bb7b1"/><circle cx="452.78" cy="128.29" r="6.5" fill="#5bb7b1"/><circle cx="326.77" cy="128.29" r="6.5" fill="#5bb7b1"/><circle cx="272.77" cy="128.29" r="6.5" fill="#5bb7b1"/></g></svg>