<?xml version="1.0" encoding="utf-8"?>
<!-- Generator: Adobe Illustrator 27.6.1, SVG Export Plug-In . SVG Version: 6.00 Build 0)  -->
<svg version="1.1" id="ad0a7f53-aafb-4a35-a652-53379b008f29"
	 xmlns="http://www.w3.org/2000/svg" xmlns:xlink="http://www.w3.org/1999/xlink" x="0px" y="0px" viewBox="0 0 90.7 73.7"
	 style="enable-background:new 0 0 90.7 73.7;" xml:space="preserve">
<style type="text/css">
	.st0{enable-background:new    ;}
	.st1{fill:#5CB8B2;}
	.st2{fill:#F58020;}
</style>
<g class="st0">
	<path class="st1" d="M49.1,55.9c-0.2-0.2-0.3-0.5-0.3-0.8s0-0.6,0.1-0.8c0.1-0.3,0.2-0.5,0.5-0.7s0.5-0.3,0.8-0.3
		c0.2,0,0.5,0.1,0.7,0.2c0.2,0.2,0.5,0.4,0.8,0.6c0.3,0.2,0.6,0.5,1,0.8s0.8,0.5,1.2,0.8l0.6,0.3l0-6.6c-0.4-0.2-1-0.5-1.7-0.8
		s-1.3-0.7-1.9-1.2c-0.6-0.5-1.1-1-1.5-1.6c-0.4-0.6-0.6-1.3-0.6-2.1c0-0.6,0.1-1.3,0.4-1.9c0.3-0.6,0.6-1.2,1.1-1.6
		c0.5-0.5,1.1-0.9,1.8-1.2c0.7-0.3,1.5-0.6,2.4-0.7v-1.2c0-0.8,0.1-1.5,0.2-2.1s0.6-0.9,1.2-0.9c0.6,0,1,0.3,1.2,0.8s0.2,1.2,0.2,2
		c0,0.3,0,0.5,0,0.7c0,0.2,0,0.5,0,0.7c0.3,0,0.7,0.2,1.3,0.3c0.6,0.2,1.1,0.4,1.7,0.6c0.6,0.2,1,0.5,1.4,0.9
		c0.4,0.3,0.6,0.7,0.6,1.1c0,0.4-0.1,0.7-0.4,0.9c-0.3,0.3-0.6,0.4-1,0.4c-0.3,0-0.6-0.1-0.9-0.2s-0.7-0.2-1-0.4
		c-0.3-0.1-0.6-0.3-0.9-0.4c-0.3-0.1-0.5-0.2-0.7-0.3c0,1,0,2.1,0,3.1c0,1,0,2.1,0,3.1c0.8,0.3,1.5,0.6,2.3,0.9
		c0.8,0.3,1.4,0.7,2.1,1.1c0.6,0.4,1.1,1,1.5,1.6c0.4,0.6,0.6,1.3,0.6,2.2c0,1-0.2,1.8-0.6,2.5c-0.4,0.7-0.9,1.3-1.5,1.7
		s-1.3,0.8-2.1,1.1s-1.5,0.5-2.3,0.6c0,0.4,0,0.8,0,1.2c0,0.4,0,0.8,0,1.3c-0.1,0.4-0.3,0.8-0.6,1c-0.3,0.2-0.6,0.3-0.9,0.3
		c-0.4,0-0.7-0.1-0.9-0.4c-0.2-0.2-0.3-0.6-0.4-0.9c-0.1-0.4-0.1-0.8-0.1-1.3s0-0.9,0-1.3l0,0c-0.7-0.2-1.4-0.4-1.9-0.6
		c-0.5-0.2-1-0.5-1.4-0.7c-0.4-0.3-0.7-0.6-1-0.9S49.4,56.3,49.1,55.9z M54.4,41.4c-0.2,0.1-0.4,0.1-0.7,0.2
		c-0.3,0.1-0.5,0.2-0.8,0.3c-0.2,0.1-0.5,0.3-0.7,0.5c-0.2,0.2-0.4,0.5-0.5,0.8c0,0.7,0.3,1.3,0.8,1.8c0.5,0.5,1.1,1,1.9,1.3V41.4z
		 M57.3,50.6c0,1,0,1.9,0,2.9c0,0.9,0,1.9,0,2.8c0.4,0,0.8-0.1,1.2-0.3c0.4-0.2,0.9-0.4,1.4-0.7c0.4-0.4,0.7-0.8,0.8-1.2
		c0.1-0.5,0-0.9-0.4-1.4c-0.5-0.4-0.9-0.8-1.4-1.1C58.5,51.3,58,50.9,57.3,50.6z"/>
</g>
<path class="st2" d="M63.5,27.4v-9.6l0,0V9.1c0-4.4-8.5-6.7-16.9-6.7S29.8,4.7,29.8,9.1v8.1C28.5,17,27.2,17,25.9,17
	C17.5,17,9,19.3,9,23.7v26.2c0,4.4,8.5,6.7,16.9,6.7c2.7,0,5.4-0.2,8-0.8c3.8,12.1,16.7,18.7,28.7,14.9S81.4,54.1,77.6,42
	C75.4,35.3,70.3,29.9,63.5,27.4L63.5,27.4z M11.7,49.9v-5.1c2.4,1.5,6.3,2.4,10.4,2.8c1.2,0.1,2.5,0.2,3.8,0.2
	c2.3,0,4.5-0.2,6.7-0.5h0.2c-0.1,0.6-0.1,1.2-0.1,1.8c0,1.4,0.2,2.9,0.4,4.3l-0.3,0.1c-2.3,0.4-4.7,0.6-7,0.6
	C16.7,53.9,11.7,51.2,11.7,49.9z M32.4,12.9c6.3,3.8,22.1,3.8,28.4,0v4.9c0,1.4-5,4-14.2,4c-1.6,0-3.2-0.1-4.7-0.3
	c-1.9-2.5-6.7-3.6-9.5-4V12.9z M40,32.2c-0.6,0.6-1.2,1.2-1.8,1.9c-1.9,0.9-4,1.5-6.1,1.8c-0.4,0.1-0.8,0.1-1.2,0.2
	c-1.7,0.2-3.4,0.3-5.1,0.3c-9.2,0-14.2-2.7-14.2-4v-4.9c4.3,2.6,12.6,3.5,19.7,2.6c0.4,0,0.9-0.1,1.3-0.2c2.6-0.3,5.1-1.1,7.4-2.4
	V32.2z M33.2,44.3l-1.1,0.2C30.1,44.8,28,45,25.9,45c-9.2,0-14.2-2.7-14.2-4v-4.9C14.8,38,20.4,39,25.9,39c1.8,0,3.6-0.1,5.4-0.3
	c0.4,0,0.9-0.1,1.3-0.2c1-0.2,2-0.4,3-0.6c-0.1,0.2-0.2,0.4-0.3,0.6C34.3,40.3,33.7,42.3,33.2,44.3z M42.8,24.3
	c1.3,0.1,2.6,0.2,3.9,0.2c5.5,0,11-1,14.2-2.9v5.1c-6.2-1.5-12.8-0.3-18.1,3.4V24.3z M46.7,5c9.2,0,14.2,2.7,14.2,4s-5,4-14.2,4
	s-14.2-2.6-14.2-4S37.5,5,46.7,5z M25.9,19.6c1.7,0,3.4,0.2,5.1,0.4h0.2c5.2,0.7,8.2,2.3,8.8,3.4l0,0c0.1,0.1,0.1,0.2,0.1,0.3
	c0,0.9-2.5,2.7-7.9,3.5c-0.4,0.1-0.8,0.1-1.2,0.2c-1.7,0.2-3.4,0.3-5.1,0.3c-9.2,0-14.2-2.6-14.2-4s5-4,14.2-4L25.9,19.6z
	 M55.7,69.2c-11.2,0-20.2-9.1-20.2-20.2c0-0.6,0-1.3,0.1-1.9c0-0.5,0.1-0.9,0.2-1.3c0.6-3.6,2.1-6.9,4.4-9.7
	c0.7-0.8,1.4-1.5,2.2-2.2c0.4-0.4,0.9-0.8,1.4-1.1c5-3.7,11.4-4.9,17.3-3.2l0.3,0.1c0.2,0,0.3,0.1,0.5,0.1l0,0
	C72.4,33,78.3,44.4,75,55.1C72.3,63.5,64.5,69.2,55.7,69.2L55.7,69.2z"/>
</svg>
