<svg id="ad0a7f53-aafb-4a35-a652-53379b008f29" data-name="Layer 1" xmlns="http://www.w3.org/2000/svg" viewBox="0 0 90.71 73.7"><title>Infinity copy 15</title><text transform="translate(46.63 59.56)" font-size="32.01" fill="#5cb8b2" font-family="ArialRoundedMTBold, Arial Rounded MT Bold">$</text><path d="M63.55,27.43V17.8h0V9.06c0-4.4-8.49-6.7-16.88-6.7s-16.88,2.3-16.88,6.7v8.1c-1.3-.12-2.6-.2-3.92-.2C17.48,17,9,19.26,9,23.66V49.9c0,4.4,8.5,6.7,16.89,6.7a41.22,41.22,0,0,0,8-.75,22.9,22.9,0,1,0,29.7-28.42ZM11.67,49.9V44.78c2.43,1.48,6.27,2.4,10.42,2.75,1.24.1,2.51.17,3.78.17a43.43,43.43,0,0,0,6.74-.52h.22c-.06.63-.09,1.23-.09,1.79a22.77,22.77,0,0,0,.44,4.28l-.3.06a40,40,0,0,1-7,.61C16.68,53.92,11.67,51.25,11.67,49.9Zm20.76-37c6.33,3.83,22.06,3.83,28.4,0v4.88c0,1.36-5,4-14.2,4a41.54,41.54,0,0,1-4.73-.27c-1.9-2.48-6.68-3.57-9.47-4ZM40,32.19a24.74,24.74,0,0,0-1.82,1.87,20.28,20.28,0,0,1-6.06,1.8c-.4.07-.8.13-1.22.17a41.32,41.32,0,0,1-5.1.32c-9.19,0-14.2-2.66-14.2-4v-4.9C15.85,30,24.21,30.9,31.25,30c.44-.05.88-.11,1.31-.18A21,21,0,0,0,40,27.46ZM33.25,44.33l-1.07.2a41.73,41.73,0,0,1-6.32.48c-9.18,0-14.2-2.65-14.2-4V36.13C14.83,38,20.37,39,25.86,39a42.79,42.79,0,0,0,5.43-.34,8,8,0,0,0,1.31-.18,30.26,30.26,0,0,0,3-.63c-.11.2-.25.4-.35.61A23.19,23.19,0,0,0,33.25,44.33Zm9.5-20.08c1.29.11,2.6.19,3.92.19,5.5,0,11-1,14.2-2.92v5.14a22.57,22.57,0,0,0-18.12,3.39ZM46.67,5c9.18,0,14.2,2.65,14.2,4s-5,4-14.2,4-14.24-2.62-14.24-4S37.48,5,46.67,5Zm-20.8,14.6A41.32,41.32,0,0,1,31,20h.24c5.22.71,8.22,2.3,8.76,3.38h0a.75.75,0,0,1,.1.32c0,.94-2.45,2.66-7.89,3.53-.39.07-.8.13-1.22.18a43.36,43.36,0,0,1-5.1.31c-9.18,0-14.2-2.65-14.2-4s5-4,14.21-4ZM55.66,69.16A20.32,20.32,0,0,1,35.43,48.93c0-.63,0-1.26.1-1.89a8.92,8.92,0,0,1,.18-1.35A20.66,20.66,0,0,1,40.1,36a22.06,22.06,0,0,1,2.2-2.23c.43-.38.89-.75,1.37-1.1A20,20,0,0,1,61,29.44l.3.08a4.1,4.1,0,0,1,.5.14h0a20.23,20.23,0,0,1-6.14,39.51Z" fill="#f58020"/></svg>