<svg id="Layer_1" data-name="Layer 1" xmlns="http://www.w3.org/2000/svg" viewBox="0 0 90.71 73.7"><defs><style>.cls-1{fill:#f58020;}.cls-2{fill:#5cb8b2;}</style></defs><title>Infinity copy 9</title><path class="cls-1" d="M51.11,68.68A32.33,32.33,0,0,0,74.56,29.49a2.15,2.15,0,0,0-3.84-1A2.13,2.13,0,0,0,70.31,30a1.76,1.76,0,0,0,.12.45,28.07,28.07,0,1,1-10.69-15.8,2.14,2.14,0,1,0,2.91-3.15,2.36,2.36,0,0,0-.36-.26A32.56,32.56,0,0,0,43.21,5h-.8A32.33,32.33,0,0,0,11.92,45.23,32.34,32.34,0,0,0,51.11,68.68Z"/><path class="cls-2" d="M30.08,34.74,44.32,47.31a2.14,2.14,0,0,0,3-.11C52,42.29,58.39,35.36,64.57,28.65S77,15.16,81.64,10.34a2.14,2.14,0,0,0,.64-1.52A2.14,2.14,0,0,0,80,6.67a2.14,2.14,0,0,0-1.44.69c-4.71,4.93-11,11.78-17.17,18.41-5.47,5.91-11.12,12-15.54,16.69l-.25.26L32.93,31.54A2.09,2.09,0,0,0,31.51,31h-.13a2.11,2.11,0,0,0-1.48.71A2.14,2.14,0,0,0,30.08,34.74Z"/></svg>