<?xml version="1.0" encoding="utf-8"?>
<!-- Generator: Adobe Illustrator 24.0.1, SVG Export Plug-In . SVG Version: 6.00 Build 0)  -->
<svg version="1.1" id="Layer_1" xmlns="http://www.w3.org/2000/svg" xmlns:xlink="http://www.w3.org/1999/xlink" x="0px" y="0px"
	 viewBox="0 0 77.6 43.5" style="enable-background:new 0 0 77.6 43.5;" xml:space="preserve">
<title>Artboard 1 copy 9</title>
<path d="M74.1,2.5L74.1,2.5c-1.8-1.7-4.5-1.7-6.3,0L38.8,31.5L9.9,2.5C9.1,1.7,8,1.2,6.8,1.2c-1.2,0-2.3,0.4-3.2,1.3
	c-0.9,0.8-1.3,2-1.3,3.2c0,1.2,0.5,2.3,1.3,3.2l32.1,32.1c0.8,0.8,2,1.3,3.1,1.3c0,0,0,0,0,0c1.2,0,2.3-0.5,3.2-1.3L74.1,8.8
	C75.8,7.1,75.8,4.3,74.1,2.5z"/>
</svg>
