<svg xmlns="http://www.w3.org/2000/svg" viewBox="0 0 868.3 626.06"><g id="Australia"><circle cx="686.15" cy="34.02" r="6.5" fill="#5bb7b1"/><circle cx="650.15" cy="34.02" r="6.5" fill="#5bb7b1"/><circle cx="668.15" cy="34.02" r="6.5" fill="#5bb7b1"/><circle cx="686.15" cy="70.02" r="6.5" fill="#5bb7b1"/><circle cx="704.15" cy="70.02" r="6.5" fill="#5bb7b1"/><circle cx="722.15" cy="70.02" r="6.5" fill="#5bb7b1"/><circle cx="740.15" cy="70.02" r="6.5" fill="#5bb7b1"/><circle cx="650.15" cy="70.02" r="6.5" fill="#5bb7b1"/><circle cx="668.15" cy="70.02" r="6.5" fill="#5bb7b1"/><circle cx="632.15" cy="70.02" r="6.5" fill="#5bb7b1"/><circle cx="686.15" cy="52.02" r="6.5" fill="#5bb7b1"/><circle cx="704.15" cy="52.02" r="6.5" fill="#5bb7b1"/><circle cx="650.15" cy="52.02" r="6.5" fill="#5bb7b1"/><circle cx="668.15" cy="52.02" r="6.5" fill="#5bb7b1"/><circle cx="632.15" cy="52.02" r="6.5" fill="#5bb7b1"/><circle cx="596.15" cy="88.02" r="6.5" fill="#5bb7b1"/><circle cx="686.15" cy="88.02" r="6.5" fill="#5bb7b1"/><circle cx="704.15" cy="88.02" r="6.5" fill="#5bb7b1"/><circle cx="722.15" cy="88.02" r="6.5" fill="#5bb7b1"/><circle cx="758.15" cy="88.02" r="6.5" fill="#5bb7b1"/><circle cx="740.15" cy="88.02" r="6.5" fill="#5bb7b1"/><circle cx="650.15" cy="88.02" r="6.5" fill="#5bb7b1"/><circle cx="668.15" cy="88.02" r="6.5" fill="#5bb7b1"/><circle cx="632.15" cy="88.02" r="6.5" fill="#5bb7b1"/><circle cx="614.15" cy="88.02" r="6.5" fill="#5bb7b1"/><circle cx="524.15" cy="574.03" r="6.5" fill="#5bb7b1"/><circle cx="524.15" cy="538.03" r="6.5" fill="#5bb7b1"/><circle cx="542.15" cy="592.03" r="6.5" fill="#5bb7b1"/><circle cx="506.15" cy="592.03" r="6.5" fill="#5bb7b1"/><circle cx="506.15" cy="520.03" r="6.5" fill="#5bb7b1"/><circle cx="506.15" cy="556.03" r="6.5" fill="#5bb7b1"/><circle cx="488.15" cy="556.03" r="6.5" fill="#5bb7b1"/><circle cx="362.15" cy="430.03" r="6.5" fill="#5bb7b1"/><circle cx="398.15" cy="430.03" r="6.5" fill="#5bb7b1"/><circle cx="416.15" cy="430.03" r="6.5" fill="#5bb7b1"/><circle cx="434.15" cy="430.03" r="6.5" fill="#5bb7b1"/><circle cx="452.15" cy="430.03" r="6.5" fill="#5bb7b1"/><circle cx="470.15" cy="430.03" r="6.5" fill="#5bb7b1"/><circle cx="560.15" cy="430.03" r="6.5" fill="#5bb7b1"/><circle cx="578.15" cy="430.03" r="6.5" fill="#5bb7b1"/><circle cx="596.15" cy="430.03" r="6.5" fill="#5bb7b1"/><circle cx="632.15" cy="430.03" r="6.5" fill="#5bb7b1"/><circle cx="614.15" cy="430.03" r="6.5" fill="#5bb7b1"/><circle cx="542.15" cy="430.03" r="6.5" fill="#5bb7b1"/><circle cx="524.15" cy="430.03" r="6.5" fill="#5bb7b1"/><circle cx="506.15" cy="430.03" r="6.5" fill="#5bb7b1"/><circle cx="488.15" cy="430.03" r="6.5" fill="#5bb7b1"/><circle cx="380.15" cy="430.03" r="6.5" fill="#5bb7b1"/><circle cx="344.15" cy="448.03" r="6.5" fill="#5bb7b1"/><circle cx="362.15" cy="448.03" r="6.5" fill="#5bb7b1"/><circle cx="398.15" cy="448.03" r="6.5" fill="#5bb7b1"/><circle cx="416.15" cy="448.03" r="6.5" fill="#5bb7b1"/><circle cx="434.15" cy="448.03" r="6.5" fill="#5bb7b1"/><circle cx="452.15" cy="448.03" r="6.5" fill="#5bb7b1"/><circle cx="470.15" cy="448.03" r="6.5" fill="#5bb7b1"/><circle cx="560.15" cy="448.03" r="6.5" fill="#5bb7b1"/><circle cx="578.15" cy="448.03" r="6.5" fill="#5bb7b1"/><circle cx="596.15" cy="448.03" r="6.5" fill="#5bb7b1"/><circle cx="632.15" cy="448.03" r="6.5" fill="#5bb7b1"/><circle cx="614.15" cy="448.03" r="6.5" fill="#5bb7b1"/><circle cx="542.15" cy="448.03" r="6.5" fill="#5bb7b1"/><circle cx="524.15" cy="448.03" r="6.5" fill="#5bb7b1"/><circle cx="506.15" cy="448.03" r="6.5" fill="#5bb7b1"/><circle cx="488.15" cy="448.03" r="6.5" fill="#5bb7b1"/><circle cx="380.15" cy="448.03" r="6.5" fill="#5bb7b1"/><circle cx="344.15" cy="466.03" r="6.5" fill="#5bb7b1"/><circle cx="362.15" cy="466.03" r="6.5" fill="#5bb7b1"/><circle cx="398.15" cy="466.03" r="6.5" fill="#5bb7b1"/><circle cx="416.15" cy="466.03" r="6.5" fill="#5bb7b1"/><circle cx="434.15" cy="466.03" r="6.5" fill="#5bb7b1"/><circle cx="452.15" cy="466.03" r="6.5" fill="#5bb7b1"/><circle cx="470.15" cy="466.03" r="6.5" fill="#5bb7b1"/><circle cx="560.15" cy="466.03" r="6.5" fill="#5bb7b1"/><circle cx="578.15" cy="466.03" r="6.5" fill="#5bb7b1"/><circle cx="596.15" cy="466.03" r="6.5" fill="#5bb7b1"/><circle cx="614.15" cy="466.03" r="6.5" fill="#5bb7b1"/><circle cx="542.15" cy="466.03" r="6.5" fill="#5bb7b1"/><circle cx="524.15" cy="466.03" r="6.5" fill="#5bb7b1"/><circle cx="506.15" cy="466.03" r="6.5" fill="#5bb7b1"/><circle cx="488.15" cy="466.03" r="6.5" fill="#5bb7b1"/><circle cx="380.15" cy="466.03" r="6.5" fill="#5bb7b1"/><circle cx="362.15" cy="484.03" r="6.5" fill="#5bb7b1"/><circle cx="398.15" cy="484.03" r="6.5" fill="#5bb7b1"/><circle cx="416.15" cy="484.03" r="6.5" fill="#5bb7b1"/><circle cx="434.15" cy="484.03" r="6.5" fill="#5bb7b1"/><circle cx="452.15" cy="484.03" r="6.5" fill="#5bb7b1"/><circle cx="470.15" cy="484.03" r="6.5" fill="#5bb7b1"/><circle cx="560.15" cy="484.03" r="6.5" fill="#5bb7b1"/><circle cx="578.15" cy="484.03" r="6.5" fill="#5bb7b1"/><circle cx="542.15" cy="484.03" r="6.5" fill="#5bb7b1"/><circle cx="524.15" cy="484.03" r="6.5" fill="#5bb7b1"/><circle cx="506.15" cy="484.03" r="6.5" fill="#5bb7b1"/><circle cx="488.15" cy="484.03" r="6.5" fill="#5bb7b1"/><circle cx="380.15" cy="484.03" r="6.5" fill="#5bb7b1"/><circle cx="542.15" cy="502.03" r="6.5" fill="#5bb7b1"/><circle cx="524.15" cy="502.03" r="6.5" fill="#5bb7b1"/><circle cx="506.15" cy="502.03" r="6.5" fill="#5bb7b1"/><circle cx="488.15" cy="502.03" r="6.5" fill="#5bb7b1"/><circle cx="380.15" cy="502.03" r="6.5" fill="#5bb7b1"/><circle cx="128.14" cy="196.03" r="6.5" fill="#5bb7b1"/><circle cx="146.14" cy="196.03" r="6.5" fill="#5bb7b1"/><circle cx="164.14" cy="196.03" r="6.5" fill="#5bb7b1"/><circle cx="182.14" cy="196.03" r="6.5" fill="#5bb7b1"/><circle cx="200.15" cy="196.03" r="6.5" fill="#5bb7b1"/><circle cx="218.15" cy="196.03" r="6.5" fill="#5bb7b1"/><circle cx="236.15" cy="196.03" r="6.5" fill="#5bb7b1"/><circle cx="272.15" cy="196.03" r="6.5" fill="#5bb7b1"/><circle cx="290.15" cy="196.03" r="6.5" fill="#5bb7b1"/><circle cx="308.15" cy="196.03" r="6.5" fill="#5bb7b1"/><circle cx="326.15" cy="196.03" r="6.5" fill="#5bb7b1"/><circle cx="344.15" cy="196.03" r="6.5" fill="#5bb7b1"/><circle cx="362.15" cy="196.03" r="6.5" fill="#5bb7b1"/><circle cx="398.15" cy="196.03" r="6.5" fill="#5bb7b1"/><circle cx="470.15" cy="196.03" r="6.5" fill="#5bb7b1"/><circle cx="560.15" cy="196.03" r="6.5" fill="#5bb7b1"/><circle cx="578.15" cy="196.03" r="6.5" fill="#5bb7b1"/><circle cx="596.15" cy="196.03" r="6.5" fill="#5bb7b1"/><circle cx="686.15" cy="196.03" r="6.5" fill="#5bb7b1"/><circle cx="704.15" cy="196.03" r="6.5" fill="#5bb7b1"/><circle cx="722.15" cy="196.03" r="6.5" fill="#5bb7b1"/><circle cx="740.15" cy="196.03" r="6.5" fill="#5bb7b1"/><circle cx="650.15" cy="196.03" r="6.5" fill="#5bb7b1"/><circle cx="668.15" cy="196.03" r="6.5" fill="#5bb7b1"/><circle cx="632.15" cy="196.03" r="6.5" fill="#5bb7b1"/><circle cx="614.15" cy="196.03" r="6.5" fill="#5bb7b1"/><circle cx="542.15" cy="196.03" r="6.5" fill="#5bb7b1"/><circle cx="524.15" cy="196.03" r="6.5" fill="#5bb7b1"/><circle cx="506.15" cy="196.03" r="6.5" fill="#5bb7b1"/><circle cx="488.15" cy="196.03" r="6.5" fill="#5bb7b1"/><circle cx="380.15" cy="196.03" r="6.5" fill="#5bb7b1"/><circle cx="254.15" cy="196.03" r="6.5" fill="#5bb7b1"/><circle cx="146.14" cy="178.03" r="6.5" fill="#5bb7b1"/><circle cx="164.14" cy="178.03" r="6.5" fill="#5bb7b1"/><circle cx="182.14" cy="178.03" r="6.5" fill="#5bb7b1"/><circle cx="200.15" cy="178.03" r="6.5" fill="#5bb7b1"/><circle cx="218.15" cy="178.03" r="6.5" fill="#5bb7b1"/><circle cx="236.15" cy="178.03" r="6.5" fill="#5bb7b1"/><circle cx="272.15" cy="178.03" r="6.5" fill="#5bb7b1"/><circle cx="290.15" cy="178.03" r="6.5" fill="#5bb7b1"/><circle cx="308.15" cy="178.03" r="6.5" fill="#5bb7b1"/><circle cx="326.15" cy="178.03" r="6.5" fill="#5bb7b1"/><circle cx="560.15" cy="178.03" r="6.5" fill="#5bb7b1"/><circle cx="578.15" cy="178.03" r="6.5" fill="#5bb7b1"/><circle cx="596.15" cy="178.03" r="6.5" fill="#5bb7b1"/><circle cx="686.15" cy="178.03" r="6.5" fill="#5bb7b1"/><circle cx="704.15" cy="178.03" r="6.5" fill="#5bb7b1"/><circle cx="722.15" cy="178.03" r="6.5" fill="#5bb7b1"/><circle cx="776.15" cy="178.03" r="6.5" fill="#5bb7b1"/><circle cx="758.15" cy="178.03" r="6.5" fill="#5bb7b1"/><circle cx="740.15" cy="178.03" r="6.5" fill="#5bb7b1"/><circle cx="650.15" cy="178.03" r="6.5" fill="#5bb7b1"/><circle cx="668.15" cy="178.03" r="6.5" fill="#5bb7b1"/><circle cx="632.15" cy="178.03" r="6.5" fill="#5bb7b1"/><circle cx="614.15" cy="178.03" r="6.5" fill="#5bb7b1"/><circle cx="542.15" cy="178.03" r="6.5" fill="#5bb7b1"/><circle cx="254.15" cy="178.03" r="6.5" fill="#5bb7b1"/><circle cx="128.14" cy="160.03" r="6.5" fill="#5bb7b1"/><circle cx="146.14" cy="160.03" r="6.5" fill="#5bb7b1"/><circle cx="164.14" cy="160.03" r="6.5" fill="#5bb7b1"/><circle cx="182.14" cy="160.03" r="6.5" fill="#5bb7b1"/><circle cx="200.15" cy="160.03" r="6.5" fill="#5bb7b1"/><circle cx="218.15" cy="160.03" r="6.5" fill="#5bb7b1"/><circle cx="236.15" cy="160.03" r="6.5" fill="#5bb7b1"/><circle cx="272.15" cy="160.03" r="6.5" fill="#5bb7b1"/><circle cx="290.15" cy="160.03" r="6.5" fill="#5bb7b1"/><circle cx="308.15" cy="160.03" r="6.5" fill="#5bb7b1"/><circle cx="560.15" cy="160.03" r="6.5" fill="#5bb7b1"/><circle cx="578.15" cy="160.03" r="6.5" fill="#5bb7b1"/><circle cx="596.15" cy="160.03" r="6.5" fill="#5bb7b1"/><circle cx="686.15" cy="160.03" r="6.5" fill="#5bb7b1"/><circle cx="704.15" cy="160.03" r="6.5" fill="#5bb7b1"/><circle cx="722.15" cy="160.03" r="6.5" fill="#5bb7b1"/><circle cx="794.15" cy="160.03" r="6.5" fill="#5bb7b1"/><circle cx="776.15" cy="160.03" r="6.5" fill="#5bb7b1"/><circle cx="758.15" cy="160.03" r="6.5" fill="#5bb7b1"/><circle cx="740.15" cy="160.03" r="6.5" fill="#5bb7b1"/><circle cx="650.15" cy="160.03" r="6.5" fill="#5bb7b1"/><circle cx="668.15" cy="160.03" r="6.5" fill="#5bb7b1"/><circle cx="632.15" cy="160.03" r="6.5" fill="#5bb7b1"/><circle cx="614.15" cy="160.03" r="6.5" fill="#5bb7b1"/><circle cx="542.15" cy="160.03" r="6.5" fill="#5bb7b1"/><circle cx="254.15" cy="160.03" r="6.5" fill="#5bb7b1"/><circle cx="164.14" cy="142.02" r="6.5" fill="#5bb7b1"/><circle cx="182.14" cy="142.02" r="6.5" fill="#5bb7b1"/><circle cx="200.15" cy="142.02" r="6.5" fill="#5bb7b1"/><circle cx="218.15" cy="142.02" r="6.5" fill="#5bb7b1"/><circle cx="236.15" cy="142.02" r="6.5" fill="#5bb7b1"/><circle cx="272.15" cy="142.02" r="6.5" fill="#5bb7b1"/><circle cx="596.15" cy="142.02" r="6.5" fill="#5bb7b1"/><circle cx="686.15" cy="142.02" r="6.5" fill="#5bb7b1"/><circle cx="704.15" cy="142.02" r="6.5" fill="#5bb7b1"/><circle cx="722.15" cy="142.02" r="6.5" fill="#5bb7b1"/><circle cx="794.15" cy="142.02" r="6.5" fill="#5bb7b1"/><circle cx="776.15" cy="142.02" r="6.5" fill="#5bb7b1"/><circle cx="758.15" cy="142.02" r="6.5" fill="#5bb7b1"/><circle cx="740.15" cy="142.02" r="6.5" fill="#5bb7b1"/><circle cx="650.15" cy="142.02" r="6.5" fill="#5bb7b1"/><circle cx="668.15" cy="142.02" r="6.5" fill="#5bb7b1"/><circle cx="632.15" cy="142.02" r="6.5" fill="#5bb7b1"/><circle cx="614.15" cy="142.02" r="6.5" fill="#5bb7b1"/><circle cx="254.15" cy="142.02" r="6.5" fill="#5bb7b1"/><circle cx="182.14" cy="124.02" r="6.5" fill="#5bb7b1"/><circle cx="200.15" cy="124.02" r="6.5" fill="#5bb7b1"/><circle cx="218.15" cy="124.02" r="6.5" fill="#5bb7b1"/><circle cx="236.15" cy="124.02" r="6.5" fill="#5bb7b1"/><circle cx="272.15" cy="124.02" r="6.5" fill="#5bb7b1"/><circle cx="686.15" cy="124.02" r="6.5" fill="#5bb7b1"/><circle cx="704.15" cy="124.02" r="6.5" fill="#5bb7b1"/><circle cx="722.15" cy="124.02" r="6.5" fill="#5bb7b1"/><circle cx="794.15" cy="124.02" r="6.5" fill="#5bb7b1"/><circle cx="812.16" cy="124.02" r="6.5" fill="#5bb7b1"/><circle cx="776.15" cy="124.02" r="6.5" fill="#5bb7b1"/><circle cx="758.15" cy="124.02" r="6.5" fill="#5bb7b1"/><circle cx="740.15" cy="124.02" r="6.5" fill="#5bb7b1"/><circle cx="650.15" cy="124.02" r="6.5" fill="#5bb7b1"/><circle cx="668.15" cy="124.02" r="6.5" fill="#5bb7b1"/><circle cx="632.15" cy="124.02" r="6.5" fill="#5bb7b1"/><circle cx="254.15" cy="124.02" r="6.5" fill="#5bb7b1"/><circle cx="218.15" cy="106.02" r="6.5" fill="#5bb7b1"/><circle cx="236.15" cy="106.02" r="6.5" fill="#5bb7b1"/><circle cx="578.15" cy="106.02" r="6.5" fill="#5bb7b1"/><circle cx="596.15" cy="106.02" r="6.5" fill="#5bb7b1"/><circle cx="686.15" cy="106.02" r="6.5" fill="#5bb7b1"/><circle cx="704.15" cy="106.02" r="6.5" fill="#5bb7b1"/><circle cx="722.15" cy="106.02" r="6.5" fill="#5bb7b1"/><circle cx="812.16" cy="106.02" r="6.5" fill="#5bb7b1"/><circle cx="776.15" cy="106.02" r="6.5" fill="#5bb7b1"/><circle cx="758.15" cy="106.02" r="6.5" fill="#5bb7b1"/><circle cx="740.15" cy="106.02" r="6.5" fill="#5bb7b1"/><circle cx="650.15" cy="106.02" r="6.5" fill="#5bb7b1"/><circle cx="668.15" cy="106.02" r="6.5" fill="#5bb7b1"/><circle cx="632.15" cy="106.02" r="6.5" fill="#5bb7b1"/><circle cx="614.15" cy="106.02" r="6.5" fill="#5bb7b1"/><circle cx="254.15" cy="106.02" r="6.5" fill="#5bb7b1"/><circle cx="128.14" cy="322.03" r="6.5" fill="#5bb7b1"/><circle cx="146.14" cy="322.03" r="6.5" fill="#5bb7b1"/><circle cx="164.14" cy="322.03" r="6.5" fill="#5bb7b1"/><circle cx="182.14" cy="322.03" r="6.5" fill="#5bb7b1"/><circle cx="200.15" cy="322.03" r="6.5" fill="#5bb7b1"/><circle cx="218.15" cy="322.03" r="6.5" fill="#5bb7b1"/><circle cx="236.15" cy="322.03" r="6.5" fill="#5bb7b1"/><circle cx="272.15" cy="322.03" r="6.5" fill="#5bb7b1"/><circle cx="290.15" cy="322.03" r="6.5" fill="#5bb7b1"/><circle cx="308.15" cy="322.03" r="6.5" fill="#5bb7b1"/><circle cx="326.15" cy="322.03" r="6.5" fill="#5bb7b1"/><circle cx="344.15" cy="322.03" r="6.5" fill="#5bb7b1"/><circle cx="362.15" cy="322.03" r="6.5" fill="#5bb7b1"/><circle cx="398.15" cy="322.03" r="6.5" fill="#5bb7b1"/><circle cx="416.15" cy="322.03" r="6.5" fill="#5bb7b1"/><circle cx="434.15" cy="322.03" r="6.5" fill="#5bb7b1"/><circle cx="452.15" cy="322.03" r="6.5" fill="#5bb7b1"/><circle cx="470.15" cy="322.03" r="6.5" fill="#5bb7b1"/><circle cx="560.15" cy="322.03" r="6.5" fill="#5bb7b1"/><circle cx="578.15" cy="322.03" r="6.5" fill="#5bb7b1"/><circle cx="596.15" cy="322.03" r="6.5" fill="#5bb7b1"/><circle cx="632.15" cy="322.03" r="6.5" fill="#5bb7b1"/><circle cx="614.15" cy="322.03" r="6.5" fill="#5bb7b1"/><circle cx="542.15" cy="322.03" r="6.5" fill="#5bb7b1"/><circle cx="524.15" cy="322.03" r="6.5" fill="#5bb7b1"/><circle cx="506.15" cy="322.03" r="6.5" fill="#5bb7b1"/><circle cx="488.15" cy="322.03" r="6.5" fill="#5bb7b1"/><circle cx="380.15" cy="322.03" r="6.5" fill="#5bb7b1"/><circle cx="254.15" cy="322.03" r="6.5" fill="#5bb7b1"/><circle cx="128.14" cy="340.03" r="6.5" fill="#5bb7b1"/><circle cx="146.14" cy="340.03" r="6.5" fill="#5bb7b1"/><circle cx="164.14" cy="340.03" r="6.5" fill="#5bb7b1"/><circle cx="182.14" cy="340.03" r="6.5" fill="#5bb7b1"/><circle cx="200.15" cy="340.03" r="6.5" fill="#5bb7b1"/><circle cx="218.15" cy="340.03" r="6.5" fill="#5bb7b1"/><circle cx="236.15" cy="340.03" r="6.5" fill="#5bb7b1"/><circle cx="272.15" cy="340.03" r="6.5" fill="#5bb7b1"/><circle cx="290.15" cy="340.03" r="6.5" fill="#5bb7b1"/><circle cx="308.15" cy="340.03" r="6.5" fill="#5bb7b1"/><circle cx="326.15" cy="340.03" r="6.5" fill="#5bb7b1"/><circle cx="344.15" cy="340.03" r="6.5" fill="#5bb7b1"/><circle cx="362.15" cy="340.03" r="6.5" fill="#5bb7b1"/><circle cx="398.15" cy="340.03" r="6.5" fill="#5bb7b1"/><circle cx="416.15" cy="340.03" r="6.5" fill="#5bb7b1"/><circle cx="434.15" cy="340.03" r="6.5" fill="#5bb7b1"/><circle cx="452.15" cy="340.03" r="6.5" fill="#5bb7b1"/><circle cx="470.15" cy="340.03" r="6.5" fill="#5bb7b1"/><circle cx="560.15" cy="340.03" r="6.5" fill="#5bb7b1"/><circle cx="578.15" cy="340.03" r="6.5" fill="#5bb7b1"/><circle cx="596.15" cy="340.03" r="6.5" fill="#5bb7b1"/><circle cx="632.15" cy="340.03" r="6.5" fill="#5bb7b1"/><circle cx="614.15" cy="340.03" r="6.5" fill="#5bb7b1"/><circle cx="542.15" cy="340.03" r="6.5" fill="#5bb7b1"/><circle cx="524.15" cy="340.03" r="6.5" fill="#5bb7b1"/><circle cx="506.15" cy="340.03" r="6.5" fill="#5bb7b1"/><circle cx="488.15" cy="340.03" r="6.5" fill="#5bb7b1"/><circle cx="380.15" cy="340.03" r="6.5" fill="#5bb7b1"/><circle cx="254.15" cy="340.03" r="6.5" fill="#5bb7b1"/><circle cx="146.14" cy="376.03" r="6.5" fill="#5bb7b1"/><circle cx="164.14" cy="376.03" r="6.5" fill="#5bb7b1"/><circle cx="182.14" cy="376.03" r="6.5" fill="#5bb7b1"/><circle cx="200.15" cy="376.03" r="6.5" fill="#5bb7b1"/><circle cx="218.15" cy="376.03" r="6.5" fill="#5bb7b1"/><circle cx="236.15" cy="376.03" r="6.5" fill="#5bb7b1"/><circle cx="272.15" cy="376.03" r="6.5" fill="#5bb7b1"/><circle cx="290.15" cy="376.03" r="6.5" fill="#5bb7b1"/><circle cx="308.15" cy="376.03" r="6.5" fill="#5bb7b1"/><circle cx="326.15" cy="376.03" r="6.5" fill="#5bb7b1"/><circle cx="344.15" cy="376.03" r="6.5" fill="#5bb7b1"/><circle cx="362.15" cy="376.03" r="6.5" fill="#5bb7b1"/><circle cx="398.15" cy="376.03" r="6.5" fill="#5bb7b1"/><circle cx="416.15" cy="376.03" r="6.5" fill="#5bb7b1"/><circle cx="434.15" cy="376.03" r="6.5" fill="#5bb7b1"/><circle cx="452.15" cy="376.03" r="6.5" fill="#5bb7b1"/><circle cx="470.15" cy="376.03" r="6.5" fill="#5bb7b1"/><circle cx="560.15" cy="376.03" r="6.5" fill="#5bb7b1"/><circle cx="578.15" cy="376.03" r="6.5" fill="#5bb7b1"/><circle cx="596.15" cy="376.03" r="6.5" fill="#5bb7b1"/><circle cx="650.15" cy="376.03" r="6.5" fill="#5bb7b1"/><circle cx="632.15" cy="376.03" r="6.5" fill="#5bb7b1"/><circle cx="614.15" cy="376.03" r="6.5" fill="#5bb7b1"/><circle cx="542.15" cy="376.03" r="6.5" fill="#5bb7b1"/><circle cx="524.15" cy="376.03" r="6.5" fill="#5bb7b1"/><circle cx="506.15" cy="376.03" r="6.5" fill="#5bb7b1"/><circle cx="488.15" cy="376.03" r="6.5" fill="#5bb7b1"/><circle cx="380.15" cy="376.03" r="6.5" fill="#5bb7b1"/><circle cx="254.15" cy="376.03" r="6.5" fill="#5bb7b1"/><circle cx="182.14" cy="394.03" r="6.5" fill="#5bb7b1"/><circle cx="200.15" cy="394.03" r="6.5" fill="#5bb7b1"/><circle cx="218.15" cy="394.03" r="6.5" fill="#5bb7b1"/><circle cx="236.15" cy="394.03" r="6.5" fill="#5bb7b1"/><circle cx="272.15" cy="394.03" r="6.5" fill="#5bb7b1"/><circle cx="290.15" cy="394.03" r="6.5" fill="#5bb7b1"/><circle cx="308.15" cy="394.03" r="6.5" fill="#5bb7b1"/><circle cx="326.15" cy="394.03" r="6.5" fill="#5bb7b1"/><circle cx="344.15" cy="394.03" r="6.5" fill="#5bb7b1"/><circle cx="362.15" cy="394.03" r="6.5" fill="#5bb7b1"/><circle cx="398.15" cy="394.03" r="6.5" fill="#5bb7b1"/><circle cx="416.15" cy="394.03" r="6.5" fill="#5bb7b1"/><circle cx="434.15" cy="394.03" r="6.5" fill="#5bb7b1"/><circle cx="452.15" cy="394.03" r="6.5" fill="#5bb7b1"/><circle cx="470.15" cy="394.03" r="6.5" fill="#5bb7b1"/><circle cx="560.15" cy="394.03" r="6.5" fill="#5bb7b1"/><circle cx="578.15" cy="394.03" r="6.5" fill="#5bb7b1"/><circle cx="596.15" cy="394.03" r="6.5" fill="#5bb7b1"/><circle cx="650.15" cy="394.03" r="6.5" fill="#5bb7b1"/><circle cx="668.15" cy="394.03" r="6.5" fill="#5bb7b1"/><circle cx="632.15" cy="394.03" r="6.5" fill="#5bb7b1"/><circle cx="614.15" cy="394.03" r="6.5" fill="#5bb7b1"/><circle cx="542.15" cy="394.03" r="6.5" fill="#5bb7b1"/><circle cx="524.15" cy="394.03" r="6.5" fill="#5bb7b1"/><circle cx="506.15" cy="394.03" r="6.5" fill="#5bb7b1"/><circle cx="488.15" cy="394.03" r="6.5" fill="#5bb7b1"/><circle cx="380.15" cy="394.03" r="6.5" fill="#5bb7b1"/><circle cx="254.15" cy="394.03" r="6.5" fill="#5bb7b1"/><circle cx="200.15" cy="412.03" r="6.5" fill="#5bb7b1"/><circle cx="218.15" cy="412.03" r="6.5" fill="#5bb7b1"/><circle cx="236.15" cy="412.03" r="6.5" fill="#5bb7b1"/><circle cx="362.15" cy="412.03" r="6.5" fill="#5bb7b1"/><circle cx="398.15" cy="412.03" r="6.5" fill="#5bb7b1"/><circle cx="416.15" cy="412.03" r="6.5" fill="#5bb7b1"/><circle cx="434.15" cy="412.03" r="6.5" fill="#5bb7b1"/><circle cx="452.15" cy="412.03" r="6.5" fill="#5bb7b1"/><circle cx="470.15" cy="412.03" r="6.5" fill="#5bb7b1"/><circle cx="560.15" cy="412.03" r="6.5" fill="#5bb7b1"/><circle cx="578.15" cy="412.03" r="6.5" fill="#5bb7b1"/><circle cx="596.15" cy="412.03" r="6.5" fill="#5bb7b1"/><circle cx="632.15" cy="412.03" r="6.5" fill="#5bb7b1"/><circle cx="614.15" cy="412.03" r="6.5" fill="#5bb7b1"/><circle cx="542.15" cy="412.03" r="6.5" fill="#5bb7b1"/><circle cx="524.15" cy="412.03" r="6.5" fill="#5bb7b1"/><circle cx="506.15" cy="412.03" r="6.5" fill="#5bb7b1"/><circle cx="488.15" cy="412.03" r="6.5" fill="#5bb7b1"/><circle cx="380.15" cy="412.03" r="6.5" fill="#5bb7b1"/><circle cx="254.15" cy="412.03" r="6.5" fill="#5bb7b1"/><circle cx="74.14" cy="214.03" r="6.5" fill="#5bb7b1"/><circle cx="92.14" cy="214.03" r="6.5" fill="#5bb7b1"/><circle cx="128.14" cy="214.03" r="6.5" fill="#5bb7b1"/><circle cx="146.14" cy="214.03" r="6.5" fill="#5bb7b1"/><circle cx="164.14" cy="214.03" r="6.5" fill="#5bb7b1"/><circle cx="182.14" cy="214.03" r="6.5" fill="#5bb7b1"/><circle cx="200.15" cy="214.03" r="6.5" fill="#5bb7b1"/><circle cx="218.15" cy="214.03" r="6.5" fill="#5bb7b1"/><circle cx="236.15" cy="214.03" r="6.5" fill="#5bb7b1"/><circle cx="272.15" cy="214.03" r="6.5" fill="#5bb7b1"/><circle cx="290.15" cy="214.03" r="6.5" fill="#5bb7b1"/><circle cx="308.15" cy="214.03" r="6.5" fill="#5bb7b1"/><circle cx="326.15" cy="214.03" r="6.5" fill="#5bb7b1"/><circle cx="344.15" cy="214.03" r="6.5" fill="#5bb7b1"/><circle cx="362.15" cy="214.03" r="6.5" fill="#5bb7b1"/><circle cx="398.15" cy="214.03" r="6.5" fill="#5bb7b1"/><circle cx="416.15" cy="214.03" r="6.5" fill="#5bb7b1"/><circle cx="434.15" cy="214.03" r="6.5" fill="#5bb7b1"/><circle cx="452.15" cy="214.03" r="6.5" fill="#5bb7b1"/><circle cx="470.15" cy="214.03" r="6.5" fill="#5bb7b1"/><circle cx="560.15" cy="214.03" r="6.5" fill="#5bb7b1"/><circle cx="578.15" cy="214.03" r="6.5" fill="#5bb7b1"/><circle cx="596.15" cy="214.03" r="6.5" fill="#5bb7b1"/><circle cx="686.15" cy="214.03" r="6.5" fill="#5bb7b1"/><circle cx="704.15" cy="214.03" r="6.5" fill="#5bb7b1"/><circle cx="722.15" cy="214.03" r="6.5" fill="#5bb7b1"/><circle cx="650.15" cy="214.03" r="6.5" fill="#5bb7b1"/><circle cx="668.15" cy="214.03" r="6.5" fill="#5bb7b1"/><circle cx="632.15" cy="214.03" r="6.5" fill="#5bb7b1"/><circle cx="614.15" cy="214.03" r="6.5" fill="#ff8200"/><circle cx="542.15" cy="214.03" r="6.5" fill="#5bb7b1"/><circle cx="524.15" cy="214.03" r="6.5" fill="#5bb7b1"/><circle cx="506.15" cy="214.03" r="6.5" fill="#5bb7b1"/><circle cx="488.15" cy="214.03" r="6.5" fill="#5bb7b1"/><circle cx="380.15" cy="214.03" r="6.5" fill="#5bb7b1"/><circle cx="254.15" cy="214.03" r="6.5" fill="#5bb7b1"/><circle cx="110.14" cy="214.03" r="6.5" fill="#5bb7b1"/><circle cx="56.14" cy="232.03" r="6.5" fill="#5bb7b1"/><circle cx="74.14" cy="232.03" r="6.5" fill="#5bb7b1"/><circle cx="92.14" cy="232.03" r="6.5" fill="#5bb7b1"/><circle cx="128.14" cy="232.03" r="6.5" fill="#5bb7b1"/><circle cx="146.14" cy="232.03" r="6.5" fill="#5bb7b1"/><circle cx="164.14" cy="232.03" r="6.5" fill="#5bb7b1"/><circle cx="182.14" cy="232.03" r="6.5" fill="#5bb7b1"/><circle cx="200.15" cy="232.03" r="6.5" fill="#5bb7b1"/><circle cx="218.15" cy="232.03" r="6.5" fill="#5bb7b1"/><circle cx="236.15" cy="232.03" r="6.5" fill="#5bb7b1"/><circle cx="272.15" cy="232.03" r="6.5" fill="#5bb7b1"/><circle cx="290.15" cy="232.03" r="6.5" fill="#5bb7b1"/><circle cx="308.15" cy="232.03" r="6.5" fill="#5bb7b1"/><circle cx="326.15" cy="232.03" r="6.5" fill="#5bb7b1"/><circle cx="344.15" cy="232.03" r="6.5" fill="#5bb7b1"/><circle cx="362.15" cy="232.03" r="6.5" fill="#5bb7b1"/><circle cx="398.15" cy="232.03" r="6.5" fill="#5bb7b1"/><circle cx="416.15" cy="232.03" r="6.5" fill="#5bb7b1"/><circle cx="434.15" cy="232.03" r="6.5" fill="#5bb7b1"/><circle cx="452.15" cy="232.03" r="6.5" fill="#5bb7b1"/><circle cx="470.15" cy="232.03" r="6.5" fill="#5bb7b1"/><circle cx="560.15" cy="232.03" r="6.5" fill="#5bb7b1"/><circle cx="578.15" cy="232.03" r="6.5" fill="#5bb7b1"/><circle cx="596.15" cy="232.03" r="6.5" fill="#5bb7b1"/><circle cx="686.15" cy="232.03" r="6.5" fill="#5bb7b1"/><circle cx="668.15" cy="232.03" r="6.5" fill="#5bb7b1"/><circle cx="614.15" cy="232.03" r="6.5" fill="#5bb7b1"/><circle cx="542.15" cy="232.03" r="6.5" fill="#5bb7b1"/><circle cx="524.15" cy="232.03" r="6.5" fill="#5bb7b1"/><circle cx="506.15" cy="232.03" r="6.5" fill="#5bb7b1"/><circle cx="488.15" cy="232.03" r="6.5" fill="#5bb7b1"/><circle cx="380.15" cy="232.03" r="6.5" fill="#5bb7b1"/><circle cx="254.15" cy="232.03" r="6.5" fill="#5bb7b1"/><circle cx="110.14" cy="232.03" r="6.5" fill="#5bb7b1"/><circle cx="56.14" cy="250.03" r="6.5" fill="#5bb7b1"/><circle cx="74.14" cy="250.03" r="6.5" fill="#5bb7b1"/><circle cx="92.14" cy="250.03" r="6.5" fill="#5bb7b1"/><circle cx="128.14" cy="250.03" r="6.5" fill="#5bb7b1"/><circle cx="146.14" cy="250.03" r="6.5" fill="#5bb7b1"/><circle cx="164.14" cy="250.03" r="6.5" fill="#5bb7b1"/><circle cx="182.14" cy="250.03" r="6.5" fill="#5bb7b1"/><circle cx="200.15" cy="250.03" r="6.5" fill="#5bb7b1"/><circle cx="218.15" cy="250.03" r="6.5" fill="#5bb7b1"/><circle cx="236.15" cy="250.03" r="6.5" fill="#5bb7b1"/><circle cx="272.15" cy="250.03" r="6.5" fill="#5bb7b1"/><circle cx="290.15" cy="250.03" r="6.5" fill="#5bb7b1"/><circle cx="308.15" cy="250.03" r="6.5" fill="#5bb7b1"/><circle cx="326.15" cy="250.03" r="6.5" fill="#5bb7b1"/><circle cx="344.15" cy="250.03" r="6.5" fill="#5bb7b1"/><circle cx="362.15" cy="250.03" r="6.5" fill="#5bb7b1"/><circle cx="398.15" cy="250.03" r="6.5" fill="#5bb7b1"/><circle cx="416.15" cy="250.03" r="6.5" fill="#5bb7b1"/><circle cx="434.15" cy="250.03" r="6.5" fill="#5bb7b1"/><circle cx="452.15" cy="250.03" r="6.5" fill="#5bb7b1"/><circle cx="470.15" cy="250.03" r="6.5" fill="#5bb7b1"/><circle cx="560.15" cy="250.03" r="6.5" fill="#5bb7b1"/><circle cx="578.15" cy="250.03" r="6.5" fill="#5bb7b1"/><circle cx="596.15" cy="250.03" r="6.5" fill="#5bb7b1"/><circle cx="668.15" cy="250.03" r="6.5" fill="#5bb7b1"/><circle cx="614.15" cy="250.03" r="6.5" fill="#5bb7b1"/><circle cx="542.15" cy="250.03" r="6.5" fill="#5bb7b1"/><circle cx="524.15" cy="250.03" r="6.5" fill="#5bb7b1"/><circle cx="506.15" cy="250.03" r="6.5" fill="#5bb7b1"/><circle cx="488.15" cy="250.03" r="6.5" fill="#5bb7b1"/><circle cx="380.15" cy="250.03" r="6.5" fill="#5bb7b1"/><circle cx="254.15" cy="250.03" r="6.5" fill="#5bb7b1"/><circle cx="110.14" cy="250.03" r="6.5" fill="#5bb7b1"/><circle cx="74.14" cy="268.03" r="6.5" fill="#5bb7b1"/><circle cx="92.14" cy="268.03" r="6.5" fill="#5bb7b1"/><circle cx="128.14" cy="268.03" r="6.5" fill="#5bb7b1"/><circle cx="146.14" cy="268.03" r="6.5" fill="#5bb7b1"/><circle cx="164.14" cy="268.03" r="6.5" fill="#5bb7b1"/><circle cx="182.14" cy="268.03" r="6.5" fill="#5bb7b1"/><circle cx="200.15" cy="268.03" r="6.5" fill="#5bb7b1"/><circle cx="218.15" cy="268.03" r="6.5" fill="#5bb7b1"/><circle cx="236.15" cy="268.03" r="6.5" fill="#5bb7b1"/><circle cx="272.15" cy="268.03" r="6.5" fill="#5bb7b1"/><circle cx="290.15" cy="268.03" r="6.5" fill="#5bb7b1"/><circle cx="308.15" cy="268.03" r="6.5" fill="#5bb7b1"/><circle cx="326.15" cy="268.03" r="6.5" fill="#5bb7b1"/><circle cx="344.15" cy="268.03" r="6.5" fill="#5bb7b1"/><circle cx="362.15" cy="268.03" r="6.5" fill="#5bb7b1"/><circle cx="398.15" cy="268.03" r="6.5" fill="#5bb7b1"/><circle cx="416.15" cy="268.03" r="6.5" fill="#5bb7b1"/><circle cx="434.15" cy="268.03" r="6.5" fill="#5bb7b1"/><circle cx="452.15" cy="268.03" r="6.5" fill="#5bb7b1"/><circle cx="470.15" cy="268.03" r="6.5" fill="#5bb7b1"/><circle cx="560.15" cy="268.03" r="6.5" fill="#5bb7b1"/><circle cx="578.15" cy="268.03" r="6.5" fill="#5bb7b1"/><circle cx="596.15" cy="268.03" r="6.5" fill="#5bb7b1"/><circle cx="650.15" cy="268.03" r="6.5" fill="#5bb7b1"/><circle cx="614.15" cy="268.03" r="6.5" fill="#5bb7b1"/><circle cx="542.15" cy="268.03" r="6.5" fill="#5bb7b1"/><circle cx="524.15" cy="268.03" r="6.5" fill="#5bb7b1"/><circle cx="506.15" cy="268.03" r="6.5" fill="#5bb7b1"/><circle cx="488.15" cy="268.03" r="6.5" fill="#5bb7b1"/><circle cx="380.15" cy="268.03" r="6.5" fill="#5bb7b1"/><circle cx="254.15" cy="268.03" r="6.5" fill="#5bb7b1"/><circle cx="110.14" cy="268.03" r="6.5" fill="#5bb7b1"/><circle cx="92.14" cy="286.03" r="6.5" fill="#5bb7b1"/><circle cx="128.14" cy="286.03" r="6.5" fill="#5bb7b1"/><circle cx="146.14" cy="286.03" r="6.5" fill="#5bb7b1"/><circle cx="164.14" cy="286.03" r="6.5" fill="#5bb7b1"/><circle cx="182.14" cy="286.03" r="6.5" fill="#5bb7b1"/><circle cx="200.15" cy="286.03" r="6.5" fill="#5bb7b1"/><circle cx="218.15" cy="286.03" r="6.5" fill="#5bb7b1"/><circle cx="236.15" cy="286.03" r="6.5" fill="#5bb7b1"/><circle cx="272.15" cy="286.03" r="6.5" fill="#5bb7b1"/><circle cx="290.15" cy="286.03" r="6.5" fill="#5bb7b1"/><circle cx="308.15" cy="286.03" r="6.5" fill="#5bb7b1"/><circle cx="326.15" cy="286.03" r="6.5" fill="#5bb7b1"/><circle cx="344.15" cy="286.03" r="6.5" fill="#5bb7b1"/><circle cx="362.15" cy="286.03" r="6.5" fill="#5bb7b1"/><circle cx="398.15" cy="286.03" r="6.5" fill="#5bb7b1"/><circle cx="416.15" cy="286.03" r="6.5" fill="#5bb7b1"/><circle cx="434.15" cy="286.03" r="6.5" fill="#5bb7b1"/><circle cx="452.15" cy="286.03" r="6.5" fill="#5bb7b1"/><circle cx="470.15" cy="286.03" r="6.5" fill="#5bb7b1"/><circle cx="560.15" cy="286.03" r="6.5" fill="#5bb7b1"/><circle cx="578.15" cy="286.03" r="6.5" fill="#5bb7b1"/><circle cx="596.15" cy="286.03" r="6.5" fill="#5bb7b1"/><circle cx="650.15" cy="286.03" r="6.5" fill="#5bb7b1"/><circle cx="668.15" cy="286.03" r="6.5" fill="#5bb7b1"/><circle cx="632.15" cy="286.03" r="6.5" fill="#5bb7b1"/><circle cx="614.15" cy="286.03" r="6.5" fill="#5bb7b1"/><circle cx="542.15" cy="286.03" r="6.5" fill="#5bb7b1"/><circle cx="524.15" cy="286.03" r="6.5" fill="#5bb7b1"/><circle cx="506.15" cy="286.03" r="6.5" fill="#5bb7b1"/><circle cx="488.15" cy="286.03" r="6.5" fill="#5bb7b1"/><circle cx="380.15" cy="286.03" r="6.5" fill="#5bb7b1"/><circle cx="254.15" cy="286.03" r="6.5" fill="#5bb7b1"/><circle cx="110.14" cy="286.03" r="6.5" fill="#5bb7b1"/><circle cx="128.14" cy="304.03" r="6.5" fill="#5bb7b1"/><circle cx="146.14" cy="304.03" r="6.5" fill="#5bb7b1"/><circle cx="164.14" cy="304.03" r="6.5" fill="#5bb7b1"/><circle cx="182.14" cy="304.03" r="6.5" fill="#5bb7b1"/><circle cx="200.15" cy="304.03" r="6.5" fill="#5bb7b1"/><circle cx="218.15" cy="304.03" r="6.5" fill="#5bb7b1"/><circle cx="236.15" cy="304.03" r="6.5" fill="#5bb7b1"/><circle cx="272.15" cy="304.03" r="6.5" fill="#5bb7b1"/><circle cx="290.15" cy="304.03" r="6.5" fill="#5bb7b1"/><circle cx="308.15" cy="304.03" r="6.5" fill="#5bb7b1"/><circle cx="326.15" cy="304.03" r="6.5" fill="#5bb7b1"/><circle cx="344.15" cy="304.03" r="6.5" fill="#5bb7b1"/><circle cx="362.15" cy="304.03" r="6.5" fill="#5bb7b1"/><circle cx="398.15" cy="304.03" r="6.5" fill="#5bb7b1"/><circle cx="416.15" cy="304.03" r="6.5" fill="#5bb7b1"/><circle cx="434.15" cy="304.03" r="6.5" fill="#5bb7b1"/><circle cx="452.15" cy="304.03" r="6.5" fill="#5bb7b1"/><circle cx="470.15" cy="304.03" r="6.5" fill="#5bb7b1"/><circle cx="560.15" cy="304.03" r="6.5" fill="#5bb7b1"/><circle cx="578.15" cy="304.03" r="6.5" fill="#5bb7b1"/><circle cx="596.15" cy="304.03" r="6.5" fill="#5bb7b1"/><circle cx="614.15" cy="304.03" r="6.5" fill="#5bb7b1"/><circle cx="542.15" cy="304.03" r="6.5" fill="#5bb7b1"/><circle cx="524.15" cy="304.03" r="6.5" fill="#5bb7b1"/><circle cx="506.15" cy="304.03" r="6.5" fill="#5bb7b1"/><circle cx="488.15" cy="304.03" r="6.5" fill="#5bb7b1"/><circle cx="380.15" cy="304.03" r="6.5" fill="#5bb7b1"/><circle cx="254.15" cy="304.03" r="6.5" fill="#5bb7b1"/><circle cx="110.14" cy="304.03" r="6.5" fill="#5bb7b1"/><circle cx="128.14" cy="358.03" r="6.5" fill="#5bb7b1"/><circle cx="146.14" cy="358.03" r="6.5" fill="#5bb7b1"/><circle cx="164.14" cy="358.03" r="6.5" fill="#5bb7b1"/><circle cx="182.14" cy="358.03" r="6.5" fill="#5bb7b1"/><circle cx="200.15" cy="358.03" r="6.5" fill="#5bb7b1"/><circle cx="218.15" cy="358.03" r="6.5" fill="#5bb7b1"/><circle cx="236.15" cy="358.03" r="6.5" fill="#5bb7b1"/><circle cx="272.15" cy="358.03" r="6.5" fill="#5bb7b1"/><circle cx="290.15" cy="358.03" r="6.5" fill="#5bb7b1"/><circle cx="308.15" cy="358.03" r="6.5" fill="#5bb7b1"/><circle cx="326.15" cy="358.03" r="6.5" fill="#5bb7b1"/><circle cx="344.15" cy="358.03" r="6.5" fill="#5bb7b1"/><circle cx="362.15" cy="358.03" r="6.5" fill="#5bb7b1"/><circle cx="398.15" cy="358.03" r="6.5" fill="#5bb7b1"/><circle cx="416.15" cy="358.03" r="6.5" fill="#5bb7b1"/><circle cx="434.15" cy="358.03" r="6.5" fill="#5bb7b1"/><circle cx="452.15" cy="358.03" r="6.5" fill="#5bb7b1"/><circle cx="470.15" cy="358.03" r="6.5" fill="#5bb7b1"/><circle cx="560.15" cy="358.03" r="6.5" fill="#5bb7b1"/><circle cx="578.15" cy="358.03" r="6.5" fill="#5bb7b1"/><circle cx="596.15" cy="358.03" r="6.5" fill="#5bb7b1"/><circle cx="650.15" cy="358.03" r="6.5" fill="#5bb7b1"/><circle cx="668.15" cy="358.03" r="6.5" fill="#5bb7b1"/><circle cx="632.15" cy="358.03" r="6.5" fill="#5bb7b1"/><circle cx="614.15" cy="358.03" r="6.5" fill="#5bb7b1"/><circle cx="542.15" cy="358.03" r="6.5" fill="#5bb7b1"/><circle cx="524.15" cy="358.03" r="6.5" fill="#5bb7b1"/><circle cx="506.15" cy="358.03" r="6.5" fill="#5bb7b1"/><circle cx="488.15" cy="358.03" r="6.5" fill="#5bb7b1"/><circle cx="380.15" cy="358.03" r="6.5" fill="#5bb7b1"/><circle cx="254.15" cy="358.03" r="6.5" fill="#5bb7b1"/><circle cx="110.14" cy="358.03" r="6.5" fill="#5bb7b1"/></g></svg>