<svg id="Layer_1" data-name="Layer 1" xmlns="http://www.w3.org/2000/svg" viewBox="0 0 90.71 73.7"><defs><style>.cls-1{fill:#ff8200;}.cls-2{fill:#5cb8b2;}</style></defs><path class="cls-1" d="M49.86,49.94a13.3,13.3,0,0,0,3.77-7,12,12,0,0,0-6.17-12.9h0a2,2,0,0,0-2.65.71,2,2,0,0,0,.71,2.65l.15.08A8.34,8.34,0,0,1,50,41.36a9,9,0,0,1-2.73,5.76L33.3,61a8.82,8.82,0,0,1-11.65.58,8.37,8.37,0,0,1-2.84-7.21,8.87,8.87,0,0,1,2.67-5.26L34.31,36.3a1.92,1.92,0,0,0,0-2.71A2,2,0,0,0,32.94,33a1.91,1.91,0,0,0-1.35.56L18.81,46.33A13,13,0,0,0,15,54.19,12.25,12.25,0,0,0,25.89,67.56,12.34,12.34,0,0,0,36.07,63.7Z"/><path class="cls-1" d="M72.31,26.73a12.27,12.27,0,0,0-.15-17.29,13.37,13.37,0,0,0-1.16-1A12.46,12.46,0,0,0,54.72,9.85l-14,13.93A12.55,12.55,0,0,0,40,41a12.81,12.81,0,0,0,3.06,2.42,2,2,0,0,0,2.61-.82,2,2,0,0,0,.13-1.47A2,2,0,0,0,44.84,40a8.15,8.15,0,0,1-1.72-1.31,8.42,8.42,0,0,1-2.37-7,9,9,0,0,1,2.64-5.06l14.35-14.4a8.35,8.35,0,0,1,11.8,0,8.91,8.91,0,0,1,1.13,1.39A8.54,8.54,0,0,1,69.4,24.17L56.49,37.09a1.94,1.94,0,0,0,2.73,2.75Z"/><path class="cls-2" d="M71.45,48.77a1.94,1.94,0,0,0-1-2.52h-.08l-3.76-1.53a1.91,1.91,0,0,0-.73-.15,2,2,0,0,0-1.8,1.18,1.93,1.93,0,0,0,1,2.52l3.79,1.53a1.93,1.93,0,0,0,2.54-1Z"/><path class="cls-2" d="M65.23,54l-2.91-2.91A1.93,1.93,0,0,0,59,52.42a1.92,1.92,0,0,0,.56,1.36l2.91,2.94A1.93,1.93,0,0,0,65.23,54Z"/><path class="cls-2" d="M28.21,16.93a1.93,1.93,0,0,0-2.74,2.73l2.93,2.91a1.92,1.92,0,1,0,2.71-2.72Z"/><path class="cls-2" d="M35.93,11.85a1.93,1.93,0,0,0-1.09-1,2.06,2.06,0,0,0-.65-.11,1.83,1.83,0,0,0-.82.19,1.9,1.9,0,0,0-1,2.4L34,17.14a1.92,1.92,0,0,0,2.53,1h0a1.93,1.93,0,0,0,1-1.05,2,2,0,0,0,0-1.47Z"/><path class="cls-2" d="M26.73,28.06a2,2,0,0,0-.94-2.58h-.11l-3.83-1.62a1.94,1.94,0,0,0-2.53,1l0,0a1.93,1.93,0,0,0,1,2.49L24.14,29a1.93,1.93,0,0,0,1.49.05A2,2,0,0,0,26.73,28.06Z"/></svg>