<svg id="e8129e87-3074-42d4-b6b5-9d0d6022454e" data-name="Layer 1" xmlns="http://www.w3.org/2000/svg" viewBox="0 0 90.71 73.7"><path d="M68.76,43.74a6.51,6.51,0,0,0-4.73,2l-5.29-3A15,15,0,0,0,60,36.89,14.57,14.57,0,0,0,58.74,31L64,28a6.53,6.53,0,1,0-1.84-4.52h0a8.21,8.21,0,0,0,.29,1.84l-5.3,3A14.22,14.22,0,0,0,47,22.49V16.35a6.55,6.55,0,1,0-3.11,0v6.14A14.57,14.57,0,0,0,33.7,28.35l-5.3-3a6.78,6.78,0,0,0,.28-1.84A6.61,6.61,0,1,0,26.83,28l5.29,3a13,13,0,0,0-1.34,5.78A14.81,14.81,0,0,0,32,42.68l-5.29,3a6.44,6.44,0,0,0-4.73-2,6.57,6.57,0,1,0,6.56,6.58h0a6.72,6.72,0,0,0-.28-1.84l5.3-3.11a14.41,14.41,0,0,0,10.24,5.85v6.14A6.59,6.59,0,1,0,52,63.81v-.16a6.51,6.51,0,0,0-5-6.36V51.15a14.24,14.24,0,0,0,10.16-5.86l5.29,3.11a8.61,8.61,0,0,0-.28,1.83,6.57,6.57,0,0,0,13.13.17v-.17a6.45,6.45,0,0,0-6.44-6.49h-.06Zm0-23.86a3.46,3.46,0,1,1-3.46,3.46h0A3.47,3.47,0,0,1,68.76,19.88ZM22,26.8a3.46,3.46,0,1,1,3.46-3.46h0A3.45,3.45,0,0,1,22,26.8Zm0,27a3.46,3.46,0,1,1,3.46-3.46h0A3.46,3.46,0,0,1,22,53.76ZM41.94,9.86a3.46,3.46,0,1,1,3.46,3.46h0a3.46,3.46,0,0,1-3.45-3.45Zm6.91,53.93a3.46,3.46,0,1,1-3.46-3.46h0A3.45,3.45,0,0,1,48.85,63.79ZM45.39,48.33A11.51,11.51,0,1,1,56.9,36.82h0A11.51,11.51,0,0,1,45.39,48.33Zm23.37,5.43a3.46,3.46,0,1,1,3.46-3.46h0A3.45,3.45,0,0,1,68.76,53.76Z" fill="#f58020"/><path d="M49.84,32.44l-6,6L41,35.55a1.56,1.56,0,0,0-2.19,0,1.53,1.53,0,0,0,0,2.17v0h0l4,4a1.65,1.65,0,0,0,1.13.43A1.69,1.69,0,0,0,45,41.76l7.06-7a1.49,1.49,0,0,0,.07-2.12l-.07-.07A1.51,1.51,0,0,0,50,32.38h0Z" fill="#5cb8b2"/></svg>