<svg id="Layer_1" data-name="Layer 1" xmlns="http://www.w3.org/2000/svg" viewBox="0 0 90.71 73.7"><defs><style>.cls-1{fill:#ff8200;}.cls-2{fill:#5cb8b2;}</style></defs><path class="cls-1" d="M43.43,36.85a19.51,19.51,0,1,0-39,0V48a1.69,1.69,0,0,0,1.65,1.65A1.65,1.65,0,0,0,7.72,48V36.85a16.16,16.16,0,1,1,32.32,0,19.55,19.55,0,0,0,39.1,0V25.6l4.27,4.27a1.72,1.72,0,0,0,2.38,0,1.54,1.54,0,0,0,.5-1.13h0a1.7,1.7,0,0,0-.5-1.26l-7.16-7.16a1.39,1.39,0,0,0-1-.47,1.71,1.71,0,0,0-1.26.47l-7.16,7.16a1.67,1.67,0,0,0,0,2.39,1.72,1.72,0,0,0,2.38,0l4.27-4.27V36.85a16.2,16.2,0,1,1-32.4,0Z"/><path class="cls-2" d="M59.63,31.09a5.76,5.76,0,1,0,5.76,5.76A5.76,5.76,0,0,0,59.63,31.09Z"/><path class="cls-2" d="M23.83,31.09a5.76,5.76,0,1,0,5.76,5.76A5.77,5.77,0,0,0,23.83,31.09Z"/></svg>