<?xml version="1.0" encoding="UTF-8"?><svg id="Layer_1" xmlns="http://www.w3.org/2000/svg" viewBox="0 0 209.3 88.74"><path d="m12.94,74.57l-4.1,10.1h-1l-4.08-10.1v10.1H1.42v-13.34h3.3l3.62,8.98,3.64-8.98h3.3v13.34h-2.34v-10.1Z" fill="#00263e"/><path d="m23.96,83.64c-.72.82-1.84,1.28-3.12,1.28-1.58,0-3.36-1.06-3.36-3.2s1.78-3.14,3.36-3.14c1.3,0,2.42.42,3.12,1.24v-1.44c0-1.12-.92-1.8-2.26-1.8-1.08,0-2.02.4-2.86,1.22l-.86-1.46c1.12-1.06,2.52-1.56,4.06-1.56,2.14,0,4.02.9,4.02,3.5v6.4h-2.1v-1.04Zm0-2.62c-.48-.66-1.38-1-2.3-1-1.18,0-2.06.68-2.06,1.74s.88,1.72,2.06,1.72c.92,0,1.82-.34,2.3-1v-1.46Z" fill="#00263e"/><path d="m28.78,75.01h2.1v1.42c.72-.92,1.88-1.64,3.14-1.64v2.08c-.18-.04-.4-.06-.66-.06-.88,0-2.06.6-2.48,1.28v6.58h-2.1v-9.66Z" fill="#00263e"/><path d="m39.16,80.69l-1.34,1.38v2.6h-2.1v-13.34h2.1v8.34l4.26-4.66h2.6l-4.02,4.38,4.1,5.28h-2.64l-2.96-3.98Z" fill="#00263e"/><path d="m50.04,74.77c2.9,0,4.76,2.22,4.76,5.26v.5h-7.46c.16,1.46,1.26,2.66,3.08,2.66.94,0,2.06-.38,2.74-1.06l.96,1.38c-.96.92-2.38,1.4-3.92,1.4-2.9,0-5.06-2.02-5.06-5.08,0-2.8,2.04-5.06,4.9-5.06Zm-2.72,4.28h5.44c-.04-1.14-.82-2.56-2.72-2.56-1.8,0-2.62,1.38-2.72,2.56Z" fill="#00263e"/><path d="m57.3,82.44v-5.58h-1.6v-1.84h1.6v-2.64h2.1v2.64h1.96v1.84h-1.96v5.06c0,.66.32,1.14.92,1.14.4,0,.78-.16.94-.34l.5,1.58c-.38.36-1,.62-1.98.62-1.62,0-2.48-.88-2.48-2.48Z" fill="#00263e"/><path d="m63.38,81.9c.68.7,2.02,1.36,3.28,1.36s1.9-.46,1.9-1.18c0-.84-1.02-1.14-2.2-1.4-1.66-.36-3.64-.8-3.64-2.96,0-1.58,1.36-2.94,3.8-2.94,1.64,0,2.88.58,3.76,1.36l-.88,1.48c-.58-.66-1.66-1.16-2.86-1.16-1.1,0-1.8.4-1.8,1.08,0,.74.96,1,2.1,1.26,1.68.36,3.74.84,3.74,3.12,0,1.7-1.42,3-4.02,3-1.64,0-3.14-.52-4.14-1.5l.96-1.52Z" fill="#00263e"/><path d="m77.58,72.11c0-.72.6-1.3,1.3-1.3s1.3.58,1.3,1.3-.58,1.3-1.3,1.3-1.3-.58-1.3-1.3Zm.26,2.9h2.1v9.66h-2.1v-9.66Z" fill="#00263e"/><path d="m89.18,78.63c0-1.5-.76-2-1.94-2-1.08,0-2,.64-2.48,1.3v6.74h-2.1v-9.66h2.1v1.32c.64-.76,1.88-1.56,3.4-1.56,2.08,0,3.12,1.12,3.12,3.1v6.8h-2.1v-6.04Z" fill="#00263e"/><path d="m107.66,82.11h-6.32l-.98,2.56h-2.56l5.24-13.34h2.92l5.24,13.34h-2.56l-.98-2.56Zm-5.66-2.06h5l-2.5-6.74-2.5,6.74Z" fill="#00263e"/><path d="m112.72,81.9c.68.7,2.02,1.36,3.28,1.36s1.9-.46,1.9-1.18c0-.84-1.02-1.14-2.2-1.4-1.66-.36-3.64-.8-3.64-2.96,0-1.58,1.36-2.94,3.8-2.94,1.64,0,2.88.58,3.76,1.36l-.88,1.48c-.58-.66-1.66-1.16-2.86-1.16-1.1,0-1.8.4-1.8,1.08,0,.74.96,1,2.1,1.26,1.68.36,3.74.84,3.74,3.12,0,1.7-1.42,3-4.02,3-1.64,0-3.14-.52-4.14-1.5l.96-1.52Z" fill="#00263e"/><path d="m121.78,72.11c0-.72.6-1.3,1.3-1.3s1.3.58,1.3,1.3-.58,1.3-1.3,1.3-1.3-.58-1.3-1.3Zm.26,2.9h2.1v9.66h-2.1v-9.66Z" fill="#00263e"/><path d="m132.76,83.64c-.72.82-1.84,1.28-3.12,1.28-1.58,0-3.36-1.06-3.36-3.2s1.78-3.14,3.36-3.14c1.3,0,2.42.42,3.12,1.24v-1.44c0-1.12-.92-1.8-2.26-1.8-1.08,0-2.02.4-2.86,1.22l-.86-1.46c1.12-1.06,2.52-1.56,4.06-1.56,2.14,0,4.02.9,4.02,3.5v6.4h-2.1v-1.04Zm0-2.62c-.48-.66-1.38-1-2.3-1-1.18,0-2.06.68-2.06,1.74s.88,1.72,2.06,1.72c.92,0,1.82-.34,2.3-1v-1.46Z" fill="#00263e"/><path d="m12.52,16.26l-7.04,7.23L.3,18.05,13.74,4.55h7.94v42.68h-9.15v-30.97Z" fill="#00263e"/><path d="m47.91,38.4h-20.41v-7.17L44.46,4.55h12.54v25.85h5.5v8h-5.5v8.83h-9.09v-8.83Zm-11.52-8h11.52V12.61l-11.52,17.79Z" fill="#00263e"/></svg>