<svg xmlns="http://www.w3.org/2000/svg" viewBox="0 0 90.71 73.7"><title>customer-support</title><path d="M45.35,3.35C28.72,3.35,14.9,14.06,14.9,27.72V49a1.51,1.51,0,0,0,0,.3,9.14,9.14,0,0,0,8.19,8.78,4.57,4.57,0,0,0,4,2.34H28.6a4.61,4.61,0,0,0,4.57-4.57V42.19a4.59,4.59,0,0,0-4.57-4.57H27.08a4.59,4.59,0,0,0-4,2.33,9.1,9.1,0,0,0-5.17,2.31V27.72C17.94,16.15,30,6.4,45.35,6.4s27.41,9.75,27.41,21.32V42.25A9.13,9.13,0,0,0,67.6,40a4.61,4.61,0,0,0-4-2.34H62.1a4.59,4.59,0,0,0-4.57,4.57v13.7a4.59,4.59,0,0,0,4.57,4.57h1.52a4.54,4.54,0,0,0,4-2.33s0,0,0,0a9.33,9.33,0,0,0,2.09-.48v1.29a4.52,4.52,0,0,1-4.48,4.57H52.73a5.36,5.36,0,0,0-5.09-3.81H43.07a5.33,5.33,0,0,0,0,10.66h4.57a5.36,5.36,0,0,0,5.11-3.81h12.4a7.62,7.62,0,0,0,7.61-7.61V55.82a9.1,9.1,0,0,0,3-6.52s0-.06,0-.1V27.72C75.81,14.06,62,3.35,45.36,3.35ZM27.08,40.66H28.6a1.49,1.49,0,0,1,1.52,1.45V55.88a1.49,1.49,0,0,1-1.45,1.53H27.08A1.49,1.49,0,0,1,25.56,56V42.18A1.49,1.49,0,0,1,27,40.66Zm35,0h1.52a1.49,1.49,0,0,1,1.53,1.45V55.88a1.49,1.49,0,0,1-1.45,1.53H62.1A1.49,1.49,0,0,1,60.58,56a.11.11,0,0,1,0-.08V42.18A1.48,1.48,0,0,1,62,40.66ZM22.51,43.25V54.82a6,6,0,0,1-4.57-5.67V49A6,6,0,0,1,22.51,43.25Zm45.68,0A6,6,0,0,1,72.76,49v.16a6,6,0,0,1-4.57,5.62ZM43.07,62.74h4.57a2.29,2.29,0,0,1,0,4.57H43.07a2.29,2.29,0,0,1,0-4.57Z" fill="#f58020"/></svg>