<svg id="Layer_1" data-name="Layer 1" xmlns="http://www.w3.org/2000/svg" viewBox="0 0 90.71 73.7"><defs><style>.cls-1{fill:#f58020;}</style></defs><title>Infinity copy 5</title><path class="cls-1" d="M45.35,3.67A33.18,33.18,0,1,0,78.53,36.85,33.22,33.22,0,0,0,45.35,3.67ZM64.18,60.24a30,30,0,0,1-37.65,0l-.11-.09,0-.13c1-4.85,9.1-12.17,18.9-12.17S63.23,55.17,64.26,60l0,.13ZM32.39,31.75a13,13,0,1,1,13,13A13,13,0,0,1,32.39,31.75ZM67.12,57.53l-.24.25-.13-.32c-2-4.72-7.19-9.17-13.36-11.34L52.92,46l.43-.24a16.1,16.1,0,1,0-16,0l.43.24-.47.16C31.15,48.29,25.9,52.74,24,57.46l-.13.32-.24-.25a30,30,0,1,1,43.53,0Z"/></svg>