<svg id="ab58bee6-31f2-4b47-b07d-a1a4e62b4917" data-name="Layer 1" xmlns="http://www.w3.org/2000/svg" viewBox="0 0 90.71 73.7"><title>Infinity copy 14</title><path d="M19.37,68.32a1.57,1.57,0,0,0,1.54-1.54,24.44,24.44,0,0,1,48.88,0,1.54,1.54,0,0,0,3.08,0A27.07,27.07,0,0,0,55.55,41.09l-1.8-.72,1.63-1a17.92,17.92,0,0,0,8.2-15.21,18.23,18.23,0,1,0-36.45,0,17.9,17.9,0,0,0,8.2,15.21l1.63,1-1.8.72A27.5,27.5,0,0,0,17.83,66.78,1.57,1.57,0,0,0,19.37,68.32ZM30.42,24.11A14.94,14.94,0,1,1,45.35,39,14.94,14.94,0,0,1,30.42,24.11Z" fill="#f58020"/><polygon points="38.3 40.57 41.09 49.35 49.69 49.35 52.4 40.57 38.3 40.57" fill="none" stroke="#f58020" stroke-linecap="round" stroke-linejoin="round" stroke-width="3"/><polyline points="36.54 67.5 41.09 49.35 49.69 49.35 54.42 67.5" fill="none" stroke="#f58020" stroke-linecap="round" stroke-linejoin="round" stroke-width="3"/></svg>