<?xml version="1.0" encoding="UTF-8"?>
<svg id="Layer_1" data-name="Layer 1" xmlns="http://www.w3.org/2000/svg" viewBox="0 0 209.3 88.74">
  <defs>
    <style>
      .cls-1 {
        fill: #00263e;
        stroke-width: 0px;
      }
    </style>
  </defs>
  <g>
    <path class="cls-1" d="m1.42,71.33h9.14v2.06H3.76v3.46h6.66v2.06H3.76v3.7h6.8v2.06H1.42v-13.34Z"/>
    <path class="cls-1" d="m24.74,78.37c0-1.04-.46-1.74-1.58-1.74-.94,0-1.82.66-2.24,1.28v6.76h-2.1v-6.3c0-1.04-.46-1.74-1.6-1.74-.92,0-1.78.66-2.22,1.3v6.74h-2.1v-9.66h2.1v1.32c.4-.6,1.68-1.56,3.14-1.56s2.32.72,2.64,1.78c.56-.88,1.84-1.78,3.28-1.78,1.78,0,2.78.96,2.78,2.92v6.98h-2.1v-6.3Z"/>
    <path class="cls-1" d="m29.56,88.36v-13.34h2.1v1.32c.72-.96,1.84-1.56,3.1-1.56,2.5,0,4.28,1.88,4.28,5.06s-1.78,5.08-4.28,5.08c-1.22,0-2.32-.54-3.1-1.58v5.02h-2.1Zm4.58-11.72c-.98,0-2.02.58-2.48,1.3v3.82c.46.7,1.5,1.3,2.48,1.3,1.66,0,2.72-1.34,2.72-3.22s-1.06-3.2-2.72-3.2Z"/>
    <path class="cls-1" d="m41.16,71.33h2.1v13.34h-2.1v-13.34Z"/>
    <path class="cls-1" d="m45.38,79.83c0-2.76,1.9-5.06,4.96-5.06s4.98,2.3,4.98,5.06-1.88,5.08-4.98,5.08-4.96-2.3-4.96-5.08Zm7.76,0c0-1.7-1-3.2-2.8-3.2s-2.78,1.5-2.78,3.2,1,3.22,2.78,3.22,2.8-1.5,2.8-3.22Z"/>
    <path class="cls-1" d="m58.14,86.74c.66,0,1.1-.2,1.38-.84l.48-1.1-3.96-9.78h2.24l2.82,7.24,2.82-7.24h2.26l-4.66,11.4c-.66,1.64-1.82,2.16-3.32,2.18-.3,0-.88-.06-1.18-.14l.32-1.88c.22.1.56.16.8.16Z"/>
    <path class="cls-1" d="m71.8,74.77c2.9,0,4.76,2.22,4.76,5.26v.5h-7.46c.16,1.46,1.26,2.66,3.08,2.66.94,0,2.06-.38,2.74-1.06l.96,1.38c-.96.92-2.38,1.4-3.92,1.4-2.9,0-5.06-2.02-5.06-5.08,0-2.8,2.04-5.06,4.9-5.06Zm-2.72,4.28h5.44c-.04-1.14-.82-2.56-2.72-2.56-1.8,0-2.62,1.38-2.72,2.56Z"/>
    <path class="cls-1" d="m82.94,74.77c2.9,0,4.76,2.22,4.76,5.26v.5h-7.46c.16,1.46,1.26,2.66,3.08,2.66.94,0,2.06-.38,2.74-1.06l.96,1.38c-.96.92-2.38,1.4-3.92,1.4-2.9,0-5.06-2.02-5.06-5.08,0-2.8,2.04-5.06,4.9-5.06Zm-2.72,4.28h5.44c-.04-1.14-.82-2.56-2.72-2.56-1.8,0-2.62,1.38-2.72,2.56Z"/>
    <path class="cls-1" d="m89.9,81.9c.68.7,2.02,1.36,3.28,1.36s1.9-.46,1.9-1.18c0-.84-1.02-1.14-2.2-1.4-1.66-.36-3.64-.8-3.64-2.96,0-1.58,1.36-2.94,3.8-2.94,1.64,0,2.88.58,3.76,1.36l-.88,1.48c-.58-.66-1.66-1.16-2.86-1.16-1.1,0-1.8.4-1.8,1.08,0,.74.96,1,2.1,1.26,1.68.36,3.74.84,3.74,3.12,0,1.7-1.42,3-4.02,3-1.64,0-3.14-.52-4.14-1.5l.96-1.52Z"/>
  </g>
  <path class="cls-1" d="m12.93,16.29l-7.04,7.23L.7,18.08,14.14,4.58h7.94v42.68h-9.15v-30.97Z"/>
  <path class="cls-1" d="m29.95,53.15c2.05-1.09,4.42-3.71,4.93-5.95-.19.06-.77.19-1.22.19-2.43,0-4.35-1.92-4.35-4.67s2.3-5.12,4.99-5.12c3.01,0,5.76,2.37,5.76,6.53,0,4.8-2.69,9.09-6.59,11.9l-3.52-2.88Z"/>
  <path class="cls-1" d="m45.7,40.1c17.47-12.86,22.59-17.28,22.59-22.53,0-3.71-3.39-5.57-6.98-5.57-4.8,0-8.51,1.92-11.39,4.93l-5.18-6.02c4.16-4.8,10.5-6.98,16.45-6.98,9.09,0,16.32,5.12,16.32,13.63,0,7.29-6.02,13.63-17.47,21.69h17.79v8h-32.13v-7.17Z"/>
  <path class="cls-1" d="m89.21,35.49c2.94,3.01,6.91,4.61,11.39,4.61,5.06,0,7.94-2.88,7.94-6.4,0-3.9-2.82-6.53-7.68-6.53-3.52,0-6.4,1.09-8.96,3.52l-6.34-1.73V4.58h29.31v7.81h-20.42v10.69c2.24-1.98,5.7-3.52,9.6-3.52,7.23,0,13.69,5.12,13.69,13.76s-6.78,14.72-17.09,14.72c-7.42,0-12.8-2.43-16.45-6.4l4.99-6.14Z"/>
  <path class="cls-1" d="m139.84,3.94c12.16,0,17.66,11.01,17.66,22.01s-5.5,22.08-17.66,22.08-17.66-11.07-17.66-22.08,5.44-22.01,17.66-22.01Zm0,8.06c-6.14,0-8.45,6.08-8.45,13.95s2.3,14.01,8.45,14.01,8.38-6.14,8.38-14.01-2.3-13.95-8.38-13.95Z"/>
  <path class="cls-1" d="m178.62,41.19h-5.57v-12.99h-11.52v-5.06h11.52v-12.48h5.57v12.48h11.46v5.06h-11.46v12.99Z"/>
</svg>