<?xml version="1.0" encoding="UTF-8"?>
<svg id="Layer_1" data-name="Layer 1" xmlns="http://www.w3.org/2000/svg" viewBox="0 0 90.71 90.71">
  <defs>
    <style>
      .cls-1 {
        fill: #fff;
      }

      .cls-2 {
        fill: #335265;
      }
    </style>
  </defs>
  <circle class="cls-2" cx="45.35" cy="45.35" r="42.37"/>
  <g>
    <path class="cls-1" d="M6.09,83.76c1.04-.02,1.88-.86,1.9-1.9,0-16.68,13.53-30.21,30.21-30.21s30.21,13.53,30.21,30.21c0,1.05,.85,1.9,1.9,1.9s1.9-.85,1.9-1.9c.23-14.03-8.32-26.7-21.41-31.76l-2.22-.89,2.01-1.24c6.38-4.12,10.2-11.21,10.14-18.8,.29-12.44-9.56-22.76-22-23.06-12.44-.29-22.76,9.56-23.06,22,0,.35,0,.7,0,1.06-.07,7.59,3.76,14.69,10.14,18.8l2.01,1.24-2.22,.89c-12.99,5.17-21.49,17.77-21.42,31.76,.02,1.04,.86,1.88,1.9,1.9ZM19.75,29.11c-.03-10.2,8.21-18.49,18.41-18.53,10.2-.03,18.49,8.21,18.53,18.41,.03,10.2-8.21,18.49-18.41,18.53-.02,0-.05,0-.07,0-10.17,0-18.42-8.24-18.45-18.41Z"/>
    <path class="cls-1" d="M43.57,62.16h-10.63c-.81,0-1.52-.52-1.77-1.29l-3.45-10.85c-.18-.56-.08-1.18,.27-1.66,.35-.48,.9-.76,1.5-.76h17.43c.59,0,1.14,.28,1.49,.75s.45,1.09,.28,1.65l-3.35,10.85c-.24,.78-.96,1.31-1.77,1.31Zm-9.27-3.71h7.91l2.21-7.14h-12.38l2.27,7.14Z"/>
    <path class="cls-1" d="M49.42,84.6c-.82,0-1.58-.55-1.79-1.39l-5.49-21.05h-7.75l-5.27,21.03c-.25,.99-1.25,1.6-2.25,1.35-.99-.25-1.6-1.26-1.35-2.25l5.62-22.44c.21-.83,.95-1.4,1.8-1.4h10.63c.84,0,1.58,.57,1.79,1.39l5.85,22.44c.26,.99-.34,2-1.33,2.26-.16,.04-.31,.06-.47,.06Z"/>
  </g>
</svg>