<?xml version="1.0" encoding="UTF-8"?>
<svg id="Layer_1" data-name="Layer 1" xmlns="http://www.w3.org/2000/svg" viewBox="0 0 402.5 99.17">
  <defs>
    <style>
      .cls-1 {
        fill: #00263e;
      }

      .cls-2 {
        fill: #fff;
      }

      .cls-3 {
        fill: #ff8200;
      }

      .cls-4 {
        fill: #da203e;
      }

      .cls-5 {
        fill: #424143;
      }

      .cls-6 {
        stroke: #424143;
        stroke-width: .75px;
      }

      .cls-6, .cls-7, .cls-8 {
        fill: none;
        stroke-miterlimit: 10;
      }

      .cls-7 {
        stroke-width: 2px;
      }

      .cls-7, .cls-8 {
        stroke: #da203e;
      }
    </style>
  </defs>
  <path class="cls-1" d="m151.48,86.12h-3.1l-1.76-4.55h-8.09l-1.76,4.55h-3l7.05-17.86h3.6l7.05,17.86Zm-11.89-7.29h5.97l-2.99-7.7-2.99,7.7Z"/>
  <path class="cls-1" d="m165.32,78.44v7.68h-2.68v-6.8c0-2.06-1.06-3.2-2.84-3.2s-3.16,1.14-3.16,3.23v6.77h-2.68v-12.22h2.65v1.49c.98-1.44,2.5-1.81,3.75-1.81,2.91,0,4.96,2,4.96,4.86"/>
  <path class="cls-1" d="m191.88,86.12h-3.1l-1.76-4.55h-8.09l-1.76,4.55h-3l7.05-17.86h3.6l7.06,17.86Zm-11.89-7.29h5.97l-2.99-7.7-2.98,7.7Z"/>
  <path class="cls-1" d="m204.34,75.53l-1.71,1.82c-.85-.8-1.76-1.26-2.93-1.26-2.05,0-3.61,1.61-3.61,3.92s1.56,3.92,3.61,3.92c1.17,0,2.22-.55,3-1.28l1.65,1.84c-1.11,1.29-2.74,1.95-4.57,1.95-3.89,0-6.43-2.77-6.43-6.43s2.54-6.43,6.43-6.43c1.82,0,3.48.66,4.57,1.95"/>
  <path class="cls-1" d="m217.18,75.53l-1.71,1.82c-.85-.8-1.76-1.26-2.93-1.26-2.05,0-3.61,1.61-3.61,3.92s1.56,3.92,3.61,3.92c1.17,0,2.22-.55,3-1.28l1.65,1.84c-1.11,1.29-2.74,1.95-4.57,1.95-3.89,0-6.43-2.77-6.43-6.43s2.54-6.43,6.43-6.43c1.82,0,3.48.66,4.57,1.95"/>
  <rect class="cls-1" x="220.17" y="67.75" width="2.68" height="18.37"/>
  <path class="cls-1" d="m230.25,69.68c0,1.06-.83,1.86-1.89,1.86s-1.86-.8-1.86-1.86.8-1.89,1.86-1.89,1.89.83,1.89,1.89m-.53,16.44h-2.68v-12.22h2.68v12.22Z"/>
  <path class="cls-1" d="m253.95,78.44v7.68h-2.68v-6.8c0-2.06-1.06-3.2-2.84-3.2s-3.16,1.14-3.16,3.23v6.77h-2.68v-6.8c0-2.06-1.06-3.2-2.85-3.2s-3.16,1.14-3.16,3.23v6.77h-2.68v-12.22h2.65v1.49c.98-1.44,2.5-1.81,3.75-1.81,1.86,0,3.38.83,4.22,2.18,1.06-1.75,2.95-2.18,4.46-2.18,2.91,0,4.96,2,4.96,4.86"/>
  <path class="cls-1" d="m268.99,80c0,.34-.02.69-.05.99h-9.03c.36,2.2,1.9,3.11,3.64,3.11,1.23,0,2.53-.48,3.53-1.29l1.33,1.9c-1.49,1.27-3.17,1.72-5.02,1.72-3.66,0-6.25-2.55-6.25-6.43s2.49-6.43,6.08-6.43,5.77,2.6,5.78,6.42m-9.07-1.03h6.34c-.29-1.9-1.4-3.01-3.1-3.01-1.9,0-2.96,1.23-3.24,3.01"/>
  <path class="cls-1" d="m289.29,75.53l-1.71,1.82c-.85-.8-1.76-1.26-2.93-1.26-2.05,0-3.61,1.61-3.61,3.92s1.56,3.92,3.61,3.92c1.17,0,2.22-.55,3-1.28l1.65,1.84c-1.11,1.29-2.74,1.95-4.57,1.95-3.89,0-6.43-2.77-6.43-6.43s2.54-6.43,6.43-6.43c1.82,0,3.48.66,4.57,1.95"/>
  <path class="cls-1" d="m304.29,80.01c0,3.66-2.81,6.43-6.58,6.43s-6.57-2.77-6.57-6.43,2.79-6.43,6.57-6.43,6.58,2.77,6.58,6.43m-10.41,0c0,2.31,1.65,3.92,3.83,3.92s3.84-1.61,3.84-3.92-1.66-3.92-3.84-3.92-3.83,1.61-3.83,3.92"/>
  <path class="cls-1" d="m327.65,78.44v7.68h-2.68v-6.8c0-2.06-1.06-3.2-2.84-3.2s-3.17,1.14-3.17,3.23v6.77h-2.68v-6.8c0-2.06-1.06-3.2-2.85-3.2s-3.16,1.14-3.16,3.23v6.77h-2.68v-12.22h2.65v1.49c.98-1.44,2.5-1.81,3.75-1.81,1.86,0,3.38.83,4.22,2.18,1.06-1.75,2.95-2.18,4.46-2.18,2.91,0,4.96,2,4.96,4.86"/>
  <path class="cls-1" d="m344.31,80.01c0,3.74-2.69,6.43-6.11,6.43-1.74,0-2.99-.7-3.83-1.77v6.56h-2.67v-17.32h2.67v1.45c.84-1.07,2.09-1.77,3.83-1.77,3.42,0,6.11,2.69,6.11,6.43m-10.12,0c0,2.23,1.48,3.92,3.69,3.92s3.69-1.77,3.69-3.92-1.39-3.92-3.69-3.92-3.69,1.68-3.69,3.92"/>
  <path class="cls-1" d="m359.35,86.12h-2.67v-1.47c-.84,1.08-2.11,1.79-3.84,1.79-3.42,0-6.11-2.69-6.11-6.43s2.69-6.43,6.11-6.43c1.73,0,3,.71,3.84,1.8v-1.48h2.67v12.22Zm-9.87-6.11c0,2.14,1.39,3.92,3.69,3.92s3.69-1.68,3.69-3.92-1.48-3.92-3.69-3.92-3.69,1.77-3.69,3.92"/>
  <path class="cls-1" d="m374.9,78.44v7.68h-2.68v-6.8c0-2.06-1.06-3.2-2.84-3.2s-3.16,1.14-3.16,3.23v6.77h-2.68v-12.22h2.65v1.49c.98-1.44,2.5-1.81,3.75-1.81,2.91,0,4.96,2,4.96,4.86"/>
  <polygon class="cls-1" points="380.69 91.3 377.73 91.3 382.1 83.61 376.68 73.9 379.68 73.9 383.61 80.92 387.4 73.9 390.33 73.9 380.69 91.3"/>
  <path class="cls-3" d="m394.3,84.2c0,1.2-1.03,2.24-2.22,2.24s-2.23-1.05-2.23-2.24,1.05-2.22,2.23-2.22,2.22,1.02,2.22,2.22"/>
  <path class="cls-5" d="m316.69,20.98c-.1.45-.15.79-.18,1.04-.02.25-.04,1.14-.04,2.68v9.36c0,.6-.03,1.12-.1,1.54-.06.42-.2.78-.42,1.08-.21.3-.54.56-.99.76-.44.21-.87.3-1.26.29-.73,0-1.17-.23-1.32-.68-.15-.45-.22-.89-.21-1.32,0-.43.02-.79.04-1.1l.1-2.43.17-3.6.1-3.41c.01-.3.02-.51.02-.64-.06-.49-.17-.74-.31-.74-.05.02-.14.08-.29.2-.14.12-.72.38-1.74.76-1.02.39-1.78.56-2.29.51-.99-.06-1.74-.54-2.27-1.43-.53-.89-.8-1.58-.8-2.07s.02-.78.07-.86c.08-.13,1.21-.44,3.38-.93s4.07-1.15,5.67-1.97c1.6-.82,2.61-1.37,3.03-1.66l1.22-.88c.29-.21.52-.3.69-.29.24.03.41.16.52.37.11.21.17.45.17.7-.02.62-.15,1.15-.4,1.58-.25.44-.53.83-.83,1.18l-1.05,1.14c-.16.17-.38.44-.67.79m-8.58-7.7c-.03-.22,0-.4.08-.54.09-.14.41-.22.98-.26.56-.04,1.5-.21,2.81-.51,1.31-.3,2.34-.63,3.1-.98.76-.35,1.48-.71,2.17-1.08.69-.37,1.16-.56,1.39-.56.33.03.56.16.67.39.11.23.17.44.18.64,0,.2-.14.5-.44.89-.84,1.07-2.17,2.14-3.99,3.24-1.82,1.1-3.29,1.6-4.42,1.53-.81-.03-1.42-.32-1.82-.87-.41-.55-.64-1.18-.7-1.89m9.67,20.63c.03-.26.07-.48.13-.67.06-.19.23-.48.51-.86l1.45-2,.91-1.43c.13-.21.32-.39.57-.57.25-.18.52-.06.79.36.14.24.23.58.27,1.01.04.44.06.89.07,1.36,0,.47-.05,1.01-.18,1.63-.16.71-.44,1.42-.83,2.11-.4.69-.99,1.04-1.79,1.04-.43.02-.81-.11-1.13-.39-.33-.28-.53-.53-.61-.75-.08-.22-.14-.5-.17-.83m16.15-7.7c.71.41,1.16.79,1.33,1.13.17.34.27.63.27.86s-.09.45-.3.66c-.21.21-.5.43-.88.67l-1.14.71-.55.36.36.12c1.05.37,1.73.52,2.05.45.19-.03.57-.33,1.14-.9.57-.57,1.06-1.17,1.45-1.79l.74-1.17c.3-.49.64-.74,1.02-.76.27,0,.64.14,1.12.42.48.28.71.74.71,1.39-.01.27-.12.57-.3.9-.18.33-.7.73-1.56,1.19l-1.02.55-.71.43c-.37.22-.55.35-.55.37s.18.04.52.06l1.43.12c.59.06,1.64.09,3.14.08,1.51,0,2.79-.11,3.85-.3,1.06-.19,1.95-.41,2.68-.65.73-.25,1.12-.37,1.17-.37.21.02.31.13.32.33,0,.21-.03.42-.11.64-.33.89-.86,1.74-1.57,2.55-.71.81-1.62,1.63-2.7,2.47-1.09.83-2.24,1.26-3.47,1.27-1.33.03-2.97-.46-4.91-1.46-1.94-1.01-3.18-1.69-3.74-2.04l-3.62-2.14-1.24-.62-1.45-.67c-.8-.35-1.34-.48-1.62-.38l-.6.22c-.14.06-.37.09-.67.08-.3,0-.51-.13-.62-.37-.11-.24-.17-.41-.18-.51,0-.1,0-.2.03-.3.03-.24.2-.64.49-1.21.29-.57.54-1,.75-1.27.21-.28.56-.43,1.07-.44.14,0,.29.03.45.08.16.06.44.35.85.89.4.54.94.96,1.61,1.26l.88.4c.38.19.68.28.89.26.21-.02.48-.28.81-.79.32-.51.54-.9.65-1.17l.31-.83.6-.62.5-.17h-.64l-2.67.05-2.79.14c-1.43.08-2.36.14-2.8.19-.44.05-1.01.17-1.72.37-.71.2-1.2.28-1.46.25-.7-.06-1.04-.35-1.02-.86,0-.24.08-.5.24-.79.16-.29.43-.55.82-.8.39-.25.78-.39,1.18-.42.16,0,.47.04.93.11.46.07.92.11,1.38.11.25.02,1.49-.02,3.72-.12,2.22-.09,4.42-.14,6.58-.14,3.48.02,5.55.08,6.22.18.67.1,1,.39,1,.85-.02.62-.44.92-1.26.91-.14,0-.5-.01-1.06-.04-.57-.02-2.04-.04-4.42-.06-.81,0-1.45.02-1.93.07m-6.29-10.51c.14-.25.24-.46.29-.62.05-.16.08-.34.08-.55,0-.21-.02-.35-.08-.44-.06-.09-.21-.14-.43-.15-.1,0-1.22.13-3.36.38l-1.71.38c-.99.22-1.47-.02-1.45-.74,0-.29.09-.62.27-1,.18-.38.56-.75,1.14-1.1.58-.35,1.09-.53,1.54-.55.13,0,.5.11,1.13.32.63.21,1.37.31,2.23.3.49,0,.8-.07.92-.2.12-.14.19-.3.2-.5.02-.2.02-.32.02-.37l-.1-1s-.02-.15,0-.36c.02-.21.12-.46.31-.77.19-.31.74-.47,1.64-.49.75,0,1.35.13,1.82.38.47.26.79.52.95.8.17.28.28.65.33,1.12.05.47.13.75.21.86.09.1.21.17.36.2.15.03.5.05,1.04.07l1.52.05,2.43.02c1.81.03,2.87.16,3.19.39.32.23.48.52.48.87-.02.79-.74,1.15-2.17,1.07l-2.12-.09-2.38-.05c-1.49-.01-2.32.02-2.49.11-.17.09-.27.19-.32.3-.05.11-.1.29-.14.54-.05.25-.06.41-.05.49.02.19.08.32.19.39.11.07.56.12,1.35.14.79.02,1.45.07,1.99.15.54.08.88.11,1.02.1.29,0,.67-.07,1.14-.23.48-.15.83-.23,1.05-.23.25.02.52.11.8.29.28.18.51.45.7.81.19.37.29.74.31,1.12.02.38-.04,1.04-.17,1.98-.21,1.32-.36,2.19-.45,2.62-.1.43-.4.77-.9,1.01-.51.25-1.02.26-1.55.04l-.83-.33c-.38-.14-.89-.22-1.53-.24l-2.62.07-3.74.1c-3,.08-4.89.21-5.65.4-.76.19-1.22.28-1.38.26-.41-.03-.73-.2-.94-.5-.21-.3-.34-.65-.37-1.05l-.19-1.69s-.08-.4-.2-1.2c-.12-.8-.17-1.36-.16-1.68.02-.45.11-.81.27-1.11.17-.29.42-.54.76-.75.34-.21.7-.31,1.08-.31.24.02.58.11,1.01.29.44.18.78.25,1.04.24,1.16,0,1.83-.02,2-.07.18-.05.39-.14.64-.29m-1.86,5.24c.73,0,1.17-.08,1.32-.25.15-.17.23-.48.25-.94.02-.46,0-.77-.05-.93-.14-.36-.5-.55-1.07-.55-.98.03-1.55.16-1.7.38-.15.22-.23.43-.24.61,0,.18.02.42.08.7.03.25.12.48.25.69.14.21.52.3,1.15.29m4.29-.88c.08.51.38.76.91.76.03.02.25,0,.67-.05.41-.05.7-.13.86-.25.16-.12.23-.37.23-.76,0-.39,0-.6,0-.64,0-.04.01-.08.01-.11-.03-.26-.14-.44-.33-.56-.19-.12-.62-.18-1.29-.18-.38.02-.64.09-.79.21-.14.13-.23.3-.26.54-.03.23-.04.45-.03.66,0,.21.02.33.03.38m5.34-.07c0,.27.06.47.19.61.13.14.45.2.95.18.7,0,1.12-.07,1.26-.2.14-.14.25-.32.31-.56.06-.24.1-.5.11-.77,0-.28-.04-.49-.15-.63-.17-.18-.56-.27-1.16-.3-.6-.02-.97.04-1.13.18-.22.19-.35.49-.37.88-.02.4-.03.61-.01.62"/>
  <path class="cls-5" d="m357.97,32.37l.21-4.36c.12-2.67.2-4.92.23-6.74.03-1.82.07-2.98.12-3.49.05-.51.06-.88.05-1.11-.03-.27-.07-.41-.13-.43-.05-.02-.12,0-.2.08-.08.07-.23.15-.44.25l-.54.25c-.76.35-1.54.52-2.34.52-1.7.02-2.89-.64-3.58-1.97-.69-1.33-1.02-2.26-1.01-2.79,0-.28.1-.45.29-.5.2-.05.43-.08.71-.09.28,0,1.14-.07,2.58-.19,1.44-.12,3.19-.46,5.25-1.04,2.06-.58,3.62-1.15,4.7-1.73,1.07-.58,1.73-.87,1.96-.89.31,0,.53.15.67.44.13.29.2.58.21.88,0,.29-.03.56-.1.81-.17.58-.47,1.06-.88,1.44-.41.38-.97.81-1.68,1.3-.71.49-1.08.78-1.11.86-.03.08-.05.22-.05.42v.65l-.07,2.15-.03,5.28-.02,5.24-.05,3.76-.09,2.4c-.05.9-.12,1.54-.22,1.9-.1.37-.34.72-.73,1.07-.38.34-.8.58-1.26.72-.46.14-.86.18-1.2.11-.51-.08-.87-.28-1.06-.6-.2-.32-.3-.73-.3-1.23,0-.5,0-.78.01-.85l.09-2.56Zm7.81-18.28c.36-.15.62-.23.8-.24.17,0,.47.04.91.15.44.11.9.17,1.38.19.28.02,1.27-.04,2.96-.17,1.69-.13,3.99-.15,6.89-.05l3.53.12,2.9.08,2.92.15c3.74.2,5.76.38,6.07.54.3.16.46.32.46.49-.02.07-.05.17-.09.3l-.54,1.23c-.34.62-.92,1.25-1.72,1.88-.8.63-1.51.94-2.12.93-.14,0-.37-.03-.68-.1-.31-.07-1.62-.55-3.93-1.44-2.31-.89-5.56-1.34-9.75-1.34-4.29.02-7.44.51-9.47,1.48l-.93.45c-.94.45-1.56.45-1.86,0-.3-.45-.46-.85-.47-1.2,0-.35.08-.73.27-1.13.33-.72.7-1.22,1.12-1.52.42-.29.87-.55,1.36-.79m16.79,12.98c.26,0,.48-.02.65-.05.17-.04.44-.13.8-.28.36-.15.65-.23.86-.23.28.02.66.14,1.13.38.48.24.82.6,1.03,1.1.21.5.32.9.33,1.18,0,.28-.05.72-.17,1.3-.11.43-.21.97-.3,1.6-.09.64-.16,1.29-.21,1.96-.05.67-.11,1.29-.19,1.87-.08.57-.44,1.05-1.09,1.41-.65.37-1.35.37-2.09,0l-.77-.38c-.55-.25-1.11-.41-1.68-.49-.58-.07-1.42-.11-2.52-.11-2.09.02-3.69.06-4.79.12-1.11.07-2.05.29-2.83.68l-.77.38c-.22.12-.66.17-1.32.16-.66-.01-1.1-.32-1.32-.91-.22-.6-.34-1.26-.37-1.98-.03-.72-.07-1.44-.11-2.17-.04-.73-.13-1.5-.28-2.34-.15-.83-.21-1.38-.2-1.65.01-.62.26-1.14.75-1.57.48-.43,1.04-.56,1.68-.41l.72.18c.36.1.72.15,1.09.16.37,0,1.05-.03,2.06-.1,1.01-.08,2.05-.12,3.15-.14,1.67,0,3.08.05,4.23.15l1.68.15.86.03Zm-11.62-4.68l.44.05.65.07h.91l2.03-.07c1.36-.05,3.16-.03,5.42.07,2.26.1,3.64.27,4.14.5s.75.51.76.84c0,.32-.03.55-.11.69-.22.37-.69.56-1.4.58-.27.02-1.05-.05-2.35-.2-1.3-.15-3.2-.23-5.69-.25-1.78,0-2.95.06-3.51.19-.56.12-1.12.28-1.68.46-.56.18-.91.27-1.05.25-.26-.02-.49-.13-.68-.34-.19-.21-.29-.45-.29-.73,0-.27.07-.55.22-.81.14-.25.41-.56.82-.91.4-.36.86-.49,1.36-.39m.79-4.21c.9.27,1.54.39,1.89.38l1.64-.02,2.43.1,2.78.05c1.78.03,2.79.17,3.04.41.25.24.38.46.38.66,0,.2-.05.39-.18.55-.28.39-.78.58-1.5.6-.34.02-1.39-.03-3.12-.15-1.74-.12-3.34-.16-4.8-.13-1.31.05-2.28.17-2.92.35-.64.18-1.04.27-1.19.25-.33-.02-.56-.13-.7-.35-.14-.22-.21-.42-.22-.6,0-.18.07-.39.22-.62.12-.18.39-.43.79-.75.41-.32.89-.56,1.45-.73m.58,15.48l1.38-.08c1.09-.05,2.11-.07,3.06-.07.11.02,1.49.05,4.14.1.61.02,1.02-.08,1.24-.29.22-.21.38-.48.49-.83.11-.34.17-.7.18-1.08,0-.38,0-.69-.04-.94-.06-.45-.2-.72-.41-.81-.21-.09-.89-.19-2.03-.3-1.15-.11-2.45-.16-3.92-.16-1.07.02-2.24.08-3.48.2-1.25.12-1.96.27-2.13.46-.17.19-.25.52-.23.99,0,.42.04.9.13,1.44.08.54.25.91.5,1.1.25.19.62.28,1.12.26m-.98-23.14c0-.32.12-.7.35-1.17.23-.46.58-.81,1.04-1.07.46-.25.96-.38,1.51-.4.47,0,.9.13,1.29.39.39.26.97.7,1.73,1.33.76.62,1.62,1.1,2.58,1.41.96.32,1.44.62,1.44.9-.02.08-.07.21-.16.38-.09.17-.32.35-.67.54-.35.19-1.22.29-2.61.29-1.23.02-2.63-.14-4.18-.45-1.56-.32-2.33-1.04-2.32-2.15"/>
  <polygon class="cls-5" points="102.87 9.75 121.62 9.75 121.62 15.15 109.53 15.15 109.53 21.28 120.83 21.28 120.83 26.68 109.53 26.68 109.53 37.85 102.87 37.85 102.87 9.75"/>
  <rect class="cls-5" x="130.37" y="9.75" width="6.66" height="28.11"/>
  <path class="cls-5" d="m146.48,10.12c2.65-.4,6.03-.62,9.54-.62,5.9,0,9.69.89,12.67,3.04,3.08,2.18,5.11,5.65,5.11,10.47,0,5.3-2.11,8.92-4.88,11.22-3.29,2.68-8.38,3.94-14.35,3.94-3.82,0-6.37-.21-8.09-.45V10.12Zm6.66,22.76c.63.11,1.67.12,2.58.12,6.72.07,10.98-3.29,10.98-9.65.02-6.12-4.02-8.76-10.12-8.76-1.71,0-2.81.15-3.44.28v18.01Z"/>
  <path class="cls-5" d="m188.62,9.75v15.46c0,5.07,2.06,7.95,5.84,7.95s5.94-2.75,5.94-7.95v-15.46h6.66v15.26c0,9.15-4.9,13.35-12.89,13.35-7.48,0-12.21-3.9-12.21-13.47v-15.13h6.66Z"/>
  <path class="cls-5" d="m239.41,36.96c-1.25.63-4.27,1.39-8.13,1.39-10.56,0-16.06-6.16-16.06-14.16,0-9.27,7.18-14.94,16.62-14.94,3.73,0,6.63.73,7.91,1.42l-1.42,5.2c-1.46-.63-3.62-1.22-6.23-1.22-5.58,0-9.86,3.15-9.86,9.15,0,5.26,3.55,9.09,9.93,9.09,2.28,0,4.72-.44,6.16-1.07l1.08,5.15Z"/>
  <rect class="cls-5" x="247.71" y="9.75" width="6.66" height="28.11"/>
  <path class="cls-5" d="m271.02,30.4l-2.2,7.46h-7.01l9.33-28.11h8.93l9.78,28.11h-7.37l-2.45-7.46h-9.01Zm7.92-4.93l-1.99-5.96c-.55-1.64-1.09-3.52-1.57-5.09h-.08c-.45,1.58-.87,3.47-1.37,5.1l-1.87,5.95h6.88Z"/>
  <line class="cls-6" x1="103.03" y1="52.85" x2="394.3" y2="52.85"/>
  <g>
    <path class="cls-4" d="m47.09,49.44s-8.53-7.63-13.79-16.48c-2.46-4.14-3.96-8.75-3.98-12.61-.02-7.07,4.67-11.82,17.65-11.82,15.02,0,18.33,4.18,18.24,11.93-.04,3.81-.82,8.61-3.32,12.73-5.37,8.83-14.81,16.25-14.81,16.25m-12.12-25.83c.29,6.25,8.36,15.82,11.94,16.07,6.28.44,12.35-12.15,12.5-16.19.14-3.43-3-7.98-12.34-7.98s-12.24,5.13-12.11,8.09"/>
    <path class="cls-7" d="m47.09,49.44s-8.53-7.63-13.79-16.48c-2.46-4.14-3.96-8.75-3.98-12.61-.02-7.07,4.67-11.82,17.65-11.82,15.02,0,18.33,4.18,18.24,11.93-.04,3.81-.82,8.61-3.32,12.73-5.37,8.83-14.81,16.25-14.81,16.25Zm-12.12-25.83c.29,6.25,8.36,15.82,11.94,16.07,6.28.44,12.35-12.15,12.5-16.19.14-3.43-3-7.98-12.34-7.98s-12.24,5.13-12.11,8.09Z"/>
    <path class="cls-4" d="m47.19,49.87s-10.12,6.27-20.12,7.73c-4.69.68-9.31.67-12.77-.85-6.34-2.77-8.74-9.07-3.6-21.3,5.94-14.15,11-15.62,17.9-12.47,3.4,1.55,6.81,4.75,9.51,8.74,5.78,8.55,9.08,18.15,9.08,18.15m-28.61,2.06c5.71,2.2,17.47-1.62,19.11-4.9,2.88-5.74-6-16.44-9.54-18.18-3.02-1.49-8.33-.33-12.03,8.47-3.67,8.73-.25,13.56,2.46,14.61"/>
    <path class="cls-7" d="m47.19,49.87s-10.12,6.27-20.12,7.73c-4.69.68-9.31.67-12.77-.85-6.34-2.77-8.74-9.07-3.6-21.3,5.94-14.15,11-15.62,17.9-12.47,3.4,1.55,6.81,4.75,9.51,8.74,5.78,8.55,9.08,18.15,9.08,18.15Zm-28.61,2.06c5.71,2.2,17.47-1.62,19.11-4.9,2.88-5.74-6-16.44-9.54-18.18-3.02-1.49-8.33-.33-12.03,8.47-3.67,8.73-.25,13.56,2.46,14.61Z"/>
    <path class="cls-4" d="m47.09,49.44s3.18,13.19.58,23.2c-1.22,4.69-3.04,9.05-5.75,11.73-4.96,4.9-11.55,4.71-20.52-4.92-10.38-11.14-9.72-16.48-4.19-21.77,2.72-2.6,7.34-4.79,11.98-5.78,9.93-2.12,17.91-2.45,17.91-2.45m-7.4,29.07c4.21-4.53,5.37-17.13,3.07-19.96-4.02-4.96-17.09-.76-20.04,1.91-2.51,2.27-3.55,7.74,2.9,14.67,6.4,6.87,12.07,5.53,14.07,3.39"/>
    <path class="cls-7" d="m47.09,49.44s3.18,13.19.58,23.2c-1.22,4.69-3.04,9.05-5.75,11.73-4.96,4.9-11.55,4.71-20.52-4.92-10.38-11.14-9.72-16.48-4.19-21.77,2.72-2.6,7.34-4.79,11.98-5.78,9.93-2.12,17.91-2.45,17.91-2.45Zm-7.4,29.07c4.21-4.53,5.37-17.13,3.07-19.96-4.02-4.96-17.09-.76-20.04,1.91-2.51,2.27-3.55,7.74,2.9,14.67,6.4,6.87,12.07,5.53,14.07,3.39Z"/>
    <path class="cls-4" d="m47.09,49.44c.58.57,11.45.58,20.98,4.05,4.46,1.62,8.62,3.47,11,6.46,4.36,5.47,3.65,12.19-6.42,20.59-11.65,9.73-16.8,8.62-21.49,2.55-2.32-2.98-3.54-7.54-4.13-12.35-.19-1.5-.29-3.02-.35-4.52-.32-8.77.41-16.77.41-16.77m26.11,12.32c-4.06-4.67-16.22-6.86-19.15-4.74-5.14,3.72-2.1,17.42.26,20.65,2.01,2.75,7.24,4.25,14.48-1.8,7.19-6,6.34-11.9,4.41-14.11"/>
    <path class="cls-7" d="m47.09,49.44c.58.57,11.45.58,20.98,4.05,4.46,1.62,8.62,3.47,11,6.46,4.36,5.47,3.65,12.19-6.42,20.59-11.65,9.73-16.8,8.62-21.49,2.55-2.32-2.98-3.54-7.54-4.13-12.35-.19-1.5-.29-3.02-.35-4.52-.32-8.77.41-16.77.41-16.77Zm26.11,12.32c-4.06-4.67-16.22-6.86-19.15-4.74-5.14,3.72-2.1,17.42.26,20.65,2.01,2.75,7.24,4.25,14.48-1.8,7.19-6,6.34-11.9,4.41-14.11Z"/>
    <path class="cls-4" d="m47.09,49.44s3.74-9.38,9.74-17.72c2.81-3.91,6.5-7.02,9.98-8.49,6.37-2.69,12.43-.03,17.34,12.3,5.68,14.27,3.15,18.99-3.88,21.84-3.46,1.4-8.06,1.28-12.72.46-9.99-1.76-20.46-8.37-20.46-8.37m19.71-19.93c-5.53,2.63-11.12,13.92-9.99,17.42,1.97,6.13,15.63,7.13,19.33,5.76,3.15-1.17,6.07-5.87,2.54-14.74-3.5-8.8-9.25-9.69-11.88-8.44"/>
    <path class="cls-7" d="m47.09,49.44s3.74-9.38,9.74-17.72c2.81-3.91,6.5-7.02,9.98-8.49,6.37-2.69,12.43-.03,17.34,12.3,5.68,14.27,3.15,18.99-3.88,21.84-3.46,1.4-8.06,1.28-12.72.46-9.99-1.76-20.46-8.37-20.46-8.37Zm19.71-19.93c-5.53,2.63-11.12,13.92-9.99,17.42,1.97,6.13,15.63,7.13,19.33,5.76,3.15-1.17,6.07-5.87,2.54-14.74-3.5-8.8-9.25-9.69-11.88-8.44Z"/>
    <path class="cls-2" d="m51.52,49.44c0,2.35-1.9,4.25-4.25,4.25s-4.25-1.9-4.25-4.25,1.9-4.25,4.25-4.25,4.25,1.9,4.25,4.25"/>
    <path class="cls-8" d="m51.52,49.44c0,2.35-1.9,4.25-4.25,4.25s-4.25-1.9-4.25-4.25,1.9-4.25,4.25-4.25,4.25,1.9,4.25,4.25Z"/>
  </g>
</svg>