<svg id="Layer_1" data-name="Layer 1" xmlns="http://www.w3.org/2000/svg" viewBox="0 0 90.71 73.7"><defs><style>.cls-1{fill:#ff8200;}.cls-2{fill:#5cb8b2;}</style></defs><path class="cls-1" d="M29,27.12h0a1.6,1.6,0,0,0,.62,1.26L44.22,40.22a1.66,1.66,0,0,0,2.09,0L60.91,28.4a1.66,1.66,0,0,0,.21-2.32,1.41,1.41,0,0,0-.25-.24L46.31,14a1.67,1.67,0,0,0-2.09,0L29.64,25.83A1.63,1.63,0,0,0,29,27.12Zm4.28,0,12-9.69,12,9.69-12,9.69Z"/><path class="cls-1" d="M61.76,34.74l-.18.15L46,47.9l-15.62-13h0a1.66,1.66,0,0,0-2.11,2.54L44.9,51.32a1.64,1.64,0,0,0,2.12,0L63.68,37.44a1.64,1.64,0,0,0,.67-1.08,1.59,1.59,0,0,0-.28-1.23A1.65,1.65,0,0,0,61.76,34.74Z"/><path class="cls-1" d="M64.29,46a1.66,1.66,0,0,0-2.71-1.42L46,57.63l-15.63-13a1.66,1.66,0,0,0-2.11,2.54L44.9,61.05a1.7,1.7,0,0,0,2.12,0L63.7,47.14A1.63,1.63,0,0,0,64.29,46Z"/><path class="cls-2" d="M59.83,17h0A1.66,1.66,0,0,0,61,16.51l9.68-9.69v4.35a1.66,1.66,0,0,0,3.32,0V2.79a1.66,1.66,0,0,0-1.63-1.65H64a1.66,1.66,0,1,0,0,3.31h4.35l-9.69,9.68a1.71,1.71,0,0,0-.5,1.17,1.68,1.68,0,0,0,.47,1.18A1.71,1.71,0,0,0,59.83,17Z"/><path class="cls-2" d="M18.35,12.79A1.65,1.65,0,0,0,20,11.14V6.79l9.7,9.69a1.64,1.64,0,0,0,1.1.43h.09A1.68,1.68,0,0,0,32,16.36a1.64,1.64,0,0,0,0-2.22L22.34,4.45h4.35a1.66,1.66,0,1,0,0-3.31H18.35a1.65,1.65,0,0,0-1.66,1.65v8.35A1.65,1.65,0,0,0,18.35,12.79Z"/><path class="cls-2" d="M72.37,60.91h0a1.65,1.65,0,0,0-1.65,1.65v4.35L61,57.22a1.63,1.63,0,0,0-1.19-.43,1.66,1.66,0,0,0-1.14,2.77l9.69,9.69H64a1.66,1.66,0,1,0,0,3.31h8.34a1.66,1.66,0,0,0,1.16-.47A1.69,1.69,0,0,0,74,70.91V62.56A1.65,1.65,0,0,0,72.37,60.91Z"/><path class="cls-2" d="M29.86,57.1,20,66.91V62.56a1.65,1.65,0,0,0-.48-1.17,1.7,1.7,0,0,0-1.17-.49,1.67,1.67,0,0,0-1.66,1.66v8.35a1.66,1.66,0,0,0,1.66,1.64h8.41a1.66,1.66,0,0,0,0-3.3H22.39l9.67-9.68a1.67,1.67,0,0,0,.12-2.33A1.65,1.65,0,0,0,29.86,57.1Z"/></svg>