<?xml version="1.0" encoding="UTF-8"?>
<svg id="Layer_1" data-name="Layer 1" xmlns="http://www.w3.org/2000/svg" viewBox="0 0 90.71 90.71">
  <defs>
    <style>
      .cls-1 {
        fill: #00263e;
      }

      .cls-2 {
        fill: #5cb8b2;
      }
    </style>
  </defs>
  <circle class="cls-2" cx="48.34" cy="45.35" r="42.37"/>
  <path class="cls-1" d="M71.81,4.89c-11.49,0-22.66,6.2-31.63,14.81-6.45,6.18-11.69,13.5-15.47,21.59l-7.73-4.2,6.16-7.2h3.09c1.12,0,2.02-.9,2.02-2.02,0-1.12-.9-2.02-2.02-2.02h-4.02c-.6-.04-1.18,.22-1.55,.69l-8.4,9.82c-.72,.86-.6,2.13,.25,2.85,.1,.08,.2,.15,.32,.22l10.32,5.59c-.58,1.55-1.09,3.13-1.52,4.74-.17,.69,.03,1.42,.54,1.93l12.56,12.6c.52,.51,1.26,.7,1.96,.51,1.56-.41,3.13-.9,4.7-1.48l5.59,10.29c.53,.98,1.76,1.34,2.74,.81,.13-.07,.25-.15,.35-.24l9.79-8.4c.45-.38,.72-.93,.73-1.52v-4.01c.03-1.12-.84-2.05-1.96-2.08s-2.05,.84-2.08,1.96c0,.04,0,.08,0,.12v3.06l-7.2,6.15-4.2-7.7c8.1-3.77,15.42-9.01,21.59-15.47,8.61-8.97,14.81-20.14,14.81-31.63,.15-2.59-.19-5.18-1.01-7.64-.2-.52-.61-.93-1.13-1.14-2.43-.96-5-.98-7.61-.98Zm0,4.04c1.75-.05,3.5,.12,5.21,.51,.38,1.71,.55,3.46,.51,5.21,0,10.02-5.58,20.37-13.7,28.82-7.82,8.15-17.93,14.4-27.09,17.05l-10.8-10.8c.97-3.26,2.25-6.42,3.82-9.44l13.29,13.29c.78,.79,2.06,.8,2.86,.02,.79-.78,.8-2.06,.02-2.86l-14.12-14.11c3.09-5.14,6.83-9.85,11.14-14.01,8.46-8.12,18.83-13.67,28.85-13.67Zm-9.06,10.92c-2.12,0-3.83,1.73-3.82,3.85s1.73,3.83,3.85,3.82c2.11,0,3.81-1.71,3.82-3.82,0-2.12-1.7-3.84-3.82-3.85,0,0-.02,0-.03,0ZM16.25,52.91c-.17,.02-.34,.06-.51,.13l-13.64,4.64c-1.06,.34-1.65,1.48-1.31,2.54,.34,1.06,1.48,1.65,2.54,1.31,.03,0,.06-.02,.09-.03l13.61-4.64c1.07-.32,1.68-1.44,1.37-2.51-.28-.94-1.18-1.54-2.16-1.44h0Zm7.58,7.45c-.46,.06-.88,.27-1.2,.6l-15.18,15.19c-.79,.78-.8,2.06-.02,2.86,.78,.79,2.06,.8,2.86,.02l15.22-15.22c.79-.78,.8-2.06,.02-2.86-.44-.45-1.07-.66-1.69-.58h0Zm7.73,7.64c-.9-.01-1.69,.57-1.96,1.42l-4.64,13.61c-.42,1.03,.07,2.21,1.1,2.64,1.03,.42,2.21-.07,2.64-1.1,.03-.08,.06-.16,.08-.24l4.64-13.61c.38-1.05-.15-2.21-1.2-2.59-.21-.08-.44-.12-.66-.12h0Z"/>
</svg>