<svg id="Layer_1" data-name="Layer 1" xmlns="http://www.w3.org/2000/svg" viewBox="0 0 90.71 73.7"><defs><style>.cls-1{fill:#5cb8b2;}.cls-2{fill:#f58020;}</style></defs><path class="cls-1" d="M56.05,30a1.8,1.8,0,0,1,0,2.56h0L42.91,45.73a1.93,1.93,0,0,1-1.24.52h-.31a2.19,2.19,0,0,1-.94-.52h0l-5.6-5.6a1.8,1.8,0,0,1,0-2.56h0a1.83,1.83,0,0,1,2.58,0h0l4.25,4.25L53.47,30A1.82,1.82,0,0,1,56,30Z"/><path class="cls-2" d="M72.44,12.67c-.52-.1-1.14-.1-1.66-.2-1.66-.21-3.22-.42-4.77-.73-6-1.35-11.72-4-18.15-8.5C45.79,1.89,45,1.89,43,3.24,34.48,9,26.81,12.05,18.72,12.57c-2.39.1-3.42,1.24-3.42,3.63v6c0,5.6-.11,11.31,0,17A25.23,25.23,0,0,0,16,45.34,28,28,0,0,0,23.8,58.72,54.69,54.69,0,0,0,44,71.27a5.92,5.92,0,0,0,1.25.2,3.94,3.94,0,0,0,1.55-.31c.42-.2.94-.41,1.45-.62,2.08-.93,4.15-1.87,6.23-2.9C61.24,64,66.32,59.86,70.05,54.78a24.24,24.24,0,0,0,5.19-13.59,29.29,29.29,0,0,0,.1-3.11V38l.1-9.44v-.52l0,0V15.79A3.12,3.12,0,0,0,72.44,12.67Zm-.62,12.08-.11-.05v3.74l-.1,9.23V38c0,1.14-.11,2.07-.11,3A21.35,21.35,0,0,1,67,52.6,42,42,0,0,1,52.73,64.36c-1.86.93-3.94,1.87-5.91,2.7-.41.2-.93.41-1.45.62h-.1c-7.78-2.91-14-6.74-18.88-11.72a24.67,24.67,0,0,1-6.84-11.72,25.1,25.1,0,0,1-.62-5.39v-23c8.71-.63,17-3.84,26.13-10.06.1,0,.21-.21.31-.21s.21.1.31.21a55.72,55.72,0,0,0,19.5,9q2.56.54,5.18.83c.52.1.94.1,1.46.21Z"/></svg>