<?xml version="1.0" encoding="UTF-8"?>
<svg id="Layer_1" data-name="Layer 1" xmlns="http://www.w3.org/2000/svg" xmlns:xlink="http://www.w3.org/1999/xlink" viewBox="0 0 116 48">
  <defs>
    <style>
      .cls-1 {
        clip-path: url(#clippath);
      }

      .cls-2 {
        fill: #99a9b2;
      }

      .cls-3 {
        fill: #8fa4ad;
      }

      .cls-4 {
        fill: #c4ced3;
      }

      .cls-5 {
        fill: #607e86;
      }

      .cls-6 {
        clip-path: url(#clippath-1);
      }

      .cls-7 {
        clip-path: url(#clippath-2);
      }
    </style>
    <clipPath id="clippath">
      <path class="cls-5" d="m130.11,10.21c1.08-.55,5.07-2.33,11.74-2.67,4.53-.22,9.4.27,14.49,1.45.56,2.98,3.25,21.32-12.15,32.46-2.46-1.54-16.43-11.19-14.07-31.24m11.69-4.08c-8.22.41-12.51,2.92-12.69,3.02l-.3.18-.04.35c-2.95,23.11,14.91,33.14,15.09,33.24l.38.2.36-.25c17.95-12.61,13.07-34.43,13.02-34.65l-.1-.42-.41-.1c-4.53-1.09-8.91-1.64-13.05-1.64-.76,0-1.51.02-2.25.06"/>
    </clipPath>
    <clipPath id="clippath-1">
      <path class="cls-3" d="m141.84,7.54c-6.67.33-10.65,2.11-11.74,2.67-2.37,20.05,11.6,29.7,14.07,31.24,15.4-11.14,12.71-29.48,12.15-32.46-4.28-1-8.41-1.5-12.32-1.5-.73,0-1.46.02-2.17.05"/>
    </clipPath>
    <clipPath id="clippath-2">
      <path class="cls-4" d="m143.86,42.92h0,0m0,0h0,0m0,0h0s0,0,0,0m-17.21-34.42c-.22,1.7-.32,3.32-.33,4.88v.34c.09,19.4,15.26,27.92,15.42,28.01l2.12,1.19c-.45-.26-18.01-10.31-15.09-33.23l.04-.35-2.12-1.19-.04.35Z"/>
    </clipPath>
  </defs>
  <path class="cls-2" d="m24.96,32.35c-.98.47-2.06.84-3.23,1.1-1.17.26-2.52.39-4.04.39s-2.99-.25-4.28-.75-2.4-1.2-3.32-2.1c-.93-.9-1.65-1.97-2.17-3.21-.52-1.25-.78-2.62-.78-4.13s.27-2.94.8-4.18c.54-1.24,1.27-2.3,2.21-3.17.93-.87,2.04-1.54,3.31-2.02,1.27-.47,2.65-.71,4.14-.71s2.96.22,4.24.67c1.28.45,2.31,1.03,3.09,1.76l-2.37,2.56c-.49-.54-1.18-1.01-2.06-1.39-.88-.38-1.84-.57-2.88-.57s-1.94.18-2.77.54c-.83.37-1.53.86-2.11,1.5-.58.64-1.03,1.38-1.35,2.23-.32.85-.48,1.78-.48,2.78s.16,1.98.48,2.85c.32.86.77,1.61,1.36,2.25.59.63,1.31,1.13,2.15,1.48.84.35,1.8.53,2.87.53,1.47,0,2.75-.23,3.84-.68v-4.9h-4.06v-2.83h7.38v10Z"/>
  <path class="cls-2" d="m29.13,14.07h6.84c1.25,0,2.51.16,3.79.49,1.27.33,2.42.87,3.43,1.62,1.02.76,1.84,1.75,2.48,2.97.63,1.22.95,2.75.95,4.56,0,1.69-.32,3.14-.95,4.36-.64,1.22-1.46,2.22-2.48,3-1.02.78-2.16,1.36-3.43,1.73-1.27.37-2.53.56-3.79.56h-6.84V14.07Zm6.29,16.29c.89,0,1.78-.1,2.67-.31.89-.21,1.69-.56,2.41-1.06.72-.5,1.3-1.18,1.76-2.03.45-.85.68-1.94.68-3.24,0-1.38-.23-2.51-.68-3.38-.45-.87-1.04-1.55-1.76-2.04-.72-.49-1.52-.83-2.41-1.01-.89-.18-1.78-.27-2.67-.27h-2.86v13.35h2.86Z"/>
  <path class="cls-2" d="m49.95,14.07h6.29c1.11,0,2.11.1,3,.3.89.2,1.65.53,2.29.98.64.46,1.13,1.04,1.47,1.75.34.71.52,1.56.52,2.56,0,1.07-.2,1.97-.6,2.7-.4.73-.94,1.31-1.62,1.76-.68.45-1.48.77-2.38.97-.91.2-1.87.3-2.89.3h-2.64v7.98h-3.43V14.07Zm5.83,8.42c.56,0,1.1-.04,1.61-.12.51-.08.96-.23,1.36-.44.4-.21.72-.49.95-.86.24-.36.35-.83.35-1.42s-.12-1.02-.35-1.38c-.24-.35-.55-.63-.94-.83-.39-.2-.84-.33-1.34-.39-.5-.06-1.01-.1-1.54-.1h-2.51v5.53h2.4Z"/>
  <path class="cls-2" d="m66.57,14.07h6.7c.91,0,1.79.1,2.64.29.85.19,1.61.5,2.28.94.66.44,1.19,1.01,1.59,1.72.4.71.6,1.57.6,2.59,0,1.4-.39,2.54-1.19,3.42-.79.88-1.87,1.48-3.23,1.79l5.15,8.55h-4.14l-4.47-8.17h-2.51v8.17h-3.43V14.07Zm6.24,8.31c.49,0,.98-.04,1.47-.11.49-.07.93-.21,1.32-.41.39-.2.71-.48.97-.86.25-.37.38-.85.38-1.43,0-.53-.12-.96-.35-1.29s-.54-.6-.9-.8c-.36-.2-.78-.34-1.24-.41-.46-.07-.91-.11-1.35-.11h-3.11v5.42h2.81Z"/>
  <path class="cls-4" d="m108.85,24c0,6.22-5.04,11.26-11.26,11.26s-11.26-5.04-11.26-11.26,5.04-11.26,11.26-11.26,11.26,5.04,11.26,11.26"/>
  <path class="cls-2" d="m96.5,30.17c-.48,0-.93-.22-1.23-.59l-.06-.08-3.43-4.88c-.49-.7-.32-1.66.38-2.15s1.66-.32,2.15.38l2.09,2.6,4.41-6.88c.44-.73,1.39-.96,2.12-.52.73.44.96,1.39.52,2.12l-5.61,9.24c-.26.43-.73.72-1.24.75-.03,0-.07,0-.1,0m-1.3-2.36s0,0,0,0h0Z"/>
  <g>
    <path class="cls-5" d="m130.11,10.21c1.08-.55,5.07-2.33,11.74-2.67,4.53-.22,9.4.27,14.49,1.45.56,2.98,3.25,21.32-12.15,32.46-2.46-1.54-16.43-11.19-14.07-31.24m11.69-4.08c-8.22.41-12.51,2.92-12.69,3.02l-.3.18-.04.35c-2.95,23.11,14.91,33.14,15.09,33.24l.38.2.36-.25c17.95-12.61,13.07-34.43,13.02-34.65l-.1-.42-.41-.1c-4.53-1.09-8.91-1.64-13.05-1.64-.76,0-1.51.02-2.25.06"/>
    <g class="cls-1">
      <rect class="cls-5" x="120.84" y="1.35" width="46.69" height="46.48" transform="translate(75.67 153.82) rotate(-71.75)"/>
    </g>
  </g>
  <g>
    <path class="cls-3" d="m141.84,7.54c-6.67.33-10.65,2.11-11.74,2.67-2.37,20.05,11.6,29.7,14.07,31.24,15.4-11.14,12.71-29.48,12.15-32.46-4.28-1-8.41-1.5-12.32-1.5-.73,0-1.46.02-2.17.05"/>
    <g class="cls-6">
      <rect class="cls-3" x="121.29" y="2.55" width="44.75" height="43.83" transform="translate(56.31 141.12) rotate(-62.84)"/>
    </g>
  </g>
  <g>
    <path class="cls-4" d="m143.86,42.92h0,0m0,0h0,0m0,0h0s0,0,0,0m-17.21-34.42c-.22,1.7-.32,3.32-.33,4.88v.34c.09,19.4,15.26,27.92,15.42,28.01l2.12,1.19c-.45-.26-18.01-10.31-15.09-33.23l.04-.35-2.12-1.19-.04.35Z"/>
    <g class="cls-7">
      <rect class="cls-4" x="120.69" y="6.16" width="28.31" height="38.74" transform="translate(-1 45.06) rotate(-18.9)"/>
    </g>
  </g>
</svg>