<?xml version="1.0" encoding="UTF-8"?><svg id="Layer_1" xmlns="http://www.w3.org/2000/svg" viewBox="0 0 209.3 88.74"><path d="m7.82,71.11c2.6,0,4.3,1.24,5.38,2.78l-1.92,1.08c-.7-1-1.96-1.78-3.46-1.78-2.64,0-4.6,2.02-4.6,4.82s1.96,4.84,4.6,4.84c1.36,0,2.56-.64,3.16-1.2v-2.08h-3.98v-2.06h6.32v5c-1.32,1.46-3.18,2.42-5.5,2.42-3.86,0-7-2.74-7-6.92s3.14-6.9,7-6.9Z" fill="#00263e"/><path d="m15.7,71.33h2.1v13.34h-2.1v-13.34Z" fill="#00263e"/><path d="m19.92,79.83c0-2.76,1.9-5.06,4.96-5.06s4.98,2.3,4.98,5.06-1.88,5.08-4.98,5.08-4.96-2.3-4.96-5.08Zm7.76,0c0-1.7-1-3.2-2.8-3.2s-2.78,1.5-2.78,3.2,1,3.22,2.78,3.22,2.8-1.5,2.8-3.22Z" fill="#00263e"/><path d="m31.98,71.33h2.1v5.02c.76-1.02,1.88-1.58,3.1-1.58,2.48,0,4.28,1.96,4.28,5.08s-1.82,5.06-4.28,5.06c-1.26,0-2.36-.6-3.1-1.56v1.32h-2.1v-13.34Zm4.58,11.72c1.68,0,2.74-1.32,2.74-3.2s-1.06-3.22-2.74-3.22c-.98,0-2.02.6-2.48,1.32v3.82c.46.72,1.5,1.28,2.48,1.28Z" fill="#00263e"/><path d="m49.5,83.64c-.72.82-1.84,1.28-3.12,1.28-1.58,0-3.36-1.06-3.36-3.2s1.78-3.14,3.36-3.14c1.3,0,2.42.42,3.12,1.24v-1.44c0-1.12-.92-1.8-2.26-1.8-1.08,0-2.02.4-2.86,1.22l-.86-1.46c1.12-1.06,2.52-1.56,4.06-1.56,2.14,0,4.02.9,4.02,3.5v6.4h-2.1v-1.04Zm0-2.62c-.48-.66-1.38-1-2.3-1-1.18,0-2.06.68-2.06,1.74s.88,1.72,2.06,1.72c.92,0,1.82-.34,2.3-1v-1.46Z" fill="#00263e"/><path d="m54.32,71.33h2.1v13.34h-2.1v-13.34Z" fill="#00263e"/><path d="m68.68,74.77c1.88,0,3.02.8,3.7,1.72l-1.38,1.28c-.54-.76-1.28-1.14-2.22-1.14-1.76,0-2.92,1.32-2.92,3.2s1.16,3.22,2.92,3.22c.94,0,1.68-.4,2.22-1.14l1.38,1.28c-.68.92-1.82,1.72-3.7,1.72-2.94,0-5-2.14-5-5.08s2.06-5.06,5-5.06Z" fill="#00263e"/><path d="m74.22,71.33h2.1v13.34h-2.1v-13.34Z" fill="#00263e"/><path d="m78.78,72.11c0-.72.6-1.3,1.3-1.3s1.3.58,1.3,1.3-.58,1.3-1.3,1.3-1.3-.58-1.3-1.3Zm.26,2.9h2.1v9.66h-2.1v-9.66Z" fill="#00263e"/><path d="m88.16,74.77c2.9,0,4.76,2.22,4.76,5.26v.5h-7.46c.16,1.46,1.26,2.66,3.08,2.66.94,0,2.06-.38,2.74-1.06l.96,1.38c-.96.92-2.38,1.4-3.92,1.4-2.9,0-5.06-2.02-5.06-5.08,0-2.8,2.04-5.06,4.9-5.06Zm-2.72,4.28h5.44c-.04-1.14-.82-2.56-2.72-2.56-1.8,0-2.62,1.38-2.72,2.56Z" fill="#00263e"/><path d="m101.52,78.63c0-1.5-.76-2-1.94-2-1.08,0-2,.64-2.48,1.3v6.74h-2.1v-9.66h2.1v1.32c.64-.76,1.88-1.56,3.4-1.56,2.08,0,3.12,1.12,3.12,3.1v6.8h-2.1v-6.04Z" fill="#00263e"/><path d="m106.76,82.44v-5.58h-1.6v-1.84h1.6v-2.64h2.1v2.64h1.96v1.84h-1.96v5.06c0,.66.32,1.14.92,1.14.4,0,.78-.16.94-.34l.5,1.58c-.38.36-1,.62-1.98.62-1.62,0-2.48-.88-2.48-2.48Z" fill="#00263e"/><path d="m122.26,74.77c1.88,0,3.02.8,3.7,1.72l-1.38,1.28c-.54-.76-1.28-1.14-2.22-1.14-1.76,0-2.92,1.32-2.92,3.2s1.16,3.22,2.92,3.22c.94,0,1.68-.4,2.22-1.14l1.38,1.28c-.68.92-1.82,1.72-3.7,1.72-2.94,0-5-2.14-5-5.08s2.06-5.06,5-5.06Z" fill="#00263e"/><path d="m132.1,74.77c2.9,0,4.76,2.22,4.76,5.26v.5h-7.46c.16,1.46,1.26,2.66,3.08,2.66.94,0,2.06-.38,2.74-1.06l.96,1.38c-.96.92-2.38,1.4-3.92,1.4-2.9,0-5.06-2.02-5.06-5.08,0-2.8,2.04-5.06,4.9-5.06Zm-2.72,4.28h5.44c-.04-1.14-.82-2.56-2.72-2.56-1.8,0-2.62,1.38-2.72,2.56Z" fill="#00263e"/><path d="m145.46,78.63c0-1.5-.76-2-1.94-2-1.08,0-2,.64-2.48,1.3v6.74h-2.1v-9.66h2.1v1.32c.64-.76,1.88-1.56,3.4-1.56,2.08,0,3.12,1.12,3.12,3.1v6.8h-2.1v-6.04Z" fill="#00263e"/><path d="m150.7,82.44v-5.58h-1.6v-1.84h1.6v-2.64h2.1v2.64h1.96v1.84h-1.96v5.06c0,.66.32,1.14.92,1.14.4,0,.78-.16.94-.34l.5,1.58c-.38.36-1,.62-1.98.62-1.62,0-2.48-.88-2.48-2.48Z" fill="#00263e"/><path d="m156.66,75.01h2.1v1.42c.72-.92,1.88-1.64,3.14-1.64v2.08c-.18-.04-.4-.06-.66-.06-.88,0-2.06.6-2.48,1.28v6.58h-2.1v-9.66Z" fill="#00263e"/><path d="m167.9,74.77c2.9,0,4.76,2.22,4.76,5.26v.5h-7.46c.16,1.46,1.26,2.66,3.08,2.66.94,0,2.06-.38,2.74-1.06l.96,1.38c-.96.92-2.38,1.4-3.92,1.4-2.9,0-5.06-2.02-5.06-5.08,0-2.8,2.04-5.06,4.9-5.06Zm-2.72,4.28h5.44c-.04-1.14-.82-2.56-2.72-2.56-1.8,0-2.62,1.38-2.72,2.56Z" fill="#00263e"/><path d="m174.86,81.9c.68.7,2.02,1.36,3.28,1.36s1.9-.46,1.9-1.18c0-.84-1.02-1.14-2.2-1.4-1.66-.36-3.64-.8-3.64-2.96,0-1.58,1.36-2.94,3.8-2.94,1.64,0,2.88.58,3.76,1.36l-.88,1.48c-.58-.66-1.66-1.16-2.86-1.16-1.1,0-1.8.4-1.8,1.08,0,.74.96,1,2.1,1.26,1.68.36,3.74.84,3.74,3.12,0,1.7-1.42,3-4.02,3-1.64,0-3.14-.52-4.14-1.5l.96-1.52Z" fill="#00263e"/><path d="m22.72,12.55H1.22v-8h32.06v6.33l-15.87,36.35H7.43L22.72,12.55Z" fill="#00263e"/></svg>