<svg xmlns="http://www.w3.org/2000/svg" viewBox="0 0 878.78 692.92"><g id="Australia"><circle cx="646.39" cy="634.47" r="6.5" fill="#5bb7b1"/><circle cx="502.39" cy="40.46" r="6.5" fill="#5bb7b1"/><circle cx="520.39" cy="40.46" r="6.5" fill="#5bb7b1"/><circle cx="538.39" cy="40.46" r="6.5" fill="#5bb7b1"/><circle cx="556.39" cy="40.46" r="6.5" fill="#5bb7b1"/><circle cx="574.39" cy="40.46" r="6.5" fill="#5bb7b1"/><circle cx="700.4" cy="58.46" r="6.5" fill="#5bb7b1"/><circle cx="682.4" cy="58.46" r="6.5" fill="#5bb7b1"/><circle cx="628.39" cy="58.46" r="6.5" fill="#5bb7b1"/><circle cx="502.39" cy="58.46" r="6.5" fill="#5bb7b1"/><circle cx="520.39" cy="58.46" r="6.5" fill="#5bb7b1"/><circle cx="538.39" cy="58.46" r="6.5" fill="#5bb7b1"/><circle cx="556.39" cy="58.46" r="6.5" fill="#5bb7b1"/><circle cx="574.39" cy="58.46" r="6.5" fill="#5bb7b1"/><circle cx="484.39" cy="58.46" r="6.5" fill="#5bb7b1"/><circle cx="646.39" cy="616.47" r="6.5" fill="#5bb7b1"/><circle cx="628.39" cy="616.47" r="6.5" fill="#5bb7b1"/><circle cx="466.39" cy="616.47" r="6.5" fill="#5bb7b1"/><circle cx="448.39" cy="616.47" r="6.5" fill="#5bb7b1"/><circle cx="376.39" cy="130.46" r="6.5" fill="#5bb7b1"/><circle cx="394.39" cy="130.46" r="6.5" fill="#5bb7b1"/><circle cx="412.39" cy="130.46" r="6.5" fill="#5bb7b1"/><circle cx="592.39" cy="130.46" r="6.5" fill="#5bb7b1"/><circle cx="610.39" cy="130.46" r="6.5" fill="#5bb7b1"/><circle cx="664.39" cy="130.46" r="6.5" fill="#5bb7b1"/><circle cx="646.39" cy="130.46" r="6.5" fill="#5bb7b1"/><circle cx="700.4" cy="130.46" r="6.5" fill="#5bb7b1"/><circle cx="682.4" cy="130.46" r="6.5" fill="#5bb7b1"/><circle cx="718.4" cy="130.46" r="6.5" fill="#5bb7b1"/><circle cx="736.4" cy="130.46" r="6.5" fill="#5bb7b1"/><circle cx="628.39" cy="130.46" r="6.5" fill="#5bb7b1"/><circle cx="502.39" cy="130.46" r="6.5" fill="#5bb7b1"/><circle cx="520.39" cy="130.46" r="6.5" fill="#5bb7b1"/><circle cx="538.39" cy="130.46" r="6.5" fill="#5bb7b1"/><circle cx="556.39" cy="130.46" r="6.5" fill="#5bb7b1"/><circle cx="574.39" cy="130.46" r="6.5" fill="#5bb7b1"/><circle cx="484.39" cy="130.46" r="6.5" fill="#5bb7b1"/><circle cx="466.39" cy="130.46" r="6.5" fill="#5bb7b1"/><circle cx="448.39" cy="130.46" r="6.5" fill="#5bb7b1"/><circle cx="430.39" cy="130.46" r="6.5" fill="#5bb7b1"/><circle cx="376.39" cy="112.46" r="6.5" fill="#5bb7b1"/><circle cx="394.39" cy="112.46" r="6.5" fill="#5bb7b1"/><circle cx="412.39" cy="112.46" r="6.5" fill="#5bb7b1"/><circle cx="592.39" cy="112.46" r="6.5" fill="#5bb7b1"/><circle cx="610.39" cy="112.46" r="6.5" fill="#5bb7b1"/><circle cx="664.39" cy="112.46" r="6.5" fill="#5bb7b1"/><circle cx="646.39" cy="112.46" r="6.5" fill="#5bb7b1"/><circle cx="718.4" cy="112.46" r="6.5" fill="#5bb7b1"/><circle cx="628.39" cy="112.46" r="6.5" fill="#5bb7b1"/><circle cx="502.39" cy="112.46" r="6.5" fill="#5bb7b1"/><circle cx="520.39" cy="112.46" r="6.5" fill="#5bb7b1"/><circle cx="538.39" cy="112.46" r="6.5" fill="#5bb7b1"/><circle cx="556.39" cy="112.46" r="6.5" fill="#5bb7b1"/><circle cx="574.39" cy="112.46" r="6.5" fill="#5bb7b1"/><circle cx="484.39" cy="112.46" r="6.5" fill="#5bb7b1"/><circle cx="466.39" cy="112.46" r="6.5" fill="#5bb7b1"/><circle cx="448.39" cy="112.46" r="6.5" fill="#5bb7b1"/><circle cx="430.39" cy="112.46" r="6.5" fill="#5bb7b1"/><circle cx="394.39" cy="94.46" r="6.5" fill="#5bb7b1"/><circle cx="412.39" cy="94.46" r="6.5" fill="#5bb7b1"/><circle cx="592.39" cy="94.46" r="6.5" fill="#5bb7b1"/><circle cx="610.39" cy="94.46" r="6.5" fill="#5bb7b1"/><circle cx="646.39" cy="94.46" r="6.5" fill="#5bb7b1"/><circle cx="718.4" cy="94.46" r="6.5" fill="#5bb7b1"/><circle cx="628.39" cy="94.46" r="6.5" fill="#5bb7b1"/><circle cx="502.39" cy="94.46" r="6.5" fill="#5bb7b1"/><circle cx="520.39" cy="94.46" r="6.5" fill="#5bb7b1"/><circle cx="538.39" cy="94.46" r="6.5" fill="#5bb7b1"/><circle cx="556.39" cy="94.46" r="6.5" fill="#5bb7b1"/><circle cx="574.39" cy="94.46" r="6.5" fill="#5bb7b1"/><circle cx="484.39" cy="94.46" r="6.5" fill="#5bb7b1"/><circle cx="466.39" cy="94.46" r="6.5" fill="#5bb7b1"/><circle cx="448.39" cy="94.46" r="6.5" fill="#5bb7b1"/><circle cx="430.39" cy="94.46" r="6.5" fill="#5bb7b1"/><circle cx="412.39" cy="76.46" r="6.5" fill="#5bb7b1"/><circle cx="610.39" cy="76.46" r="6.5" fill="#5bb7b1"/><circle cx="628.39" cy="76.46" r="6.5" fill="#5bb7b1"/><circle cx="502.39" cy="76.46" r="6.5" fill="#5bb7b1"/><circle cx="520.39" cy="76.46" r="6.5" fill="#5bb7b1"/><circle cx="538.39" cy="76.46" r="6.5" fill="#5bb7b1"/><circle cx="556.39" cy="76.46" r="6.5" fill="#5bb7b1"/><circle cx="574.39" cy="76.46" r="6.5" fill="#5bb7b1"/><circle cx="484.39" cy="76.46" r="6.5" fill="#5bb7b1"/><circle cx="466.39" cy="76.46" r="6.5" fill="#5bb7b1"/><circle cx="448.39" cy="76.46" r="6.5" fill="#5bb7b1"/><circle cx="430.39" cy="76.46" r="6.5" fill="#5bb7b1"/><circle cx="466.39" cy="598.47" r="6.5" fill="#5bb7b1"/><circle cx="448.39" cy="598.47" r="6.5" fill="#5bb7b1"/><circle cx="268.39" cy="598.47" r="6.5" fill="#5bb7b1"/><circle cx="592.39" cy="436.46" r="6.5" fill="#5bb7b1"/><circle cx="610.39" cy="436.46" r="6.5" fill="#5bb7b1"/><circle cx="664.39" cy="436.46" r="6.5" fill="#5bb7b1"/><circle cx="700.4" cy="436.46" r="6.5" fill="#5bb7b1"/><circle cx="682.4" cy="436.46" r="6.5" fill="#5bb7b1"/><circle cx="628.39" cy="436.46" r="6.5" fill="#5bb7b1"/><circle cx="520.39" cy="436.46" r="6.5" fill="#5bb7b1"/><circle cx="538.39" cy="436.46" r="6.5" fill="#5bb7b1"/><circle cx="233.41" cy="436.46" r="6.5" fill="#5bb7b1"/><circle cx="250.39" cy="436.46" r="6.5" fill="#5bb7b1"/><circle cx="268.39" cy="436.46" r="6.5" fill="#5bb7b1"/><circle cx="286.39" cy="436.46" r="6.5" fill="#5bb7b1"/><circle cx="304.39" cy="436.46" r="6.5" fill="#5bb7b1"/><circle cx="592.39" cy="418.46" r="6.5" fill="#5bb7b1"/><circle cx="610.39" cy="418.46" r="6.5" fill="#5bb7b1"/><circle cx="664.39" cy="418.46" r="6.5" fill="#5bb7b1"/><circle cx="700.4" cy="418.46" r="6.5" fill="#5bb7b1"/><circle cx="682.4" cy="418.46" r="6.5" fill="#5bb7b1"/><circle cx="628.39" cy="418.46" r="6.5" fill="#5bb7b1"/><circle cx="502.39" cy="418.46" r="6.5" fill="#5bb7b1"/><circle cx="520.39" cy="418.46" r="6.5" fill="#5bb7b1"/><circle cx="538.39" cy="418.46" r="6.5" fill="#5bb7b1"/><circle cx="556.39" cy="418.46" r="6.5" fill="#5bb7b1"/><circle cx="574.39" cy="418.46" r="6.5" fill="#5bb7b1"/><circle cx="466.39" cy="418.46" r="6.5" fill="#5bb7b1"/><circle cx="178.39" cy="418.46" r="6.5" fill="#5bb7b1"/><circle cx="268.39" cy="418.46" r="6.5" fill="#5bb7b1"/><circle cx="286.39" cy="418.46" r="6.5" fill="#5bb7b1"/><circle cx="304.39" cy="418.46" r="6.5" fill="#5bb7b1"/><circle cx="394.39" cy="364.46" r="6.5" fill="#5bb7b1"/><circle cx="412.39" cy="364.46" r="6.5" fill="#5bb7b1"/><circle cx="592.39" cy="364.46" r="6.5" fill="#5bb7b1"/><circle cx="610.39" cy="364.46" r="6.5" fill="#5bb7b1"/><circle cx="646.39" cy="364.46" r="6.5" fill="#5bb7b1"/><circle cx="700.4" cy="364.46" r="6.5" fill="#5bb7b1"/><circle cx="718.4" cy="364.46" r="6.5" fill="#5bb7b1"/><circle cx="736.4" cy="364.46" r="6.5" fill="#5bb7b1"/><circle cx="772.4" cy="364.46" r="6.5" fill="#5bb7b1"/><circle cx="628.39" cy="364.46" r="6.5" fill="#5bb7b1"/><circle cx="502.39" cy="364.46" r="6.5" fill="#5bb7b1"/><circle cx="520.39" cy="364.46" r="6.5" fill="#5bb7b1"/><circle cx="538.39" cy="364.46" r="6.5" fill="#5bb7b1"/><circle cx="556.39" cy="364.46" r="6.5" fill="#5bb7b1"/><circle cx="574.39" cy="364.46" r="6.5" fill="#5bb7b1"/><circle cx="484.39" cy="364.46" r="6.5" fill="#5bb7b1"/><circle cx="466.39" cy="364.46" r="6.5" fill="#5bb7b1"/><circle cx="448.39" cy="364.46" r="6.5" fill="#5bb7b1"/><circle cx="430.39" cy="364.46" r="6.5" fill="#5bb7b1"/><circle cx="322.39" cy="364.46" r="6.5" fill="#5bb7b1"/><circle cx="412.39" cy="400.46" r="6.5" fill="#5bb7b1"/><circle cx="592.39" cy="400.46" r="6.5" fill="#5bb7b1"/><circle cx="610.39" cy="400.46" r="6.5" fill="#5bb7b1"/><circle cx="664.39" cy="400.46" r="6.5" fill="#5bb7b1"/><circle cx="646.39" cy="400.46" r="6.5" fill="#5bb7b1"/><circle cx="682.4" cy="400.46" r="6.5" fill="#5bb7b1"/><circle cx="736.4" cy="400.46" r="6.5" fill="#5bb7b1"/><circle cx="628.39" cy="400.46" r="6.5" fill="#5bb7b1"/><circle cx="502.39" cy="400.46" r="6.5" fill="#5bb7b1"/><circle cx="520.39" cy="400.46" r="6.5" fill="#5bb7b1"/><circle cx="538.39" cy="400.46" r="6.5" fill="#5bb7b1"/><circle cx="556.39" cy="400.46" r="6.5" fill="#5bb7b1"/><circle cx="574.39" cy="400.46" r="6.5" fill="#5bb7b1"/><circle cx="484.39" cy="400.46" r="6.5" fill="#5bb7b1"/><circle cx="286.39" cy="400.46" r="6.5" fill="#5bb7b1"/><circle cx="304.39" cy="400.46" r="6.5" fill="#5bb7b1"/><circle cx="322.39" cy="400.46" r="6.5" fill="#5bb7b1"/><circle cx="340.39" cy="400.46" r="6.5" fill="#5bb7b1"/><circle cx="376.39" cy="346.46" r="6.5" fill="#5bb7b1"/><circle cx="394.39" cy="346.46" r="6.5" fill="#5bb7b1"/><circle cx="412.39" cy="346.46" r="6.5" fill="#5bb7b1"/><circle cx="592.39" cy="346.46" r="6.5" fill="#5bb7b1"/><circle cx="610.39" cy="346.46" r="6.5" fill="#5bb7b1"/><circle cx="646.39" cy="346.46" r="6.5" fill="#5bb7b1"/><circle cx="700.4" cy="346.46" r="6.5" fill="#5bb7b1"/><circle cx="682.4" cy="346.46" r="6.5" fill="#5bb7b1"/><circle cx="736.4" cy="346.46" r="6.5" fill="#5bb7b1"/><circle cx="754.4" cy="346.46" r="6.5" fill="#5bb7b1"/><circle cx="772.4" cy="346.46" r="6.5" fill="#5bb7b1"/><circle cx="628.39" cy="346.46" r="6.5" fill="#5bb7b1"/><circle cx="502.39" cy="346.46" r="6.5" fill="#5bb7b1"/><circle cx="520.39" cy="346.46" r="6.5" fill="#5bb7b1"/><circle cx="538.39" cy="346.46" r="6.5" fill="#5bb7b1"/><circle cx="556.39" cy="346.46" r="6.5" fill="#5bb7b1"/><circle cx="574.39" cy="346.46" r="6.5" fill="#5bb7b1"/><circle cx="484.39" cy="346.46" r="6.5" fill="#5bb7b1"/><circle cx="466.39" cy="346.46" r="6.5" fill="#5bb7b1"/><circle cx="448.39" cy="346.46" r="6.5" fill="#5bb7b1"/><circle cx="430.39" cy="346.46" r="6.5" fill="#5bb7b1"/><circle cx="196.39" cy="346.46" r="6.5" fill="#5bb7b1"/><circle cx="268.39" cy="346.46" r="6.5" fill="#5bb7b1"/><circle cx="286.39" cy="346.46" r="6.5" fill="#5bb7b1"/><circle cx="304.39" cy="346.46" r="6.5" fill="#5bb7b1"/><circle cx="322.39" cy="346.46" r="6.5" fill="#5bb7b1"/><circle cx="340.39" cy="346.46" r="6.5" fill="#5bb7b1"/><circle cx="358.39" cy="346.46" r="6.5" fill="#5bb7b1"/><circle cx="376.39" cy="238.46" r="6.5" fill="#5bb7b1"/><circle cx="394.39" cy="238.46" r="6.5" fill="#5bb7b1"/><circle cx="412.39" cy="238.46" r="6.5" fill="#5bb7b1"/><circle cx="610.39" cy="238.46" r="6.5" fill="#5bb7b1"/><circle cx="646.39" cy="238.46" r="6.5" fill="#5bb7b1"/><circle cx="700.4" cy="238.46" r="6.5" fill="#5bb7b1"/><circle cx="682.4" cy="238.46" r="6.5" fill="#5bb7b1"/><circle cx="718.4" cy="238.46" r="6.5" fill="#5bb7b1"/><circle cx="736.4" cy="238.46" r="6.5" fill="#5bb7b1"/><circle cx="754.4" cy="238.46" r="6.5" fill="#5bb7b1"/><circle cx="772.4" cy="238.46" r="6.5" fill="#5bb7b1"/><circle cx="790.4" cy="238.46" r="6.5" fill="#5bb7b1"/><circle cx="808.4" cy="238.46" r="6.5" fill="#5bb7b1"/><circle cx="826.4" cy="238.46" r="6.5" fill="#5bb7b1"/><circle cx="628.39" cy="238.46" r="6.5" fill="#5bb7b1"/><circle cx="502.39" cy="238.46" r="6.5" fill="#5bb7b1"/><circle cx="520.39" cy="238.46" r="6.5" fill="#5bb7b1"/><circle cx="538.39" cy="238.46" r="6.5" fill="#5bb7b1"/><circle cx="556.39" cy="238.46" r="6.5" fill="#5bb7b1"/><circle cx="484.39" cy="238.46" r="6.5" fill="#5bb7b1"/><circle cx="466.39" cy="238.46" r="6.5" fill="#5bb7b1"/><circle cx="448.39" cy="238.46" r="6.5" fill="#5bb7b1"/><circle cx="430.39" cy="238.46" r="6.5" fill="#5bb7b1"/><circle cx="214.39" cy="238.46" r="6.5" fill="#5bb7b1"/><circle cx="231.37" cy="238.46" r="6.5" fill="#5bb7b1"/><circle cx="250.39" cy="238.46" r="6.5" fill="#5bb7b1"/><circle cx="268.39" cy="238.46" r="6.5" fill="#5bb7b1"/><circle cx="286.39" cy="238.46" r="6.5" fill="#5bb7b1"/><circle cx="304.39" cy="238.46" r="6.5" fill="#5bb7b1"/><circle cx="322.39" cy="238.46" r="6.5" fill="#5bb7b1"/><circle cx="340.39" cy="238.46" r="6.5" fill="#5bb7b1"/><circle cx="358.39" cy="238.46" r="6.5" fill="#5bb7b1"/><circle cx="376.39" cy="220.46" r="6.5" fill="#5bb7b1"/><circle cx="394.39" cy="220.46" r="6.5" fill="#5bb7b1"/><circle cx="412.39" cy="220.46" r="6.5" fill="#5bb7b1"/><circle cx="700.4" cy="220.46" r="6.5" fill="#5bb7b1"/><circle cx="682.4" cy="220.46" r="6.5" fill="#5bb7b1"/><circle cx="718.4" cy="220.46" r="6.5" fill="#5bb7b1"/><circle cx="736.4" cy="220.46" r="6.5" fill="#5bb7b1"/><circle cx="754.4" cy="220.46" r="6.5" fill="#5bb7b1"/><circle cx="772.4" cy="220.46" r="6.5" fill="#5bb7b1"/><circle cx="502.39" cy="220.46" r="6.5" fill="#5bb7b1"/><circle cx="520.39" cy="220.46" r="6.5" fill="#5bb7b1"/><circle cx="538.39" cy="220.46" r="6.5" fill="#5bb7b1"/><circle cx="556.39" cy="220.46" r="6.5" fill="#5bb7b1"/><circle cx="484.39" cy="220.46" r="6.5" fill="#5bb7b1"/><circle cx="466.39" cy="220.46" r="6.5" fill="#5bb7b1"/><circle cx="448.39" cy="220.46" r="6.5" fill="#5bb7b1"/><circle cx="430.39" cy="220.46" r="6.5" fill="#5bb7b1"/><circle cx="214.39" cy="220.46" r="6.5" fill="#5bb7b1"/><circle cx="231.37" cy="220.46" r="6.5" fill="#5bb7b1"/><circle cx="250.39" cy="220.46" r="6.5" fill="#5bb7b1"/><circle cx="268.39" cy="220.46" r="6.5" fill="#5bb7b1"/><circle cx="286.39" cy="220.46" r="6.5" fill="#5bb7b1"/><circle cx="304.39" cy="220.46" r="6.5" fill="#5bb7b1"/><circle cx="322.39" cy="220.46" r="6.5" fill="#5bb7b1"/><circle cx="340.39" cy="220.46" r="6.5" fill="#5bb7b1"/><circle cx="358.39" cy="220.46" r="6.5" fill="#5bb7b1"/><circle cx="376.39" cy="256.46" r="6.5" fill="#5bb7b1"/><circle cx="394.39" cy="256.46" r="6.5" fill="#5bb7b1"/><circle cx="412.39" cy="256.46" r="6.5" fill="#5bb7b1"/><circle cx="610.39" cy="256.46" r="6.5" fill="#5bb7b1"/><circle cx="664.39" cy="256.46" r="6.5" fill="#5bb7b1"/><circle cx="646.39" cy="256.46" r="6.5" fill="#5bb7b1"/><circle cx="700.4" cy="256.46" r="6.5" fill="#5bb7b1"/><circle cx="682.4" cy="256.46" r="6.5" fill="#5bb7b1"/><circle cx="718.4" cy="256.46" r="6.5" fill="#5bb7b1"/><circle cx="736.4" cy="256.46" r="6.5" fill="#5bb7b1"/><circle cx="754.4" cy="256.46" r="6.5" fill="#5bb7b1"/><circle cx="772.4" cy="256.46" r="6.5" fill="#5bb7b1"/><circle cx="790.4" cy="256.46" r="6.5" fill="#5bb7b1"/><circle cx="808.4" cy="256.46" r="6.5" fill="#5bb7b1"/><circle cx="826.4" cy="256.46" r="6.5" fill="#5bb7b1"/><circle cx="628.39" cy="256.46" r="6.5" fill="#5bb7b1"/><circle cx="502.39" cy="256.46" r="6.5" fill="#5bb7b1"/><circle cx="520.39" cy="256.46" r="6.5" fill="#5bb7b1"/><circle cx="538.39" cy="256.46" r="6.5" fill="#5bb7b1"/><circle cx="556.39" cy="256.46" r="6.5" fill="#5bb7b1"/><circle cx="484.39" cy="256.46" r="6.5" fill="#5bb7b1"/><circle cx="466.39" cy="256.46" r="6.5" fill="#5bb7b1"/><circle cx="448.39" cy="256.46" r="6.5" fill="#5bb7b1"/><circle cx="430.39" cy="256.46" r="6.5" fill="#5bb7b1"/><circle cx="196.39" cy="256.46" r="6.5" fill="#5bb7b1"/><circle cx="214.39" cy="256.46" r="6.5" fill="#5bb7b1"/><circle cx="231.37" cy="256.46" r="6.5" fill="#5bb7b1"/><circle cx="250.39" cy="256.46" r="6.5" fill="#5bb7b1"/><circle cx="268.39" cy="256.46" r="6.5" fill="#5bb7b1"/><circle cx="286.39" cy="256.46" r="6.5" fill="#5bb7b1"/><circle cx="304.39" cy="256.46" r="6.5" fill="#5bb7b1"/><circle cx="322.39" cy="256.46" r="6.5" fill="#5bb7b1"/><circle cx="340.39" cy="256.46" r="6.5" fill="#5bb7b1"/><circle cx="358.39" cy="256.46" r="6.5" fill="#5bb7b1"/><circle cx="376.39" cy="202.46" r="6.5" fill="#5bb7b1"/><circle cx="394.39" cy="202.46" r="6.5" fill="#5bb7b1"/><circle cx="412.39" cy="202.46" r="6.5" fill="#5bb7b1"/><circle cx="700.4" cy="202.46" r="6.5" fill="#5bb7b1"/><circle cx="682.4" cy="202.46" r="6.5" fill="#5bb7b1"/><circle cx="718.4" cy="202.46" r="6.5" fill="#5bb7b1"/><circle cx="736.4" cy="202.46" r="6.5" fill="#5bb7b1"/><circle cx="772.4" cy="202.46" r="6.5" fill="#5bb7b1"/><circle cx="628.39" cy="202.46" r="6.5" fill="#5bb7b1"/><circle cx="502.39" cy="202.46" r="6.5" fill="#5bb7b1"/><circle cx="520.39" cy="202.46" r="6.5" fill="#5bb7b1"/><circle cx="538.39" cy="202.46" r="6.5" fill="#5bb7b1"/><circle cx="556.39" cy="202.46" r="6.5" fill="#5bb7b1"/><circle cx="484.39" cy="202.46" r="6.5" fill="#5bb7b1"/><circle cx="466.39" cy="202.46" r="6.5" fill="#5bb7b1"/><circle cx="448.39" cy="202.46" r="6.5" fill="#5bb7b1"/><circle cx="430.39" cy="202.46" r="6.5" fill="#5bb7b1"/><circle cx="250.39" cy="202.46" r="6.5" fill="#5bb7b1"/><circle cx="268.39" cy="202.46" r="6.5" fill="#5bb7b1"/><circle cx="304.39" cy="202.46" r="6.5" fill="#5bb7b1"/><circle cx="322.39" cy="202.46" r="6.5" fill="#5bb7b1"/><circle cx="340.39" cy="202.46" r="6.5" fill="#5bb7b1"/><circle cx="358.39" cy="202.46" r="6.5" fill="#5bb7b1"/><circle cx="376.39" cy="166.46" r="6.5" fill="#5bb7b1"/><circle cx="394.39" cy="166.46" r="6.5" fill="#5bb7b1"/><circle cx="412.39" cy="166.46" r="6.5" fill="#5bb7b1"/><circle cx="592.39" cy="166.46" r="6.5" fill="#5bb7b1"/><circle cx="610.39" cy="166.46" r="6.5" fill="#5bb7b1"/><circle cx="682.4" cy="166.46" r="6.5" fill="#5bb7b1"/><circle cx="772.4" cy="166.46" r="6.5" fill="#5bb7b1"/><circle cx="502.39" cy="166.46" r="6.5" fill="#5bb7b1"/><circle cx="520.39" cy="166.46" r="6.5" fill="#5bb7b1"/><circle cx="538.39" cy="166.46" r="6.5" fill="#5bb7b1"/><circle cx="556.39" cy="166.46" r="6.5" fill="#5bb7b1"/><circle cx="574.39" cy="166.46" r="6.5" fill="#5bb7b1"/><circle cx="484.39" cy="166.46" r="6.5" fill="#5bb7b1"/><circle cx="466.39" cy="166.46" r="6.5" fill="#5bb7b1"/><circle cx="448.39" cy="166.46" r="6.5" fill="#5bb7b1"/><circle cx="430.39" cy="166.46" r="6.5" fill="#5bb7b1"/><circle cx="268.39" cy="166.46" r="6.5" fill="#5bb7b1"/><circle cx="286.39" cy="166.46" r="6.5" fill="#5bb7b1"/><circle cx="340.39" cy="166.46" r="6.5" fill="#5bb7b1"/><circle cx="358.39" cy="166.46" r="6.5" fill="#5bb7b1"/><circle cx="376.39" cy="148.46" r="6.5" fill="#5bb7b1"/><circle cx="394.39" cy="148.46" r="6.5" fill="#5bb7b1"/><circle cx="412.39" cy="148.46" r="6.5" fill="#5bb7b1"/><circle cx="592.39" cy="148.46" r="6.5" fill="#5bb7b1"/><circle cx="610.39" cy="148.46" r="6.5" fill="#5bb7b1"/><circle cx="646.39" cy="148.46" r="6.5" fill="#5bb7b1"/><circle cx="700.4" cy="148.46" r="6.5" fill="#5bb7b1"/><circle cx="682.4" cy="148.46" r="6.5" fill="#5bb7b1"/><circle cx="628.39" cy="148.46" r="6.5" fill="#5bb7b1"/><circle cx="502.39" cy="148.46" r="6.5" fill="#5bb7b1"/><circle cx="520.39" cy="148.46" r="6.5" fill="#5bb7b1"/><circle cx="538.39" cy="148.46" r="6.5" fill="#5bb7b1"/><circle cx="556.39" cy="148.46" r="6.5" fill="#5bb7b1"/><circle cx="574.39" cy="148.46" r="6.5" fill="#5bb7b1"/><circle cx="484.39" cy="148.46" r="6.5" fill="#5bb7b1"/><circle cx="466.39" cy="148.46" r="6.5" fill="#5bb7b1"/><circle cx="448.39" cy="148.46" r="6.5" fill="#5bb7b1"/><circle cx="430.39" cy="148.46" r="6.5" fill="#5bb7b1"/><circle cx="358.39" cy="148.46" r="6.5" fill="#5bb7b1"/><circle cx="376.39" cy="184.46" r="6.5" fill="#5bb7b1"/><circle cx="394.39" cy="184.46" r="6.5" fill="#5bb7b1"/><circle cx="412.39" cy="184.46" r="6.5" fill="#5bb7b1"/><circle cx="646.39" cy="184.46" r="6.5" fill="#5bb7b1"/><circle cx="700.4" cy="184.46" r="6.5" fill="#5bb7b1"/><circle cx="718.4" cy="184.46" r="6.5" fill="#5bb7b1"/><circle cx="736.4" cy="184.46" r="6.5" fill="#5bb7b1"/><circle cx="502.39" cy="184.46" r="6.5" fill="#5bb7b1"/><circle cx="520.39" cy="184.46" r="6.5" fill="#5bb7b1"/><circle cx="538.39" cy="184.46" r="6.5" fill="#5bb7b1"/><circle cx="556.39" cy="184.46" r="6.5" fill="#5bb7b1"/><circle cx="484.39" cy="184.46" r="6.5" fill="#5bb7b1"/><circle cx="466.39" cy="184.46" r="6.5" fill="#5bb7b1"/><circle cx="448.39" cy="184.46" r="6.5" fill="#5bb7b1"/><circle cx="430.39" cy="184.46" r="6.5" fill="#5bb7b1"/><circle cx="268.39" cy="184.46" r="6.5" fill="#5bb7b1"/><circle cx="340.39" cy="184.46" r="6.5" fill="#5bb7b1"/><circle cx="358.39" cy="184.46" r="6.5" fill="#5bb7b1"/><circle cx="394.39" cy="382.46" r="6.5" fill="#5bb7b1"/><circle cx="412.39" cy="382.46" r="6.5" fill="#5bb7b1"/><circle cx="592.39" cy="382.46" r="6.5" fill="#5bb7b1"/><circle cx="610.39" cy="382.46" r="6.5" fill="#5bb7b1"/><circle cx="646.39" cy="382.46" r="6.5" fill="#5bb7b1"/><circle cx="736.4" cy="382.46" r="6.5" fill="#5bb7b1"/><circle cx="628.39" cy="382.46" r="6.5" fill="#5bb7b1"/><circle cx="502.39" cy="382.46" r="6.5" fill="#5bb7b1"/><circle cx="520.39" cy="382.46" r="6.5" fill="#5bb7b1"/><circle cx="538.39" cy="382.46" r="6.5" fill="#5bb7b1"/><circle cx="556.39" cy="382.46" r="6.5" fill="#5bb7b1"/><circle cx="574.39" cy="382.46" r="6.5" fill="#5bb7b1"/><circle cx="484.39" cy="382.46" r="6.5" fill="#5bb7b1"/><circle cx="466.39" cy="382.46" r="6.5" fill="#5bb7b1"/><circle cx="448.39" cy="382.46" r="6.5" fill="#5bb7b1"/><circle cx="322.39" cy="382.46" r="6.5" fill="#5bb7b1"/><circle cx="340.39" cy="382.46" r="6.5" fill="#5bb7b1"/><circle cx="358.39" cy="382.46" r="6.5" fill="#5bb7b1"/><circle cx="376.39" cy="292.46" r="6.5" fill="#5bb7b1"/><circle cx="394.39" cy="292.46" r="6.5" fill="#5bb7b1"/><circle cx="412.39" cy="292.46" r="6.5" fill="#5bb7b1"/><circle cx="592.39" cy="292.46" r="6.5" fill="#5bb7b1"/><circle cx="610.39" cy="292.46" r="6.5" fill="#5bb7b1"/><circle cx="664.39" cy="292.46" r="6.5" fill="#5bb7b1"/><circle cx="646.39" cy="292.46" r="6.5" fill="#5bb7b1"/><circle cx="700.4" cy="292.46" r="6.5" fill="#5bb7b1"/><circle cx="682.4" cy="292.46" r="6.5" fill="#5bb7b1"/><circle cx="718.4" cy="292.46" r="6.5" fill="#5bb7b1"/><circle cx="736.4" cy="292.46" r="6.5" fill="#5bb7b1"/><circle cx="754.4" cy="292.46" r="6.5" fill="#5bb7b1"/><circle cx="772.4" cy="292.46" r="6.5" fill="#5bb7b1"/><circle cx="790.4" cy="292.46" r="6.5" fill="#5bb7b1"/><circle cx="628.39" cy="292.46" r="6.5" fill="#5bb7b1"/><circle cx="502.39" cy="292.46" r="6.5" fill="#5bb7b1"/><circle cx="520.39" cy="292.46" r="6.5" fill="#5bb7b1"/><circle cx="538.39" cy="292.46" r="6.5" fill="#5bb7b1"/><circle cx="556.39" cy="292.46" r="6.5" fill="#5bb7b1"/><circle cx="574.39" cy="292.46" r="6.5" fill="#5bb7b1"/><circle cx="484.39" cy="292.46" r="6.5" fill="#5bb7b1"/><circle cx="466.39" cy="292.46" r="6.5" fill="#5bb7b1"/><circle cx="448.39" cy="292.46" r="6.5" fill="#5bb7b1"/><circle cx="430.39" cy="292.46" r="6.5" fill="#5bb7b1"/><circle cx="196.39" cy="292.46" r="6.5" fill="#5bb7b1"/><circle cx="178.39" cy="292.46" r="6.5" fill="#5bb7b1"/><circle cx="214.39" cy="292.46" r="6.5" fill="#5bb7b1"/><circle cx="231.37" cy="292.46" r="6.5" fill="#5bb7b1"/><circle cx="250.39" cy="292.46" r="6.5" fill="#5bb7b1"/><circle cx="268.39" cy="292.46" r="6.5" fill="#5bb7b1"/><circle cx="286.39" cy="292.46" r="6.5" fill="#5bb7b1"/><circle cx="304.39" cy="292.46" r="6.5" fill="#5bb7b1"/><circle cx="322.39" cy="292.46" r="6.5" fill="#5bb7b1"/><circle cx="340.39" cy="292.46" r="6.5" fill="#5bb7b1"/><circle cx="358.39" cy="292.46" r="6.5" fill="#5bb7b1"/><circle cx="160.39" cy="292.46" r="6.5" fill="#5bb7b1"/><circle cx="376.39" cy="310.46" r="6.5" fill="#5bb7b1"/><circle cx="394.39" cy="310.46" r="6.5" fill="#5bb7b1"/><circle cx="412.39" cy="310.46" r="6.5" fill="#5bb7b1"/><circle cx="592.39" cy="310.46" r="6.5" fill="#5bb7b1"/><circle cx="610.39" cy="310.46" r="6.5" fill="#5bb7b1"/><circle cx="664.39" cy="310.46" r="6.5" fill="#5bb7b1"/><circle cx="646.39" cy="310.46" r="6.5" fill="#5bb7b1"/><circle cx="700.4" cy="310.46" r="6.5" fill="#5bb7b1"/><circle cx="718.4" cy="310.46" r="6.5" fill="#5bb7b1"/><circle cx="736.4" cy="310.46" r="6.5" fill="#5bb7b1"/><circle cx="772.4" cy="310.46" r="6.5" fill="#5bb7b1"/><circle cx="790.4" cy="310.46" r="6.5" fill="#5bb7b1"/><circle cx="808.4" cy="310.46" r="6.5" fill="#5bb7b1"/><circle cx="628.39" cy="310.46" r="6.5" fill="#5bb7b1"/><circle cx="502.39" cy="310.46" r="6.5" fill="#5bb7b1"/><circle cx="520.39" cy="310.46" r="6.5" fill="#5bb7b1"/><circle cx="538.39" cy="310.46" r="6.5" fill="#5bb7b1"/><circle cx="556.39" cy="310.46" r="6.5" fill="#5bb7b1"/><circle cx="574.39" cy="310.46" r="6.5" fill="#5bb7b1"/><circle cx="484.39" cy="310.46" r="6.5" fill="#5bb7b1"/><circle cx="466.39" cy="310.46" r="6.5" fill="#5bb7b1"/><circle cx="448.39" cy="310.46" r="6.5" fill="#5bb7b1"/><circle cx="430.39" cy="310.46" r="6.5" fill="#5bb7b1"/><circle cx="196.39" cy="310.46" r="6.5" fill="#5bb7b1"/><circle cx="178.39" cy="310.46" r="6.5" fill="#5bb7b1"/><circle cx="214.39" cy="310.46" r="6.5" fill="#5bb7b1"/><circle cx="231.37" cy="310.46" r="6.5" fill="#5bb7b1"/><circle cx="250.39" cy="310.46" r="6.5" fill="#5bb7b1"/><circle cx="268.39" cy="310.46" r="6.5" fill="#5bb7b1"/><circle cx="286.39" cy="310.46" r="6.5" fill="#5bb7b1"/><circle cx="304.39" cy="310.46" r="6.5" fill="#5bb7b1"/><circle cx="322.39" cy="310.46" r="6.5" fill="#5bb7b1"/><circle cx="340.39" cy="310.46" r="6.5" fill="#5bb7b1"/><circle cx="358.39" cy="310.46" r="6.5" fill="#5bb7b1"/><circle cx="160.39" cy="310.46" r="6.5" fill="#5bb7b1"/><circle cx="376.39" cy="328.46" r="6.5" fill="#5bb7b1"/><circle cx="394.39" cy="328.46" r="6.5" fill="#5bb7b1"/><circle cx="412.39" cy="328.46" r="6.5" fill="#5bb7b1"/><circle cx="592.39" cy="328.46" r="6.5" fill="#5bb7b1"/><circle cx="610.39" cy="328.46" r="6.5" fill="#5bb7b1"/><circle cx="646.39" cy="328.46" r="6.5" fill="#5bb7b1"/><circle cx="700.4" cy="328.46" r="6.5" fill="#5bb7b1"/><circle cx="736.4" cy="328.46" r="6.5" fill="#5bb7b1"/><circle cx="790.4" cy="328.46" r="6.5" fill="#5bb7b1"/><circle cx="628.39" cy="328.46" r="6.5" fill="#5bb7b1"/><circle cx="502.39" cy="328.46" r="6.5" fill="#5bb7b1"/><circle cx="520.39" cy="328.46" r="6.5" fill="#5bb7b1"/><circle cx="538.39" cy="328.46" r="6.5" fill="#5bb7b1"/><circle cx="556.39" cy="328.46" r="6.5" fill="#5bb7b1"/><circle cx="574.39" cy="328.46" r="6.5" fill="#5bb7b1"/><circle cx="484.39" cy="328.46" r="6.5" fill="#5bb7b1"/><circle cx="466.39" cy="328.46" r="6.5" fill="#5bb7b1"/><circle cx="448.39" cy="328.46" r="6.5" fill="#5bb7b1"/><circle cx="430.39" cy="328.46" r="6.5" fill="#5bb7b1"/><circle cx="196.39" cy="328.46" r="6.5" fill="#5bb7b1"/><circle cx="178.39" cy="328.46" r="6.5" fill="#5bb7b1"/><circle cx="214.39" cy="328.46" r="6.5" fill="#5bb7b1"/><circle cx="231.37" cy="328.46" r="6.5" fill="#5bb7b1"/><circle cx="250.39" cy="328.46" r="6.5" fill="#5bb7b1"/><circle cx="268.39" cy="328.46" r="6.5" fill="#5bb7b1"/><circle cx="286.39" cy="328.46" r="6.5" fill="#5bb7b1"/><circle cx="304.39" cy="328.46" r="6.5" fill="#5bb7b1"/><circle cx="322.39" cy="328.46" r="6.5" fill="#5bb7b1"/><circle cx="340.39" cy="328.46" r="6.5" fill="#5bb7b1"/><circle cx="358.39" cy="328.46" r="6.5" fill="#5bb7b1"/><circle cx="160.39" cy="328.46" r="6.5" fill="#5bb7b1"/><circle cx="376.39" cy="274.46" r="6.5" fill="#5bb7b1"/><circle cx="394.39" cy="274.46" r="6.5" fill="#5bb7b1"/><circle cx="412.39" cy="274.46" r="6.5" fill="#5bb7b1"/><circle cx="592.39" cy="274.46" r="6.5" fill="#5bb7b1"/><circle cx="610.39" cy="274.46" r="6.5" fill="#5bb7b1"/><circle cx="664.39" cy="274.46" r="6.5" fill="#5bb7b1"/><circle cx="646.39" cy="274.46" r="6.5" fill="#5bb7b1"/><circle cx="700.4" cy="274.46" r="6.5" fill="#5bb7b1"/><circle cx="682.4" cy="274.46" r="6.5" fill="#5bb7b1"/><circle cx="718.4" cy="274.46" r="6.5" fill="#5bb7b1"/><circle cx="736.4" cy="274.46" r="6.5" fill="#5bb7b1"/><circle cx="754.4" cy="274.46" r="6.5" fill="#5bb7b1"/><circle cx="772.4" cy="274.46" r="6.5" fill="#5bb7b1"/><circle cx="790.4" cy="274.46" r="6.5" fill="#5bb7b1"/><circle cx="628.39" cy="274.46" r="6.5" fill="#5bb7b1"/><circle cx="502.39" cy="274.46" r="6.5" fill="#5bb7b1"/><circle cx="520.39" cy="274.46" r="6.5" fill="#5bb7b1"/><circle cx="538.39" cy="274.46" r="6.5" fill="#5bb7b1"/><circle cx="556.39" cy="274.46" r="6.5" fill="#5bb7b1"/><circle cx="574.39" cy="274.46" r="6.5" fill="#5bb7b1"/><circle cx="484.39" cy="274.46" r="6.5" fill="#5bb7b1"/><circle cx="466.39" cy="274.46" r="6.5" fill="#5bb7b1"/><circle cx="448.39" cy="274.46" r="6.5" fill="#5bb7b1"/><circle cx="430.39" cy="274.46" r="6.5" fill="#5bb7b1"/><circle cx="196.39" cy="274.46" r="6.5" fill="#5bb7b1"/><circle cx="178.39" cy="274.46" r="6.5" fill="#5bb7b1"/><circle cx="214.39" cy="274.46" r="6.5" fill="#5bb7b1"/><circle cx="231.37" cy="274.46" r="6.5" fill="#5bb7b1"/><circle cx="250.39" cy="274.46" r="6.5" fill="#5bb7b1"/><circle cx="268.39" cy="274.46" r="6.5" fill="#5bb7b1"/><circle cx="286.39" cy="274.46" r="6.5" fill="#5bb7b1"/><circle cx="304.39" cy="274.46" r="6.5" fill="#5bb7b1"/><circle cx="322.39" cy="274.46" r="6.5" fill="#5bb7b1"/><circle cx="340.39" cy="274.46" r="6.5" fill="#5bb7b1"/><circle cx="358.39" cy="274.46" r="6.5" fill="#5bb7b1"/><circle cx="160.39" cy="274.46" r="6.5" fill="#5bb7b1"/><circle cx="574.39" cy="580.47" r="6.5" fill="#5bb7b1"/><circle cx="52.38" cy="580.47" r="6.5" fill="#5bb7b1"/><circle cx="70.39" cy="580.47" r="6.5" fill="#5bb7b1"/><circle cx="88.39" cy="580.47" r="6.5" fill="#5bb7b1"/><circle cx="484.39" cy="580.47" r="6.5" fill="#5bb7b1"/><circle cx="466.39" cy="580.47" r="6.5" fill="#5bb7b1"/><circle cx="448.39" cy="580.47" r="6.5" fill="#5bb7b1"/><circle cx="322.39" cy="580.47" r="6.5" fill="#5bb7b1"/><circle cx="160.39" cy="580.47" r="6.5" fill="#5bb7b1"/><circle cx="592.39" cy="526.46" r="6.5" fill="#5bb7b1"/><circle cx="610.39" cy="526.46" r="6.5" fill="#5bb7b1"/><circle cx="628.39" cy="526.46" r="6.5" fill="#5bb7b1"/><circle cx="502.39" cy="526.46" r="6.5" fill="#5bb7b1"/><circle cx="520.39" cy="526.46" r="6.5" fill="#5bb7b1"/><circle cx="538.39" cy="526.46" r="6.5" fill="#5bb7b1"/><circle cx="556.39" cy="526.46" r="6.5" fill="#5bb7b1"/><circle cx="574.39" cy="526.46" r="6.5" fill="#5bb7b1"/><circle cx="70.39" cy="526.46" r="6.5" fill="#5bb7b1"/><circle cx="88.39" cy="526.46" r="6.5" fill="#5bb7b1"/><circle cx="484.39" cy="526.46" r="6.5" fill="#5bb7b1"/><circle cx="430.39" cy="526.46" r="6.5" fill="#5bb7b1"/><circle cx="106.39" cy="526.46" r="6.5" fill="#5bb7b1"/><circle cx="124.39" cy="526.46" r="6.5" fill="#5bb7b1"/><circle cx="196.39" cy="526.46" r="6.5" fill="#5bb7b1"/><circle cx="178.39" cy="526.46" r="6.5" fill="#5bb7b1"/><circle cx="214.39" cy="526.46" r="6.5" fill="#5bb7b1"/><circle cx="233.41" cy="526.46" r="6.5" fill="#5bb7b1"/><circle cx="250.39" cy="526.46" r="6.5" fill="#5bb7b1"/><circle cx="268.39" cy="526.46" r="6.5" fill="#5bb7b1"/><circle cx="160.39" cy="526.46" r="6.5" fill="#5bb7b1"/><circle cx="142.39" cy="526.46" r="6.5" fill="#5bb7b1"/><circle cx="610.39" cy="544.47" r="6.5" fill="#5bb7b1"/><circle cx="628.39" cy="544.47" r="6.5" fill="#5bb7b1"/><circle cx="556.39" cy="544.47" r="6.5" fill="#5bb7b1"/><circle cx="574.39" cy="544.47" r="6.5" fill="#5bb7b1"/><circle cx="52.38" cy="544.47" r="6.5" fill="#5bb7b1"/><circle cx="70.39" cy="544.47" r="6.5" fill="#5bb7b1"/><circle cx="88.39" cy="544.47" r="6.5" fill="#5bb7b1"/><circle cx="448.39" cy="544.47" r="6.5" fill="#5bb7b1"/><circle cx="430.39" cy="544.47" r="6.5" fill="#5bb7b1"/><circle cx="106.39" cy="544.47" r="6.5" fill="#5bb7b1"/><circle cx="124.39" cy="544.47" r="6.5" fill="#5bb7b1"/><circle cx="178.39" cy="544.47" r="6.5" fill="#5bb7b1"/><circle cx="250.39" cy="544.47" r="6.5" fill="#5bb7b1"/><circle cx="268.39" cy="544.47" r="6.5" fill="#5bb7b1"/><circle cx="286.39" cy="544.47" r="6.5" fill="#5bb7b1"/><circle cx="160.39" cy="544.47" r="6.5" fill="#5bb7b1"/><circle cx="142.39" cy="544.47" r="6.5" fill="#5bb7b1"/><circle cx="628.39" cy="562.47" r="6.5" fill="#5bb7b1"/><circle cx="556.39" cy="562.47" r="6.5" fill="#5bb7b1"/><circle cx="574.39" cy="562.47" r="6.5" fill="#5bb7b1"/><circle cx="52.38" cy="562.47" r="6.5" fill="#5bb7b1"/><circle cx="70.39" cy="562.47" r="6.5" fill="#5bb7b1"/><circle cx="88.39" cy="562.47" r="6.5" fill="#5bb7b1"/><circle cx="466.39" cy="562.47" r="6.5" fill="#5bb7b1"/><circle cx="448.39" cy="562.47" r="6.5" fill="#5bb7b1"/><circle cx="430.39" cy="562.47" r="6.5" fill="#5bb7b1"/><circle cx="106.39" cy="562.47" r="6.5" fill="#5bb7b1"/><circle cx="124.39" cy="562.47" r="6.5" fill="#5bb7b1"/><circle cx="178.39" cy="562.47" r="6.5" fill="#5bb7b1"/><circle cx="268.39" cy="562.47" r="6.5" fill="#5bb7b1"/><circle cx="286.39" cy="562.47" r="6.5" fill="#5bb7b1"/><circle cx="322.39" cy="562.47" r="6.5" fill="#5bb7b1"/><circle cx="160.39" cy="562.47" r="6.5" fill="#5bb7b1"/><circle cx="142.39" cy="562.47" r="6.5" fill="#5bb7b1"/><circle cx="592.39" cy="508.46" r="6.5" fill="#5bb7b1"/><circle cx="610.39" cy="508.46" r="6.5" fill="#5bb7b1"/><circle cx="682.4" cy="508.46" r="6.5" fill="#5bb7b1"/><circle cx="628.39" cy="508.46" r="6.5" fill="#5bb7b1"/><circle cx="502.39" cy="508.46" r="6.5" fill="#5bb7b1"/><circle cx="520.39" cy="508.46" r="6.5" fill="#5bb7b1"/><circle cx="538.39" cy="508.46" r="6.5" fill="#5bb7b1"/><circle cx="556.39" cy="508.46" r="6.5" fill="#5bb7b1"/><circle cx="574.39" cy="508.46" r="6.5" fill="#5bb7b1"/><circle cx="88.39" cy="508.46" r="6.5" fill="#5bb7b1"/><circle cx="484.39" cy="508.46" r="6.5" fill="#5bb7b1"/><circle cx="466.39" cy="508.46" r="6.5" fill="#5bb7b1"/><circle cx="106.39" cy="508.46" r="6.5" fill="#5bb7b1"/><circle cx="124.39" cy="508.46" r="6.5" fill="#5bb7b1"/><circle cx="196.39" cy="508.46" r="6.5" fill="#5bb7b1"/><circle cx="178.39" cy="508.46" r="6.5" fill="#5bb7b1"/><circle cx="214.39" cy="508.46" r="6.5" fill="#5bb7b1"/><circle cx="233.41" cy="508.46" r="6.5" fill="#5bb7b1"/><circle cx="250.39" cy="508.46" r="6.5" fill="#5bb7b1"/><circle cx="268.39" cy="508.46" r="6.5" fill="#5bb7b1"/><circle cx="286.39" cy="508.46" r="6.5" fill="#5bb7b1"/><circle cx="340.39" cy="508.46" r="6.5" fill="#5bb7b1"/><circle cx="160.39" cy="508.46" r="6.5" fill="#5bb7b1"/><circle cx="142.39" cy="508.46" r="6.5" fill="#5bb7b1"/><circle cx="592.39" cy="490.46" r="6.5" fill="#5bb7b1"/><circle cx="610.39" cy="490.46" r="6.5" fill="#5bb7b1"/><circle cx="628.39" cy="490.46" r="6.5" fill="#5bb7b1"/><circle cx="502.39" cy="490.46" r="6.5" fill="#5bb7b1"/><circle cx="520.39" cy="490.46" r="6.5" fill="#5bb7b1"/><circle cx="538.39" cy="490.46" r="6.5" fill="#5bb7b1"/><circle cx="556.39" cy="490.46" r="6.5" fill="#5bb7b1"/><circle cx="574.39" cy="490.46" r="6.5" fill="#5bb7b1"/><circle cx="88.39" cy="490.46" r="6.5" fill="#5bb7b1"/><circle cx="484.39" cy="490.46" r="6.5" fill="#5bb7b1"/><circle cx="466.39" cy="490.46" r="6.5" fill="#5bb7b1"/><circle cx="448.39" cy="490.46" r="6.5" fill="#5bb7b1"/><circle cx="106.39" cy="490.46" r="6.5" fill="#5bb7b1"/><circle cx="124.39" cy="490.46" r="6.5" fill="#5bb7b1"/><circle cx="196.39" cy="490.46" r="6.5" fill="#5bb7b1"/><circle cx="178.39" cy="490.46" r="6.5" fill="#5bb7b1"/><circle cx="214.39" cy="490.46" r="6.5" fill="#5bb7b1"/><circle cx="233.41" cy="490.46" r="6.5" fill="#5bb7b1"/><circle cx="250.39" cy="490.46" r="6.5" fill="#5bb7b1"/><circle cx="268.39" cy="490.46" r="6.5" fill="#5bb7b1"/><circle cx="286.39" cy="490.46" r="6.5" fill="#5bb7b1"/><circle cx="160.39" cy="490.46" r="6.5" fill="#5bb7b1"/><circle cx="142.39" cy="490.46" r="6.5" fill="#5bb7b1"/><circle cx="592.39" cy="472.46" r="6.5" fill="#5bb7b1"/><circle cx="610.39" cy="472.46" r="6.5" fill="#5bb7b1"/><circle cx="664.39" cy="472.46" r="6.5" fill="#5bb7b1"/><circle cx="700.4" cy="472.46" r="6.5" fill="#5bb7b1"/><circle cx="682.4" cy="472.46" r="6.5" fill="#5bb7b1"/><circle cx="502.39" cy="472.46" r="6.5" fill="#5bb7b1"/><circle cx="520.39" cy="472.46" r="6.5" fill="#5bb7b1"/><circle cx="538.39" cy="472.46" r="6.5" fill="#5bb7b1"/><circle cx="556.39" cy="472.46" r="6.5" fill="#5bb7b1"/><circle cx="574.39" cy="472.46" r="6.5" fill="#5bb7b1"/><circle cx="484.39" cy="472.46" r="6.5" fill="#5bb7b1"/><circle cx="466.39" cy="472.46" r="6.5" fill="#5bb7b1"/><circle cx="448.39" cy="472.46" r="6.5" fill="#5bb7b1"/><circle cx="106.39" cy="472.46" r="6.5" fill="#5bb7b1"/><circle cx="124.39" cy="472.46" r="6.5" fill="#5bb7b1"/><circle cx="196.39" cy="472.46" r="6.5" fill="#5bb7b1"/><circle cx="178.39" cy="472.46" r="6.5" fill="#5bb7b1"/><circle cx="214.39" cy="472.46" r="6.5" fill="#5bb7b1"/><circle cx="233.41" cy="472.46" r="6.5" fill="#5bb7b1"/><circle cx="250.39" cy="472.46" r="6.5" fill="#5bb7b1"/><circle cx="268.39" cy="472.46" r="6.5" fill="#5bb7b1"/><circle cx="286.39" cy="472.46" r="6.5" fill="#5bb7b1"/><circle cx="304.39" cy="472.46" r="6.5" fill="#5bb7b1"/><circle cx="160.39" cy="472.46" r="6.5" fill="#5bb7b1"/><circle cx="142.39" cy="472.46" r="6.5" fill="#5bb7b1"/><circle cx="664.39" cy="454.46" r="6.5" fill="#5bb7b1"/><circle cx="682.4" cy="454.46" r="6.5" fill="#5bb7b1"/><circle cx="556.39" cy="454.46" r="6.5" fill="#5bb7b1"/><circle cx="124.39" cy="454.46" r="6.5" fill="#5bb7b1"/><circle cx="196.39" cy="454.46" r="6.5" fill="#5bb7b1"/><circle cx="214.39" cy="454.46" r="6.5" fill="#5bb7b1"/><circle cx="233.41" cy="454.46" r="6.5" fill="#5bb7b1"/><circle cx="250.39" cy="454.46" r="6.5" fill="#5bb7b1"/><circle cx="268.39" cy="454.46" r="6.5" fill="#5bb7b1"/><circle cx="286.39" cy="454.46" r="6.5" fill="#5bb7b1"/><circle cx="304.39" cy="454.46" r="6.5" fill="#5bb7b1"/><circle cx="340.39" cy="454.46" r="6.5" fill="#5bb7b1"/><circle cx="160.39" cy="454.46" r="6.5" fill="#5bb7b1"/><circle cx="142.39" cy="454.46" r="6.5" fill="#5bb7b1"/><circle cx="142.39" cy="652.47" r="6.5" fill="#5bb7b1"/></g></svg>