<?xml version="1.0" encoding="UTF-8"?>
<svg id="Layer_1" data-name="Layer 1" xmlns="http://www.w3.org/2000/svg" viewBox="0 0 90.71 90.71">
  <defs>
    <style>
      .cls-1 {
        fill: #00263e;
      }

      .cls-2 {
        fill: #5cb8b2;
      }
    </style>
  </defs>
  <circle class="cls-2" cx="48.37" cy="45.35" r="42.34"/>
  <g>
    <path class="cls-1" d="M38.46,42.3l-.11-.03c-2.89-.81-3.92-1.25-3.92-2.08,0-.88,1.34-1.95,3.01-1.95,.03,0,.06,0,.09,0,.83,0,1.65,.29,2.3,.82,.4,.31,.89,.46,1.4,.39,.5-.06,.95-.31,1.27-.71,.6-.77,.53-1.86-.18-2.55-.86-.71-1.89-1.21-2.98-1.47v-.95c0-1.05-.85-1.9-1.9-1.9-1.05,0-1.9,.85-1.9,1.9v.89c-2.69,.53-4.69,2.77-4.9,5.54,0,3.92,3.88,4.96,6.7,5.72,3.47,.98,4.89,1.56,4.89,3.31s-2.07,3.25-4.62,3.25h-.12c-1.27,0-2.52-.44-3.5-1.24-.38-.33-.87-.5-1.38-.47-.51,.03-.97,.26-1.31,.64-.33,.38-.5,.87-.47,1.38s.26,.97,.64,1.31c1.16,1,2.56,1.69,4.05,2.01v.89c0,.51,.2,.98,.56,1.34,.36,.36,.84,.56,1.34,.56h0c.51,0,.98-.2,1.34-.56,.36-.36,.56-.83,.56-1.34v-.79c3.89-.75,6.69-3.66,6.69-6.98,0-4.85-4.55-6.1-7.56-6.93Z"/>
    <path class="cls-1" d="M38.33,21.72c-13.04,0-23.64,10.6-23.64,23.64s10.6,23.64,23.64,23.64,23.64-10.61,23.64-23.64c-.02-13.02-10.62-23.62-23.64-23.64Zm19.84,23.64c0,10.94-8.9,19.85-19.84,19.86h-.01c-5.3,0-10.28-2.06-14.03-5.81-3.75-3.75-5.82-8.73-5.82-14.03,0-10.95,8.89-19.85,19.86-19.86,10.92,.02,19.82,8.92,19.84,19.84Z"/>
    <path class="cls-1" d="M50.05,12.14c-5.27-1.87-10.98-2.46-16.52-1.7-1.03,.16-1.75,1.13-1.61,2.16,.07,.51,.33,.95,.74,1.26,.41,.31,.91,.44,1.43,.37,13.64-1.98,26.77,5.06,32.66,17.52,3.6,7.47,4.06,16.22,1.27,24.03v.12c-1.34,3.77-3.35,7.19-5.98,10.18v-.43c0-1.05-.85-1.9-1.9-1.9s-1.9,.85-1.9,1.9v4.34c0,1.05,.85,1.9,1.9,1.9h5.8c.51,0,.98-.2,1.34-.56,.36-.36,.56-.84,.56-1.34,0-1.05-.85-1.9-1.9-1.9h-.71c2.78-3.25,4.9-6.94,6.32-10.99,6.47-18.32-3.17-38.49-21.48-44.97Z"/>
    <path class="cls-1" d="M44.05,76.84c-.41-.31-.92-.44-1.42-.36l-.21,.03h0c-13.54,1.86-26.57-5.15-32.46-17.5-3.6-7.46-4.08-16.23-1.31-24.04v-.16c1.37-3.78,3.4-7.2,6.06-10.19v1.88c0,.51,.2,.98,.56,1.34s.84,.56,1.34,.56h0c1.05,0,1.9-.85,1.9-1.9v-5.8c0-1.05-.85-1.9-1.9-1.9h-5.8c-1.05,0-1.9,.85-1.9,1.9s.85,1.9,1.9,1.9h.6c-2.78,3.25-4.9,6.95-6.32,11-6.47,18.31,3.16,38.49,21.47,44.97,3.76,1.34,7.69,2.01,11.68,2.01h.12c1.61,0,3.22-.11,4.81-.32,1.04-.15,1.77-1.12,1.62-2.16-.07-.51-.34-.95-.75-1.26Z"/>
  </g>
</svg>