<svg id="Layer_1" data-name="Layer 1" xmlns="http://www.w3.org/2000/svg" viewBox="0 0 90.71 73.7"><defs><style>.cls-1{fill:#5cb8b2;}.cls-2{fill:#f58020;}.cls-3{fill:#c6c6c6;}</style></defs><path class="cls-1" d="M45.31,34c-3-.84-4.1-1.31-4.1-2.32s1.42-2.2,3.25-2.2a3.89,3.89,0,0,1,2.55.87,1.65,1.65,0,0,0,2.17-2.48,7.1,7.1,0,0,0-3.07-1.46V25.26a1.65,1.65,0,1,0-3.3,0v1.1a5.85,5.85,0,0,0-4.9,5.33c0,3.72,3.77,4.74,6.52,5.48,3.53,1,5.07,1.62,5.07,3.55s-2.18,3.5-4.87,3.5h-.12a5.8,5.8,0,0,1-3.66-1.3,1.65,1.65,0,0,0-2.18,2.48,8.93,8.93,0,0,0,4.14,2v1.09a1.65,1.65,0,1,0,3.3,0v-1C50,46.82,52.8,44,52.8,40.72,52.8,36,48.29,34.82,45.31,34Z"/><path class="cls-2" d="M45.36,13.46A23.39,23.39,0,1,0,68.75,36.85,23.42,23.42,0,0,0,45.36,13.46ZM65.45,36.85A20.1,20.1,0,1,1,45.36,16.76,20.12,20.12,0,0,1,65.45,36.85Z"/><path class="cls-2" d="M57,3.87h0a35,35,0,0,0-16.4-1.69A1.67,1.67,0,0,0,39.2,4.06a1.66,1.66,0,0,0,1.88,1.42A31.42,31.42,0,0,1,74,23.14a31.43,31.43,0,0,1,1.28,24.22l0,.08a31.09,31.09,0,0,1-6.47,10.79V57.15a1.65,1.65,0,0,0-3.3,0v4.34a1.65,1.65,0,0,0,1.65,1.65h5.8a1.65,1.65,0,0,0,0-3.3H71.7a34.17,34.17,0,0,0,6.63-11.32A35,35,0,0,0,57,3.87Z"/><path class="cls-3" d="M49.7,68.23h-.06A31.49,31.49,0,0,1,16.77,50.61a31.51,31.51,0,0,1-1.32-24.23l0-.12A31.27,31.27,0,0,1,22,15.47V18a1.65,1.65,0,0,0,3.3,0v-5.8a1.65,1.65,0,0,0-1.65-1.65h-5.8a1.65,1.65,0,1,0,0,3.3H19a34.22,34.22,0,0,0-6.63,11.33A35,35,0,0,0,33.69,69.83a34.58,34.58,0,0,0,11.61,2h.1a36.28,36.28,0,0,0,4.77-.32,1.66,1.66,0,0,0-.47-3.29Z"/></svg>