<?xml version="1.0" encoding="UTF-8"?>
<svg id="Layer_1" data-name="Layer 1" xmlns="http://www.w3.org/2000/svg" viewBox="0 0 90.71 90.71">
  <defs>
    <style>
      .cls-1 {
        fill: #00263e;
      }

      .cls-2 {
        fill: #5cb8b2;
      }
    </style>
  </defs>
  <circle class="cls-2" cx="48.37" cy="45.35" r="42.34"/>
  <g>
    <path class="cls-1" d="M38.28,42.51c-3-.84-4.1-1.31-4.1-2.32s1.42-2.2,3.25-2.2c.93-.02,1.83,.29,2.55,.87,.72,.56,1.75,.44,2.32-.28,.52-.66,.46-1.61-.15-2.2-.89-.73-1.94-1.23-3.07-1.46v-1.15c0-.91-.74-1.65-1.65-1.65-.91,0-1.65,.74-1.65,1.65h0v1.1c-2.67,.43-4.69,2.63-4.9,5.33,0,3.72,3.77,4.74,6.52,5.48,3.53,1,5.07,1.62,5.07,3.55s-2.18,3.5-4.87,3.5h-.12c-1.33,0-2.63-.46-3.66-1.3-.68-.6-1.73-.53-2.33,.15-.6,.68-.53,1.73,.15,2.33h0c1.18,1.02,2.61,1.71,4.14,2v1.09c0,.91,.74,1.65,1.65,1.65,.91,0,1.65-.74,1.65-1.65h0v-1c3.89-.67,6.69-3.49,6.69-6.77,0-4.72-4.51-5.9-7.49-6.72Z"/>
    <path class="cls-1" d="M38.33,21.97c-12.92,0-23.39,10.47-23.39,23.39s10.47,23.39,23.39,23.39,23.39-10.47,23.39-23.39c-.02-12.91-10.48-23.37-23.39-23.39Zm20.09,23.39c0,11.1-8.99,20.1-20.09,20.11-11.1,0-20.1-8.99-20.11-20.09,0-11.1,8.99-20.1,20.09-20.11,0,0,.01,0,.02,0,11.09,.02,20.07,9,20.09,20.09Z"/>
    <path class="cls-1" d="M49.97,12.38h0c-5.25-1.86-10.88-2.44-16.4-1.69-.9,.14-1.53,.98-1.4,1.88,.12,.91,.96,1.54,1.87,1.42,0,0,0,0,.01,0,13.66-1.98,27.02,5.18,32.92,17.66,3.65,7.58,4.11,16.3,1.28,24.22v.08c-1.4,4-3.6,7.67-6.47,10.79v-1.08c0-.91-.74-1.65-1.65-1.65s-1.65,.74-1.65,1.65v4.34c0,.91,.74,1.65,1.65,1.65h5.8c.91,0,1.65-.74,1.65-1.65,0-.91-.74-1.65-1.65-1.65h-1.26c2.92-3.31,5.17-7.15,6.63-11.32,6.43-18.22-3.11-38.21-21.33-44.65Z"/>
    <path class="cls-1" d="M42.67,76.74h-.06c-13.63,1.94-26.94-5.19-32.87-17.62-3.66-7.58-4.13-16.3-1.32-24.23v-.12c1.43-4,3.66-7.68,6.55-10.79v2.53c0,.91,.74,1.65,1.65,1.65,.91,0,1.65-.74,1.65-1.65v-5.8c0-.91-.74-1.65-1.65-1.65h-5.8c-.91,0-1.65,.74-1.65,1.65s.74,1.65,1.65,1.65h1.15c-2.92,3.31-5.17,7.16-6.63,11.33-6.43,18.22,3.11,38.2,21.32,44.65,3.73,1.33,7.65,2,11.61,2h.1c1.6,0,3.19-.11,4.77-.32,.91-.13,1.54-.97,1.41-1.88-.13-.91-.97-1.54-1.88-1.41h0Z"/>
  </g>
</svg>