<?xml version="1.0" encoding="UTF-8"?><svg id="Layer_1" xmlns="http://www.w3.org/2000/svg" viewBox="0 0 512 512"><circle cx="256" cy="256" r="256" fill="#f0f0f0"/><path d="M256,0C154.51,0,66.81,59.06,25.4,144.7H486.6C445.19,59.06,357.49,0,256,0Z" fill="#ff9811"/><path d="M256,512c101.49,0,189.19-59.07,230.6-144.7H25.4c41.41,85.63,129.1,144.7,230.6,144.7Z" fill="#6da544"/><circle cx="256" cy="256" r="55.65" fill="#f0f0f0"/><g><ellipse cx="266.64" cy="258.24" rx="90.39" ry="90.65" fill="#008"/><ellipse cx="266.64" cy="258.24" rx="79.09" ry="79.32" fill="#fff"/><ellipse cx="266.64" cy="258.24" rx="15.82" ry="15.86" fill="#008"/><g id="d"><g id="c"><g id="b"><g id="a"><ellipse cx="345.05" cy="268.59" rx="3.95" ry="3.97" fill="#008"/><path d="M266.64,337.56l2.71-47.59-2.71-22.66-2.71,22.66,2.71,47.59Z" fill="#008"/></g><g id="a-2"><ellipse cx="339.71" cy="288.59" rx="3.95" ry="3.97" fill="#008"/><path d="M246.17,334.86l14.9-45.27,3.23-22.59-8.47,21.19-9.66,46.67Z" fill="#008"/></g></g><g id="b-2"><g id="a-3"><ellipse cx="329.39" cy="306.53" rx="3.95" ry="3.97" fill="#008"/><path d="M227.1,326.93l26.08-39.86,8.95-20.99-13.65,18.27-21.38,42.58Z" fill="#008"/></g><g id="a-4"><ellipse cx="314.79" cy="321.17" rx="3.95" ry="3.97" fill="#008"/><path d="M210.72,314.33l35.47-31.73,14.06-17.95-17.9,14.1-31.64,35.58Z" fill="#008"/></g></g></g><g id="c-2"><g id="b-3"><g id="a-5"><ellipse cx="296.91" cy="331.52" rx="3.95" ry="3.97" fill="#008"/><path d="M198.15,297.9l42.45-21.44,18.21-13.69-20.93,8.98-39.74,26.15Z" fill="#008"/></g><g id="a-6"><ellipse cx="276.96" cy="336.88" rx="3.95" ry="3.97" fill="#008"/><path d="M190.25,278.77l46.54-9.69,21.13-8.49-22.53,3.24-45.14,14.94Z" fill="#008"/></g></g><g id="b-4"><g id="a-7"><ellipse cx="256.32" cy="336.88" rx="3.95" ry="3.97" fill="#008"/><path d="M187.55,258.24l47.45,2.72,22.6-2.72-22.6-2.72-47.45,2.72Z" fill="#008"/></g><g id="a-8"><ellipse cx="236.37" cy="331.52" rx="3.95" ry="3.97" fill="#008"/><path d="M190.25,237.71l45.14,14.94,22.53,3.24-21.13-8.49-46.54-9.69Z" fill="#008"/></g></g></g></g><g id="d-2"><g id="c-3"><g id="b-5"><g id="a-9"><ellipse cx="218.49" cy="321.17" rx="3.95" ry="3.97" fill="#008"/><path d="M198.15,218.58l39.74,26.15,20.93,8.98-18.21-13.69-42.45-21.44Z" fill="#008"/></g><g id="a-10"><ellipse cx="203.89" cy="306.53" rx="3.95" ry="3.97" fill="#008"/><path d="M210.72,202.15l31.64,35.58,17.9,14.1-14.06-17.95-35.47-31.73Z" fill="#008"/></g></g><g id="b-6"><g id="a-11"><ellipse cx="193.57" cy="288.59" rx="3.95" ry="3.97" fill="#008"/><path d="M227.1,189.55l21.38,42.58,13.65,18.27-8.95-20.99-26.08-39.86Z" fill="#008"/></g><g id="a-12"><ellipse cx="188.23" cy="268.59" rx="3.95" ry="3.97" fill="#008"/><path d="M246.17,181.62l9.66,46.67,8.47,21.19-3.23-22.59-14.9-45.27Z" fill="#008"/></g></g></g><g id="c-4"><g id="b-7"><g id="a-13"><ellipse cx="188.23" cy="247.89" rx="3.95" ry="3.97" fill="#008"/><path d="M266.64,178.92l-2.71,47.59,2.71,22.66,2.71-22.66-2.71-47.59Z" fill="#008"/></g><g id="a-14"><ellipse cx="193.57" cy="227.89" rx="3.95" ry="3.97" fill="#008"/><path d="M287.11,181.62l-14.9,45.27-3.23,22.59,8.47-21.19,9.66-46.67Z" fill="#008"/></g></g><g id="b-8"><g id="a-15"><ellipse cx="203.89" cy="209.95" rx="3.95" ry="3.97" fill="#008"/><path d="M306.19,189.55l-26.08,39.86-8.95,20.99,13.65-18.27,21.38-42.58Z" fill="#008"/></g><g id="a-16"><ellipse cx="218.49" cy="195.31" rx="3.95" ry="3.97" fill="#008"/><path d="M322.57,202.15l-35.47,31.73-14.06,17.95,17.9-14.1,31.64-35.58Z" fill="#008"/></g></g></g></g><g id="d-3"><g id="c-5"><g id="b-9"><g id="a-17"><ellipse cx="236.37" cy="184.96" rx="3.95" ry="3.97" fill="#008"/><path d="M335.13,218.58l-42.45,21.44-18.21,13.69,20.93-8.98,39.74-26.15Z" fill="#008"/></g><g id="a-18"><ellipse cx="256.32" cy="179.6" rx="3.95" ry="3.97" fill="#008"/><path d="M343.04,237.71l-46.54,9.69-21.13,8.49,22.53-3.24,45.14-14.94Z" fill="#008"/></g></g><g id="b-10"><g id="a-19"><ellipse cx="276.96" cy="179.6" rx="3.95" ry="3.97" fill="#008"/><path d="M345.73,258.24l-47.45-2.72-22.6,2.72,22.6,2.72,47.45-2.72Z" fill="#008"/></g><g id="a-20"><ellipse cx="296.91" cy="184.96" rx="3.95" ry="3.97" fill="#008"/><path d="M343.04,278.77l-45.14-14.94-22.53-3.24,21.13,8.49,46.54,9.69Z" fill="#008"/></g></g></g><g id="c-6"><g id="b-11"><g id="a-21"><ellipse cx="314.79" cy="195.31" rx="3.95" ry="3.97" fill="#008"/><path d="M335.13,297.9l-39.74-26.15-20.93-8.98,18.21,13.69,42.45,21.44Z" fill="#008"/></g><g id="a-22"><ellipse cx="329.39" cy="209.95" rx="3.95" ry="3.97" fill="#008"/><path d="M322.57,314.33l-31.64-35.58-17.9-14.1,14.06,17.95,35.47,31.73Z" fill="#008"/></g></g><g id="b-12"><g id="a-23"><ellipse cx="339.71" cy="227.89" rx="3.95" ry="3.97" fill="#008"/><path d="M306.19,326.93l-21.38-42.58-13.65-18.27,8.95,20.99,26.08,39.86Z" fill="#008"/></g><g id="a-24"><ellipse cx="345.05" cy="247.89" rx="3.95" ry="3.97" fill="#008"/><path d="M287.11,334.86l-9.66-46.67-8.47-21.19,3.23,22.59,14.9,45.27Z" fill="#008"/></g></g></g></g></g></svg>