<svg xmlns="http://www.w3.org/2000/svg" viewBox="0 0 738.24 665.71"><g id="Australia"><path d="M657.26,133.31A6.36,6.36,0,1,0,650.9,127,6.36,6.36,0,0,0,657.26,133.31Z" fill="#5bb7b1"/><path d="M657.26,151.31A6.36,6.36,0,1,0,650.9,145,6.36,6.36,0,0,0,657.26,151.31Z" fill="#5bb7b1"/><path d="M657.26,169.31A6.36,6.36,0,1,0,650.9,163,6.36,6.36,0,0,0,657.26,169.31Z" fill="#5bb7b1"/><path d="M675.26,151.31a6.36,6.36,0,1,0-6.35-6.36A6.37,6.37,0,0,0,675.26,151.31Z" fill="#5bb7b1"/><path d="M675.26,169.31a6.36,6.36,0,1,0-6.35-6.36A6.37,6.37,0,0,0,675.26,169.31Z" fill="#5bb7b1"/><path d="M531.2,187.31a6.36,6.36,0,1,0-6.36-6.36A6.36,6.36,0,0,0,531.2,187.31Z" fill="#5bb7b1"/><path d="M531.2,205.31a6.36,6.36,0,1,0-6.36-6.36A6.36,6.36,0,0,0,531.2,205.31Z" fill="#5bb7b1"/><path d="M531.2,223.31a6.36,6.36,0,1,0-6.36-6.36A6.36,6.36,0,0,0,531.2,223.31Z" fill="#5bb7b1"/><path d="M549.21,169.31a6.36,6.36,0,1,0-6.36-6.36A6.36,6.36,0,0,0,549.21,169.31Z" fill="#5bb7b1"/><path d="M549.21,187.31a6.36,6.36,0,1,0-6.36-6.36A6.36,6.36,0,0,0,549.21,187.31Z" fill="#5bb7b1"/><path d="M549.21,205.31a6.36,6.36,0,1,0-6.36-6.36A6.36,6.36,0,0,0,549.21,205.31Z" fill="#5bb7b1"/><path d="M549.21,223.31a6.36,6.36,0,1,0-6.36-6.36A6.36,6.36,0,0,0,549.21,223.31Z" fill="#5bb7b1"/><path d="M549.21,241.31a6.36,6.36,0,1,0-6.36-6.36A6.36,6.36,0,0,0,549.21,241.31Z" fill="#5bb7b1"/><path d="M549.21,259.31a6.36,6.36,0,1,0-6.36-6.36A6.36,6.36,0,0,0,549.21,259.31Z" fill="#5bb7b1"/><path d="M567.22,151.31a6.36,6.36,0,1,0-6.36-6.36A6.35,6.35,0,0,0,567.22,151.31Z" fill="#5bb7b1"/><path d="M567.22,169.31a6.36,6.36,0,1,0-6.36-6.36A6.35,6.35,0,0,0,567.22,169.31Z" fill="#5bb7b1"/><path d="M567.22,187.31a6.36,6.36,0,1,0-6.36-6.36A6.35,6.35,0,0,0,567.22,187.31Z" fill="#5bb7b1"/><path d="M567.22,205.31a6.36,6.36,0,1,0-6.36-6.36A6.35,6.35,0,0,0,567.22,205.31Z" fill="#5bb7b1"/><path d="M567.22,223.31a6.36,6.36,0,1,0-6.36-6.36A6.35,6.35,0,0,0,567.22,223.31Z" fill="#5bb7b1"/><path d="M567.22,241.31a6.36,6.36,0,1,0-6.36-6.36A6.35,6.35,0,0,0,567.22,241.31Z" fill="#5bb7b1"/><path d="M567.22,259.31a6.36,6.36,0,1,0-6.36-6.36A6.35,6.35,0,0,0,567.22,259.31Z" fill="#5bb7b1"/><path d="M567.22,277.31a6.36,6.36,0,1,0-6.36-6.36A6.35,6.35,0,0,0,567.22,277.31Z" fill="#5bb7b1"/><path d="M63,187.31A6.36,6.36,0,1,0,56.62,181,6.36,6.36,0,0,0,63,187.31Z" fill="#5bb7b1"/><path d="M63,205.31A6.36,6.36,0,1,0,56.62,199,6.36,6.36,0,0,0,63,205.31Z" fill="#5bb7b1"/><path d="M63,241.31A6.36,6.36,0,1,0,56.62,235,6.36,6.36,0,0,0,63,241.31Z" fill="#5bb7b1"/><circle cx="62.98" cy="252.95" r="6.36" fill="#5bb7b1"/><path d="M63,277.31A6.36,6.36,0,1,0,56.62,271,6.36,6.36,0,0,0,63,277.31Z" fill="#5bb7b1"/><path d="M63,295.31A6.36,6.36,0,1,0,56.62,289,6.36,6.36,0,0,0,63,295.31Z" fill="#5bb7b1"/><path d="M81,187.31A6.36,6.36,0,1,0,74.62,181,6.36,6.36,0,0,0,81,187.31Z" fill="#5bb7b1"/><path d="M81,205.31A6.36,6.36,0,1,0,74.62,199,6.36,6.36,0,0,0,81,205.31Z" fill="#5bb7b1"/><path d="M81,241.31A6.36,6.36,0,1,0,74.62,235,6.36,6.36,0,0,0,81,241.31Z" fill="#5bb7b1"/><circle cx="80.99" cy="252.95" r="6.36" fill="#5bb7b1"/><path d="M81,277.31A6.36,6.36,0,1,0,74.62,271,6.36,6.36,0,0,0,81,277.31Z" fill="#5bb7b1"/><path d="M81,295.31A6.36,6.36,0,1,0,74.62,289,6.36,6.36,0,0,0,81,295.31Z" fill="#5bb7b1"/><path d="M513.19,187.31a6.36,6.36,0,1,0-6.36-6.36A6.36,6.36,0,0,0,513.19,187.31Z" fill="#5bb7b1"/><path d="M513.19,205.31a6.36,6.36,0,1,0-6.36-6.36A6.36,6.36,0,0,0,513.19,205.31Z" fill="#5bb7b1"/><path d="M513.19,223.31a6.36,6.36,0,1,0-6.36-6.36A6.36,6.36,0,0,0,513.19,223.31Z" fill="#5bb7b1"/><path d="M513.19,259.31a6.36,6.36,0,1,0-6.36-6.36A6.36,6.36,0,0,0,513.19,259.31Z" fill="#5bb7b1"/><path d="M513.19,277.31a6.36,6.36,0,1,0-6.36-6.36A6.36,6.36,0,0,0,513.19,277.31Z" fill="#5bb7b1"/><path d="M513.19,295.31a6.36,6.36,0,1,0-6.36-6.36A6.36,6.36,0,0,0,513.19,295.31Z" fill="#5bb7b1"/><path d="M585.22,151.31a6.36,6.36,0,1,0-6.36-6.36A6.36,6.36,0,0,0,585.22,151.31Z" fill="#5bb7b1"/><path d="M585.22,169.31a6.36,6.36,0,1,0-6.36-6.36A6.36,6.36,0,0,0,585.22,169.31Z" fill="#5bb7b1"/><path d="M585.22,187.31a6.36,6.36,0,1,0-6.36-6.36A6.36,6.36,0,0,0,585.22,187.31Z" fill="#5bb7b1"/><path d="M585.22,205.31a6.36,6.36,0,1,0-6.36-6.36A6.36,6.36,0,0,0,585.22,205.31Z" fill="#5bb7b1"/><path d="M585.22,223.31a6.36,6.36,0,1,0-6.36-6.36A6.36,6.36,0,0,0,585.22,223.31Z" fill="#5bb7b1"/><path d="M585.22,241.31a6.36,6.36,0,1,0-6.36-6.36A6.36,6.36,0,0,0,585.22,241.31Z" fill="#5bb7b1"/><path d="M585.22,259.31a6.36,6.36,0,1,0-6.36-6.36A6.36,6.36,0,0,0,585.22,259.31Z" fill="#5bb7b1"/><path d="M585.22,277.31a6.36,6.36,0,1,0-6.36-6.36A6.36,6.36,0,0,0,585.22,277.31Z" fill="#5bb7b1"/><path d="M585.22,295.31a6.36,6.36,0,1,0-6.36-6.36A6.36,6.36,0,0,0,585.22,295.31Z" fill="#5bb7b1"/><path d="M99,169.31A6.36,6.36,0,1,0,92.63,163,6.36,6.36,0,0,0,99,169.31Z" fill="#5bb7b1"/><path d="M99,187.31A6.36,6.36,0,1,0,92.63,181,6.36,6.36,0,0,0,99,187.31Z" fill="#5bb7b1"/><path d="M99,205.31A6.36,6.36,0,1,0,92.63,199,6.36,6.36,0,0,0,99,205.31Z" fill="#5bb7b1"/><path d="M99,223.31A6.36,6.36,0,1,0,92.63,217,6.36,6.36,0,0,0,99,223.31Z" fill="#5bb7b1"/><path d="M99,241.31A6.36,6.36,0,1,0,92.63,235,6.36,6.36,0,0,0,99,241.31Z" fill="#5bb7b1"/><path d="M99,259.31A6.36,6.36,0,1,0,92.63,253,6.36,6.36,0,0,0,99,259.31Z" fill="#5bb7b1"/><path d="M99,277.31A6.36,6.36,0,1,0,92.63,271,6.36,6.36,0,0,0,99,277.31Z" fill="#5bb7b1"/><path d="M99,295.31A6.36,6.36,0,1,0,92.63,289,6.36,6.36,0,0,0,99,295.31Z" fill="#5bb7b1"/><path d="M99,313.31A6.36,6.36,0,1,0,92.63,307,6.36,6.36,0,0,0,99,313.31Z" fill="#5bb7b1"/><path d="M153,133.31a6.36,6.36,0,1,0-6.36-6.36A6.36,6.36,0,0,0,153,133.31Z" fill="#5bb7b1"/><path d="M153,151.31a6.36,6.36,0,1,0-6.36-6.36A6.36,6.36,0,0,0,153,151.31Z" fill="#5bb7b1"/><circle cx="153.02" cy="162.95" r="6.36" fill="#5bb7b1"/><path d="M153,187.31a6.36,6.36,0,1,0-6.36-6.36A6.36,6.36,0,0,0,153,187.31Z" fill="#5bb7b1"/><path d="M153,205.31a6.36,6.36,0,1,0-6.36-6.36A6.36,6.36,0,0,0,153,205.31Z" fill="#5bb7b1"/><path d="M153,223.31a6.36,6.36,0,1,0-6.36-6.36A6.36,6.36,0,0,0,153,223.31Z" fill="#5bb7b1"/><path d="M153,241.31a6.36,6.36,0,1,0-6.36-6.36A6.36,6.36,0,0,0,153,241.31Z" fill="#5bb7b1"/><circle cx="153.02" cy="252.95" r="6.36" fill="#5bb7b1"/><path d="M153,277.31a6.36,6.36,0,1,0-6.36-6.36A6.36,6.36,0,0,0,153,277.31Z" fill="#5bb7b1"/><path d="M153,295.31a6.36,6.36,0,1,0-6.36-6.36A6.36,6.36,0,0,0,153,295.31Z" fill="#5bb7b1"/><path d="M153,313.31a6.36,6.36,0,1,0-6.36-6.36A6.36,6.36,0,0,0,153,313.31Z" fill="#5bb7b1"/><path d="M495.18,169.31a6.36,6.36,0,1,0-6.36-6.36A6.36,6.36,0,0,0,495.18,169.31Z" fill="#5bb7b1"/><path d="M495.18,187.31a6.36,6.36,0,1,0-6.36-6.36A6.36,6.36,0,0,0,495.18,187.31Z" fill="#5bb7b1"/><path d="M495.18,205.31a6.36,6.36,0,1,0-6.36-6.36A6.36,6.36,0,0,0,495.18,205.31Z" fill="#5bb7b1"/><path d="M495.18,223.31a6.36,6.36,0,1,0-6.36-6.36A6.36,6.36,0,0,0,495.18,223.31Z" fill="#5bb7b1"/><path d="M495.18,241.31a6.36,6.36,0,1,0-6.36-6.36A6.36,6.36,0,0,0,495.18,241.31Z" fill="#5bb7b1"/><path d="M495.18,259.31a6.36,6.36,0,1,0-6.36-6.36A6.36,6.36,0,0,0,495.18,259.31Z" fill="#5bb7b1"/><path d="M495.18,277.31a6.36,6.36,0,1,0-6.36-6.36A6.36,6.36,0,0,0,495.18,277.31Z" fill="#5bb7b1"/><path d="M495.18,295.31a6.36,6.36,0,1,0-6.36-6.36A6.36,6.36,0,0,0,495.18,295.31Z" fill="#5bb7b1"/><path d="M495.18,313.31a6.36,6.36,0,1,0-6.36-6.36A6.36,6.36,0,0,0,495.18,313.31Z" fill="#5bb7b1"/><path d="M117,169.31a6.36,6.36,0,1,0-6.36-6.36A6.36,6.36,0,0,0,117,169.31Z" fill="#5bb7b1"/><path d="M117,187.31a6.36,6.36,0,1,0-6.36-6.36A6.36,6.36,0,0,0,117,187.31Z" fill="#5bb7b1"/><path d="M117,205.31a6.36,6.36,0,1,0-6.36-6.36A6.36,6.36,0,0,0,117,205.31Z" fill="#5bb7b1"/><path d="M117,223.31a6.36,6.36,0,1,0-6.36-6.36A6.36,6.36,0,0,0,117,223.31Z" fill="#5bb7b1"/><path d="M117,241.31a6.36,6.36,0,1,0-6.36-6.36A6.36,6.36,0,0,0,117,241.31Z" fill="#5bb7b1"/><path d="M117,259.31a6.36,6.36,0,1,0-6.36-6.36A6.36,6.36,0,0,0,117,259.31Z" fill="#5bb7b1"/><path d="M117,277.31a6.36,6.36,0,1,0-6.36-6.36A6.36,6.36,0,0,0,117,277.31Z" fill="#5bb7b1"/><path d="M117,295.31a6.36,6.36,0,1,0-6.36-6.36A6.36,6.36,0,0,0,117,295.31Z" fill="#5bb7b1"/><path d="M117,313.31a6.36,6.36,0,1,0-6.36-6.36A6.36,6.36,0,0,0,117,313.31Z" fill="#5bb7b1"/><path d="M117,331.31a6.36,6.36,0,1,0-6.36-6.36A6.36,6.36,0,0,0,117,331.31Z" fill="#5bb7b1"/><path d="M135,151.31a6.36,6.36,0,1,0-6.36-6.36A6.36,6.36,0,0,0,135,151.31Z" fill="#5bb7b1"/><path d="M135,169.31a6.36,6.36,0,1,0-6.36-6.36A6.36,6.36,0,0,0,135,169.31Z" fill="#5bb7b1"/><path d="M135,187.31a6.36,6.36,0,1,0-6.36-6.36A6.36,6.36,0,0,0,135,187.31Z" fill="#5bb7b1"/><path d="M135,205.31a6.36,6.36,0,1,0-6.36-6.36A6.36,6.36,0,0,0,135,205.31Z" fill="#5bb7b1"/><path d="M135,223.31a6.36,6.36,0,1,0-6.36-6.36A6.36,6.36,0,0,0,135,223.31Z" fill="#5bb7b1"/><path d="M135,241.31a6.36,6.36,0,1,0-6.36-6.36A6.36,6.36,0,0,0,135,241.31Z" fill="#5bb7b1"/><path d="M135,259.31a6.36,6.36,0,1,0-6.36-6.36A6.36,6.36,0,0,0,135,259.31Z" fill="#5bb7b1"/><path d="M135,277.31a6.36,6.36,0,1,0-6.36-6.36A6.36,6.36,0,0,0,135,277.31Z" fill="#5bb7b1"/><path d="M135,295.31a6.36,6.36,0,1,0-6.36-6.36A6.36,6.36,0,0,0,135,295.31Z" fill="#5bb7b1"/><path d="M135,313.31a6.36,6.36,0,1,0-6.36-6.36A6.36,6.36,0,0,0,135,313.31Z" fill="#5bb7b1"/><path d="M135,331.31a6.36,6.36,0,1,0-6.36-6.36A6.36,6.36,0,0,0,135,331.31Z" fill="#5bb7b1"/><path d="M477.17,169.31a6.36,6.36,0,1,0-6.36-6.36A6.36,6.36,0,0,0,477.17,169.31Z" fill="#5bb7b1"/><path d="M477.17,187.31a6.36,6.36,0,1,0-6.36-6.36A6.36,6.36,0,0,0,477.17,187.31Z" fill="#5bb7b1"/><path d="M477.17,205.31a6.36,6.36,0,1,0-6.36-6.36A6.36,6.36,0,0,0,477.17,205.31Z" fill="#5bb7b1"/><path d="M477.17,223.31a6.36,6.36,0,1,0-6.36-6.36A6.36,6.36,0,0,0,477.17,223.31Z" fill="#5bb7b1"/><path d="M477.17,241.31a6.36,6.36,0,1,0-6.36-6.36A6.36,6.36,0,0,0,477.17,241.31Z" fill="#5bb7b1"/><path d="M477.17,259.31a6.36,6.36,0,1,0-6.36-6.36A6.36,6.36,0,0,0,477.17,259.31Z" fill="#5bb7b1"/><path d="M477.17,277.31a6.36,6.36,0,1,0-6.36-6.36A6.36,6.36,0,0,0,477.17,277.31Z" fill="#5bb7b1"/><path d="M477.17,295.31a6.36,6.36,0,1,0-6.36-6.36A6.36,6.36,0,0,0,477.17,295.31Z" fill="#5bb7b1"/><path d="M477.17,313.31a6.36,6.36,0,1,0-6.36-6.36A6.36,6.36,0,0,0,477.17,313.31Z" fill="#5bb7b1"/><path d="M477.17,331.31a6.36,6.36,0,1,0-6.36-6.36A6.36,6.36,0,0,0,477.17,331.31Z" fill="#5bb7b1"/><path d="M441.16,187.31a6.36,6.36,0,1,0-6.37-6.36A6.36,6.36,0,0,0,441.16,187.31Z" fill="#5bb7b1"/><path d="M441.16,205.31a6.36,6.36,0,1,0-6.37-6.36A6.36,6.36,0,0,0,441.16,205.31Z" fill="#5bb7b1"/><path d="M441.16,223.31a6.36,6.36,0,1,0-6.37-6.36A6.36,6.36,0,0,0,441.16,223.31Z" fill="#5bb7b1"/><path d="M441.16,241.31a6.36,6.36,0,1,0-6.37-6.36A6.36,6.36,0,0,0,441.16,241.31Z" fill="#5bb7b1"/><path d="M441.16,259.31a6.36,6.36,0,1,0-6.37-6.36A6.36,6.36,0,0,0,441.16,259.31Z" fill="#5bb7b1"/><path d="M441.16,277.31a6.36,6.36,0,1,0-6.37-6.36A6.36,6.36,0,0,0,441.16,277.31Z" fill="#5bb7b1"/><path d="M441.16,295.31a6.36,6.36,0,1,0-6.37-6.36A6.36,6.36,0,0,0,441.16,295.31Z" fill="#5bb7b1"/><path d="M441.16,313.31a6.36,6.36,0,1,0-6.37-6.36A6.36,6.36,0,0,0,441.16,313.31Z" fill="#5bb7b1"/><path d="M441.16,331.31a6.36,6.36,0,1,0-6.37-6.36A6.36,6.36,0,0,0,441.16,331.31Z" fill="#5bb7b1"/><path d="M441.16,349.31a6.36,6.36,0,1,0-6.37-6.36A6.36,6.36,0,0,0,441.16,349.31Z" fill="#5bb7b1"/><path d="M459.17,187.31A6.36,6.36,0,1,0,452.8,181,6.35,6.35,0,0,0,459.17,187.31Z" fill="#5bb7b1"/><path d="M459.17,205.31A6.36,6.36,0,1,0,452.8,199,6.35,6.35,0,0,0,459.17,205.31Z" fill="#5bb7b1"/><path d="M459.17,223.31A6.36,6.36,0,1,0,452.8,217,6.35,6.35,0,0,0,459.17,223.31Z" fill="#5bb7b1"/><path d="M459.17,241.31A6.36,6.36,0,1,0,452.8,235,6.35,6.35,0,0,0,459.17,241.31Z" fill="#5bb7b1"/><path d="M459.17,259.31A6.36,6.36,0,1,0,452.8,253,6.35,6.35,0,0,0,459.17,259.31Z" fill="#5bb7b1"/><path d="M459.17,277.31A6.36,6.36,0,1,0,452.8,271,6.35,6.35,0,0,0,459.17,277.31Z" fill="#5bb7b1"/><path d="M459.17,295.31A6.36,6.36,0,1,0,452.8,289,6.35,6.35,0,0,0,459.17,295.31Z" fill="#5bb7b1"/><path d="M459.17,313.31A6.36,6.36,0,1,0,452.8,307,6.35,6.35,0,0,0,459.17,313.31Z" fill="#5bb7b1"/><path d="M459.17,331.31A6.36,6.36,0,1,0,452.8,325,6.35,6.35,0,0,0,459.17,331.31Z" fill="#5bb7b1"/><path d="M459.17,349.31A6.36,6.36,0,1,0,452.8,343,6.35,6.35,0,0,0,459.17,349.31Z" fill="#5bb7b1"/><path d="M423.15,187.31a6.36,6.36,0,1,0-6.36-6.36A6.36,6.36,0,0,0,423.15,187.31Z" fill="#5bb7b1"/><path d="M423.15,205.31a6.36,6.36,0,1,0-6.36-6.36A6.36,6.36,0,0,0,423.15,205.31Z" fill="#5bb7b1"/><path d="M423.15,223.31a6.36,6.36,0,1,0-6.36-6.36A6.36,6.36,0,0,0,423.15,223.31Z" fill="#5bb7b1"/><path d="M423.15,241.31a6.36,6.36,0,1,0-6.36-6.36A6.36,6.36,0,0,0,423.15,241.31Z" fill="#5bb7b1"/><path d="M423.15,259.31a6.36,6.36,0,1,0-6.36-6.36A6.36,6.36,0,0,0,423.15,259.31Z" fill="#5bb7b1"/><path d="M423.15,277.31a6.36,6.36,0,1,0-6.36-6.36A6.36,6.36,0,0,0,423.15,277.31Z" fill="#5bb7b1"/><path d="M423.15,295.31a6.36,6.36,0,1,0-6.36-6.36A6.36,6.36,0,0,0,423.15,295.31Z" fill="#5bb7b1"/><path d="M423.15,313.31a6.36,6.36,0,1,0-6.36-6.36A6.36,6.36,0,0,0,423.15,313.31Z" fill="#5bb7b1"/><path d="M423.15,331.31a6.36,6.36,0,1,0-6.36-6.36A6.36,6.36,0,0,0,423.15,331.31Z" fill="#5bb7b1"/><path d="M423.15,349.31a6.36,6.36,0,1,0-6.36-6.36A6.36,6.36,0,0,0,423.15,349.31Z" fill="#5bb7b1"/><path d="M423.15,367.31a6.36,6.36,0,1,0-6.36-6.36A6.36,6.36,0,0,0,423.15,367.31Z" fill="#5bb7b1"/><circle cx="171.03" cy="72.95" r="6.36" fill="#5bb7b1"/><path d="M171,97.31A6.36,6.36,0,1,0,164.67,91,6.36,6.36,0,0,0,171,97.31Z" fill="#5bb7b1"/><path d="M171,115.31a6.36,6.36,0,1,0-6.36-6.36A6.36,6.36,0,0,0,171,115.31Z" fill="#5bb7b1"/><path d="M171,133.31a6.36,6.36,0,1,0-6.36-6.36A6.36,6.36,0,0,0,171,133.31Z" fill="#5bb7b1"/><path d="M171,151.31a6.36,6.36,0,1,0-6.36-6.36A6.36,6.36,0,0,0,171,151.31Z" fill="#5bb7b1"/><circle cx="171.03" cy="162.95" r="6.36" fill="#5bb7b1"/><path d="M171,187.31a6.36,6.36,0,1,0-6.36-6.36A6.36,6.36,0,0,0,171,187.31Z" fill="#5bb7b1"/><path d="M171,205.31a6.36,6.36,0,1,0-6.36-6.36A6.36,6.36,0,0,0,171,205.31Z" fill="#5bb7b1"/><path d="M171,223.31a6.36,6.36,0,1,0-6.36-6.36A6.36,6.36,0,0,0,171,223.31Z" fill="#5bb7b1"/><path d="M171,241.31a6.36,6.36,0,1,0-6.36-6.36A6.36,6.36,0,0,0,171,241.31Z" fill="#5bb7b1"/><circle cx="171.03" cy="252.95" r="6.36" fill="#5bb7b1"/><path d="M171,277.31a6.36,6.36,0,1,0-6.36-6.36A6.36,6.36,0,0,0,171,277.31Z" fill="#5bb7b1"/><path d="M171,295.31a6.36,6.36,0,1,0-6.36-6.36A6.36,6.36,0,0,0,171,295.31Z" fill="#5bb7b1"/><path d="M171,313.31a6.36,6.36,0,1,0-6.36-6.36A6.36,6.36,0,0,0,171,313.31Z" fill="#5bb7b1"/><path d="M171,331.31a6.36,6.36,0,1,0-6.36-6.36A6.36,6.36,0,0,0,171,331.31Z" fill="#5bb7b1"/><circle cx="171.03" cy="342.95" r="6.36" fill="#5bb7b1"/><path d="M171,367.31a6.36,6.36,0,1,0-6.36-6.36A6.36,6.36,0,0,0,171,367.31Z" fill="#5bb7b1"/><path d="M171,385.31a6.36,6.36,0,1,0-6.36-6.36A6.36,6.36,0,0,0,171,385.31Z" fill="#5bb7b1"/><path d="M405.14,187.31a6.36,6.36,0,1,0-6.36-6.36A6.36,6.36,0,0,0,405.14,187.31Z" fill="#5bb7b1"/><path d="M405.14,205.31a6.36,6.36,0,1,0-6.36-6.36A6.36,6.36,0,0,0,405.14,205.31Z" fill="#5bb7b1"/><path d="M405.14,223.31a6.36,6.36,0,1,0-6.36-6.36A6.36,6.36,0,0,0,405.14,223.31Z" fill="#5bb7b1"/><path d="M405.14,241.31a6.36,6.36,0,1,0-6.36-6.36A6.36,6.36,0,0,0,405.14,241.31Z" fill="#5bb7b1"/><path d="M405.14,259.31a6.36,6.36,0,1,0-6.36-6.36A6.36,6.36,0,0,0,405.14,259.31Z" fill="#5bb7b1"/><path d="M405.14,277.31a6.36,6.36,0,1,0-6.36-6.36A6.36,6.36,0,0,0,405.14,277.31Z" fill="#5bb7b1"/><path d="M405.14,295.31a6.36,6.36,0,1,0-6.36-6.36A6.36,6.36,0,0,0,405.14,295.31Z" fill="#5bb7b1"/><path d="M405.14,313.31a6.36,6.36,0,1,0-6.36-6.36A6.36,6.36,0,0,0,405.14,313.31Z" fill="#5bb7b1"/><path d="M405.14,331.31a6.36,6.36,0,1,0-6.36-6.36A6.36,6.36,0,0,0,405.14,331.31Z" fill="#5bb7b1"/><path d="M405.14,349.31a6.36,6.36,0,1,0-6.36-6.36A6.36,6.36,0,0,0,405.14,349.31Z" fill="#5bb7b1"/><path d="M405.14,367.31a6.36,6.36,0,1,0-6.36-6.36A6.36,6.36,0,0,0,405.14,367.31Z" fill="#5bb7b1"/><path d="M405.14,385.31a6.36,6.36,0,1,0-6.36-6.36A6.36,6.36,0,0,0,405.14,385.31Z" fill="#5bb7b1"/><path d="M387.13,187.31a6.36,6.36,0,1,0-6.36-6.36A6.36,6.36,0,0,0,387.13,187.31Z" fill="#5bb7b1"/><path d="M387.13,205.31a6.36,6.36,0,1,0-6.36-6.36A6.36,6.36,0,0,0,387.13,205.31Z" fill="#5bb7b1"/><path d="M387.13,223.31a6.36,6.36,0,1,0-6.36-6.36A6.36,6.36,0,0,0,387.13,223.31Z" fill="#5bb7b1"/><path d="M387.13,241.31a6.36,6.36,0,1,0-6.36-6.36A6.36,6.36,0,0,0,387.13,241.31Z" fill="#5bb7b1"/><path d="M387.13,259.31a6.36,6.36,0,1,0-6.36-6.36A6.36,6.36,0,0,0,387.13,259.31Z" fill="#5bb7b1"/><path d="M387.13,277.31a6.36,6.36,0,1,0-6.36-6.36A6.36,6.36,0,0,0,387.13,277.31Z" fill="#5bb7b1"/><path d="M387.13,295.31a6.36,6.36,0,1,0-6.36-6.36A6.36,6.36,0,0,0,387.13,295.31Z" fill="#5bb7b1"/><path d="M387.13,313.31a6.36,6.36,0,1,0-6.36-6.36A6.36,6.36,0,0,0,387.13,313.31Z" fill="#5bb7b1"/><path d="M387.13,331.31a6.36,6.36,0,1,0-6.36-6.36A6.36,6.36,0,0,0,387.13,331.31Z" fill="#5bb7b1"/><path d="M387.13,349.31a6.36,6.36,0,1,0-6.36-6.36A6.36,6.36,0,0,0,387.13,349.31Z" fill="#5bb7b1"/><path d="M387.13,367.31a6.36,6.36,0,1,0-6.36-6.36A6.36,6.36,0,0,0,387.13,367.31Z" fill="#5bb7b1"/><path d="M387.13,385.31a6.36,6.36,0,1,0-6.36-6.36A6.36,6.36,0,0,0,387.13,385.31Z" fill="#5bb7b1"/><path d="M387.13,403.31a6.36,6.36,0,1,0-6.36-6.36A6.36,6.36,0,0,0,387.13,403.31Z" fill="#5bb7b1"/><path d="M189,79.31A6.36,6.36,0,1,0,182.68,73,6.36,6.36,0,0,0,189,79.31Z" fill="#5bb7b1"/><path d="M189,97.31A6.36,6.36,0,1,0,182.68,91,6.36,6.36,0,0,0,189,97.31Z" fill="#5bb7b1"/><path d="M189,115.31a6.36,6.36,0,1,0-6.36-6.36A6.36,6.36,0,0,0,189,115.31Z" fill="#5bb7b1"/><path d="M189,133.31a6.36,6.36,0,1,0-6.36-6.36A6.36,6.36,0,0,0,189,133.31Z" fill="#5bb7b1"/><path d="M189,151.31a6.36,6.36,0,1,0-6.36-6.36A6.36,6.36,0,0,0,189,151.31Z" fill="#5bb7b1"/><path d="M189,169.31a6.36,6.36,0,1,0-6.36-6.36A6.36,6.36,0,0,0,189,169.31Z" fill="#5bb7b1"/><path d="M189,187.31a6.36,6.36,0,1,0-6.36-6.36A6.36,6.36,0,0,0,189,187.31Z" fill="#5bb7b1"/><path d="M189,205.31a6.36,6.36,0,1,0-6.36-6.36A6.36,6.36,0,0,0,189,205.31Z" fill="#5bb7b1"/><path d="M189,223.31a6.36,6.36,0,1,0-6.36-6.36A6.36,6.36,0,0,0,189,223.31Z" fill="#5bb7b1"/><path d="M189,241.31a6.36,6.36,0,1,0-6.36-6.36A6.36,6.36,0,0,0,189,241.31Z" fill="#5bb7b1"/><path d="M189,259.31a6.36,6.36,0,1,0-6.36-6.36A6.36,6.36,0,0,0,189,259.31Z" fill="#5bb7b1"/><path d="M189,277.31a6.36,6.36,0,1,0-6.36-6.36A6.36,6.36,0,0,0,189,277.31Z" fill="#5bb7b1"/><path d="M189,295.31a6.36,6.36,0,1,0-6.36-6.36A6.36,6.36,0,0,0,189,295.31Z" fill="#5bb7b1"/><path d="M189,313.31a6.36,6.36,0,1,0-6.36-6.36A6.36,6.36,0,0,0,189,313.31Z" fill="#5bb7b1"/><path d="M189,331.31a6.36,6.36,0,1,0-6.36-6.36A6.36,6.36,0,0,0,189,331.31Z" fill="#5bb7b1"/><path d="M189,349.31a6.36,6.36,0,1,0-6.36-6.36A6.36,6.36,0,0,0,189,349.31Z" fill="#5bb7b1"/><path d="M189,367.31a6.36,6.36,0,1,0-6.36-6.36A6.36,6.36,0,0,0,189,367.31Z" fill="#5bb7b1"/><path d="M189,385.31a6.36,6.36,0,1,0-6.36-6.36A6.36,6.36,0,0,0,189,385.31Z" fill="#5bb7b1"/><path d="M189,403.31a6.36,6.36,0,1,0-6.36-6.36A6.36,6.36,0,0,0,189,403.31Z" fill="#5bb7b1"/><path d="M189,421.31a6.36,6.36,0,1,0-6.36-6.36A6.36,6.36,0,0,0,189,421.31Z" fill="#5bb7b1"/><path d="M369.12,169.31a6.36,6.36,0,1,0-6.36-6.36A6.36,6.36,0,0,0,369.12,169.31Z" fill="#5bb7b1"/><path d="M369.12,187.31a6.36,6.36,0,1,0-6.36-6.36A6.36,6.36,0,0,0,369.12,187.31Z" fill="#5bb7b1"/><path d="M369.12,205.31a6.36,6.36,0,1,0-6.36-6.36A6.36,6.36,0,0,0,369.12,205.31Z" fill="#5bb7b1"/><path d="M369.12,223.31a6.36,6.36,0,1,0-6.36-6.36A6.36,6.36,0,0,0,369.12,223.31Z" fill="#5bb7b1"/><path d="M369.12,241.31a6.36,6.36,0,1,0-6.36-6.36A6.36,6.36,0,0,0,369.12,241.31Z" fill="#5bb7b1"/><path d="M369.12,259.31a6.36,6.36,0,1,0-6.36-6.36A6.36,6.36,0,0,0,369.12,259.31Z" fill="#5bb7b1"/><path d="M369.12,277.31a6.36,6.36,0,1,0-6.36-6.36A6.36,6.36,0,0,0,369.12,277.31Z" fill="#5bb7b1"/><path d="M369.12,295.31a6.36,6.36,0,1,0-6.36-6.36A6.36,6.36,0,0,0,369.12,295.31Z" fill="#5bb7b1"/><path d="M369.12,313.31a6.36,6.36,0,1,0-6.36-6.36A6.36,6.36,0,0,0,369.12,313.31Z" fill="#5bb7b1"/><path d="M369.12,331.31a6.36,6.36,0,1,0-6.36-6.36A6.36,6.36,0,0,0,369.12,331.31Z" fill="#5bb7b1"/><path d="M369.12,349.31a6.36,6.36,0,1,0-6.36-6.36A6.36,6.36,0,0,0,369.12,349.31Z" fill="#5bb7b1"/><path d="M369.12,367.31a6.36,6.36,0,1,0-6.36-6.36A6.36,6.36,0,0,0,369.12,367.31Z" fill="#5bb7b1"/><path d="M369.12,385.31a6.36,6.36,0,1,0-6.36-6.36A6.36,6.36,0,0,0,369.12,385.31Z" fill="#5bb7b1"/><path d="M369.12,403.31a6.36,6.36,0,1,0-6.36-6.36A6.36,6.36,0,0,0,369.12,403.31Z" fill="#5bb7b1"/><path d="M369.12,421.31a6.36,6.36,0,1,0-6.36-6.36A6.36,6.36,0,0,0,369.12,421.31Z" fill="#5bb7b1"/><path d="M207,43.31A6.36,6.36,0,1,0,200.68,37,6.37,6.37,0,0,0,207,43.31Z" fill="#5bb7b1"/><path d="M207,61.31A6.36,6.36,0,1,0,200.68,55,6.37,6.37,0,0,0,207,61.31Z" fill="#5bb7b1"/><path d="M207,79.31A6.36,6.36,0,1,0,200.68,73,6.37,6.37,0,0,0,207,79.31Z" fill="#5bb7b1"/><path d="M207,97.31A6.36,6.36,0,1,0,200.68,91,6.37,6.37,0,0,0,207,97.31Z" fill="#5bb7b1"/><path d="M207,115.31a6.36,6.36,0,1,0-6.36-6.36A6.37,6.37,0,0,0,207,115.31Z" fill="#5bb7b1"/><path d="M207,133.31a6.36,6.36,0,1,0-6.36-6.36A6.37,6.37,0,0,0,207,133.31Z" fill="#5bb7b1"/><path d="M207,151.31a6.36,6.36,0,1,0-6.36-6.36A6.37,6.37,0,0,0,207,151.31Z" fill="#5bb7b1"/><path d="M207,169.31a6.36,6.36,0,1,0-6.36-6.36A6.37,6.37,0,0,0,207,169.31Z" fill="#5bb7b1"/><path d="M207,187.31a6.36,6.36,0,1,0-6.36-6.36A6.37,6.37,0,0,0,207,187.31Z" fill="#5bb7b1"/><path d="M207,205.31a6.36,6.36,0,1,0-6.36-6.36A6.37,6.37,0,0,0,207,205.31Z" fill="#5bb7b1"/><path d="M207,223.31a6.36,6.36,0,1,0-6.36-6.36A6.37,6.37,0,0,0,207,223.31Z" fill="#5bb7b1"/><path d="M207,241.31a6.36,6.36,0,1,0-6.36-6.36A6.37,6.37,0,0,0,207,241.31Z" fill="#5bb7b1"/><path d="M207,259.31a6.36,6.36,0,1,0-6.36-6.36A6.37,6.37,0,0,0,207,259.31Z" fill="#5bb7b1"/><path d="M207,277.31a6.36,6.36,0,1,0-6.36-6.36A6.37,6.37,0,0,0,207,277.31Z" fill="#5bb7b1"/><path d="M207,295.31a6.36,6.36,0,1,0-6.36-6.36A6.37,6.37,0,0,0,207,295.31Z" fill="#5bb7b1"/><path d="M207,313.31a6.36,6.36,0,1,0-6.36-6.36A6.37,6.37,0,0,0,207,313.31Z" fill="#5bb7b1"/><path d="M207,331.31a6.36,6.36,0,1,0-6.36-6.36A6.37,6.37,0,0,0,207,331.31Z" fill="#5bb7b1"/><path d="M207,349.31a6.36,6.36,0,1,0-6.36-6.36A6.37,6.37,0,0,0,207,349.31Z" fill="#5bb7b1"/><path d="M207,367.31a6.36,6.36,0,1,0-6.36-6.36A6.37,6.37,0,0,0,207,367.31Z" fill="#5bb7b1"/><path d="M207,385.31a6.36,6.36,0,1,0-6.36-6.36A6.37,6.37,0,0,0,207,385.31Z" fill="#5bb7b1"/><path d="M207,403.31a6.36,6.36,0,1,0-6.36-6.36A6.37,6.37,0,0,0,207,403.31Z" fill="#5bb7b1"/><path d="M207,421.31a6.36,6.36,0,1,0-6.36-6.36A6.36,6.36,0,0,0,207,421.31Z" fill="#5bb7b1"/><path d="M207,439.31a6.36,6.36,0,1,0-6.36-6.36A6.36,6.36,0,0,0,207,439.31Z" fill="#5bb7b1"/><path d="M207,457.31a6.36,6.36,0,1,0-6.36-6.36A6.36,6.36,0,0,0,207,457.31Z" fill="#5bb7b1"/><path d="M225.05,43.31A6.36,6.36,0,1,0,218.69,37,6.36,6.36,0,0,0,225.05,43.31Z" fill="#5bb7b1"/><path d="M225.05,61.31A6.36,6.36,0,1,0,218.69,55,6.36,6.36,0,0,0,225.05,61.31Z" fill="#5bb7b1"/><path d="M225.05,79.31A6.36,6.36,0,1,0,218.69,73,6.36,6.36,0,0,0,225.05,79.31Z" fill="#5bb7b1"/><path d="M225.05,97.31A6.36,6.36,0,1,0,218.69,91,6.36,6.36,0,0,0,225.05,97.31Z" fill="#5bb7b1"/><path d="M225.05,115.31a6.36,6.36,0,1,0-6.36-6.36A6.36,6.36,0,0,0,225.05,115.31Z" fill="#5bb7b1"/><path d="M225.05,133.31a6.36,6.36,0,1,0-6.36-6.36A6.36,6.36,0,0,0,225.05,133.31Z" fill="#5bb7b1"/><path d="M225.05,151.31a6.36,6.36,0,1,0-6.36-6.36A6.36,6.36,0,0,0,225.05,151.31Z" fill="#5bb7b1"/><path d="M225.05,169.31a6.36,6.36,0,1,0-6.36-6.36A6.36,6.36,0,0,0,225.05,169.31Z" fill="#5bb7b1"/><path d="M225.05,187.31a6.36,6.36,0,1,0-6.36-6.36A6.36,6.36,0,0,0,225.05,187.31Z" fill="#5bb7b1"/><path d="M225.05,205.31a6.36,6.36,0,1,0-6.36-6.36A6.36,6.36,0,0,0,225.05,205.31Z" fill="#5bb7b1"/><path d="M225.05,223.31a6.36,6.36,0,1,0-6.36-6.36A6.36,6.36,0,0,0,225.05,223.31Z" fill="#5bb7b1"/><path d="M225.05,241.31a6.36,6.36,0,1,0-6.36-6.36A6.36,6.36,0,0,0,225.05,241.31Z" fill="#5bb7b1"/><path d="M225.05,259.31a6.36,6.36,0,1,0-6.36-6.36A6.36,6.36,0,0,0,225.05,259.31Z" fill="#5bb7b1"/><path d="M225.05,277.31a6.36,6.36,0,1,0-6.36-6.36A6.36,6.36,0,0,0,225.05,277.31Z" fill="#5bb7b1"/><path d="M225.05,295.31a6.36,6.36,0,1,0-6.36-6.36A6.36,6.36,0,0,0,225.05,295.31Z" fill="#5bb7b1"/><path d="M225.05,313.31a6.36,6.36,0,1,0-6.36-6.36A6.36,6.36,0,0,0,225.05,313.31Z" fill="#5bb7b1"/><path d="M225.05,331.31a6.36,6.36,0,1,0-6.36-6.36A6.36,6.36,0,0,0,225.05,331.31Z" fill="#5bb7b1"/><path d="M225.05,349.31a6.36,6.36,0,1,0-6.36-6.36A6.36,6.36,0,0,0,225.05,349.31Z" fill="#5bb7b1"/><path d="M225.05,367.31a6.36,6.36,0,1,0-6.36-6.36A6.36,6.36,0,0,0,225.05,367.31Z" fill="#5bb7b1"/><path d="M225.05,385.31a6.36,6.36,0,1,0-6.36-6.36A6.36,6.36,0,0,0,225.05,385.31Z" fill="#5bb7b1"/><path d="M225.05,403.31a6.36,6.36,0,1,0-6.36-6.36A6.36,6.36,0,0,0,225.05,403.31Z" fill="#5bb7b1"/><path d="M225.05,421.31a6.36,6.36,0,1,0-6.36-6.36A6.35,6.35,0,0,0,225.05,421.31Z" fill="#5bb7b1"/><path d="M225.05,439.31a6.36,6.36,0,1,0-6.36-6.36A6.35,6.35,0,0,0,225.05,439.31Z" fill="#5bb7b1"/><path d="M225.05,457.31a6.36,6.36,0,1,0-6.36-6.36A6.35,6.35,0,0,0,225.05,457.31Z" fill="#5bb7b1"/><path d="M225.05,475.31a6.36,6.36,0,1,0-6.36-6.36A6.35,6.35,0,0,0,225.05,475.31Z" fill="#5bb7b1"/><path d="M225.05,493.31a6.36,6.36,0,1,0-6.36-6.36A6.35,6.35,0,0,0,225.05,493.31Z" fill="#5bb7b1"/><circle cx="351.11" cy="162.95" r="6.36" fill="#5bb7b1"/><path d="M351.11,187.31a6.36,6.36,0,1,0-6.36-6.36A6.36,6.36,0,0,0,351.11,187.31Z" fill="#5bb7b1"/><path d="M351.11,205.31a6.36,6.36,0,1,0-6.36-6.36A6.36,6.36,0,0,0,351.11,205.31Z" fill="#5bb7b1"/><path d="M351.11,223.31a6.36,6.36,0,1,0-6.36-6.36A6.36,6.36,0,0,0,351.11,223.31Z" fill="#5bb7b1"/><path d="M351.11,241.31a6.36,6.36,0,1,0-6.36-6.36A6.36,6.36,0,0,0,351.11,241.31Z" fill="#5bb7b1"/><circle cx="351.11" cy="252.95" r="6.36" fill="#5bb7b1"/><path d="M351.11,277.31a6.36,6.36,0,1,0-6.36-6.36A6.36,6.36,0,0,0,351.11,277.31Z" fill="#5bb7b1"/><path d="M351.11,295.31a6.36,6.36,0,1,0-6.36-6.36A6.36,6.36,0,0,0,351.11,295.31Z" fill="#5bb7b1"/><path d="M351.11,313.31a6.36,6.36,0,1,0-6.36-6.36A6.36,6.36,0,0,0,351.11,313.31Z" fill="#5bb7b1"/><path d="M351.11,331.31a6.36,6.36,0,1,0-6.36-6.36A6.36,6.36,0,0,0,351.11,331.31Z" fill="#5bb7b1"/><circle cx="351.11" cy="342.95" r="6.36" fill="#5bb7b1"/><path d="M351.11,367.31a6.36,6.36,0,1,0-6.36-6.36A6.36,6.36,0,0,0,351.11,367.31Z" fill="#5bb7b1"/><path d="M351.11,385.31a6.36,6.36,0,1,0-6.36-6.36A6.36,6.36,0,0,0,351.11,385.31Z" fill="#5bb7b1"/><path d="M351.11,403.31a6.36,6.36,0,1,0-6.36-6.36A6.36,6.36,0,0,0,351.11,403.31Z" fill="#5bb7b1"/><path d="M351.11,421.31a6.36,6.36,0,1,0-6.36-6.36A6.35,6.35,0,0,0,351.11,421.31Z" fill="#5bb7b1"/><path d="M351.11,475.31a6.36,6.36,0,1,0-6.36-6.36A6.35,6.35,0,0,0,351.11,475.31Z" fill="#5bb7b1"/><path d="M351.11,493.31a6.36,6.36,0,1,0-6.36-6.36A6.35,6.35,0,0,0,351.11,493.31Z" fill="#5bb7b1"/><path d="M243.06,43.31A6.36,6.36,0,1,0,236.7,37,6.36,6.36,0,0,0,243.06,43.31Z" fill="#5bb7b1"/><path d="M243.06,61.31A6.36,6.36,0,1,0,236.7,55,6.36,6.36,0,0,0,243.06,61.31Z" fill="#5bb7b1"/><circle cx="243.06" cy="72.95" r="6.36" fill="#5bb7b1"/><path d="M243.06,97.31A6.36,6.36,0,1,0,236.7,91,6.36,6.36,0,0,0,243.06,97.31Z" fill="#ff8200"/><path d="M243.06,115.31A6.36,6.36,0,1,0,236.7,109,6.36,6.36,0,0,0,243.06,115.31Z" fill="#5bb7b1"/><path d="M243.06,133.31A6.36,6.36,0,1,0,236.7,127,6.36,6.36,0,0,0,243.06,133.31Z" fill="#5bb7b1"/><path d="M243.06,151.31A6.36,6.36,0,1,0,236.7,145,6.36,6.36,0,0,0,243.06,151.31Z" fill="#5bb7b1"/><circle cx="243.06" cy="162.95" r="6.36" fill="#5bb7b1"/><path d="M243.06,187.31A6.36,6.36,0,1,0,236.7,181,6.36,6.36,0,0,0,243.06,187.31Z" fill="#5bb7b1"/><path d="M243.06,205.31A6.36,6.36,0,1,0,236.7,199,6.36,6.36,0,0,0,243.06,205.31Z" fill="#5bb7b1"/><path d="M243.06,223.31A6.36,6.36,0,1,0,236.7,217,6.36,6.36,0,0,0,243.06,223.31Z" fill="#5bb7b1"/><path d="M243.06,241.31A6.36,6.36,0,1,0,236.7,235,6.36,6.36,0,0,0,243.06,241.31Z" fill="#5bb7b1"/><circle cx="243.06" cy="252.95" r="6.36" fill="#5bb7b1"/><path d="M243.06,277.31A6.36,6.36,0,1,0,236.7,271,6.36,6.36,0,0,0,243.06,277.31Z" fill="#5bb7b1"/><path d="M243.06,295.31A6.36,6.36,0,1,0,236.7,289,6.36,6.36,0,0,0,243.06,295.31Z" fill="#5bb7b1"/><path d="M243.06,313.31A6.36,6.36,0,1,0,236.7,307,6.36,6.36,0,0,0,243.06,313.31Z" fill="#5bb7b1"/><path d="M243.06,331.31A6.36,6.36,0,1,0,236.7,325,6.36,6.36,0,0,0,243.06,331.31Z" fill="#5bb7b1"/><circle cx="243.06" cy="342.95" r="6.36" fill="#5bb7b1"/><path d="M243.06,367.31A6.36,6.36,0,1,0,236.7,361,6.36,6.36,0,0,0,243.06,367.31Z" fill="#5bb7b1"/><path d="M243.06,385.31A6.36,6.36,0,1,0,236.7,379,6.36,6.36,0,0,0,243.06,385.31Z" fill="#5bb7b1"/><path d="M243.06,403.31A6.36,6.36,0,1,0,236.7,397,6.36,6.36,0,0,0,243.06,403.31Z" fill="#5bb7b1"/><path d="M243.06,421.31A6.36,6.36,0,1,0,236.7,415,6.36,6.36,0,0,0,243.06,421.31Z" fill="#5bb7b1"/><path d="M243.06,439.31A6.36,6.36,0,1,0,236.7,433,6.36,6.36,0,0,0,243.06,439.31Z" fill="#5bb7b1"/><path d="M243.06,457.31A6.36,6.36,0,1,0,236.7,451,6.36,6.36,0,0,0,243.06,457.31Z" fill="#5bb7b1"/><path d="M243.06,475.31A6.36,6.36,0,1,0,236.7,469,6.36,6.36,0,0,0,243.06,475.31Z" fill="#5bb7b1"/><path d="M243.06,493.31A6.36,6.36,0,1,0,236.7,487,6.36,6.36,0,0,0,243.06,493.31Z" fill="#5bb7b1"/><path d="M243.06,511.31A6.36,6.36,0,1,0,236.7,505,6.36,6.36,0,0,0,243.06,511.31Z" fill="#5bb7b1"/><path d="M603.23,133.31a6.36,6.36,0,1,0-6.36-6.36A6.36,6.36,0,0,0,603.23,133.31Z" fill="#5bb7b1"/><path d="M603.23,151.31a6.36,6.36,0,1,0-6.36-6.36A6.36,6.36,0,0,0,603.23,151.31Z" fill="#5bb7b1"/><path d="M603.23,169.31a6.36,6.36,0,1,0-6.36-6.36A6.36,6.36,0,0,0,603.23,169.31Z" fill="#5bb7b1"/><path d="M603.23,187.31a6.36,6.36,0,1,0-6.36-6.36A6.36,6.36,0,0,0,603.23,187.31Z" fill="#5bb7b1"/><path d="M603.23,205.31a6.36,6.36,0,1,0-6.36-6.36A6.36,6.36,0,0,0,603.23,205.31Z" fill="#5bb7b1"/><path d="M603.23,223.31a6.36,6.36,0,1,0-6.36-6.36A6.36,6.36,0,0,0,603.23,223.31Z" fill="#5bb7b1"/><path d="M603.23,241.31a6.36,6.36,0,1,0-6.36-6.36A6.36,6.36,0,0,0,603.23,241.31Z" fill="#5bb7b1"/><path d="M603.23,259.31a6.36,6.36,0,1,0-6.36-6.36A6.36,6.36,0,0,0,603.23,259.31Z" fill="#5bb7b1"/><path d="M603.23,277.31a6.36,6.36,0,1,0-6.36-6.36A6.36,6.36,0,0,0,603.23,277.31Z" fill="#5bb7b1"/><path d="M603.23,295.31a6.36,6.36,0,1,0-6.36-6.36A6.36,6.36,0,0,0,603.23,295.31Z" fill="#5bb7b1"/><path d="M603.23,475.31a6.36,6.36,0,1,0-6.36-6.36A6.36,6.36,0,0,0,603.23,475.31Z" fill="#5bb7b1"/><path d="M603.23,493.31a6.36,6.36,0,1,0-6.36-6.36A6.36,6.36,0,0,0,603.23,493.31Z" fill="#5bb7b1"/><path d="M603.23,511.31a6.36,6.36,0,1,0-6.36-6.36A6.36,6.36,0,0,0,603.23,511.31Z" fill="#5bb7b1"/><path d="M603.23,529.31a6.36,6.36,0,1,0-6.36-6.36A6.36,6.36,0,0,0,603.23,529.31Z" fill="#5bb7b1"/><path d="M603.23,547.31a6.36,6.36,0,1,0-6.36-6.36A6.36,6.36,0,0,0,603.23,547.31Z" fill="#5bb7b1"/><path d="M261.07,43.31A6.36,6.36,0,1,0,254.71,37,6.36,6.36,0,0,0,261.07,43.31Z" fill="#5bb7b1"/><path d="M261.07,61.31A6.36,6.36,0,1,0,254.71,55,6.36,6.36,0,0,0,261.07,61.31Z" fill="#5bb7b1"/><circle cx="261.07" cy="72.95" r="6.36" fill="#5bb7b1"/><path d="M261.07,97.31A6.36,6.36,0,1,0,254.71,91,6.36,6.36,0,0,0,261.07,97.31Z" fill="#5bb7b1"/><path d="M261.07,115.31a6.36,6.36,0,1,0-6.36-6.36A6.36,6.36,0,0,0,261.07,115.31Z" fill="#5bb7b1"/><path d="M261.07,133.31a6.36,6.36,0,1,0-6.36-6.36A6.36,6.36,0,0,0,261.07,133.31Z" fill="#5bb7b1"/><path d="M261.07,151.31a6.36,6.36,0,1,0-6.36-6.36A6.36,6.36,0,0,0,261.07,151.31Z" fill="#5bb7b1"/><circle cx="261.07" cy="162.95" r="6.36" fill="#5bb7b1"/><path d="M261.07,187.31a6.36,6.36,0,1,0-6.36-6.36A6.36,6.36,0,0,0,261.07,187.31Z" fill="#5bb7b1"/><path d="M261.07,205.31a6.36,6.36,0,1,0-6.36-6.36A6.36,6.36,0,0,0,261.07,205.31Z" fill="#5bb7b1"/><path d="M261.07,223.31a6.36,6.36,0,1,0-6.36-6.36A6.36,6.36,0,0,0,261.07,223.31Z" fill="#5bb7b1"/><path d="M261.07,241.31a6.36,6.36,0,1,0-6.36-6.36A6.36,6.36,0,0,0,261.07,241.31Z" fill="#5bb7b1"/><circle cx="261.07" cy="252.95" r="6.36" fill="#5bb7b1"/><path d="M261.07,277.31a6.36,6.36,0,1,0-6.36-6.36A6.36,6.36,0,0,0,261.07,277.31Z" fill="#5bb7b1"/><path d="M261.07,295.31a6.36,6.36,0,1,0-6.36-6.36A6.36,6.36,0,0,0,261.07,295.31Z" fill="#5bb7b1"/><path d="M261.07,313.31a6.36,6.36,0,1,0-6.36-6.36A6.36,6.36,0,0,0,261.07,313.31Z" fill="#5bb7b1"/><path d="M261.07,331.31a6.36,6.36,0,1,0-6.36-6.36A6.36,6.36,0,0,0,261.07,331.31Z" fill="#5bb7b1"/><circle cx="261.07" cy="342.95" r="6.36" fill="#5bb7b1"/><path d="M261.07,367.31a6.36,6.36,0,1,0-6.36-6.36A6.36,6.36,0,0,0,261.07,367.31Z" fill="#5bb7b1"/><path d="M261.07,385.31a6.36,6.36,0,1,0-6.36-6.36A6.36,6.36,0,0,0,261.07,385.31Z" fill="#5bb7b1"/><path d="M261.07,403.31a6.36,6.36,0,1,0-6.36-6.36A6.36,6.36,0,0,0,261.07,403.31Z" fill="#5bb7b1"/><path d="M261.07,421.31a6.36,6.36,0,1,0-6.36-6.36A6.36,6.36,0,0,0,261.07,421.31Z" fill="#5bb7b1"/><path d="M261.07,439.31a6.36,6.36,0,1,0-6.36-6.36A6.36,6.36,0,0,0,261.07,439.31Z" fill="#5bb7b1"/><path d="M261.07,457.31a6.36,6.36,0,1,0-6.36-6.36A6.36,6.36,0,0,0,261.07,457.31Z" fill="#5bb7b1"/><path d="M261.07,475.31a6.36,6.36,0,1,0-6.36-6.36A6.36,6.36,0,0,0,261.07,475.31Z" fill="#5bb7b1"/><path d="M261.07,493.31a6.36,6.36,0,1,0-6.36-6.36A6.36,6.36,0,0,0,261.07,493.31Z" fill="#5bb7b1"/><path d="M261.07,511.31a6.36,6.36,0,1,0-6.36-6.36A6.36,6.36,0,0,0,261.07,511.31Z" fill="#5bb7b1"/><path d="M261.07,529.31a6.36,6.36,0,1,0-6.36-6.36A6.36,6.36,0,0,0,261.07,529.31Z" fill="#5bb7b1"/><path d="M261.07,547.31a6.36,6.36,0,1,0-6.36-6.36A6.36,6.36,0,0,0,261.07,547.31Z" fill="#5bb7b1"/><path d="M261.07,565.32a6.37,6.37,0,1,0-6.36-6.36A6.36,6.36,0,0,0,261.07,565.32Z" fill="#5bb7b1"/><path d="M315.1,115.31a6.36,6.36,0,1,0-6.36-6.36A6.36,6.36,0,0,0,315.1,115.31Z" fill="#5bb7b1"/><path d="M315.1,133.31a6.36,6.36,0,1,0-6.36-6.36A6.36,6.36,0,0,0,315.1,133.31Z" fill="#5bb7b1"/><path d="M315.1,151.31a6.36,6.36,0,1,0-6.36-6.36A6.36,6.36,0,0,0,315.1,151.31Z" fill="#5bb7b1"/><path d="M315.1,169.31a6.36,6.36,0,1,0-6.36-6.36A6.36,6.36,0,0,0,315.1,169.31Z" fill="#5bb7b1"/><path d="M315.1,187.31a6.36,6.36,0,1,0-6.36-6.36A6.36,6.36,0,0,0,315.1,187.31Z" fill="#5bb7b1"/><path d="M315.1,205.31a6.36,6.36,0,1,0-6.36-6.36A6.36,6.36,0,0,0,315.1,205.31Z" fill="#5bb7b1"/><path d="M315.1,223.31a6.36,6.36,0,1,0-6.36-6.36A6.36,6.36,0,0,0,315.1,223.31Z" fill="#5bb7b1"/><path d="M315.1,241.31a6.36,6.36,0,1,0-6.36-6.36A6.36,6.36,0,0,0,315.1,241.31Z" fill="#5bb7b1"/><path d="M315.1,259.31a6.36,6.36,0,1,0-6.36-6.36A6.36,6.36,0,0,0,315.1,259.31Z" fill="#5bb7b1"/><path d="M315.1,277.31a6.36,6.36,0,1,0-6.36-6.36A6.36,6.36,0,0,0,315.1,277.31Z" fill="#5bb7b1"/><path d="M315.1,295.31a6.36,6.36,0,1,0-6.36-6.36A6.36,6.36,0,0,0,315.1,295.31Z" fill="#5bb7b1"/><path d="M315.1,313.31a6.36,6.36,0,1,0-6.36-6.36A6.36,6.36,0,0,0,315.1,313.31Z" fill="#5bb7b1"/><path d="M315.1,331.31a6.36,6.36,0,1,0-6.36-6.36A6.36,6.36,0,0,0,315.1,331.31Z" fill="#5bb7b1"/><path d="M315.1,349.31a6.36,6.36,0,1,0-6.36-6.36A6.36,6.36,0,0,0,315.1,349.31Z" fill="#5bb7b1"/><path d="M315.1,367.31a6.36,6.36,0,1,0-6.36-6.36A6.36,6.36,0,0,0,315.1,367.31Z" fill="#5bb7b1"/><path d="M315.1,385.31a6.36,6.36,0,1,0-6.36-6.36A6.36,6.36,0,0,0,315.1,385.31Z" fill="#5bb7b1"/><path d="M315.1,403.31a6.36,6.36,0,1,0-6.36-6.36A6.36,6.36,0,0,0,315.1,403.31Z" fill="#5bb7b1"/><path d="M315.1,421.31a6.36,6.36,0,1,0-6.36-6.36A6.36,6.36,0,0,0,315.1,421.31Z" fill="#5bb7b1"/><path d="M315.1,439.31a6.36,6.36,0,1,0-6.36-6.36A6.36,6.36,0,0,0,315.1,439.31Z" fill="#5bb7b1"/><path d="M315.1,457.31a6.36,6.36,0,1,0-6.36-6.36A6.36,6.36,0,0,0,315.1,457.31Z" fill="#5bb7b1"/><path d="M315.1,475.31a6.36,6.36,0,1,0-6.36-6.36A6.36,6.36,0,0,0,315.1,475.31Z" fill="#5bb7b1"/><path d="M315.1,493.31a6.36,6.36,0,1,0-6.36-6.36A6.36,6.36,0,0,0,315.1,493.31Z" fill="#5bb7b1"/><path d="M315.1,511.31a6.36,6.36,0,1,0-6.36-6.36A6.36,6.36,0,0,0,315.1,511.31Z" fill="#5bb7b1"/><path d="M315.1,529.31a6.36,6.36,0,1,0-6.36-6.36A6.36,6.36,0,0,0,315.1,529.31Z" fill="#5bb7b1"/><path d="M315.1,547.31a6.36,6.36,0,1,0-6.36-6.36A6.36,6.36,0,0,0,315.1,547.31Z" fill="#5bb7b1"/><path d="M315.1,565.32a6.37,6.37,0,1,0-6.36-6.36A6.36,6.36,0,0,0,315.1,565.32Z" fill="#5bb7b1"/><path d="M333.1,151.31a6.36,6.36,0,1,0-6.36-6.36A6.37,6.37,0,0,0,333.1,151.31Z" fill="#5bb7b1"/><circle cx="333.1" cy="162.95" r="6.36" fill="#5bb7b1"/><path d="M333.1,187.31a6.36,6.36,0,1,0-6.36-6.36A6.37,6.37,0,0,0,333.1,187.31Z" fill="#5bb7b1"/><path d="M333.1,205.31a6.36,6.36,0,1,0-6.36-6.36A6.37,6.37,0,0,0,333.1,205.31Z" fill="#5bb7b1"/><path d="M333.1,223.31a6.36,6.36,0,1,0-6.36-6.36A6.37,6.37,0,0,0,333.1,223.31Z" fill="#5bb7b1"/><path d="M333.1,241.31a6.36,6.36,0,1,0-6.36-6.36A6.37,6.37,0,0,0,333.1,241.31Z" fill="#5bb7b1"/><circle cx="333.1" cy="252.95" r="6.36" fill="#5bb7b1"/><path d="M333.1,277.31a6.36,6.36,0,1,0-6.36-6.36A6.37,6.37,0,0,0,333.1,277.31Z" fill="#5bb7b1"/><path d="M333.1,295.31a6.36,6.36,0,1,0-6.36-6.36A6.37,6.37,0,0,0,333.1,295.31Z" fill="#5bb7b1"/><path d="M333.1,313.31a6.36,6.36,0,1,0-6.36-6.36A6.37,6.37,0,0,0,333.1,313.31Z" fill="#5bb7b1"/><path d="M333.1,331.31a6.36,6.36,0,1,0-6.36-6.36A6.37,6.37,0,0,0,333.1,331.31Z" fill="#5bb7b1"/><circle cx="333.1" cy="342.95" r="6.36" fill="#5bb7b1"/><path d="M333.1,367.31a6.36,6.36,0,1,0-6.36-6.36A6.37,6.37,0,0,0,333.1,367.31Z" fill="#5bb7b1"/><path d="M333.1,385.31a6.36,6.36,0,1,0-6.36-6.36A6.37,6.37,0,0,0,333.1,385.31Z" fill="#5bb7b1"/><path d="M333.1,403.31a6.36,6.36,0,1,0-6.36-6.36A6.37,6.37,0,0,0,333.1,403.31Z" fill="#5bb7b1"/><path d="M333.1,421.31a6.36,6.36,0,1,0-6.36-6.36A6.36,6.36,0,0,0,333.1,421.31Z" fill="#5bb7b1"/><path d="M333.1,439.31a6.36,6.36,0,1,0-6.36-6.36A6.36,6.36,0,0,0,333.1,439.31Z" fill="#5bb7b1"/><path d="M333.1,457.31a6.36,6.36,0,1,0-6.36-6.36A6.36,6.36,0,0,0,333.1,457.31Z" fill="#5bb7b1"/><path d="M333.1,475.31a6.36,6.36,0,1,0-6.36-6.36A6.36,6.36,0,0,0,333.1,475.31Z" fill="#5bb7b1"/><path d="M333.1,493.31a6.36,6.36,0,1,0-6.36-6.36A6.36,6.36,0,0,0,333.1,493.31Z" fill="#5bb7b1"/><path d="M333.1,511.31a6.36,6.36,0,1,0-6.36-6.36A6.36,6.36,0,0,0,333.1,511.31Z" fill="#5bb7b1"/><path d="M333.1,529.31a6.36,6.36,0,1,0-6.36-6.36A6.36,6.36,0,0,0,333.1,529.31Z" fill="#5bb7b1"/><path d="M333.1,547.31a6.36,6.36,0,1,0-6.36-6.36A6.36,6.36,0,0,0,333.1,547.31Z" fill="#5bb7b1"/><path d="M333.1,565.32a6.37,6.37,0,1,0-6.36-6.36A6.37,6.37,0,0,0,333.1,565.32Z" fill="#5bb7b1"/><path d="M279.08,79.31A6.36,6.36,0,1,0,272.72,73,6.36,6.36,0,0,0,279.08,79.31Z" fill="#5bb7b1"/><path d="M279.08,97.31A6.36,6.36,0,1,0,272.72,91,6.36,6.36,0,0,0,279.08,97.31Z" fill="#5bb7b1"/><path d="M279.08,115.31a6.36,6.36,0,1,0-6.36-6.36A6.36,6.36,0,0,0,279.08,115.31Z" fill="#5bb7b1"/><path d="M279.08,133.31a6.36,6.36,0,1,0-6.36-6.36A6.36,6.36,0,0,0,279.08,133.31Z" fill="#5bb7b1"/><path d="M279.08,151.31a6.36,6.36,0,1,0-6.36-6.36A6.36,6.36,0,0,0,279.08,151.31Z" fill="#5bb7b1"/><path d="M279.08,169.31a6.36,6.36,0,1,0-6.36-6.36A6.36,6.36,0,0,0,279.08,169.31Z" fill="#5bb7b1"/><path d="M279.08,187.31a6.36,6.36,0,1,0-6.36-6.36A6.36,6.36,0,0,0,279.08,187.31Z" fill="#5bb7b1"/><path d="M279.08,205.31a6.36,6.36,0,1,0-6.36-6.36A6.36,6.36,0,0,0,279.08,205.31Z" fill="#5bb7b1"/><path d="M279.08,223.31a6.36,6.36,0,1,0-6.36-6.36A6.36,6.36,0,0,0,279.08,223.31Z" fill="#5bb7b1"/><path d="M279.08,241.31a6.36,6.36,0,1,0-6.36-6.36A6.36,6.36,0,0,0,279.08,241.31Z" fill="#5bb7b1"/><path d="M279.08,259.31a6.36,6.36,0,1,0-6.36-6.36A6.36,6.36,0,0,0,279.08,259.31Z" fill="#5bb7b1"/><path d="M279.08,277.31a6.36,6.36,0,1,0-6.36-6.36A6.36,6.36,0,0,0,279.08,277.31Z" fill="#5bb7b1"/><path d="M279.08,295.31a6.36,6.36,0,1,0-6.36-6.36A6.36,6.36,0,0,0,279.08,295.31Z" fill="#5bb7b1"/><path d="M279.08,313.31a6.36,6.36,0,1,0-6.36-6.36A6.36,6.36,0,0,0,279.08,313.31Z" fill="#5bb7b1"/><path d="M279.08,331.31a6.36,6.36,0,1,0-6.36-6.36A6.36,6.36,0,0,0,279.08,331.31Z" fill="#5bb7b1"/><path d="M279.08,349.31a6.36,6.36,0,1,0-6.36-6.36A6.36,6.36,0,0,0,279.08,349.31Z" fill="#5bb7b1"/><path d="M279.08,367.31a6.36,6.36,0,1,0-6.36-6.36A6.36,6.36,0,0,0,279.08,367.31Z" fill="#5bb7b1"/><path d="M279.08,385.31a6.36,6.36,0,1,0-6.36-6.36A6.36,6.36,0,0,0,279.08,385.31Z" fill="#5bb7b1"/><path d="M279.08,403.31a6.36,6.36,0,1,0-6.36-6.36A6.36,6.36,0,0,0,279.08,403.31Z" fill="#5bb7b1"/><path d="M279.08,421.31a6.36,6.36,0,1,0-6.36-6.36A6.36,6.36,0,0,0,279.08,421.31Z" fill="#5bb7b1"/><path d="M279.08,439.31a6.36,6.36,0,1,0-6.36-6.36A6.36,6.36,0,0,0,279.08,439.31Z" fill="#5bb7b1"/><path d="M279.08,457.31a6.36,6.36,0,1,0-6.36-6.36A6.36,6.36,0,0,0,279.08,457.31Z" fill="#5bb7b1"/><path d="M279.08,475.31a6.36,6.36,0,1,0-6.36-6.36A6.36,6.36,0,0,0,279.08,475.31Z" fill="#5bb7b1"/><path d="M279.08,493.31a6.36,6.36,0,1,0-6.36-6.36A6.36,6.36,0,0,0,279.08,493.31Z" fill="#5bb7b1"/><path d="M279.08,511.31a6.36,6.36,0,1,0-6.36-6.36A6.36,6.36,0,0,0,279.08,511.31Z" fill="#5bb7b1"/><path d="M279.08,529.31a6.36,6.36,0,1,0-6.36-6.36A6.36,6.36,0,0,0,279.08,529.31Z" fill="#5bb7b1"/><path d="M279.08,547.31a6.36,6.36,0,1,0-6.36-6.36A6.36,6.36,0,0,0,279.08,547.31Z" fill="#5bb7b1"/><path d="M279.08,565.32a6.37,6.37,0,1,0-6.36-6.36A6.36,6.36,0,0,0,279.08,565.32Z" fill="#5bb7b1"/><path d="M279.08,583.32a6.37,6.37,0,1,0-6.36-6.37A6.37,6.37,0,0,0,279.08,583.32Z" fill="#5bb7b1"/><path d="M297.09,97.31A6.36,6.36,0,1,0,290.73,91,6.36,6.36,0,0,0,297.09,97.31Z" fill="#5bb7b1"/><path d="M297.09,115.31a6.36,6.36,0,1,0-6.36-6.36A6.36,6.36,0,0,0,297.09,115.31Z" fill="#5bb7b1"/><path d="M297.09,133.31a6.36,6.36,0,1,0-6.36-6.36A6.36,6.36,0,0,0,297.09,133.31Z" fill="#5bb7b1"/><path d="M297.09,151.31a6.36,6.36,0,1,0-6.36-6.36A6.36,6.36,0,0,0,297.09,151.31Z" fill="#5bb7b1"/><path d="M297.09,169.31a6.36,6.36,0,1,0-6.36-6.36A6.36,6.36,0,0,0,297.09,169.31Z" fill="#5bb7b1"/><path d="M297.09,187.31a6.36,6.36,0,1,0-6.36-6.36A6.36,6.36,0,0,0,297.09,187.31Z" fill="#5bb7b1"/><path d="M297.09,205.31a6.36,6.36,0,1,0-6.36-6.36A6.36,6.36,0,0,0,297.09,205.31Z" fill="#5bb7b1"/><path d="M297.09,223.31a6.36,6.36,0,1,0-6.36-6.36A6.36,6.36,0,0,0,297.09,223.31Z" fill="#5bb7b1"/><path d="M297.09,241.31a6.36,6.36,0,1,0-6.36-6.36A6.36,6.36,0,0,0,297.09,241.31Z" fill="#5bb7b1"/><path d="M297.09,259.31a6.36,6.36,0,1,0-6.36-6.36A6.36,6.36,0,0,0,297.09,259.31Z" fill="#5bb7b1"/><path d="M297.09,277.31a6.36,6.36,0,1,0-6.36-6.36A6.36,6.36,0,0,0,297.09,277.31Z" fill="#5bb7b1"/><path d="M297.09,295.31a6.36,6.36,0,1,0-6.36-6.36A6.36,6.36,0,0,0,297.09,295.31Z" fill="#5bb7b1"/><path d="M297.09,313.31a6.36,6.36,0,1,0-6.36-6.36A6.36,6.36,0,0,0,297.09,313.31Z" fill="#5bb7b1"/><path d="M297.09,331.31a6.36,6.36,0,1,0-6.36-6.36A6.36,6.36,0,0,0,297.09,331.31Z" fill="#5bb7b1"/><path d="M297.09,349.31a6.36,6.36,0,1,0-6.36-6.36A6.36,6.36,0,0,0,297.09,349.31Z" fill="#5bb7b1"/><path d="M297.09,367.31a6.36,6.36,0,1,0-6.36-6.36A6.36,6.36,0,0,0,297.09,367.31Z" fill="#5bb7b1"/><path d="M297.09,385.31a6.36,6.36,0,1,0-6.36-6.36A6.36,6.36,0,0,0,297.09,385.31Z" fill="#5bb7b1"/><path d="M297.09,403.31a6.36,6.36,0,1,0-6.36-6.36A6.36,6.36,0,0,0,297.09,403.31Z" fill="#5bb7b1"/><path d="M297.09,421.31a6.36,6.36,0,1,0-6.36-6.36A6.36,6.36,0,0,0,297.09,421.31Z" fill="#5bb7b1"/><path d="M297.09,439.31a6.36,6.36,0,1,0-6.36-6.36A6.36,6.36,0,0,0,297.09,439.31Z" fill="#5bb7b1"/><path d="M297.09,457.31a6.36,6.36,0,1,0-6.36-6.36A6.36,6.36,0,0,0,297.09,457.31Z" fill="#5bb7b1"/><path d="M297.09,475.31a6.36,6.36,0,1,0-6.36-6.36A6.36,6.36,0,0,0,297.09,475.31Z" fill="#5bb7b1"/><path d="M297.09,493.31a6.36,6.36,0,1,0-6.36-6.36A6.36,6.36,0,0,0,297.09,493.31Z" fill="#5bb7b1"/><path d="M297.09,511.31a6.36,6.36,0,1,0-6.36-6.36A6.36,6.36,0,0,0,297.09,511.31Z" fill="#5bb7b1"/><path d="M297.09,529.31a6.36,6.36,0,1,0-6.36-6.36A6.36,6.36,0,0,0,297.09,529.31Z" fill="#5bb7b1"/><path d="M297.09,547.31a6.36,6.36,0,1,0-6.36-6.36A6.36,6.36,0,0,0,297.09,547.31Z" fill="#5bb7b1"/><path d="M297.09,565.32a6.37,6.37,0,1,0-6.36-6.36A6.36,6.36,0,0,0,297.09,565.32Z" fill="#5bb7b1"/><path d="M297.09,583.32a6.37,6.37,0,1,0-6.36-6.37A6.37,6.37,0,0,0,297.09,583.32Z" fill="#5bb7b1"/><path d="M621.24,133.31a6.36,6.36,0,1,0-6.36-6.36A6.36,6.36,0,0,0,621.24,133.31Z" fill="#5bb7b1"/><path d="M621.24,151.31a6.36,6.36,0,1,0-6.36-6.36A6.36,6.36,0,0,0,621.24,151.31Z" fill="#5bb7b1"/><path d="M621.24,169.31a6.36,6.36,0,1,0-6.36-6.36A6.36,6.36,0,0,0,621.24,169.31Z" fill="#5bb7b1"/><path d="M621.24,187.31a6.36,6.36,0,1,0-6.36-6.36A6.36,6.36,0,0,0,621.24,187.31Z" fill="#5bb7b1"/><path d="M621.24,205.31a6.36,6.36,0,1,0-6.36-6.36A6.36,6.36,0,0,0,621.24,205.31Z" fill="#5bb7b1"/><path d="M621.24,223.31a6.36,6.36,0,1,0-6.36-6.36A6.36,6.36,0,0,0,621.24,223.31Z" fill="#5bb7b1"/><path d="M621.24,241.31a6.36,6.36,0,1,0-6.36-6.36A6.36,6.36,0,0,0,621.24,241.31Z" fill="#5bb7b1"/><path d="M621.24,259.31a6.36,6.36,0,1,0-6.36-6.36A6.36,6.36,0,0,0,621.24,259.31Z" fill="#5bb7b1"/><path d="M621.24,457.31a6.36,6.36,0,1,0-6.36-6.36A6.36,6.36,0,0,0,621.24,457.31Z" fill="#5bb7b1"/><path d="M621.24,475.31a6.36,6.36,0,1,0-6.36-6.36A6.36,6.36,0,0,0,621.24,475.31Z" fill="#5bb7b1"/><path d="M621.24,493.31a6.36,6.36,0,1,0-6.36-6.36A6.36,6.36,0,0,0,621.24,493.31Z" fill="#5bb7b1"/><path d="M621.24,547.31a6.36,6.36,0,1,0-6.36-6.36A6.36,6.36,0,0,0,621.24,547.31Z" fill="#5bb7b1"/><path d="M621.24,565.32a6.37,6.37,0,1,0-6.36-6.36A6.36,6.36,0,0,0,621.24,565.32Z" fill="#5bb7b1"/><path d="M621.24,583.32a6.37,6.37,0,1,0-6.36-6.37A6.37,6.37,0,0,0,621.24,583.32Z" fill="#5bb7b1"/><path d="M639.25,133.31a6.36,6.36,0,1,0-6.36-6.36A6.36,6.36,0,0,0,639.25,133.31Z" fill="#5bb7b1"/><path d="M639.25,151.31a6.36,6.36,0,1,0-6.36-6.36A6.36,6.36,0,0,0,639.25,151.31Z" fill="#5bb7b1"/><path d="M639.25,169.31a6.36,6.36,0,1,0-6.36-6.36A6.36,6.36,0,0,0,639.25,169.31Z" fill="#5bb7b1"/><path d="M639.25,187.31a6.36,6.36,0,1,0-6.36-6.36A6.36,6.36,0,0,0,639.25,187.31Z" fill="#5bb7b1"/><path d="M639.25,565.32a6.37,6.37,0,1,0-6.36-6.36A6.36,6.36,0,0,0,639.25,565.32Z" fill="#5bb7b1"/><path d="M639.25,583.32a6.37,6.37,0,1,0-6.36-6.37A6.37,6.37,0,0,0,639.25,583.32Z" fill="#5bb7b1"/><path d="M639.25,601.32a6.37,6.37,0,1,0-6.36-6.36A6.36,6.36,0,0,0,639.25,601.32Z" fill="#5bb7b1"/></g></svg>