<svg xmlns="http://www.w3.org/2000/svg" viewBox="0 0 702.95 425.06"><g id="Australia"><circle cx="45.47" cy="122.53" r="6.5" fill="#5bb7b1"/><circle cx="63.47" cy="122.53" r="6.5" fill="#5bb7b1"/><circle cx="81.47" cy="122.53" r="6.5" fill="#5bb7b1"/><circle cx="369.47" cy="122.53" r="6.5" fill="#5bb7b1"/><circle cx="387.48" cy="122.53" r="6.5" fill="#5bb7b1"/><circle cx="45.47" cy="104.53" r="6.5" fill="#5bb7b1"/><circle cx="63.47" cy="104.53" r="6.5" fill="#5bb7b1"/><circle cx="81.47" cy="104.53" r="6.5" fill="#5bb7b1"/><circle cx="369.47" cy="104.53" r="6.5" fill="#5bb7b1"/><circle cx="387.48" cy="104.53" r="6.5" fill="#5bb7b1"/><circle cx="459.48" cy="140.53" r="6.5" fill="#5bb7b1"/><circle cx="45.47" cy="140.53" r="6.5" fill="#5bb7b1"/><circle cx="63.47" cy="140.53" r="6.5" fill="#5bb7b1"/><circle cx="81.47" cy="140.53" r="6.5" fill="#5bb7b1"/><circle cx="99.47" cy="140.53" r="6.5" fill="#5bb7b1"/><circle cx="225.47" cy="140.53" r="6.5" fill="#5bb7b1"/><circle cx="333.47" cy="140.53" r="6.5" fill="#5bb7b1"/><circle cx="351.47" cy="140.53" r="6.5" fill="#5bb7b1"/><circle cx="315.47" cy="140.53" r="6.5" fill="#5bb7b1"/><circle cx="369.47" cy="140.53" r="6.5" fill="#5bb7b1"/><circle cx="441.48" cy="140.53" r="6.5" fill="#5bb7b1"/><circle cx="459.48" cy="158.53" r="6.5" fill="#5bb7b1"/><circle cx="45.47" cy="158.53" r="6.5" fill="#5bb7b1"/><circle cx="63.47" cy="158.53" r="6.5" fill="#5bb7b1"/><circle cx="81.47" cy="158.53" r="6.5" fill="#5bb7b1"/><circle cx="99.47" cy="158.53" r="6.5" fill="#5bb7b1"/><circle cx="117.47" cy="158.53" r="6.5" fill="#5bb7b1"/><circle cx="135.47" cy="158.53" r="6.5" fill="#5bb7b1"/><circle cx="189.47" cy="158.53" r="6.5" fill="#5bb7b1"/><circle cx="207.47" cy="158.53" r="6.5" fill="#5bb7b1"/><circle cx="333.47" cy="158.53" r="6.5" fill="#5bb7b1"/><circle cx="351.47" cy="158.53" r="6.5" fill="#5bb7b1"/><circle cx="315.47" cy="158.53" r="6.5" fill="#5bb7b1"/><circle cx="441.48" cy="158.53" r="6.5" fill="#5bb7b1"/><circle cx="477.48" cy="158.53" r="6.5" fill="#5bb7b1"/><circle cx="495.48" cy="158.53" r="6.5" fill="#5bb7b1"/><circle cx="585.48" cy="194.53" r="6.5" fill="#5bb7b1"/><circle cx="513.48" cy="194.53" r="6.5" fill="#5bb7b1"/><circle cx="531.48" cy="194.53" r="6.5" fill="#5bb7b1"/><circle cx="549.48" cy="194.53" r="6.5" fill="#5bb7b1"/><circle cx="567.48" cy="194.53" r="6.5" fill="#5bb7b1"/><circle cx="153.47" cy="194.53" r="6.5" fill="#5bb7b1"/><circle cx="171.47" cy="194.53" r="6.5" fill="#5bb7b1"/><circle cx="81.47" cy="194.53" r="6.5" fill="#5bb7b1"/><circle cx="99.47" cy="194.53" r="6.5" fill="#5bb7b1"/><circle cx="117.47" cy="194.53" r="6.5" fill="#5bb7b1"/><circle cx="135.47" cy="194.53" r="6.5" fill="#5bb7b1"/><circle cx="189.47" cy="194.53" r="6.5" fill="#5bb7b1"/><circle cx="225.47" cy="194.53" r="6.5" fill="#5bb7b1"/><circle cx="243.47" cy="194.53" r="6.5" fill="#5bb7b1"/><circle cx="261.47" cy="194.53" r="6.5" fill="#5bb7b1"/><circle cx="279.47" cy="194.53" r="6.5" fill="#5bb7b1"/><circle cx="297.47" cy="194.53" r="6.5" fill="#5bb7b1"/><circle cx="333.47" cy="194.53" r="6.5" fill="#5bb7b1"/><circle cx="351.47" cy="194.53" r="6.5" fill="#5bb7b1"/><circle cx="315.47" cy="194.53" r="6.5" fill="#5bb7b1"/><circle cx="369.47" cy="194.53" r="6.5" fill="#5bb7b1"/><circle cx="387.48" cy="194.53" r="6.5" fill="#5bb7b1"/><circle cx="423.48" cy="194.53" r="6.5" fill="#5bb7b1"/><circle cx="441.48" cy="194.53" r="6.5" fill="#5bb7b1"/><circle cx="477.48" cy="194.53" r="6.5" fill="#5bb7b1"/><circle cx="495.48" cy="194.53" r="6.5" fill="#5bb7b1"/><circle cx="405.48" cy="194.53" r="6.5" fill="#5bb7b1"/><circle cx="657.48" cy="230.53" r="6.5" fill="#5bb7b1"/><circle cx="621.48" cy="230.53" r="6.5" fill="#5bb7b1"/><circle cx="639.48" cy="230.53" r="6.5" fill="#5bb7b1"/><circle cx="603.48" cy="230.53" r="6.5" fill="#5bb7b1"/><circle cx="585.48" cy="230.53" r="6.5" fill="#5bb7b1"/><circle cx="459.48" cy="230.53" r="6.5" fill="#5bb7b1"/><circle cx="513.48" cy="230.53" r="6.5" fill="#5bb7b1"/><circle cx="531.48" cy="230.53" r="6.5" fill="#5bb7b1"/><circle cx="549.48" cy="230.53" r="6.5" fill="#5bb7b1"/><circle cx="567.48" cy="230.53" r="6.5" fill="#5bb7b1"/><circle cx="153.47" cy="230.53" r="6.5" fill="#5bb7b1"/><circle cx="171.47" cy="230.53" r="6.5" fill="#5bb7b1"/><circle cx="117.47" cy="230.53" r="6.5" fill="#5bb7b1"/><circle cx="135.47" cy="230.53" r="6.5" fill="#5bb7b1"/><circle cx="189.47" cy="230.53" r="6.5" fill="#5bb7b1"/><circle cx="207.47" cy="230.53" r="6.5" fill="#5bb7b1"/><circle cx="225.47" cy="230.53" r="6.5" fill="#5bb7b1"/><circle cx="243.47" cy="230.53" r="6.5" fill="#5bb7b1"/><circle cx="261.47" cy="230.53" r="6.5" fill="#5bb7b1"/><circle cx="279.47" cy="230.53" r="6.5" fill="#5bb7b1"/><circle cx="297.47" cy="230.53" r="6.5" fill="#5bb7b1"/><circle cx="333.47" cy="230.53" r="6.5" fill="#5bb7b1"/><circle cx="351.47" cy="230.53" r="6.5" fill="#5bb7b1"/><circle cx="315.47" cy="230.53" r="6.5" fill="#5bb7b1"/><circle cx="369.47" cy="230.53" r="6.5" fill="#5bb7b1"/><circle cx="387.48" cy="230.53" r="6.5" fill="#5bb7b1"/><circle cx="477.48" cy="230.53" r="6.5" fill="#5bb7b1"/><circle cx="495.48" cy="230.53" r="6.5" fill="#5bb7b1"/><circle cx="405.48" cy="230.53" r="6.5" fill="#5bb7b1"/><circle cx="657.48" cy="248.53" r="6.5" fill="#5bb7b1"/><circle cx="621.48" cy="248.53" r="6.5" fill="#5bb7b1"/><circle cx="639.48" cy="248.53" r="6.5" fill="#5bb7b1"/><circle cx="603.48" cy="248.53" r="6.5" fill="#5bb7b1"/><circle cx="585.48" cy="248.53" r="6.5" fill="#5bb7b1"/><circle cx="459.48" cy="248.53" r="6.5" fill="#5bb7b1"/><circle cx="513.48" cy="248.53" r="6.5" fill="#5bb7b1"/><circle cx="549.48" cy="248.53" r="6.5" fill="#5bb7b1"/><circle cx="567.48" cy="248.53" r="6.5" fill="#5bb7b1"/><circle cx="153.47" cy="248.53" r="6.5" fill="#5bb7b1"/><circle cx="171.47" cy="248.53" r="6.5" fill="#5bb7b1"/><circle cx="189.47" cy="248.53" r="6.5" fill="#5bb7b1"/><circle cx="297.47" cy="248.53" r="6.5" fill="#5bb7b1"/><circle cx="333.47" cy="248.53" r="6.5" fill="#5bb7b1"/><circle cx="315.47" cy="248.53" r="6.5" fill="#5bb7b1"/><circle cx="369.47" cy="248.53" r="6.5" fill="#5bb7b1"/><circle cx="387.48" cy="248.53" r="6.5" fill="#5bb7b1"/><circle cx="423.48" cy="248.53" r="6.5" fill="#5bb7b1"/><circle cx="477.48" cy="248.53" r="6.5" fill="#5bb7b1"/><circle cx="405.48" cy="248.53" r="6.5" fill="#5bb7b1"/><circle cx="657.48" cy="266.53" r="6.5" fill="#5bb7b1"/><circle cx="621.48" cy="266.53" r="6.5" fill="#5bb7b1"/><circle cx="639.48" cy="266.53" r="6.5" fill="#5bb7b1"/><circle cx="603.48" cy="266.53" r="6.5" fill="#5bb7b1"/><circle cx="513.48" cy="266.53" r="6.5" fill="#5bb7b1"/><circle cx="531.48" cy="266.53" r="6.5" fill="#5bb7b1"/><circle cx="549.48" cy="266.53" r="6.5" fill="#5bb7b1"/><circle cx="567.48" cy="266.53" r="6.5" fill="#5bb7b1"/><circle cx="153.47" cy="266.53" r="6.5" fill="#5bb7b1"/><circle cx="171.47" cy="266.53" r="6.5" fill="#5bb7b1"/><circle cx="189.47" cy="266.53" r="6.5" fill="#5bb7b1"/><circle cx="207.47" cy="266.53" r="6.5" fill="#ff8200"/><circle cx="225.47" cy="266.53" r="6.5" fill="#5bb7b1"/><circle cx="261.47" cy="266.53" r="6.5" fill="#5bb7b1"/><circle cx="369.47" cy="266.53" r="6.5" fill="#5bb7b1"/><circle cx="387.48" cy="266.53" r="6.5" fill="#5bb7b1"/><circle cx="423.48" cy="266.53" r="6.5" fill="#5bb7b1"/><circle cx="495.48" cy="266.53" r="6.5" fill="#5bb7b1"/><circle cx="405.48" cy="266.53" r="6.5" fill="#5bb7b1"/><circle cx="621.48" cy="284.53" r="6.5" fill="#5bb7b1"/><circle cx="639.48" cy="284.53" r="6.5" fill="#5bb7b1"/><circle cx="603.48" cy="284.53" r="6.5" fill="#5bb7b1"/><circle cx="459.48" cy="284.53" r="6.5" fill="#5bb7b1"/><circle cx="513.48" cy="284.53" r="6.5" fill="#5bb7b1"/><circle cx="531.48" cy="284.53" r="6.5" fill="#5bb7b1"/><circle cx="567.48" cy="284.53" r="6.5" fill="#5bb7b1"/><circle cx="189.47" cy="284.53" r="6.5" fill="#5bb7b1"/><circle cx="207.47" cy="284.53" r="6.5" fill="#5bb7b1"/><circle cx="225.47" cy="284.53" r="6.5" fill="#5bb7b1"/><circle cx="243.47" cy="284.53" r="6.5" fill="#5bb7b1"/><circle cx="261.47" cy="284.53" r="6.5" fill="#5bb7b1"/><circle cx="279.47" cy="284.53" r="6.5" fill="#5bb7b1"/><circle cx="297.47" cy="284.53" r="6.5" fill="#5bb7b1"/><circle cx="351.47" cy="284.53" r="6.5" fill="#5bb7b1"/><circle cx="315.47" cy="284.53" r="6.5" fill="#5bb7b1"/><circle cx="387.48" cy="284.53" r="6.5" fill="#5bb7b1"/><circle cx="423.48" cy="284.53" r="6.5" fill="#5bb7b1"/><circle cx="441.48" cy="284.53" r="6.5" fill="#5bb7b1"/><circle cx="477.48" cy="284.53" r="6.5" fill="#5bb7b1"/><circle cx="495.48" cy="284.53" r="6.5" fill="#5bb7b1"/><circle cx="405.48" cy="284.53" r="6.5" fill="#5bb7b1"/><circle cx="621.48" cy="302.53" r="6.5" fill="#5bb7b1"/><circle cx="639.48" cy="302.53" r="6.5" fill="#5bb7b1"/><circle cx="603.48" cy="302.53" r="6.5" fill="#5bb7b1"/><circle cx="261.47" cy="302.53" r="6.5" fill="#5bb7b1"/><circle cx="279.47" cy="302.53" r="6.5" fill="#5bb7b1"/><circle cx="297.47" cy="302.53" r="6.5" fill="#5bb7b1"/><circle cx="333.47" cy="302.53" r="6.5" fill="#5bb7b1"/><circle cx="351.47" cy="302.53" r="6.5" fill="#5bb7b1"/><circle cx="315.47" cy="302.53" r="6.5" fill="#5bb7b1"/><circle cx="369.47" cy="302.53" r="6.5" fill="#5bb7b1"/><circle cx="387.48" cy="302.53" r="6.5" fill="#5bb7b1"/><circle cx="423.48" cy="302.53" r="6.5" fill="#5bb7b1"/><circle cx="441.48" cy="302.53" r="6.5" fill="#5bb7b1"/><circle cx="477.48" cy="302.53" r="6.5" fill="#5bb7b1"/><circle cx="495.48" cy="302.53" r="6.5" fill="#5bb7b1"/><circle cx="405.48" cy="302.53" r="6.5" fill="#5bb7b1"/><circle cx="351.47" cy="320.53" r="6.5" fill="#5bb7b1"/><circle cx="369.47" cy="320.53" r="6.5" fill="#5bb7b1"/><circle cx="387.48" cy="320.53" r="6.5" fill="#5bb7b1"/><circle cx="423.48" cy="320.53" r="6.5" fill="#5bb7b1"/><circle cx="441.48" cy="320.53" r="6.5" fill="#5bb7b1"/><circle cx="405.48" cy="320.53" r="6.5" fill="#5bb7b1"/><circle cx="621.48" cy="212.53" r="6.5" fill="#5bb7b1"/><circle cx="639.48" cy="212.53" r="6.5" fill="#5bb7b1"/><circle cx="603.48" cy="212.53" r="6.5" fill="#5bb7b1"/><circle cx="585.48" cy="212.53" r="6.5" fill="#5bb7b1"/><circle cx="459.48" cy="212.53" r="6.5" fill="#5bb7b1"/><circle cx="513.48" cy="212.53" r="6.5" fill="#5bb7b1"/><circle cx="531.48" cy="212.53" r="6.5" fill="#5bb7b1"/><circle cx="549.48" cy="212.53" r="6.5" fill="#5bb7b1"/><circle cx="567.48" cy="212.53" r="6.5" fill="#5bb7b1"/><circle cx="153.47" cy="212.53" r="6.5" fill="#5bb7b1"/><circle cx="171.47" cy="212.53" r="6.5" fill="#5bb7b1"/><circle cx="99.47" cy="212.53" r="6.5" fill="#5bb7b1"/><circle cx="117.47" cy="212.53" r="6.5" fill="#5bb7b1"/><circle cx="135.47" cy="212.53" r="6.5" fill="#5bb7b1"/><circle cx="189.47" cy="212.53" r="6.5" fill="#5bb7b1"/><circle cx="225.47" cy="212.53" r="6.5" fill="#5bb7b1"/><circle cx="243.47" cy="212.53" r="6.5" fill="#5bb7b1"/><circle cx="261.47" cy="212.53" r="6.5" fill="#5bb7b1"/><circle cx="279.47" cy="212.53" r="6.5" fill="#5bb7b1"/><circle cx="297.47" cy="212.53" r="6.5" fill="#5bb7b1"/><circle cx="333.47" cy="212.53" r="6.5" fill="#5bb7b1"/><circle cx="315.47" cy="212.53" r="6.5" fill="#5bb7b1"/><circle cx="369.47" cy="212.53" r="6.5" fill="#5bb7b1"/><circle cx="387.48" cy="212.53" r="6.5" fill="#5bb7b1"/><circle cx="423.48" cy="212.53" r="6.5" fill="#5bb7b1"/><circle cx="441.48" cy="212.53" r="6.5" fill="#5bb7b1"/><circle cx="477.48" cy="212.53" r="6.5" fill="#5bb7b1"/><circle cx="495.48" cy="212.53" r="6.5" fill="#5bb7b1"/><circle cx="405.48" cy="212.53" r="6.5" fill="#5bb7b1"/><circle cx="153.47" cy="176.53" r="6.5" fill="#5bb7b1"/><circle cx="171.47" cy="176.53" r="6.5" fill="#5bb7b1"/><circle cx="81.47" cy="176.53" r="6.5" fill="#5bb7b1"/><circle cx="99.47" cy="176.53" r="6.5" fill="#5bb7b1"/><circle cx="117.47" cy="176.53" r="6.5" fill="#5bb7b1"/><circle cx="135.47" cy="176.53" r="6.5" fill="#5bb7b1"/><circle cx="189.47" cy="176.53" r="6.5" fill="#5bb7b1"/><circle cx="207.47" cy="176.53" r="6.5" fill="#5bb7b1"/><circle cx="225.47" cy="176.53" r="6.5" fill="#5bb7b1"/><circle cx="243.47" cy="176.53" r="6.5" fill="#5bb7b1"/><circle cx="261.47" cy="176.53" r="6.5" fill="#5bb7b1"/><circle cx="279.47" cy="176.53" r="6.5" fill="#5bb7b1"/><circle cx="297.47" cy="176.53" r="6.5" fill="#5bb7b1"/><circle cx="333.47" cy="176.53" r="6.5" fill="#5bb7b1"/><circle cx="351.47" cy="176.53" r="6.5" fill="#5bb7b1"/><circle cx="315.47" cy="176.53" r="6.5" fill="#5bb7b1"/><circle cx="369.47" cy="176.53" r="6.5" fill="#5bb7b1"/><circle cx="387.48" cy="176.53" r="6.5" fill="#5bb7b1"/><circle cx="423.48" cy="176.53" r="6.5" fill="#5bb7b1"/><circle cx="441.48" cy="176.53" r="6.5" fill="#5bb7b1"/><circle cx="477.48" cy="176.53" r="6.5" fill="#5bb7b1"/><circle cx="495.48" cy="176.53" r="6.5" fill="#5bb7b1"/><circle cx="405.48" cy="176.53" r="6.5" fill="#5bb7b1"/></g></svg>