<?xml version="1.0" encoding="UTF-8"?>
<svg id="Layer_1" data-name="Layer 1" xmlns="http://www.w3.org/2000/svg" viewBox="0 0 90.71 73.7">
  <defs>
    <style>
      .cls-1 {
        fill: #ff8200;
      }

      .cls-2 {
        fill: #5cb8b2;
      }
    </style>
  </defs>
  <path class="cls-1" d="M45.9,10.84c-.57-.5-1.42-.5-1.99,0L19.88,31.65c-.34,.29-.54,.72-.54,1.18v36.42c0,.41,.16,.81,.45,1.1,.29,.29,.68,.45,1.08,.45h17.16c.41,0,.8-.16,1.08-.45,.29-.29,.45-.68,.45-1.1v-22.73h10.73v22.73c0,.41,.16,.81,.45,1.1,.29,.29,.68,.45,1.08,.45h17.1c.41,0,.8-.16,1.08-.45,.29-.29,.45-.68,.45-1.1V32.82c0-.45-.2-.88-.54-1.18L45.9,10.84Zm21.47,56.85h-14.06v-22.73c0-.41-.16-.81-.45-1.1-.29-.29-.68-.45-1.08-.45h-13.8c-.85,0-1.53,.69-1.53,1.55v22.73h-14.03V33.61L44.9,14.06l22.5,19.47-.03,34.16Z"/>
  <path class="cls-1" d="M78.52,32.2L45.9,3.9c-.57-.5-1.42-.5-1.99,0L11.29,32.2c-.64,.56-.72,1.53-.17,2.18,.55,.65,1.52,.73,2.16,.17L44.9,7.12l31.62,27.37c.28,.36,.71,.57,1.16,.58,.45,0,.89-.18,1.19-.53,.3-.34,.43-.8,.36-1.26-.07-.45-.33-.85-.72-1.09h0Z"/>
  <path class="cls-2" d="M20.87,21.13c.41,0,.8-.16,1.08-.45s.45-.68,.45-1.1V6.01h7.16v4.65c0,.86,.69,1.55,1.53,1.55s1.53-.69,1.53-1.55V4.46c0-.41-.16-.81-.45-1.1-.29-.29-.68-.45-1.08-.45h-10.23c-.85,0-1.53,.69-1.53,1.55v15.12c0,.41,.16,.81,.45,1.1s.68,.45,1.08,.45h0Z"/>
</svg>