<?xml version="1.0" encoding="UTF-8"?>
<svg id="Layer_1" data-name="Layer 1" xmlns="http://www.w3.org/2000/svg" viewBox="0 0 116 48">
  <defs>
    <style>
      .cls-1 {
        fill: #99a9b2;
      }
    </style>
  </defs>
  <g>
    <path class="cls-1" d="m60.47,37.83c-.27.12-.66.21-1.01.21-.42,0-.82-.12-1.07-.45-.21-.28-.3-.68-.3-1.2,0-.6.13-1.03.41-1.31.27-.27.64-.34,1.04-.34.28,0,.57.03.82.08l-.04.52c-.19-.03-.47-.05-.72-.05s-.5.04-.65.21c-.17.19-.22.5-.22.88,0,.32.03.6.15.79.14.23.38.3.64.3s.55-.07.79-.15l.16.5Z"/>
    <path class="cls-1" d="m60.77,37.99v-3.2h1.99v.55h-1.36v.75h1.13v.54h-1.13v.82h1.36v.55h-1.99Z"/>
    <path class="cls-1" d="m64.79,37.99c-.23-.42-.43-.82-.62-1.24-.14,0-.33,0-.45-.01v1.25h-.63v-3.18c.3-.03.7-.06,1.01-.06.66,0,1.27.16,1.27.99,0,.45-.18.77-.61.93.18.38.47.86.75,1.32h-.72Zm-1.06-1.7c.28,0,.51,0,.68-.05.23-.06.34-.2.34-.49,0-.38-.27-.45-.58-.45-.14,0-.3,0-.43.02v.98Z"/>
    <path class="cls-1" d="m66.34,37.99v-2.65h-.86v-.55h2.35v.55h-.86v2.65h-.63Z"/>
    <path class="cls-1" d="m68.06,37.99v-3.2h.63v3.2h-.63Z"/>
    <path class="cls-1" d="m69.2,37.99v-3.2h2.03v.55h-1.41v.8h1.16v.54h-1.16v1.32h-.63Z"/>
    <path class="cls-1" d="m71.53,37.99v-3.2h.63v3.2h-.63Z"/>
    <path class="cls-1" d="m72.67,37.99v-3.2h1.99v.55h-1.36v.75h1.13v.54h-1.13v.82h1.36v.55h-1.99Z"/>
    <path class="cls-1" d="m75,34.83c.33-.05.7-.08,1-.08,1.08,0,1.46.57,1.46,1.64s-.38,1.64-1.46,1.64c-.3,0-.67-.02-1-.05v-3.15Zm.63,2.64c.13,0,.2,0,.32,0,.71,0,.88-.3.88-1.1,0-.75-.17-1.09-.88-1.09-.11,0-.21,0-.32.02v2.16Z"/>
  </g>
  <g>
    <path class="cls-1" d="m58.39,14.6v-4.08h.61v4.08h-.61Z"/>
    <path class="cls-1" d="m59.64,14.03c.23.04.61.09.96.09s.68-.05.87-.23c.11-.1.17-.24.17-.42,0-.4-.25-.53-.95-.74-.7-.2-1.15-.49-1.15-1.19,0-.34.15-.62.39-.81.28-.22.63-.28,1.01-.28s.77.06,1.13.13l-.08.51c-.24-.04-.61-.09-.94-.09-.28,0-.55.03-.7.15-.13.1-.19.22-.19.38,0,.42.32.54,1,.74.66.2,1.11.48,1.11,1.2,0,.38-.15.69-.41.9-.29.23-.69.3-1.12.3-.4,0-.81-.06-1.16-.12l.08-.51Z"/>
    <path class="cls-1" d="m62.55,12.56c0-1.38.53-2.11,1.76-2.11s1.76.72,1.76,2.11-.53,2.11-1.76,2.11-1.76-.72-1.76-2.11Zm2.9,0c0-1.08-.32-1.56-1.14-1.56s-1.14.48-1.14,1.56.32,1.56,1.14,1.56,1.14-.48,1.14-1.56Z"/>
    <path class="cls-1" d="m66.22,14.6l1.59-4.08h.49l-1.57,4.08h-.51Z"/>
    <path class="cls-1" d="m68.66,14.6v-4.08h.61v4.08h-.61Z"/>
    <path class="cls-1" d="m69.96,14.6v-4.08h2.43v.54h-1.82v1.17h1.49v.53h-1.49v1.3h1.82v.54h-2.43Z"/>
    <path class="cls-1" d="m75.64,14.35c-.35.18-.84.31-1.31.31-.53,0-1.03-.16-1.33-.58-.25-.35-.38-.86-.38-1.52,0-.71.16-1.23.45-1.59.34-.4.83-.52,1.37-.52.36,0,.74.05,1.06.12l-.06.51c-.25-.05-.63-.09-.96-.09-.39,0-.74.08-.96.37-.2.27-.28.66-.28,1.19,0,.49.06.88.23,1.14.2.31.53.42.88.42.39,0,.77-.11,1.11-.25l.17.48Z"/>
    <path class="cls-1" d="m58.31,21.22v-.48c1.13-.98,1.93-1.75,1.93-2.43,0-.51-.38-.69-.81-.69-.35,0-.77.11-1.03.22l-.17-.48c.32-.15.79-.29,1.25-.29.82,0,1.38.41,1.38,1.22,0,.89-.89,1.66-1.76,2.39h1.82v.54h-2.61Z"/>
    <path class="cls-1" d="m61.84,21.22c.36-1.37.79-2.38,1.44-3.55h-2.04v-.53h2.67v.5c-.65,1.16-1.08,2.18-1.41,3.58h-.65Z"/>
    <path class="cls-1" d="m64.24,19.18c0-1.37.29-2.11,1.48-2.11s1.47.74,1.47,2.11-.29,2.11-1.47,2.11-1.48-.74-1.48-2.11Zm2.34,0c0-.97-.06-1.57-.86-1.57s-.87.6-.87,1.57.05,1.58.87,1.58.86-.62.86-1.58Z"/>
    <path class="cls-1" d="m67.62,19.18c0-1.37.29-2.11,1.48-2.11s1.47.74,1.47,2.11-.29,2.11-1.47,2.11-1.48-.74-1.48-2.11Zm2.34,0c0-.97-.06-1.57-.86-1.57s-.87.6-.87,1.57.05,1.58.87,1.58.86-.62.86-1.58Z"/>
    <path class="cls-1" d="m71.64,21.22v-3.47l-.85.32-.18-.41,1.09-.53h.55v4.08h-.61Z"/>
    <path class="cls-1" d="m58.27,26.46v-3.2h.48v3.2h-.48Z"/>
    <path class="cls-1" d="m60.64,26.46v-1.5c0-.29-.13-.43-.39-.43-.21,0-.4.07-.56.14v1.79h-.45v-2.29h.33l.04.21c.18-.14.43-.26.7-.26.52,0,.78.31.78.8v1.54h-.45Z"/>
    <path class="cls-1" d="m61.64,26.46v-1.92h-.34v-.33l.34-.02v-.25c0-.26.06-.44.18-.55.14-.13.34-.17.59-.17.11,0,.23,0,.34.02l-.02.38c-.11,0-.22,0-.31,0-.12,0-.2.01-.25.08-.05.06-.07.15-.07.3v.19h.5v.37h-.5v1.92h-.45Z"/>
    <path class="cls-1" d="m63.71,26.51c-.32,0-.56-.09-.73-.25-.21-.2-.3-.54-.3-.94s.09-.74.3-.94c.17-.16.4-.25.73-.25s.56.09.73.25c.21.2.3.54.3.94s-.09.74-.3.94c-.17.16-.4.25-.73.25Zm.57-1.2c0-.28-.04-.51-.16-.64-.09-.1-.23-.16-.41-.16s-.32.05-.41.16c-.12.13-.16.36-.16.64s.04.51.16.64c.09.1.23.16.41.16s.31-.06.41-.16c.12-.13.16-.36.16-.64Z"/>
    <path class="cls-1" d="m65.04,26.46v-2.29h.34l.06.28h.02c.18-.26.39-.33.68-.33.05,0,.11,0,.2,0l-.03.41c-.09-.01-.18-.02-.27-.02-.19,0-.39.04-.54.17v1.76h-.45Z"/>
    <path class="cls-1" d="m69.21,26.46v-1.52c0-.29-.14-.42-.39-.42-.17,0-.36.06-.53.16.01.09.02.19.02.28v1.49h-.45v-1.52c0-.29-.13-.42-.39-.42-.18,0-.34.05-.51.14v1.8h-.45v-2.29h.33l.04.21c.16-.12.4-.26.69-.26.27,0,.48.1.6.29.2-.16.44-.29.72-.29.51,0,.78.28.78.84v1.5h-.45Z"/>
    <path class="cls-1" d="m71.42,26.46l-.05-.19c-.17.15-.41.24-.67.24-.47,0-.76-.31-.76-.72,0-.2.08-.41.24-.54.15-.12.37-.17.62-.17.16,0,.34,0,.5.02v-.19c0-.14-.03-.23-.09-.29-.08-.08-.22-.1-.41-.1-.22,0-.5.04-.65.07l-.07-.38c.2-.06.49-.1.75-.1.29,0,.53.04.69.18.14.12.22.31.22.59v1.58h-.33Zm-.12-1.03c-.11,0-.27-.01-.41-.01-.33,0-.49.12-.49.37,0,.22.14.36.39.36.18,0,.37-.06.51-.17v-.55Z"/>
    <path class="cls-1" d="m73.39,26.36c-.15.08-.35.14-.55.14-.37,0-.59-.21-.59-.63v-1.34h-.34v-.33l.36-.02.03-.68h.4v.66h.64v.37h-.64v1.27c0,.17.03.29.2.29.11,0,.21-.03.33-.08l.15.35Z"/>
    <path class="cls-1" d="m73.85,23.25c.14,0,.25.11.25.25s-.11.25-.25.25-.25-.11-.25-.25.11-.25.25-.25Zm-.22,3.21v-2.29h.45v2.29h-.45Z"/>
    <path class="cls-1" d="m75.41,26.51c-.32,0-.56-.09-.73-.25-.21-.2-.3-.54-.3-.94s.09-.74.3-.94c.17-.16.4-.25.73-.25s.56.09.73.25c.21.2.3.54.3.94s-.09.74-.3.94c-.17.16-.4.25-.73.25Zm.57-1.2c0-.28-.04-.51-.16-.64-.09-.1-.23-.16-.41-.16s-.32.05-.41.16c-.12.13-.16.36-.16.64s.04.51.16.64c.09.1.23.16.41.16s.31-.06.41-.16c.12-.13.16-.36.16-.64Z"/>
    <path class="cls-1" d="m78.14,26.46v-1.5c0-.29-.13-.43-.39-.43-.21,0-.4.07-.56.14v1.79h-.45v-2.29h.33l.04.21c.18-.14.43-.26.7-.26.52,0,.78.31.78.8v1.54h-.45Z"/>
    <path class="cls-1" d="m79.96,26.01c.18.03.48.07.75.07s.54-.04.68-.18c.08-.08.13-.19.13-.33,0-.31-.19-.42-.74-.58-.55-.16-.9-.39-.9-.93,0-.27.11-.49.31-.64.22-.17.5-.22.79-.22s.61.04.88.1l-.06.4c-.19-.03-.48-.07-.74-.07-.22,0-.43.02-.55.11-.1.07-.15.17-.15.3,0,.33.25.42.78.58.52.16.87.38.87.94,0,.3-.11.54-.32.71-.22.18-.54.23-.88.23-.31,0-.64-.04-.91-.09l.06-.4Z"/>
    <path class="cls-1" d="m84.02,26.32c-.2.09-.5.18-.79.18-.68,0-1.04-.42-1.04-1.18,0-.63.29-1.21.99-1.21.56,0,.88.4.88,1.01,0,.12-.01.25-.03.35h-1.38c0,.2.06.37.15.47.1.11.27.16.46.16.24,0,.47-.06.66-.14l.1.36Zm-.39-1.21c0-.34-.1-.62-.47-.62-.33,0-.49.3-.51.62h.98Z"/>
    <path class="cls-1" d="m85.98,26.32c-.21.1-.5.18-.78.18-.6,0-.99-.34-.99-1.19,0-.97.49-1.21,1.05-1.21.22,0,.45.02.64.07l-.04.38c-.16-.02-.35-.04-.52-.04-.44,0-.67.17-.67.79,0,.56.19.79.58.79.22,0,.43-.06.62-.14l.12.36Z"/>
    <path class="cls-1" d="m87.72,26.46l-.03-.19c-.18.13-.42.25-.7.25-.52,0-.77-.31-.77-.8v-1.55h.45v1.5c0,.31.13.43.4.43.18,0,.36-.05.53-.13v-1.81h.45v2.29h-.33Z"/>
    <path class="cls-1" d="m88.51,26.46v-2.29h.34l.06.28h.02c.18-.26.39-.33.68-.33.05,0,.11,0,.2,0l-.03.41c-.09-.01-.18-.02-.27-.02-.19,0-.39.04-.54.17v1.76h-.45Z"/>
    <path class="cls-1" d="m90.19,23.25c.14,0,.25.11.25.25s-.11.25-.25.25-.25-.11-.25-.25.11-.25.25-.25Zm-.22,3.21v-2.29h.45v2.29h-.45Z"/>
    <path class="cls-1" d="m92.09,26.36c-.15.08-.35.14-.55.14-.37,0-.59-.21-.59-.63v-1.34h-.34v-.33l.36-.02.03-.68h.4v.66h.64v.37h-.64v1.27c0,.17.03.29.2.29.11,0,.21-.03.33-.08l.15.35Z"/>
    <path class="cls-1" d="m92.71,27.36c.13-.35.24-.67.32-.9h-.24c-.23-.64-.47-1.47-.68-2.29h.47c.15.68.32,1.32.52,1.94h.04c.18-.56.38-1.28.53-1.94h.46c-.25,1.06-.62,2.27-.97,3.2h-.44Z"/>
    <path class="cls-1" d="m60.91,31.7c-.03-.85-.06-1.73-.1-2.58h-.02l-.73,2.04h-.51l-.73-2.04h-.02c-.04.84-.08,1.72-.1,2.58h-.48c.03-1.06.09-2.13.15-3.2h.7l.74,2.12h.02l.74-2.12h.7c.06,1.07.11,2.14.15,3.2h-.48Z"/>
    <path class="cls-1" d="m63.17,31.7l-.05-.19c-.17.15-.41.24-.67.24-.47,0-.76-.31-.76-.72,0-.2.08-.41.24-.54.15-.12.37-.17.62-.17.16,0,.34,0,.5.02v-.19c0-.14-.03-.23-.09-.29-.08-.08-.22-.1-.41-.1-.22,0-.5.04-.65.07l-.07-.38c.2-.06.49-.1.75-.1.29,0,.53.04.69.18.14.12.22.31.22.59v1.58h-.33Zm-.12-1.03c-.11,0-.27-.01-.41-.01-.33,0-.49.12-.49.37,0,.22.14.36.39.36.18,0,.37-.06.51-.17v-.55Z"/>
    <path class="cls-1" d="m65.33,31.7v-1.5c0-.29-.13-.43-.39-.43-.21,0-.4.07-.56.14v1.79h-.45v-2.29h.33l.04.21c.18-.14.43-.26.7-.26.52,0,.78.31.78.8v1.54h-.45Z"/>
    <path class="cls-1" d="m67.54,31.7l-.05-.19c-.17.15-.41.24-.67.24-.47,0-.76-.31-.76-.72,0-.2.08-.41.24-.54.15-.12.37-.17.62-.17.16,0,.34,0,.5.02v-.19c0-.14-.03-.23-.09-.29-.08-.08-.22-.1-.41-.1-.22,0-.5.04-.65.07l-.07-.38c.2-.06.49-.1.75-.1.29,0,.53.04.69.18.14.12.22.31.22.59v1.58h-.33Zm-.12-1.03c-.11,0-.27-.01-.41-.01-.33,0-.49.12-.49.37,0,.22.14.36.39.36.18,0,.37-.06.51-.17v-.55Z"/>
    <path class="cls-1" d="m69.63,31.57c-.16.11-.35.18-.55.18-.65,0-.89-.42-.89-1.18,0-.86.27-1.22.9-1.22.34,0,.74.07.98.16v2.39c0,.25-.08.42-.21.55-.17.15-.43.2-.71.2-.26,0-.53-.04-.74-.08l.06-.39c.16.02.4.06.62.06.18,0,.35-.02.44-.1.06-.06.09-.16.09-.28v-.29Zm0-1.77c-.13-.02-.32-.04-.49-.04-.39,0-.49.27-.49.82,0,.52.1.8.49.8.17,0,.34-.04.49-.11v-1.46Z"/>
    <path class="cls-1" d="m72.17,31.56c-.2.09-.5.18-.79.18-.68,0-1.04-.42-1.04-1.18,0-.63.29-1.21.99-1.21.56,0,.88.4.88,1.01,0,.12-.01.25-.03.35h-1.38c0,.2.06.37.15.47.1.11.27.16.46.16.24,0,.47-.06.66-.14l.1.36Zm-.39-1.21c0-.34-.1-.62-.47-.62-.33,0-.49.3-.51.62h.98Z"/>
    <path class="cls-1" d="m75.2,31.7v-1.52c0-.29-.14-.42-.39-.42-.17,0-.36.06-.53.16.01.09.02.19.02.28v1.49h-.45v-1.52c0-.29-.13-.42-.39-.42-.18,0-.34.05-.51.14v1.8h-.45v-2.29h.33l.04.21c.16-.12.4-.26.69-.26.27,0,.48.1.6.29.2-.16.44-.29.72-.29.51,0,.78.28.78.84v1.5h-.45Z"/>
    <path class="cls-1" d="m77.73,31.56c-.2.09-.5.18-.79.18-.68,0-1.04-.42-1.04-1.18,0-.63.29-1.21.99-1.21.56,0,.88.4.88,1.01,0,.12-.01.25-.03.35h-1.38c0,.2.06.37.15.47.1.11.27.16.46.16.24,0,.47-.06.66-.14l.1.36Zm-.39-1.21c0-.34-.1-.62-.47-.62-.33,0-.49.3-.51.62h.98Z"/>
    <path class="cls-1" d="m79.46,31.7v-1.5c0-.29-.13-.43-.39-.43-.21,0-.4.07-.56.14v1.79h-.45v-2.29h.33l.04.21c.18-.14.43-.26.7-.26.52,0,.78.31.78.8v1.54h-.45Z"/>
    <path class="cls-1" d="m81.53,31.6c-.15.08-.35.14-.55.14-.37,0-.59-.21-.59-.63v-1.34h-.34v-.33l.36-.02.03-.68h.4v.66h.64v.37h-.64v1.27c0,.17.03.29.2.29.11,0,.21-.03.33-.08l.15.35Z"/>
  </g>
  <path class="cls-1" d="m80.81,45.5h-45.63c-.27,0-.49-.22-.49-.49s.22-.49.49-.49h45.63c10.24,0,18.57-8.33,18.57-18.57s-8.33-18.57-18.57-18.57h-35.86c-.27,0-.49-.22-.49-.49s.22-.49.49-.49h35.86c10.78,0,19.55,8.77,19.55,19.55s-8.77,19.55-19.55,19.55Z"/>
  <path class="cls-1" d="m36.32,21.31c.14-2.2,1.95-3.95,4.15-3.95s4.01,1.75,4.15,3.95h-8.3Zm3.5,9.85c-.59-1.73-1.98-2.64-3.16-3.41-1.3-.85-1.85-1.29-1.88-2.11,0-1.12.9-2.03,1.99-2.03h7.25l-4.2,7.55Zm-5.61,6.57s.51.09.98.09c.45,0,.89-.07.97-.09l-.97,1.75-.98-1.75Zm-1.18-14.12c-.31.59-.49,1.26-.5,1.98h0s0,.05,0,.07h0c.03,2.17,1.63,3.21,2.92,4.05,1.53,1,2.4,1.64,2.4,3.28s-1.28,2.55-2.85,2.55c-1.01,0-2.29-.54-2.8-1.44l-.45-.78-5.44-9.71h6.72Zm-3.03-6.26c2.2,0,4.01,1.75,4.15,3.95h-8.29c.14-2.2,1.95-3.95,4.14-3.95m10.47-2.2c-2.14,0-4.06,1.06-5.23,2.86-1.17-1.8-3.1-2.86-5.23-2.86-3.54,0-6.41,2.89-6.41,6.43,0,0,0,.03,0,.65s.07,1.17.56,2.02c.49.85,11.04,19.04,11.04,19.04,0,0,10.47-18.08,10.99-19.04.52-.96.6-1.37.6-2.02v-.65c0-3.55-2.83-6.43-6.31-6.43"/>
  <path class="cls-1" d="m31.22,5.92c-.7,0-1.37.23-1.88.56v-3.98h-1.57v10.78h.92l.25-.58c.62.46,1.33.75,2.27.75,2.04,0,2.8-1.41,2.8-3.76s-.76-3.76-2.8-3.76m-.37,1.37c1.37,0,1.58,1.08,1.58,2.4s-.21,2.4-1.58,2.4c-.74,0-1.23-.26-1.51-.42v-3.96c.28-.16.77-.42,1.51-.42m5.15.88c0-.65.52-.89,1.35-.89.88,0,1.54.17,2.14.4v-1.4c-.55-.24-1.22-.36-2.17-.36-2.06,0-2.84,1.05-2.84,2.28s.52,1.91,2.63,2.1c.94.08,1.16.36,1.16.89,0,.63-.55.89-1.66.89-.88,0-1.62-.23-2.08-.4v1.38c.48.2,1.34.39,2.31.39,2.24,0,2.98-1.08,2.98-2.31,0-1.34-.55-1.98-2.65-2.17-.91-.09-1.16-.3-1.16-.81m6.29,5.22c.17,0,.31-.03.31-.03v-1.3c-.45,0-.59-.15-.59-.55v-5.4h-1.57v5.42c0,1.23.58,1.87,1.85,1.87m-2.08-9.41c0,.58.46,1.05,1.02,1.05s1.02-.47,1.02-1.05-.46-1.05-1.02-1.05-1.02.47-1.02,1.05"/>
  <path class="cls-1" d="m35.19,45.5c-10.78,0-19.55-8.77-19.55-19.55,0-6.94,3.56-13.22,9.52-16.78.23-.14.53-.06.67.17.14.23.06.53-.17.67-5.66,3.39-9.05,9.35-9.05,15.95,0,10.24,8.33,18.57,18.57,18.57s18.57-8.33,18.57-18.57c0-6.6-3.38-12.56-9.05-15.95-.23-.14-.31-.44-.17-.67.14-.23.44-.31.67-.17,5.96,3.57,9.52,9.84,9.52,16.78,0,10.78-8.77,19.55-19.55,19.55Z"/>
</svg>