<?xml version="1.0" encoding="UTF-8"?>
<svg id="Layer_1" data-name="Layer 1" xmlns="http://www.w3.org/2000/svg" viewBox="0 0 90.71 90.71">
  <defs>
    <style>
      .cls-1 {
        fill: #fff;
      }

      .cls-2 {
        fill: #5cb8b2;
      }
    </style>
  </defs>
  <circle class="cls-2" cx="48.34" cy="45.35" r="42.37"/>
  <g>
    <path class="cls-1" d="M41.22,22.58c-5.06,0-9.82,1.97-13.4,5.55-3.58,3.58-5.55,8.34-5.55,13.4,0,5.06,1.97,9.82,5.55,13.4l13.4,13.41,13.4-13.41c3.58-3.58,5.55-8.34,5.55-13.4,0-5.06-1.97-9.82-5.55-13.4-3.58-3.58-8.34-5.55-13.4-5.55Zm14.6,18.96c0,3.9-1.52,7.57-4.29,10.32l-10.31,10.32-10.32-10.33c-2.75-2.76-4.27-6.42-4.27-10.32,0-3.9,1.52-7.56,4.27-10.32,2.75-2.76,6.42-4.28,10.31-4.28h0c3.9,0,7.57,1.52,10.32,4.28,2.72,2.72,4.28,6.48,4.27,10.33Z"/>
    <path class="cls-1" d="M44.84,35.28c-1.93-1.11-4.31-1.27-6.36-.42-2.06,.85-3.63,2.64-4.21,4.79-.58,2.15-.11,4.49,1.24,6.25,1.35,1.77,3.49,2.82,5.72,2.83h0c1.92,0,3.73-.75,5.1-2.11,1.58-1.57,2.34-3.83,2.05-6.04-.29-2.21-1.61-4.19-3.54-5.3Zm-3.61,3.39c.73,.02,1.48,.29,2.02,.83,.53,.53,.84,1.27,.84,2.02,0,.75-.3,1.49-.83,2.02-1.08,1.08-2.96,1.08-4.04,0-.54-.54-.83-1.25-.83-2.01,0-.76,.3-1.47,.83-2.01,.54-.54,1.25-.84,2.01-.84Z"/>
    <path class="cls-1" d="M41.22,6.99C20.07,6.99,2.86,24.2,2.86,45.35s17.21,38.37,38.37,38.37,38.37-17.21,38.37-38.37S62.38,6.99,41.22,6.99Zm34.32,38.37c0,18.92-15.39,34.32-34.32,34.32S6.91,64.28,6.91,45.35,22.3,11.04,41.22,11.04s34.32,15.39,34.32,34.32Z"/>
  </g>
</svg>