<svg xmlns="http://www.w3.org/2000/svg" viewBox="0 0 738.24 421.1"><g id="Australia"><circle cx="108.12" cy="237.52" r="6.5" fill="#5bb7b1"/><circle cx="126.12" cy="237.52" r="6.5" fill="#5bb7b1"/><circle cx="144.12" cy="237.52" r="6.5" fill="#5bb7b1"/><circle cx="162.12" cy="237.52" r="6.5" fill="#5bb7b1"/><circle cx="180.12" cy="237.52" r="6.5" fill="#5bb7b1"/><circle cx="540.12" cy="237.52" r="6.5" fill="#5bb7b1"/><circle cx="522.12" cy="237.52" r="6.5" fill="#5bb7b1"/><circle cx="504.12" cy="237.52" r="6.5" fill="#5bb7b1"/><circle cx="468.12" cy="237.52" r="6.5" fill="#5bb7b1"/><circle cx="486.12" cy="237.52" r="6.5" fill="#5bb7b1"/><circle cx="126.12" cy="255.51" r="6.5" fill="#ff8200"/><circle cx="144.12" cy="255.51" r="6.5" fill="#5bb7b1"/><circle cx="162.12" cy="255.51" r="6.5" fill="#5bb7b1"/><circle cx="180.12" cy="255.51" r="6.5" fill="#5bb7b1"/><circle cx="198.12" cy="255.51" r="6.5" fill="#5bb7b1"/><circle cx="540.12" cy="255.51" r="6.5" fill="#5bb7b1"/><circle cx="522.12" cy="255.51" r="6.5" fill="#5bb7b1"/><circle cx="504.12" cy="255.51" r="6.5" fill="#5bb7b1"/><circle cx="468.12" cy="255.51" r="6.5" fill="#5bb7b1"/><circle cx="450.12" cy="255.51" r="6.5" fill="#5bb7b1"/><circle cx="432.12" cy="255.51" r="6.5" fill="#5bb7b1"/><circle cx="414.12" cy="255.51" r="6.5" fill="#5bb7b1"/><circle cx="486.12" cy="255.51" r="6.5" fill="#5bb7b1"/><circle cx="144.12" cy="273.49" r="6.5" fill="#5bb7b1"/><circle cx="162.12" cy="273.49" r="6.5" fill="#5bb7b1"/><circle cx="180.12" cy="273.49" r="6.5" fill="#5bb7b1"/><circle cx="198.12" cy="273.49" r="6.5" fill="#5bb7b1"/><circle cx="216.12" cy="273.49" r="6.5" fill="#5bb7b1"/><circle cx="540.12" cy="273.49" r="6.5" fill="#5bb7b1"/><circle cx="522.12" cy="273.49" r="6.5" fill="#5bb7b1"/><circle cx="504.12" cy="273.49" r="6.5" fill="#5bb7b1"/><circle cx="468.12" cy="273.49" r="6.5" fill="#5bb7b1"/><circle cx="450.12" cy="273.49" r="6.5" fill="#5bb7b1"/><circle cx="432.12" cy="273.49" r="6.5" fill="#5bb7b1"/><circle cx="414.12" cy="273.49" r="6.5" fill="#5bb7b1"/><circle cx="360.12" cy="273.49" r="6.5" fill="#5bb7b1"/><circle cx="378.12" cy="273.49" r="6.5" fill="#5bb7b1"/><circle cx="486.12" cy="273.49" r="6.5" fill="#5bb7b1"/><circle cx="162.12" cy="291.47" r="6.5" fill="#5bb7b1"/><circle cx="180.12" cy="291.47" r="6.5" fill="#5bb7b1"/><circle cx="198.12" cy="291.47" r="6.5" fill="#5bb7b1"/><circle cx="216.12" cy="291.47" r="6.5" fill="#5bb7b1"/><circle cx="522.12" cy="291.47" r="6.5" fill="#5bb7b1"/><circle cx="504.12" cy="291.47" r="6.5" fill="#5bb7b1"/><circle cx="468.12" cy="291.47" r="6.5" fill="#5bb7b1"/><circle cx="450.12" cy="291.47" r="6.5" fill="#5bb7b1"/><circle cx="432.12" cy="291.47" r="6.5" fill="#5bb7b1"/><circle cx="414.12" cy="291.47" r="6.5" fill="#5bb7b1"/><circle cx="360.12" cy="291.47" r="6.5" fill="#5bb7b1"/><circle cx="378.12" cy="291.47" r="6.5" fill="#5bb7b1"/><circle cx="396.12" cy="291.47" r="6.5" fill="#5bb7b1"/><circle cx="486.12" cy="291.47" r="6.5" fill="#5bb7b1"/><circle cx="450.12" cy="309.45" r="6.5" fill="#5bb7b1"/><circle cx="432.12" cy="309.45" r="6.5" fill="#5bb7b1"/><circle cx="414.12" cy="309.45" r="6.5" fill="#5bb7b1"/><circle cx="378.12" cy="309.45" r="6.5" fill="#5bb7b1"/><circle cx="396.12" cy="309.45" r="6.5" fill="#5bb7b1"/><circle cx="486.12" cy="309.45" r="6.5" fill="#5bb7b1"/><circle cx="72.12" cy="129.63" r="6.5" fill="#5bb7b1"/><circle cx="594.12" cy="129.63" r="6.5" fill="#5bb7b1"/><circle cx="576.12" cy="129.63" r="6.5" fill="#5bb7b1"/><circle cx="90.12" cy="129.63" r="6.5" fill="#5bb7b1"/><circle cx="72.12" cy="147.61" r="6.5" fill="#5bb7b1"/><circle cx="108.12" cy="147.61" r="6.5" fill="#5bb7b1"/><circle cx="144.12" cy="147.61" r="6.5" fill="#5bb7b1"/><circle cx="612.13" cy="147.61" r="6.5" fill="#5bb7b1"/><circle cx="594.12" cy="147.61" r="6.5" fill="#5bb7b1"/><circle cx="576.12" cy="147.61" r="6.5" fill="#5bb7b1"/><circle cx="558.12" cy="147.61" r="6.5" fill="#5bb7b1"/><circle cx="90.12" cy="147.61" r="6.5" fill="#5bb7b1"/><circle cx="72.12" cy="165.6" r="6.5" fill="#5bb7b1"/><circle cx="108.12" cy="165.6" r="6.5" fill="#5bb7b1"/><circle cx="126.12" cy="165.6" r="6.5" fill="#5bb7b1"/><circle cx="144.12" cy="165.6" r="6.5" fill="#5bb7b1"/><circle cx="162.12" cy="165.6" r="6.5" fill="#5bb7b1"/><circle cx="630.13" cy="165.6" r="6.5" fill="#5bb7b1"/><circle cx="612.13" cy="165.6" r="6.5" fill="#5bb7b1"/><circle cx="594.12" cy="165.6" r="6.5" fill="#5bb7b1"/><circle cx="576.12" cy="165.6" r="6.5" fill="#5bb7b1"/><circle cx="558.12" cy="165.6" r="6.5" fill="#5bb7b1"/><circle cx="90.12" cy="165.6" r="6.5" fill="#5bb7b1"/><circle cx="72.12" cy="183.58" r="6.5" fill="#5bb7b1"/><circle cx="108.12" cy="183.58" r="6.5" fill="#5bb7b1"/><circle cx="126.12" cy="183.58" r="6.5" fill="#5bb7b1"/><circle cx="144.12" cy="183.58" r="6.5" fill="#5bb7b1"/><circle cx="162.12" cy="183.58" r="6.5" fill="#5bb7b1"/><circle cx="180.12" cy="183.58" r="6.5" fill="#5bb7b1"/><circle cx="648.13" cy="183.58" r="6.5" fill="#5bb7b1"/><circle cx="630.13" cy="183.58" r="6.5" fill="#5bb7b1"/><circle cx="612.13" cy="183.58" r="6.5" fill="#5bb7b1"/><circle cx="594.12" cy="183.58" r="6.5" fill="#5bb7b1"/><circle cx="576.12" cy="183.58" r="6.5" fill="#5bb7b1"/><circle cx="558.12" cy="183.58" r="6.5" fill="#5bb7b1"/><circle cx="540.12" cy="183.58" r="6.5" fill="#5bb7b1"/><circle cx="522.12" cy="183.58" r="6.5" fill="#5bb7b1"/><circle cx="666.13" cy="183.58" r="6.5" fill="#5bb7b1"/><circle cx="90.12" cy="183.58" r="6.5" fill="#5bb7b1"/><circle cx="72.12" cy="201.56" r="6.5" fill="#5bb7b1"/><circle cx="108.12" cy="201.56" r="6.5" fill="#5bb7b1"/><circle cx="126.12" cy="201.56" r="6.5" fill="#5bb7b1"/><circle cx="144.12" cy="201.56" r="6.5" fill="#5bb7b1"/><circle cx="162.12" cy="201.56" r="6.5" fill="#5bb7b1"/><circle cx="180.12" cy="201.56" r="6.5" fill="#5bb7b1"/><circle cx="630.13" cy="201.56" r="6.5" fill="#5bb7b1"/><circle cx="612.13" cy="201.56" r="6.5" fill="#5bb7b1"/><circle cx="594.12" cy="201.56" r="6.5" fill="#5bb7b1"/><circle cx="576.12" cy="201.56" r="6.5" fill="#5bb7b1"/><circle cx="558.12" cy="201.56" r="6.5" fill="#5bb7b1"/><circle cx="540.12" cy="201.56" r="6.5" fill="#5bb7b1"/><circle cx="522.12" cy="201.56" r="6.5" fill="#5bb7b1"/><circle cx="504.12" cy="201.56" r="6.5" fill="#5bb7b1"/><circle cx="90.12" cy="201.56" r="6.5" fill="#5bb7b1"/><circle cx="72.12" cy="219.54" r="6.5" fill="#5bb7b1"/><circle cx="108.12" cy="219.54" r="6.5" fill="#5bb7b1"/><circle cx="126.12" cy="219.54" r="6.5" fill="#5bb7b1"/><circle cx="144.12" cy="219.54" r="6.5" fill="#5bb7b1"/><circle cx="162.12" cy="219.54" r="6.5" fill="#5bb7b1"/><circle cx="180.12" cy="219.54" r="6.5" fill="#5bb7b1"/><circle cx="630.13" cy="219.54" r="6.5" fill="#5bb7b1"/><circle cx="612.13" cy="219.54" r="6.5" fill="#5bb7b1"/><circle cx="558.12" cy="219.54" r="6.5" fill="#5bb7b1"/><circle cx="540.12" cy="219.54" r="6.5" fill="#5bb7b1"/><circle cx="522.12" cy="219.54" r="6.5" fill="#5bb7b1"/><circle cx="504.12" cy="219.54" r="6.5" fill="#5bb7b1"/><circle cx="486.12" cy="219.54" r="6.5" fill="#5bb7b1"/><circle cx="90.12" cy="219.54" r="6.5" fill="#5bb7b1"/><circle cx="72.12" cy="111.65" r="6.5" fill="#5bb7b1"/><circle cx="594.12" cy="111.65" r="6.5" fill="#5bb7b1"/><circle cx="576.12" cy="111.65" r="6.5" fill="#5bb7b1"/><circle cx="90.12" cy="111.65" r="6.5" fill="#5bb7b1"/></g></svg>