<svg id="a8685575-47aa-4847-b531-1993ff3a910a" data-name="Layer 1" xmlns="http://www.w3.org/2000/svg" viewBox="0 0 90.71 73.7"><path d="M76.8,70.6A1.81,1.81,0,0,1,75.48,70l-24.62-25,.31,10.3a1.84,1.84,0,0,1-1.8,1.91h-.06a1.85,1.85,0,0,1-1.86-1.8l-.45-15v-.2s0-.06,0-.11a.12.12,0,0,1,0-.08.26.26,0,0,1,0-.11s0,0,0-.06,0-.08,0-.12,0,0,0-.05a.53.53,0,0,1,.06-.14.1.1,0,0,1,0,0,.5.5,0,0,1,.08-.12,0,0,0,0,1,0,0s0-.07.08-.11,0,0,0,0,0,0,.06-.08l.06-.06h0s.05,0,.08-.06l.06-.06.14-.11h0a2,2,0,0,1,.7-.28h0l.14,0h.19L63.66,39a1.86,1.86,0,0,1-.11,3.71l-10.13-.3,24.69,25a1.87,1.87,0,0,1,0,2.64A1.91,1.91,0,0,1,76.8,70.6Z" fill="#f58020"/><path d="M43.73,33.36v.08s0,.06,0,.11a.17.17,0,0,1,0,.07.45.45,0,0,1,0,.11s0,.05,0,.06l0,.13v0a.59.59,0,0,1-.06.14,0,0,0,0,1,0,0s0,.08-.08.13a.1.1,0,0,1,0,0s-.05.08-.08.11a.05.05,0,0,0,0,.05s-.05,0-.06.07,0,0-.07.06h0a.1.1,0,0,1-.06.05l-.07.08-.1.06s0,0-.06,0-.08,0-.12.08h0a.38.38,0,0,1-.13.06s0,0,0,0l-.14,0s0,0,0,0a.32.32,0,0,1-.14,0,0,0,0,0,0,0,0H42l-.18,0h-.07L27,34.69a1.85,1.85,0,0,1,.1-3.7l10.13.29L12.6,6.28a1.87,1.87,0,0,1,2.65-2.63l24.62,25-.31-10.3a1.85,1.85,0,0,1,3.7-.11l.45,15v0A.15.15,0,0,1,43.73,33.36Z" fill="#f58020"/><path d="M13.91,70.6A1.81,1.81,0,0,0,15.23,70l24.62-25-.31,10.3a1.84,1.84,0,0,0,1.8,1.91h.06a1.85,1.85,0,0,0,1.86-1.8l.45-15v-.2s0-.06,0-.11a.12.12,0,0,0,0-.08.26.26,0,0,0,0-.11s0,0,0-.06,0-.08,0-.12,0,0,0-.05a.53.53,0,0,0-.06-.14.1.1,0,0,0,0,0,.5.5,0,0,0-.08-.12,0,0,0,0,0,0,0s0-.07-.08-.11,0,0,0,0,0,0-.06-.08a.33.33,0,0,0-.06-.06h0s-.05,0-.08-.06L43,39l-.14-.11h0a2,2,0,0,0-.7-.28h0l-.14,0h-.19L27.05,39a1.86,1.86,0,1,0,.11,3.71l10.13-.3-24.69,25a1.87,1.87,0,0,0,0,2.64A1.91,1.91,0,0,0,13.91,70.6Z" fill="#f58020"/><path d="M47,33.36v.08s0,.06,0,.11a.17.17,0,0,0,0,.07.45.45,0,0,0,0,.11s0,.05,0,.06l0,.13v0a.59.59,0,0,0,.06.14,0,0,0,0,0,0,0s0,.08.08.13a.1.1,0,0,0,0,0s.05.08.08.11a.05.05,0,0,1,0,.05s.05,0,.06.07,0,0,.07.06h0a.1.1,0,0,0,.06.05l.07.08.1.06s0,0,.06,0,.08,0,.12.08h0a.38.38,0,0,0,.13.06s0,0,0,0l.14,0s0,0,0,0a.32.32,0,0,0,.14,0,0,0,0,0,1,0,0h.19l.18,0h.07l14.76-.44a1.85,1.85,0,0,0-.1-3.7l-10.13.29,24.64-25a1.87,1.87,0,0,0-2.65-2.63l-24.62,25,.31-10.3a1.85,1.85,0,0,0-3.7-.11l-.45,15v0A.15.15,0,0,0,47,33.36Z" fill="#5cb8b2"/></svg>