<svg id="Layer_1" data-name="Layer 1" xmlns="http://www.w3.org/2000/svg" viewBox="0 0 90.71 73.7"><path d="M73.58,18.93a1.64,1.64,0,0,1-1.64,1.64H36.08a1.64,1.64,0,0,1,0-3.28H71.94A1.63,1.63,0,0,1,73.58,18.93Z" fill="#f58020"/><path d="M36.08,29.48H46.87a1.64,1.64,0,1,0,0-3.27H36.08a1.64,1.64,0,0,0,0,3.27Z" fill="#f58020"/><path d="M36.08,38.37H46.87a1.64,1.64,0,1,0,0-3.27H36.08a1.64,1.64,0,0,0,0,3.27Z" fill="#f58020"/><path d="M36.08,47.26H46.87a1.64,1.64,0,1,0,0-3.27H36.08a1.64,1.64,0,0,0,0,3.27Z" fill="#f58020"/><path d="M71.94,52.88H36.08a1.64,1.64,0,0,0,0,3.27H71.94a1.64,1.64,0,1,0,0-3.27Z" fill="#f58020"/><path d="M71.94,26.21H56a1.64,1.64,0,0,0-1.64,1.63V45.61A1.65,1.65,0,0,0,56,47.25H71.94a1.64,1.64,0,0,0,1.64-1.64V27.84A1.63,1.63,0,0,0,71.94,26.21ZM70.3,44H57.64V29.47H70.3Z" fill="#5cb8b2"/><path d="M82.86,6.3H25.15a1.63,1.63,0,0,0-1.64,1.63V57.11a7,7,0,0,1-14,0V25.18a1.64,1.64,0,0,0-3.27,0V57.11A10.29,10.29,0,0,0,16.5,67.4H75.68a8.82,8.82,0,0,0,8.82-8.83V7.93A1.63,1.63,0,0,0,82.86,6.3ZM81.2,58.58a5.55,5.55,0,0,1-5.55,5.55H24a10.27,10.27,0,0,0,2.77-7V9.57H81.2Z" fill="#f58020"/><path d="M14.86,25.53V57.09a1.64,1.64,0,1,0,3.28,0V25.53a1.64,1.64,0,0,0-3.28,0Z" fill="#c6c6c6"/></svg>