<?xml version="1.0" encoding="UTF-8"?>
<svg id="Layer_1" data-name="Layer 1" xmlns="http://www.w3.org/2000/svg" viewBox="0 0 402.5 99.17">
  <defs>
    <style>
      .cls-1 {
        fill: #00263d;
      }

      .cls-2 {
        fill: #f48020;
      }

      .cls-3 {
        fill: #fff;
      }

      .cls-4 {
        fill: #a7a9ac;
      }

      .cls-5 {
        fill: #1b2e5a;
      }
    </style>
  </defs>
  <path class="cls-3" d="m50.56,45.77c-10.32,0-14.96-6.81-14.96-14.44s4.64-14.38,14.96-14.38c7.11,0,11.5,3.2,13.56,7.65l.21.46.23-.45c2.43-4.76,7.44-7.66,13.29-7.66,7.15,0,13.17,3.47,13.92,10.8h-9.61c-.14-1.07-.52-1.97-1.24-2.57-.7-.64-1.67-.98-2.85-.98-4.34,0-4.92,3.83-4.92,7.18s.58,7.13,4.92,7.13c2.39,0,4.05-1.88,4.36-4.09h9.65c-1.11,7.26-6.9,11.34-14.23,11.34-5.87,0-10.9-2.89-13.31-7.65l-.23-.45-.21.46c-2.07,4.44-6.45,7.65-13.54,7.65m-.58-21.57c-4.29,0-4.81,4.22-4.81,7.13s.52,7.18,4.81,7.18,4.81-4.27,4.81-7.18-.52-7.13-4.81-7.13m78.98,8.18l-.36.18c-1.26.63-2.68,1-4.14,1.32-2.35.54-3.79,1.17-3.79,3.25,0,1.47,1.56,2.83,3.58,2.83,2.54,0,4.54-1.55,4.7-4.6v-2.99Zm-35.95-15.43h9.72v5.73l.46-.7c1.8-3.28,3.98-5.04,7.74-5.04h2.86s0,3.96,0,3.96l.43-.46c2.66-2.88,6.46-3.5,11.01-3.5,9.6,0,12.43,5.52,13.11,10.33l1.31,11.83c.13.96.17,1.59.24,2.16.07.59.19,1.12.48,1.88.18.48.48,1.05.74,1.51l.24.41h-11.25c-.23-.72-.35-1.71-.31-2.37l.05-.71-.48.52c-2.3,2.51-5.49,3.25-8.9,3.25-5.3,0-9.59-2.53-9.59-8.2,0-4.27,2.48-6.32,5.67-7.45,1.61-.57,3.39-.89,5.11-1.15,1.74-.25,3.4-.42,4.76-.68.37-.07.74-.14,1.09-.23.35-.1.69-.22,1-.41.62-.39,1.02-1.02,1.02-2.07,0-2.11-2-2.83-3.74-2.83-3.22,0-4.07,1.57-4.21,2.85h-11.74c-4.38,0-6.69,2.64-6.69,8.69v10.78h-10.15v-28.11Z"/>
  <path class="cls-5" d="m64.32,38.22c-2.11,4.54-6.59,7.79-13.76,7.79-10.48,0-15.21-6.94-15.21-14.68s4.73-14.63,15.21-14.63c7.2,0,11.68,3.25,13.79,7.79,2.47-4.85,7.57-7.79,13.51-7.79,7.31,0,13.54,3.6,14.18,11.29h-10.1c-.11-1.13-.48-2.04-1.18-2.64-.65-.59-1.56-.91-2.69-.91-4.08,0-4.68,3.55-4.68,6.94s.59,6.88,4.68,6.88c2.31,0,3.92-1.88,4.14-4.09h10.16c-1.02,7.58-6.99,11.83-14.51,11.83-5.96,0-11.07-2.93-13.53-7.79m-9.77-6.89c0-2.96-.54-6.88-4.57-6.88s-4.57,3.93-4.57,6.88.54,6.94,4.57,6.94,4.57-3.98,4.57-6.94m74.17,4.03v-2.58c-1.29.65-2.74,1.02-4.19,1.34-2.36.54-3.6,1.13-3.6,3.01,0,1.29,1.4,2.58,3.33,2.58,2.42,0,4.3-1.45,4.46-4.36m-35.95,9.95v-28.6h10.21v5.15c1.83-3.33,4.08-5.16,7.95-5.16h3.11s0,3.58,0,3.58c2.73-2.96,6.63-3.58,11.19-3.58,9.75,0,12.67,5.64,13.36,10.55l1.31,11.83c.27,1.92.14,2.51.71,3.98.35.93,1.18,2.25,1.18,2.25h-11.86c-.27-.75-.43-1.88-.38-2.63-2.36,2.58-5.64,3.34-9.08,3.34-5.37,0-9.83-2.58-9.83-8.45,0-8.82,10.32-8.5,15.74-9.52,1.45-.27,2.9-.53,2.9-2.47s-1.77-2.58-3.49-2.58c-3.28,0-3.92,1.67-3.98,2.85h-11.97c-4.19,0-6.45,2.47-6.45,8.44v11.02h-10.64Z"/>
  <path class="cls-4" d="m359.84,12.87h-4.44v.75h1.76v4.86h.93v-4.86h1.76v-.75Zm-103.78-5.96l-3.71,17.43c-.59-4.57-4.25-7.31-8.92-7.31-10.05,0-15.1,9.68-15.1,18.07,0,5.86,3.49,10.86,10.42,10.86,4.89,0,8.38-2.74,10.43-6.94l-1.29,6.29h2.04l8.17-38.4h-2.04Zm37.5,38.4h2.04l5.75-27.64h-2.04l-5.75,27.64Zm6.88-32.86h2.04l1.13-5.54h-2.04l-1.13,5.54Zm12.07,31.73c-7.09,0-8.81-4.68-8.81-9.52,0-6.94,4.62-15.87,13.33-15.87,4.78,0,7.58,4.14,7.58,8.17,0,6.99-4.14,17.21-12.09,17.21m16.87-37.27l-3.71,17.43c-.59-4.57-4.24-7.31-8.92-7.31-10.05,0-15.1,9.68-15.1,18.07,0,5.86,3.49,10.86,10.42,10.86,4.89,0,8.38-2.74,10.42-6.94l-1.29,6.29h2.04l8.17-38.4h-2.04Zm23.45,24.85c.22-1.34.38-2.69.38-4.09,0-6.08-3.6-10.65-10.1-10.65-9.08,0-14.67,7.75-14.67,18.02,0,5.92,3.6,10.92,10.59,10.92,6.61,0,11.07-4.09,12.68-9.84h-2.04c-.97,4.25-5.27,8.07-10.42,8.07-5.59,0-8.76-4.36-8.76-9.41,0-1.02.11-2.1.27-3.01h22.08Zm-21.76-1.77c1.24-5.86,5.16-11.19,11.66-11.19,5.8,0,8.44,4.14,8.44,8.87,0,.7-.11,1.4-.27,2.31h-19.83Zm-69.4,15.33h2.53l12.95-25.06,2.58,25.06h2.47l14.73-27.64h-2.37l-13,25.28-2.63-25.28h-2.74l-12.79,25.28-2.85-25.28h-2.04l3.17,27.64Zm-41.43,0h2.04l8.01-38.4h-2.04l-8.01,38.4Zm-16.46,0h2.04l2.42-11.19c1.24-5.65,4.03-15.06,12.04-15.06.54,0,1.07.11,1.67.22l.59-2.15c-.59-.05-1.13-.11-1.72-.11-4.94,0-8.44,3.12-10.42,7.26l1.4-6.61h-2.04l-5.97,27.64Zm-10.08-26.52c5.7.16,8.44,3.71,8.44,9.14,0,7.21-4.3,16.24-12.74,16.24-6.29,0-8.97-4.46-8.97-10,0-7.26,4.84-15.6,13.27-15.38m-.43-1.77c-9.35,0-14.89,8.93-14.89,17.32,0,6.99,3.6,11.62,11.07,11.62,9.73,0,14.72-9.63,14.72-18.07,0-6.78-4.14-10.86-10.91-10.86m-46.73,28.29h2.52l12.95-25.06,2.58,25.06h2.47l14.72-27.64h-2.37l-13,25.28-2.63-25.28h-2.74l-12.79,25.28-2.85-25.28h-2.04l3.17,27.64Zm92.65-1.13c-7.09,0-8.81-4.68-8.81-9.52,0-6.94,4.62-15.87,13.33-15.87,4.78,0,7.58,4.14,7.58,8.17,0,6.99-4.14,17.21-12.09,17.21m127.96-31.31h-1.42l-1.65,4.26-1.68-4.26h-1.43v5.61h.93v-4.69l1.86,4.69h.59l1.84-4.69.03,4.69h.92v-5.61Z"/>
  <g>
    <path class="cls-1" d="m110.09,87.08h-3.1l-1.76-4.56h-8.1l-1.76,4.56h-3l7.06-17.89h3.6l7.06,17.89Zm-11.91-7.3h5.98l-2.99-7.71-2.99,7.71Z"/>
    <path class="cls-1" d="m123.95,79.39v7.69h-2.68v-6.81c0-2.06-1.06-3.21-2.85-3.21s-3.17,1.14-3.17,3.23v6.78h-2.68v-12.24h2.66v1.49c.98-1.44,2.5-1.81,3.76-1.81,2.91,0,4.97,2.01,4.97,4.87"/>
    <path class="cls-1" d="m150.55,87.08h-3.1l-1.76-4.56h-8.1l-1.76,4.56h-3l7.06-17.89h3.6l7.07,17.89Zm-11.91-7.3h5.98l-2.99-7.71-2.99,7.71Z"/>
    <path class="cls-1" d="m163.03,76.47l-1.71,1.83c-.86-.81-1.76-1.26-2.94-1.26-2.06,0-3.62,1.61-3.62,3.92s1.56,3.92,3.62,3.92c1.18,0,2.22-.55,3-1.28l1.65,1.84c-1.11,1.29-2.75,1.95-4.57,1.95-3.9,0-6.44-2.77-6.44-6.44s2.54-6.44,6.44-6.44c1.83,0,3.49.66,4.57,1.95"/>
    <path class="cls-1" d="m175.9,76.47l-1.71,1.83c-.86-.81-1.76-1.26-2.94-1.26-2.06,0-3.61,1.61-3.61,3.92s1.56,3.92,3.61,3.92c1.18,0,2.22-.55,3-1.28l1.65,1.84c-1.11,1.29-2.75,1.95-4.57,1.95-3.9,0-6.44-2.77-6.44-6.44s2.54-6.44,6.44-6.44c1.83,0,3.49.66,4.57,1.95"/>
    <rect class="cls-1" x="178.89" y="68.68" width="2.68" height="18.4"/>
    <path class="cls-1" d="m188.98,70.61c0,1.06-.83,1.87-1.89,1.87s-1.86-.81-1.86-1.87.8-1.89,1.86-1.89,1.89.83,1.89,1.89m-.54,16.47h-2.68v-12.24h2.68v12.24Z"/>
    <path class="cls-1" d="m212.72,79.39v7.69h-2.68v-6.81c0-2.06-1.06-3.21-2.85-3.21s-3.17,1.14-3.17,3.23v6.78h-2.68v-6.81c0-2.06-1.06-3.21-2.85-3.21s-3.17,1.14-3.17,3.23v6.78h-2.68v-12.24h2.66v1.49c.98-1.44,2.5-1.81,3.76-1.81,1.86,0,3.38.83,4.23,2.18,1.06-1.75,2.95-2.18,4.47-2.18,2.91,0,4.97,2.01,4.97,4.87"/>
    <path class="cls-1" d="m227.78,80.95c0,.34-.03.69-.05,1h-9.05c.36,2.2,1.9,3.12,3.64,3.12,1.23,0,2.53-.49,3.54-1.29l1.33,1.9c-1.49,1.28-3.18,1.73-5.03,1.73-3.67,0-6.26-2.55-6.26-6.44s2.49-6.44,6.09-6.44,5.77,2.61,5.79,6.43m-9.08-1.03h6.35c-.29-1.9-1.41-3.02-3.1-3.02-1.9,0-2.96,1.23-3.24,3.02"/>
    <path class="cls-1" d="m248.11,76.47l-1.71,1.83c-.86-.81-1.76-1.26-2.94-1.26-2.06,0-3.62,1.61-3.62,3.92s1.56,3.92,3.62,3.92c1.18,0,2.22-.55,3-1.28l1.65,1.84c-1.11,1.29-2.75,1.95-4.57,1.95-3.9,0-6.44-2.77-6.44-6.44s2.54-6.44,6.44-6.44c1.83,0,3.49.66,4.57,1.95"/>
    <path class="cls-1" d="m263.14,80.96c0,3.67-2.81,6.44-6.59,6.44s-6.58-2.77-6.58-6.44,2.8-6.44,6.58-6.44,6.59,2.77,6.59,6.44m-10.42,0c0,2.31,1.65,3.92,3.83,3.92s3.85-1.61,3.85-3.92-1.66-3.92-3.85-3.92-3.83,1.61-3.83,3.92"/>
    <path class="cls-1" d="m286.53,79.39v7.69h-2.68v-6.81c0-2.06-1.06-3.21-2.85-3.21s-3.17,1.14-3.17,3.23v6.78h-2.68v-6.81c0-2.06-1.06-3.21-2.85-3.21s-3.17,1.14-3.17,3.23v6.78h-2.68v-12.24h2.66v1.49c.98-1.44,2.5-1.81,3.76-1.81,1.87,0,3.39.83,4.23,2.18,1.06-1.75,2.95-2.18,4.47-2.18,2.91,0,4.97,2.01,4.97,4.87"/>
    <path class="cls-1" d="m303.21,80.96c0,3.74-2.7,6.44-6.12,6.44-1.74,0-2.99-.7-3.83-1.78v6.57h-2.67v-17.35h2.67v1.46c.84-1.07,2.1-1.77,3.83-1.77,3.42,0,6.12,2.7,6.12,6.44m-10.13,0c0,2.24,1.48,3.92,3.69,3.92s3.69-1.77,3.69-3.92-1.39-3.92-3.69-3.92-3.69,1.69-3.69,3.92"/>
    <path class="cls-1" d="m318.28,87.08h-2.67v-1.47c-.84,1.09-2.11,1.79-3.85,1.79-3.42,0-6.12-2.7-6.12-6.44s2.7-6.44,6.12-6.44c1.74,0,3,.71,3.85,1.8v-1.48h2.67v12.24Zm-9.89-6.12c0,2.15,1.39,3.92,3.69,3.92s3.69-1.69,3.69-3.92-1.48-3.92-3.69-3.92-3.69,1.78-3.69,3.92"/>
    <path class="cls-1" d="m333.85,79.39v7.69h-2.68v-6.81c0-2.06-1.06-3.21-2.85-3.21s-3.17,1.14-3.17,3.23v6.78h-2.68v-12.24h2.66v1.49c.98-1.44,2.5-1.81,3.76-1.81,2.91,0,4.97,2.01,4.97,4.87"/>
    <polygon class="cls-1" points="339.65 92.26 336.68 92.26 341.07 84.56 335.64 74.84 338.64 74.84 342.57 81.87 346.37 74.84 349.31 74.84 339.65 92.26"/>
    <path class="cls-2" d="m353.28,85.15c0,1.2-1.03,2.25-2.22,2.25s-2.24-1.05-2.24-2.25,1.05-2.22,2.24-2.22,2.22,1.02,2.22,2.22"/>
  </g>
</svg>