<svg id="ac19e826-c760-4a7f-9852-2dfc859d69e2" data-name="Layer 1" xmlns="http://www.w3.org/2000/svg" viewBox="0 0 90.71 73.7"><path d="M70.52,14.38l-.1-.09a33.6,33.6,0,0,0-50.12,0l-.12.13a33.59,33.59,0,0,0,0,44.92l.1.09a33.59,33.59,0,0,0,50,.1.38.38,0,0,0,.28-.29,33.6,33.6,0,0,0-.09-44.84ZM55,59.86c-2.24,4.33-5.11,7-8.18,7.69V59.86ZM46.81,57V38.3H60.06A52,52,0,0,1,56.42,57ZM66,59.86a30.33,30.33,0,0,1-12,6.66,28.61,28.61,0,0,0,4.45-6.66Zm-7.55-46A25.88,25.88,0,0,0,54,7.18a31.11,31.11,0,0,1,12,6.66Zm-11.61,0V6.15c3.07.66,5.94,3.36,8.18,7.69Zm0,21.56V16.75h9.61A52,52,0,0,1,60.06,35.4Zm29.41,2.9A30.59,30.59,0,0,1,68.79,57h-9.2A55.6,55.6,0,0,0,63,38.3Zm0-2.9H63a55.6,55.6,0,0,0-3.38-18.65h9.2A30.59,30.59,0,0,1,76.22,35.4ZM31.12,57h-9.2A31.29,31.29,0,0,1,14.49,38.3H27.74A55.6,55.6,0,0,0,31.12,57Zm4.6-43.11c2.24-4.33,5.11-7,8.18-7.69v7.69Zm8.18,2.91V35.4H30.65a52,52,0,0,1,3.64-18.65ZM24.74,13.84a30.33,30.33,0,0,1,12-6.66,28.93,28.93,0,0,0-4.45,6.66ZM43.9,38.3V57H34.29A52,52,0,0,1,30.65,38.3ZM14.49,35.4a31.29,31.29,0,0,1,7.43-18.65h9.2A55.65,55.65,0,0,0,27.74,35.4ZM36.74,66.52a31.11,31.11,0,0,1-12-6.66h7.53A25.55,25.55,0,0,0,36.74,66.52Zm7.16-6.66v7.69c-3.07-.66-5.94-3.36-8.18-7.69Z" fill="#f58020"/></svg>