<svg id="Layer_1" data-name="Layer 1" xmlns="http://www.w3.org/2000/svg" viewBox="0 0 90.71 90.71"><defs><style>.cls-1{fill:#5cb8b2;}.cls-2{fill:#00263e;}</style></defs><circle class="cls-1" cx="47.15" cy="45.35" r="42.37"/><path class="cls-2" d="M65.69,53.55A7.89,7.89,0,0,0,60,56l-6.4-3.58a18.2,18.2,0,0,0,1.57-7.08,17.54,17.54,0,0,0-1.57-7.13L60,34.55a7.91,7.91,0,1,0-2.22-5.46h0a8.79,8.79,0,0,0,.35,2.22L51.69,35A17.24,17.24,0,0,0,39.41,27.9V20.44a7.94,7.94,0,1,0-3.75,0v7.43A17.61,17.61,0,0,0,23.28,35l-6.41-3.63a9,9,0,0,0,.33-2.19A8,8,0,1,0,15,34.56l6.4,3.63a15.51,15.51,0,0,0-1.62,7,17.58,17.58,0,0,0,1.52,7.14l-6.39,3.57a7.83,7.83,0,0,0-5.72-2.33,8,8,0,1,0,7.94,8h0a8.94,8.94,0,0,0-.35-2.24l6.42-3.75a17.43,17.43,0,0,0,12.38,7.08V70a8,8,0,1,0,9.83,7.89v-.2A7.89,7.89,0,0,0,39.29,70V62.54a17.2,17.2,0,0,0,12.28-7.09L58,59.2a10.48,10.48,0,0,0-.35,2.22A8,8,0,0,0,73.55,62c0-.11,0-.21,0-.32v-.21a7.84,7.84,0,0,0-7.73-7.93h-.14Zm0-28.87a4.19,4.19,0,1,1-4.19,4.19h0a4.21,4.21,0,0,1,4.19-4.16ZM9.17,33.08a4.19,4.19,0,1,1,4.19-4.19h0a4.2,4.2,0,0,1-4.19,4.19Zm0,32.66a4.19,4.19,0,1,1,4.19-4.19h0a4.18,4.18,0,0,1-4.19,4.14ZM33.25,12.58a4.19,4.19,0,1,1,4.19,4.19h0a4.17,4.17,0,0,1-4.18-4.15v0Zm8.36,65.25a4.19,4.19,0,1,1-4.18-4.19h0a4.19,4.19,0,0,1,4.18,4.19ZM37.43,59.12a13.95,13.95,0,1,1,14-13.95h0a14,14,0,0,1-14,13.95Zm28.26,6.57a4.19,4.19,0,1,1,4.18-4.18h0a4.18,4.18,0,0,1-4.18,4.18Z"/><path class="cls-2" d="M41.58,41.19,36,46.81l-2.7-2.7a1.45,1.45,0,1,0-2.05,2h0L35,49.89A1.47,1.47,0,0,0,36,50.3a1.64,1.64,0,0,0,1-.34l6.61-6.56a1.38,1.38,0,0,0,.07-2h0l-.07-.07a1.42,1.42,0,0,0-2-.18h-.11Z"/></svg>