<svg xmlns="http://www.w3.org/2000/svg" viewBox="0 0 641.16 752.89"><g id="Australia"><path d="M257.58,76.8a6.37,6.37,0,1,0-6.37-6.36A6.36,6.36,0,0,0,257.58,76.8Z" fill="#5bb7b1"/><path d="M275.58,76.8a6.37,6.37,0,1,0-6.37-6.36A6.36,6.36,0,0,0,275.58,76.8Z" fill="#5bb7b1"/><path d="M257.58,94.94a6.37,6.37,0,1,0-6.37-6.37A6.37,6.37,0,0,0,257.58,94.94Z" fill="#5bb7b1"/><path d="M275.58,94.94a6.37,6.37,0,1,0-6.37-6.37A6.37,6.37,0,0,0,275.58,94.94Z" fill="#5bb7b1"/><path d="M257.58,112.93a6.37,6.37,0,1,0-6.37-6.36A6.36,6.36,0,0,0,257.58,112.93Z" fill="#5bb7b1"/><path d="M275.58,112.93a6.37,6.37,0,1,0-6.37-6.36A6.36,6.36,0,0,0,275.58,112.93Z" fill="#5bb7b1"/><path d="M293.58,112.93a6.37,6.37,0,1,0-6.37-6.36A6.36,6.36,0,0,0,293.58,112.93Z" fill="#5bb7b1"/><path d="M257.58,130.93a6.37,6.37,0,1,0-6.37-6.37A6.37,6.37,0,0,0,257.58,130.93Z" fill="#5bb7b1"/><path d="M275.58,130.93a6.37,6.37,0,1,0-6.37-6.37A6.37,6.37,0,0,0,275.58,130.93Z" fill="#5bb7b1"/><circle cx="293.58" cy="124.56" r="6.37" fill="#5bb7b1"/><circle cx="311.58" cy="124.56" r="6.37" fill="#5bb7b1"/><path d="M239.58,130.93a6.37,6.37,0,1,0-6.37-6.37A6.37,6.37,0,0,0,239.58,130.93Z" fill="#5bb7b1"/><path d="M257.58,148.92a6.37,6.37,0,1,0-6.37-6.36A6.36,6.36,0,0,0,257.58,148.92Z" fill="#5bb7b1"/><path d="M275.58,148.92a6.37,6.37,0,1,0-6.37-6.36A6.36,6.36,0,0,0,275.58,148.92Z" fill="#5bb7b1"/><path d="M293.58,148.92a6.37,6.37,0,1,0-6.37-6.36A6.36,6.36,0,0,0,293.58,148.92Z" fill="#5bb7b1"/><path d="M311.58,148.92a6.37,6.37,0,1,0-6.37-6.36A6.36,6.36,0,0,0,311.58,148.92Z" fill="#5bb7b1"/><path d="M221.58,148.92a6.37,6.37,0,1,0-6.37-6.36A6.36,6.36,0,0,0,221.58,148.92Z" fill="#5bb7b1"/><path d="M239.58,148.92a6.37,6.37,0,1,0-6.37-6.36A6.36,6.36,0,0,0,239.58,148.92Z" fill="#5bb7b1"/><path d="M257.58,166.92a6.37,6.37,0,1,0-6.37-6.36A6.36,6.36,0,0,0,257.58,166.92Z" fill="#5bb7b1"/><path d="M275.58,166.92a6.37,6.37,0,1,0-6.37-6.36A6.36,6.36,0,0,0,275.58,166.92Z" fill="#5bb7b1"/><path d="M293.58,166.92a6.37,6.37,0,1,0-6.37-6.36A6.36,6.36,0,0,0,293.58,166.92Z" fill="#5bb7b1"/><path d="M311.58,166.92a6.37,6.37,0,1,0-6.37-6.36A6.36,6.36,0,0,0,311.58,166.92Z" fill="#5bb7b1"/><path d="M221.58,166.92a6.37,6.37,0,1,0-6.37-6.36A6.36,6.36,0,0,0,221.58,166.92Z" fill="#5bb7b1"/><path d="M239.58,166.92a6.37,6.37,0,1,0-6.37-6.36A6.36,6.36,0,0,0,239.58,166.92Z" fill="#5bb7b1"/><path d="M257.58,292.89a6.37,6.37,0,1,0-6.37-6.36A6.36,6.36,0,0,0,257.58,292.89Z" fill="#5bb7b1"/><path d="M275.58,292.89a6.37,6.37,0,1,0-6.37-6.36A6.36,6.36,0,0,0,275.58,292.89Z" fill="#5bb7b1"/><path d="M293.58,292.89a6.37,6.37,0,1,0-6.37-6.36A6.36,6.36,0,0,0,293.58,292.89Z" fill="#5bb7b1"/><path d="M311.58,292.89a6.37,6.37,0,1,0-6.37-6.36A6.36,6.36,0,0,0,311.58,292.89Z" fill="#5bb7b1"/><path d="M221.58,292.89a6.37,6.37,0,1,0-6.37-6.36A6.36,6.36,0,0,0,221.58,292.89Z" fill="#5bb7b1"/><path d="M239.58,292.89a6.37,6.37,0,1,0-6.37-6.36A6.36,6.36,0,0,0,239.58,292.89Z" fill="#5bb7b1"/><path d="M257.58,220.91a6.37,6.37,0,1,0-6.37-6.37A6.37,6.37,0,0,0,257.58,220.91Z" fill="#5bb7b1"/><path d="M275.58,220.91a6.37,6.37,0,1,0-6.37-6.37A6.37,6.37,0,0,0,275.58,220.91Z" fill="#5bb7b1"/><circle cx="293.58" cy="214.54" r="6.37" fill="#5bb7b1"/><circle cx="311.58" cy="214.54" r="6.37" fill="#5bb7b1"/><circle cx="221.58" cy="214.54" r="6.37" fill="#5bb7b1"/><path d="M239.58,220.91a6.37,6.37,0,1,0-6.37-6.37A6.37,6.37,0,0,0,239.58,220.91Z" fill="#5bb7b1"/><circle cx="203.58" cy="214.54" r="6.37" fill="#5bb7b1"/><path d="M257.58,238.91a6.37,6.37,0,1,0-6.37-6.37A6.37,6.37,0,0,0,257.58,238.91Z" fill="#5bb7b1"/><path d="M275.58,238.91a6.37,6.37,0,1,0-6.37-6.37A6.37,6.37,0,0,0,275.58,238.91Z" fill="#5bb7b1"/><path d="M293.58,238.91a6.37,6.37,0,1,0-6.37-6.37A6.37,6.37,0,0,0,293.58,238.91Z" fill="#5bb7b1"/><path d="M311.58,238.91a6.37,6.37,0,1,0-6.37-6.37A6.37,6.37,0,0,0,311.58,238.91Z" fill="#5bb7b1"/><path d="M221.58,238.91a6.37,6.37,0,1,0-6.37-6.37A6.37,6.37,0,0,0,221.58,238.91Z" fill="#5bb7b1"/><path d="M239.58,238.91a6.37,6.37,0,1,0-6.37-6.37A6.37,6.37,0,0,0,239.58,238.91Z" fill="#5bb7b1"/><path d="M203.58,238.91a6.37,6.37,0,1,0-6.37-6.37A6.37,6.37,0,0,0,203.58,238.91Z" fill="#5bb7b1"/><path d="M257.58,256.9a6.37,6.37,0,1,0-6.37-6.36A6.36,6.36,0,0,0,257.58,256.9Z" fill="#5bb7b1"/><path d="M275.58,256.9a6.37,6.37,0,1,0-6.37-6.36A6.36,6.36,0,0,0,275.58,256.9Z" fill="#5bb7b1"/><path d="M293.58,256.9a6.37,6.37,0,1,0-6.37-6.36A6.36,6.36,0,0,0,293.58,256.9Z" fill="#5bb7b1"/><path d="M221.58,256.9a6.37,6.37,0,1,0-6.37-6.36A6.36,6.36,0,0,0,221.58,256.9Z" fill="#5bb7b1"/><path d="M239.58,256.9a6.37,6.37,0,1,0-6.37-6.36A6.36,6.36,0,0,0,239.58,256.9Z" fill="#5bb7b1"/><path d="M203.58,256.9a6.37,6.37,0,1,0-6.37-6.36A6.36,6.36,0,0,0,203.58,256.9Z" fill="#5bb7b1"/><path d="M257.58,184.92a6.37,6.37,0,1,0-6.37-6.37A6.37,6.37,0,0,0,257.58,184.92Z" fill="#5bb7b1"/><path d="M275.58,184.92a6.37,6.37,0,1,0-6.37-6.37A6.37,6.37,0,0,0,275.58,184.92Z" fill="#5bb7b1"/><path d="M293.58,184.92a6.37,6.37,0,1,0-6.37-6.37A6.37,6.37,0,0,0,293.58,184.92Z" fill="#5bb7b1"/><path d="M311.58,184.92a6.37,6.37,0,1,0-6.37-6.37A6.37,6.37,0,0,0,311.58,184.92Z" fill="#5bb7b1"/><path d="M221.58,184.92a6.37,6.37,0,1,0-6.37-6.37A6.37,6.37,0,0,0,221.58,184.92Z" fill="#5bb7b1"/><path d="M239.58,184.92a6.37,6.37,0,1,0-6.37-6.37A6.37,6.37,0,0,0,239.58,184.92Z" fill="#5bb7b1"/><path d="M329.58,184.92a6.37,6.37,0,1,0-6.37-6.37A6.37,6.37,0,0,0,329.58,184.92Z" fill="#5bb7b1"/><path d="M257.58,202.91a6.37,6.37,0,1,0-6.37-6.36A6.36,6.36,0,0,0,257.58,202.91Z" fill="#5bb7b1"/><path d="M275.58,202.91a6.37,6.37,0,1,0-6.37-6.36A6.36,6.36,0,0,0,275.58,202.91Z" fill="#5bb7b1"/><path d="M293.58,202.91a6.37,6.37,0,1,0-6.37-6.36A6.36,6.36,0,0,0,293.58,202.91Z" fill="#5bb7b1"/><path d="M311.58,202.91a6.37,6.37,0,1,0-6.37-6.36A6.36,6.36,0,0,0,311.58,202.91Z" fill="#5bb7b1"/><path d="M221.58,202.91a6.37,6.37,0,1,0-6.37-6.36A6.36,6.36,0,0,0,221.58,202.91Z" fill="#5bb7b1"/><path d="M239.58,202.91a6.37,6.37,0,1,0-6.37-6.36A6.36,6.36,0,0,0,239.58,202.91Z" fill="#5bb7b1"/><path d="M329.58,202.91a6.37,6.37,0,1,0-6.37-6.36A6.36,6.36,0,0,0,329.58,202.91Z" fill="#5bb7b1"/><path d="M257.58,274.9a6.37,6.37,0,1,0-6.37-6.37A6.37,6.37,0,0,0,257.58,274.9Z" fill="#5bb7b1"/><path d="M275.58,274.9a6.37,6.37,0,1,0-6.37-6.37A6.37,6.37,0,0,0,275.58,274.9Z" fill="#5bb7b1"/><path d="M293.58,274.9a6.37,6.37,0,1,0-6.37-6.37A6.37,6.37,0,0,0,293.58,274.9Z" fill="#5bb7b1"/><path d="M311.58,274.9a6.37,6.37,0,1,0-6.37-6.37A6.37,6.37,0,0,0,311.58,274.9Z" fill="#5bb7b1"/><path d="M221.58,274.9a6.37,6.37,0,1,0-6.37-6.37A6.37,6.37,0,0,0,221.58,274.9Z" fill="#5bb7b1"/><path d="M239.58,274.9a6.37,6.37,0,1,0-6.37-6.37A6.37,6.37,0,0,0,239.58,274.9Z" fill="#5bb7b1"/><path d="M329.58,274.9a6.37,6.37,0,1,0-6.37-6.37A6.37,6.37,0,0,0,329.58,274.9Z" fill="#5bb7b1"/><path d="M257.58,310.89a6.37,6.37,0,1,0-6.37-6.36A6.36,6.36,0,0,0,257.58,310.89Z" fill="#ff8200"/><path d="M275.58,310.89a6.37,6.37,0,1,0-6.37-6.36A6.36,6.36,0,0,0,275.58,310.89Z" fill="#5bb7b1"/><circle cx="293.58" cy="304.53" r="6.37" fill="#5bb7b1"/><circle cx="311.58" cy="304.53" r="6.37" fill="#5bb7b1"/><path d="M239.58,310.89a6.37,6.37,0,1,0-6.37-6.36A6.36,6.36,0,0,0,239.58,310.89Z" fill="#5bb7b1"/><path d="M365.58,310.89a6.37,6.37,0,1,0-6.37-6.36A6.36,6.36,0,0,0,365.58,310.89Z" fill="#5bb7b1"/><path d="M329.58,310.89a6.37,6.37,0,1,0-6.37-6.36A6.36,6.36,0,0,0,329.58,310.89Z" fill="#5bb7b1"/><path d="M347.58,310.89a6.37,6.37,0,1,0-6.36-6.36A6.36,6.36,0,0,0,347.58,310.89Z" fill="#5bb7b1"/><path d="M257.58,328.89a6.37,6.37,0,1,0-6.37-6.37A6.37,6.37,0,0,0,257.58,328.89Z" fill="#5bb7b1"/><path d="M275.58,328.89a6.37,6.37,0,1,0-6.37-6.37A6.37,6.37,0,0,0,275.58,328.89Z" fill="#5bb7b1"/><path d="M293.58,328.89a6.37,6.37,0,1,0-6.37-6.37A6.37,6.37,0,0,0,293.58,328.89Z" fill="#5bb7b1"/><path d="M311.58,328.89a6.37,6.37,0,1,0-6.37-6.37A6.37,6.37,0,0,0,311.58,328.89Z" fill="#5bb7b1"/><path d="M221.58,328.89a6.37,6.37,0,1,0-6.37-6.37A6.37,6.37,0,0,0,221.58,328.89Z" fill="#5bb7b1"/><path d="M239.58,328.89a6.37,6.37,0,1,0-6.37-6.37A6.37,6.37,0,0,0,239.58,328.89Z" fill="#5bb7b1"/><path d="M365.58,328.89a6.37,6.37,0,1,0-6.37-6.37A6.37,6.37,0,0,0,365.58,328.89Z" fill="#5bb7b1"/><path d="M383.58,328.89a6.37,6.37,0,1,0-6.37-6.37A6.37,6.37,0,0,0,383.58,328.89Z" fill="#5bb7b1"/><path d="M401.58,328.89a6.37,6.37,0,1,0-6.37-6.37A6.37,6.37,0,0,0,401.58,328.89Z" fill="#5bb7b1"/><path d="M329.58,328.89a6.37,6.37,0,1,0-6.37-6.37A6.37,6.37,0,0,0,329.58,328.89Z" fill="#5bb7b1"/><path d="M347.58,328.89a6.37,6.37,0,1,0-6.36-6.37A6.37,6.37,0,0,0,347.58,328.89Z" fill="#5bb7b1"/><path d="M419.58,328.89a6.37,6.37,0,1,0-6.36-6.37A6.37,6.37,0,0,0,419.58,328.89Z" fill="#5bb7b1"/><path d="M257.58,346.88a6.37,6.37,0,1,0-6.37-6.36A6.36,6.36,0,0,0,257.58,346.88Z" fill="#5bb7b1"/><path d="M275.58,346.88a6.37,6.37,0,1,0-6.37-6.36A6.36,6.36,0,0,0,275.58,346.88Z" fill="#5bb7b1"/><path d="M293.58,346.88a6.37,6.37,0,1,0-6.37-6.36A6.36,6.36,0,0,0,293.58,346.88Z" fill="#5bb7b1"/><path d="M311.58,346.88a6.37,6.37,0,1,0-6.37-6.36A6.36,6.36,0,0,0,311.58,346.88Z" fill="#5bb7b1"/><path d="M239.58,346.88a6.37,6.37,0,1,0-6.37-6.36A6.36,6.36,0,0,0,239.58,346.88Z" fill="#5bb7b1"/><path d="M365.58,346.88a6.37,6.37,0,1,0-6.37-6.36A6.36,6.36,0,0,0,365.58,346.88Z" fill="#5bb7b1"/><path d="M383.58,346.88a6.37,6.37,0,1,0-6.37-6.36A6.36,6.36,0,0,0,383.58,346.88Z" fill="#5bb7b1"/><path d="M401.58,346.88a6.37,6.37,0,1,0-6.37-6.36A6.37,6.37,0,0,0,401.58,346.88Z" fill="#5bb7b1"/><path d="M329.58,346.88a6.37,6.37,0,1,0-6.37-6.36A6.36,6.36,0,0,0,329.58,346.88Z" fill="#5bb7b1"/><path d="M347.58,346.88a6.37,6.37,0,1,0-6.36-6.36A6.36,6.36,0,0,0,347.58,346.88Z" fill="#5bb7b1"/><path d="M419.58,346.88a6.37,6.37,0,1,0-6.36-6.36A6.36,6.36,0,0,0,419.58,346.88Z" fill="#5bb7b1"/><path d="M257.58,364.88a6.37,6.37,0,1,0-6.37-6.37A6.37,6.37,0,0,0,257.58,364.88Z" fill="#5bb7b1"/><path d="M275.58,364.88a6.37,6.37,0,1,0-6.37-6.37A6.37,6.37,0,0,0,275.58,364.88Z" fill="#5bb7b1"/><path d="M293.58,364.88a6.37,6.37,0,1,0-6.37-6.37A6.37,6.37,0,0,0,293.58,364.88Z" fill="#5bb7b1"/><path d="M311.58,364.88a6.37,6.37,0,1,0-6.37-6.37A6.37,6.37,0,0,0,311.58,364.88Z" fill="#5bb7b1"/><path d="M365.58,364.88a6.37,6.37,0,1,0-6.37-6.37A6.37,6.37,0,0,0,365.58,364.88Z" fill="#5bb7b1"/><path d="M383.58,364.88a6.37,6.37,0,1,0-6.37-6.37A6.37,6.37,0,0,0,383.58,364.88Z" fill="#5bb7b1"/><path d="M401.58,364.88a6.37,6.37,0,1,0-6.37-6.37A6.37,6.37,0,0,0,401.58,364.88Z" fill="#5bb7b1"/><path d="M329.58,364.88a6.37,6.37,0,1,0-6.37-6.37A6.37,6.37,0,0,0,329.58,364.88Z" fill="#5bb7b1"/><path d="M347.58,364.88a6.37,6.37,0,1,0-6.36-6.37A6.37,6.37,0,0,0,347.58,364.88Z" fill="#5bb7b1"/><path d="M419.58,364.88a6.37,6.37,0,1,0-6.36-6.37A6.37,6.37,0,0,0,419.58,364.88Z" fill="#5bb7b1"/><path d="M257.58,382.88a6.37,6.37,0,1,0-6.37-6.37A6.37,6.37,0,0,0,257.58,382.88Z" fill="#5bb7b1"/><path d="M275.58,382.88a6.37,6.37,0,1,0-6.37-6.37A6.37,6.37,0,0,0,275.58,382.88Z" fill="#5bb7b1"/><path d="M293.58,382.88a6.37,6.37,0,1,0-6.37-6.37A6.37,6.37,0,0,0,293.58,382.88Z" fill="#5bb7b1"/><path d="M365.58,382.88a6.37,6.37,0,1,0-6.37-6.37A6.37,6.37,0,0,0,365.58,382.88Z" fill="#5bb7b1"/><path d="M383.58,382.88a6.37,6.37,0,1,0-6.37-6.37A6.37,6.37,0,0,0,383.58,382.88Z" fill="#5bb7b1"/><path d="M401.58,382.88a6.37,6.37,0,1,0-6.37-6.37A6.37,6.37,0,0,0,401.58,382.88Z" fill="#5bb7b1"/><path d="M329.58,382.88a6.37,6.37,0,1,0-6.37-6.37A6.37,6.37,0,0,0,329.58,382.88Z" fill="#5bb7b1"/><path d="M347.58,382.88a6.37,6.37,0,1,0-6.36-6.37A6.37,6.37,0,0,0,347.58,382.88Z" fill="#5bb7b1"/><path d="M419.58,382.88a6.37,6.37,0,1,0-6.36-6.37A6.37,6.37,0,0,0,419.58,382.88Z" fill="#5bb7b1"/><path d="M437.58,382.88a6.37,6.37,0,1,0-6.36-6.37A6.37,6.37,0,0,0,437.58,382.88Z" fill="#5bb7b1"/><path d="M455.58,382.88a6.37,6.37,0,1,0-6.36-6.37A6.37,6.37,0,0,0,455.58,382.88Z" fill="#5bb7b1"/><path d="M473.58,382.88a6.37,6.37,0,1,0-6.36-6.37A6.37,6.37,0,0,0,473.58,382.88Z" fill="#5bb7b1"/><path d="M275.58,400.87a6.37,6.37,0,1,0-6.37-6.36A6.36,6.36,0,0,0,275.58,400.87Z" fill="#5bb7b1"/><circle cx="293.58" cy="394.51" r="6.37" fill="#5bb7b1"/><circle cx="311.58" cy="394.51" r="6.37" fill="#5bb7b1"/><circle cx="221.58" cy="394.51" r="6.37" fill="#5bb7b1"/><path d="M239.58,400.87a6.37,6.37,0,1,0-6.37-6.36A6.36,6.36,0,0,0,239.58,400.87Z" fill="#5bb7b1"/><path d="M383.58,400.87a6.37,6.37,0,1,0-6.37-6.36A6.36,6.36,0,0,0,383.58,400.87Z" fill="#5bb7b1"/><path d="M401.58,400.87a6.37,6.37,0,1,0-6.37-6.36A6.37,6.37,0,0,0,401.58,400.87Z" fill="#5bb7b1"/><path d="M329.58,400.87a6.37,6.37,0,1,0-6.37-6.36A6.36,6.36,0,0,0,329.58,400.87Z" fill="#5bb7b1"/><path d="M347.58,400.87a6.37,6.37,0,1,0-6.36-6.36A6.36,6.36,0,0,0,347.58,400.87Z" fill="#5bb7b1"/><path d="M419.58,400.87a6.37,6.37,0,1,0-6.36-6.36A6.36,6.36,0,0,0,419.58,400.87Z" fill="#5bb7b1"/><path d="M437.58,400.87a6.37,6.37,0,1,0-6.36-6.36A6.36,6.36,0,0,0,437.58,400.87Z" fill="#5bb7b1"/><path d="M455.58,400.87a6.37,6.37,0,1,0-6.36-6.36A6.37,6.37,0,0,0,455.58,400.87Z" fill="#5bb7b1"/><path d="M473.58,400.87a6.37,6.37,0,1,0-6.36-6.36A6.37,6.37,0,0,0,473.58,400.87Z" fill="#5bb7b1"/><path d="M311.58,418.87a6.37,6.37,0,1,0-6.37-6.37A6.37,6.37,0,0,0,311.58,418.87Z" fill="#5bb7b1"/><path d="M221.58,418.87a6.37,6.37,0,1,0-6.37-6.37A6.37,6.37,0,0,0,221.58,418.87Z" fill="#5bb7b1"/><path d="M239.58,418.87a6.37,6.37,0,1,0-6.37-6.37A6.37,6.37,0,0,0,239.58,418.87Z" fill="#5bb7b1"/><path d="M365.58,418.87a6.37,6.37,0,1,0-6.37-6.37A6.37,6.37,0,0,0,365.58,418.87Z" fill="#5bb7b1"/><path d="M383.58,418.87a6.37,6.37,0,1,0-6.37-6.37A6.37,6.37,0,0,0,383.58,418.87Z" fill="#5bb7b1"/><path d="M401.58,418.87a6.37,6.37,0,1,0-6.37-6.37A6.37,6.37,0,0,0,401.58,418.87Z" fill="#5bb7b1"/><path d="M329.58,418.87a6.37,6.37,0,1,0-6.37-6.37A6.37,6.37,0,0,0,329.58,418.87Z" fill="#5bb7b1"/><path d="M347.58,418.87a6.37,6.37,0,1,0-6.36-6.37A6.37,6.37,0,0,0,347.58,418.87Z" fill="#5bb7b1"/><path d="M419.58,418.87a6.37,6.37,0,1,0-6.36-6.37A6.37,6.37,0,0,0,419.58,418.87Z" fill="#5bb7b1"/><path d="M437.58,418.87a6.37,6.37,0,1,0-6.36-6.37A6.37,6.37,0,0,0,437.58,418.87Z" fill="#5bb7b1"/><path d="M455.58,418.87a6.37,6.37,0,1,0-6.36-6.37A6.37,6.37,0,0,0,455.58,418.87Z" fill="#5bb7b1"/><path d="M473.58,418.87a6.37,6.37,0,1,0-6.36-6.37A6.37,6.37,0,0,0,473.58,418.87Z" fill="#5bb7b1"/><path d="M203.58,436.87a6.37,6.37,0,1,0-6.37-6.37A6.37,6.37,0,0,0,203.58,436.87Z" fill="#5bb7b1"/><path d="M365.58,436.87a6.37,6.37,0,1,0-6.37-6.37A6.37,6.37,0,0,0,365.58,436.87Z" fill="#5bb7b1"/><path d="M383.58,436.87a6.37,6.37,0,1,0-6.37-6.37A6.37,6.37,0,0,0,383.58,436.87Z" fill="#5bb7b1"/><path d="M329.58,436.87a6.37,6.37,0,1,0-6.37-6.37A6.37,6.37,0,0,0,329.58,436.87Z" fill="#5bb7b1"/><path d="M347.58,436.87a6.37,6.37,0,1,0-6.36-6.37A6.37,6.37,0,0,0,347.58,436.87Z" fill="#5bb7b1"/><path d="M419.58,436.87a6.37,6.37,0,1,0-6.36-6.37A6.37,6.37,0,0,0,419.58,436.87Z" fill="#5bb7b1"/><path d="M437.58,436.87a6.37,6.37,0,1,0-6.36-6.37A6.37,6.37,0,0,0,437.58,436.87Z" fill="#5bb7b1"/><path d="M455.58,436.87a6.37,6.37,0,1,0-6.36-6.37A6.37,6.37,0,0,0,455.58,436.87Z" fill="#5bb7b1"/><path d="M473.58,436.87a6.37,6.37,0,1,0-6.36-6.37A6.37,6.37,0,0,0,473.58,436.87Z" fill="#5bb7b1"/><path d="M491.58,436.87a6.37,6.37,0,1,0-6.37-6.37A6.37,6.37,0,0,0,491.58,436.87Z" fill="#5bb7b1"/><path d="M221.58,454.86a6.37,6.37,0,1,0-6.37-6.36A6.36,6.36,0,0,0,221.58,454.86Z" fill="#5bb7b1"/><path d="M203.58,454.86a6.37,6.37,0,1,0-6.37-6.36A6.36,6.36,0,0,0,203.58,454.86Z" fill="#5bb7b1"/><path d="M365.58,454.86a6.37,6.37,0,1,0-6.37-6.36A6.36,6.36,0,0,0,365.58,454.86Z" fill="#5bb7b1"/><path d="M383.58,454.86a6.37,6.37,0,1,0-6.37-6.36A6.36,6.36,0,0,0,383.58,454.86Z" fill="#5bb7b1"/><path d="M401.58,454.86a6.37,6.37,0,1,0-6.37-6.36A6.37,6.37,0,0,0,401.58,454.86Z" fill="#5bb7b1"/><path d="M329.58,454.86a6.37,6.37,0,1,0-6.37-6.36A6.36,6.36,0,0,0,329.58,454.86Z" fill="#5bb7b1"/><path d="M347.58,454.86a6.37,6.37,0,1,0-6.36-6.36A6.36,6.36,0,0,0,347.58,454.86Z" fill="#5bb7b1"/><path d="M419.58,454.86a6.37,6.37,0,1,0-6.36-6.36A6.36,6.36,0,0,0,419.58,454.86Z" fill="#5bb7b1"/><path d="M437.58,454.86a6.37,6.37,0,1,0-6.36-6.36A6.36,6.36,0,0,0,437.58,454.86Z" fill="#5bb7b1"/><path d="M455.58,454.86a6.37,6.37,0,1,0-6.36-6.36A6.37,6.37,0,0,0,455.58,454.86Z" fill="#5bb7b1"/><path d="M473.58,454.86a6.37,6.37,0,1,0-6.36-6.36A6.37,6.37,0,0,0,473.58,454.86Z" fill="#5bb7b1"/><path d="M491.58,454.86a6.37,6.37,0,1,0-6.37-6.36A6.37,6.37,0,0,0,491.58,454.86Z" fill="#5bb7b1"/><path d="M221.58,472.86a6.37,6.37,0,1,0-6.37-6.37A6.37,6.37,0,0,0,221.58,472.86Z" fill="#5bb7b1"/><path d="M239.58,472.86a6.37,6.37,0,1,0-6.37-6.37A6.37,6.37,0,0,0,239.58,472.86Z" fill="#5bb7b1"/><path d="M203.58,472.86a6.37,6.37,0,1,0-6.37-6.37A6.37,6.37,0,0,0,203.58,472.86Z" fill="#5bb7b1"/><path d="M185.58,472.86a6.37,6.37,0,1,0-6.37-6.37A6.37,6.37,0,0,0,185.58,472.86Z" fill="#5bb7b1"/><path d="M365.58,472.86a6.37,6.37,0,1,0-6.37-6.37A6.37,6.37,0,0,0,365.58,472.86Z" fill="#5bb7b1"/><path d="M383.58,472.86a6.37,6.37,0,1,0-6.37-6.37A6.37,6.37,0,0,0,383.58,472.86Z" fill="#5bb7b1"/><path d="M401.58,472.86a6.37,6.37,0,1,0-6.37-6.37A6.37,6.37,0,0,0,401.58,472.86Z" fill="#5bb7b1"/><path d="M329.58,472.86a6.37,6.37,0,1,0-6.37-6.37A6.37,6.37,0,0,0,329.58,472.86Z" fill="#5bb7b1"/><path d="M347.58,472.86a6.37,6.37,0,1,0-6.36-6.37A6.37,6.37,0,0,0,347.58,472.86Z" fill="#5bb7b1"/><path d="M419.58,472.86a6.37,6.37,0,1,0-6.36-6.37A6.37,6.37,0,0,0,419.58,472.86Z" fill="#5bb7b1"/><path d="M437.58,472.86a6.37,6.37,0,1,0-6.36-6.37A6.37,6.37,0,0,0,437.58,472.86Z" fill="#5bb7b1"/><path d="M455.58,472.86a6.37,6.37,0,1,0-6.36-6.37A6.37,6.37,0,0,0,455.58,472.86Z" fill="#5bb7b1"/><path d="M473.58,472.86a6.37,6.37,0,1,0-6.36-6.37A6.37,6.37,0,0,0,473.58,472.86Z" fill="#5bb7b1"/><path d="M491.58,472.86a6.37,6.37,0,1,0-6.37-6.37A6.37,6.37,0,0,0,491.58,472.86Z" fill="#5bb7b1"/><path d="M203.58,490.85a6.37,6.37,0,1,0-6.37-6.36A6.36,6.36,0,0,0,203.58,490.85Z" fill="#5bb7b1"/><path d="M167.58,490.85a6.37,6.37,0,1,0-6.37-6.36A6.36,6.36,0,0,0,167.58,490.85Z" fill="#5bb7b1"/><path d="M185.58,490.85a6.37,6.37,0,1,0-6.37-6.36A6.36,6.36,0,0,0,185.58,490.85Z" fill="#5bb7b1"/><path d="M365.58,490.85a6.37,6.37,0,1,0-6.37-6.36A6.36,6.36,0,0,0,365.58,490.85Z" fill="#5bb7b1"/><path d="M383.58,490.85a6.37,6.37,0,1,0-6.37-6.36A6.36,6.36,0,0,0,383.58,490.85Z" fill="#5bb7b1"/><path d="M401.58,490.85a6.37,6.37,0,1,0-6.37-6.36A6.37,6.37,0,0,0,401.58,490.85Z" fill="#5bb7b1"/><path d="M347.58,490.85a6.37,6.37,0,1,0-6.36-6.36A6.36,6.36,0,0,0,347.58,490.85Z" fill="#5bb7b1"/><path d="M419.58,490.85a6.37,6.37,0,1,0-6.36-6.36A6.36,6.36,0,0,0,419.58,490.85Z" fill="#5bb7b1"/><path d="M437.58,490.85a6.37,6.37,0,1,0-6.36-6.36A6.36,6.36,0,0,0,437.58,490.85Z" fill="#5bb7b1"/><path d="M455.58,490.85a6.37,6.37,0,1,0-6.36-6.36A6.37,6.37,0,0,0,455.58,490.85Z" fill="#5bb7b1"/><path d="M473.58,490.85a6.37,6.37,0,1,0-6.36-6.36A6.37,6.37,0,0,0,473.58,490.85Z" fill="#5bb7b1"/><path d="M509.58,490.85a6.37,6.37,0,1,0-6.36-6.36A6.37,6.37,0,0,0,509.58,490.85Z" fill="#5bb7b1"/><path d="M491.58,490.85a6.37,6.37,0,1,0-6.37-6.36A6.37,6.37,0,0,0,491.58,490.85Z" fill="#5bb7b1"/><path d="M167.58,508.85a6.37,6.37,0,1,0-6.37-6.36A6.36,6.36,0,0,0,167.58,508.85Z" fill="#5bb7b1"/><path d="M185.58,508.85a6.37,6.37,0,1,0-6.37-6.36A6.36,6.36,0,0,0,185.58,508.85Z" fill="#5bb7b1"/><path d="M365.58,508.85a6.37,6.37,0,1,0-6.37-6.36A6.36,6.36,0,0,0,365.58,508.85Z" fill="#5bb7b1"/><path d="M383.58,508.85a6.37,6.37,0,1,0-6.37-6.36A6.36,6.36,0,0,0,383.58,508.85Z" fill="#5bb7b1"/><path d="M401.58,508.85a6.37,6.37,0,1,0-6.37-6.36A6.37,6.37,0,0,0,401.58,508.85Z" fill="#5bb7b1"/><path d="M347.58,508.85a6.37,6.37,0,1,0-6.36-6.36A6.36,6.36,0,0,0,347.58,508.85Z" fill="#5bb7b1"/><path d="M419.58,508.85a6.37,6.37,0,1,0-6.36-6.36A6.36,6.36,0,0,0,419.58,508.85Z" fill="#5bb7b1"/><path d="M437.58,508.85a6.37,6.37,0,1,0-6.36-6.36A6.36,6.36,0,0,0,437.58,508.85Z" fill="#5bb7b1"/><path d="M473.58,508.85a6.37,6.37,0,1,0-6.36-6.36A6.37,6.37,0,0,0,473.58,508.85Z" fill="#5bb7b1"/><path d="M509.58,508.85a6.37,6.37,0,1,0-6.36-6.36A6.37,6.37,0,0,0,509.58,508.85Z" fill="#5bb7b1"/><path d="M491.58,508.85a6.37,6.37,0,1,0-6.37-6.36A6.37,6.37,0,0,0,491.58,508.85Z" fill="#5bb7b1"/><path d="M167.58,526.85a6.37,6.37,0,1,0-6.37-6.37A6.37,6.37,0,0,0,167.58,526.85Z" fill="#5bb7b1"/><path d="M185.58,526.85a6.37,6.37,0,1,0-6.37-6.37A6.37,6.37,0,0,0,185.58,526.85Z" fill="#5bb7b1"/><path d="M149.58,526.85a6.37,6.37,0,1,0-6.37-6.37A6.37,6.37,0,0,0,149.58,526.85Z" fill="#5bb7b1"/><path d="M131.58,526.85a6.37,6.37,0,1,0-6.37-6.37A6.37,6.37,0,0,0,131.58,526.85Z" fill="#5bb7b1"/><path d="M365.58,526.85a6.37,6.37,0,1,0-6.37-6.37A6.37,6.37,0,0,0,365.58,526.85Z" fill="#5bb7b1"/><path d="M383.58,526.85a6.37,6.37,0,1,0-6.37-6.37A6.37,6.37,0,0,0,383.58,526.85Z" fill="#5bb7b1"/><path d="M401.58,526.85a6.37,6.37,0,1,0-6.37-6.37A6.37,6.37,0,0,0,401.58,526.85Z" fill="#5bb7b1"/><path d="M527.58,526.85a6.37,6.37,0,1,0-6.36-6.37A6.37,6.37,0,0,0,527.58,526.85Z" fill="#5bb7b1"/><path d="M437.58,526.85a6.37,6.37,0,1,0-6.36-6.37A6.37,6.37,0,0,0,437.58,526.85Z" fill="#5bb7b1"/><path d="M455.58,526.85a6.37,6.37,0,1,0-6.36-6.37A6.37,6.37,0,0,0,455.58,526.85Z" fill="#5bb7b1"/><path d="M473.58,526.85a6.37,6.37,0,1,0-6.36-6.37A6.37,6.37,0,0,0,473.58,526.85Z" fill="#5bb7b1"/><path d="M509.58,526.85a6.37,6.37,0,1,0-6.36-6.37A6.37,6.37,0,0,0,509.58,526.85Z" fill="#5bb7b1"/><path d="M491.58,526.85a6.37,6.37,0,1,0-6.37-6.37A6.37,6.37,0,0,0,491.58,526.85Z" fill="#5bb7b1"/><path d="M149.58,544.84a6.37,6.37,0,1,0-6.37-6.36A6.36,6.36,0,0,0,149.58,544.84Z" fill="#5bb7b1"/><path d="M131.58,544.84a6.37,6.37,0,1,0-6.37-6.36A6.36,6.36,0,0,0,131.58,544.84Z" fill="#5bb7b1"/><path d="M95.58,544.84a6.37,6.37,0,1,0-6.37-6.36A6.36,6.36,0,0,0,95.58,544.84Z" fill="#5bb7b1"/><path d="M113.58,544.84a6.37,6.37,0,1,0-6.37-6.36A6.36,6.36,0,0,0,113.58,544.84Z" fill="#5bb7b1"/><path d="M383.58,544.84a6.37,6.37,0,1,0-6.37-6.36A6.36,6.36,0,0,0,383.58,544.84Z" fill="#5bb7b1"/><path d="M401.58,544.84a6.37,6.37,0,1,0-6.37-6.36A6.37,6.37,0,0,0,401.58,544.84Z" fill="#5bb7b1"/><path d="M527.58,544.84a6.37,6.37,0,1,0-6.36-6.36A6.37,6.37,0,0,0,527.58,544.84Z" fill="#5bb7b1"/><path d="M437.58,544.84a6.37,6.37,0,1,0-6.36-6.36A6.36,6.36,0,0,0,437.58,544.84Z" fill="#5bb7b1"/><path d="M455.58,544.84a6.37,6.37,0,1,0-6.36-6.36A6.37,6.37,0,0,0,455.58,544.84Z" fill="#5bb7b1"/><path d="M473.58,544.84a6.37,6.37,0,1,0-6.36-6.36A6.37,6.37,0,0,0,473.58,544.84Z" fill="#5bb7b1"/><path d="M509.58,544.84a6.37,6.37,0,1,0-6.36-6.36A6.37,6.37,0,0,0,509.58,544.84Z" fill="#5bb7b1"/><path d="M491.58,544.84a6.37,6.37,0,1,0-6.37-6.36A6.37,6.37,0,0,0,491.58,544.84Z" fill="#5bb7b1"/><path d="M131.58,562.84a6.37,6.37,0,1,0-6.37-6.36A6.36,6.36,0,0,0,131.58,562.84Z" fill="#5bb7b1"/><path d="M95.58,562.84a6.37,6.37,0,1,0-6.37-6.36A6.36,6.36,0,0,0,95.58,562.84Z" fill="#5bb7b1"/><path d="M113.58,562.84a6.37,6.37,0,1,0-6.37-6.36A6.36,6.36,0,0,0,113.58,562.84Z" fill="#5bb7b1"/><path d="M383.58,562.84a6.37,6.37,0,1,0-6.37-6.36A6.36,6.36,0,0,0,383.58,562.84Z" fill="#5bb7b1"/><path d="M401.58,562.84a6.37,6.37,0,1,0-6.37-6.36A6.37,6.37,0,0,0,401.58,562.84Z" fill="#5bb7b1"/><path d="M419.58,562.84a6.37,6.37,0,1,0-6.36-6.36A6.36,6.36,0,0,0,419.58,562.84Z" fill="#5bb7b1"/><path d="M527.58,562.84a6.37,6.37,0,1,0-6.36-6.36A6.37,6.37,0,0,0,527.58,562.84Z" fill="#5bb7b1"/><path d="M437.58,562.84a6.37,6.37,0,1,0-6.36-6.36A6.36,6.36,0,0,0,437.58,562.84Z" fill="#5bb7b1"/><path d="M455.58,562.84a6.37,6.37,0,1,0-6.36-6.36A6.37,6.37,0,0,0,455.58,562.84Z" fill="#5bb7b1"/><path d="M473.58,562.84a6.37,6.37,0,1,0-6.36-6.36A6.37,6.37,0,0,0,473.58,562.84Z" fill="#5bb7b1"/><path d="M509.58,562.84a6.37,6.37,0,1,0-6.36-6.36A6.37,6.37,0,0,0,509.58,562.84Z" fill="#5bb7b1"/><path d="M491.58,562.84a6.37,6.37,0,1,0-6.37-6.36A6.37,6.37,0,0,0,491.58,562.84Z" fill="#5bb7b1"/><path d="M95.58,580.84a6.37,6.37,0,1,0-6.37-6.37A6.37,6.37,0,0,0,95.58,580.84Z" fill="#5bb7b1"/><path d="M113.58,580.84a6.37,6.37,0,1,0-6.37-6.37A6.37,6.37,0,0,0,113.58,580.84Z" fill="#5bb7b1"/><path d="M365.58,580.84a6.37,6.37,0,1,0-6.37-6.37A6.37,6.37,0,0,0,365.58,580.84Z" fill="#5bb7b1"/><path d="M383.58,580.84a6.37,6.37,0,1,0-6.37-6.37A6.37,6.37,0,0,0,383.58,580.84Z" fill="#5bb7b1"/><path d="M401.58,580.84a6.37,6.37,0,1,0-6.37-6.37A6.37,6.37,0,0,0,401.58,580.84Z" fill="#5bb7b1"/><path d="M329.58,580.84a6.37,6.37,0,1,0-6.37-6.37A6.37,6.37,0,0,0,329.58,580.84Z" fill="#5bb7b1"/><path d="M347.58,580.84a6.37,6.37,0,1,0-6.36-6.37A6.37,6.37,0,0,0,347.58,580.84Z" fill="#5bb7b1"/><path d="M419.58,580.84a6.37,6.37,0,1,0-6.36-6.37A6.37,6.37,0,0,0,419.58,580.84Z" fill="#5bb7b1"/><path d="M527.58,580.84a6.37,6.37,0,1,0-6.36-6.37A6.37,6.37,0,0,0,527.58,580.84Z" fill="#5bb7b1"/><path d="M437.58,580.84a6.37,6.37,0,1,0-6.36-6.37A6.37,6.37,0,0,0,437.58,580.84Z" fill="#5bb7b1"/><path d="M455.58,580.84a6.37,6.37,0,1,0-6.36-6.37A6.37,6.37,0,0,0,455.58,580.84Z" fill="#5bb7b1"/><path d="M473.58,580.84a6.37,6.37,0,1,0-6.36-6.37A6.37,6.37,0,0,0,473.58,580.84Z" fill="#5bb7b1"/><path d="M509.58,580.84a6.37,6.37,0,1,0-6.36-6.37A6.37,6.37,0,0,0,509.58,580.84Z" fill="#5bb7b1"/><path d="M491.58,580.84a6.37,6.37,0,1,0-6.37-6.37A6.37,6.37,0,0,0,491.58,580.84Z" fill="#5bb7b1"/><path d="M95.58,598.83a6.37,6.37,0,1,0-6.37-6.36A6.36,6.36,0,0,0,95.58,598.83Z" fill="#5bb7b1"/><path d="M113.58,598.83a6.37,6.37,0,1,0-6.37-6.36A6.36,6.36,0,0,0,113.58,598.83Z" fill="#5bb7b1"/><path d="M365.58,598.83a6.37,6.37,0,1,0-6.37-6.36A6.36,6.36,0,0,0,365.58,598.83Z" fill="#5bb7b1"/><path d="M383.58,598.83a6.37,6.37,0,1,0-6.37-6.36A6.36,6.36,0,0,0,383.58,598.83Z" fill="#5bb7b1"/><path d="M401.58,598.83a6.37,6.37,0,1,0-6.37-6.36A6.37,6.37,0,0,0,401.58,598.83Z" fill="#5bb7b1"/><path d="M545.58,598.83a6.37,6.37,0,1,0-6.36-6.36A6.37,6.37,0,0,0,545.58,598.83Z" fill="#5bb7b1"/><path d="M329.58,598.83a6.37,6.37,0,1,0-6.37-6.36A6.36,6.36,0,0,0,329.58,598.83Z" fill="#5bb7b1"/><path d="M347.58,598.83a6.37,6.37,0,1,0-6.36-6.36A6.36,6.36,0,0,0,347.58,598.83Z" fill="#5bb7b1"/><path d="M419.58,598.83a6.37,6.37,0,1,0-6.36-6.36A6.36,6.36,0,0,0,419.58,598.83Z" fill="#5bb7b1"/><path d="M527.58,598.83a6.37,6.37,0,1,0-6.36-6.36A6.37,6.37,0,0,0,527.58,598.83Z" fill="#5bb7b1"/><path d="M437.58,598.83a6.37,6.37,0,1,0-6.36-6.36A6.36,6.36,0,0,0,437.58,598.83Z" fill="#5bb7b1"/><path d="M455.58,598.83a6.37,6.37,0,1,0-6.36-6.36A6.37,6.37,0,0,0,455.58,598.83Z" fill="#5bb7b1"/><path d="M473.58,598.83a6.37,6.37,0,1,0-6.36-6.36A6.37,6.37,0,0,0,473.58,598.83Z" fill="#5bb7b1"/><path d="M509.58,598.83a6.37,6.37,0,1,0-6.36-6.36A6.37,6.37,0,0,0,509.58,598.83Z" fill="#5bb7b1"/><path d="M491.58,598.83a6.37,6.37,0,1,0-6.37-6.36A6.37,6.37,0,0,0,491.58,598.83Z" fill="#5bb7b1"/><path d="M545.58,616.83a6.37,6.37,0,1,0-6.36-6.37A6.37,6.37,0,0,0,545.58,616.83Z" fill="#5bb7b1"/><path d="M329.58,616.83a6.37,6.37,0,1,0-6.37-6.37A6.37,6.37,0,0,0,329.58,616.83Z" fill="#5bb7b1"/><path d="M347.58,616.83a6.37,6.37,0,1,0-6.36-6.37A6.37,6.37,0,0,0,347.58,616.83Z" fill="#5bb7b1"/><path d="M419.58,616.83a6.37,6.37,0,1,0-6.36-6.37A6.37,6.37,0,0,0,419.58,616.83Z" fill="#5bb7b1"/><path d="M527.58,616.83a6.37,6.37,0,1,0-6.36-6.37A6.37,6.37,0,0,0,527.58,616.83Z" fill="#5bb7b1"/><path d="M437.58,616.83a6.37,6.37,0,1,0-6.36-6.37A6.37,6.37,0,0,0,437.58,616.83Z" fill="#5bb7b1"/><path d="M455.58,616.83a6.37,6.37,0,1,0-6.36-6.37A6.37,6.37,0,0,0,455.58,616.83Z" fill="#5bb7b1"/><path d="M473.58,616.83a6.37,6.37,0,1,0-6.36-6.37A6.37,6.37,0,0,0,473.58,616.83Z" fill="#5bb7b1"/><path d="M509.58,616.83a6.37,6.37,0,1,0-6.36-6.37A6.37,6.37,0,0,0,509.58,616.83Z" fill="#5bb7b1"/><path d="M491.58,616.83a6.37,6.37,0,1,0-6.37-6.37A6.37,6.37,0,0,0,491.58,616.83Z" fill="#5bb7b1"/><path d="M329.58,634.82a6.37,6.37,0,1,0-6.37-6.36A6.36,6.36,0,0,0,329.58,634.82Z" fill="#5bb7b1"/><path d="M347.58,634.82a6.37,6.37,0,1,0-6.36-6.36A6.36,6.36,0,0,0,347.58,634.82Z" fill="#5bb7b1"/><path d="M419.58,634.82a6.37,6.37,0,1,0-6.36-6.36A6.36,6.36,0,0,0,419.58,634.82Z" fill="#5bb7b1"/><path d="M527.58,634.82a6.37,6.37,0,1,0-6.36-6.36A6.36,6.36,0,0,0,527.58,634.82Z" fill="#5bb7b1"/><path d="M437.58,634.82a6.37,6.37,0,1,0-6.36-6.36A6.36,6.36,0,0,0,437.58,634.82Z" fill="#5bb7b1"/><path d="M455.58,634.82a6.37,6.37,0,1,0-6.36-6.36A6.36,6.36,0,0,0,455.58,634.82Z" fill="#5bb7b1"/><path d="M473.58,634.82a6.37,6.37,0,1,0-6.36-6.36A6.36,6.36,0,0,0,473.58,634.82Z" fill="#5bb7b1"/><path d="M509.58,634.82a6.37,6.37,0,1,0-6.36-6.36A6.36,6.36,0,0,0,509.58,634.82Z" fill="#5bb7b1"/><path d="M491.58,634.82a6.37,6.37,0,1,0-6.37-6.36A6.36,6.36,0,0,0,491.58,634.82Z" fill="#5bb7b1"/><path d="M329.58,652.82a6.37,6.37,0,1,0-6.37-6.36A6.36,6.36,0,0,0,329.58,652.82Z" fill="#5bb7b1"/><path d="M347.58,652.82a6.37,6.37,0,1,0-6.36-6.36A6.36,6.36,0,0,0,347.58,652.82Z" fill="#5bb7b1"/><path d="M419.58,652.82a6.37,6.37,0,1,0-6.36-6.36A6.36,6.36,0,0,0,419.58,652.82Z" fill="#5bb7b1"/><path d="M527.58,652.82a6.37,6.37,0,1,0-6.36-6.36A6.37,6.37,0,0,0,527.58,652.82Z" fill="#5bb7b1"/><path d="M437.58,652.82a6.37,6.37,0,1,0-6.36-6.36A6.36,6.36,0,0,0,437.58,652.82Z" fill="#5bb7b1"/><path d="M455.58,652.82a6.37,6.37,0,1,0-6.36-6.36A6.37,6.37,0,0,0,455.58,652.82Z" fill="#5bb7b1"/><path d="M473.58,652.82a6.37,6.37,0,1,0-6.36-6.36A6.37,6.37,0,0,0,473.58,652.82Z" fill="#5bb7b1"/><path d="M509.58,652.82a6.37,6.37,0,1,0-6.36-6.36A6.37,6.37,0,0,0,509.58,652.82Z" fill="#5bb7b1"/><path d="M491.58,652.82a6.37,6.37,0,1,0-6.37-6.36A6.37,6.37,0,0,0,491.58,652.82Z" fill="#5bb7b1"/><path d="M437.58,670.82a6.37,6.37,0,1,0-6.36-6.37A6.37,6.37,0,0,0,437.58,670.82Z" fill="#5bb7b1"/><path d="M455.58,670.82a6.37,6.37,0,1,0-6.36-6.37A6.37,6.37,0,0,0,455.58,670.82Z" fill="#5bb7b1"/><path d="M473.58,670.82a6.37,6.37,0,1,0-6.36-6.37A6.37,6.37,0,0,0,473.58,670.82Z" fill="#5bb7b1"/><path d="M509.58,670.82a6.37,6.37,0,1,0-6.36-6.37A6.37,6.37,0,0,0,509.58,670.82Z" fill="#5bb7b1"/><path d="M491.58,670.82a6.37,6.37,0,1,0-6.37-6.37A6.37,6.37,0,0,0,491.58,670.82Z" fill="#5bb7b1"/><path d="M491.58,688.81a6.37,6.37,0,1,0-6.37-6.36A6.37,6.37,0,0,0,491.58,688.81Z" fill="#5bb7b1"/></g></svg>