<?xml version="1.0" encoding="UTF-8"?>
<svg id="Layer_1" data-name="Layer 1" xmlns="http://www.w3.org/2000/svg" viewBox="0 0 90.71 84.28">
  <defs>
    <style>
      .cls-1 {
        fill: #ff8200;
      }

      .cls-2 {
        fill: #5cb8b2;
      }
    </style>
  </defs>
  <path class="cls-1" d="M45.36,4.15c-11.05,0-20,8.95-20,20v15.92h-5.67c-1.14,0-2.06,.93-2.06,2.07v35.93c0,1.14,.92,2.06,2.06,2.06h51.31c1.14,0,2.06-.92,2.06-2.06V42.14c0-1.14-.92-2.06-2.06-2.07h-5.62v-15.89c.02-11.05-8.92-20.01-19.97-20.03-.02,0-.03,0-.05,0Zm-15.9,20c-.22-8.78,6.72-16.07,15.5-16.29,8.78-.22,16.07,6.72,16.29,15.5,0,.27,0,.53,0,.8v15.92H29.46v-15.92Zm39.54,20.06v31.79H21.76v-31.79h47.24Z"/>
  <path class="cls-2" d="M45.36,52.9c-3.98,0-7.2,3.21-7.21,7.19s3.21,7.2,7.19,7.21c3.98,0,7.2-3.21,7.21-7.19,0,0,0,0,0,0,0-3.97-3.22-7.19-7.19-7.2Zm0,10.27c-1.7,0-3.07-1.36-3.08-3.06,0-1.7,1.36-3.07,3.06-3.08,1.7,0,3.07,1.36,3.08,3.06,0,0,0,0,0,0,0,1.69-1.37,3.06-3.06,3.07Z"/>
</svg>