<svg xmlns="http://www.w3.org/2000/svg" viewBox="0 0 19.75 19.75"><title>Artboard 2</title><path d="M10.7,14.07l.6-.6c.3-.31.54-.55.7-.7a1.76,1.76,0,0,1,2.62,0l2.16,2.16a1.77,1.77,0,0,1,0,2.66,4.32,4.32,0,0,1-.75.57l-.24.15-.71.42-.31.17a4.24,4.24,0,0,1-3.27.27L11,19a13.4,13.4,0,0,1-1.24-.54A18.13,18.13,0,0,1,6,16.07,18.09,18.09,0,0,1,4.67,14.8c-.35-.36-.68-.74-1-1.13A18.46,18.46,0,0,1,1.23,9.62C1,9.14.84,8.69.7,8.29.62,8,.56,7.86.55,7.8A4,4,0,0,1,1,4.54c0-.06.1-.16.18-.28s.28-.41.43-.6l.18-.23A4.52,4.52,0,0,1,2.18,3,1.77,1.77,0,0,1,4.8,3L7,5.1A1.77,1.77,0,0,1,7,7.77l-.73.73-.55.55-.18.18c0,.13.13.3.23.52a14,14,0,0,0,.74,1.38,7.37,7.37,0,0,0,.94,1.21,8.55,8.55,0,0,0,1,.83A14.28,14.28,0,0,0,9.92,14l.58.26Zm5.37,1.57-2.15-2.16a.78.78,0,0,0-1.22,0l-.69.69-.61.6-.27.28a.87.87,0,0,1-.91.18l-.73-.32A12.66,12.66,0,0,1,7.89,14a8.16,8.16,0,0,1-1.18-.95,6.93,6.93,0,0,1-1.09-1.39,13.36,13.36,0,0,1-.81-1.49c-.14-.31-.24-.55-.29-.68a.84.84,0,0,1,.2-.89L5,8.35l.54-.55.73-.73a.8.8,0,0,0,0-1.27L4.1,3.67a.78.78,0,0,0-1.22,0A3.45,3.45,0,0,0,2.55,4c0,.07-.11.14-.16.22s-.27.37-.4.56l-.18.27A3.07,3.07,0,0,0,1.5,7.5c0,.08.07.24.15.46.13.38.29.8.49,1.26a17.88,17.88,0,0,0,2.32,3.83c.3.36.61.72.93,1.06s.84.82,1.28,1.19a17.23,17.23,0,0,0,3.53,2.26c.42.2.81.37,1.16.5l.46.16A3.26,3.26,0,0,0,14.27,18l.3-.17c.24-.13.47-.27.68-.4l.23-.14a5,5,0,0,0,.58-.43A.78.78,0,0,0,16.07,15.64Z" fill="#00263e"/><path d="M19.37,9.87a.5.5,0,0,1-.5.5.5.5,0,0,1-.5-.5,8.5,8.5,0,0,0-8.5-8.5.5.5,0,0,1-.5-.5.51.51,0,0,1,.5-.5A9.5,9.5,0,0,1,19.37,9.87Z" fill="#00263e"/><path d="M16.37,9.87a.5.5,0,0,1-.5.5.5.5,0,0,1-.5-.5,5.5,5.5,0,0,0-5.5-5.5.5.5,0,0,1-.5-.5.51.51,0,0,1,.5-.5A6.5,6.5,0,0,1,16.37,9.87Z" fill="#00263e"/></svg>