<?xml version="1.0" encoding="UTF-8"?>
<svg id="Layer_1" data-name="Layer 1" xmlns="http://www.w3.org/2000/svg" viewBox="0 0 90.71 90.71">
  <defs>
    <style>
      .cls-1 {
        fill: #fff;
      }

      .cls-2 {
        fill: #ff8200;
      }
    </style>
  </defs>
  <circle class="cls-2" cx="48.34" cy="45.35" r="42.37"/>
  <path class="cls-1" d="M78.24,45.33c0-10.21-3.98-19.79-11.19-27-7.19-7.19-16.76-11.16-26.91-11.18h-.08s-.51,0-.51,0l.02,.5-.13-.5h-.2c-9.91,.2-19.23,4.17-26.24,11.18C5.99,25.34,2.02,34.67,1.83,44.65c-.01,.24-.02,.47-.02,.71,0,.29,0,.55,.02,.79,.13,6.48,1.91,12.84,5.16,18.43-1.03,1.3-1.59,2.91-1.59,4.56,0,4.09,3.33,7.43,7.43,7.43,1.32,0,2.62-.36,3.77-1.04,6.45,5.03,14.49,7.88,22.66,8.03,.26,.02,.51,.02,.78,.02,.29,0,.57,0,.83-.02,9.89-.21,19.2-4.17,26.2-11.18,7.01-7.01,10.98-16.33,11.17-26.22v-.19s-.49-.08-.49-.08l.5-.04v-.51Zm-6.02,11.19c-1.67,4.84-4.45,9.27-8.09,12.92-3.65,3.65-8.08,6.42-12.92,8.1,2.93-3.5,5.32-8.31,6.95-14.06,5.75-1.63,10.57-4.02,14.06-6.95Zm-30.11,5.17v-14.27h14.26c-.13,4.4-.67,8.65-1.62,12.65-4,.95-8.25,1.49-12.64,1.62Zm11.37,2.9c-2.66,7.94-6.85,13.29-11.37,14.55v-13.3c3.92-.11,7.73-.53,11.37-1.25Zm5.79-5.8c.72-3.64,1.14-7.45,1.25-11.37h13.3c-1.28,4.45-6.75,8.72-14.54,11.37Zm-9.29-28.56c.01,.06,.03,.12,.04,.17l.48-.13-.45,.26c.03,.11,.05,.21,.08,.31,.02,.06,.04,.12,.06,.18l.47-.17-.41,.33c.03,.09,.06,.18,.1,.27l.08,.18,.45-.22-.39,.34c.04,.09,.08,.18,.13,.26,.03,.06,.07,.13,.11,.19l.43-.26-.37,.35c.05,.09,.1,.17,.16,.26,.04,.07,.09,.13,.14,.19l.4-.3-.34,.39c.05,.07,.11,.15,.17,.22,.06,.08,.13,.15,.22,.25,.06,.07,.13,.15,.2,.21,.07,.07,.14,.14,.22,.21,.08,.07,.15,.14,.24,.22l.27,.21c.07,.06,.15,.11,.23,.17,.09,.06,.17,.12,.26,.17,.09,.06,.17,.11,.26,.16,.09,.05,.19,.1,.29,.15,.09,.05,.18,.09,.27,.13,.1,.05,.21,.09,.31,.13,.09,.04,.18,.07,.28,.1,.11,.04,.22,.07,.33,.1l.28,.07c.12,.03,.23,.05,.35,.07,.09,.02,.19,.03,.28,.04,.03,0,.06,0,.09,.01,.37,2.49,.6,5.11,.68,7.79h-14.25v-14.27c2.65,.08,5.26,.31,7.79,.69v.02s.07-.01,.07-.01c.07,0,.13,.02,.19,.03l-.25,.11c.02,.13,.03,.25,.06,.38Zm1.03-4.17h0s.04,0,.04,0h-.04Zm6.05,5.77h0l-.2-.47c-.12,.02-.25,.04-.38,.04-1.37,0-2.48-1.11-2.48-2.48,0-.18,.02-.35,.06-.54,.18-.86,.82-1.56,1.72-1.84,.21-.07,.45-.11,.7-.11,1.37,0,2.48,1.11,2.48,2.48,0,.25-.03,.49-.11,.75-.29,.86-.99,1.5-1.89,1.69l.1,.49Zm3.47,11.44c-.08-2.9-.34-5.79-.77-8.61,.8-.46,1.5-1.07,2.04-1.81,6.57,2.67,10.9,6.43,12.02,10.42h-13.29Zm2.57-14.36h0c0-3.65-2.97-6.63-6.62-6.63h0c-1.46-3.65-3.22-6.71-5.27-9.14,4.84,1.67,9.28,4.45,12.94,8.11s6.43,8.1,8.11,12.94c-2.43-2.05-5.5-3.82-9.14-5.28Zm-10.65-5.25l-.18,.14c-.1,.08-.2,.17-.3,.26-.08,.08-.16,.15-.24,.24-.07,.07-.14,.14-.2,.21-.07,.07-.13,.15-.19,.23l-.14,.18c-.11,.15-.22,.31-.32,.46l-.09,.15s-.04,.07-.06,.11c-2.8-.43-5.69-.69-8.6-.77V11.58c4,1.12,7.76,5.45,10.42,12.03-.03,.02-.06,.04-.09,.07Zm-2.05,5.98l-.1,.04v-.03s.1-.01,.1-.01Zm2.66-5.8h0s-.02-.02-.02-.02h0s.02,.02,.02,.02h0s0,0,0,0Zm-26.45,2.27c2.68-7.91,6.86-13.26,11.37-14.55v13.3c-3.91,.11-7.73,.53-11.37,1.25Zm-4.68,37.36c1.64,5.75,4.03,10.57,6.96,14.06-3.41-1.18-6.57-2.87-9.42-5.05,.52-1.03,.8-2.18,.8-3.36,0-4.08-3.32-7.41-7.41-7.41-.84,0-1.67,.14-2.45,.42-1.02-1.79-1.87-3.68-2.54-5.64,3.49,2.93,8.31,5.32,14.07,6.97ZM7.84,34.19c1.68-4.84,4.45-9.28,8.1-12.93,3.64-3.64,8.08-6.42,12.92-8.09-2.94,3.5-5.32,8.31-6.96,14.07-5.76,1.63-10.57,4.02-14.07,6.95Zm17.68,16.52h0s0,0,0,0h0Zm-3.94-2.36c-1.65,0-3-1.34-3-3,0-1.66,1.34-3.02,3-3.02h.09c1.64,.06,2.92,1.39,2.92,3.02,0,.49-.12,.97-.36,1.42-.04,.08-.09,.15-.19,.3-.03,.05-.07,.1-.11,.15l-.28,.3,.3,.41-.4-.3c-.06,.05-.12,.09-.22,.17-.07,.05-.14,.09-.24,.15-.08,.04-.16,.09-.25,.13-.36,.16-.74,.26-1.12,.27h-.14Zm-6.83-.92c.73,2.39,2.66,4.24,5.08,4.85,.21,2.2,.53,4.39,.95,6.52-7.94-2.67-13.29-6.86-14.55-11.37H14.75Zm10.65-7.53h0s0,0,0,0h0Zm-.59-.37h0s0,0,0,0h0Zm-4.02-7.62c-.41,2.08-.73,4.26-.95,6.5-2.42,.61-4.36,2.47-5.09,4.87H6.23c1.26-4.52,6.61-8.71,14.55-11.37Zm3.21,20.16c.14-.05,.28-.11,.46-.19l.13-.05c.19-.08,.37-.18,.56-.29,.19-.11,.37-.22,.54-.34l.12-.09c.13-.09,.25-.19,.37-.29l.16-.14c.11-.09,.21-.19,.31-.29l.15-.16c.1-.1,.19-.21,.28-.32l.13-.16c.1-.13,.19-.26,.29-.39l.08-.12c.11-.18,.22-.36,.32-.54l.06-.11c.08-.15,.15-.3,.21-.46l.08-.2c.05-.13,.1-.26,.14-.4l.03-.1h9.53v14.27c-4.4-.13-8.65-.67-12.65-1.62-.62-2.63-1.07-5.31-1.33-8h.02Zm3.23-11.12l-.16-.19c-.08-.1-.17-.19-.25-.29l-.18-.18c-.09-.09-.18-.18-.31-.29-.05-.05-.1-.09-.15-.13-.11-.09-.22-.17-.38-.29l-.12-.09c-.17-.12-.34-.23-.52-.33l-.25,.43s0,0,0,0l.13-.49c-.15-.08-.29-.16-.44-.23l-.21-.09c-.13-.05-.26-.11-.39-.16,0,0-.02,0-.03,0,.28-2.73,.72-5.41,1.33-7.98,4-.95,8.25-1.49,12.65-1.62v14.26h-9.53s-.02-.08-.04-.12c-.04-.13-.09-.26-.15-.43l-.07-.18c-.06-.14-.13-.28-.22-.47l-.05-.1c-.1-.18-.2-.36-.32-.54l-.11-.15c-.08-.12-.17-.24-.25-.35Zm-16.41,25.61l.06-.05c.58-.42,1.25-.65,1.94-.65,1.8,0,3.26,1.46,3.26,3.26,0,.87-.33,1.69-.94,2.3-.62,.63-1.45,.98-2.33,.98-1.81,0-3.28-1.47-3.28-3.28,0-1.03,.47-1.98,1.27-2.57Zm27.14-.73v13.31c-4.51-1.25-8.69-6.61-11.37-14.55,3.64,.72,7.46,1.14,11.37,1.25Zm1.56-58.19h0s0,0,0,0Zm38.22,38.1h0Z"/>
</svg>