<svg xmlns="http://www.w3.org/2000/svg" viewBox="0 0 641.16 446.86"><g id="Australia"><circle cx="248.58" cy="394.43" r="6.5" fill="#5bb7b1"/><circle cx="140.58" cy="358.43" r="6.5" fill="#5bb7b1"/><circle cx="230.58" cy="358.43" r="6.5" fill="#5bb7b1"/><circle cx="140.58" cy="376.43" r="6.5" fill="#5bb7b1"/><circle cx="374.58" cy="376.43" r="6.5" fill="#5bb7b1"/><circle cx="356.58" cy="376.43" r="6.5" fill="#5bb7b1"/><circle cx="104.58" cy="196.43" r="6.5" fill="#5bb7b1"/><circle cx="122.58" cy="196.43" r="6.5" fill="#5bb7b1"/><circle cx="158.58" cy="196.43" r="6.5" fill="#5bb7b1"/><circle cx="140.58" cy="196.43" r="6.5" fill="#5bb7b1"/><circle cx="176.58" cy="196.43" r="6.5" fill="#5bb7b1"/><circle cx="194.58" cy="196.43" r="6.5" fill="#5bb7b1"/><circle cx="212.58" cy="196.43" r="6.5" fill="#5bb7b1"/><circle cx="266.58" cy="196.43" r="6.5" fill="#5bb7b1"/><circle cx="248.58" cy="196.43" r="6.5" fill="#5bb7b1"/><circle cx="230.58" cy="196.43" r="6.5" fill="#5bb7b1"/><circle cx="284.58" cy="196.43" r="6.5" fill="#5bb7b1"/><circle cx="302.58" cy="196.43" r="6.5" fill="#5bb7b1"/><circle cx="428.58" cy="196.43" r="6.5" fill="#5bb7b1"/><circle cx="554.58" cy="196.43" r="6.5" fill="#5bb7b1"/><circle cx="572.58" cy="196.43" r="6.5" fill="#5bb7b1"/><circle cx="446.58" cy="196.43" r="6.5" fill="#5bb7b1"/><circle cx="482.58" cy="196.43" r="6.5" fill="#5bb7b1"/><circle cx="500.58" cy="196.43" r="6.5" fill="#5bb7b1"/><circle cx="518.58" cy="196.43" r="6.5" fill="#5bb7b1"/><circle cx="536.58" cy="196.43" r="6.5" fill="#5bb7b1"/><circle cx="464.58" cy="196.43" r="6.5" fill="#5bb7b1"/><circle cx="320.58" cy="196.43" r="6.5" fill="#5bb7b1"/><circle cx="392.58" cy="196.43" r="6.5" fill="#5bb7b1"/><circle cx="410.58" cy="196.43" r="6.5" fill="#5bb7b1"/><circle cx="374.58" cy="196.43" r="6.5" fill="#5bb7b1"/><circle cx="356.58" cy="196.43" r="6.5" fill="#5bb7b1"/><circle cx="338.58" cy="196.43" r="6.5" fill="#5bb7b1"/><circle cx="104.58" cy="214.43" r="6.5" fill="#5bb7b1"/><circle cx="122.58" cy="214.43" r="6.5" fill="#5bb7b1"/><circle cx="158.58" cy="214.43" r="6.5" fill="#5bb7b1"/><circle cx="140.58" cy="214.43" r="6.5" fill="#5bb7b1"/><circle cx="176.58" cy="214.43" r="6.5" fill="#5bb7b1"/><circle cx="194.58" cy="214.43" r="6.5" fill="#5bb7b1"/><circle cx="212.58" cy="214.43" r="6.5" fill="#5bb7b1"/><circle cx="266.58" cy="214.43" r="6.5" fill="#5bb7b1"/><circle cx="248.58" cy="214.43" r="6.5" fill="#5bb7b1"/><circle cx="230.58" cy="214.43" r="6.5" fill="#5bb7b1"/><circle cx="284.58" cy="214.43" r="6.5" fill="#5bb7b1"/><circle cx="302.58" cy="214.43" r="6.5" fill="#5bb7b1"/><circle cx="428.58" cy="214.43" r="6.5" fill="#5bb7b1"/><circle cx="554.58" cy="214.43" r="6.5" fill="#5bb7b1"/><circle cx="572.58" cy="214.43" r="6.5" fill="#5bb7b1"/><circle cx="446.58" cy="214.43" r="6.5" fill="#5bb7b1"/><circle cx="482.58" cy="214.43" r="6.5" fill="#5bb7b1"/><circle cx="500.58" cy="214.43" r="6.5" fill="#5bb7b1"/><circle cx="518.58" cy="214.43" r="6.5" fill="#5bb7b1"/><circle cx="536.58" cy="214.43" r="6.5" fill="#5bb7b1"/><circle cx="464.58" cy="214.43" r="6.5" fill="#5bb7b1"/><circle cx="320.58" cy="214.43" r="6.5" fill="#5bb7b1"/><circle cx="392.58" cy="214.43" r="6.5" fill="#5bb7b1"/><circle cx="410.58" cy="214.43" r="6.5" fill="#5bb7b1"/><circle cx="374.58" cy="214.43" r="6.5" fill="#5bb7b1"/><circle cx="356.58" cy="214.43" r="6.5" fill="#5bb7b1"/><circle cx="338.58" cy="214.43" r="6.5" fill="#5bb7b1"/><circle cx="104.58" cy="232.43" r="6.5" fill="#5bb7b1"/><circle cx="122.58" cy="232.43" r="6.5" fill="#5bb7b1"/><circle cx="158.58" cy="232.43" r="6.5" fill="#5bb7b1"/><circle cx="140.58" cy="232.43" r="6.5" fill="#5bb7b1"/><circle cx="176.58" cy="232.43" r="6.5" fill="#5bb7b1"/><circle cx="194.58" cy="232.43" r="6.5" fill="#5bb7b1"/><circle cx="212.58" cy="232.43" r="6.5" fill="#5bb7b1"/><circle cx="266.58" cy="232.43" r="6.5" fill="#5bb7b1"/><circle cx="248.58" cy="232.43" r="6.5" fill="#5bb7b1"/><circle cx="230.58" cy="232.43" r="6.5" fill="#5bb7b1"/><circle cx="284.58" cy="232.43" r="6.5" fill="#5bb7b1"/><circle cx="302.58" cy="232.43" r="6.5" fill="#5bb7b1"/><circle cx="428.58" cy="232.43" r="6.5" fill="#5bb7b1"/><circle cx="554.58" cy="232.43" r="6.5" fill="#5bb7b1"/><circle cx="572.58" cy="232.43" r="6.5" fill="#5bb7b1"/><circle cx="446.58" cy="232.43" r="6.5" fill="#5bb7b1"/><circle cx="482.58" cy="232.43" r="6.5" fill="#5bb7b1"/><circle cx="500.58" cy="232.43" r="6.5" fill="#5bb7b1"/><circle cx="518.58" cy="232.43" r="6.5" fill="#5bb7b1"/><circle cx="536.58" cy="232.43" r="6.5" fill="#5bb7b1"/><circle cx="464.58" cy="232.43" r="6.5" fill="#5bb7b1"/><circle cx="320.58" cy="232.43" r="6.5" fill="#5bb7b1"/><circle cx="392.58" cy="232.43" r="6.5" fill="#5bb7b1"/><circle cx="410.58" cy="232.43" r="6.5" fill="#5bb7b1"/><circle cx="374.58" cy="232.43" r="6.5" fill="#5bb7b1"/><circle cx="356.58" cy="232.43" r="6.5" fill="#5bb7b1"/><circle cx="338.58" cy="232.43" r="6.5" fill="#5bb7b1"/><circle cx="122.58" cy="178.43" r="6.5" fill="#5bb7b1"/><circle cx="158.58" cy="178.43" r="6.5" fill="#5bb7b1"/><circle cx="140.58" cy="178.43" r="6.5" fill="#5bb7b1"/><circle cx="176.58" cy="178.43" r="6.5" fill="#5bb7b1"/><circle cx="194.58" cy="178.43" r="6.5" fill="#5bb7b1"/><circle cx="212.58" cy="178.43" r="6.5" fill="#5bb7b1"/><circle cx="266.58" cy="178.43" r="6.5" fill="#5bb7b1"/><circle cx="248.58" cy="178.43" r="6.5" fill="#5bb7b1"/><circle cx="230.58" cy="178.43" r="6.5" fill="#5bb7b1"/><circle cx="284.58" cy="178.43" r="6.5" fill="#5bb7b1"/><circle cx="302.58" cy="178.43" r="6.5" fill="#5bb7b1"/><circle cx="428.58" cy="178.43" r="6.5" fill="#5bb7b1"/><circle cx="554.58" cy="178.43" r="6.5" fill="#5bb7b1"/><circle cx="446.58" cy="178.43" r="6.5" fill="#5bb7b1"/><circle cx="482.58" cy="178.43" r="6.5" fill="#5bb7b1"/><circle cx="500.58" cy="178.43" r="6.5" fill="#5bb7b1"/><circle cx="518.58" cy="178.43" r="6.5" fill="#5bb7b1"/><circle cx="536.58" cy="178.43" r="6.5" fill="#5bb7b1"/><circle cx="464.58" cy="178.43" r="6.5" fill="#5bb7b1"/><circle cx="320.58" cy="178.43" r="6.5" fill="#5bb7b1"/><circle cx="392.58" cy="178.43" r="6.5" fill="#5bb7b1"/><circle cx="410.58" cy="178.43" r="6.5" fill="#5bb7b1"/><circle cx="374.58" cy="178.43" r="6.5" fill="#5bb7b1"/><circle cx="356.58" cy="178.43" r="6.5" fill="#5bb7b1"/><circle cx="338.58" cy="178.43" r="6.5" fill="#5bb7b1"/><circle cx="86.57" cy="250.43" r="6.5" fill="#5bb7b1"/><circle cx="104.58" cy="250.43" r="6.5" fill="#5bb7b1"/><circle cx="122.58" cy="250.43" r="6.5" fill="#5bb7b1"/><circle cx="158.58" cy="250.43" r="6.5" fill="#5bb7b1"/><circle cx="140.58" cy="250.43" r="6.5" fill="#5bb7b1"/><circle cx="176.58" cy="250.43" r="6.5" fill="#5bb7b1"/><circle cx="194.58" cy="250.43" r="6.5" fill="#5bb7b1"/><circle cx="212.58" cy="250.43" r="6.5" fill="#5bb7b1"/><circle cx="266.58" cy="250.43" r="6.5" fill="#5bb7b1"/><circle cx="248.58" cy="250.43" r="6.5" fill="#5bb7b1"/><circle cx="230.58" cy="250.43" r="6.5" fill="#5bb7b1"/><circle cx="284.58" cy="250.43" r="6.5" fill="#5bb7b1"/><circle cx="302.58" cy="250.43" r="6.5" fill="#5bb7b1"/><circle cx="428.58" cy="250.43" r="6.5" fill="#5bb7b1"/><circle cx="554.58" cy="250.43" r="6.5" fill="#5bb7b1"/><circle cx="572.58" cy="250.43" r="6.5" fill="#5bb7b1"/><circle cx="446.58" cy="250.43" r="6.5" fill="#5bb7b1"/><circle cx="482.58" cy="250.43" r="6.5" fill="#5bb7b1"/><circle cx="500.58" cy="250.43" r="6.5" fill="#5bb7b1"/><circle cx="518.58" cy="250.43" r="6.5" fill="#5bb7b1"/><circle cx="536.58" cy="250.43" r="6.5" fill="#5bb7b1"/><circle cx="464.58" cy="250.43" r="6.5" fill="#5bb7b1"/><circle cx="320.58" cy="250.43" r="6.5" fill="#5bb7b1"/><circle cx="392.58" cy="250.43" r="6.5" fill="#5bb7b1"/><circle cx="410.58" cy="250.43" r="6.5" fill="#5bb7b1"/><circle cx="374.58" cy="250.43" r="6.5" fill="#5bb7b1"/><circle cx="356.58" cy="250.43" r="6.5" fill="#5bb7b1"/><circle cx="338.58" cy="250.43" r="6.5" fill="#5bb7b1"/><circle cx="86.57" cy="268.43" r="6.5" fill="#5bb7b1"/><circle cx="122.58" cy="268.43" r="6.5" fill="#5bb7b1"/><circle cx="158.58" cy="268.43" r="6.5" fill="#5bb7b1"/><circle cx="140.58" cy="268.43" r="6.5" fill="#5bb7b1"/><circle cx="176.58" cy="268.43" r="6.5" fill="#5bb7b1"/><circle cx="212.58" cy="268.43" r="6.5" fill="#5bb7b1"/><circle cx="266.58" cy="268.43" r="6.5" fill="#5bb7b1"/><circle cx="248.58" cy="268.43" r="6.5" fill="#5bb7b1"/><circle cx="230.58" cy="268.43" r="6.5" fill="#5bb7b1"/><circle cx="284.58" cy="268.43" r="6.5" fill="#5bb7b1"/><circle cx="302.58" cy="268.43" r="6.5" fill="#5bb7b1"/><circle cx="428.58" cy="268.43" r="6.5" fill="#5bb7b1"/><circle cx="446.58" cy="268.43" r="6.5" fill="#5bb7b1"/><circle cx="320.58" cy="268.43" r="6.5" fill="#5bb7b1"/><circle cx="392.58" cy="268.43" r="6.5" fill="#5bb7b1"/><circle cx="410.58" cy="268.43" r="6.5" fill="#5bb7b1"/><circle cx="374.58" cy="268.43" r="6.5" fill="#5bb7b1"/><circle cx="356.58" cy="268.43" r="6.5" fill="#5bb7b1"/><circle cx="338.58" cy="268.43" r="6.5" fill="#5bb7b1"/><circle cx="86.57" cy="286.43" r="6.5" fill="#5bb7b1"/><circle cx="104.58" cy="286.43" r="6.5" fill="#5bb7b1"/><circle cx="158.58" cy="286.43" r="6.5" fill="#5bb7b1"/><circle cx="194.58" cy="286.43" r="6.5" fill="#5bb7b1"/><circle cx="266.58" cy="286.43" r="6.5" fill="#5bb7b1"/><circle cx="284.58" cy="286.43" r="6.5" fill="#5bb7b1"/><circle cx="302.58" cy="286.43" r="6.5" fill="#5bb7b1"/><circle cx="320.58" cy="286.43" r="6.5" fill="#5bb7b1"/><circle cx="392.58" cy="286.43" r="6.5" fill="#5bb7b1"/><circle cx="410.58" cy="286.43" r="6.5" fill="#5bb7b1"/><circle cx="374.58" cy="286.43" r="6.5" fill="#5bb7b1"/><circle cx="356.58" cy="286.43" r="6.5" fill="#5bb7b1"/><circle cx="338.58" cy="286.43" r="6.5" fill="#5bb7b1"/><circle cx="68.57" cy="304.43" r="6.5" fill="#5bb7b1"/><circle cx="86.57" cy="304.43" r="6.5" fill="#5bb7b1"/><circle cx="140.58" cy="304.43" r="6.5" fill="#5bb7b1"/><circle cx="176.58" cy="304.43" r="6.5" fill="#5bb7b1"/><circle cx="194.58" cy="304.43" r="6.5" fill="#5bb7b1"/><circle cx="212.58" cy="304.43" r="6.5" fill="#5bb7b1"/><circle cx="266.58" cy="304.43" r="6.5" fill="#5bb7b1"/><circle cx="248.58" cy="304.43" r="6.5" fill="#5bb7b1"/><circle cx="284.58" cy="304.43" r="6.5" fill="#5bb7b1"/><circle cx="302.58" cy="304.43" r="6.5" fill="#5bb7b1"/><circle cx="320.58" cy="304.43" r="6.5" fill="#5bb7b1"/><circle cx="374.58" cy="304.43" r="6.5" fill="#5bb7b1"/><circle cx="356.58" cy="304.43" r="6.5" fill="#5bb7b1"/><circle cx="338.58" cy="304.43" r="6.5" fill="#5bb7b1"/><circle cx="158.58" cy="340.43" r="6.5" fill="#5bb7b1"/><circle cx="140.58" cy="340.43" r="6.5" fill="#5bb7b1"/><circle cx="320.58" cy="340.43" r="6.5" fill="#5bb7b1"/><circle cx="356.58" cy="340.43" r="6.5" fill="#5bb7b1"/><circle cx="338.58" cy="340.43" r="6.5" fill="#5bb7b1"/><circle cx="140.58" cy="322.43" r="6.5" fill="#5bb7b1"/><circle cx="176.58" cy="322.43" r="6.5" fill="#5bb7b1"/><circle cx="194.58" cy="322.43" r="6.5" fill="#5bb7b1"/><circle cx="302.58" cy="322.43" r="6.5" fill="#5bb7b1"/><circle cx="356.58" cy="322.43" r="6.5" fill="#5bb7b1"/><circle cx="338.58" cy="322.43" r="6.5" fill="#5bb7b1"/><circle cx="122.58" cy="160.43" r="6.5" fill="#5bb7b1"/><circle cx="158.58" cy="160.43" r="6.5" fill="#5bb7b1"/><circle cx="140.58" cy="160.43" r="6.5" fill="#5bb7b1"/><circle cx="176.58" cy="160.43" r="6.5" fill="#5bb7b1"/><circle cx="194.58" cy="160.43" r="6.5" fill="#5bb7b1"/><circle cx="212.58" cy="160.43" r="6.5" fill="#5bb7b1"/><circle cx="266.58" cy="160.43" r="6.5" fill="#5bb7b1"/><circle cx="248.58" cy="160.43" r="6.5" fill="#5bb7b1"/><circle cx="230.58" cy="160.43" r="6.5" fill="#5bb7b1"/><circle cx="284.58" cy="160.43" r="6.5" fill="#5bb7b1"/><circle cx="302.58" cy="160.43" r="6.5" fill="#5bb7b1"/><circle cx="428.58" cy="160.43" r="6.5" fill="#5bb7b1"/><circle cx="446.58" cy="160.43" r="6.5" fill="#5bb7b1"/><circle cx="482.58" cy="160.43" r="6.5" fill="#5bb7b1"/><circle cx="500.58" cy="160.43" r="6.5" fill="#5bb7b1"/><circle cx="518.58" cy="160.43" r="6.5" fill="#5bb7b1"/><circle cx="536.58" cy="160.43" r="6.5" fill="#5bb7b1"/><circle cx="464.58" cy="160.43" r="6.5" fill="#5bb7b1"/><circle cx="320.58" cy="160.43" r="6.5" fill="#5bb7b1"/><circle cx="392.58" cy="160.43" r="6.5" fill="#5bb7b1"/><circle cx="410.58" cy="160.43" r="6.5" fill="#5bb7b1"/><circle cx="374.58" cy="160.43" r="6.5" fill="#5bb7b1"/><circle cx="356.58" cy="160.43" r="6.5" fill="#5bb7b1"/><circle cx="338.58" cy="160.43" r="6.5" fill="#5bb7b1"/><circle cx="158.58" cy="142.43" r="6.5" fill="#5bb7b1"/><circle cx="140.58" cy="142.43" r="6.5" fill="#5bb7b1"/><circle cx="176.58" cy="142.43" r="6.5" fill="#5bb7b1"/><circle cx="194.58" cy="142.43" r="6.5" fill="#5bb7b1"/><circle cx="212.58" cy="142.43" r="6.5" fill="#5bb7b1"/><circle cx="266.58" cy="142.43" r="6.5" fill="#5bb7b1"/><circle cx="248.58" cy="142.43" r="6.5" fill="#5bb7b1"/><circle cx="230.58" cy="142.43" r="6.5" fill="#5bb7b1"/><circle cx="284.58" cy="142.43" r="6.5" fill="#5bb7b1"/><circle cx="302.58" cy="142.43" r="6.5" fill="#5bb7b1"/><circle cx="428.58" cy="142.43" r="6.5" fill="#5bb7b1"/><circle cx="446.58" cy="142.43" r="6.5" fill="#5bb7b1"/><circle cx="464.58" cy="142.43" r="6.5" fill="#5bb7b1"/><circle cx="320.58" cy="142.43" r="6.5" fill="#5bb7b1"/><circle cx="392.58" cy="142.43" r="6.5" fill="#5bb7b1"/><circle cx="410.58" cy="142.43" r="6.5" fill="#5bb7b1"/><circle cx="374.58" cy="142.43" r="6.5" fill="#5bb7b1"/><circle cx="356.58" cy="142.43" r="6.5" fill="#5bb7b1"/><circle cx="338.58" cy="142.43" r="6.5" fill="#5bb7b1"/><circle cx="158.58" cy="124.43" r="6.5" fill="#5bb7b1"/><circle cx="140.58" cy="124.43" r="6.5" fill="#5bb7b1"/><circle cx="176.58" cy="124.43" r="6.5" fill="#5bb7b1"/><circle cx="194.58" cy="124.43" r="6.5" fill="#5bb7b1"/><circle cx="266.58" cy="124.43" r="6.5" fill="#5bb7b1"/><circle cx="248.58" cy="124.43" r="6.5" fill="#5bb7b1"/><circle cx="230.58" cy="124.43" r="6.5" fill="#5bb7b1"/><circle cx="284.58" cy="124.43" r="6.5" fill="#5bb7b1"/><circle cx="302.58" cy="124.43" r="6.5" fill="#5bb7b1"/><circle cx="428.58" cy="124.43" r="6.5" fill="#5bb7b1"/><circle cx="446.58" cy="124.43" r="6.5" fill="#5bb7b1"/><circle cx="482.58" cy="124.43" r="6.5" fill="#5bb7b1"/><circle cx="500.58" cy="124.43" r="6.5" fill="#5bb7b1"/><circle cx="518.58" cy="124.43" r="6.5" fill="#5bb7b1"/><circle cx="536.58" cy="124.43" r="6.5" fill="#5bb7b1"/><circle cx="320.58" cy="124.43" r="6.5" fill="#5bb7b1"/><circle cx="392.58" cy="124.43" r="6.5" fill="#5bb7b1"/><circle cx="410.58" cy="124.43" r="6.5" fill="#5bb7b1"/><circle cx="374.58" cy="124.43" r="6.5" fill="#5bb7b1"/><circle cx="356.58" cy="124.43" r="6.5" fill="#5bb7b1"/><circle cx="338.58" cy="124.43" r="6.5" fill="#5bb7b1"/><circle cx="158.58" cy="106.43" r="6.5" fill="#5bb7b1"/><circle cx="140.58" cy="106.43" r="6.5" fill="#5bb7b1"/><circle cx="176.58" cy="106.43" r="6.5" fill="#5bb7b1"/><circle cx="194.58" cy="106.43" r="6.5" fill="#5bb7b1"/><circle cx="212.58" cy="106.43" r="6.5" fill="#5bb7b1"/><circle cx="266.58" cy="106.43" r="6.5" fill="#5bb7b1"/><circle cx="248.58" cy="106.43" r="6.5" fill="#5bb7b1"/><circle cx="230.58" cy="106.43" r="6.5" fill="#5bb7b1"/><circle cx="284.58" cy="106.43" r="6.5" fill="#5bb7b1"/><circle cx="302.58" cy="106.43" r="6.5" fill="#5bb7b1"/><circle cx="464.58" cy="106.43" r="6.5" fill="#5bb7b1"/><circle cx="320.58" cy="106.43" r="6.5" fill="#5bb7b1"/><circle cx="392.58" cy="106.43" r="6.5" fill="#5bb7b1"/><circle cx="410.58" cy="106.43" r="6.5" fill="#5bb7b1"/><circle cx="356.58" cy="106.43" r="6.5" fill="#5bb7b1"/><circle cx="338.58" cy="106.43" r="6.5" fill="#5bb7b1"/><circle cx="176.58" cy="88.43" r="6.5" fill="#5bb7b1"/><circle cx="194.58" cy="88.43" r="6.5" fill="#5bb7b1"/><circle cx="212.58" cy="88.43" r="6.5" fill="#5bb7b1"/><circle cx="266.58" cy="88.43" r="6.5" fill="#5bb7b1"/><circle cx="248.58" cy="88.43" r="6.5" fill="#5bb7b1"/><circle cx="230.58" cy="88.43" r="6.5" fill="#5bb7b1"/><circle cx="284.58" cy="88.43" r="6.5" fill="#5bb7b1"/><circle cx="302.58" cy="88.43" r="6.5" fill="#5bb7b1"/><circle cx="320.58" cy="88.43" r="6.5" fill="#5bb7b1"/><circle cx="374.58" cy="88.43" r="6.5" fill="#5bb7b1"/><circle cx="356.58" cy="88.43" r="6.5" fill="#5bb7b1"/><circle cx="338.58" cy="88.43" r="6.5" fill="#5bb7b1"/><circle cx="194.58" cy="70.43" r="6.5" fill="#5bb7b1"/><circle cx="266.58" cy="70.43" r="6.5" fill="#5bb7b1"/><circle cx="284.58" cy="70.43" r="6.5" fill="#5bb7b1"/><circle cx="302.58" cy="70.43" r="6.5" fill="#5bb7b1"/><circle cx="320.58" cy="70.43" r="6.5" fill="#5bb7b1"/><circle cx="356.58" cy="70.43" r="6.5" fill="#5bb7b1"/><circle cx="338.58" cy="70.43" r="6.5" fill="#5bb7b1"/><circle cx="302.58" cy="52.43" r="6.5" fill="#5bb7b1"/><circle cx="320.58" cy="52.43" r="6.5" fill="#5bb7b1"/><circle cx="338.58" cy="52.43" r="6.5" fill="#5bb7b1"/></g></svg>