<svg id="Layer_1" data-name="Layer 1" xmlns="http://www.w3.org/2000/svg" viewBox="0 0 90.71 90.71"><defs><style>.cls-1{fill:#ff8200;}.cls-2{fill:#00263e;}</style></defs><circle class="cls-1" cx="47.34" cy="45.35" r="42.34"/><path class="cls-2" d="M72.11,4.81c-11.5,0-22.66,6.2-31.63,14.81A72.07,72.07,0,0,0,25,41.21L17.28,37l6.15-7.19h3.1a2,2,0,0,0,0-4h-4a1.81,1.81,0,0,0-1.54.69l-8.4,9.82a2,2,0,0,0,.25,2.84,1.66,1.66,0,0,0,.32.22l10.32,5.59A49.05,49.05,0,0,0,22,49.67a2,2,0,0,0,.54,1.93L35.05,64.2a2,2,0,0,0,2,.5q2.34-.61,4.71-1.48L47.3,73.51a2,2,0,0,0,2.73.81,2.25,2.25,0,0,0,.36-.24l9.79-8.4a2,2,0,0,0,.72-1.52v-4a2,2,0,1,0-4-.13v3.19l-7.2,6.15-4.2-7.7A71.81,71.81,0,0,0,67.06,46.2c8.61-9,14.8-20.14,14.8-31.63a20.41,20.41,0,0,0-1-7.64,2,2,0,0,0-1.13-1.14A20.31,20.31,0,0,0,72.11,4.81Zm0,4a21.73,21.73,0,0,1,5.21.51,21.23,21.23,0,0,1,.5,5.21c0,10-5.58,20.37-13.7,28.82C56.3,51.54,46.2,57.79,37,60.44l-10.8-10.8a52.13,52.13,0,0,1,3.82-9.44L43.35,53.49a2,2,0,1,0,2.88-2.84L32.11,36.54a68.54,68.54,0,0,1,11.14-14C51.71,14.41,62.09,8.85,72.11,8.85ZM63.05,19.78a3.84,3.84,0,1,0,3.85,3.85,3.83,3.83,0,0,0-3.85-3.85ZM16.55,52.83A2.11,2.11,0,0,0,16,53L2.4,57.59a2,2,0,0,0,1.24,3.85l.09,0,13.61-4.64a2,2,0,0,0-.79-3.94Zm7.57,7.45a2.06,2.06,0,0,0-1.2.6L7.74,76.07a2,2,0,1,0,2.84,2.87L25.8,63.72a2,2,0,0,0-1.68-3.44Zm7.74,7.64a2,2,0,0,0-2,1.42L25.26,83A2,2,0,0,0,29,84.48a2.25,2.25,0,0,0,.08-.24l4.64-13.6a2,2,0,0,0-1.2-2.6,2.14,2.14,0,0,0-.66-.12Z"/></svg>