<svg xmlns="http://www.w3.org/2000/svg" viewBox="0 0 90.71 73.7"><title>Infinity copy</title><path d="M60.55,4a5.71,5.71,0,0,0-5.7,5.7,5.82,5.82,0,0,0,.73,2.8l.08.15-3.58,4.56H38.53L35,12.62l.08-.15a5.92,5.92,0,0,0,.72-2.8,5.7,5.7,0,1,0-5.6,5.69,6.35,6.35,0,0,0,2.27-.45l.17-.07L37,20.46H53.73l4.38-5.62.17.07a6.35,6.35,0,0,0,2.27.45A5.7,5.7,0,1,0,60.55,4ZM30.16,12.09a2.42,2.42,0,1,1,2.42-2.42A2.4,2.4,0,0,1,30.16,12.09Zm30.3,0a2.42,2.42,0,1,1,2.42-2.42A2.4,2.4,0,0,1,60.46,12.09Z" fill="#f58020"/><path d="M68.2,31.25a5.72,5.72,0,0,0-5.43,3.88l-.05.18H27.9l-.06-.18a5.69,5.69,0,1,0,0,3.62l.06-.17H62.72l.05.18a5.71,5.71,0,1,0,5.43-7.51Zm-45.69,8a2.42,2.42,0,1,1,2.42-2.42A2.45,2.45,0,0,1,22.51,39.27Zm45.59.1a2.43,2.43,0,1,1,2.42-2.43A2.4,2.4,0,0,1,68.1,39.37Z" fill="#f58020"/><path d="M12.8,53.33l-.06-.17a5.71,5.71,0,1,0-5.42,7.51,5.77,5.77,0,0,0,5.43-3.9l.06-.16H23.25l7.64-9.06H59.72l7.65,9.06H77.82l.05.17a5.7,5.7,0,1,0,5.43-7.5,5.74,5.74,0,0,0-5.43,3.89l-.06.16h-9l-7.65-9.06H29.43l-7.65,9.06ZM9.63,55.61a2.45,2.45,0,0,1-2.31,1.78,2.42,2.42,0,1,1,0-4.84,2.36,2.36,0,0,1,2.31,1.78v1.28ZM81,54.33a2.42,2.42,0,1,1,0,1.28V54.33Z" fill="#f58020"/><path d="M60.46,69.73a5.7,5.7,0,0,0,0-11.39,6.44,6.44,0,0,0-2.28.45l-.17.07-4.38-5.53H37L32.6,58.86l-.17-.07a6.35,6.35,0,0,0-2.27-.45A5.7,5.7,0,1,0,35.86,64a5.84,5.84,0,0,0-.73-2.8l-.08-.15,3.48-4.47H52.08l3.48,4.47-.08.15a6,6,0,0,0-.72,2.8A5.71,5.71,0,0,0,60.46,69.73Zm0-8.12A2.42,2.42,0,1,1,58,64,2.4,2.4,0,0,1,60.46,61.61Zm-30.3,4.84A2.42,2.42,0,1,1,32.58,64,2.39,2.39,0,0,1,30.16,66.45Z" fill="#f58020"/><path d="M77.91,20.46l.06.17A5.68,5.68,0,1,0,78,17l-.06.16H67.46l-7.64,9.07H30.89l-7.64-9.07H12.8L12.74,17a5.71,5.71,0,1,0-5.42,7.51,5.77,5.77,0,0,0,5.43-3.89l.06-.17h9l7.65,9.06H61.28l7.65-9.06ZM81,18.18A2.47,2.47,0,0,1,83.3,16.4a2.42,2.42,0,1,1,0,4.84A2.38,2.38,0,0,1,81,19.46V18.18ZM9.63,19.46a2.36,2.36,0,0,1-2.31,1.78,2.42,2.42,0,0,1,0-4.84,2.36,2.36,0,0,1,2.31,1.78v1.28Z" fill="#f58020"/></svg>