<svg xmlns="http://www.w3.org/2000/svg" viewBox="0 0 429.7 731.15"><g id="Australia"><circle cx="97.85" cy="482.58" r="6.5" fill="#5bb7b1"/><circle cx="115.85" cy="482.58" r="6.5" fill="#5bb7b1"/><circle cx="97.85" cy="500.58" r="6.5" fill="#5bb7b1"/><circle cx="115.85" cy="500.58" r="6.5" fill="#5bb7b1"/><circle cx="97.85" cy="464.58" r="6.5" fill="#5bb7b1"/><circle cx="115.85" cy="464.58" r="6.5" fill="#5bb7b1"/><circle cx="79.85" cy="536.58" r="6.5" fill="#5bb7b1"/><circle cx="97.85" cy="536.58" r="6.5" fill="#5bb7b1"/><circle cx="115.85" cy="536.58" r="6.5" fill="#5bb7b1"/><circle cx="133.85" cy="536.58" r="6.5" fill="#5bb7b1"/><circle cx="115.85" cy="446.58" r="6.5" fill="#5bb7b1"/><circle cx="133.85" cy="446.58" r="6.5" fill="#5bb7b1"/><circle cx="79.85" cy="518.58" r="6.5" fill="#5bb7b1"/><circle cx="97.85" cy="518.58" r="6.5" fill="#5bb7b1"/><circle cx="115.85" cy="518.58" r="6.5" fill="#5bb7b1"/><circle cx="151.85" cy="518.58" r="6.5" fill="#5bb7b1"/><circle cx="79.85" cy="554.58" r="6.5" fill="#5bb7b1"/><circle cx="97.85" cy="554.58" r="6.5" fill="#5bb7b1"/><circle cx="115.85" cy="554.58" r="6.5" fill="#5bb7b1"/><circle cx="133.85" cy="554.58" r="6.5" fill="#5bb7b1"/><circle cx="151.85" cy="554.58" r="6.5" fill="#5bb7b1"/><circle cx="97.85" cy="572.58" r="6.5" fill="#5bb7b1"/><circle cx="115.85" cy="572.58" r="6.5" fill="#5bb7b1"/><circle cx="133.85" cy="572.58" r="6.5" fill="#5bb7b1"/><circle cx="151.85" cy="572.58" r="6.5" fill="#5bb7b1"/><circle cx="79.85" cy="590.58" r="6.5" fill="#5bb7b1"/><circle cx="115.85" cy="590.58" r="6.5" fill="#5bb7b1"/><circle cx="133.85" cy="590.58" r="6.5" fill="#5bb7b1"/><circle cx="151.85" cy="590.58" r="6.5" fill="#5bb7b1"/><circle cx="133.85" cy="392.57" r="6.5" fill="#5bb7b1"/><circle cx="151.85" cy="392.57" r="6.5" fill="#5bb7b1"/><circle cx="241.85" cy="392.57" r="6.5" fill="#5bb7b1"/><circle cx="259.85" cy="392.57" r="6.5" fill="#5bb7b1"/><circle cx="133.85" cy="410.57" r="6.5" fill="#5bb7b1"/><circle cx="151.85" cy="410.57" r="6.5" fill="#5bb7b1"/><circle cx="241.85" cy="410.57" r="6.5" fill="#5bb7b1"/><circle cx="259.85" cy="410.57" r="6.5" fill="#5bb7b1"/><circle cx="133.85" cy="428.58" r="6.5" fill="#5bb7b1"/><circle cx="259.85" cy="428.58" r="6.5" fill="#5bb7b1"/><circle cx="133.85" cy="662.58" r="6.5" fill="#5bb7b1"/><circle cx="187.85" cy="662.58" r="6.5" fill="#5bb7b1"/><circle cx="223.85" cy="662.58" r="6.5" fill="#5bb7b1"/><circle cx="205.85" cy="662.58" r="6.5" fill="#5bb7b1"/><circle cx="223.85" cy="680.58" r="6.5" fill="#5bb7b1"/><circle cx="205.85" cy="680.58" r="6.5" fill="#5bb7b1"/><circle cx="115.85" cy="356.57" r="6.5" fill="#5bb7b1"/><circle cx="133.85" cy="356.57" r="6.5" fill="#5bb7b1"/><circle cx="151.85" cy="356.57" r="6.5" fill="#5bb7b1"/><circle cx="187.85" cy="356.57" r="6.5" fill="#5bb7b1"/><circle cx="223.85" cy="356.57" r="6.5" fill="#5bb7b1"/><circle cx="241.85" cy="356.57" r="6.5" fill="#5bb7b1"/><circle cx="205.85" cy="356.57" r="6.5" fill="#5bb7b1"/><circle cx="115.85" cy="374.57" r="6.5" fill="#5bb7b1"/><circle cx="133.85" cy="374.57" r="6.5" fill="#5bb7b1"/><circle cx="151.85" cy="374.57" r="6.5" fill="#5bb7b1"/><circle cx="187.85" cy="374.57" r="6.5" fill="#5bb7b1"/><circle cx="223.85" cy="374.57" r="6.5" fill="#5bb7b1"/><circle cx="241.85" cy="374.57" r="6.5" fill="#5bb7b1"/><circle cx="205.85" cy="374.57" r="6.5" fill="#5bb7b1"/><circle cx="115.85" cy="608.58" r="6.5" fill="#5bb7b1"/><circle cx="133.85" cy="608.58" r="6.5" fill="#5bb7b1"/><circle cx="151.85" cy="608.58" r="6.5" fill="#5bb7b1"/><circle cx="169.85" cy="608.58" r="6.5" fill="#5bb7b1"/><circle cx="133.85" cy="626.58" r="6.5" fill="#5bb7b1"/><circle cx="151.85" cy="626.58" r="6.5" fill="#5bb7b1"/><circle cx="187.85" cy="626.58" r="6.5" fill="#5bb7b1"/><circle cx="205.85" cy="626.58" r="6.5" fill="#5bb7b1"/><circle cx="169.85" cy="626.58" r="6.5" fill="#5bb7b1"/><circle cx="151.85" cy="644.58" r="6.5" fill="#5bb7b1"/><circle cx="187.85" cy="644.58" r="6.5" fill="#5bb7b1"/><circle cx="223.85" cy="644.58" r="6.5" fill="#5bb7b1"/><circle cx="205.85" cy="644.58" r="6.5" fill="#5bb7b1"/><circle cx="169.85" cy="644.58" r="6.5" fill="#5bb7b1"/><circle cx="79.85" cy="266.57" r="6.5" fill="#5bb7b1"/><circle cx="97.85" cy="266.57" r="6.5" fill="#5bb7b1"/><circle cx="115.85" cy="266.57" r="6.5" fill="#5bb7b1"/><circle cx="133.85" cy="266.57" r="6.5" fill="#5bb7b1"/><circle cx="151.85" cy="266.57" r="6.5" fill="#5bb7b1"/><circle cx="187.85" cy="266.57" r="6.5" fill="#5bb7b1"/><circle cx="223.85" cy="266.57" r="6.5" fill="#5bb7b1"/><circle cx="241.85" cy="266.57" r="6.5" fill="#5bb7b1"/><circle cx="259.85" cy="266.57" r="6.5" fill="#5bb7b1"/><circle cx="277.85" cy="266.57" r="6.5" fill="#5bb7b1"/><circle cx="295.85" cy="266.57" r="6.5" fill="#5bb7b1"/><circle cx="313.85" cy="266.57" r="6.5" fill="#5bb7b1"/><circle cx="331.85" cy="266.57" r="6.5" fill="#5bb7b1"/><circle cx="385.85" cy="266.57" r="6.5" fill="#5bb7b1"/><circle cx="367.85" cy="266.57" r="6.5" fill="#5bb7b1"/><circle cx="349.85" cy="266.57" r="6.5" fill="#5bb7b1"/><circle cx="205.85" cy="266.57" r="6.5" fill="#5bb7b1"/><circle cx="169.85" cy="266.57" r="6.5" fill="#5bb7b1"/><circle cx="79.85" cy="284.57" r="6.5" fill="#5bb7b1"/><circle cx="97.85" cy="284.57" r="6.5" fill="#5bb7b1"/><circle cx="115.85" cy="284.57" r="6.5" fill="#5bb7b1"/><circle cx="133.85" cy="284.57" r="6.5" fill="#5bb7b1"/><circle cx="151.85" cy="284.57" r="6.5" fill="#5bb7b1"/><circle cx="187.85" cy="284.57" r="6.5" fill="#5bb7b1"/><circle cx="223.85" cy="284.57" r="6.5" fill="#5bb7b1"/><circle cx="241.85" cy="284.57" r="6.5" fill="#5bb7b1"/><circle cx="259.85" cy="284.57" r="6.5" fill="#5bb7b1"/><circle cx="277.85" cy="284.57" r="6.5" fill="#5bb7b1"/><circle cx="295.85" cy="284.57" r="6.5" fill="#5bb7b1"/><circle cx="313.85" cy="284.57" r="6.5" fill="#5bb7b1"/><circle cx="331.85" cy="284.57" r="6.5" fill="#5bb7b1"/><circle cx="385.85" cy="284.57" r="6.5" fill="#5bb7b1"/><circle cx="367.85" cy="284.57" r="6.5" fill="#5bb7b1"/><circle cx="349.85" cy="284.57" r="6.5" fill="#5bb7b1"/><circle cx="205.85" cy="284.57" r="6.5" fill="#5bb7b1"/><circle cx="169.85" cy="284.57" r="6.5" fill="#5bb7b1"/><circle cx="97.85" cy="302.57" r="6.5" fill="#5bb7b1"/><circle cx="115.85" cy="302.57" r="6.5" fill="#5bb7b1"/><circle cx="133.85" cy="302.57" r="6.5" fill="#5bb7b1"/><circle cx="151.85" cy="302.57" r="6.5" fill="#5bb7b1"/><circle cx="187.85" cy="302.57" r="6.5" fill="#5bb7b1"/><circle cx="223.85" cy="302.57" r="6.5" fill="#5bb7b1"/><circle cx="241.85" cy="302.57" r="6.5" fill="#5bb7b1"/><circle cx="259.85" cy="302.57" r="6.5" fill="#5bb7b1"/><circle cx="277.85" cy="302.57" r="6.5" fill="#5bb7b1"/><circle cx="295.85" cy="302.57" r="6.5" fill="#5bb7b1"/><circle cx="313.85" cy="302.57" r="6.5" fill="#5bb7b1"/><circle cx="331.85" cy="302.57" r="6.5" fill="#5bb7b1"/><circle cx="367.85" cy="302.57" r="6.5" fill="#5bb7b1"/><circle cx="349.85" cy="302.57" r="6.5" fill="#5bb7b1"/><circle cx="205.85" cy="302.57" r="6.5" fill="#5bb7b1"/><circle cx="169.85" cy="302.57" r="6.5" fill="#5bb7b1"/><circle cx="115.85" cy="320.57" r="6.5" fill="#5bb7b1"/><circle cx="133.85" cy="320.57" r="6.5" fill="#5bb7b1"/><circle cx="151.85" cy="320.57" r="6.5" fill="#5bb7b1"/><circle cx="187.85" cy="320.57" r="6.5" fill="#5bb7b1"/><circle cx="223.85" cy="320.57" r="6.5" fill="#5bb7b1"/><circle cx="241.85" cy="320.57" r="6.5" fill="#5bb7b1"/><circle cx="259.85" cy="320.57" r="6.5" fill="#5bb7b1"/><circle cx="205.85" cy="320.57" r="6.5" fill="#5bb7b1"/><circle cx="169.85" cy="320.57" r="6.5" fill="#5bb7b1"/><circle cx="115.85" cy="338.57" r="6.5" fill="#5bb7b1"/><circle cx="133.85" cy="338.57" r="6.5" fill="#5bb7b1"/><circle cx="151.85" cy="338.57" r="6.5" fill="#5bb7b1"/><circle cx="187.85" cy="338.57" r="6.5" fill="#5bb7b1"/><circle cx="223.85" cy="338.57" r="6.5" fill="#5bb7b1"/><circle cx="241.85" cy="338.57" r="6.5" fill="#5bb7b1"/><circle cx="259.85" cy="338.57" r="6.5" fill="#5bb7b1"/><circle cx="205.85" cy="338.57" r="6.5" fill="#5bb7b1"/><circle cx="169.85" cy="338.57" r="6.5" fill="#ff8200"/><circle cx="97.85" cy="230.57" r="6.5" fill="#5bb7b1"/><circle cx="115.85" cy="230.57" r="6.5" fill="#5bb7b1"/><circle cx="133.85" cy="230.57" r="6.5" fill="#5bb7b1"/><circle cx="151.85" cy="230.57" r="6.5" fill="#5bb7b1"/><circle cx="187.85" cy="230.57" r="6.5" fill="#5bb7b1"/><circle cx="223.85" cy="230.57" r="6.5" fill="#5bb7b1"/><circle cx="241.85" cy="230.57" r="6.5" fill="#5bb7b1"/><circle cx="259.85" cy="230.57" r="6.5" fill="#5bb7b1"/><circle cx="277.85" cy="230.57" r="6.5" fill="#5bb7b1"/><circle cx="295.85" cy="230.57" r="6.5" fill="#5bb7b1"/><circle cx="313.85" cy="230.57" r="6.5" fill="#5bb7b1"/><circle cx="331.85" cy="230.57" r="6.5" fill="#5bb7b1"/><circle cx="367.85" cy="230.57" r="6.5" fill="#5bb7b1"/><circle cx="349.85" cy="230.57" r="6.5" fill="#5bb7b1"/><circle cx="205.85" cy="230.57" r="6.5" fill="#5bb7b1"/><circle cx="169.85" cy="230.57" r="6.5" fill="#5bb7b1"/><circle cx="97.85" cy="248.57" r="6.5" fill="#5bb7b1"/><circle cx="115.85" cy="248.57" r="6.5" fill="#5bb7b1"/><circle cx="133.85" cy="248.57" r="6.5" fill="#5bb7b1"/><circle cx="151.85" cy="248.57" r="6.5" fill="#5bb7b1"/><circle cx="187.85" cy="248.57" r="6.5" fill="#5bb7b1"/><circle cx="223.85" cy="248.57" r="6.5" fill="#5bb7b1"/><circle cx="241.85" cy="248.57" r="6.5" fill="#5bb7b1"/><circle cx="259.85" cy="248.57" r="6.5" fill="#5bb7b1"/><circle cx="277.85" cy="248.57" r="6.5" fill="#5bb7b1"/><circle cx="295.85" cy="248.57" r="6.5" fill="#5bb7b1"/><circle cx="313.85" cy="248.57" r="6.5" fill="#5bb7b1"/><circle cx="331.85" cy="248.57" r="6.5" fill="#5bb7b1"/><circle cx="367.85" cy="248.57" r="6.5" fill="#5bb7b1"/><circle cx="349.85" cy="248.57" r="6.5" fill="#5bb7b1"/><circle cx="205.85" cy="248.57" r="6.5" fill="#5bb7b1"/><circle cx="169.85" cy="248.57" r="6.5" fill="#5bb7b1"/><circle cx="115.85" cy="212.57" r="6.5" fill="#5bb7b1"/><circle cx="133.85" cy="212.57" r="6.5" fill="#5bb7b1"/><circle cx="151.85" cy="212.57" r="6.5" fill="#5bb7b1"/><circle cx="187.85" cy="212.57" r="6.5" fill="#5bb7b1"/><circle cx="223.85" cy="212.57" r="6.5" fill="#5bb7b1"/><circle cx="241.85" cy="212.57" r="6.5" fill="#5bb7b1"/><circle cx="259.85" cy="212.57" r="6.5" fill="#5bb7b1"/><circle cx="277.85" cy="212.57" r="6.5" fill="#5bb7b1"/><circle cx="295.85" cy="212.57" r="6.5" fill="#5bb7b1"/><circle cx="313.85" cy="212.57" r="6.5" fill="#5bb7b1"/><circle cx="331.85" cy="212.57" r="6.5" fill="#5bb7b1"/><circle cx="349.85" cy="212.57" r="6.5" fill="#5bb7b1"/><circle cx="205.85" cy="212.57" r="6.5" fill="#5bb7b1"/><circle cx="169.85" cy="212.57" r="6.5" fill="#5bb7b1"/><circle cx="97.85" cy="194.57" r="6.5" fill="#5bb7b1"/><circle cx="115.85" cy="194.57" r="6.5" fill="#5bb7b1"/><circle cx="133.85" cy="194.57" r="6.5" fill="#5bb7b1"/><circle cx="151.85" cy="194.57" r="6.5" fill="#5bb7b1"/><circle cx="187.85" cy="194.57" r="6.5" fill="#5bb7b1"/><circle cx="223.85" cy="194.57" r="6.5" fill="#5bb7b1"/><circle cx="241.85" cy="194.57" r="6.5" fill="#5bb7b1"/><circle cx="259.85" cy="194.57" r="6.5" fill="#5bb7b1"/><circle cx="277.85" cy="194.57" r="6.5" fill="#5bb7b1"/><circle cx="295.85" cy="194.57" r="6.5" fill="#5bb7b1"/><circle cx="313.85" cy="194.57" r="6.5" fill="#5bb7b1"/><circle cx="331.85" cy="194.57" r="6.5" fill="#5bb7b1"/><circle cx="349.85" cy="194.57" r="6.5" fill="#5bb7b1"/><circle cx="205.85" cy="194.57" r="6.5" fill="#5bb7b1"/><circle cx="169.85" cy="194.57" r="6.5" fill="#5bb7b1"/><circle cx="79.85" cy="86.57" r="6.5" fill="#5bb7b1"/><circle cx="97.85" cy="86.57" r="6.5" fill="#5bb7b1"/><circle cx="115.85" cy="86.57" r="6.5" fill="#5bb7b1"/><circle cx="133.85" cy="86.57" r="6.5" fill="#5bb7b1"/><circle cx="151.85" cy="86.57" r="6.5" fill="#5bb7b1"/><circle cx="187.85" cy="86.57" r="6.5" fill="#5bb7b1"/><circle cx="169.85" cy="86.57" r="6.5" fill="#5bb7b1"/><circle cx="61.85" cy="104.57" r="6.5" fill="#5bb7b1"/><circle cx="79.85" cy="104.57" r="6.5" fill="#5bb7b1"/><circle cx="97.85" cy="104.57" r="6.5" fill="#5bb7b1"/><circle cx="115.85" cy="104.57" r="6.5" fill="#5bb7b1"/><circle cx="133.85" cy="104.57" r="6.5" fill="#5bb7b1"/><circle cx="151.85" cy="104.57" r="6.5" fill="#5bb7b1"/><circle cx="187.85" cy="104.57" r="6.5" fill="#5bb7b1"/><circle cx="205.85" cy="104.57" r="6.5" fill="#5bb7b1"/><circle cx="169.85" cy="104.57" r="6.5" fill="#5bb7b1"/><circle cx="43.85" cy="122.57" r="6.5" fill="#5bb7b1"/><circle cx="61.85" cy="122.57" r="6.5" fill="#5bb7b1"/><circle cx="79.85" cy="122.57" r="6.5" fill="#5bb7b1"/><circle cx="97.85" cy="122.57" r="6.5" fill="#5bb7b1"/><circle cx="115.85" cy="122.57" r="6.5" fill="#5bb7b1"/><circle cx="133.85" cy="122.57" r="6.5" fill="#5bb7b1"/><circle cx="151.85" cy="122.57" r="6.5" fill="#5bb7b1"/><circle cx="187.85" cy="122.57" r="6.5" fill="#5bb7b1"/><circle cx="205.85" cy="122.57" r="6.5" fill="#5bb7b1"/><circle cx="169.85" cy="122.57" r="6.5" fill="#5bb7b1"/><circle cx="43.85" cy="140.57" r="6.5" fill="#5bb7b1"/><circle cx="61.85" cy="140.57" r="6.5" fill="#5bb7b1"/><circle cx="79.85" cy="140.57" r="6.5" fill="#5bb7b1"/><circle cx="97.85" cy="140.57" r="6.5" fill="#5bb7b1"/><circle cx="115.85" cy="140.57" r="6.5" fill="#5bb7b1"/><circle cx="133.85" cy="140.57" r="6.5" fill="#5bb7b1"/><circle cx="151.85" cy="140.57" r="6.5" fill="#5bb7b1"/><circle cx="187.85" cy="140.57" r="6.5" fill="#5bb7b1"/><circle cx="223.85" cy="140.57" r="6.5" fill="#5bb7b1"/><circle cx="241.85" cy="140.57" r="6.5" fill="#5bb7b1"/><circle cx="259.85" cy="140.57" r="6.5" fill="#5bb7b1"/><circle cx="295.85" cy="140.57" r="6.5" fill="#5bb7b1"/><circle cx="313.85" cy="140.57" r="6.5" fill="#5bb7b1"/><circle cx="169.85" cy="140.57" r="6.5" fill="#5bb7b1"/><circle cx="61.85" cy="158.57" r="6.5" fill="#5bb7b1"/><circle cx="79.85" cy="158.57" r="6.5" fill="#5bb7b1"/><circle cx="97.85" cy="158.57" r="6.5" fill="#5bb7b1"/><circle cx="115.85" cy="158.57" r="6.5" fill="#5bb7b1"/><circle cx="133.85" cy="158.57" r="6.5" fill="#5bb7b1"/><circle cx="151.85" cy="158.57" r="6.5" fill="#5bb7b1"/><circle cx="187.85" cy="158.57" r="6.5" fill="#5bb7b1"/><circle cx="223.85" cy="158.57" r="6.5" fill="#5bb7b1"/><circle cx="241.85" cy="158.57" r="6.5" fill="#5bb7b1"/><circle cx="259.85" cy="158.57" r="6.5" fill="#5bb7b1"/><circle cx="277.85" cy="158.57" r="6.5" fill="#5bb7b1"/><circle cx="295.85" cy="158.57" r="6.5" fill="#5bb7b1"/><circle cx="313.85" cy="158.57" r="6.5" fill="#5bb7b1"/><circle cx="331.85" cy="158.57" r="6.5" fill="#5bb7b1"/><circle cx="205.85" cy="158.57" r="6.5" fill="#5bb7b1"/><circle cx="169.85" cy="158.57" r="6.5" fill="#5bb7b1"/><circle cx="79.85" cy="176.57" r="6.5" fill="#5bb7b1"/><circle cx="97.85" cy="176.57" r="6.5" fill="#5bb7b1"/><circle cx="115.85" cy="176.57" r="6.5" fill="#5bb7b1"/><circle cx="133.85" cy="176.57" r="6.5" fill="#5bb7b1"/><circle cx="151.85" cy="176.57" r="6.5" fill="#5bb7b1"/><circle cx="187.85" cy="176.57" r="6.5" fill="#5bb7b1"/><circle cx="223.85" cy="176.57" r="6.5" fill="#5bb7b1"/><circle cx="241.85" cy="176.57" r="6.5" fill="#5bb7b1"/><circle cx="259.85" cy="176.57" r="6.5" fill="#5bb7b1"/><circle cx="277.85" cy="176.57" r="6.5" fill="#5bb7b1"/><circle cx="295.85" cy="176.57" r="6.5" fill="#5bb7b1"/><circle cx="313.85" cy="176.57" r="6.5" fill="#5bb7b1"/><circle cx="331.85" cy="176.57" r="6.5" fill="#5bb7b1"/><circle cx="349.85" cy="176.57" r="6.5" fill="#5bb7b1"/><circle cx="205.85" cy="176.57" r="6.5" fill="#5bb7b1"/><circle cx="169.85" cy="176.57" r="6.5" fill="#5bb7b1"/><circle cx="151.85" cy="50.57" r="6.5" fill="#5bb7b1"/><circle cx="169.85" cy="50.57" r="6.5" fill="#5bb7b1"/><circle cx="79.85" cy="68.57" r="6.5" fill="#5bb7b1"/><circle cx="115.85" cy="68.57" r="6.5" fill="#5bb7b1"/><circle cx="133.85" cy="68.57" r="6.5" fill="#5bb7b1"/><circle cx="151.85" cy="68.57" r="6.5" fill="#5bb7b1"/><circle cx="169.85" cy="68.57" r="6.5" fill="#5bb7b1"/></g></svg>