<svg id="Layer_1" data-name="Layer 1" xmlns="http://www.w3.org/2000/svg" viewBox="0 0 90.71 73.7"><defs><style>.cls-1{fill:#f58020;}</style></defs><title>Infinity copy 4</title><path class="cls-1" d="M20.28,4.94A1.55,1.55,0,0,0,18.89,6.5v8.64c-2.07.24-4.72.7-6.23.7A1.56,1.56,0,0,0,11.1,17.4V64.89a1.56,1.56,0,0,0,1.56,1.56c6.88,0,15.74-3.12,22.58-3.12A9.91,9.91,0,0,1,44,68a1.55,1.55,0,0,0,2.13.55,1.58,1.58,0,0,0,.54-.55,9.91,9.91,0,0,1,8.78-4.67c6.84,0,15.7,3.12,22.58,3.12a1.56,1.56,0,0,0,1.56-1.56V17.4a1.56,1.56,0,0,0-1.56-1.56c-1.51,0-4.16-.46-6.23-.7V6.5a1.55,1.55,0,0,0-1.55-1.56h-.13C64,5.45,58.38,6.66,53.77,9.35a20.88,20.88,0,0,0-8.42,9.19,20.8,20.8,0,0,0-8.41-9.19c-4.61-2.69-10.23-3.9-16.37-4.41A1.4,1.4,0,0,0,20.28,4.94ZM22,8.3c5.16.57,9.77,1.63,13.36,3.72A18,18,0,0,1,43.8,23.07V61.58A22,22,0,0,0,34.53,55c-4.06-1.49-8.32-1.71-12.53-1.76Zm46.71,0v45c-4.21,0-8.47.27-12.53,1.76a22,22,0,0,0-9.27,6.54V23.07a18,18,0,0,1,8.44-11C58.94,9.93,63.55,8.87,68.71,8.3Zm-49.82,10v36.5a1.56,1.56,0,0,0,1.56,1.56c4.62,0,9.06.21,13,1.65a19,19,0,0,1,4.82,2.6,13.79,13.79,0,0,0-3-.36c-7.12,0-15.19,2.55-21,3V18.79C15.84,18.65,17.51,18.44,18.89,18.27Zm52.93,0c1.38.17,3.05.38,4.67.52v44.4c-5.83-.42-13.9-3-21-3a13.79,13.79,0,0,0-3,.36A19,19,0,0,1,57.25,58c4-1.44,8.39-1.65,13-1.65a1.56,1.56,0,0,0,1.56-1.56Z"/></svg>