<?xml version="1.0" encoding="UTF-8"?>
<svg id="Layer_1" data-name="Layer 1" xmlns="http://www.w3.org/2000/svg" viewBox="0 0 90.71 73.7">
  <defs>
    <style>
      .cls-1 {
        fill: #ff8200;
      }

      .cls-2 {
        fill: #5cb8b2;
      }
    </style>
  </defs>
  <path class="cls-2" d="M61.26,27.36c.73,.22,1.45,.48,2.15,.78,.22,.09,.45,.14,.69,.14,.71,0,1.35-.42,1.62-1.08,.38-.89-.04-1.93-.93-2.31-.82-.35-1.67-.65-2.52-.91-.16-.05-.33-.07-.5-.07-.77,0-1.47,.52-1.69,1.26-.13,.45-.09,.93,.14,1.34s.6,.72,1.05,.85h0Z"/>
  <path class="cls-2" d="M55.73,68.08h-.43c-1.32,0-2.65-.12-3.94-.37-.11-.02-.22-.03-.34-.03-.84,0-1.57,.6-1.73,1.43-.18,.95,.45,1.88,1.4,2.06,1.51,.29,3.06,.44,4.6,.44h.08c.13,0,.26,0,.39,0,.97-.02,1.75-.82,1.73-1.8-.02-.95-.81-1.73-1.76-1.73h0Z"/>
  <path class="cls-2" d="M37.49,58.02c-.32-.53-.9-.85-1.51-.85-.32,0-.64,.09-.91,.25-.4,.24-.69,.63-.8,1.09-.11,.46-.04,.93,.2,1.33,.88,1.45,1.91,2.81,3.07,4.05,.33,.35,.8,.56,1.29,.56,.45,0,.88-.17,1.2-.48,.34-.32,.54-.76,.56-1.23,.02-.47-.15-.92-.47-1.26-.99-1.06-1.87-2.23-2.62-3.47h0Z"/>
  <path class="cls-2" d="M47.21,66.45c-1.33-.56-2.61-1.27-3.8-2.11-.3-.21-.65-.32-1.01-.32-.58,0-1.12,.28-1.45,.75-.56,.8-.36,1.9,.43,2.45,1.39,.97,2.89,1.8,4.45,2.46,.22,.09,.45,.14,.69,.14,.71,0,1.35-.42,1.62-1.08,.38-.89-.04-1.93-.94-2.31h0Z"/>
  <path class="cls-2" d="M72.92,35.22c-.11,.46-.04,.93,.2,1.33,.75,1.24,1.37,2.57,1.84,3.94,.25,.71,.92,1.19,1.67,1.19,.2,0,.39-.03,.58-.1,.92-.32,1.41-1.33,1.09-2.24-.55-1.6-1.28-3.15-2.16-4.6-.32-.53-.9-.85-1.51-.85-.32,0-.64,.09-.91,.25-.4,.24-.69,.63-.8,1.09h0Z"/>
  <path class="cls-2" d="M79.45,44.3c-.12-.96-1-1.66-1.97-1.53-.96,.12-1.65,1-1.54,1.97,.1,.84,.16,1.7,.16,2.56,0,.6-.03,1.21-.08,1.79-.04,.47,.1,.93,.41,1.29,.3,.36,.73,.58,1.19,.62,.05,0,.11,0,.16,0,.92,0,1.68-.69,1.76-1.61,.06-.69,.09-1.4,.09-2.09,0-1-.06-2-.18-2.99h0Z"/>
  <path class="cls-2" d="M77.4,52.17c-.17-.05-.34-.08-.51-.08-.78,0-1.46,.5-1.69,1.25-.42,1.38-.99,2.73-1.7,4-.47,.85-.16,1.93,.69,2.4,.26,.15,.56,.22,.85,.22,.64,0,1.23-.35,1.54-.91,.82-1.49,1.49-3.06,1.98-4.69,.28-.93-.24-1.92-1.18-2.2h0Z"/>
  <path class="cls-2" d="M72.35,60.3c-.51,0-1,.22-1.33,.61-.95,1.09-2.02,2.09-3.18,2.97-.38,.28-.62,.7-.68,1.16-.06,.47,.06,.93,.34,1.31,.33,.44,.86,.7,1.41,.7,.38,0,.75-.12,1.06-.36,1.35-1.02,2.6-2.19,3.71-3.47,.31-.36,.46-.81,.43-1.28-.03-.47-.25-.9-.6-1.21-.32-.28-.73-.43-1.16-.43h0Z"/>
  <path class="cls-2" d="M64.87,65.96c-.26,0-.51,.06-.75,.17-1.31,.62-2.69,1.09-4.11,1.42-.46,.11-.85,.38-1.1,.78-.25,.4-.33,.87-.22,1.33,.19,.8,.89,1.37,1.72,1.37,.14,0,.28-.02,.4-.05,1.65-.38,3.27-.94,4.81-1.66,.43-.2,.75-.55,.91-1,.16-.44,.14-.92-.06-1.35-.29-.62-.92-1.01-1.6-1.01h0Z"/>
  <path class="cls-2" d="M70.5,33.09c.33,.36,.8,.56,1.29,.56,.45,0,.88-.17,1.2-.47,.71-.66,.75-1.78,.09-2.49-1.16-1.24-2.45-2.36-3.84-3.33-.3-.21-.65-.32-1.01-.32-.57,0-1.12,.28-1.45,.75-.56,.8-.36,1.9,.43,2.46,1.19,.83,2.29,1.79,3.28,2.85h0Z"/>
  <path class="cls-1" d="M59.67,24.83c0-.06,0-.11-.01-.16-.91-12.66-11.56-22.58-24.25-22.58-13.41,0-24.32,10.91-24.32,24.32,0,12.5,9.48,22.82,21.62,24.17,0,0,.22,.02,.21,.02,.11,0,.09,0,.2,.02,.04,0,.17,.02,.21,.03,.4,.04,.47,.05,.85,.05,0,0,.1,0,.1,0,.41,.01,.72,.02,1.14,.02,13.41,0,24.32-10.91,24.32-24.32,0-.49-.02-1.02-.06-1.58Zm-28.68,21.9c-9.54-2.06-16.38-10.47-16.38-20.32,0-11.47,9.33-20.8,20.8-20.8h0c10.17,0,18.84,7.4,20.5,17.35-.2,0-.41,0-.6,0-13.23,0-24.02,10.61-24.32,23.77Zm4.42,.48h0c-.29,0-.58,0-.89-.02,.05-11.42,9.36-20.7,20.8-20.7,.28,0,.57,0,.89,.02-.05,11.42-9.36,20.7-20.79,20.7Z"/>
  <path class="cls-2" d="M35.62,54.31c-.28-.71-.53-1.43-.74-2.17-.07-.23-.17-.44-.32-.62-.44-.56-1.17-.79-1.85-.6-.94,.26-1.49,1.24-1.22,2.17,.24,.86,.53,1.71,.86,2.53,.06,.16,.15,.31,.26,.44,.48,.61,1.32,.83,2.04,.54,.44-.18,.78-.51,.96-.94s.19-.91,.01-1.35h0Z"/>
</svg>