<?xml version="1.0" encoding="UTF-8"?>
<svg id="Australia" xmlns="http://www.w3.org/2000/svg" viewBox="0 0 738.24 421.1">
  <defs>
    <style>
      .cls-1 {
        fill: #ff8200;
      }

      .cls-2 {
        fill: #5bb7b1;
      }
    </style>
  </defs>
  <circle class="cls-2" cx="117.12" cy="66.56" r="6.5"/>
  <circle class="cls-2" cx="135.12" cy="66.56" r="6.5"/>
  <circle class="cls-2" cx="153.12" cy="66.56" r="6.5"/>
  <circle class="cls-2" cx="171.12" cy="66.56" r="6.5"/>
  <circle class="cls-2" cx="189.12" cy="66.56" r="6.5"/>
  <circle class="cls-2" cx="207.12" cy="66.56" r="6.5"/>
  <circle class="cls-2" cx="225.12" cy="66.56" r="6.5"/>
  <circle class="cls-2" cx="243.12" cy="66.56" r="6.5"/>
  <circle class="cls-2" cx="261.12" cy="66.56" r="6.5"/>
  <circle class="cls-2" cx="279.12" cy="66.56" r="6.5"/>
  <circle class="cls-2" cx="297.12" cy="66.56" r="6.5"/>
  <circle class="cls-2" cx="315.12" cy="66.56" r="6.5"/>
  <circle class="cls-2" cx="333.12" cy="66.56" r="6.5"/>
  <circle class="cls-2" cx="117.12" cy="48.56" r="6.5"/>
  <circle class="cls-2" cx="135.12" cy="48.56" r="6.5"/>
  <circle class="cls-2" cx="153.12" cy="48.56" r="6.5"/>
  <circle class="cls-2" cx="171.12" cy="48.56" r="6.5"/>
  <circle class="cls-2" cx="189.12" cy="48.56" r="6.5"/>
  <circle class="cls-2" cx="207.12" cy="48.56" r="6.5"/>
  <circle class="cls-2" cx="225.12" cy="48.56" r="6.5"/>
  <circle class="cls-2" cx="243.12" cy="48.56" r="6.5"/>
  <circle class="cls-2" cx="261.12" cy="48.56" r="6.5"/>
  <circle class="cls-2" cx="279.12" cy="48.56" r="6.5"/>
  <circle class="cls-2" cx="297.12" cy="48.56" r="6.5"/>
  <circle class="cls-2" cx="315.12" cy="48.56" r="6.5"/>
  <circle class="cls-2" cx="333.12" cy="48.56" r="6.5"/>
  <circle class="cls-2" cx="117.12" cy="84.56" r="6.5"/>
  <circle class="cls-2" cx="135.12" cy="84.56" r="6.5"/>
  <circle class="cls-2" cx="153.12" cy="84.56" r="6.5"/>
  <circle class="cls-2" cx="171.12" cy="84.56" r="6.5"/>
  <circle class="cls-2" cx="189.12" cy="84.56" r="6.5"/>
  <circle class="cls-2" cx="207.12" cy="84.56" r="6.5"/>
  <circle class="cls-2" cx="225.12" cy="84.56" r="6.5"/>
  <circle class="cls-2" cx="243.12" cy="84.56" r="6.5"/>
  <circle class="cls-2" cx="261.12" cy="84.56" r="6.5"/>
  <circle class="cls-2" cx="279.12" cy="84.56" r="6.5"/>
  <circle class="cls-2" cx="297.12" cy="84.56" r="6.5"/>
  <circle class="cls-2" cx="315.12" cy="84.56" r="6.5"/>
  <circle class="cls-2" cx="333.12" cy="84.56" r="6.5"/>
  <circle class="cls-2" cx="351.12" cy="84.56" r="6.5"/>
  <circle class="cls-2" cx="369.12" cy="84.56" r="6.5"/>
  <circle class="cls-2" cx="387.12" cy="84.56" r="6.5"/>
  <circle class="cls-2" cx="405.12" cy="84.56" r="6.5"/>
  <circle class="cls-2" cx="423.12" cy="84.56" r="6.5"/>
  <circle class="cls-2" cx="441.12" cy="84.56" r="6.5"/>
  <circle class="cls-2" cx="117.12" cy="102.56" r="6.5"/>
  <circle class="cls-2" cx="135.12" cy="102.56" r="6.5"/>
  <circle class="cls-2" cx="153.12" cy="102.56" r="6.5"/>
  <circle class="cls-2" cx="171.12" cy="102.56" r="6.5"/>
  <circle class="cls-2" cx="189.12" cy="102.56" r="6.5"/>
  <circle class="cls-2" cx="207.12" cy="102.56" r="6.5"/>
  <circle class="cls-2" cx="225.12" cy="102.56" r="6.5"/>
  <circle class="cls-2" cx="243.12" cy="102.56" r="6.5"/>
  <circle class="cls-2" cx="261.12" cy="102.56" r="6.5"/>
  <circle class="cls-2" cx="279.12" cy="102.56" r="6.5"/>
  <circle class="cls-2" cx="297.12" cy="102.56" r="6.5"/>
  <circle class="cls-2" cx="315.12" cy="102.56" r="6.5"/>
  <circle class="cls-2" cx="333.12" cy="102.56" r="6.5"/>
  <circle class="cls-2" cx="351.12" cy="102.56" r="6.5"/>
  <circle class="cls-2" cx="369.12" cy="102.56" r="6.5"/>
  <circle class="cls-2" cx="387.12" cy="102.56" r="6.5"/>
  <circle class="cls-2" cx="405.12" cy="102.56" r="6.5"/>
  <circle class="cls-2" cx="423.12" cy="102.56" r="6.5"/>
  <circle class="cls-2" cx="441.12" cy="102.56" r="6.5"/>
  <circle class="cls-2" cx="459.12" cy="102.56" r="6.5"/>
  <circle class="cls-2" cx="477.12" cy="102.56" r="6.5"/>
  <circle class="cls-2" cx="495.12" cy="102.56" r="6.5"/>
  <circle class="cls-2" cx="261.12" cy="318.54" r="6.5"/>
  <circle class="cls-2" cx="279.12" cy="318.54" r="6.5"/>
  <circle class="cls-2" cx="297.12" cy="318.54" r="6.5"/>
  <circle class="cls-2" cx="315.12" cy="318.54" r="6.5"/>
  <circle class="cls-2" cx="333.12" cy="318.54" r="6.5"/>
  <circle class="cls-2" cx="351.12" cy="318.54" r="6.5"/>
  <circle class="cls-2" cx="369.12" cy="318.54" r="6.5"/>
  <circle class="cls-2" cx="387.12" cy="318.54" r="6.5"/>
  <circle class="cls-2" cx="405.12" cy="318.54" r="6.5"/>
  <circle class="cls-2" cx="423.12" cy="318.54" r="6.5"/>
  <circle class="cls-2" cx="441.12" cy="318.54" r="6.5"/>
  <circle class="cls-2" cx="459.12" cy="318.54" r="6.5"/>
  <circle class="cls-2" cx="477.12" cy="318.54" r="6.5"/>
  <circle class="cls-2" cx="495.12" cy="318.54" r="6.5"/>
  <circle class="cls-2" cx="81.12" cy="120.56" r="6.5"/>
  <circle class="cls-2" cx="99.12" cy="120.56" r="6.5"/>
  <circle class="cls-2" cx="117.12" cy="120.56" r="6.5"/>
  <circle class="cls-2" cx="657.13" cy="120.56" r="6.5"/>
  <circle class="cls-2" cx="675.13" cy="120.56" r="6.5"/>
  <circle class="cls-2" cx="639.13" cy="120.56" r="6.5"/>
  <circle class="cls-2" cx="135.12" cy="120.56" r="6.5"/>
  <circle class="cls-2" cx="153.12" cy="120.56" r="6.5"/>
  <circle class="cls-2" cx="171.12" cy="120.56" r="6.5"/>
  <circle class="cls-2" cx="189.12" cy="120.56" r="6.5"/>
  <circle class="cls-2" cx="207.12" cy="120.56" r="6.5"/>
  <circle class="cls-2" cx="225.12" cy="120.56" r="6.5"/>
  <circle class="cls-2" cx="243.12" cy="120.56" r="6.5"/>
  <circle class="cls-2" cx="261.12" cy="120.56" r="6.5"/>
  <circle class="cls-2" cx="279.12" cy="120.56" r="6.5"/>
  <circle class="cls-2" cx="297.12" cy="120.56" r="6.5"/>
  <circle class="cls-2" cx="315.12" cy="120.56" r="6.5"/>
  <circle class="cls-2" cx="333.12" cy="120.56" r="6.5"/>
  <circle class="cls-2" cx="351.12" cy="120.56" r="6.5"/>
  <circle class="cls-2" cx="369.12" cy="120.56" r="6.5"/>
  <circle class="cls-2" cx="387.12" cy="120.56" r="6.5"/>
  <circle class="cls-2" cx="405.12" cy="120.56" r="6.5"/>
  <circle class="cls-2" cx="423.12" cy="120.56" r="6.5"/>
  <circle class="cls-2" cx="441.12" cy="120.56" r="6.5"/>
  <circle class="cls-2" cx="459.12" cy="120.56" r="6.5"/>
  <circle class="cls-2" cx="477.12" cy="120.56" r="6.5"/>
  <circle class="cls-2" cx="495.12" cy="120.56" r="6.5"/>
  <circle class="cls-2" cx="513.12" cy="120.56" r="6.5"/>
  <circle class="cls-2" cx="81.12" cy="138.56" r="6.5"/>
  <circle class="cls-2" cx="99.12" cy="138.56" r="6.5"/>
  <circle class="cls-2" cx="117.12" cy="138.56" r="6.5"/>
  <circle class="cls-2" cx="585.12" cy="138.56" r="6.5"/>
  <circle class="cls-2" cx="603.12" cy="138.56" r="6.5"/>
  <circle class="cls-2" cx="621.13" cy="138.56" r="6.5"/>
  <circle class="cls-2" cx="657.13" cy="138.56" r="6.5"/>
  <circle class="cls-2" cx="675.13" cy="138.56" r="6.5"/>
  <circle class="cls-2" cx="639.13" cy="138.56" r="6.5"/>
  <circle class="cls-2" cx="135.12" cy="138.56" r="6.5"/>
  <circle class="cls-2" cx="153.12" cy="138.56" r="6.5"/>
  <circle class="cls-2" cx="171.12" cy="138.56" r="6.5"/>
  <circle class="cls-2" cx="189.12" cy="138.56" r="6.5"/>
  <circle class="cls-2" cx="207.12" cy="138.56" r="6.5"/>
  <circle class="cls-2" cx="225.12" cy="138.56" r="6.5"/>
  <circle class="cls-2" cx="243.12" cy="138.56" r="6.5"/>
  <circle class="cls-2" cx="261.12" cy="138.56" r="6.5"/>
  <circle class="cls-2" cx="279.12" cy="138.56" r="6.5"/>
  <circle class="cls-2" cx="297.12" cy="138.56" r="6.5"/>
  <circle class="cls-2" cx="315.12" cy="138.56" r="6.5"/>
  <circle class="cls-2" cx="333.12" cy="138.56" r="6.5"/>
  <circle class="cls-2" cx="351.12" cy="138.56" r="6.5"/>
  <circle class="cls-2" cx="369.12" cy="138.56" r="6.5"/>
  <circle class="cls-2" cx="387.12" cy="138.56" r="6.5"/>
  <circle class="cls-2" cx="405.12" cy="138.56" r="6.5"/>
  <circle class="cls-2" cx="423.12" cy="138.56" r="6.5"/>
  <circle class="cls-2" cx="441.12" cy="138.56" r="6.5"/>
  <circle class="cls-2" cx="459.12" cy="138.56" r="6.5"/>
  <circle class="cls-2" cx="477.12" cy="138.56" r="6.5"/>
  <circle class="cls-2" cx="495.12" cy="138.56" r="6.5"/>
  <circle class="cls-2" cx="513.12" cy="138.56" r="6.5"/>
  <circle class="cls-2" cx="171.12" cy="300.54" r="6.5"/>
  <circle class="cls-2" cx="189.12" cy="300.54" r="6.5"/>
  <circle class="cls-2" cx="207.12" cy="300.54" r="6.5"/>
  <circle class="cls-2" cx="225.12" cy="300.54" r="6.5"/>
  <circle class="cls-2" cx="243.12" cy="300.54" r="6.5"/>
  <circle class="cls-2" cx="261.12" cy="300.54" r="6.5"/>
  <circle class="cls-2" cx="279.12" cy="300.54" r="6.5"/>
  <circle class="cls-2" cx="297.12" cy="300.54" r="6.5"/>
  <circle class="cls-2" cx="315.12" cy="300.54" r="6.5"/>
  <circle class="cls-2" cx="333.12" cy="300.54" r="6.5"/>
  <circle class="cls-2" cx="351.12" cy="300.54" r="6.5"/>
  <circle class="cls-2" cx="369.12" cy="300.54" r="6.5"/>
  <circle class="cls-2" cx="387.12" cy="300.54" r="6.5"/>
  <circle class="cls-2" cx="405.12" cy="300.54" r="6.5"/>
  <circle class="cls-2" cx="423.12" cy="300.54" r="6.5"/>
  <circle class="cls-2" cx="441.12" cy="300.54" r="6.5"/>
  <circle class="cls-2" cx="459.12" cy="300.54" r="6.5"/>
  <circle class="cls-2" cx="477.12" cy="300.54" r="6.5"/>
  <circle class="cls-2" cx="495.12" cy="300.54" r="6.5"/>
  <circle class="cls-2" cx="513.12" cy="300.54" r="6.5"/>
  <circle class="cls-2" cx="297.12" cy="336.54" r="6.5"/>
  <circle class="cls-2" cx="315.12" cy="336.54" r="6.5"/>
  <circle class="cls-2" cx="333.12" cy="336.54" r="6.5"/>
  <circle class="cls-2" cx="351.12" cy="336.54" r="6.5"/>
  <circle class="cls-2" cx="405.12" cy="336.54" r="6.5"/>
  <circle class="cls-2" cx="423.12" cy="336.54" r="6.5"/>
  <circle class="cls-2" cx="477.12" cy="336.54" r="6.5"/>
  <circle class="cls-2" cx="495.12" cy="336.54" r="6.5"/>
  <circle class="cls-2" cx="513.12" cy="336.54" r="6.5"/>
  <circle class="cls-2" cx="315.12" cy="354.54" r="6.5"/>
  <circle class="cls-2" cx="333.12" cy="354.54" r="6.5"/>
  <circle class="cls-2" cx="477.12" cy="354.54" r="6.5"/>
  <circle class="cls-2" cx="495.12" cy="354.54" r="6.5"/>
  <circle class="cls-2" cx="513.12" cy="354.54" r="6.5"/>
  <circle class="cls-2" cx="495.12" cy="372.54" r="6.5"/>
  <circle class="cls-2" cx="513.12" cy="372.54" r="6.5"/>
  <circle class="cls-2" cx="135.12" cy="282.55" r="6.5"/>
  <circle class="cls-2" cx="153.12" cy="282.55" r="6.5"/>
  <circle class="cls-2" cx="171.12" cy="282.55" r="6.5"/>
  <circle class="cls-2" cx="189.12" cy="282.55" r="6.5"/>
  <circle class="cls-2" cx="207.12" cy="282.55" r="6.5"/>
  <circle class="cls-2" cx="225.12" cy="282.55" r="6.5"/>
  <circle class="cls-2" cx="243.12" cy="282.55" r="6.5"/>
  <circle class="cls-2" cx="261.12" cy="282.55" r="6.5"/>
  <circle class="cls-2" cx="279.12" cy="282.55" r="6.5"/>
  <circle class="cls-2" cx="297.12" cy="282.55" r="6.5"/>
  <circle class="cls-2" cx="315.12" cy="282.55" r="6.5"/>
  <circle class="cls-2" cx="333.12" cy="282.55" r="6.5"/>
  <circle class="cls-2" cx="351.12" cy="282.55" r="6.5"/>
  <circle class="cls-2" cx="369.12" cy="282.55" r="6.5"/>
  <circle class="cls-2" cx="387.12" cy="282.55" r="6.5"/>
  <circle class="cls-2" cx="405.12" cy="282.55" r="6.5"/>
  <circle class="cls-2" cx="423.12" cy="282.55" r="6.5"/>
  <circle class="cls-2" cx="441.12" cy="282.55" r="6.5"/>
  <circle class="cls-2" cx="459.12" cy="282.55" r="6.5"/>
  <circle class="cls-2" cx="477.12" cy="282.55" r="6.5"/>
  <circle class="cls-2" cx="495.12" cy="282.55" r="6.5"/>
  <circle class="cls-2" cx="513.12" cy="282.55" r="6.5"/>
  <circle class="cls-2" cx="531.12" cy="282.55" r="6.5"/>
  <circle class="cls-2" cx="549.12" cy="282.55" r="6.5"/>
  <circle class="cls-2" cx="81.12" cy="174.55" r="6.5"/>
  <circle class="cls-2" cx="99.12" cy="174.55" r="6.5"/>
  <circle class="cls-2" cx="117.12" cy="174.55" r="6.5"/>
  <circle class="cls-2" cx="585.12" cy="174.55" r="6.5"/>
  <circle class="cls-2" cx="603.12" cy="174.55" r="6.5"/>
  <circle class="cls-2" cx="621.13" cy="174.55" r="6.5"/>
  <circle class="cls-2" cx="639.13" cy="174.55" r="6.5"/>
  <circle class="cls-2" cx="135.12" cy="174.55" r="6.5"/>
  <circle class="cls-2" cx="153.12" cy="174.55" r="6.5"/>
  <circle class="cls-2" cx="171.12" cy="174.55" r="6.5"/>
  <circle class="cls-2" cx="189.12" cy="174.55" r="6.5"/>
  <circle class="cls-2" cx="207.12" cy="174.55" r="6.5"/>
  <circle class="cls-2" cx="225.12" cy="174.55" r="6.5"/>
  <circle class="cls-2" cx="243.12" cy="174.55" r="6.5"/>
  <circle class="cls-2" cx="261.12" cy="174.55" r="6.5"/>
  <circle class="cls-2" cx="279.12" cy="174.55" r="6.5"/>
  <circle class="cls-2" cx="297.12" cy="174.55" r="6.5"/>
  <circle class="cls-2" cx="315.12" cy="174.55" r="6.5"/>
  <circle class="cls-2" cx="333.12" cy="174.55" r="6.5"/>
  <circle class="cls-2" cx="351.12" cy="174.55" r="6.5"/>
  <circle class="cls-2" cx="369.12" cy="174.55" r="6.5"/>
  <circle class="cls-2" cx="387.12" cy="174.55" r="6.5"/>
  <circle class="cls-2" cx="405.12" cy="174.55" r="6.5"/>
  <circle class="cls-2" cx="423.12" cy="174.55" r="6.5"/>
  <circle class="cls-2" cx="441.12" cy="174.55" r="6.5"/>
  <circle class="cls-2" cx="459.12" cy="174.55" r="6.5"/>
  <circle class="cls-2" cx="477.12" cy="174.55" r="6.5"/>
  <circle class="cls-2" cx="495.12" cy="174.55" r="6.5"/>
  <circle class="cls-2" cx="513.12" cy="174.55" r="6.5"/>
  <circle class="cls-2" cx="531.12" cy="174.55" r="6.5"/>
  <circle class="cls-2" cx="549.12" cy="174.55" r="6.5"/>
  <circle class="cls-2" cx="567.12" cy="174.55" r="6.5"/>
  <circle class="cls-2" cx="81.12" cy="156.55" r="6.5"/>
  <circle class="cls-2" cx="99.12" cy="156.55" r="6.5"/>
  <circle class="cls-2" cx="117.12" cy="156.55" r="6.5"/>
  <circle class="cls-2" cx="585.12" cy="156.55" r="6.5"/>
  <circle class="cls-2" cx="603.12" cy="156.55" r="6.5"/>
  <circle class="cls-2" cx="621.13" cy="156.55" r="6.5"/>
  <circle class="cls-2" cx="657.13" cy="156.55" r="6.5"/>
  <circle class="cls-2" cx="675.13" cy="156.55" r="6.5"/>
  <circle class="cls-2" cx="639.13" cy="156.55" r="6.5"/>
  <circle class="cls-2" cx="135.12" cy="156.55" r="6.5"/>
  <circle class="cls-2" cx="153.12" cy="156.55" r="6.5"/>
  <circle class="cls-2" cx="171.12" cy="156.55" r="6.5"/>
  <circle class="cls-2" cx="189.12" cy="156.55" r="6.5"/>
  <circle class="cls-2" cx="207.12" cy="156.55" r="6.5"/>
  <circle class="cls-2" cx="225.12" cy="156.55" r="6.5"/>
  <circle class="cls-2" cx="243.12" cy="156.55" r="6.5"/>
  <circle class="cls-2" cx="261.12" cy="156.55" r="6.5"/>
  <circle class="cls-2" cx="279.12" cy="156.55" r="6.5"/>
  <circle class="cls-2" cx="297.12" cy="156.55" r="6.5"/>
  <circle class="cls-2" cx="315.12" cy="156.55" r="6.5"/>
  <circle class="cls-2" cx="333.12" cy="156.55" r="6.5"/>
  <circle class="cls-2" cx="351.12" cy="156.55" r="6.5"/>
  <circle class="cls-2" cx="369.12" cy="156.55" r="6.5"/>
  <circle class="cls-2" cx="387.12" cy="156.55" r="6.5"/>
  <circle class="cls-2" cx="405.12" cy="156.55" r="6.5"/>
  <circle class="cls-2" cx="423.12" cy="156.55" r="6.5"/>
  <circle class="cls-2" cx="441.12" cy="156.55" r="6.5"/>
  <circle class="cls-2" cx="459.12" cy="156.55" r="6.5"/>
  <circle class="cls-2" cx="477.12" cy="156.55" r="6.5"/>
  <circle class="cls-2" cx="495.12" cy="156.55" r="6.5"/>
  <circle class="cls-2" cx="513.12" cy="156.55" r="6.5"/>
  <circle class="cls-2" cx="549.12" cy="156.55" r="6.5"/>
  <circle class="cls-2" cx="567.12" cy="156.55" r="6.5"/>
  <circle class="cls-2" cx="81.12" cy="192.55" r="6.5"/>
  <circle class="cls-2" cx="99.12" cy="192.55" r="6.5"/>
  <circle class="cls-2" cx="117.12" cy="192.55" r="6.5"/>
  <circle class="cls-2" cx="585.12" cy="192.55" r="6.5"/>
  <circle class="cls-2" cx="603.12" cy="192.55" r="6.5"/>
  <circle class="cls-2" cx="621.13" cy="192.55" r="6.5"/>
  <circle class="cls-2" cx="639.13" cy="192.55" r="6.5"/>
  <circle class="cls-2" cx="135.12" cy="192.55" r="6.5"/>
  <circle class="cls-2" cx="153.12" cy="192.55" r="6.5"/>
  <circle class="cls-2" cx="171.12" cy="192.55" r="6.5"/>
  <circle class="cls-2" cx="189.12" cy="192.55" r="6.5"/>
  <circle class="cls-2" cx="207.12" cy="192.55" r="6.5"/>
  <circle class="cls-2" cx="225.12" cy="192.55" r="6.5"/>
  <circle class="cls-2" cx="243.12" cy="192.55" r="6.5"/>
  <circle class="cls-2" cx="261.12" cy="192.55" r="6.5"/>
  <circle class="cls-2" cx="279.12" cy="192.55" r="6.5"/>
  <circle class="cls-2" cx="297.12" cy="192.55" r="6.5"/>
  <circle class="cls-2" cx="315.12" cy="192.55" r="6.5"/>
  <circle class="cls-2" cx="333.12" cy="192.55" r="6.5"/>
  <circle class="cls-2" cx="351.12" cy="192.55" r="6.5"/>
  <circle class="cls-2" cx="369.12" cy="192.55" r="6.5"/>
  <circle class="cls-2" cx="387.12" cy="192.55" r="6.5"/>
  <circle class="cls-2" cx="405.12" cy="192.55" r="6.5"/>
  <circle class="cls-2" cx="423.12" cy="192.55" r="6.5"/>
  <circle class="cls-2" cx="441.12" cy="192.55" r="6.5"/>
  <circle class="cls-2" cx="459.12" cy="192.55" r="6.5"/>
  <circle class="cls-2" cx="477.12" cy="192.55" r="6.5"/>
  <circle class="cls-2" cx="495.12" cy="192.55" r="6.5"/>
  <circle class="cls-2" cx="513.12" cy="192.55" r="6.5"/>
  <circle class="cls-2" cx="531.12" cy="192.55" r="6.5"/>
  <circle class="cls-2" cx="549.12" cy="192.55" r="6.5"/>
  <circle class="cls-2" cx="567.12" cy="192.55" r="6.5"/>
  <circle class="cls-2" cx="81.12" cy="228.55" r="6.5"/>
  <circle class="cls-2" cx="99.12" cy="228.55" r="6.5"/>
  <circle class="cls-2" cx="117.12" cy="228.55" r="6.5"/>
  <circle class="cls-2" cx="585.12" cy="228.55" r="6.5"/>
  <circle class="cls-2" cx="135.12" cy="228.55" r="6.5"/>
  <circle class="cls-2" cx="153.12" cy="228.55" r="6.5"/>
  <circle class="cls-2" cx="171.12" cy="228.55" r="6.5"/>
  <circle class="cls-2" cx="189.12" cy="228.55" r="6.5"/>
  <circle class="cls-2" cx="207.12" cy="228.55" r="6.5"/>
  <circle class="cls-2" cx="225.12" cy="228.55" r="6.5"/>
  <circle class="cls-2" cx="243.12" cy="228.55" r="6.5"/>
  <circle class="cls-2" cx="261.12" cy="228.55" r="6.5"/>
  <circle class="cls-2" cx="279.12" cy="228.55" r="6.5"/>
  <circle class="cls-2" cx="297.12" cy="228.55" r="6.5"/>
  <circle class="cls-2" cx="315.12" cy="228.55" r="6.5"/>
  <circle class="cls-2" cx="333.12" cy="228.55" r="6.5"/>
  <circle class="cls-2" cx="351.12" cy="228.55" r="6.5"/>
  <circle class="cls-2" cx="369.12" cy="228.55" r="6.5"/>
  <circle class="cls-2" cx="387.12" cy="228.55" r="6.5"/>
  <circle class="cls-2" cx="405.12" cy="228.55" r="6.5"/>
  <circle class="cls-2" cx="423.12" cy="228.55" r="6.5"/>
  <circle class="cls-2" cx="441.12" cy="228.55" r="6.5"/>
  <circle class="cls-2" cx="459.12" cy="228.55" r="6.5"/>
  <circle class="cls-2" cx="477.12" cy="228.55" r="6.5"/>
  <circle class="cls-2" cx="495.12" cy="228.55" r="6.5"/>
  <circle class="cls-2" cx="513.12" cy="228.55" r="6.5"/>
  <circle class="cls-2" cx="531.12" cy="228.55" r="6.5"/>
  <circle class="cls-2" cx="549.12" cy="228.55" r="6.5"/>
  <circle class="cls-2" cx="567.12" cy="228.55" r="6.5"/>
  <circle class="cls-2" cx="81.12" cy="246.55" r="6.5"/>
  <circle class="cls-2" cx="99.12" cy="246.55" r="6.5"/>
  <circle class="cls-2" cx="117.12" cy="246.55" r="6.5"/>
  <circle class="cls-2" cx="135.12" cy="246.55" r="6.5"/>
  <circle class="cls-2" cx="153.12" cy="246.55" r="6.5"/>
  <circle class="cls-2" cx="171.12" cy="246.55" r="6.5"/>
  <circle class="cls-2" cx="189.12" cy="246.55" r="6.5"/>
  <circle class="cls-2" cx="207.12" cy="246.55" r="6.5"/>
  <circle class="cls-2" cx="225.12" cy="246.55" r="6.5"/>
  <circle class="cls-2" cx="243.12" cy="246.55" r="6.5"/>
  <circle class="cls-2" cx="261.12" cy="246.55" r="6.5"/>
  <circle class="cls-2" cx="279.12" cy="246.55" r="6.5"/>
  <circle class="cls-2" cx="297.12" cy="246.55" r="6.5"/>
  <circle class="cls-2" cx="315.12" cy="246.55" r="6.5"/>
  <circle class="cls-2" cx="333.12" cy="246.55" r="6.5"/>
  <circle class="cls-2" cx="351.12" cy="246.55" r="6.5"/>
  <circle class="cls-2" cx="369.12" cy="246.55" r="6.5"/>
  <circle class="cls-2" cx="387.12" cy="246.55" r="6.5"/>
  <circle class="cls-2" cx="405.12" cy="246.55" r="6.5"/>
  <circle class="cls-2" cx="423.12" cy="246.55" r="6.5"/>
  <circle class="cls-2" cx="441.12" cy="246.55" r="6.5"/>
  <circle class="cls-2" cx="459.12" cy="246.55" r="6.5"/>
  <circle class="cls-2" cx="477.12" cy="246.55" r="6.5"/>
  <circle class="cls-2" cx="495.12" cy="246.55" r="6.5"/>
  <circle class="cls-2" cx="513.12" cy="246.55" r="6.5"/>
  <circle class="cls-2" cx="531.12" cy="246.55" r="6.5"/>
  <circle class="cls-2" cx="549.12" cy="246.55" r="6.5"/>
  <circle class="cls-2" cx="567.12" cy="246.55" r="6.5"/>
  <circle class="cls-2" cx="117.12" cy="264.55" r="6.5"/>
  <circle class="cls-2" cx="135.12" cy="264.55" r="6.5"/>
  <circle class="cls-2" cx="153.12" cy="264.55" r="6.5"/>
  <circle class="cls-2" cx="171.12" cy="264.55" r="6.5"/>
  <circle class="cls-2" cx="189.12" cy="264.55" r="6.5"/>
  <circle class="cls-2" cx="207.12" cy="264.55" r="6.5"/>
  <circle class="cls-2" cx="225.12" cy="264.55" r="6.5"/>
  <circle class="cls-2" cx="243.12" cy="264.55" r="6.5"/>
  <circle class="cls-2" cx="261.12" cy="264.55" r="6.5"/>
  <circle class="cls-2" cx="279.12" cy="264.55" r="6.5"/>
  <circle class="cls-2" cx="297.12" cy="264.55" r="6.5"/>
  <circle class="cls-2" cx="315.12" cy="264.55" r="6.5"/>
  <circle class="cls-2" cx="333.12" cy="264.55" r="6.5"/>
  <circle class="cls-2" cx="351.12" cy="264.55" r="6.5"/>
  <circle class="cls-2" cx="369.12" cy="264.55" r="6.5"/>
  <circle class="cls-2" cx="387.12" cy="264.55" r="6.5"/>
  <circle class="cls-2" cx="405.12" cy="264.55" r="6.5"/>
  <circle class="cls-2" cx="423.12" cy="264.55" r="6.5"/>
  <circle class="cls-2" cx="441.12" cy="264.55" r="6.5"/>
  <circle class="cls-2" cx="459.12" cy="264.55" r="6.5"/>
  <circle class="cls-2" cx="477.12" cy="264.55" r="6.5"/>
  <circle class="cls-2" cx="495.12" cy="264.55" r="6.5"/>
  <circle class="cls-2" cx="513.12" cy="264.55" r="6.5"/>
  <circle class="cls-2" cx="531.12" cy="264.55" r="6.5"/>
  <circle class="cls-2" cx="549.12" cy="264.55" r="6.5"/>
  <circle class="cls-2" cx="567.12" cy="264.55" r="6.5"/>
  <circle class="cls-2" cx="81.12" cy="210.55" r="6.5"/>
  <circle class="cls-2" cx="99.12" cy="210.55" r="6.5"/>
  <circle class="cls-2" cx="117.12" cy="210.55" r="6.5"/>
  <circle class="cls-2" cx="585.12" cy="210.55" r="6.5"/>
  <circle class="cls-2" cx="135.12" cy="210.55" r="6.5"/>
  <circle class="cls-2" cx="153.12" cy="210.55" r="6.5"/>
  <circle class="cls-2" cx="171.12" cy="210.55" r="6.5"/>
  <circle class="cls-2" cx="189.12" cy="210.55" r="6.5"/>
  <circle class="cls-2" cx="207.12" cy="210.55" r="6.5"/>
  <circle class="cls-2" cx="225.12" cy="210.55" r="6.5"/>
  <circle class="cls-2" cx="243.12" cy="210.55" r="6.5"/>
  <circle class="cls-2" cx="261.12" cy="210.55" r="6.5"/>
  <circle class="cls-2" cx="279.12" cy="210.55" r="6.5"/>
  <circle class="cls-2" cx="297.12" cy="210.55" r="6.5"/>
  <circle class="cls-2" cx="315.12" cy="210.55" r="6.5"/>
  <circle class="cls-2" cx="333.12" cy="210.55" r="6.5"/>
  <circle class="cls-2" cx="351.12" cy="210.55" r="6.5"/>
  <circle class="cls-2" cx="369.12" cy="210.55" r="6.5"/>
  <circle class="cls-2" cx="387.12" cy="210.55" r="6.5"/>
  <circle class="cls-2" cx="405.12" cy="210.55" r="6.5"/>
  <circle class="cls-2" cx="423.12" cy="210.55" r="6.5"/>
  <circle class="cls-2" cx="441.12" cy="210.55" r="6.5"/>
  <circle class="cls-2" cx="459.12" cy="210.55" r="6.5"/>
  <circle class="cls-2" cx="477.12" cy="210.55" r="6.5"/>
  <circle class="cls-2" cx="495.12" cy="210.55" r="6.5"/>
  <circle class="cls-2" cx="513.12" cy="210.55" r="6.5"/>
  <circle class="cls-2" cx="531.12" cy="210.55" r="6.5"/>
  <circle class="cls-2" cx="549.12" cy="210.55" r="6.5"/>
  <circle class="cls-1" cx="567.12" cy="210.55" r="6.5"/>
</svg>