<?xml version="1.0" encoding="UTF-8"?>
<svg id="Layer_1" data-name="Layer 1" xmlns="http://www.w3.org/2000/svg" xmlns:xlink="http://www.w3.org/1999/xlink" viewBox="0 0 116 48">
  <defs>
    <style>
      .cls-1 {
        fill: none;
      }

      .cls-2 {
        fill: url(#linear-gradient);
      }

      .cls-3 {
        clip-path: url(#clippath);
      }

      .cls-4 {
        mask: url(#mask);
      }

      .cls-5 {
        fill: #005e29;
      }

      .cls-6 {
        fill: #03602a;
      }

      .cls-7 {
        fill: #fff;
      }

      .cls-8 {
        fill: #99a9b2;
      }

      .cls-9 {
        fill: #b5b7b9;
      }

      .cls-10 {
        fill: #8fa4ad;
      }

      .cls-11 {
        fill: #c4ced3;
      }

      .cls-12 {
        fill: #548031;
      }

      .cls-13 {
        fill: #9a9c9f;
      }

      .cls-14 {
        fill: #607e86;
      }

      .cls-15 {
        fill: #51802e;
      }

      .cls-16 {
        clip-path: url(#clippath-1);
      }

      .cls-17 {
        clip-path: url(#clippath-4);
      }

      .cls-18 {
        clip-path: url(#clippath-3);
      }

      .cls-19 {
        clip-path: url(#clippath-2);
      }

      .cls-20 {
        clip-path: url(#clippath-7);
      }

      .cls-21 {
        clip-path: url(#clippath-8);
      }

      .cls-22 {
        clip-path: url(#clippath-6);
      }

      .cls-23 {
        clip-path: url(#clippath-5);
      }

      .cls-24 {
        clip-path: url(#clippath-9);
      }

      .cls-25 {
        clip-path: url(#clippath-24);
      }

      .cls-26 {
        clip-path: url(#clippath-23);
      }

      .cls-27 {
        clip-path: url(#clippath-40);
      }

      .cls-28 {
        clip-path: url(#clippath-41);
      }

      .cls-29 {
        clip-path: url(#clippath-47);
      }

      .cls-30 {
        clip-path: url(#clippath-46);
      }

      .cls-31 {
        clip-path: url(#clippath-28);
      }

      .cls-32 {
        clip-path: url(#clippath-26);
      }

      .cls-33 {
        clip-path: url(#clippath-29);
      }

      .cls-34 {
        clip-path: url(#clippath-34);
      }

      .cls-35 {
        clip-path: url(#clippath-35);
      }

      .cls-36 {
        clip-path: url(#clippath-32);
      }

      .cls-37 {
        clip-path: url(#clippath-30);
      }

      .cls-38 {
        clip-path: url(#clippath-31);
      }

      .cls-39 {
        clip-path: url(#clippath-53);
      }

      .cls-40 {
        clip-path: url(#clippath-54);
      }

      .cls-41 {
        clip-path: url(#clippath-52);
      }

      .cls-42 {
        clip-path: url(#clippath-14);
      }

      .cls-43 {
        clip-path: url(#clippath-13);
      }

      .cls-44 {
        clip-path: url(#clippath-12);
      }

      .cls-45 {
        clip-path: url(#clippath-10);
      }

      .cls-46 {
        clip-path: url(#clippath-17);
      }

      .cls-47 {
        clip-path: url(#clippath-11);
      }

      .cls-48 {
        clip-path: url(#clippath-18);
      }

      .cls-49 {
        fill: url(#linear-gradient-3);
      }

      .cls-50 {
        fill: url(#linear-gradient-4);
      }

      .cls-51 {
        fill: url(#linear-gradient-2);
      }

      .cls-52 {
        isolation: isolate;
      }

      .cls-53 {
        mask: url(#mask-2);
      }

      .cls-54 {
        mask: url(#mask-1);
      }
    </style>
    <clipPath id="clippath">
      <path class="cls-1" d="m19.05,40.25l2.12,1.19c15.4-11.14,12.71-29.48,12.15-32.46l-2.13-1.19c.56,2.98,3.25,21.32-12.15,32.46"/>
    </clipPath>
    <clipPath id="clippath-1">
      <path class="cls-1" d="m18.89,6.3c-.73,0-1.46.02-2.17.05.64.36,1.49.83,2.12,1.19,4.53-.22,9.4.27,14.49,1.45l-.25-.14c-.38-.21-.75-.42-1.13-.63-.25-.14-.5-.28-.75-.42-4.28-.99-8.41-1.5-12.31-1.5h0Z"/>
    </clipPath>
    <clipPath id="clippath-2">
      <path class="cls-14" d="m7.11,10.21c1.08-.55,5.07-2.33,11.74-2.67,4.53-.22,9.4.27,14.49,1.45.56,2.98,3.25,21.32-12.15,32.46-2.46-1.54-16.43-11.19-14.07-31.24m11.69-4.08c-8.22.41-12.51,2.92-12.69,3.02l-.3.18-.04.35c-2.95,23.11,14.91,33.14,15.09,33.24l.38.2.36-.25c17.95-12.61,13.07-34.43,13.02-34.65l-.1-.42-.41-.1c-4.53-1.09-8.91-1.64-13.05-1.64-.76,0-1.51.02-2.25.06"/>
    </clipPath>
    <clipPath id="clippath-3">
      <path class="cls-10" d="m18.84,7.54c-6.67.33-10.65,2.11-11.74,2.67-2.37,20.05,11.6,29.7,14.07,31.24,15.4-11.14,12.71-29.48,12.15-32.46-4.28-1-8.41-1.5-12.32-1.5-.73,0-1.46.02-2.17.05"/>
    </clipPath>
    <clipPath id="clippath-4">
      <path class="cls-10" d="m18.61,4.88c-.22,0-.43,0-.65,0-.11,0-.21,0-.32,0-.32,0-.64.02-.96.04-.28.02-.56.03-.84.05-.09,0-.18.02-.28.02-.18.01-.36.03-.53.04-.04,0-.09,0-.13.01-.14.01-.27.02-.4.04-.01,0-.02,0-.03,0-.21.02-.42.05-.63.07-.04,0-.08.01-.12.01-.19.02-.38.05-.57.07-.01,0-.03,0-.04,0-.19.03-.39.05-.58.08-.04,0-.08.01-.13.02-.17.03-.34.05-.51.08-.01,0-.03,0-.05,0-.18.03-.36.06-.53.09-.04,0-.09.01-.12.02-.16.03-.32.06-.47.09-.01,0-.03,0-.05.01-.17.03-.33.07-.48.1-.04,0-.08.02-.12.03-.14.03-.28.06-.42.1-.02,0-.03,0-.05.01-.15.04-.3.07-.44.11-.04,0-.08.02-.12.03-.13.03-.25.07-.37.1-.02,0-.04,0-.05.01,0,0,0,0,0,0-.13.04-.27.08-.4.11-.04.01-.08.02-.12.03-.1.03-.19.06-.29.09-.04.01-.07.02-.11.03-.12.04-.24.08-.36.12-.01,0-.03.01-.04.01-.1.03-.2.07-.3.1-.03.01-.07.02-.1.03-.09.03-.17.06-.25.09-.03,0-.05.02-.08.03-.1.04-.2.08-.3.11-.02,0-.04.02-.07.02-.08.03-.15.06-.22.09-.03.01-.06.02-.08.03-.07.03-.14.06-.21.09-.01,0-.03.01-.05.02-.08.03-.16.06-.23.1-.03.01-.05.02-.07.03-.05.02-.1.04-.15.07-.03.01-.05.02-.07.03-.06.03-.12.05-.17.08-.02,0-.04.02-.05.02-.04.02-.08.04-.11.05,0,0-.01,0-.02.01-.03.01-.06.03-.09.04-.03.01-.06.03-.08.04-.03.01-.05.03-.08.04-.03.01-.05.03-.07.04-.02,0-.04.02-.06.03-.02.01-.04.02-.06.03-.02.01-.04.02-.05.03-.02.01-.04.02-.06.03-.01,0-.03.01-.04.02-.02.01-.04.02-.05.03,0,0-.01,0-.02.01-.02,0-.03.02-.04.02,0,0,0,0,0,0-.01,0-.02.01-.03.02l-.3.18,2.12,1.19.3-.18s.09-.05.21-.12c0,0,.01,0,.02,0,.03-.01.05-.03.08-.04.01,0,.02-.01.04-.02.03-.01.05-.03.08-.04.02,0,.04-.02.06-.03.03-.01.05-.03.09-.04.03-.01.05-.02.08-.04.03-.01.05-.03.08-.04.05-.02.1-.05.15-.07,0,0,.02,0,.03-.01.06-.03.12-.06.18-.08.02,0,.05-.02.07-.03.05-.02.1-.04.15-.06.02-.01.05-.02.07-.03.08-.03.15-.06.23-.1.02,0,.04-.02.06-.03.06-.03.13-.05.19-.08.03-.01.06-.03.1-.04.06-.02.13-.05.2-.07.03-.01.06-.02.09-.03.09-.04.19-.07.29-.11.03-.01.07-.02.1-.04.07-.03.15-.05.22-.08.04-.01.08-.03.12-.04.09-.03.18-.06.27-.09.03-.01.05-.02.08-.03.12-.04.23-.07.35-.11.04-.01.09-.03.13-.04.09-.03.17-.05.27-.08.04-.01.09-.03.14-.04.13-.04.26-.07.39-.11.02,0,.04-.01.07-.02.12-.03.24-.06.36-.09.04-.01.09-.02.13-.04.14-.04.28-.07.42-.11.03,0,.05-.01.08-.02.13-.03.25-.06.39-.09.05-.01.1-.02.14-.03.15-.03.31-.07.47-.1.03,0,.06-.01.08-.01.14-.03.28-.06.43-.08.05-.01.1-.02.15-.03.17-.03.34-.06.51-.09.03,0,.05,0,.08-.01.15-.03.31-.05.47-.08.05,0,.1-.02.15-.02.18-.03.37-.05.55-.08.03,0,.06,0,.08,0,.17-.02.34-.04.51-.06.05,0,.11-.01.16-.02.19-.02.4-.04.6-.07.03,0,.06,0,.09,0,.16-.02.32-.03.48-.04.18-.02.36-.03.55-.04.09,0,.18-.01.27-.02.27-.02.55-.04.84-.05.32-.02.64-.03.96-.04.1,0,.21,0,.31,0,.22,0,.44,0,.66-.01.12,0,.25,0,.37,0,.2,0,.4,0,.61,0,.13,0,.27,0,.4,0,.2,0,.4,0,.6.02.14,0,.27,0,.41.01.2,0,.4.02.6.03.13,0,.27.01.4.02.21.01.42.03.63.04.13,0,.26.02.38.03.23.02.46.04.69.06.11.01.22.02.32.03.32.03.63.07.95.1.02,0,.05,0,.08,0,.08,0,.16.02.23.03.23.03.46.06.68.09.12.02.23.03.35.05.19.03.38.05.57.09.13.02.26.04.38.06.18.03.36.06.55.09.13.02.26.04.39.07.18.03.36.07.54.1.13.02.26.05.4.07.19.04.37.07.56.11.13.03.25.05.38.08.2.04.41.09.62.13.11.02.22.05.32.07.31.07.63.14.94.22l.41.1-2.12-1.19-.41-.1c-.32-.08-.63-.15-.95-.22-.1-.02-.2-.04-.31-.07-.21-.05-.43-.09-.63-.14-.12-.02-.24-.05-.37-.07-.19-.04-.38-.08-.58-.11-.13-.03-.25-.05-.38-.07-.19-.04-.37-.07-.55-.1-.13-.02-.26-.04-.38-.07-.19-.03-.37-.06-.56-.09-.12-.02-.24-.04-.37-.06-.2-.03-.4-.06-.6-.09-.11-.01-.21-.03-.32-.04-.27-.04-.54-.07-.81-.11-.03,0-.07,0-.1-.01,0,0-.01,0-.02,0-.06,0-.13-.01-.19-.02-.27-.03-.55-.06-.82-.09-.12-.01-.24-.02-.36-.03-.22-.02-.44-.04-.66-.06-.13-.01-.27-.02-.4-.03-.21-.01-.41-.03-.61-.04-.14,0-.28-.02-.41-.02-.2-.01-.4-.02-.59-.03-.14,0-.27-.01-.41-.02-.2,0-.4-.01-.59-.01-.13,0-.27,0-.4,0-.2,0-.4,0-.6,0-.09,0-.17,0-.25,0-.04,0-.09,0-.13,0"/>
    </clipPath>
    <clipPath id="clippath-5">
      <path class="cls-11" d="m20.86,42.92h0,0m0,0h0,0m0,0h0s0,0,0,0M3.64,8.49c-.22,1.7-.32,3.32-.33,4.88v.34c.09,19.4,15.26,27.92,15.42,28.01l2.12,1.19c-.45-.26-18.01-10.31-15.09-33.23l.04-.35-2.12-1.19-.04.35Z"/>
    </clipPath>
    <clipPath id="clippath-6">
      <polygon class="cls-14" points="22.01 13.95 20.33 23.2 21.11 25.77 24.07 13.95 22.01 13.95"/>
    </clipPath>
    <clipPath id="clippath-7">
      <rect class="cls-1" x="16.01" y="16.56" width="12.38" height="6.61" transform="translate(-2.62 36.33) rotate(-75.37)"/>
    </clipPath>
    <linearGradient id="linear-gradient" x1="-382" y1="244.82" x2="-380.14" y2="244.82" gradientTransform="translate(282.8 425.43) rotate(90) scale(1.06)" gradientUnits="userSpaceOnUse">
      <stop offset="0" stop-color="#231f20"/>
      <stop offset=".25" stop-color="#231f20"/>
      <stop offset=".53" stop-color="#888a8d"/>
      <stop offset=".79" stop-color="#d1d2d3"/>
      <stop offset="1" stop-color="#d1d2d3"/>
    </linearGradient>
    <mask id="mask" x="14.1" y="10.71" width="16.2" height="18.3" maskUnits="userSpaceOnUse">
      <g>
        <rect x="17.44" y="13.04" width="9.52" height="13.65"/>
        <g class="cls-52">
          <g class="cls-20">
            <rect class="cls-2" x="14.39" y="13.53" width="15.61" height="12.66" transform="translate(-2.62 36.32) rotate(-75.37)"/>
          </g>
        </g>
      </g>
    </mask>
    <clipPath id="clippath-8">
      <rect class="cls-14" x="17.44" y="13.04" width="9.52" height="13.65"/>
    </clipPath>
    <clipPath id="clippath-9">
      <rect class="cls-14" x="16.01" y="16.56" width="12.38" height="6.61" transform="translate(-2.62 36.33) rotate(-75.37)"/>
    </clipPath>
    <clipPath id="clippath-10">
      <polygon class="cls-14" points="9.86 14.52 16.09 31.87 18.33 31.87 12.04 14.4 9.86 14.52"/>
    </clipPath>
    <clipPath id="clippath-11">
      <rect class="cls-1" x="7.23" y="13.5" width="13.72" height="19.28" transform="translate(-6.8 5.89) rotate(-19.12)"/>
    </clipPath>
    <linearGradient id="linear-gradient-2" x1="-31.76" y1="580.68" x2="-29.91" y2="580.68" gradientTransform="translate(87.79 -1364.52) scale(2.39)" xlink:href="#linear-gradient"/>
    <mask id="mask-1" x="-2.57" y="5.82" width="33.34" height="34.64" maskUnits="userSpaceOnUse">
      <g>
        <rect x="4.45" y="11.78" width="19.28" height="22.71"/>
        <g class="cls-52">
          <g class="cls-47">
            <rect class="cls-51" x="1.27" y="9.25" width="25.65" height="27.77" transform="translate(-6.8 5.89) rotate(-19.12)"/>
          </g>
        </g>
      </g>
    </mask>
    <clipPath id="clippath-12">
      <rect class="cls-14" x="4.45" y="11.78" width="19.28" height="22.71"/>
    </clipPath>
    <clipPath id="clippath-13">
      <rect class="cls-14" x="7.23" y="13.5" width="13.72" height="19.28" transform="translate(-6.8 5.89) rotate(-19.12)"/>
    </clipPath>
    <clipPath id="clippath-14">
      <rect class="cls-1" x="12.04" y="12.74" width="17.58" height="20.12"/>
    </clipPath>
    <clipPath id="clippath-15">
      <rect class="cls-1" x="12.04" y="12.74" width="17.58" height="20.12"/>
    </clipPath>
    <clipPath id="clippath-17">
      <rect class="cls-1" x="12.04" y="13.79" width="17.58" height="19.07"/>
    </clipPath>
    <clipPath id="clippath-18">
      <rect class="cls-1" x="12.04" y="12.74" width="17.58" height="20.12"/>
    </clipPath>
    <clipPath id="clippath-19">
      <rect class="cls-1" x="12.04" y="12.74" width="17.58" height="20.12"/>
    </clipPath>
    <clipPath id="clippath-21">
      <rect class="cls-1" x="12.04" y="13.79" width="17.58" height="19.07"/>
    </clipPath>
    <clipPath id="clippath-23">
      <rect class="cls-1" x="20.63" y="27.9" width="1.37" height=".99"/>
    </clipPath>
    <clipPath id="clippath-24">
      <rect class="cls-1" x="20.63" y="27.9" width="1.37" height=".99"/>
    </clipPath>
    <clipPath id="clippath-26">
      <rect class="cls-1" x="12.04" y="13.79" width="17.58" height="19.07"/>
    </clipPath>
    <clipPath id="clippath-28">
      <rect class="cls-1" x="16.81" y="12.74" width="12.45" height="17.36"/>
    </clipPath>
    <clipPath id="clippath-29">
      <path class="cls-1" d="m22.08,21.59c-.53,2.04-1.01,4.16-1.38,6.3l1.3.99c.37-2.15.85-4.26,1.38-6.3l1.99-7.64-1.3-.99-1.99,7.64Z"/>
    </clipPath>
    <clipPath id="clippath-30">
      <rect class="cls-1" x="15.22" y="17.15" width="15.64" height="8.53" transform="translate(-3.82 37.79) rotate(-74.29)"/>
    </clipPath>
    <linearGradient id="linear-gradient-3" x1="-194.01" y1="952.71" x2="-192.16" y2="952.71" gradientTransform="translate(-1135.28 5739.96) rotate(-180) scale(6)" gradientUnits="userSpaceOnUse">
      <stop offset="0" stop-color="#e2e2e3"/>
      <stop offset="1" stop-color="#e8e9e9"/>
    </linearGradient>
    <mask id="mask-2" x="12.29" y="9.49" width="21.5" height="23.85" maskUnits="userSpaceOnUse">
      <g>
        <rect x="16.81" y="12.74" width="12.45" height="17.36"/>
        <g class="cls-52">
          <g class="cls-37">
            <rect class="cls-49" x="12.99" y="13.08" width="20.09" height="16.68" transform="translate(-3.82 37.8) rotate(-74.3)"/>
          </g>
        </g>
      </g>
    </mask>
    <clipPath id="clippath-31">
      <rect class="cls-1" x="16.81" y="12.74" width="12.45" height="17.36"/>
    </clipPath>
    <clipPath id="clippath-32">
      <rect class="cls-1" x="15.22" y="17.15" width="15.64" height="8.53" transform="translate(-3.82 37.79) rotate(-74.29)"/>
    </clipPath>
    <linearGradient id="linear-gradient-4" x1="-194.01" y1="952.71" x2="-192.16" y2="952.71" gradientTransform="translate(-1135.28 5739.96) rotate(-180) scale(6)" gradientUnits="userSpaceOnUse">
      <stop offset="0" stop-color="#fff"/>
      <stop offset="1" stop-color="#a1a0a1"/>
    </linearGradient>
    <clipPath id="clippath-34">
      <rect class="cls-1" x="24.07" y="13.79" width="5.54" height="1.15"/>
    </clipPath>
    <clipPath id="clippath-35">
      <rect class="cls-1" x="24.07" y="13.79" width="5.54" height="1.15"/>
    </clipPath>
    <clipPath id="clippath-37">
      <rect class="cls-1" x="12.04" y="13.79" width="17.58" height="19.07"/>
    </clipPath>
    <clipPath id="clippath-40">
      <rect class="cls-1" x="12.04" y="14.24" width="5.67" height="1.15"/>
    </clipPath>
    <clipPath id="clippath-41">
      <rect class="cls-1" x="12.04" y="14.24" width="5.67" height="1.15"/>
    </clipPath>
    <clipPath id="clippath-43">
      <rect class="cls-1" x="12.04" y="13.79" width="17.58" height="19.07"/>
    </clipPath>
    <clipPath id="clippath-46">
      <rect class="cls-1" x="12.04" y="14.41" width="7.58" height="18.45"/>
    </clipPath>
    <clipPath id="clippath-47">
      <rect class="cls-1" x="12.04" y="14.41" width="7.58" height="18.45"/>
    </clipPath>
    <clipPath id="clippath-49">
      <rect class="cls-1" x="12.04" y="13.79" width="17.58" height="19.07"/>
    </clipPath>
    <clipPath id="clippath-52">
      <rect class="cls-1" x="13.34" y="14.78" width="16.28" height="18.08"/>
    </clipPath>
    <clipPath id="clippath-53">
      <rect class="cls-1" x="13.34" y="14.78" width="16.28" height="18.08"/>
    </clipPath>
    <clipPath id="clippath-54">
      <rect class="cls-1" x="13.34" y="14.78" width="16.28" height="18.08"/>
    </clipPath>
    <clipPath id="clippath-56">
      <rect class="cls-1" x="12.04" y="13.79" width="17.58" height="19.07"/>
    </clipPath>
    <clipPath id="clippath-59">
      <rect class="cls-1" x="12.04" y="12.74" width="17.58" height="20.12"/>
    </clipPath>
    <clipPath id="clippath-62">
      <rect class="cls-1" x="12.04" y="12.74" width="17.58" height="20.12"/>
    </clipPath>
  </defs>
  <rect class="cls-8" x="23.47" y="28.11" width="89.22" height="8.74"/>
  <g class="cls-3">
    <path class="cls-6" d="m21.17,41.44l-2.12-1.19c.12-.09.24-.18.36-.27l2.12,1.19c-.12.09-.24.18-.36.27"/>
    <path class="cls-5" d="m21.54,41.18l-2.12-1.19c15-11.16,12.34-29.23,11.79-32.19l2.12,1.19c.55,2.96,3.21,21.03-11.79,32.19"/>
  </g>
  <g class="cls-16">
    <path class="cls-15" d="m18.84,7.54l-2.12-1.19c2.6-.13,5.32-.02,8.12.32l2.12,1.19c-2.8-.34-5.52-.44-8.12-.32"/>
    <path class="cls-12" d="m26.96,7.86l-2.12-1.19c2.08.25,4.2.63,6.36,1.13l2.12,1.19c-2.16-.5-4.29-.88-6.36-1.13"/>
  </g>
  <g>
    <path class="cls-14" d="m7.11,10.21c1.08-.55,5.07-2.33,11.74-2.67,4.53-.22,9.4.27,14.49,1.45.56,2.98,3.25,21.32-12.15,32.46-2.46-1.54-16.43-11.19-14.07-31.24m11.69-4.08c-8.22.41-12.51,2.92-12.69,3.02l-.3.18-.04.35c-2.95,23.11,14.91,33.14,15.09,33.24l.38.2.36-.25c17.95-12.61,13.07-34.43,13.02-34.65l-.1-.42-.41-.1c-4.53-1.09-8.91-1.64-13.05-1.64-.76,0-1.51.02-2.25.06"/>
    <g class="cls-19">
      <rect class="cls-14" x="-2.16" y="1.35" width="46.69" height="46.48" transform="translate(-8.81 37.01) rotate(-71.75)"/>
    </g>
  </g>
  <g>
    <path class="cls-10" d="m18.84,7.54c-6.67.33-10.65,2.11-11.74,2.67-2.37,20.05,11.6,29.7,14.07,31.24,15.4-11.14,12.71-29.48,12.15-32.46-4.28-1-8.41-1.5-12.32-1.5-.73,0-1.46.02-2.17.05"/>
    <g class="cls-18">
      <rect class="cls-10" x="-1.71" y="2.55" width="44.75" height="43.83" transform="translate(-10.54 31.68) rotate(-62.84)"/>
    </g>
  </g>
  <g>
    <path class="cls-10" d="m18.61,4.88c-.22,0-.43,0-.65,0-.11,0-.21,0-.32,0-.32,0-.64.02-.96.04-.28.02-.56.03-.84.05-.09,0-.18.02-.28.02-.18.01-.36.03-.53.04-.04,0-.09,0-.13.01-.14.01-.27.02-.4.04-.01,0-.02,0-.03,0-.21.02-.42.05-.63.07-.04,0-.08.01-.12.01-.19.02-.38.05-.57.07-.01,0-.03,0-.04,0-.19.03-.39.05-.58.08-.04,0-.08.01-.13.02-.17.03-.34.05-.51.08-.01,0-.03,0-.05,0-.18.03-.36.06-.53.09-.04,0-.09.01-.12.02-.16.03-.32.06-.47.09-.01,0-.03,0-.05.01-.17.03-.33.07-.48.1-.04,0-.08.02-.12.03-.14.03-.28.06-.42.1-.02,0-.03,0-.05.01-.15.04-.3.07-.44.11-.04,0-.08.02-.12.03-.13.03-.25.07-.37.1-.02,0-.04,0-.05.01,0,0,0,0,0,0-.13.04-.27.08-.4.11-.04.01-.08.02-.12.03-.1.03-.19.06-.29.09-.04.01-.07.02-.11.03-.12.04-.24.08-.36.12-.01,0-.03.01-.04.01-.1.03-.2.07-.3.1-.03.01-.07.02-.1.03-.09.03-.17.06-.25.09-.03,0-.05.02-.08.03-.1.04-.2.08-.3.11-.02,0-.04.02-.07.02-.08.03-.15.06-.22.09-.03.01-.06.02-.08.03-.07.03-.14.06-.21.09-.01,0-.03.01-.05.02-.08.03-.16.06-.23.1-.03.01-.05.02-.07.03-.05.02-.1.04-.15.07-.03.01-.05.02-.07.03-.06.03-.12.05-.17.08-.02,0-.04.02-.05.02-.04.02-.08.04-.11.05,0,0-.01,0-.02.01-.03.01-.06.03-.09.04-.03.01-.06.03-.08.04-.03.01-.05.03-.08.04-.03.01-.05.03-.07.04-.02,0-.04.02-.06.03-.02.01-.04.02-.06.03-.02.01-.04.02-.05.03-.02.01-.04.02-.06.03-.01,0-.03.01-.04.02-.02.01-.04.02-.05.03,0,0-.01,0-.02.01-.02,0-.03.02-.04.02,0,0,0,0,0,0-.01,0-.02.01-.03.02l-.3.18,2.12,1.19.3-.18s.09-.05.21-.12c0,0,.01,0,.02,0,.03-.01.05-.03.08-.04.01,0,.02-.01.04-.02.03-.01.05-.03.08-.04.02,0,.04-.02.06-.03.03-.01.05-.03.09-.04.03-.01.05-.02.08-.04.03-.01.05-.03.08-.04.05-.02.1-.05.15-.07,0,0,.02,0,.03-.01.06-.03.12-.06.18-.08.02,0,.05-.02.07-.03.05-.02.1-.04.15-.06.02-.01.05-.02.07-.03.08-.03.15-.06.23-.1.02,0,.04-.02.06-.03.06-.03.13-.05.19-.08.03-.01.06-.03.1-.04.06-.02.13-.05.2-.07.03-.01.06-.02.09-.03.09-.04.19-.07.29-.11.03-.01.07-.02.1-.04.07-.03.15-.05.22-.08.04-.01.08-.03.12-.04.09-.03.18-.06.27-.09.03-.01.05-.02.08-.03.12-.04.23-.07.35-.11.04-.01.09-.03.13-.04.09-.03.17-.05.27-.08.04-.01.09-.03.14-.04.13-.04.26-.07.39-.11.02,0,.04-.01.07-.02.12-.03.24-.06.36-.09.04-.01.09-.02.13-.04.14-.04.28-.07.42-.11.03,0,.05-.01.08-.02.13-.03.25-.06.39-.09.05-.01.1-.02.14-.03.15-.03.31-.07.47-.1.03,0,.06-.01.08-.01.14-.03.28-.06.43-.08.05-.01.1-.02.15-.03.17-.03.34-.06.51-.09.03,0,.05,0,.08-.01.15-.03.31-.05.47-.08.05,0,.1-.02.15-.02.18-.03.37-.05.55-.08.03,0,.06,0,.08,0,.17-.02.34-.04.51-.06.05,0,.11-.01.16-.02.19-.02.4-.04.6-.07.03,0,.06,0,.09,0,.16-.02.32-.03.48-.04.18-.02.36-.03.55-.04.09,0,.18-.01.27-.02.27-.02.55-.04.84-.05.32-.02.64-.03.96-.04.1,0,.21,0,.31,0,.22,0,.44,0,.66-.01.12,0,.25,0,.37,0,.2,0,.4,0,.61,0,.13,0,.27,0,.4,0,.2,0,.4,0,.6.02.14,0,.27,0,.41.01.2,0,.4.02.6.03.13,0,.27.01.4.02.21.01.42.03.63.04.13,0,.26.02.38.03.23.02.46.04.69.06.11.01.22.02.32.03.32.03.63.07.95.1.02,0,.05,0,.08,0,.08,0,.16.02.23.03.23.03.46.06.68.09.12.02.23.03.35.05.19.03.38.05.57.09.13.02.26.04.38.06.18.03.36.06.55.09.13.02.26.04.39.07.18.03.36.07.54.1.13.02.26.05.4.07.19.04.37.07.56.11.13.03.25.05.38.08.2.04.41.09.62.13.11.02.22.05.32.07.31.07.63.14.94.22l.41.1-2.12-1.19-.41-.1c-.32-.08-.63-.15-.95-.22-.1-.02-.2-.04-.31-.07-.21-.05-.43-.09-.63-.14-.12-.02-.24-.05-.37-.07-.19-.04-.38-.08-.58-.11-.13-.03-.25-.05-.38-.07-.19-.04-.37-.07-.55-.1-.13-.02-.26-.04-.38-.07-.19-.03-.37-.06-.56-.09-.12-.02-.24-.04-.37-.06-.2-.03-.4-.06-.6-.09-.11-.01-.21-.03-.32-.04-.27-.04-.54-.07-.81-.11-.03,0-.07,0-.1-.01,0,0-.01,0-.02,0-.06,0-.13-.01-.19-.02-.27-.03-.55-.06-.82-.09-.12-.01-.24-.02-.36-.03-.22-.02-.44-.04-.66-.06-.13-.01-.27-.02-.4-.03-.21-.01-.41-.03-.61-.04-.14,0-.28-.02-.41-.02-.2-.01-.4-.02-.59-.03-.14,0-.27-.01-.41-.02-.2,0-.4-.01-.59-.01-.13,0-.27,0-.4,0-.2,0-.4,0-.6,0-.09,0-.17,0-.25,0-.04,0-.09,0-.13,0"/>
    <g class="cls-17">
      <rect class="cls-10" x="16.52" y="-8.36" width="5.16" height="30.93" transform="translate(11.56 26.03) rotate(-88.68)"/>
    </g>
  </g>
  <path class="cls-8" d="m41.46,25.94l-4.59-13.99h1.97l2.18,6.89c.58,1.89,1.1,3.59,1.5,5.23h.04c.39-1.62.95-3.38,1.6-5.21l2.37-6.91h1.93l-5,13.99h-1.99Z"/>
  <path class="cls-8" d="m50.24,21.24c.04,2.47,1.6,3.49,3.45,3.49,1.31,0,2.12-.23,2.78-.52l.33,1.31c-.64.29-1.76.64-3.36.64-3.09,0-4.94-2.05-4.94-5.09s1.78-5.4,4.71-5.4c3.3,0,4.15,2.86,4.15,4.71,0,.37-.02.64-.06.85h-7.06Zm5.36-1.31c.02-1.14-.48-2.95-2.53-2.95-1.87,0-2.66,1.68-2.8,2.95h5.33Z"/>
  <path class="cls-8" d="m59.62,19.02c0-1.18-.02-2.2-.08-3.13h1.6l.09,1.99h.06c.46-1.35,1.58-2.2,2.8-2.2.19,0,.33.02.5.04v1.72c-.19-.04-.37-.04-.62-.04-1.29,0-2.2.95-2.45,2.32-.04.25-.06.56-.06.85v5.36h-1.83v-6.91Z"/>
  <path class="cls-8" d="m73.36,23.53c0,.87.04,1.72.15,2.41h-1.64l-.14-1.27h-.06c-.56.79-1.64,1.5-3.07,1.5-2.03,0-3.07-1.43-3.07-2.89,0-2.43,2.16-3.76,6.04-3.74v-.21c0-.81-.23-2.33-2.28-2.31-.96,0-1.93.27-2.64.75l-.42-1.22c.83-.52,2.05-.87,3.32-.87,3.07,0,3.82,2.1,3.82,4.09v3.76Zm-1.76-2.72c-1.99-.04-4.26.31-4.26,2.26,0,1.2.79,1.74,1.7,1.74,1.33,0,2.18-.83,2.47-1.68.06-.21.08-.42.08-.58v-1.74Z"/>
  <path class="cls-8" d="m76.14,23.73c.81.52,1.97.91,3.22.91,1.85,0,2.92-.97,2.92-2.39,0-1.29-.75-2.05-2.64-2.76-2.28-.83-3.69-2.03-3.69-3.98,0-2.18,1.81-3.8,4.52-3.8,1.41,0,2.47.33,3.07.68l-.5,1.47c-.44-.27-1.37-.66-2.64-.66-1.91,0-2.64,1.14-2.64,2.1,0,1.31.85,1.95,2.78,2.7,2.37.91,3.55,2.06,3.55,4.11,0,2.16-1.58,4.05-4.88,4.05-1.35,0-2.82-.42-3.57-.91l.48-1.52Z"/>
  <path class="cls-8" d="m93.66,23.53c0,.87.04,1.72.14,2.41h-1.64l-.15-1.27h-.06c-.56.79-1.64,1.5-3.07,1.5-2.03,0-3.07-1.43-3.07-2.89,0-2.43,2.16-3.76,6.04-3.74v-.21c0-.81-.23-2.33-2.28-2.31-.95,0-1.93.27-2.64.75l-.41-1.22c.83-.52,2.06-.87,3.32-.87,3.07,0,3.82,2.1,3.82,4.09v3.76Zm-1.76-2.72c-1.99-.04-4.26.31-4.26,2.26,0,1.2.79,1.74,1.7,1.74,1.33,0,2.18-.83,2.47-1.68.06-.21.08-.42.08-.58v-1.74Z"/>
  <path class="cls-8" d="m96.79,25.94v-8.66h-1.39v-1.39h1.39v-.48c0-1.41.33-2.7,1.16-3.51.68-.66,1.6-.93,2.45-.93.66,0,1.2.14,1.56.29l-.25,1.41c-.27-.12-.62-.23-1.16-.23-1.56,0-1.95,1.35-1.95,2.91v.54h2.43v1.39h-2.43v8.66h-1.81Z"/>
  <path class="cls-8" d="m103.41,21.24c.04,2.47,1.6,3.49,3.45,3.49,1.31,0,2.12-.23,2.78-.52l.33,1.31c-.64.29-1.76.64-3.36.64-3.09,0-4.94-2.05-4.94-5.09s1.79-5.4,4.71-5.4c3.3,0,4.15,2.86,4.15,4.71,0,.37-.02.64-.06.85h-7.06Zm5.35-1.31c.02-1.14-.48-2.95-2.53-2.95-1.87,0-2.66,1.68-2.8,2.95h5.34Z"/>
  <g>
    <path class="cls-11" d="m20.86,42.92h0,0m0,0h0,0m0,0h0s0,0,0,0M3.64,8.49c-.22,1.7-.32,3.32-.33,4.88v.34c.09,19.4,15.26,27.92,15.42,28.01l2.12,1.19c-.45-.26-18.01-10.31-15.09-33.23l.04-.35-2.12-1.19-.04.35Z"/>
    <g class="cls-23">
      <rect class="cls-11" x="-2.31" y="6.16" width="28.31" height="38.74" transform="translate(-7.63 5.21) rotate(-18.9)"/>
    </g>
  </g>
  <g>
    <polygon class="cls-14" points="22.01 13.95 20.33 23.2 21.11 25.77 24.07 13.95 22.01 13.95"/>
    <g class="cls-22">
      <g class="cls-4">
        <g>
          <rect class="cls-14" x="17.44" y="13.04" width="9.52" height="13.65"/>
          <g class="cls-21">
            <g>
              <rect class="cls-14" x="16.01" y="16.56" width="12.38" height="6.61" transform="translate(-2.62 36.33) rotate(-75.37)"/>
              <g class="cls-24">
                <rect class="cls-14" x="14.39" y="13.53" width="15.61" height="12.66" transform="translate(-2.62 36.32) rotate(-75.37)"/>
              </g>
            </g>
          </g>
        </g>
      </g>
    </g>
  </g>
  <g>
    <polygon class="cls-14" points="9.86 14.52 16.09 31.87 18.33 31.87 12.04 14.4 9.86 14.52"/>
    <g class="cls-45">
      <g class="cls-54">
        <g>
          <rect class="cls-14" x="4.45" y="11.78" width="19.28" height="22.71"/>
          <g class="cls-44">
            <g>
              <rect class="cls-14" x="7.23" y="13.5" width="13.72" height="19.28" transform="translate(-6.8 5.89) rotate(-19.12)"/>
              <g class="cls-43">
                <rect class="cls-14" x="1.27" y="9.25" width="25.65" height="27.77" transform="translate(-6.8 5.89) rotate(-19.12)"/>
              </g>
            </g>
          </g>
        </g>
      </g>
    </g>
  </g>
  <g class="cls-42">
    <g class="cls-46">
      <g class="cls-52">
        <g class="cls-48">
          <g class="cls-26">
            <g class="cls-25">
              <polygon class="cls-13" points="20.7 27.9 20.63 27.9 21.92 28.89 22 28.88 20.7 27.9"/>
            </g>
          </g>
          <g class="cls-32">
            <g class="cls-31">
              <g class="cls-33">
                <g class="cls-53">
                  <g class="cls-38">
                    <g class="cls-36">
                      <rect class="cls-50" x="12.99" y="13.08" width="20.09" height="16.68" transform="translate(-3.82 37.8) rotate(-74.3)"/>
                    </g>
                  </g>
                </g>
              </g>
            </g>
          </g>
          <g class="cls-34">
            <g class="cls-35">
              <polygon class="cls-7" points="28.32 13.79 24.07 13.95 25.37 14.94 29.61 14.78 28.32 13.79"/>
            </g>
          </g>
          <g class="cls-27">
            <g class="cls-28">
              <polygon class="cls-7" points="16.42 14.24 12.04 14.4 13.33 15.39 17.71 15.23 16.42 14.24"/>
            </g>
          </g>
          <g class="cls-30">
            <g class="cls-29">
              <polygon class="cls-9" points="18.33 31.87 19.62 32.86 13.34 15.39 12.04 14.4 18.33 31.87"/>
            </g>
          </g>
          <g class="cls-41">
            <g class="cls-39">
              <g class="cls-40">
                <path class="cls-7" d="m29.61,14.78l-5.32,17.9-4.67.18-6.29-17.47,4.38-.17,2.42,7.4c.68,2.1,1.3,4.08,1.79,6.26h.08c.37-2.15.85-4.27,1.38-6.31l1.99-7.64,4.24-.16Z"/>
              </g>
            </g>
          </g>
        </g>
      </g>
    </g>
  </g>
  <g>
    <path class="cls-7" d="m38.65,30.03c.32-.05.73-.1,1.26-.1.65,0,1.12.15,1.42.42.28.24.44.61.44,1.06s-.14.82-.39,1.08c-.35.37-.91.56-1.55.56-.2,0-.38,0-.53-.05v2.03h-.65v-5.01Zm.65,2.44c.14.04.32.05.54.05.79,0,1.27-.38,1.27-1.08s-.47-.99-1.2-.99c-.29,0-.5.02-.62.05v1.97Z"/>
    <path class="cls-7" d="m43.55,30.04c.33-.07.8-.11,1.26-.11.7,0,1.15.13,1.47.41.26.23.4.57.4.96,0,.67-.42,1.11-.96,1.29v.02c.39.14.62.5.74,1.02.17.71.29,1.2.39,1.39h-.68c-.08-.14-.2-.58-.34-1.21-.15-.7-.42-.96-1.02-.99h-.62v2.2h-.65v-5Zm.65,2.31h.67c.7,0,1.14-.38,1.14-.96,0-.65-.47-.94-1.17-.95-.32,0-.54.03-.65.06v1.85Z"/>
    <path class="cls-7" d="m49.16,29.97v5.07h-.65v-5.07h.65Z"/>
    <path class="cls-7" d="m52.32,35.04l-1.65-5.07h.71l.79,2.5c.22.68.41,1.3.54,1.9h.02c.14-.59.35-1.23.58-1.89l.86-2.5h.7l-1.81,5.07h-.72Z"/>
    <path class="cls-7" d="m56.69,33.45l-.53,1.59h-.68l1.72-5.07h.79l1.73,5.07h-.7l-.54-1.59h-1.8Zm1.66-.51l-.5-1.46c-.11-.33-.19-.63-.26-.93h-.02c-.08.3-.16.61-.26.92l-.5,1.47h1.53Z"/>
    <path class="cls-7" d="m64.81,34.88c-.24.12-.72.24-1.34.24-1.43,0-2.5-.9-2.5-2.56s1.08-2.66,2.65-2.66c.63,0,1.03.14,1.2.23l-.16.53c-.25-.12-.6-.21-1.02-.21-1.19,0-1.98.76-1.98,2.09,0,1.24.71,2.04,1.95,2.04.4,0,.81-.08,1.07-.21l.14.52Z"/>
    <path class="cls-7" d="m67.69,35.04v-2.15l-1.6-2.92h.74l.71,1.4c.2.38.35.69.5,1.05h.02c.14-.33.32-.66.51-1.05l.73-1.4h.74l-1.7,2.91v2.16h-.66Z"/>
    <path class="cls-7" d="m74.88,35.04l-1.65-5.07h.71l.79,2.5c.22.68.41,1.3.54,1.9h.02c.14-.59.35-1.23.58-1.89l.86-2.5h.7l-1.81,5.07h-.72Z"/>
    <path class="cls-7" d="m81.5,32.67h-1.97v1.83h2.2v.55h-2.85v-5.07h2.74v.55h-2.08v1.6h1.97v.54Z"/>
    <path class="cls-7" d="m83.48,30.04c.33-.07.8-.11,1.26-.11.7,0,1.15.13,1.47.41.26.23.4.57.4.96,0,.67-.42,1.11-.96,1.29v.02c.39.14.62.5.74,1.02.17.71.29,1.2.39,1.39h-.68c-.08-.14-.2-.58-.34-1.21-.15-.7-.42-.96-1.02-.99h-.62v2.2h-.65v-5Zm.65,2.31h.67c.7,0,1.14-.38,1.14-.96,0-.65-.47-.94-1.17-.95-.32,0-.54.03-.65.06v1.85Z"/>
    <path class="cls-7" d="m89.09,29.97v5.07h-.65v-5.07h.65Z"/>
    <path class="cls-7" d="m91.13,29.97h2.73v.55h-2.08v1.69h1.92v.54h-1.92v2.29h-.65v-5.07Z"/>
    <path class="cls-7" d="m96.35,29.97v5.07h-.65v-5.07h.65Z"/>
    <path class="cls-7" d="m101.02,32.67h-1.97v1.83h2.2v.55h-2.85v-5.07h2.74v.55h-2.08v1.6h1.97v.54Z"/>
    <path class="cls-7" d="m103,30.04c.4-.06.87-.11,1.39-.11.94,0,1.61.22,2.05.63.45.41.71,1,.71,1.82s-.26,1.5-.73,1.97c-.47.47-1.26.73-2.24.73-.47,0-.86-.02-1.19-.06v-4.99Zm.65,4.48c.17.03.41.04.66.04,1.4,0,2.16-.78,2.16-2.15,0-1.2-.67-1.96-2.05-1.96-.34,0-.59.03-.77.07v4Z"/>
  </g>
</svg>