<svg xmlns="http://www.w3.org/2000/svg" viewBox="0 0 445.35 706.35"><g id="Australia"><circle cx="285.68" cy="353.18" r="6.5" fill="#5bb7b1"/><circle cx="303.68" cy="353.18" r="6.5" fill="#5bb7b1"/><circle cx="321.68" cy="353.18" r="6.5" fill="#5bb7b1"/><circle cx="339.68" cy="353.18" r="6.5" fill="#5bb7b1"/><circle cx="357.68" cy="353.18" r="6.5" fill="#5bb7b1"/><circle cx="375.68" cy="389.18" r="6.5" fill="#5bb7b1"/><circle cx="303.68" cy="389.18" r="6.5" fill="#5bb7b1"/><circle cx="321.68" cy="389.18" r="6.5" fill="#5bb7b1"/><circle cx="339.68" cy="389.18" r="6.5" fill="#5bb7b1"/><circle cx="357.68" cy="389.18" r="6.5" fill="#5bb7b1"/><circle cx="375.68" cy="407.18" r="6.5" fill="#5bb7b1"/><circle cx="303.68" cy="407.18" r="6.5" fill="#5bb7b1"/><circle cx="321.68" cy="407.18" r="6.5" fill="#5bb7b1"/><circle cx="339.68" cy="407.18" r="6.5" fill="#5bb7b1"/><circle cx="357.68" cy="407.18" r="6.5" fill="#5bb7b1"/><circle cx="375.68" cy="425.18" r="6.5" fill="#5bb7b1"/><circle cx="303.68" cy="425.18" r="6.5" fill="#5bb7b1"/><circle cx="321.68" cy="425.18" r="6.5" fill="#5bb7b1"/><circle cx="339.68" cy="425.18" r="6.5" fill="#5bb7b1"/><circle cx="357.68" cy="425.18" r="6.5" fill="#5bb7b1"/><circle cx="393.68" cy="443.18" r="6.5" fill="#5bb7b1"/><circle cx="375.68" cy="443.18" r="6.5" fill="#5bb7b1"/><circle cx="303.68" cy="443.18" r="6.5" fill="#5bb7b1"/><circle cx="321.68" cy="443.18" r="6.5" fill="#5bb7b1"/><circle cx="339.68" cy="443.18" r="6.5" fill="#5bb7b1"/><circle cx="357.68" cy="443.18" r="6.5" fill="#5bb7b1"/><circle cx="393.68" cy="461.18" r="6.5" fill="#5bb7b1"/><circle cx="375.68" cy="461.18" r="6.5" fill="#5bb7b1"/><circle cx="321.68" cy="461.18" r="6.5" fill="#5bb7b1"/><circle cx="339.68" cy="461.18" r="6.5" fill="#5bb7b1"/><circle cx="357.68" cy="461.18" r="6.5" fill="#5bb7b1"/><circle cx="393.68" cy="479.18" r="6.5" fill="#5bb7b1"/><circle cx="375.68" cy="479.18" r="6.5" fill="#5bb7b1"/><circle cx="321.68" cy="479.18" r="6.5" fill="#5bb7b1"/><circle cx="339.68" cy="479.18" r="6.5" fill="#5bb7b1"/><circle cx="357.68" cy="479.18" r="6.5" fill="#5bb7b1"/><circle cx="393.68" cy="497.18" r="6.5" fill="#5bb7b1"/><circle cx="375.68" cy="497.18" r="6.5" fill="#5bb7b1"/><circle cx="303.68" cy="497.18" r="6.5" fill="#5bb7b1"/><circle cx="321.68" cy="497.18" r="6.5" fill="#5bb7b1"/><circle cx="339.68" cy="497.18" r="6.5" fill="#5bb7b1"/><circle cx="357.68" cy="497.18" r="6.5" fill="#5bb7b1"/><circle cx="393.68" cy="515.18" r="6.5" fill="#5bb7b1"/><circle cx="375.68" cy="515.18" r="6.5" fill="#5bb7b1"/><circle cx="285.68" cy="515.18" r="6.5" fill="#5bb7b1"/><circle cx="303.68" cy="515.18" r="6.5" fill="#5bb7b1"/><circle cx="321.68" cy="515.18" r="6.5" fill="#5bb7b1"/><circle cx="339.68" cy="515.18" r="6.5" fill="#5bb7b1"/><circle cx="357.68" cy="515.18" r="6.5" fill="#5bb7b1"/><circle cx="303.68" cy="371.18" r="6.5" fill="#5bb7b1"/><circle cx="321.68" cy="371.18" r="6.5" fill="#5bb7b1"/><circle cx="339.68" cy="371.18" r="6.5" fill="#5bb7b1"/><circle cx="357.68" cy="371.18" r="6.5" fill="#5bb7b1"/><circle cx="213.68" cy="659.18" r="6.5" fill="#5bb7b1"/><circle cx="195.68" cy="191.17" r="6.5" fill="#5bb7b1"/><circle cx="177.68" cy="191.17" r="6.5" fill="#5bb7b1"/><circle cx="213.68" cy="191.17" r="6.5" fill="#5bb7b1"/><circle cx="231.68" cy="191.17" r="6.5" fill="#5bb7b1"/><circle cx="249.68" cy="191.17" r="6.5" fill="#5bb7b1"/><circle cx="195.68" cy="263.17" r="6.5" fill="#5bb7b1"/><circle cx="213.68" cy="263.17" r="6.5" fill="#5bb7b1"/><circle cx="231.68" cy="263.17" r="6.5" fill="#5bb7b1"/><circle cx="249.68" cy="263.17" r="6.5" fill="#5bb7b1"/><circle cx="213.68" cy="641.18" r="6.5" fill="#5bb7b1"/><circle cx="231.68" cy="641.18" r="6.5" fill="#5bb7b1"/><circle cx="249.68" cy="641.18" r="6.5" fill="#5bb7b1"/><circle cx="213.68" cy="281.17" r="6.5" fill="#5bb7b1"/><circle cx="231.68" cy="281.17" r="6.5" fill="#5bb7b1"/><circle cx="249.68" cy="281.17" r="6.5" fill="#5bb7b1"/><circle cx="285.68" cy="317.18" r="6.5" fill="#5bb7b1"/><circle cx="303.68" cy="317.18" r="6.5" fill="#5bb7b1"/><circle cx="249.68" cy="317.18" r="6.5" fill="#5bb7b1"/><circle cx="267.68" cy="317.18" r="6.5" fill="#5bb7b1"/><circle cx="285.68" cy="335.18" r="6.5" fill="#5bb7b1"/><circle cx="303.68" cy="335.18" r="6.5" fill="#5bb7b1"/><circle cx="321.68" cy="335.18" r="6.5" fill="#5bb7b1"/><circle cx="267.68" cy="335.18" r="6.5" fill="#5bb7b1"/><circle cx="393.68" cy="533.18" r="6.5" fill="#5bb7b1"/><circle cx="375.68" cy="533.18" r="6.5" fill="#5bb7b1"/><circle cx="285.68" cy="533.18" r="6.5" fill="#5bb7b1"/><circle cx="303.68" cy="533.18" r="6.5" fill="#5bb7b1"/><circle cx="321.68" cy="533.18" r="6.5" fill="#5bb7b1"/><circle cx="339.68" cy="533.18" r="6.5" fill="#5bb7b1"/><circle cx="357.68" cy="533.18" r="6.5" fill="#5bb7b1"/><circle cx="249.68" cy="533.18" r="6.5" fill="#5bb7b1"/><circle cx="267.68" cy="533.18" r="6.5" fill="#5bb7b1"/><circle cx="375.68" cy="551.18" r="6.5" fill="#5bb7b1"/><circle cx="285.68" cy="551.18" r="6.5" fill="#5bb7b1"/><circle cx="303.68" cy="551.18" r="6.5" fill="#5bb7b1"/><circle cx="321.68" cy="551.18" r="6.5" fill="#5bb7b1"/><circle cx="339.68" cy="551.18" r="6.5" fill="#5bb7b1"/><circle cx="357.68" cy="551.18" r="6.5" fill="#5bb7b1"/><circle cx="213.68" cy="551.18" r="6.5" fill="#5bb7b1"/><circle cx="231.68" cy="551.18" r="6.5" fill="#5bb7b1"/><circle cx="249.68" cy="551.18" r="6.5" fill="#5bb7b1"/><circle cx="267.68" cy="551.18" r="6.5" fill="#5bb7b1"/><circle cx="285.68" cy="569.18" r="6.5" fill="#5bb7b1"/><circle cx="195.68" cy="569.18" r="6.5" fill="#5bb7b1"/><circle cx="177.68" cy="569.18" r="6.5" fill="#5bb7b1"/><circle cx="303.68" cy="569.18" r="6.5" fill="#5bb7b1"/><circle cx="321.68" cy="569.18" r="6.5" fill="#5bb7b1"/><circle cx="339.68" cy="569.18" r="6.5" fill="#5bb7b1"/><circle cx="357.68" cy="569.18" r="6.5" fill="#5bb7b1"/><circle cx="213.68" cy="569.18" r="6.5" fill="#5bb7b1"/><circle cx="231.68" cy="569.18" r="6.5" fill="#5bb7b1"/><circle cx="249.68" cy="569.18" r="6.5" fill="#5bb7b1"/><circle cx="267.68" cy="569.18" r="6.5" fill="#5bb7b1"/><circle cx="285.68" cy="587.18" r="6.5" fill="#5bb7b1"/><circle cx="195.68" cy="587.18" r="6.5" fill="#5bb7b1"/><circle cx="177.68" cy="587.18" r="6.5" fill="#5bb7b1"/><circle cx="303.68" cy="587.18" r="6.5" fill="#5bb7b1"/><circle cx="321.68" cy="587.18" r="6.5" fill="#5bb7b1"/><circle cx="213.68" cy="587.18" r="6.5" fill="#5bb7b1"/><circle cx="231.68" cy="587.18" r="6.5" fill="#5bb7b1"/><circle cx="249.68" cy="587.18" r="6.5" fill="#5bb7b1"/><circle cx="267.68" cy="587.18" r="6.5" fill="#5bb7b1"/><circle cx="285.68" cy="605.18" r="6.5" fill="#5bb7b1"/><circle cx="177.68" cy="605.18" r="6.5" fill="#5bb7b1"/><circle cx="213.68" cy="605.18" r="6.5" fill="#5bb7b1"/><circle cx="231.68" cy="605.18" r="6.5" fill="#5bb7b1"/><circle cx="249.68" cy="605.18" r="6.5" fill="#5bb7b1"/><circle cx="267.68" cy="605.18" r="6.5" fill="#5bb7b1"/><circle cx="213.68" cy="623.18" r="6.5" fill="#5bb7b1"/><circle cx="231.68" cy="623.18" r="6.5" fill="#5bb7b1"/><circle cx="249.68" cy="623.18" r="6.5" fill="#5bb7b1"/><circle cx="267.68" cy="623.18" r="6.5" fill="#5bb7b1"/><circle cx="231.68" cy="299.18" r="6.5" fill="#5bb7b1"/><circle cx="249.68" cy="299.18" r="6.5" fill="#5bb7b1"/><circle cx="267.68" cy="299.18" r="6.5" fill="#5bb7b1"/><circle cx="195.68" cy="47.17" r="6.5" fill="#5bb7b1"/><circle cx="177.68" cy="47.17" r="6.5" fill="#5bb7b1"/><circle cx="213.68" cy="47.17" r="6.5" fill="#5bb7b1"/><circle cx="231.68" cy="47.17" r="6.5" fill="#5bb7b1"/><circle cx="249.68" cy="47.17" r="6.5" fill="#5bb7b1"/><circle cx="159.68" cy="47.17" r="6.5" fill="#5bb7b1"/><circle cx="195.68" cy="65.17" r="6.5" fill="#5bb7b1"/><circle cx="177.68" cy="65.17" r="6.5" fill="#5bb7b1"/><circle cx="213.68" cy="65.17" r="6.5" fill="#5bb7b1"/><circle cx="231.68" cy="65.17" r="6.5" fill="#5bb7b1"/><circle cx="249.68" cy="65.17" r="6.5" fill="#5bb7b1"/><circle cx="159.68" cy="65.17" r="6.5" fill="#5bb7b1"/><circle cx="195.68" cy="173.17" r="6.5" fill="#5bb7b1"/><circle cx="177.68" cy="173.17" r="6.5" fill="#5bb7b1"/><circle cx="213.68" cy="173.17" r="6.5" fill="#5bb7b1"/><circle cx="231.68" cy="173.17" r="6.5" fill="#5bb7b1"/><circle cx="249.68" cy="173.17" r="6.5" fill="#5bb7b1"/><circle cx="159.68" cy="173.17" r="6.5" fill="#5bb7b1"/><circle cx="195.68" cy="245.17" r="6.5" fill="#5bb7b1"/><circle cx="177.68" cy="245.17" r="6.5" fill="#5bb7b1"/><circle cx="213.68" cy="245.17" r="6.5" fill="#5bb7b1"/><circle cx="231.68" cy="245.17" r="6.5" fill="#5bb7b1"/><circle cx="159.68" cy="245.17" r="6.5" fill="#5bb7b1"/><circle cx="51.67" cy="83.17" r="6.5" fill="#5bb7b1"/><circle cx="69.67" cy="83.17" r="6.5" fill="#5bb7b1"/><circle cx="87.68" cy="83.17" r="6.5" fill="#5bb7b1"/><circle cx="105.68" cy="83.17" r="6.5" fill="#5bb7b1"/><circle cx="123.68" cy="83.17" r="6.5" fill="#5bb7b1"/><circle cx="195.68" cy="83.17" r="6.5" fill="#5bb7b1"/><circle cx="177.68" cy="83.17" r="6.5" fill="#5bb7b1"/><circle cx="213.68" cy="83.17" r="6.5" fill="#5bb7b1"/><circle cx="231.68" cy="83.17" r="6.5" fill="#5bb7b1"/><circle cx="249.68" cy="83.17" r="6.5" fill="#5bb7b1"/><circle cx="159.68" cy="83.17" r="6.5" fill="#5bb7b1"/><circle cx="141.68" cy="83.17" r="6.5" fill="#5bb7b1"/><circle cx="51.67" cy="101.17" r="6.5" fill="#5bb7b1"/><circle cx="69.67" cy="101.17" r="6.5" fill="#5bb7b1"/><circle cx="87.68" cy="101.17" r="6.5" fill="#5bb7b1"/><circle cx="105.68" cy="101.17" r="6.5" fill="#5bb7b1"/><circle cx="123.68" cy="101.17" r="6.5" fill="#5bb7b1"/><circle cx="195.68" cy="101.17" r="6.5" fill="#5bb7b1"/><circle cx="177.68" cy="101.17" r="6.5" fill="#5bb7b1"/><circle cx="213.68" cy="101.17" r="6.5" fill="#5bb7b1"/><circle cx="231.68" cy="101.17" r="6.5" fill="#5bb7b1"/><circle cx="249.68" cy="101.17" r="6.5" fill="#5bb7b1"/><circle cx="159.68" cy="101.17" r="6.5" fill="#5bb7b1"/><circle cx="141.68" cy="101.17" r="6.5" fill="#5bb7b1"/><circle cx="87.68" cy="119.17" r="6.5" fill="#5bb7b1"/><circle cx="105.68" cy="119.17" r="6.5" fill="#5bb7b1"/><circle cx="123.68" cy="119.17" r="6.5" fill="#5bb7b1"/><circle cx="285.68" cy="119.17" r="6.5" fill="#5bb7b1"/><circle cx="195.68" cy="119.17" r="6.5" fill="#5bb7b1"/><circle cx="177.68" cy="119.17" r="6.5" fill="#5bb7b1"/><circle cx="303.68" cy="119.17" r="6.5" fill="#5bb7b1"/><circle cx="213.68" cy="119.17" r="6.5" fill="#5bb7b1"/><circle cx="231.68" cy="119.17" r="6.5" fill="#5bb7b1"/><circle cx="249.68" cy="119.17" r="6.5" fill="#5bb7b1"/><circle cx="267.68" cy="119.17" r="6.5" fill="#5bb7b1"/><circle cx="159.68" cy="119.17" r="6.5" fill="#5bb7b1"/><circle cx="141.68" cy="119.17" r="6.5" fill="#5bb7b1"/><circle cx="87.68" cy="137.17" r="6.5" fill="#5bb7b1"/><circle cx="105.68" cy="137.17" r="6.5" fill="#5bb7b1"/><circle cx="123.68" cy="137.17" r="6.5" fill="#5bb7b1"/><circle cx="285.68" cy="137.17" r="6.5" fill="#5bb7b1"/><circle cx="195.68" cy="137.17" r="6.5" fill="#5bb7b1"/><circle cx="177.68" cy="137.17" r="6.5" fill="#5bb7b1"/><circle cx="303.68" cy="137.17" r="6.5" fill="#5bb7b1"/><circle cx="213.68" cy="137.17" r="6.5" fill="#5bb7b1"/><circle cx="231.68" cy="137.17" r="6.5" fill="#ff8200"/><circle cx="249.68" cy="137.17" r="6.5" fill="#5bb7b1"/><circle cx="267.68" cy="137.17" r="6.5" fill="#5bb7b1"/><circle cx="159.68" cy="137.17" r="6.5" fill="#5bb7b1"/><circle cx="141.68" cy="137.17" r="6.5" fill="#5bb7b1"/><circle cx="105.68" cy="155.17" r="6.5" fill="#5bb7b1"/><circle cx="123.68" cy="155.17" r="6.5" fill="#5bb7b1"/><circle cx="195.68" cy="155.17" r="6.5" fill="#5bb7b1"/><circle cx="177.68" cy="155.17" r="6.5" fill="#5bb7b1"/><circle cx="213.68" cy="155.17" r="6.5" fill="#5bb7b1"/><circle cx="231.68" cy="155.17" r="6.5" fill="#5bb7b1"/><circle cx="249.68" cy="155.17" r="6.5" fill="#5bb7b1"/><circle cx="267.68" cy="155.17" r="6.5" fill="#5bb7b1"/><circle cx="159.68" cy="155.17" r="6.5" fill="#5bb7b1"/><circle cx="141.68" cy="155.17" r="6.5" fill="#5bb7b1"/><circle cx="195.68" cy="209.17" r="6.5" fill="#5bb7b1"/><circle cx="177.68" cy="209.17" r="6.5" fill="#5bb7b1"/><circle cx="213.68" cy="209.17" r="6.5" fill="#5bb7b1"/><circle cx="231.68" cy="209.17" r="6.5" fill="#5bb7b1"/><circle cx="159.68" cy="209.17" r="6.5" fill="#5bb7b1"/><circle cx="141.68" cy="209.17" r="6.5" fill="#5bb7b1"/><circle cx="195.68" cy="227.17" r="6.5" fill="#5bb7b1"/><circle cx="177.68" cy="227.17" r="6.5" fill="#5bb7b1"/><circle cx="213.68" cy="227.17" r="6.5" fill="#5bb7b1"/><circle cx="231.68" cy="227.17" r="6.5" fill="#5bb7b1"/><circle cx="159.68" cy="227.17" r="6.5" fill="#5bb7b1"/><circle cx="141.68" cy="227.17" r="6.5" fill="#5bb7b1"/></g></svg>